<svg width="417" height="314" viewBox="0 0 417 314" fill="none" xmlns="http://www.w3.org/2000/svg">
<path d="M199.277 184.761C197.141 186.35 194.563 188.902 193.626 192.548C192.948 195.256 193.599 196.845 193.365 200.334C193.209 202.756 192.584 206.168 190.579 210.23C186.021 209.293 178.365 208.381 169.328 210.465C163.938 211.715 159.615 213.668 156.438 215.439C156.932 215.751 157.609 216.116 158.469 216.35C163.339 217.678 168.469 213.59 168.625 213.876C168.781 214.137 162.896 216.897 163.208 219.293C163.417 220.908 166.307 221.767 169.302 222.678C171.828 223.434 174.224 224.163 177.427 223.798C181.828 223.303 184.875 221.09 186.23 219.944C187.532 220.595 189.459 221.454 191.881 222.21C196.334 223.564 202.48 225.439 206.568 222.887C209.225 221.22 210.032 217.314 211.542 209.553C213.365 200.1 214.225 195.36 211.777 191.48C208.574 186.298 201.985 185.1 199.277 184.761Z" fill="white" stroke="#948A9E" stroke-width="0.781262" stroke-miterlimit="10"/>
<path d="M189.748 210.517C192.899 211.689 195.504 213.824 197.3 216.663C197.561 217.079 198.238 216.689 197.978 216.272C196.076 213.251 193.29 211.012 189.957 209.762C189.462 209.579 189.279 210.334 189.748 210.517Z" fill="#948A9E"/>
<path d="M172.974 215.647C169.875 216.168 167.375 218.251 166.255 221.168C166.072 221.637 166.828 221.845 167.01 221.377C168.026 218.72 170.369 216.871 173.182 216.402C173.677 216.324 173.468 215.569 172.974 215.647Z" fill="#948A9E"/>
<path d="M176.623 218.251C175.503 218.929 174.462 219.71 173.472 220.543C172.821 221.116 172.092 221.793 172.248 222.731C172.639 225.205 175.607 224.658 177.222 224.033C177.691 223.851 177.482 223.095 177.014 223.278C176.311 223.538 175.529 223.877 174.774 223.851C173.55 223.798 172.456 222.627 173.498 221.559C174.488 220.517 175.79 219.684 177.014 218.903C177.43 218.642 177.04 217.965 176.623 218.251Z" fill="#948A9E"/>
<path d="M223.571 152.704C222.243 153.146 220.55 153.823 218.649 154.761C218.102 155.021 216.722 155.724 215.237 156.688C212.946 158.146 211.279 159.683 209.378 161.61C206.956 164.084 204.508 166.558 201.591 170.516C199.143 173.85 195.341 179.084 192.607 186.767C191.513 189.814 190.888 192.444 190.523 194.319C191.956 193.485 193.258 193.069 194.273 192.834C200.133 191.506 205.758 194.475 211.097 197.262C213.102 198.303 214.69 199.319 215.784 200.022C216.357 197.209 216.93 194.371 217.503 191.558C217.998 189.189 218.467 186.793 218.961 184.423C219.717 183.772 220.732 182.808 221.852 181.558C223.961 179.162 228.154 174.397 228.727 167.782C229.43 160.152 224.899 154.318 223.571 152.704Z" fill="#BB9ED8"/>
<path d="M222.041 153.016C219.254 153.433 216.858 154.917 214.697 156.636C212.197 158.589 209.853 160.751 207.666 163.043C203.395 167.47 199.671 172.418 196.598 177.756C196.337 178.199 197.014 178.59 197.275 178.147C200.244 172.991 203.785 168.199 207.9 163.902C209.905 161.819 212.015 159.839 214.228 157.99C216.598 156.037 219.124 154.214 222.249 153.746C222.744 153.693 222.536 152.938 222.041 153.016Z" fill="#948A9E"/>
<path d="M220.946 181.454C219.019 183.407 217.04 185.308 215.034 187.157C214.67 187.496 215.217 188.043 215.581 187.704C217.586 185.855 219.566 183.954 221.493 182.001C221.831 181.637 221.284 181.09 220.946 181.454Z" fill="#948A9E"/>
<path d="M218.233 185.022C217.321 190.022 216.436 195.048 215.524 200.048C215.707 199.97 215.915 199.892 216.097 199.814C211.956 196.923 207.347 194.762 202.451 193.407C198.623 192.366 193.753 191.35 190.472 194.241C190.107 194.579 190.654 195.126 191.019 194.788C194.352 191.819 199.743 193.381 203.519 194.527C207.868 195.855 211.956 197.887 215.681 200.465C215.889 200.595 216.201 200.465 216.253 200.23C217.165 195.23 218.05 190.204 218.962 185.204C219.066 184.735 218.311 184.527 218.233 185.022Z" fill="#948A9E"/>
<path d="M196.774 177.392C194.066 182.678 190.68 188.121 190.446 194.241C190.42 194.736 191.201 194.736 191.227 194.241C191.462 188.277 194.795 182.965 197.451 177.782C197.66 177.339 196.983 176.949 196.774 177.392Z" fill="#948A9E"/>
<path opacity="0.4" d="M219.928 167.547C215.267 176.818 212.741 184.631 211.256 190.1C209.095 198.121 208.34 204.449 202.741 209.709C201.829 210.569 199.147 213.043 194.928 214.579C186.074 217.782 179.511 213.46 173.938 218.043C173.313 218.564 171.464 219.866 171.673 221.35C171.881 222.757 173.808 223.486 174.094 223.616C176.386 224.501 178.756 223.59 181.725 222.392C185.084 221.038 184.72 220.569 186.23 220.309C189.407 219.762 190.866 221.767 195.084 223.095C196.881 223.642 202.194 225.309 206.022 223.095C208.835 221.454 209.694 218.381 211.048 213.199C211.986 209.683 212.949 204.553 212.793 198.095C213.835 198.902 214.876 199.709 215.918 200.517C217.272 189.527 218.6 178.537 219.928 167.547Z" fill="#948A9E"/>
<path opacity="0.38" d="M218.367 178.824C214.8 185.569 213.055 191.272 212.117 195.126C210.242 202.861 210.841 206.506 208.289 211.949C205.555 217.861 201.128 221.611 198.055 223.746C199.773 224.137 203.914 224.866 206.909 222.522C209.018 220.882 209.565 218.538 210.373 214.71C211.388 209.996 212.456 204.631 213.498 198.746C214.305 199.267 215.112 199.788 215.92 200.308C216.753 193.173 217.56 185.985 218.367 178.824Z" fill="#948A9E"/>
<path d="M223.024 152.183C222.086 158.303 221.175 164.475 220.289 170.673C216.852 194.709 213.883 218.33 211.383 241.559C211.435 242.34 211.643 243.59 212.424 244.84C213.206 246.116 214.247 246.767 214.742 247.106C219.482 250.491 221.852 252.21 224.248 253.356C235.732 258.903 248.441 258.252 248.441 258.252C251.123 258.122 256.462 257.783 262.191 255.492C262.503 255.361 264.691 254.346 269.066 252.288C273.024 250.439 273.727 250.075 274.691 249.189C276.983 247.08 277.868 244.476 278.467 242.627C279.743 238.694 279.613 235.361 279.561 234.554C279.561 234.554 279.3 228.069 279.118 190.204C279.092 182.496 279.847 171.167 283.91 157.183C279.691 155.125 275.733 153.224 270.967 150.933C267.686 149.344 264.639 147.886 260.264 147.365C259.014 147.209 257.894 147.157 256.227 147.183C249.456 147.235 243.883 148.276 241.487 148.693C236.826 149.448 230.524 150.594 223.024 152.183Z" fill="#BB9ED8"/>
<path d="M222.822 153.094C230.895 151.375 239.046 149.995 247.223 148.979C247.588 148.927 247.796 148.458 247.431 148.25C247.327 148.198 247.223 148.12 247.093 148.068C246.65 147.807 246.26 148.485 246.702 148.745C246.806 148.797 246.911 148.875 247.041 148.927C247.119 148.693 247.171 148.432 247.249 148.198C238.994 149.214 230.764 150.594 222.639 152.339C222.119 152.443 222.327 153.198 222.822 153.094Z" fill="#948A9E"/>
<path d="M220.397 166.74C217.533 187.157 214.928 207.6 212.585 228.095C212.298 230.673 212.012 233.225 211.725 235.803C211.491 238.043 210.84 240.569 211.126 242.809C211.387 244.788 212.949 246.038 214.381 247.236C215.944 248.538 217.585 249.762 219.303 250.882C226.361 255.439 234.616 258.174 243.002 258.668C252.976 259.241 263.002 256.689 271.518 251.481C271.934 251.22 271.544 250.543 271.127 250.804C256.231 259.892 237.272 260.257 222.09 251.637C220.345 250.647 218.652 249.554 217.038 248.356C215.397 247.132 212.741 245.465 212.064 243.46C211.751 242.496 211.907 241.429 212.012 240.413C212.142 239.137 212.298 237.835 212.428 236.559C212.689 234.163 212.949 231.767 213.236 229.371C214.355 219.605 215.501 209.866 216.751 200.126C218.158 189.058 219.616 177.99 221.178 166.948C221.231 166.453 220.475 166.245 220.397 166.74Z" fill="#948A9E"/>
<path d="M258.759 147.13C263.343 148.042 267.64 150.151 271.911 151.948C276.103 153.719 280.765 155.151 284.463 157.86C284.88 158.146 285.27 157.469 284.854 157.183C281.234 154.526 276.676 153.12 272.588 151.401C268.161 149.552 263.707 147.339 258.968 146.375C258.473 146.271 258.265 147.026 258.759 147.13Z" fill="#948A9E"/>
<path d="M279.171 191.298C278.754 202.262 278.337 213.225 278.728 224.163C278.91 229.476 279.744 234.996 278.754 240.283C277.921 244.632 275.473 248.981 271.124 250.596C270.655 250.778 270.863 251.533 271.332 251.351C278.259 248.773 280.056 240.882 279.952 234.267C279.9 229.788 279.509 225.309 279.405 220.803C279.301 216.22 279.353 211.663 279.431 207.079C279.535 201.819 279.744 196.558 279.926 191.298C279.978 190.777 279.197 190.777 279.171 191.298Z" fill="#948A9E"/>
<path opacity="0.38" d="M275.423 185.126C274.042 189.866 271.881 195.048 268.548 200.204C253.625 223.147 226.307 227.731 219.328 228.694C228.703 229.684 238.183 230.752 247.766 231.897C258.339 233.147 268.782 234.476 279.069 235.83C278.418 224.189 278.418 214.605 278.574 207.756C278.86 193.59 279.876 182.131 278.027 181.766C277.584 181.662 276.803 182.157 275.423 185.126Z" fill="#948A9E"/>
<path opacity="0.42" d="M278.628 193.642C277.691 196.402 276.258 200.308 274.149 204.814C271.18 211.194 268.342 217.34 264.67 221.116C254.409 231.663 234.357 227.106 234.305 227.835C234.279 228.251 241.623 229.423 278.706 232.835C278.706 219.762 278.68 206.715 278.628 193.642Z" fill="#948A9E"/>
<path d="M325.343 301.013C229.768 288.252 134.168 275.492 38.5938 262.757C66.7973 246.403 95.0269 230.048 123.23 213.694C209.456 222.184 295.707 230.699 381.932 239.189C363.052 259.788 344.197 280.414 325.343 301.013Z" fill="white" stroke="#948A9E" stroke-width="0.781262" stroke-miterlimit="10"/>
<path d="M37.6562 264.971C133.465 277.679 229.274 290.388 325.056 303.096" stroke="#948A9E" stroke-width="4.16673" stroke-miterlimit="10"/>
<path d="M323.234 303.669C343.313 282.445 363.391 261.194 383.444 239.97" stroke="#948A9E" stroke-width="4.16673" stroke-miterlimit="10"/>
<path d="M291.254 247.887C281.488 255.517 271.931 263.382 262.529 271.455C262.139 271.794 262.712 272.341 263.076 272.002C272.477 263.929 282.061 256.064 291.801 248.434C292.191 248.147 291.644 247.575 291.254 247.887Z" fill="#948A9E"/>
<path d="M262.894 271.872C265.967 272.523 269.092 272.523 272.243 272.549C275.785 272.601 279.118 272.965 282.504 273.955C288.858 275.804 295.082 277.028 301.723 276.872C302.217 276.872 302.217 276.09 301.723 276.09C298.311 276.169 294.9 275.96 291.514 275.413C288.337 274.893 285.316 273.955 282.217 273.096C279.248 272.262 276.28 271.872 273.181 271.82C269.795 271.741 266.41 271.846 263.076 271.142C262.608 271.012 262.399 271.767 262.894 271.872Z" fill="#948A9E"/>
<path d="M291.824 248.46C302.137 249.293 312.371 250.934 322.424 253.382C322.918 253.512 323.127 252.757 322.632 252.627C312.528 250.153 302.215 248.512 291.824 247.679C291.329 247.627 291.329 248.408 291.824 248.46Z" fill="#948A9E"/>
<path d="M302.323 276.403C309.589 269.216 316.568 261.716 323.183 253.903C323.496 253.512 322.949 252.965 322.636 253.356C316.021 261.143 309.042 268.643 301.776 275.856C301.412 276.221 301.959 276.768 302.323 276.403Z" fill="#948A9E"/>
<path d="M271.98 268.773C280.939 267.679 290.002 268.799 298.413 272.08C298.882 272.262 299.09 271.507 298.621 271.325C290.158 268.044 280.991 266.898 271.98 267.992C271.486 268.044 271.486 268.825 271.98 268.773Z" fill="#948A9E"/>
<path d="M285.553 265.908C291.074 266.325 296.517 267.184 301.907 268.46C302.402 268.591 302.61 267.835 302.116 267.705C296.673 266.403 291.152 265.544 285.553 265.127C285.032 265.101 285.058 265.882 285.553 265.908Z" fill="#948A9E"/>
<path d="M281.41 260.153C289.718 260.335 297.947 261.533 305.968 263.747C306.463 263.877 306.671 263.122 306.176 262.991C298.103 260.778 289.796 259.554 281.41 259.372C280.915 259.372 280.915 260.153 281.41 260.153Z" fill="#948A9E"/>
<path d="M291.72 257.757C296.2 258.382 300.627 259.163 305.054 260.101C305.549 260.205 305.757 259.45 305.262 259.346C300.835 258.408 296.408 257.627 291.929 257.002C291.434 256.924 291.226 257.679 291.72 257.757Z" fill="#948A9E"/>
<path d="M286.017 275.231C284.429 277.679 282.84 280.127 281.225 282.549C281.069 282.784 281.277 283.174 281.564 283.148C294.403 281.69 307.424 282.523 319.976 285.596C320.471 285.726 320.679 284.971 320.184 284.841C307.554 281.742 294.481 280.909 281.564 282.341C281.668 282.549 281.798 282.731 281.902 282.94C283.491 280.492 285.08 278.044 286.694 275.622C286.981 275.205 286.304 274.815 286.017 275.231Z" fill="#948A9E"/>
<path d="M317.501 260.439C322.527 260.335 327.527 260.231 332.553 260.127C332.423 259.971 332.293 259.788 332.188 259.632C328.725 267.887 325.235 276.117 321.772 284.372C321.589 284.841 322.345 285.049 322.527 284.58C325.99 276.325 329.48 268.096 332.944 259.841C333.048 259.606 332.787 259.346 332.579 259.346C327.553 259.45 322.553 259.554 317.527 259.658C317.006 259.684 317.006 260.466 317.501 260.439Z" fill="#948A9E"/>
<path d="M298.468 279.841C299.796 279.58 301.124 279.528 302.478 279.633C302.973 279.659 302.973 278.877 302.478 278.851C301.046 278.747 299.666 278.825 298.259 279.086C297.765 279.164 297.973 279.919 298.468 279.841Z" fill="#948A9E"/>
<path d="M305.863 279.919C309.952 280.075 314.04 280.466 318.103 281.091C318.598 281.169 318.806 280.413 318.311 280.335C314.197 279.684 310.03 279.294 305.863 279.137C305.368 279.111 305.368 279.893 305.863 279.919Z" fill="#948A9E"/>
<path d="M306.098 275.023C307.061 275.023 308.025 275.023 309.014 275.023C309.509 275.023 309.509 274.242 309.014 274.242C308.051 274.242 307.087 274.242 306.098 274.242C305.603 274.242 305.603 275.023 306.098 275.023Z" fill="#948A9E"/>
<path d="M312.168 274.945C315.371 275.023 318.548 275.335 321.725 275.856C322.22 275.934 322.429 275.179 321.934 275.101C318.705 274.58 315.449 274.268 312.168 274.164C311.673 274.164 311.673 274.945 312.168 274.945Z" fill="#948A9E"/>
<path d="M311.668 270.492C315.314 270.544 318.934 270.752 322.554 271.169C323.048 271.221 323.048 270.44 322.554 270.388C318.934 269.971 315.314 269.737 311.668 269.711C311.173 269.685 311.173 270.466 311.668 270.492Z" fill="#948A9E"/>
<path d="M287.215 279.138C288.96 279.19 290.678 278.981 292.397 278.565C292.892 278.434 292.684 277.679 292.189 277.809C290.548 278.226 288.908 278.408 287.215 278.356C286.72 278.356 286.72 279.138 287.215 279.138Z" fill="#948A9E"/>
<path d="M299.588 238.33C298.911 239.163 298.13 240.856 298.937 241.872C299.432 242.497 300.369 242.366 301.073 242.392C302.349 242.445 303.625 242.523 304.901 242.575C310.083 242.809 315.239 243.07 320.422 243.304C320.917 243.33 320.917 242.549 320.422 242.523C316.594 242.34 312.792 242.158 308.963 241.976C307.088 241.898 305.239 241.793 303.364 241.715C302.453 241.663 301.489 241.715 300.578 241.585C299.901 241.481 299.406 241.455 299.432 240.622C299.458 239.971 299.744 239.372 300.135 238.877C300.448 238.486 299.901 237.913 299.588 238.33Z" fill="#948A9E"/>
<path d="M300.293 239.32C304.668 239.476 309.043 239.606 313.418 239.762C315.554 239.84 317.715 239.892 319.851 239.971C321.778 240.049 323.809 240.179 325.189 241.663C325.528 242.028 326.075 241.481 325.736 241.116C324.694 239.971 323.288 239.528 321.778 239.32C319.538 239.033 317.22 239.085 314.955 239.007C310.059 238.851 305.163 238.668 300.293 238.512C299.798 238.538 299.798 239.32 300.293 239.32Z" fill="#948A9E"/>
<path d="M320.164 243.33C322.169 243.356 324.07 242.731 325.685 241.533C326.076 241.246 325.685 240.569 325.294 240.856C323.784 241.976 322.065 242.575 320.164 242.549C319.643 242.549 319.643 243.33 320.164 243.33Z" fill="#948A9E"/>
<path d="M320.788 239.319C319.694 240.049 319.199 241.403 319.564 242.653C319.694 243.121 320.449 242.939 320.319 242.444C320.059 241.533 320.371 240.517 321.179 239.97C321.595 239.71 321.205 239.033 320.788 239.319Z" fill="#948A9E"/>
<path d="M214.455 266.325C182.813 260.908 151.172 255.491 119.531 250.074C138.75 242.314 157.969 234.579 177.188 226.819C207.241 233.512 237.293 240.204 267.32 246.897C249.715 253.382 232.085 259.84 214.455 266.325Z" fill="white" stroke="#948A9E" stroke-width="0.781262" stroke-miterlimit="10"/>
<path d="M213.155 266.716C213.26 267.028 213.338 267.367 213.442 267.679C213.572 268.096 214.197 268.018 214.197 267.575C214.197 267.315 214.197 267.08 214.197 266.82C214.197 266.325 213.416 266.325 213.416 266.82C213.416 267.132 213.364 267.419 213.234 267.705C213.494 267.705 213.728 267.705 213.989 267.705C213.885 267.367 213.859 267.054 213.937 266.69C213.702 266.716 213.468 266.742 213.234 266.794C213.312 266.872 213.312 266.924 213.26 267.002C213.494 267.028 213.728 267.054 213.963 267.106C213.911 266.924 213.937 266.768 214.041 266.612C213.806 266.533 213.546 266.481 213.312 266.403C213.26 266.82 213.208 267.211 213.155 267.627C213.129 267.836 213.364 268.018 213.546 268.018C213.78 268.018 213.911 267.836 213.937 267.627C213.989 267.211 214.041 266.82 214.093 266.403C214.145 266.013 213.546 265.908 213.364 266.195C213.155 266.533 213.103 266.924 213.208 267.315C213.286 267.653 213.754 267.679 213.911 267.419C214.119 267.106 214.119 266.716 213.885 266.429C213.702 266.195 213.234 266.169 213.181 266.533C213.077 267.002 213.103 267.497 213.234 267.966C213.364 268.356 213.859 268.304 213.989 267.966C214.119 267.601 214.197 267.237 214.197 266.872C213.937 266.872 213.676 266.872 213.416 266.872C213.416 267.132 213.416 267.367 213.416 267.627C213.676 267.601 213.937 267.549 214.171 267.523C214.067 267.21 213.989 266.872 213.885 266.559C213.78 266.013 213.025 266.221 213.155 266.716Z" fill="#948A9E"/>
<path d="M213.75 268.591C217.943 266.429 222.527 265.283 227.032 264.007C229.245 263.382 231.433 262.705 233.542 261.82C235.574 260.986 237.527 259.945 239.532 259.007C243.985 256.924 248.803 255.57 253.464 254.033C258.308 252.419 263.126 250.804 267.97 249.215C268.439 249.059 268.23 248.304 267.762 248.46C262.918 250.075 258.1 251.689 253.256 253.278C248.673 254.788 243.959 256.143 239.558 258.148C237.266 259.189 235.027 260.413 232.683 261.325C230.547 262.158 228.36 262.809 226.146 263.434C221.797 264.684 217.396 265.83 213.334 267.914C212.917 268.148 213.308 268.825 213.75 268.591Z" fill="#948A9E"/>
<path d="M214.12 268.434C232.115 262.21 250.058 255.908 268.001 249.502C269.408 249.007 268.809 246.741 267.376 247.236C249.459 253.643 231.49 259.945 213.495 266.169C212.089 266.664 212.688 268.929 214.12 268.434Z" fill="#948A9E"/>
<path d="M212.09 243.278C215.475 243.616 218.366 245.673 221.699 246.324C222.194 246.429 222.402 245.673 221.908 245.569C218.522 244.892 215.579 242.835 212.09 242.496C211.595 242.47 211.595 243.251 212.09 243.278Z" fill="#948A9E"/>
<path d="M221.929 245.96C223.986 244.84 225.914 243.512 227.658 241.95C228.023 241.611 227.476 241.064 227.111 241.403C225.393 242.913 223.544 244.215 221.538 245.283C221.096 245.544 221.486 246.221 221.929 245.96Z" fill="#948A9E"/>
<path d="M212.897 241.793C214.538 240.621 216.23 239.501 217.975 238.46C218.418 238.199 218.001 237.522 217.584 237.783C215.84 238.824 214.147 239.918 212.506 241.116C212.09 241.429 212.48 242.106 212.897 241.793Z" fill="#948A9E"/>
<path d="M218.1 238.59C221.069 239.71 224.038 240.804 227.033 241.924C227.501 242.106 227.71 241.351 227.241 241.169C224.272 240.049 221.303 238.955 218.308 237.835C217.84 237.679 217.631 238.434 218.1 238.59Z" fill="#948A9E"/>
<path d="M209.744 246.247C217.583 248.669 225.317 251.455 232.895 254.606C233.364 254.788 233.572 254.033 233.104 253.851C225.525 250.7 217.791 247.913 209.952 245.491C209.457 245.335 209.249 246.09 209.744 246.247Z" fill="#948A9E"/>
<path d="M210.499 252.314C215.369 254.658 220.291 256.871 225.265 259.033C225.734 259.241 226.125 258.564 225.656 258.356C220.682 256.22 215.76 253.981 210.89 251.637C210.447 251.429 210.057 252.106 210.499 252.314Z" fill="#948A9E"/>
<path d="M211.203 259.007C213.859 260.361 216.515 261.741 219.171 263.096C219.614 263.33 220.005 262.653 219.562 262.418C216.906 261.064 214.249 259.684 211.593 258.33C211.15 258.095 210.76 258.773 211.203 259.007Z" fill="#948A9E"/>
<path d="M212.713 259.241C216.384 256.116 220.239 253.252 224.249 250.595C224.666 250.309 224.275 249.632 223.859 249.918C219.796 252.601 215.89 255.543 212.166 258.695C211.775 259.033 212.322 259.58 212.713 259.241Z" fill="#948A9E"/>
<path d="M211.748 253.903C213.831 252.444 215.914 250.986 217.998 249.502C218.415 249.215 218.024 248.538 217.607 248.825C215.524 250.283 213.44 251.741 211.357 253.226C210.966 253.512 211.357 254.189 211.748 253.903Z" fill="#948A9E"/>
<path d="M213.051 268.122C180.316 262.549 147.581 256.976 114.846 251.403C111.774 228.147 108.675 204.918 105.602 181.662C140.836 186.402 176.045 191.141 211.28 195.907C211.879 219.97 212.478 244.033 213.051 268.122Z" fill="white" stroke="#948A9E" stroke-width="0.781262" stroke-miterlimit="10"/>
<path d="M154.716 227.887C151.878 227.002 150.341 224.606 150.107 221.715C149.873 218.772 150.446 215.934 153.18 214.397C155.602 213.043 158.493 213.434 160.654 215.074C162.816 216.715 164.743 220.074 162.998 222.653C162.711 223.069 163.388 223.46 163.675 223.043C165.55 220.283 163.779 216.637 161.487 214.736C159.118 212.783 155.914 212.184 153.128 213.564C149.899 215.152 149.065 218.382 149.326 221.741C149.586 224.996 151.305 227.679 154.508 228.668C154.977 228.798 155.185 228.043 154.716 227.887Z" fill="#948A9E"/>
<path d="M155.442 228.174C154.245 226.194 154.635 223.434 156.562 222.054C158.489 220.673 161.25 221.246 162.708 223.017C163.021 223.408 163.568 222.861 163.255 222.47C161.536 220.413 158.307 219.84 156.067 221.429C153.828 223.043 153.359 226.272 154.765 228.564C155.026 228.981 155.703 228.59 155.442 228.174Z" fill="#948A9E"/>
<path d="M158.132 229.267C156.908 227.965 157.09 225.543 158.731 224.605C160.345 223.668 162.533 224.736 163.053 226.454C163.21 226.923 163.965 226.741 163.809 226.246C163.132 224.058 160.397 222.756 158.34 223.954C156.283 225.152 156.022 228.173 157.585 229.84C157.923 230.178 158.47 229.631 158.132 229.267Z" fill="#948A9E"/>
<path d="M160.133 231.09C161.149 231.454 162.321 230.856 162.712 229.892C163.128 228.928 162.581 227.887 161.67 227.47C160.758 227.053 159.665 227.288 159.17 228.173C158.701 229.033 158.857 230.204 159.639 230.829C160.029 231.142 160.576 230.595 160.186 230.283C159.144 229.475 159.873 227.574 161.253 228.147C161.852 228.382 162.269 229.007 161.982 229.658C161.696 230.283 160.967 230.595 160.342 230.361C159.873 230.178 159.665 230.934 160.133 231.09Z" fill="#948A9E"/>
<path d="M211.281 195.881L213.573 267.627" stroke="#948A9E" stroke-width="0.781262" stroke-miterlimit="10"/>
<path d="M211.438 195.829C212.141 219.423 212.844 243.017 213.547 266.611" stroke="#948A9E" stroke-width="0.781262" stroke-miterlimit="10"/>
<path opacity="0.37" d="M166.355 191.037C168.047 191.923 182.579 199.839 183.594 213.902C184.167 221.663 180.365 227.548 177.969 231.142C165.053 250.569 139.505 254.007 132.578 254.736C142.656 261.429 177.865 283.486 216.355 282.184C224.923 281.898 238.205 281.299 252.606 273.382C263.413 267.444 270.419 259.814 274.429 254.736C271.955 253.199 269.507 251.689 267.033 250.153C248.856 256.377 230.652 262.601 212.475 268.799C211.538 244.736 210.6 220.699 209.663 196.636C195.209 194.813 180.782 192.938 166.355 191.037Z" fill="#948A9E"/>
<path opacity="0.5" d="M145.656 256.429C149.042 258.668 154.276 261.872 161.047 264.945C169.485 268.799 194.459 280.205 221.517 273.877C241.178 269.268 256.387 256.637 255.397 254.554C254.772 253.252 247.142 254.606 213.157 268.122C212.61 257.106 212.063 246.064 211.543 235.048C210.605 244.319 209.642 253.59 208.704 262.835C187.688 260.726 166.672 258.564 145.656 256.429Z" fill="#948A9E"/>
<path d="M152.659 226.741C150.758 224.657 150.133 221.741 151.071 219.189C152.034 216.61 154.586 214.397 157.633 214.501C160.316 214.605 162.477 216.48 163.258 218.251C163.831 219.605 163.701 220.855 163.701 220.855C163.623 221.558 163.388 222.105 163.206 222.444C161.878 220.907 159.847 220.204 157.946 220.647C155.602 221.194 154.586 223.199 154.482 223.381C153.414 225.569 154.352 227.6 154.482 227.835C153.857 227.444 153.258 227.079 152.659 226.741Z" fill="#61586A"/>
<path d="M284.43 193.771C283.024 194.813 281.514 196.219 280.133 198.068C275.003 204.97 275.706 213.069 276.071 215.699C271.513 214.761 263.857 213.85 254.821 215.933C249.43 217.183 245.107 219.136 241.93 220.907C242.424 221.22 243.102 221.584 243.961 221.819C248.831 223.147 253.961 219.058 254.117 219.345C254.274 219.605 248.388 222.366 248.701 224.761C248.909 226.376 251.8 227.235 254.794 228.147C257.321 228.902 259.716 229.631 262.92 229.267C267.321 228.772 270.368 226.558 271.722 225.413C273.024 226.064 274.951 226.923 277.373 227.678C281.826 229.032 287.972 230.907 292.061 228.355C294.717 226.689 295.524 222.782 297.035 215.022C298.962 205.074 299.925 200.1 297.269 196.949C293.753 192.756 286.696 193.459 284.43 193.771Z" fill="white" stroke="#948A9E" stroke-width="0.781262" stroke-miterlimit="10"/>
<path d="M275.186 215.959C278.337 217.131 280.941 219.267 282.738 222.105C282.999 222.522 283.676 222.131 283.415 221.715C281.514 218.694 278.728 216.454 275.394 215.204C274.926 215.048 274.717 215.803 275.186 215.959Z" fill="#948A9E"/>
<path d="M258.442 221.116C255.343 221.636 252.843 223.72 251.723 226.636C251.541 227.105 252.296 227.314 252.479 226.845C253.494 224.188 255.838 222.339 258.651 221.871C259.145 221.793 258.937 221.037 258.442 221.116Z" fill="#948A9E"/>
<path d="M252.089 227.131C253.704 228.668 255.943 229.189 258.053 228.512C258.521 228.355 258.313 227.6 257.844 227.756C255.995 228.355 254.042 227.939 252.636 226.585C252.271 226.22 251.724 226.767 252.089 227.131Z" fill="#948A9E"/>
<path d="M262.061 223.694C260.941 224.371 259.899 225.152 258.909 225.986C258.258 226.559 257.529 227.236 257.685 228.173C258.076 230.647 261.045 230.1 262.659 229.475C263.128 229.293 262.92 228.538 262.451 228.72C261.748 228.98 260.967 229.319 260.212 229.293C258.988 229.241 257.894 228.069 258.935 227.001C259.925 225.96 261.227 225.126 262.451 224.345C262.894 224.111 262.503 223.434 262.061 223.694Z" fill="#948A9E"/>
<path d="M283.126 156.609C284.194 157.443 285.574 158.589 287.033 160.073C287.449 160.49 288.517 161.583 289.585 162.938C291.251 165.021 292.319 167 293.491 169.422C295.002 172.521 296.512 175.62 298.022 180.256C299.298 184.162 301.252 190.308 301.486 198.485C301.59 201.714 301.382 204.423 301.173 206.324C300.106 205.1 299.038 204.292 298.153 203.772C293.179 200.725 287.137 201.818 281.434 202.86C279.298 203.251 277.527 203.719 276.303 204.058C276.616 201.193 276.902 198.329 277.215 195.464C277.475 193.068 277.71 190.646 277.97 188.224C277.475 187.365 276.798 186.141 276.173 184.605C274.949 181.662 272.501 175.88 273.907 169.396C275.574 161.948 281.434 157.729 283.126 156.609Z" fill="#BB9ED8"/>
<path d="M284.038 158.042C286.642 159.396 288.387 161.74 289.897 164.162C291.46 166.662 292.866 169.24 294.116 171.896C296.668 177.313 298.543 183.042 299.767 188.902C299.871 189.396 300.627 189.188 300.522 188.693C299.272 182.599 297.293 176.688 294.585 171.063C293.257 168.302 291.798 165.62 290.132 163.042C288.647 160.75 286.902 158.615 284.454 157.339C283.986 157.13 283.595 157.807 284.038 158.042Z" fill="#948A9E"/>
<path d="M275.916 184.527C277.114 186.975 278.364 189.37 279.666 191.766C279.9 192.209 280.577 191.818 280.343 191.376C279.041 188.98 277.791 186.584 276.593 184.136C276.358 183.667 275.681 184.058 275.916 184.527Z" fill="#948A9E"/>
<path d="M277.765 189.006C277.114 194.058 276.462 199.11 275.837 204.162C275.811 204.423 276.124 204.605 276.332 204.527C280.759 203.121 285.369 202.443 290.004 202.6C293.676 202.73 298.546 203.068 300.603 206.662C300.864 207.105 301.515 206.714 301.281 206.272C299.327 202.834 295.056 202.131 291.463 201.897C286.28 201.532 281.072 202.209 276.15 203.772C276.306 203.902 276.489 204.032 276.645 204.136C277.296 199.084 277.947 194.032 278.572 188.98C278.624 188.511 277.843 188.511 277.765 189.006Z" fill="#948A9E"/>
<path d="M299.717 188.511C300.628 194.24 302.112 200.308 300.576 206.063C300.446 206.558 301.201 206.766 301.331 206.271C302.894 200.386 301.409 194.188 300.472 188.302C300.394 187.808 299.638 188.016 299.717 188.511Z" fill="#948A9E"/>
<path opacity="0.32" d="M281.151 155.646C283.521 160.073 285.891 165.36 287.896 171.427C291.829 183.407 292.87 194.162 292.948 202.209C290.292 202.365 287.636 202.522 284.98 202.678C285.839 208.85 286.724 215.048 287.584 221.22C285.917 220.256 283.365 219.032 280.084 218.303C279.016 218.069 275.084 217.288 270.891 217.991C262.089 219.475 256.776 226.689 255.578 228.407C256.776 228.902 258.313 229.371 260.162 229.475C265.839 229.814 269.979 226.532 271.203 225.491C275.084 227.444 278.469 228.381 280.865 228.85C285.058 229.71 289.954 230.699 292.662 228.095C292.87 227.887 293.339 227.392 294.355 224.866C295.943 220.855 296.777 217.105 297.87 210.308C298.105 208.798 298.443 206.767 298.782 204.345C299.433 204.996 300.11 205.673 300.761 206.324C301.074 205.152 301.464 203.407 301.673 201.272C302.219 195.725 301.152 191.35 300.136 187.782C296.047 173.355 293.6 164.657 285.422 158.354C283.73 157.104 282.167 156.193 281.151 155.646Z" fill="#948A9E"/>
<path opacity="0.29" d="M294.927 173.485C296.672 181.975 296.907 189.188 296.776 194.397C296.646 199.24 296.151 202.782 295.631 206.35C294.094 217.105 293.313 222.47 290.344 224.97C284.719 229.71 274.693 226.116 272.297 225.204C274.563 226.715 282.714 231.845 290.683 229.007C291.516 228.694 292.427 228.303 293.313 227.73C294.25 226.142 295.5 223.694 296.308 220.491C296.776 218.59 296.907 217.209 297.089 215.595C297.375 212.991 297.87 209.189 298.704 204.423C299.459 205.074 300.24 205.725 300.995 206.376C301.256 205.048 301.594 203.017 301.672 200.517C301.907 194.475 300.579 189.891 299.042 184.657C298.209 181.792 296.907 177.938 294.927 173.485Z" fill="#948A9E"/>
<path d="M223.336 105.124C223.596 107.911 224.065 111.817 225.107 116.426C225.784 119.421 226.201 121.322 227.086 123.692C228.414 127.26 230.94 134.083 237.529 138.536C239.117 139.63 241.748 141.088 245.446 141.948C246.045 142 246.644 142.078 247.243 142.13C247.451 143.224 247.711 144.838 247.972 146.792C248.597 151.818 248.284 153.354 249.586 154.708C251.175 156.349 253.701 156.193 254.248 156.141C258.597 155.854 260.784 151.531 260.889 151.297C260.185 150.021 259.482 148.458 258.909 146.635C257.659 142.599 257.633 139.005 257.842 136.557C259.847 133.666 262.06 131.453 264.3 129.734C265.159 129.083 265.889 128.197 267.165 127.755C268.988 127.13 269.925 127.755 271.279 127.338C273.519 126.635 274.483 123.744 274.899 122.546C276.488 117.807 274.535 113.119 273.285 110.333C272.165 107.781 269.248 101.452 262.139 96.5043C254.821 91.4001 240.185 85.7229 230.498 93.0928C228.831 94.3689 225.029 97.7804 223.336 105.124Z" fill="white"/>
<path d="M224.427 115.854C222.76 115.567 218.542 114.578 215.807 110.958C211.64 105.463 213.88 97.7805 216.198 93.7179C219.844 87.3376 226.484 85.124 234.818 82.3375C239.766 80.6969 244.479 79.1344 250.886 79.3948C254.428 79.551 266.433 80.0719 273.62 89.0043C277.891 94.2908 278.36 99.968 279.298 111.166C279.74 116.296 279.402 119.083 278.516 121.739C277.865 123.666 275.756 129.838 269.688 132.312C266.511 133.614 263.568 133.354 261.954 133.093C263.412 130.932 264.87 128.797 266.355 126.635C267.188 126.687 270.157 126.739 272.423 124.682C275.522 121.843 276.068 116.192 273.803 114.682C272.136 113.562 268.829 114.656 265.964 117.234C265.704 115.593 265.287 113.796 264.584 111.947C261.303 103.119 254.167 98.2753 250.677 96.27C249.297 98.0409 244.922 103.223 237.162 105.281C231.016 106.895 225.911 105.749 223.646 105.072C223.906 108.666 224.167 112.26 224.427 115.854Z" fill="#61586A"/>
<path d="M223.123 105.801C224.19 113.848 225.31 122.208 229.243 129.447C232.472 135.385 237.68 140.463 244.373 142.156C244.868 142.286 245.076 141.531 244.581 141.401C237.967 139.708 232.862 134.604 229.737 128.692C226.013 121.661 224.946 113.588 223.904 105.801C223.826 105.306 223.045 105.306 223.123 105.801Z" fill="#948A9E"/>
<path d="M244.375 142.26C249.089 142.26 254.037 139.734 257.735 137.026C261.459 134.292 264.505 130.776 266.693 126.713C266.927 126.271 266.25 125.88 266.016 126.323C263.907 130.281 260.964 133.719 257.344 136.349C253.724 139.005 248.932 141.479 244.375 141.479C243.854 141.479 243.854 142.26 244.375 142.26Z" fill="#948A9E"/>
<path d="M257.711 136.401C257.19 141.661 258.206 146.922 260.602 151.635C260.836 152.078 261.513 151.688 261.279 151.245C258.935 146.635 257.998 141.531 258.493 136.401C258.545 135.906 257.763 135.906 257.711 136.401Z" fill="#948A9E"/>
<path d="M246.382 142.13C247.242 145.099 247.945 148.119 248.466 151.166C248.804 153.198 248.934 155.489 251.2 156.245C254.585 157.39 259.586 155.359 260.888 152C261.07 151.531 260.315 151.323 260.132 151.791C259.403 153.692 257.58 154.734 255.705 155.281C254.143 155.724 251.773 156.193 250.445 154.916C249.664 154.161 249.559 152.963 249.403 151.948C249.221 150.88 249.038 149.812 248.83 148.744C248.361 146.453 247.815 144.161 247.163 141.921C247.007 141.453 246.252 141.661 246.382 142.13Z" fill="#948A9E"/>
<path d="M247.504 145.359C252.139 144.76 255.186 141.219 257.426 137.416C257.686 136.974 257.009 136.583 256.749 137.026C254.692 140.568 251.827 144.031 247.504 144.578C247.009 144.656 247.009 145.437 247.504 145.359Z" fill="#948A9E"/>
<path d="M247.315 142.703C250.934 142.286 254.19 140.593 256.612 137.859C256.95 137.494 256.403 136.921 256.065 137.312C253.799 139.89 250.726 141.531 247.315 141.922C246.846 141.974 246.82 142.755 247.315 142.703Z" fill="#948A9E"/>
<path d="M247.452 142.13C250.369 141.713 252.999 140.515 255.239 138.614C255.629 138.276 255.056 137.729 254.692 138.067C252.556 139.89 250.03 141.01 247.244 141.401C246.749 141.453 246.957 142.208 247.452 142.13Z" fill="#948A9E"/>
<path d="M247.291 142.781C247.421 143.406 247.395 144.656 248.177 144.864C248.932 145.073 250.078 144.187 250.677 143.823C252.734 142.573 254.453 140.88 255.807 138.901C256.093 138.484 255.416 138.093 255.13 138.51C254.166 139.942 252.994 141.219 251.614 142.26C250.963 142.755 250.286 143.172 249.583 143.562C249.296 143.719 248.645 144.161 248.359 143.979C248.177 143.875 248.098 142.755 248.072 142.573C247.942 142.078 247.187 142.286 247.291 142.781Z" fill="#948A9E"/>
<path d="M247.66 143.511C249.9 142.599 252.009 141.453 253.988 140.073C254.405 139.786 254.014 139.109 253.598 139.396C251.671 140.75 249.639 141.87 247.452 142.755C246.983 142.938 247.191 143.693 247.66 143.511Z" fill="#948A9E"/>
<path d="M248.051 144.292C250.551 143.406 252.738 142.026 254.561 140.099C254.9 139.734 254.353 139.187 254.014 139.552C252.27 141.349 250.212 142.703 247.842 143.536C247.374 143.719 247.582 144.474 248.051 144.292Z" fill="#948A9E"/>
<path d="M248.462 143.875C250.311 143.068 252.003 141.974 253.462 140.567C253.826 140.229 253.279 139.682 252.915 140.021C251.482 141.375 249.868 142.416 248.071 143.198C247.602 143.406 247.993 144.083 248.462 143.875Z" fill="#948A9E"/>
<path d="M227.185 125.594C222.94 124.083 221.534 118.536 221.951 114.526C222.393 110.125 226.352 105.333 231.196 107.39C233.513 108.38 234.373 110.932 234.998 113.198C235.649 115.593 235.935 118.25 235.31 120.698C234.763 122.859 233.435 124.916 231.352 125.854C229.268 126.791 226.794 126.271 225.388 124.474C225.076 124.083 224.529 124.63 224.841 125.021C227.211 128.068 231.664 127.469 234.06 124.786C237.107 121.375 236.795 116.192 235.492 112.104C234.893 110.203 234.112 108.223 232.367 107.13C230.857 106.166 228.93 105.932 227.237 106.374C223.279 107.442 221.221 111.635 221.143 115.463C221.065 119.656 222.706 124.838 227.029 126.349C227.445 126.505 227.654 125.75 227.185 125.594Z" fill="#948A9E"/>
<path d="M236.195 117.807C238.747 116.27 241.846 116.114 244.502 117.442C244.945 117.676 245.336 116.999 244.893 116.765C241.976 115.307 238.591 115.437 235.778 117.13C235.388 117.39 235.778 118.067 236.195 117.807Z" fill="#948A9E"/>
<path d="M248.646 123.354C245.703 120.515 244.479 116.114 245.625 112.156C246.823 108.041 250.938 104.499 255.365 105.958C260.261 107.572 260.521 114.578 259.245 118.692C258.49 121.114 256.98 123.536 254.48 124.421C251.98 125.307 249.818 123.979 247.813 122.572C247.396 122.286 247.006 122.963 247.422 123.25C249.063 124.421 250.834 125.593 252.917 125.515C254.896 125.437 256.693 124.343 257.917 122.859C260.678 119.526 261.225 114.447 260.079 110.385C259.037 106.687 255.964 104.291 252.032 104.942C248.282 105.541 245.521 108.926 244.688 112.468C243.724 116.557 245.026 120.984 248.047 123.901C248.464 124.265 249.011 123.692 248.646 123.354Z" fill="#948A9E"/>
<path d="M229.557 114.786C229.297 116.426 229.583 118.015 230.469 119.421C230.651 119.708 231.068 119.656 231.172 119.317C231.797 117.52 230.911 115.749 230.026 114.213C229.844 113.874 229.297 114.03 229.297 114.421C229.323 115.801 229.609 117.155 230.13 118.432C230.313 118.9 231.068 118.692 230.885 118.223C230.391 116.999 230.104 115.749 230.078 114.421C229.844 114.499 229.583 114.551 229.349 114.629C230.156 116.01 230.99 117.52 230.417 119.135C230.651 119.109 230.885 119.083 231.12 119.031C230.339 117.807 230.052 116.426 230.286 114.994C230.391 114.499 229.635 114.291 229.557 114.786Z" fill="#948A9E"/>
<path d="M252.605 114.057C252.605 113.718 252.579 113.64 252.423 113.354C252.24 113.015 251.694 113.171 251.694 113.562C251.72 115.177 251.85 116.922 253.1 118.067C253.36 118.302 253.725 118.119 253.777 117.781C253.985 115.854 253.412 114.057 252.214 112.546C251.954 112.234 251.485 112.572 251.563 112.937C251.876 114.213 252.266 115.463 252.735 116.661C252.918 117.13 253.673 116.922 253.49 116.453C252.996 115.229 252.605 114.005 252.319 112.729C252.11 112.859 251.876 112.989 251.668 113.119C252.735 114.474 253.178 116.088 252.996 117.807C253.23 117.703 253.438 117.625 253.673 117.52C252.553 116.505 252.501 114.968 252.475 113.562C252.24 113.64 251.98 113.692 251.746 113.77C251.772 113.875 251.798 113.979 251.824 114.083C251.824 114.552 252.605 114.552 252.605 114.057Z" fill="#948A9E"/>
<path d="M238.802 119.187C238.281 120.75 237.839 122.338 237.552 123.953C237.396 124.812 236.849 126.427 237.24 127.286C238.021 129.031 241.484 127.963 242.682 127.39C243.125 127.182 242.734 126.505 242.292 126.713C241.328 127.182 240.286 127.417 239.219 127.338C238.594 127.286 238.099 127.182 237.969 126.479C237.891 126.088 238.151 125.073 238.229 124.63C238.542 122.833 239.01 121.088 239.583 119.37C239.714 118.927 238.958 118.718 238.802 119.187Z" fill="#948A9E"/>
<path d="M242.734 134.213C244.687 133.953 246.38 132.703 247.239 130.906C247.448 130.463 246.77 130.047 246.562 130.515C245.781 132.156 244.322 133.224 242.526 133.458C242.031 133.536 242.265 134.291 242.734 134.213Z" fill="#948A9E"/>
<path d="M227.919 112.546C228.414 111.947 229.325 111.843 229.95 112.364C230.341 112.703 230.888 112.13 230.497 111.817C229.586 111.036 228.179 111.088 227.372 111.999C227.034 112.364 227.58 112.911 227.919 112.546Z" fill="#948A9E"/>
<path d="M250.26 111.088C251.067 110.385 252.291 110.385 253.099 111.062C253.489 111.374 254.036 110.827 253.645 110.515C252.5 109.525 250.833 109.551 249.687 110.541C249.322 110.88 249.895 111.426 250.26 111.088Z" fill="#948A9E"/>
<path d="M260.519 114.682C263.332 113.692 266.222 113.093 269.217 112.937C269.712 112.911 269.712 112.13 269.217 112.156C266.17 112.312 263.201 112.911 260.311 113.927C259.842 114.109 260.024 114.864 260.519 114.682Z" fill="#948A9E"/>
<path opacity="0.4" d="M264.398 82.2334C265.961 84.2386 271.977 92.4679 270.857 103.77C270.232 110.072 267.628 114.708 265.987 117.156C266.925 116.427 267.732 115.932 268.331 115.593C269.919 114.708 270.935 114.161 272.237 114.239C272.628 114.265 273.565 114.343 274.242 114.89C276.222 116.557 275.544 122.468 272.029 125.229C270.102 126.739 267.836 126.896 266.69 126.869C265.206 128.979 263.695 131.088 262.211 133.224C263.201 133.38 264.711 133.51 266.456 133.25C267.211 133.146 270.232 132.599 273.096 130.307C275.909 128.041 277.055 125.281 277.81 123.406C279.893 118.197 279.477 113.614 278.748 105.359C278.435 101.687 278.253 99.8118 277.524 97.3378C276.742 94.6555 275.518 90.6971 272.029 87.1553C269.529 84.5511 266.716 83.0928 264.398 82.2334Z" fill="#2E2A32"/>
<path opacity="0.48" d="M239.242 104.499C241.846 102.182 244.763 99.2127 247.576 95.5147C249.32 93.223 250.779 91.0095 251.977 88.9521C251.534 91.2959 251.091 93.6397 250.675 95.9835C249.659 97.4419 247.966 99.5252 245.336 101.426C243.018 103.067 240.831 103.978 239.242 104.499Z" fill="#2E2A32"/>
<path opacity="0.27" d="M257.758 101.53C259.737 108.119 259.893 113.64 259.711 117.286C259.581 119.994 258.851 134.187 251.377 139.083C250.648 139.552 248.799 140.645 248.877 140.802C248.982 140.984 252.445 139.447 254.346 138.406C257.341 136.791 261.951 133.536 266.221 126.661C266.925 126.739 270.362 126.973 272.836 124.604C275.831 121.765 276.352 116.192 273.982 114.551C272.289 113.379 269.06 114.369 266.221 116.713C265.935 115.515 265.57 114.265 265.076 112.937C263.122 107.78 260.18 104.03 257.758 101.53Z" fill="#948A9E"/>
<path opacity="0.36" d="M251.484 140.594C252.161 142.677 252.839 144.76 253.516 146.87C254.453 149.734 255.365 152.625 256.276 155.49C256.797 155.386 258.073 155.021 259.193 153.875C260.313 152.729 260.677 151.479 260.807 150.958C259.792 148.953 258.594 145.906 258.177 142.052C257.969 140.047 258.021 138.276 258.177 136.792C255.964 138.068 253.724 139.344 251.484 140.594Z" fill="#948A9E"/>
<path opacity="0.43" d="M238.492 120.099C237.19 122.885 235.888 125.646 234.586 128.432C236.721 128.38 238.831 128.354 240.966 128.302C239.716 127.911 238.44 127.521 237.19 127.13C237.607 124.786 238.05 122.442 238.492 120.099Z" fill="#948A9E"/>
</svg>
