<svg width="40" height="40" viewBox="0 0 40 40" fill="none" xmlns="http://www.w3.org/2000/svg">
<path d="M20.0071 1.54736C15.1726 1.54736 11.2422 5.47774 11.2422 10.3123C11.2422 15.0546 14.9511 18.8927 19.7857 19.0587C19.9333 19.0403 20.0809 19.0403 20.1916 19.0587C20.2285 19.0587 20.247 19.0587 20.2839 19.0587C20.3023 19.0587 20.3023 19.0587 20.3208 19.0587C25.0446 18.8927 28.7536 15.0546 28.772 10.3123C28.772 5.47774 24.8416 1.54736 20.0071 1.54736Z" fill="#61586A"/>
<path d="M29.38 23.9672C24.2318 20.535 15.8359 20.535 10.6508 23.9672C8.3073 25.5356 7.01562 27.6577 7.01562 29.9273C7.01562 32.197 8.3073 34.3006 10.6323 35.8506C13.2156 37.5851 16.6109 38.4524 20.0062 38.4524C23.4014 38.4524 26.7967 37.5851 29.38 35.8506C31.705 34.2821 32.9967 32.1785 32.9967 29.8904C32.9782 27.6208 31.705 25.5172 29.38 23.9672Z" fill="#61586A"/>
</svg>
