<svg width="40" height="40" viewBox="0 0 40 40" fill="none" xmlns="http://www.w3.org/2000/svg">
<path fill-rule="evenodd" clip-rule="evenodd" d="M12.3333 4H29C33.6 4 37.3333 7.71667 37.3333 12.3V23.9333C37.3333 28.5167 33.6 32.2333 29 32.2333H26.5C25.9833 32.2333 25.4833 32.4833 25.1667 32.9L22.6667 36.2167C21.5667 37.6833 19.7667 37.6833 18.6667 36.2167L16.1667 32.9C15.8833 32.5333 15.2833 32.2333 14.8333 32.2333H12.3333C7.73333 32.2333 4 28.5167 4 23.9333V22.2667V12.3C4 7.71667 7.73333 4 12.3333 4ZM20.9738 14.7031C21.5942 13.8739 22.5892 13.3333 23.701 13.3333C25.5867 13.3333 27.1161 14.8689 27.1161 16.7669C27.1161 17.4978 26.9994 18.1735 26.7967 18.8C25.8262 21.8712 22.8349 23.7077 21.3546 24.2114C21.1458 24.2851 20.8018 24.2851 20.593 24.2114C19.1127 23.7077 16.1213 21.8712 15.1509 18.8C14.9482 18.1735 14.8315 17.4978 14.8315 16.7669C14.8315 14.8689 16.3609 13.3333 18.2466 13.3333C19.3584 13.3333 20.3534 13.8739 20.9738 14.7031Z" fill="#61586A"/>
</svg>
