<svg width="40" height="40" viewBox="0 0 40 40" fill="none" xmlns="http://www.w3.org/2000/svg">
<path d="M23.9169 3.33301H16.0836C14.3503 3.33301 12.9336 4.73301 12.9336 6.46634V8.03301C12.9336 9.76634 14.3336 11.1663 16.0669 11.1663H23.9169C25.6503 11.1663 27.0503 9.76634 27.0503 8.03301V6.46634C27.0669 4.73301 25.6503 3.33301 23.9169 3.33301Z" fill="#61586A"/>
<path d="M28.7334 8.03379C28.7334 10.6838 26.5667 12.8505 23.9167 12.8505H16.0834C13.4334 12.8505 11.2667 10.6838 11.2667 8.03379C11.2667 7.10045 10.2667 6.51712 9.4334 6.95045C7.0834 8.20045 5.4834 10.6838 5.4834 13.5338V29.2171C5.4834 33.3171 8.8334 36.6671 12.9334 36.6671H27.0667C31.1667 36.6671 34.5167 33.3171 34.5167 29.2171V13.5338C34.5167 10.6838 32.9167 8.20045 30.5667 6.95045C29.7334 6.51712 28.7334 7.10045 28.7334 8.03379ZM25.5667 21.2171L18.9001 27.8838C18.6501 28.1338 18.3334 28.2505 18.0167 28.2505C17.7001 28.2505 17.3834 28.1338 17.1334 27.8838L14.6334 25.3838C14.1501 24.9005 14.1501 24.1005 14.6334 23.6171C15.1167 23.1338 15.9167 23.1338 16.4001 23.6171L18.0167 25.2338L23.8001 19.4505C24.2834 18.9671 25.0834 18.9671 25.5667 19.4505C26.0501 19.9338 26.0501 20.7338 25.5667 21.2171Z" fill="#61586A"/>
</svg>
