<svg width="40" height="40" viewBox="0 0 40 40" fill="none" xmlns="http://www.w3.org/2000/svg">
<path d="M36.6665 14.4835C36.6665 16.4668 36.3498 18.3001 35.7998 20.0001C33.1665 28.3335 25.0498 33.3168 21.0331 34.6835C20.4665 34.8835 19.5331 34.8835 18.9665 34.6835C17.8998 34.3168 16.5498 33.7001 15.0998 32.8335C14.1665 32.2835 14.0165 30.9835 14.7831 30.2168L33.5831 11.4168C34.4831 10.5168 36.0665 10.9001 36.3831 12.1335C36.5665 12.8835 36.6665 13.6668 36.6665 14.4835Z" fill="#61586A"/>
<path d="M37.5504 2.45039C37.0671 1.96706 36.2671 1.96706 35.7837 2.45039L31.8837 6.35039C30.5671 5.60039 29.0337 5.16706 27.4004 5.16706C24.3837 5.16706 21.6837 6.63372 20.0004 8.88372C18.3171 6.63372 15.6171 5.16706 12.6004 5.16706C7.48372 5.16706 3.33372 9.33372 3.33372 14.4837C3.33372 16.4671 3.65039 18.3004 4.20039 20.0004C5.28372 23.4504 7.31706 26.3337 9.61706 28.6171L2.45039 35.7837C1.96706 36.267 1.96706 37.0671 2.45039 37.5504C2.70039 37.8004 3.01706 37.9171 3.33372 37.9171C3.65039 37.9171 3.96706 37.8004 4.21706 37.5504L37.5504 4.21706C38.0337 3.73372 38.0337 2.93372 37.5504 2.45039Z" fill="#61586A"/>
</svg>
