<svg width="40" height="53" viewBox="0 0 40 53" fill="none" xmlns="http://www.w3.org/2000/svg">
<path d="M5 15.5C5 7.21573 11.7157 0.5 20 0.5C28.2843 0.5 35 7.21573 35 15.5C35 23.7843 28.2843 30.5 20 30.5C11.7157 30.5 5 23.7843 5 15.5Z" fill="#7A37BE"/>
<path d="M13.801 14.8148L18.1512 19.5999L26.199 12.2046" stroke="white" stroke-width="2" stroke-linecap="round"/>
<path d="M11.6152 41.1582V40.707H13.8438V39.627H11.6152V37.8496H10.3984V39.627H8.12891V40.707H10.3984V41.1582C10.3848 43.1338 9.50293 45.2188 7.81445 46.2031L8.58008 47.1602C9.7627 46.4766 10.583 45.1982 11.0137 43.7217C11.458 45.1025 12.2852 46.2715 13.4746 46.9004L14.2129 45.9297C12.5039 45.0342 11.6152 43.0654 11.6152 41.1582ZM14.5957 49.0605H15.8262V43.373H17.2891V49.6621H18.5332V37.4121H17.2891V42.2793H15.8262V37.6445H14.5957V49.0605ZM25.3418 38.2871H20.5566V44.2617H21.3496C23.2979 44.2686 24.4668 44.2139 25.9023 43.9473L25.7793 42.8809C24.5146 43.1201 23.4414 43.1816 21.8008 43.1953V41.7051H25.2051V40.707H21.8008V39.3398H25.3418V38.2871ZM22.1699 46.5039H29.2109V49.6621H30.4961V45.4512H22.1699V46.5039ZM26.5449 44.7676H27.7617V41.5957H29.2656V44.8633H30.4961V37.4258H29.2656V40.543H27.7617V37.6445H26.5449V44.7676Z" fill="#7A37BE"/>
</svg>
