<svg width="31" height="30" viewBox="0 0 31 30" fill="none" xmlns="http://www.w3.org/2000/svg">
<path d="M0.5 15C0.5 6.71573 7.21573 0 15.5 0C23.7843 0 30.5 6.71573 30.5 15C30.5 23.2843 23.7843 30 15.5 30C7.21573 30 0.5 23.2843 0.5 15Z" fill="#FAFAFA"/>
<g clip-path="url(#clip0_1560_11869)">
<path d="M16.1559 9.20173L12.9243 12.4334C12.7084 12.6492 12.5859 12.9467 12.5859 13.2559V19.0834C12.5859 19.7251 13.1109 20.2501 13.7526 20.2501H19.0026C19.4693 20.2501 19.8893 19.9701 20.0759 19.5442L21.9776 15.1051C22.4676 13.9501 21.6218 12.6667 20.3676 12.6667H17.0718L17.6259 9.99506C17.6843 9.7034 17.5968 9.4059 17.3868 9.1959C17.0426 8.85756 16.4943 8.85756 16.1559 9.20173ZM10.2526 20.2501C10.8943 20.2501 11.4193 19.7251 11.4193 19.0834V14.4167C11.4193 13.7751 10.8943 13.2501 10.2526 13.2501C9.61094 13.2501 9.08594 13.7751 9.08594 14.4167V19.0834C9.08594 19.7251 9.61094 20.2501 10.2526 20.2501Z" fill="#CCCCCC"/>
</g>
<path d="M15.5 29C7.76801 29 1.5 22.732 1.5 15H-0.5C-0.5 23.8366 6.66344 31 15.5 31V29ZM29.5 15C29.5 22.732 23.232 29 15.5 29V31C24.3366 31 31.5 23.8366 31.5 15H29.5ZM15.5 1C23.232 1 29.5 7.26801 29.5 15H31.5C31.5 6.16344 24.3366 -1 15.5 -1V1ZM15.5 -1C6.66344 -1 -0.5 6.16344 -0.5 15H1.5C1.5 7.26801 7.76801 1 15.5 1V-1Z" fill="#E6E6E6"/>
<defs>
<clipPath id="clip0_1560_11869">
<rect width="14" height="14" fill="white" transform="translate(8.5 8)"/>
</clipPath>
</defs>
</svg>
