<svg width="15" height="15" viewBox="0 0 15 15" fill="none" xmlns="http://www.w3.org/2000/svg">
<path d="M10.4141 1.66699H4.58073C2.97073 1.66699 1.66406 2.96783 1.66406 4.57199V8.06033V8.64366C1.66406 10.2478 2.97073 11.5487 4.58073 11.5487H5.45573C5.61323 11.5487 5.82323 11.6537 5.9224 11.782L6.7974 12.9428C7.1824 13.4562 7.8124 13.4562 8.1974 12.9428L9.0724 11.782C9.18323 11.6362 9.35823 11.5487 9.53906 11.5487H10.4141C12.0241 11.5487 13.3307 10.2478 13.3307 8.64366V4.57199C13.3307 2.96783 12.0241 1.66699 10.4141 1.66699ZM5.16406 7.50033C4.8374 7.50033 4.58073 7.23783 4.58073 6.91699C4.58073 6.59616 4.84323 6.33366 5.16406 6.33366C5.4849 6.33366 5.7474 6.59616 5.7474 6.91699C5.7474 7.23783 5.49073 7.50033 5.16406 7.50033ZM7.4974 7.50033C7.17073 7.50033 6.91406 7.23783 6.91406 6.91699C6.91406 6.59616 7.17656 6.33366 7.4974 6.33366C7.81823 6.33366 8.08073 6.59616 8.08073 6.91699C8.08073 7.23783 7.82406 7.50033 7.4974 7.50033ZM9.83073 7.50033C9.50406 7.50033 9.2474 7.23783 9.2474 6.91699C9.2474 6.59616 9.5099 6.33366 9.83073 6.33366C10.1516 6.33366 10.4141 6.59616 10.4141 6.91699C10.4141 7.23783 10.1574 7.50033 9.83073 7.50033Z" fill="#999999"/>
</svg>
