<svg width="15" height="15" viewBox="0 0 15 15" fill="none" xmlns="http://www.w3.org/2000/svg">
<g clip-path="url(#clip0_1560_11856)">
<path d="M8.15594 1.70124L4.92427 4.93291C4.70844 5.14874 4.58594 5.44624 4.58594 5.75541V11.5829C4.58594 12.2246 5.11094 12.7496 5.7526 12.7496H11.0026C11.4693 12.7496 11.8893 12.4696 12.0759 12.0437L13.9776 7.60457C14.4676 6.44957 13.6218 5.16624 12.3676 5.16624H9.07177L9.62594 2.49458C9.68427 2.20291 9.59677 1.90541 9.38677 1.69541C9.0426 1.35707 8.49427 1.35707 8.15594 1.70124ZM2.2526 12.7496C2.89427 12.7496 3.41927 12.2246 3.41927 11.5829V6.91624C3.41927 6.27457 2.89427 5.74957 2.2526 5.74957C1.61094 5.74957 1.08594 6.27457 1.08594 6.91624V11.5829C1.08594 12.2246 1.61094 12.7496 2.2526 12.7496Z" fill="#999999"/>
</g>
<defs>
<clipPath id="clip0_1560_11856">
<rect width="14" height="14" fill="white" transform="translate(0.5 0.5)"/>
</clipPath>
</defs>
</svg>
