<svg width="15" height="14" viewBox="0 0 15 14" fill="none" xmlns="http://www.w3.org/2000/svg">
<g clip-path="url(#clip0_1709_5471)">
<path d="M8.15594 1.20173L4.92427 4.4334C4.70844 4.64923 4.58594 4.94673 4.58594 5.2559V11.0834C4.58594 11.7251 5.11094 12.2501 5.7526 12.2501H11.0026C11.4693 12.2501 11.8893 11.9701 12.0759 11.5442L13.9776 7.10506C14.4676 5.95006 13.6218 4.66673 12.3676 4.66673H9.07177L9.62594 1.99506C9.68427 1.7034 9.59677 1.4059 9.38677 1.1959C9.0426 0.857563 8.49427 0.857563 8.15594 1.20173V1.20173ZM2.2526 12.2501C2.89427 12.2501 3.41927 11.7251 3.41927 11.0834V6.41673C3.41927 5.77506 2.89427 5.25006 2.2526 5.25006C1.61094 5.25006 1.08594 5.77506 1.08594 6.41673V11.0834C1.08594 11.7251 1.61094 12.2501 2.2526 12.2501Z" fill="#CCCCCC"/>
</g>
<defs>
<clipPath id="clip0_1709_5471">
<rect width="14" height="14" fill="white" transform="translate(0.5)"/>
</clipPath>
</defs>
</svg>
