<svg width="39" height="19" viewBox="0 0 39 19" fill="none" xmlns="http://www.w3.org/2000/svg">
<path d="M0 9.5C0 4.52944 4.02944 0.5 9 0.5H30C34.9706 0.5 39 4.52944 39 9.5C39 14.4706 34.9706 18.5 30 18.5H9C4.02944 18.5 0 14.4706 0 9.5Z" fill="#BB9ED8"/>
<path d="M14.7588 6.42969H13.7041V11.6055H13.6357L10.0518 6.42969H9.05566V13.5H10.1299V8.33398H10.1885L13.7725 13.5H14.7588V6.42969ZM16.2041 13.5H20.6768V12.5723H17.2783V10.4141H20.4033V9.49609H17.2783V7.35742H20.6377V6.42969H16.2041V13.5ZM23.3525 13.5H24.4365L25.9209 8.2168H25.9795L27.4639 13.5H28.5479L30.5107 6.42969H29.3779L28.001 11.8984H27.9424L26.5068 6.42969H25.3936L23.958 11.8984H23.8994L22.5225 6.42969H21.3896L23.3525 13.5Z" fill="white"/>
</svg>
