<svg width="37" height="19" viewBox="0 0 37 19" fill="none" xmlns="http://www.w3.org/2000/svg">
<path d="M0 9.5C0 4.52944 4.02944 0.5 9 0.5H28C32.9706 0.5 37 4.52944 37 9.5C37 14.4706 32.9706 18.5 28 18.5H9C4.02944 18.5 0 14.4706 0 9.5Z" fill="#7A37BE"/>
<path d="M9.03223 13.5H10.1064V10.4141H13.6221V13.5H14.6963V6.42969H13.6221V9.49609H10.1064V6.42969H9.03223V13.5ZM22.2842 9.96484C22.2842 7.7041 20.9268 6.33203 19.1006 6.33203C17.2598 6.33203 15.9072 7.7041 15.9072 9.96484C15.9072 12.2207 17.2598 13.5977 19.1006 13.5977C20.9268 13.5977 22.2842 12.2256 22.2842 9.96484ZM16.9717 9.96484C16.9766 8.24609 17.8799 7.31348 19.1006 7.31836C20.3115 7.31348 21.2148 8.24609 21.2197 9.96484C21.2148 11.6836 20.3115 12.6162 19.1006 12.6113C17.8799 12.6162 16.9766 11.6836 16.9717 9.96484ZM22.8408 7.35742H25.0479V13.5H26.1221V7.35742H28.3193V6.42969H22.8408V7.35742Z" fill="white"/>
</svg>
