<svg width="18" height="19" viewBox="0 0 18 19" fill="none" xmlns="http://www.w3.org/2000/svg">
<path d="M10.7628 2H7.23781C6.45781 2 5.82031 2.63 5.82031 3.41V4.115C5.82031 4.895 6.45031 5.525 7.23031 5.525H10.7628C11.5428 5.525 12.1728 4.895 12.1728 4.115V3.41C12.1803 2.63 11.5428 2 10.7628 2Z" fill="#2E2A32"/>
<path d="M12.9312 4.11511C12.9312 5.30761 11.9562 6.28261 10.7638 6.28261H7.23875C6.04625 6.28261 5.07125 5.30761 5.07125 4.11511C5.07125 3.69511 4.62125 3.43261 4.24625 3.62761C3.18875 4.19011 2.46875 5.30761 2.46875 6.59011V13.6476C2.46875 15.4926 3.97625 17.0001 5.82125 17.0001H12.1812C14.0262 17.0001 15.5337 15.4926 15.5337 13.6476V6.59011C15.5337 5.30761 14.8137 4.19011 13.7562 3.62761C13.3812 3.43261 12.9312 3.69511 12.9312 4.11511ZM11.5062 10.0476L8.50625 13.0476C8.39375 13.1601 8.25125 13.2126 8.10875 13.2126C7.96625 13.2126 7.82375 13.1601 7.71125 13.0476L6.58625 11.9226C6.36875 11.7051 6.36875 11.3451 6.58625 11.1276C6.80375 10.9101 7.16375 10.9101 7.38125 11.1276L8.10875 11.8551L10.7112 9.25261C10.9287 9.03511 11.2887 9.03511 11.5062 9.25261C11.7237 9.47011 11.7237 9.83011 11.5062 10.0476Z" fill="#2E2A32"/>
</svg>
