<svg width="70" height="22" viewBox="0 0 70 22" fill="none" xmlns="http://www.w3.org/2000/svg">
<path d="M0 5C0 2.23858 2.23858 0 5 0H65C67.7614 0 70 2.23858 70 5V17C70 19.7614 67.7614 22 65 22H5C2.23858 22 0 19.7614 0 17V5Z" fill="#F8F8F8"/>
<g clip-path="url(#clip0_1158_5428)">
<path d="M16.5214 10.5574L12.7808 14.298C12.0419 15.0369 10.8434 15.1536 10.0373 14.4889C9.11095 13.7253 9.06499 12.357 9.8923 11.5297L14.2622 7.15976C14.7254 6.69661 15.4784 6.60822 15.984 7.02188C16.5674 7.49917 16.5992 8.35831 16.0795 8.87803L12.3672 12.5903C12.1727 12.7848 11.8545 12.7848 11.6601 12.5903C11.4656 12.3959 11.4656 12.0777 11.6601 11.8832L14.7537 8.78964C14.8986 8.64469 14.8986 8.40427 14.7537 8.25931C14.6087 8.11436 14.3683 8.11436 14.2233 8.25931L11.1792 11.3034C10.7161 11.7666 10.6277 12.5196 11.0414 13.0252C11.5187 13.6086 12.3778 13.6404 12.8975 13.1207L16.5497 9.46847C17.2886 8.72954 17.4053 7.53099 16.7406 6.72489C15.9805 5.80212 14.6087 5.75262 13.7814 6.57994L9.44329 10.918C8.42859 11.9327 8.26242 13.5838 9.17813 14.6905C10.2353 15.9597 12.1126 16.0269 13.2511 14.8884L17.0518 11.0877C17.1967 10.9428 17.1967 10.7024 17.0518 10.5574C16.9068 10.4125 16.6664 10.4125 16.5214 10.5574Z" fill="#666666"/>
</g>
<path d="M26.668 6.75H20.8438V7.37109H22.0508V12.627C21.5352 12.6328 21.043 12.6328 20.5859 12.6328L20.6914 13.2891C22.5371 13.2773 25.0508 13.248 27.2656 12.9023L27.2188 12.3398C26.6504 12.4102 26.0527 12.4629 25.4492 12.5039V7.37109H26.668V6.75ZM22.7773 12.6152V7.37109H24.7344V12.5449C24.0723 12.5801 23.416 12.6035 22.7773 12.6152ZM27.9336 15.9141H28.6719V10.418H30.4531V9.78516H28.6719V5.57812H27.9336V15.9141ZM34.0039 5.97656C32.4629 5.98242 31.3496 6.9082 31.3555 8.25C31.3496 9.5918 32.4629 10.5059 34.0039 10.5117C35.5449 10.5059 36.6582 9.5918 36.6641 8.25C36.6582 6.9082 35.5449 5.98242 34.0039 5.97656ZM32.082 8.25C32.0703 7.30664 32.8965 6.60352 34.0039 6.60938C35.1172 6.60352 35.9434 7.30664 35.9492 8.25C35.9434 9.20508 35.1172 9.89062 34.0039 9.89062C32.8965 9.89062 32.0703 9.20508 32.082 8.25ZM32.9258 12.0586H38.8555V13.2656H32.9609V15.7617H39.9805V15.1523H33.6758V13.8398H39.582V11.4492H32.9258V12.0586ZM38.8438 10.9219H39.582V5.57812H38.8438V10.9219ZM44.8906 7.76953V7.47656H47.3047V6.85547H44.9141V5.51953H44.1641V6.85547H41.75V7.47656H44.1641V7.76953C44.1641 9.21094 42.9746 10.4297 41.4805 10.8984L41.8555 11.4844C43.0918 11.0625 44.1055 10.1836 44.5391 9.0293C45.002 10.1016 46.0215 10.9043 47.2461 11.2852L47.5977 10.6992C46.1094 10.248 44.8965 9.12891 44.8906 7.76953ZM43.2852 15.7617H49.9766V12.2695H43.2852V15.7617ZM44.0117 15.1523V12.8906H49.25V15.1523H44.0117ZM46.9883 9.16406H49.2383V11.7188H49.9766V5.57812H49.2383V8.53125H46.9883V9.16406ZM61.2734 11.7656H51.8164V12.375H56.1641V15.9141H56.8789V12.375H61.2734V11.7656ZM53.0586 10.4297H60.0312V6.01172H59.293V7.52344H53.7969V6.01172H53.0586V10.4297ZM53.7969 9.82031V8.13281H59.293V9.82031H53.7969Z" fill="#333333"/>
<path d="M5 1H65V-1H5V1ZM69 5V17H71V5H69ZM65 21H5V23H65V21ZM1 17V5H-1V17H1ZM5 21C2.79086 21 1 19.2091 1 17H-1C-1 20.3137 1.68629 23 5 23V21ZM69 17C69 19.2091 67.2091 21 65 21V23C68.3137 23 71 20.3137 71 17H69ZM65 1C67.2091 1 69 2.79086 69 5H71C71 1.68629 68.3137 -1 65 -1V1ZM5 -1C1.68629 -1 -1 1.68629 -1 5H1C1 2.79086 2.79086 1 5 1V-1Z" fill="#CCCCCC"/>
<defs>
<clipPath id="clip0_1158_5428">
<rect width="10" height="10" fill="white" transform="translate(8 6)"/>
</clipPath>
</defs>
</svg>
