<svg width="224" height="263" viewBox="0 0 224 263" fill="none" xmlns="http://www.w3.org/2000/svg">
<g clip-path="url(#clip0_2073_31737)">
<path d="M106.777 262.42C165.817 262.42 213.679 260.502 213.679 258.135C213.679 255.768 165.817 253.85 106.777 253.85C47.7366 253.85 -0.125 255.768 -0.125 258.135C-0.125 260.502 47.7366 262.42 106.777 262.42Z" fill="#DEDEDE"/>
<path d="M24.3119 259.587C22.1902 258.696 21.3415 255.912 22.3473 253.331L56.0115 165.824L69.8889 171.768L30.3469 256.569C29.1525 259.165 26.4964 260.495 24.3119 259.587Z" fill="black"/>
<path d="M104.199 259.759C102.077 260.651 99.4843 259.321 98.2741 256.756L58.4492 171.955L72.3738 166.137L106.179 253.378C107.217 256.052 106.337 258.868 104.199 259.759Z" fill="black"/>
<path d="M81.8209 31.4277C81.8209 31.4277 84.3827 33.2576 85.64 39.5294C85.9043 42.6615 85.7723 45.8142 85.247 48.9135C85.247 48.9135 93.6709 61.5665 92.3822 68.7453C91.0935 75.9242 77.0117 71.5762 77.0117 71.5762L72.2969 60.2996L76.5088 49.8676L81.8209 31.4277Z" fill="#2E2A32"/>
<path d="M38.2844 62.7402C38.2844 62.7402 1.74413 81.2114 7.51199 131.385C12.8084 177.477 55.5094 192.711 87.2876 181.856C119.066 171.002 108.677 139.205 108.677 139.205L38.2844 62.7402Z" fill="#303030"/>
<path d="M125.305 55.4668L126.971 63.412L116.426 62.6457V58.7043L125.305 55.4668Z" fill="#DBDBDB"/>
<path d="M106.039 78.8974L110.298 60.9111L126.706 62.2875C126.706 62.2875 136.78 103.859 121.237 110.991C106.872 117.576 95.2891 104.125 95.2891 104.125L106.039 78.8974Z" fill="#DBDBDB"/>
<path d="M103.59 111.787H153.19L167.335 79.8809H119.73C119.157 79.8884 118.599 80.0607 118.122 80.3771C117.645 80.6934 117.27 81.1403 117.043 81.6638L103.59 111.787Z" fill="#B8B8B8"/>
<g style="mix-blend-mode:multiply" opacity="0.36">
<g style="mix-blend-mode:multiply" opacity="0.36">
<path d="M65.4263 160.322C79.2272 160.322 90.4151 157.816 90.4151 154.723C90.4151 151.631 79.2272 149.124 65.4263 149.124C51.6254 149.124 40.4375 151.631 40.4375 154.723C40.4375 157.816 51.6254 160.322 65.4263 160.322Z" fill="#303030"/>
</g>
</g>
<path d="M107.895 111.787H157.542L170.115 83.3061C170.28 82.9343 170.349 82.5275 170.316 82.1224C170.283 81.7174 170.148 81.327 169.925 80.9868C169.702 80.6465 169.397 80.3671 169.037 80.174C168.678 79.9809 168.276 79.8801 167.868 79.8809H122.071L107.895 111.787Z" fill="#4F4F4F"/>
<path d="M134.941 95.8342C134.941 96.6632 135.188 97.4736 135.651 98.1629C136.114 98.8522 136.772 99.3894 137.542 99.7067C138.311 100.024 139.158 100.107 139.975 99.9452C140.792 99.7835 141.543 99.3843 142.132 98.7981C142.721 98.2119 143.122 97.465 143.284 96.6519C143.447 95.8388 143.363 94.996 143.045 94.2301C142.726 93.4642 142.186 92.8096 141.493 92.349C140.801 91.8884 139.986 91.6426 139.153 91.6426C138.6 91.6426 138.053 91.751 137.542 91.9617C137.03 92.1723 136.566 92.481 136.175 92.8703C135.784 93.2595 135.474 93.7216 135.262 94.2301C135.05 94.7387 134.941 95.2837 134.941 95.8342Z" fill="white"/>
<path d="M58.5279 36.7297C56.9268 36.6127 55.3192 36.8398 53.8142 37.3957C52.3092 37.9516 50.942 38.8233 49.8054 39.9516C45.3577 43.9242 46.2064 50.1647 46.2064 50.1647C43.8177 51.0052 41.6569 52.3843 39.8929 54.194C38.1288 56.0038 36.8095 58.1951 36.038 60.5967C33.4133 68.8391 39.7156 72.5615 39.7156 72.5615L61.9855 70.9975L68.932 43.8304L63.1327 35.5098L58.5279 36.7297Z" fill="#2E2A32"/>
<path d="M119.98 221.41L121.253 240.366H97.1289V221.41H119.98Z" fill="#DBDBDB"/>
<path d="M167.725 171.706L180.769 185.563L161.941 200.875L149.887 186.205L167.725 171.706Z" fill="#DBDBDB"/>
<path d="M21.8184 151.077C21.7062 151.076 21.5988 151.031 21.5198 150.951C14.1803 142.74 14.0703 128.117 14.0703 127.976C14.0703 127.872 14.1117 127.773 14.1854 127.699C14.2591 127.626 14.359 127.585 14.4632 127.585C14.5674 127.585 14.6674 127.626 14.741 127.699C14.8147 127.773 14.8561 127.872 14.8561 127.976C14.8561 128.117 14.9818 142.443 22.1013 150.42C22.153 150.475 22.1874 150.544 22.2004 150.619C22.2134 150.693 22.2043 150.77 22.1744 150.84C22.1445 150.909 22.0949 150.969 22.0317 151.011C21.9685 151.053 21.8944 151.076 21.8184 151.077Z" fill="#4E4E4E"/>
<path d="M128.905 175.772V226.525H87.697L80.0117 156.504L112.843 152.844L128.905 175.772Z" fill="#B4B4B4"/>
<path d="M178.489 166.045C178.489 166.045 144.966 126.413 124.708 120.157C104.45 113.901 41.6008 115.997 41.6008 115.997C41.6008 115.997 35.3143 145.181 52.0678 152.845C68.8213 160.509 101.181 159.101 106.666 161.885C112.151 164.669 145.658 197.326 145.658 197.326L178.489 166.045Z" fill="#B4B4B4"/>
<path d="M31.8906 93.8822C31.8906 93.8822 35.0339 62.6017 50.6401 58.7073C62.3841 55.5918 74.8561 56.6995 85.8602 61.8354C94.3155 65.417 106.04 78.8989 106.04 78.8989L99.2975 108.725L90.6222 107.161L90.7636 118.547L44.7465 119.72L38.9001 95.8372L31.8906 93.8822Z" fill="#4E4E4E"/>
<path d="M170.6 123.394H27.3155C26.8057 123.394 26.3009 123.294 25.83 123.1C25.359 122.906 24.931 122.621 24.5706 122.263C24.2101 121.904 23.9242 121.478 23.7291 121.009C23.534 120.541 23.4336 120.038 23.4336 119.531C23.4336 119.024 23.534 118.521 23.7291 118.053C23.9242 117.584 24.2101 117.158 24.5706 116.799C24.931 116.441 25.359 116.156 25.83 115.962C26.3009 115.768 26.8057 115.668 27.3155 115.668H170.6C171.11 115.668 171.615 115.768 172.086 115.962C172.557 116.156 172.985 116.441 173.345 116.799C173.706 117.158 173.992 117.584 174.187 118.053C174.382 118.521 174.482 119.024 174.482 119.531C174.482 120.038 174.382 120.541 174.187 121.009C173.992 121.478 173.706 121.904 173.345 122.263C172.985 122.621 172.557 122.906 172.086 123.1C171.615 123.294 171.11 123.394 170.6 123.394Z" fill="black"/>
<path d="M35.3968 94.8662C35.3968 94.8662 32.2536 108.52 35.7898 115.668C40.8504 125.85 83.2371 120.438 83.2371 120.438L86.0974 108.52L62.2402 101.169L62.3188 100.7C62.3188 100.7 52.9047 98.2601 35.3968 94.8662Z" fill="#DBDBDB"/>
<path d="M64.6095 48.8994L63.2422 58.7371C63.2422 58.7371 64.6409 61.8652 70.3617 63.0695C74.6208 64.0079 76.2709 63.2572 76.2709 63.2572V58.1897V53.2474L66.1497 49.525L64.6095 48.8994Z" fill="#DBDBDB"/>
<path d="M66.3086 49.5244C66.3077 49.8591 66.3607 50.1918 66.4658 50.5098C68.0374 55.7336 73.8995 57.6261 76.3513 58.1891V53.2468L66.3086 49.5244Z" fill="#2E2A32"/>
<path d="M81.7383 31.1158C81.7383 31.1158 85.2273 44.1597 82.2255 50.7443C79.2237 57.3288 73.1101 55.2643 69.5582 53.3718C67.5325 52.3528 65.8218 50.8071 64.6076 48.8987C63.4875 49.0536 62.347 48.8508 61.35 48.3196C60.3531 47.7885 59.5512 46.9562 59.0597 45.9427C57.2052 42.3298 59.2326 38.8108 61.37 38.2633C62.1357 38.1659 62.9133 38.2267 63.6543 38.442C64.3952 38.6573 65.0836 39.0224 65.6763 39.5146L64.3404 35.6983C64.3404 35.6983 75.0117 18.8069 81.7383 31.1158Z" fill="#DBDBDB"/>
<path d="M78.8501 46.6464C78.7937 46.6625 78.7338 46.6625 78.6773 46.6464C78.6296 46.6262 78.5867 46.5966 78.551 46.5592C78.5154 46.5218 78.4879 46.4776 78.4702 46.4291C78.4525 46.3807 78.445 46.3292 78.4482 46.2778C78.4514 46.2264 78.4652 46.1761 78.4887 46.1302C78.7757 45.3439 78.9013 44.5083 78.8581 43.6728C78.8149 42.8374 78.6038 42.019 78.2372 41.2661C78.2134 41.2191 78.1995 41.1678 78.1961 41.1152C78.1927 41.0626 78.2001 41.0099 78.2177 40.9603C78.2353 40.9106 78.2628 40.865 78.2986 40.8262C78.3344 40.7874 78.3776 40.7561 78.4258 40.7344C78.4719 40.711 78.5224 40.6972 78.5741 40.6941C78.6257 40.6909 78.6775 40.6984 78.7262 40.716C78.7748 40.7336 78.8193 40.7609 78.8569 40.7964C78.8944 40.8319 78.9242 40.8746 78.9445 40.9221C79.3638 41.7818 79.6024 42.7177 79.6456 43.6724C79.6889 44.6271 79.5358 45.5805 79.1959 46.4743C79.1592 46.5314 79.1077 46.5775 79.0469 46.6078C78.986 46.6381 78.918 46.6514 78.8501 46.6464Z" fill="#2E2A32"/>
<path d="M64.2931 45.1585C64.2283 45.1579 64.1646 45.142 64.1072 45.1121C64.0498 45.0821 64.0004 45.0391 63.963 44.9864L61.197 40.9356C61.1672 40.8948 61.146 40.8485 61.1346 40.7994C61.1233 40.7503 61.1219 40.6994 61.1307 40.6498C61.1395 40.6002 61.1583 40.5528 61.1859 40.5106C61.2135 40.4683 61.2493 40.432 61.2913 40.4038C61.3335 40.3738 61.3813 40.3524 61.4319 40.3409C61.4824 40.3294 61.5348 40.328 61.586 40.3367C61.6371 40.3454 61.686 40.3641 61.7298 40.3918C61.7737 40.4194 61.8116 40.4554 61.8413 40.4977L64.6074 44.5485C64.6376 44.5905 64.659 44.6381 64.6706 44.6884C64.6822 44.7387 64.6837 44.7909 64.6749 44.8418C64.6661 44.8927 64.6473 44.9413 64.6195 44.9849C64.5918 45.0286 64.5556 45.0663 64.5131 45.0959C64.4476 45.138 64.371 45.1598 64.2931 45.1585Z" fill="#2E2A32"/>
<path d="M63.2778 43.6756H60.9046C60.8004 43.6756 60.7005 43.6344 60.6268 43.561C60.5531 43.4877 60.5117 43.3883 60.5117 43.2846C60.5117 43.1809 60.5531 43.0814 60.6268 43.0081C60.7005 42.9347 60.8004 42.8936 60.9046 42.8936H63.2621C63.3663 42.8936 63.4662 42.9347 63.5399 43.0081C63.6136 43.0814 63.655 43.1809 63.655 43.2846C63.655 43.3856 63.6158 43.4828 63.5455 43.5557C63.4752 43.6286 63.3792 43.6715 63.2778 43.6756Z" fill="#2E2A32"/>
<path d="M73.1601 47.4768C73.861 47.506 74.5356 47.7508 75.0911 48.1775C75.6466 48.6042 76.0556 49.1918 76.262 49.8595C76.2848 49.9494 76.2732 50.0446 76.2295 50.1265C76.1858 50.2084 76.1131 50.2712 76.0255 50.3028C75.9817 50.3175 75.9354 50.3231 75.8893 50.319C75.8432 50.315 75.7985 50.3015 75.758 50.2794C75.7175 50.2572 75.682 50.2269 75.6538 50.1904C75.6256 50.1539 75.6054 50.112 75.5943 50.0673C75.4203 49.5492 75.0963 49.094 74.6632 48.7588C74.2301 48.4236 73.7071 48.2233 73.1601 48.1833H73.0766C72.9844 48.1833 72.8959 48.1468 72.8307 48.0819C72.7655 48.0169 72.7289 47.9288 72.7289 47.837C72.7289 47.7451 72.7655 47.657 72.8307 47.5921C72.8959 47.5271 72.9844 47.4906 73.0766 47.4906L73.1601 47.4768Z" fill="#2E2A32"/>
<path d="M72.5946 36.4161C72.5096 36.4161 72.4268 36.3887 72.3588 36.3379C72.3163 36.3083 72.2802 36.2706 72.2524 36.2269C72.2246 36.1833 72.2058 36.1347 72.1971 36.0838C72.1883 36.0329 72.1897 35.9807 72.2013 35.9304C72.2129 35.8801 72.2344 35.8325 72.2645 35.7905C73.3332 34.3516 75.9107 34.9146 76.0207 34.9459C76.1202 34.9718 76.2055 35.0354 76.2584 35.1231C76.3113 35.2108 76.3275 35.3156 76.3036 35.4151C76.2925 35.4656 76.2714 35.5133 76.2416 35.5556C76.2118 35.5979 76.1739 35.6339 76.1301 35.6615C76.0863 35.6891 76.0374 35.7078 75.9862 35.7166C75.9351 35.7253 75.8827 35.7238 75.8321 35.7123C75.2349 35.5715 73.5375 35.3995 72.9089 36.2597C72.8701 36.3059 72.8222 36.3436 72.7681 36.3705C72.714 36.3974 72.655 36.4129 72.5946 36.4161Z" fill="#2E2A32"/>
<path d="M82.2742 36.5123C82.207 36.5129 82.1406 36.4977 82.0805 36.4678C82.0204 36.4378 81.9683 36.3942 81.9285 36.3403C81.7416 36.0587 81.4541 35.8585 81.1243 35.7801C80.7946 35.7016 80.4471 35.751 80.1525 35.918C80.1055 35.941 80.0541 35.954 80.0016 35.9561C79.9492 35.9582 79.8969 35.9494 79.8481 35.9303C79.7993 35.9111 79.7551 35.8821 79.7182 35.8449C79.6813 35.8078 79.6526 35.7635 79.6339 35.7147C79.596 35.6189 79.596 35.5123 79.6339 35.4166C79.6718 35.3208 79.7448 35.2429 79.8382 35.1985C80.3079 34.9609 80.8488 34.9029 81.3586 35.0355C81.8683 35.168 82.3115 35.482 82.6043 35.918C82.6544 36.0087 82.6693 36.1146 82.6461 36.2155C82.6229 36.3164 82.5633 36.4054 82.4786 36.4654C82.4147 36.4956 82.345 36.5116 82.2742 36.5123Z" fill="#2E2A32"/>
<path d="M127.666 180.511C127.61 180.514 127.554 180.504 127.502 180.482C127.45 180.461 127.404 180.428 127.367 180.386C127.21 180.214 111.556 163.37 106.574 162.259C101.592 161.149 80.4382 159.256 80.2339 159.256C80.1823 159.252 80.1319 159.238 80.0857 159.215C80.0396 159.191 79.9985 159.159 79.9649 159.12C79.9313 159.081 79.9058 159.035 79.89 158.986C79.8741 158.937 79.8682 158.885 79.8724 158.834C79.8843 158.733 79.9353 158.64 80.0145 158.576C80.0937 158.512 80.195 158.481 80.2968 158.49C81.1612 158.49 101.624 160.351 106.747 161.493C111.871 162.634 127.304 179.166 127.948 179.854C128.021 179.93 128.062 180.031 128.062 180.136C128.062 180.241 128.021 180.342 127.948 180.417C127.869 180.482 127.768 180.515 127.666 180.511Z" fill="#DBDBDB"/>
<path d="M106.664 162.274H106.538C106.456 162.253 106.385 162.203 106.336 162.135C106.287 162.066 106.264 161.983 106.271 161.899C106.271 160.335 106.648 152.859 108.518 151.905C108.7 151.807 108.907 151.763 109.114 151.78C109.32 151.797 109.517 151.873 109.681 151.999C112.369 153.766 107.544 161.273 106.978 162.118C106.944 162.17 106.897 162.211 106.842 162.239C106.787 162.266 106.725 162.279 106.664 162.274ZM108.99 152.53H108.88C107.952 153.015 107.308 156.988 107.119 160.351C108.864 157.395 110.577 153.469 109.241 152.53C109.159 152.504 109.071 152.504 108.99 152.53Z" fill="#DBDBDB"/>
<path d="M135.993 188.393C135.917 188.392 135.843 188.369 135.78 188.327C135.717 188.285 135.667 188.226 135.637 188.156C135.607 188.087 135.598 188.01 135.611 187.936C135.624 187.861 135.659 187.792 135.71 187.736L159.913 163.557C159.989 163.484 160.091 163.443 160.196 163.443C160.302 163.443 160.403 163.484 160.479 163.557C160.549 163.634 160.587 163.734 160.587 163.838C160.587 163.942 160.549 164.042 160.479 164.12L136.26 188.284C136.226 188.319 136.184 188.347 136.138 188.366C136.092 188.385 136.043 188.394 135.993 188.393Z" fill="#DBDBDB"/>
<path d="M116.899 216.923H87.6663C87.5621 216.923 87.4622 216.881 87.3885 216.808C87.3148 216.735 87.2734 216.635 87.2734 216.532C87.2734 216.428 87.3148 216.328 87.3885 216.255C87.4622 216.182 87.5621 216.141 87.6663 216.141H116.899C117.003 216.141 117.103 216.182 117.176 216.255C117.25 216.328 117.291 216.428 117.291 216.532C117.291 216.635 117.25 216.735 117.176 216.808C117.103 216.881 117.003 216.923 116.899 216.923Z" fill="#DBDBDB"/>
<path d="M126.47 235.801C126.47 235.801 125.024 227.903 121.252 227.527C117.481 227.152 112.09 235.801 112.09 235.801C112.09 235.801 97.3638 234.675 96.3737 235.801C95.3835 236.927 95.3364 261.764 96.3737 262.139C97.4109 262.515 158.469 262.515 161.25 262.139C164.032 261.764 160.056 248.97 154.571 246.718C150.942 245.319 147.098 244.552 143.208 244.45L126.47 235.801Z" fill="#303030"/>
<path d="M180.928 178.024C180.928 178.024 174.94 172.659 171.813 174.598C168.685 176.538 169.864 186.595 169.864 186.595C169.864 186.595 157.825 194.415 157.731 195.979C157.637 197.543 172.944 217.093 173.966 216.765C174.987 216.436 221.995 180.104 223.896 178.149C225.798 176.194 214.844 168.468 209.249 169.938C205.596 170.993 202.159 172.682 199.096 174.927L180.928 178.024Z" fill="#303030"/>
<path d="M86.9415 115.822H157.02C157.558 115.822 158.074 115.61 158.454 115.231C158.834 114.853 159.048 114.34 159.048 113.805C159.048 113.27 158.834 112.756 158.454 112.378C158.074 112 157.558 111.787 157.02 111.787H86.9415C86.4038 111.787 85.8881 112 85.5079 112.378C85.1277 112.756 84.9141 113.27 84.9141 113.805C84.9141 114.34 85.1277 114.853 85.5079 115.231C85.8881 115.61 86.4038 115.822 86.9415 115.822Z" fill="#2E2A32"/>
<path d="M86.0917 108.52C89.7966 109.101 93.4686 109.874 97.0931 110.834C101.242 112.054 107.686 113.477 110.405 112.758C113.124 112.039 113.407 113.196 112.699 114.776C111.992 116.355 108.833 117.184 108.833 117.184C108.833 117.184 112.118 130.306 110.829 131.386C109.54 132.465 105.816 128.258 105.816 128.258C105.378 128.79 104.776 129.164 104.103 129.321C103.267 129.353 102.434 129.198 101.667 128.867C101.489 129.295 101.198 129.667 100.824 129.942C100.45 130.218 100.008 130.387 99.5448 130.432C99.0489 130.529 98.5382 130.526 98.0437 130.421C97.5493 130.316 97.0814 130.112 96.6687 129.822C96.6687 129.822 95.6629 132.011 94.5156 131.526C93.3683 131.041 88.2291 129.509 88.4963 127.976C88.7635 126.443 93.0854 126.756 93.0854 126.756L93.6512 124.144C93.6512 124.144 89.2193 127.522 85.0702 125.208C80.9211 122.893 81.3611 117.153 81.3611 117.153L86.0917 108.52Z" fill="#DBDBDB"/>
<path d="M105.848 128.709C105.756 128.706 105.668 128.673 105.597 128.615C105.525 128.542 105.484 128.444 105.484 128.342C105.484 128.239 105.525 128.141 105.597 128.068C108.646 124.424 104.717 117.339 104.67 117.276C104.645 117.231 104.629 117.181 104.623 117.13C104.618 117.079 104.622 117.027 104.637 116.978C104.652 116.928 104.676 116.882 104.708 116.842C104.741 116.802 104.781 116.769 104.827 116.744C104.916 116.693 105.023 116.679 105.123 116.705C105.223 116.732 105.309 116.796 105.361 116.885C105.534 117.198 109.589 124.518 106.21 128.568C106.167 128.621 106.111 128.662 106.048 128.686C105.984 128.711 105.916 128.719 105.848 128.709Z" fill="#2E2A32"/>
<path d="M101.699 129.32C101.611 129.319 101.527 129.286 101.463 129.226C101.425 129.191 101.395 129.149 101.375 129.101C101.354 129.054 101.344 129.004 101.344 128.952C101.344 128.901 101.354 128.85 101.375 128.803C101.395 128.756 101.425 128.714 101.463 128.679C103.286 126.395 101.919 122.876 101.903 122.845C101.883 122.797 101.872 122.745 101.872 122.693C101.872 122.64 101.883 122.589 101.903 122.541C101.924 122.492 101.954 122.449 101.992 122.412C102.029 122.376 102.074 122.348 102.123 122.329C102.221 122.296 102.328 122.3 102.424 122.34C102.52 122.381 102.597 122.454 102.642 122.548C102.642 122.72 104.213 126.536 102.076 129.163C102.036 129.224 101.979 129.272 101.911 129.3C101.844 129.328 101.77 129.335 101.699 129.32Z" fill="#2E2A32"/>
<path d="M96.7029 130.243C96.6421 130.242 96.5824 130.227 96.528 130.2C96.4736 130.173 96.426 130.134 96.3886 130.086C96.351 130.051 96.3211 130.009 96.3006 129.962C96.2801 129.915 96.2695 129.864 96.2695 129.813C96.2695 129.761 96.2801 129.711 96.3006 129.663C96.3211 129.616 96.351 129.574 96.3886 129.539C98.3374 127.975 98.0702 124.55 98.0702 124.518C98.0659 124.467 98.0719 124.415 98.0878 124.366C98.1036 124.317 98.1291 124.272 98.1627 124.232C98.1963 124.193 98.2374 124.161 98.2835 124.138C98.3297 124.114 98.3801 124.1 98.4317 124.096C98.5351 124.091 98.6363 124.126 98.7151 124.193C98.7938 124.26 98.8442 124.354 98.856 124.456C98.856 124.612 99.1547 128.335 96.8758 130.149C96.8285 130.196 96.7685 130.229 96.7029 130.243Z" fill="#2E2A32"/>
<path d="M116.428 60.4883H134.203V37.3564H116.428V60.4883Z" fill="#B4B4B4"/>
<path d="M116.426 37.3555C116.426 37.9185 120.402 38.3721 125.305 38.3721C130.209 38.3721 134.201 37.9185 134.201 37.3555C134.201 36.7924 130.225 36.3389 125.305 36.3389C120.386 36.3389 116.426 36.7924 116.426 37.3555Z" fill="#787878"/>
<path d="M109.781 50.148C109.781 45.4559 112.752 41.6084 116.429 41.6084C120.107 41.6084 123.061 45.4403 123.061 50.148C123.061 54.8557 120.091 58.7032 116.429 58.7032C112.767 58.7032 109.781 54.8713 109.781 50.148ZM111.353 50.148C111.353 53.9955 113.616 57.1392 116.429 57.1392C119.242 57.1392 121.49 54.0111 121.49 50.148C121.49 46.2848 119.227 43.1724 116.429 43.1724C113.632 43.1724 111.353 46.3005 111.353 50.148Z" fill="#B4B4B4"/>
<path d="M110.3 60.9127C110.3 60.9127 108.728 50.8716 109.467 48.9322C110.504 46.3047 116.429 46.3047 116.429 46.3047V53.0456C117.445 54.5451 118.126 56.2436 118.426 58.0267C118.727 59.8099 118.641 61.6365 118.174 63.3838C116.744 69.765 110.3 60.9127 110.3 60.9127Z" fill="#DBDBDB"/>
<path d="M122.758 46.8639C123.317 46.1075 124.05 45.496 124.896 45.0809C127.756 43.6889 136.478 41.1865 138.553 43.8453C140.627 46.5041 135.74 47.9118 135.74 47.9118C135.74 47.9118 139.857 47.4426 139.213 50.3516C139.008 51.0708 138.605 51.7186 138.05 52.2216C137.494 52.7247 136.808 53.063 136.07 53.1982C136.07 53.1982 140.407 53.1982 138.333 56.3262C136.258 59.4543 127.064 61.3937 123.858 60.815C120.652 60.2363 123.591 56.3888 123.591 56.3888C123.591 56.3888 120.228 55.294 120.448 53.4015C120.668 51.509 123.591 51.0242 123.591 51.0242C123.235 50.8299 122.926 50.5603 122.685 50.2343C122.445 49.9083 122.279 49.5339 122.2 49.1373C122.12 48.7408 122.129 48.3318 122.226 47.939C122.322 47.5462 122.504 47.1792 122.758 46.8639Z" fill="#DBDBDB"/>
<path d="M124.713 51.4657C124.627 51.4623 124.544 51.4316 124.476 51.3783C124.408 51.3249 124.359 51.2514 124.336 51.1686C124.322 51.1193 124.317 51.0676 124.323 51.0166C124.328 50.9656 124.344 50.9161 124.369 50.8711C124.394 50.8261 124.427 50.7863 124.467 50.7542C124.507 50.722 124.554 50.6981 124.603 50.6837L135.683 47.5557C135.783 47.5266 135.891 47.5383 135.982 47.5882C136.073 47.6381 136.141 47.722 136.17 47.8216C136.185 47.8719 136.188 47.9245 136.182 47.9764C136.175 48.0282 136.158 48.0782 136.132 48.1235C136.105 48.1687 136.07 48.2081 136.028 48.2396C135.986 48.271 135.938 48.2937 135.887 48.3064L124.808 51.4345L124.713 51.4657Z" fill="#2E2A32"/>
<path d="M124.897 56.61C124.802 56.61 124.711 56.576 124.639 56.5144C124.568 56.4527 124.521 56.3674 124.508 56.2743C124.494 56.1811 124.515 56.0862 124.567 56.0071C124.618 55.928 124.696 55.87 124.787 55.8436L135.945 52.8876C135.997 52.8679 136.052 52.8591 136.107 52.8618C136.162 52.8646 136.215 52.8788 136.264 52.9035C136.314 52.9283 136.357 52.963 136.392 53.0055C136.426 53.048 136.452 53.0973 136.466 53.1501C136.481 53.203 136.484 53.2583 136.475 53.3124C136.467 53.3665 136.447 53.4183 136.417 53.4643C136.387 53.5103 136.348 53.5496 136.302 53.5796C136.256 53.6096 136.204 53.6296 136.15 53.6383L124.991 56.5943L124.897 56.61Z" fill="#2E2A32"/>
<path d="M118.17 63.8509H118.044C117.946 63.8156 117.866 63.743 117.822 63.6492C117.778 63.5554 117.773 63.4479 117.809 63.3504C119.553 58.5645 116.127 53.4188 116.095 53.3719C116.066 53.329 116.046 53.2806 116.035 53.2296C116.025 53.1787 116.025 53.1262 116.035 53.0752C116.045 53.0243 116.066 52.9758 116.095 52.9328C116.124 52.8897 116.162 52.8529 116.205 52.8245C116.247 52.7956 116.295 52.7755 116.345 52.7654C116.395 52.7552 116.446 52.7553 116.496 52.7655C116.546 52.7758 116.593 52.796 116.635 52.8249C116.677 52.8539 116.713 52.891 116.74 52.934C116.897 53.153 120.417 58.455 118.547 63.6163C118.512 63.6863 118.459 63.7453 118.392 63.7867C118.325 63.8281 118.249 63.8503 118.17 63.8509Z" fill="#2E2A32"/>
<path d="M75.3437 63.9577C73.2959 63.9146 71.2579 63.6631 69.2615 63.207C63.4151 61.9401 61.8906 58.2959 61.8278 58.1395C61.7844 58.0397 61.7815 57.927 61.8195 57.825C61.8576 57.723 61.9337 57.6396 62.0321 57.5921C62.0805 57.5718 62.1325 57.5614 62.185 57.5615C62.2375 57.5616 62.2895 57.5722 62.3379 57.5926C62.3862 57.613 62.43 57.6428 62.4665 57.6804C62.5031 57.7179 62.5317 57.7623 62.5507 57.8111C62.5507 57.8111 63.9966 61.2363 69.4187 62.4093C74.8408 63.5823 77.2768 62.9724 77.2768 62.9724C77.3264 62.958 77.3782 62.9534 77.4295 62.959C77.4808 62.9646 77.5305 62.9802 77.5758 63.0049C77.621 63.0296 77.6609 63.0629 77.6932 63.1029C77.7255 63.143 77.7496 63.1889 77.764 63.2382C77.7891 63.3377 77.7755 63.4429 77.726 63.5328C77.6765 63.6227 77.5946 63.6907 77.4968 63.7231C76.7913 63.8875 76.0683 63.9663 75.3437 63.9577Z" fill="#B4B4B4"/>
<path d="M74.0062 41.1262C73.9006 41.1221 73.8006 41.0775 73.7273 41.0017C73.6541 40.9258 73.6132 40.8247 73.6133 40.7195V38.3891C73.6188 38.2907 73.6576 38.197 73.7233 38.1232L74.8706 36.9971C74.9462 36.9407 75.0398 36.9133 75.1342 36.9199C75.2285 36.9266 75.3173 36.9669 75.3842 37.0335C75.451 37.1 75.4915 37.1884 75.4982 37.2822C75.5049 37.3761 75.4774 37.4693 75.4206 37.5446L74.3991 38.5768V40.7352C74.3991 40.8389 74.3577 40.9383 74.284 41.0117C74.2103 41.085 74.1104 41.1262 74.0062 41.1262Z" fill="#2E2A32"/>
<path d="M80.8968 41.6559C80.7926 41.6559 80.6927 41.6147 80.619 41.5414C80.5453 41.468 80.5039 41.3686 80.5039 41.2649V38.9345C80.5048 38.8426 80.5382 38.7541 80.5982 38.6842L81.5883 37.5425C81.625 37.5047 81.6689 37.4746 81.7175 37.454C81.7661 37.4334 81.8184 37.4229 81.8712 37.4229C81.924 37.4229 81.9763 37.4334 82.0249 37.454C82.0735 37.4746 82.1175 37.5047 82.1541 37.5425C82.2261 37.6156 82.2664 37.7139 82.2664 37.8162C82.2664 37.9186 82.2261 38.0168 82.1541 38.0899L81.2583 39.1378V41.3274C81.2443 41.4148 81.2009 41.4949 81.1352 41.5545C81.0696 41.6142 80.9855 41.6499 80.8968 41.6559Z" fill="#2E2A32"/>
<path d="M65.6199 41.4386C67.8604 40.5514 69.8391 39.1149 71.3721 37.2626C72.4638 35.6678 73.0745 33.7956 73.1323 31.8667C74.6872 33.089 76.6205 33.7358 78.6015 33.6967C79.348 33.6874 80.0847 33.5275 80.7672 33.2266C81.4497 32.9257 82.0638 32.4901 82.5721 31.9462C83.0805 31.4022 83.4727 30.7612 83.7249 30.0621C83.9771 29.3629 84.0841 28.62 84.0394 27.8785C83.8979 26.5647 81.4933 26.7368 81.4933 26.7368C80.8149 25.6889 79.8849 24.8257 78.7874 24.225C77.6899 23.6243 76.4594 23.305 75.2068 23.2959C70.9477 23.2959 69.5647 25.595 69.5647 25.595C67.4792 25.3371 65.3632 25.679 63.4668 26.5803C62.5843 27.1779 61.8374 27.9529 61.2744 28.8553C60.7113 29.7578 60.3446 30.7677 60.1978 31.8198C59.5958 32.0468 59.0581 32.4159 58.631 32.8954C58.204 33.3749 57.9003 33.9504 57.7461 34.5725C57.7576 36.6476 58.1463 38.7035 58.8934 40.6409C58.8934 40.6409 62.3038 36.856 65.6199 41.4386Z" fill="#2E2A32"/>
<path d="M90.4009 108.909C90.2967 108.909 90.1968 108.868 90.1231 108.795C90.0494 108.721 90.008 108.622 90.008 108.518V97.9922C89.9991 97.951 89.9991 97.9083 90.008 97.8671C91.0969 94.2708 91.7976 90.5692 92.0982 86.8251C92.6483 80.4126 87.9334 72.8427 87.8863 72.7489C87.8499 72.663 87.8456 72.567 87.8741 72.4782C87.9025 72.3894 87.9619 72.3137 88.0416 72.2646C88.1212 72.2155 88.2158 72.1964 88.3084 72.2106C88.4009 72.2249 88.4853 72.2715 88.5464 72.3422C88.7507 72.655 93.4498 80.1624 92.8683 86.872C92.5628 90.6577 91.8569 94.4008 90.7624 98.0391V108.502C90.7668 108.604 90.7315 108.703 90.6641 108.778C90.5967 108.854 90.5023 108.901 90.4009 108.909Z" fill="#B4B4B4"/>
<path d="M62.3127 101.091C62.2112 101.091 62.1135 101.052 62.0403 100.982C61.9671 100.912 61.9239 100.816 61.9198 100.715C61.6683 97.3996 61.4483 91.7379 62.6585 91.1592C62.8064 91.0946 62.971 91.0781 63.1289 91.1117C63.2869 91.1454 63.4302 91.2277 63.5386 91.3469C65.4088 93.0516 62.9571 100.043 62.6742 100.825C62.6467 100.899 62.5977 100.964 62.5335 101.012C62.4692 101.059 62.3925 101.086 62.3127 101.091ZM62.9256 91.863C62.5485 92.2071 62.4542 95.2882 62.5799 98.557C63.35 95.8825 63.8843 92.7232 63.0042 91.9255L62.9256 91.863Z" fill="#B4B4B4"/>
<path d="M126 119.6L131.555 122.025L70.5942 260.293C70.3178 260.919 69.8026 261.411 69.1619 261.66C68.5212 261.909 67.8074 261.894 67.1776 261.619L66.3861 261.273C65.7563 260.998 65.262 260.486 65.0121 259.848C64.7621 259.21 64.777 258.5 65.0533 257.873L126.014 119.606L126 119.6Z" fill="black"/>
<path d="M104.035 27.9228C105.692 27.0211 108.443 26.5867 109.139 28.833C109.54 30.1286 109.182 32.1246 107.346 31.5884C105.299 30.9901 104.92 28.2687 105.342 26.5015C105.653 25.2024 108.056 22.7482 109.363 24.4318C112.452 28.4104 101.977 32.6744 101.135 28.5213C99.9664 22.7578 114.099 17.6309 115.835 23.6837C116.934 27.5132 113.183 30.7085 110.247 32.324C108.167 33.4682 101.551 36.4093 99.6291 33.5084C98.2644 31.4492 100.314 27.5457 101.944 26.2396C104.229 24.4089 106.916 25.4288 107.309 28.2844C107.683 30.9996 105.855 33.1984 103.264 33.8326C100.105 34.6056 97.9932 32.6625 97.7495 29.5436C97.5419 26.8869 98.2641 22.7999 100.177 20.7663C101.478 19.3831 103.155 21.2688 103.438 22.5367C104.446 27.0612 96.0957 29.9284 96.6168 26.0277C97.4998 19.4175 107.518 14.2051 110.807 21.851C112.199 25.088 112.715 28.8473 109.288 30.8403C106.512 32.4551 102.237 34.0559 98.9943 33.1219C96.6934 32.4593 97.0278 30.2759 98.6084 28.9701C100.895 27.0809 104.516 28.0154 106.525 29.8179C108.09 31.2222 110.07 34.7911 108.268 36.7501C106.659 38.4989 103.742 38.8242 101.695 37.7724C99.6712 36.7324 98.4794 34.6339 99.6042 32.4611C100.313 31.0919 101.713 30.2684 103.239 30.7779C104.223 31.1066 105.363 32.5719 104.583 33.5832C103.19 35.391 100.179 35.6616 98.1105 35.7526C96.7635 35.8119 94.1063 35.2087 92.8826 35.8773C92.1309 36.288 91.4206 37.1921 90.8164 37.7974" stroke="#7A37BE" stroke-width="1.31515" stroke-linecap="round"/>
</g>
<defs>
<clipPath id="clip0_2073_31737">
<rect width="224" height="262" fill="white" transform="translate(0 0.731445)"/>
</clipPath>
</defs>
</svg>
