<svg width="284" height="107" viewBox="0 0 284 107" fill="none" xmlns="http://www.w3.org/2000/svg">
<path d="M145.142 28.8066H139.06L139.587 46.4902H144.614L145.142 28.8066ZM138.919 51.4121C138.884 53.1875 140.343 54.6113 142.083 54.6113C143.771 54.6113 145.265 53.1875 145.282 51.4121C145.265 49.6895 143.771 48.2832 142.083 48.2832C140.343 48.2832 138.884 49.6895 138.919 51.4121Z" fill="black"/>
<path d="M139.724 11.6743C140.735 9.92192 143.265 9.92193 144.276 11.6743L171.767 59.2886C172.778 61.041 171.514 63.2314 169.49 63.2314H114.51C112.486 63.2314 111.222 61.041 112.233 59.2886L139.724 11.6743Z" stroke="black" stroke-width="7" stroke-linejoin="round"/>
<path d="M6.86816 92.8486V92.6553H10.2607V91.3193H1.73535V92.6553H5.18066V92.8662C5.17188 94.8525 3.67773 96.6895 1.20801 97.4365L2.0166 98.7373C3.9502 98.1572 5.36523 96.9004 6.05957 95.2744C6.77148 96.707 8.125 97.832 9.94434 98.3506L10.7354 97.0498C8.31836 96.3643 6.85059 94.6592 6.86816 92.8486ZM3.58105 100.565H12.1064V101.972H3.61621V106.067H14.3037V104.767H5.25098V103.185H13.7588V99.2646H3.58105V100.565ZM12.0889 98.5791H13.7588V95.1689H16.0439V93.7979H13.7588V90.4756H12.0889V98.5791ZM29.4736 91.126H18.7686V96.4521H23.3037V98.1748H16.9404V99.5283H31.3018V98.1748H24.9385V96.4521H29.4736V91.126ZM18.0127 104.819L18.6279 106.138C21.0977 105.751 23.1455 104.661 24.1123 103.044C25.0703 104.661 27.127 105.751 29.5967 106.138L30.2295 104.819C27.1621 104.406 24.9473 102.851 24.9561 100.882V100.425H23.2686V100.882C23.2598 102.851 21.0449 104.406 18.0127 104.819ZM20.4033 95.1162V92.4443H27.8213V95.1162H20.4033ZM41.6729 95.5205H35.6436V92.8311H41.5322V91.4775H33.9736V96.874H36.9443V98.9307C35.4062 98.9746 33.9121 98.9922 32.5674 99.001L32.7959 100.337C35.7578 100.346 39.4404 100.249 42.7979 99.792L42.6748 98.5615C41.3828 98.7021 39.9941 98.7988 38.5967 98.8691V96.874H41.6729V95.5205ZM35.1689 105.892H46.0498V104.538H36.8389V101.444H35.1689V105.892ZM43.8877 102.288H45.5576V90.4756H43.8877V102.288ZM65.5791 90.4932H63.9092V93.2881H60.4902C60.5957 92.7607 60.6572 92.1982 60.6572 91.6182H53.4502V92.9893H58.8467C58.5479 95.5293 56.3682 97.5332 52.6416 98.5967L53.3096 99.8975C56.7197 98.9219 59.084 97.1377 60.1035 94.6064H63.9092V96.5225H59.9365V97.8936H63.9092V99.8096H65.5791V90.4932ZM55.085 103.062C55.085 104.978 57.1592 106.155 60.3936 106.155C63.584 106.155 65.6758 104.978 65.6846 103.062C65.6758 101.154 63.584 99.9941 60.3936 99.9854C57.1592 99.9941 55.085 101.154 55.085 103.062ZM56.7373 103.062C56.7373 101.937 58.1436 101.295 60.3936 101.304C62.5996 101.295 64.0059 101.937 64.0146 103.062C64.0059 104.169 62.5996 104.811 60.3936 104.819C58.1436 104.811 56.7373 104.169 56.7373 103.062ZM82.4189 102.938H76.0029V100.179H81.0303V98.8076H71.415V96.5049H80.6611V91.583H69.7275V92.9541H79.0088V95.1689H69.7627V100.179H74.3506V102.938H68.0049V104.345H82.4189V102.938ZM96.6045 90.4756H94.9346V106.261H96.6045V90.4756ZM84.1064 97.1729C84.1064 100.574 85.8027 102.719 88.1846 102.71C90.5225 102.719 92.2451 100.574 92.2451 97.1729C92.2451 93.8066 90.5225 91.6621 88.1846 91.6533C85.8027 91.6621 84.1064 93.8066 84.1064 97.1729ZM85.7236 97.1729C85.7148 94.7031 86.7168 93.1562 88.1846 93.1475C89.626 93.1562 90.6279 94.7031 90.6279 97.1729C90.6279 99.6777 89.626 101.216 88.1846 101.216C86.7168 101.216 85.7148 99.6777 85.7236 97.1729ZM112.231 90.4756H110.579V96.7158H107.046V98.0869H110.579V106.226H112.231V90.4756ZM99.083 101.989L99.9619 103.308C105.306 100.662 107.081 96.7246 107.099 92.1631H99.7861V93.499H105.402C105.112 97.1113 103.258 99.9502 99.083 101.989ZM129.388 96.6631H126.944V90.4756H125.274V106.208H126.944V98.0342H129.388V96.6631ZM115.272 102.253H116.573C118.938 102.262 121.416 102.104 124.114 101.567L123.921 100.161C121.416 100.671 119.122 100.855 116.925 100.864V92.0049H115.272V102.253ZM147.669 90.4756H145.999V106.261H147.669V90.4756ZM135.505 102.481H143.063V91.7939H141.411V95.8369H137.175V91.7939H135.505V102.481ZM137.175 101.11V97.1553H141.411V101.11H137.175ZM163.313 90.4756H161.644V94.4834H158.708V95.8545H161.644V99.8447H163.313V90.4756ZM150.183 98.4209L151.062 99.7568C152.942 99.0625 154.322 97.6475 155.008 95.8896C155.693 97.4453 156.994 98.7109 158.761 99.3174L159.622 97.999C157.24 97.1904 155.816 95.248 155.825 93.2529V92.9189H159.2V91.5654H150.71V92.9189H154.12V93.2705C154.129 95.4414 152.626 97.5684 150.183 98.4209ZM152.714 103.255C152.705 105.127 154.727 106.217 158.04 106.226C161.336 106.217 163.357 105.127 163.366 103.255C163.357 101.383 161.336 100.293 158.04 100.284C154.727 100.293 152.705 101.383 152.714 103.255ZM154.366 103.255C154.357 102.183 155.729 101.576 158.04 101.585C160.334 101.576 161.705 102.183 161.714 103.255C161.705 104.318 160.334 104.925 158.04 104.907C155.729 104.925 154.357 104.318 154.366 103.255ZM171.171 92.9893V91.3018H169.519V92.8486C169.501 95.2041 168.077 97.3047 165.616 98.1748L166.513 99.5107C168.35 98.834 169.686 97.4453 170.371 95.6787C171.057 97.2344 172.349 98.4648 174.071 99.0713L174.968 97.7529C172.621 96.9795 171.162 95.0547 171.171 92.9893ZM167.743 103.272C167.743 105.136 169.756 106.199 173.034 106.19C176.269 106.199 178.255 105.136 178.255 103.272C178.255 101.427 176.269 100.346 173.034 100.354C169.756 100.346 167.743 101.427 167.743 103.272ZM169.413 103.272C169.404 102.271 170.758 101.673 173.034 101.673C175.293 101.673 176.629 102.271 176.62 103.272C176.629 104.31 175.293 104.872 173.034 104.89C170.758 104.872 169.404 104.31 169.413 103.272ZM176.444 99.9854H178.114V95.8369H180.399V94.4307H178.114V90.4756H176.444V99.9854ZM186.938 93.2705V92.8486H190.313V91.4951H181.823V92.8486H185.233V93.2881C185.242 95.4238 183.73 97.5244 181.313 98.3506L182.175 99.6689C184.047 99.0098 185.427 97.6211 186.112 95.8896C186.798 97.4453 188.107 98.7109 189.874 99.3174L190.735 98.0166C188.354 97.1992 186.93 95.2568 186.938 93.2705ZM183.757 102.042H192.757V106.226H194.427V100.688H183.757V102.042ZM189.839 95.8545H192.757V99.8975H194.427V90.4756H192.757V94.4834H189.839V95.8545ZM214.36 90.4756H212.708V94.2021H209.755V95.5732H212.708V99.0537H214.36V90.4756ZM201.265 97.999L202.126 99.3174C203.998 98.6582 205.378 97.2695 206.063 95.5381C206.749 97.085 208.05 98.333 209.825 98.9658L210.687 97.665C208.305 96.8652 206.881 94.8877 206.89 92.9365V92.708H210.265V91.3545H201.774V92.708H205.185V92.9189C205.193 95.0898 203.682 97.1553 201.265 97.999ZM204.112 106.032H214.36V99.7568H212.708V101.567H205.765V99.7568H204.112V106.032ZM205.765 104.679V102.868H212.708V104.679H205.765ZM229.39 91.4072H218.614V92.7607H227.737C227.737 94.0879 227.729 95.582 227.315 97.6299H216.804V99.001H231.218V97.6299H228.994C229.398 95.5469 229.398 93.9912 229.39 92.6553V91.4072ZM218.685 105.892H229.864V104.521H220.337V100.636H218.685V105.892ZM245.421 90.4756H243.751V98.9307H245.421V90.4756ZM232.677 94.8525C232.686 97.0059 234.461 98.5088 236.878 98.4912C239.286 98.5088 241.062 97.0059 241.062 94.8525C241.062 92.6904 239.286 91.1875 236.878 91.1963C234.461 91.1875 232.686 92.6904 232.677 94.8525ZM234.312 94.8525C234.303 93.5078 235.384 92.5938 236.878 92.6025C238.354 92.5938 239.427 93.5078 239.427 94.8525C239.427 96.2148 238.354 97.1201 236.878 97.1201C235.384 97.1201 234.303 96.2148 234.312 94.8525ZM235.12 106.032H245.421V99.6865H243.769V101.462H236.755V99.6865H235.12V106.032ZM236.755 104.661V102.78H243.769V104.661H236.755ZM260.995 90.4756H259.325V106.226H260.995V90.4756ZM248.884 102.218H250.202C252.689 102.227 255.221 102.033 258.007 101.462L257.778 100.056C255.256 100.565 252.839 100.768 250.536 100.776V92.0049H248.884V102.218ZM275.743 90.4756H274.073V106.261H275.743V97.9463H278.274V96.5752H275.743V90.4756ZM264.142 102.341H265.407C268.334 102.35 270.426 102.271 272.896 101.831L272.685 100.425C270.435 100.829 268.457 100.943 265.812 100.952V93.3408H271.507V91.9873H264.142V102.341ZM280.823 104.854C281.5 104.846 282.062 104.292 282.071 103.606C282.062 102.921 281.5 102.358 280.823 102.358C280.138 102.358 279.566 102.921 279.575 103.606C279.566 104.292 280.138 104.846 280.823 104.854Z" fill="black"/>
</svg>
