<svg width="14" height="14" viewBox="0 0 14 14" fill="none" xmlns="http://www.w3.org/2000/svg">
<path d="M7.65398 1.20222L4.42232 4.43388C4.20648 4.64972 4.08398 4.94722 4.08398 5.25638V11.0839C4.08398 11.7256 4.60898 12.2506 5.25065 12.2506H10.5007C10.9673 12.2506 11.3873 11.9706 11.574 11.5447L13.4757 7.10555C13.9657 5.95055 13.1198 4.66722 11.8657 4.66722H8.56982L9.12398 1.99555C9.18232 1.70388 9.09482 1.40638 8.88482 1.19638C8.54065 0.858052 7.99232 0.858052 7.65398 1.20222ZM1.75065 12.2506C2.39232 12.2506 2.91732 11.7256 2.91732 11.0839V6.41722C2.91732 5.77555 2.39232 5.25055 1.75065 5.25055C1.10898 5.25055 0.583984 5.77555 0.583984 6.41722V11.0839C0.583984 11.7256 1.10898 12.2506 1.75065 12.2506Z" fill="white"/>
</svg>
