<svg width="14" height="14" viewBox="0 0 14 14" fill="none" xmlns="http://www.w3.org/2000/svg">
<path d="M10.5875 1.11511C10.5875 2.30761 9.6125 3.28261 8.42 3.28261H4.895C3.7025 3.28261 2.7275 2.30761 2.7275 1.11511C2.7275 0.695107 2.2775 0.432607 1.9025 0.627607C0.845 1.19011 0.125 2.30761 0.125 3.59011V10.6476C0.125 12.4926 1.6325 14.0001 3.4775 14.0001H9.8375C11.6825 14.0001 13.19 12.4926 13.19 10.6476V3.59011C13.19 2.30761 12.47 1.19011 11.4125 0.627607C11.0375 0.432607 10.5875 0.695107 10.5875 1.11511ZM9.1625 7.04761L6.1625 10.0476C6.05 10.1601 5.9075 10.2126 5.765 10.2126C5.6225 10.2126 5.48 10.1601 5.3675 10.0476L4.2425 8.92261C4.025 8.70511 4.025 8.34511 4.2425 8.12761C4.46 7.91011 4.82 7.91011 5.0375 8.12761L5.765 8.85511L8.3675 6.25261C8.585 6.03511 8.945 6.03511 9.1625 6.25261C9.38 6.47011 9.38 6.83011 9.1625 7.04761Z" fill="#2E2A32"/>
</svg>
