<svg width="31" height="30" viewBox="0 0 31 30" fill="none" xmlns="http://www.w3.org/2000/svg">
<path d="M30.485 11.0156C30.485 9.93563 29.93 8.99063 29.075 8.46563L17.015 1.40062C16.085 0.845625 14.915 0.845625 13.985 1.40062L1.925 8.46563C1.07 8.99063 0.5 9.93563 0.5 11.0156V26.0156C0.5 27.6656 1.85 29.0156 3.5 29.0156H27.5C29.15 29.0156 30.5 27.6656 30.5 26.0156L30.485 11.0156ZM13.91 17.5256L3.11 10.7756L13.985 4.40062C14.915 3.84562 16.085 3.84562 17.015 4.40062L27.89 10.7756L17.09 17.5256C16.115 18.1256 14.885 18.1256 13.91 17.5256Z" fill="#948A9E"/>
</svg>
