<svg width="140" height="94" viewBox="0 0 140 94" fill="none" xmlns="http://www.w3.org/2000/svg">
<path d="M139.412 4.03021C138.631 2.50539 137.565 2.08352 136.804 1.99712C135.977 1.9419 135.158 2.19537 134.506 2.7087C133.068 2.16574 131.542 1.90016 130.006 1.92596C128.656 1.87513 127.317 1.92596 126.018 1.99203C125.297 2.02253 124.587 2.05811 123.882 2.06828C120.772 2.12927 118.194 2.06828 117.124 2.02761C86.4693 0.3249 57.5195 -1.28633 25.0842 1.47868C23.7296 1.59558 22.0401 1.74298 20.5637 2.55113C18.3018 2.60882 16.039 2.48987 13.7956 2.19534C12.1528 1.95846 10.4925 1.86492 8.83359 1.91579C6.61644 2.02761 4.17608 2.39357 2.92798 4.24368C2.13143 5.42288 2.06548 6.88162 2.00967 8.05065C1.26386 23.8884 0.487582 40.2599 1.6748 56.3722C1.7695 57.6395 1.87096 58.9051 1.9792 60.169C2.28869 63.9048 2.60833 67.7676 2.59311 71.5644C2.59311 73.3942 2.5018 75.2647 2.42063 77.069C2.20661 80.325 2.19811 83.5912 2.39523 86.8482C2.49163 87.9562 2.94319 88.5814 3.73974 88.6881H3.95282C4.33596 88.6792 4.70484 88.5407 4.99956 88.2953C5.29427 88.0499 5.49754 87.7119 5.57637 87.3361C8.62051 73.6484 8.0269 59.4116 7.47388 45.6578C7.03755 34.8824 6.59109 23.736 7.86963 12.9301C8.00155 11.8017 8.16388 10.8157 8.76763 10.0939C9.02685 9.78098 9.38475 9.56586 9.78235 9.48398C10.5028 9.35183 11.3044 10.2921 11.69 10.9631C12.8874 13.1181 13.4201 16.4727 13.2121 20.6558V20.727C13.0193 24.9253 12.9077 27.4616 12.0604 31.5888C10.102 41.124 9.41705 54.029 9.43227 62.9238C9.42028 64.585 9.78459 66.2272 10.4977 67.727C14.0492 74.9546 22.5373 71.8287 26.0279 70.1464L26.1091 70.1057C26.1109 70.2795 26.1435 70.4516 26.2055 70.614C26.3228 70.9253 26.5146 71.2031 26.764 71.4229C27.0135 71.6427 27.313 71.7977 27.6362 71.8745C27.3572 74.6395 25.6068 77.2469 23.6586 79.8798C21.8281 82.5052 19.6618 84.8787 17.2151 86.9397C9.69611 93.0034 3.00916 91.9411 1.08628 90.0249C1.0286 89.9606 0.95842 89.9088 0.88007 89.8727C0.80172 89.8365 0.716843 89.8167 0.630603 89.8146C0.544363 89.8124 0.458567 89.8279 0.378504 89.8601C0.298441 89.8922 0.225785 89.9404 0.164958 90.0017C0.104132 90.063 0.0564108 90.1361 0.0247418 90.2165C-0.00692729 90.2969 -0.0218853 90.3829 -0.0192308 90.4693C-0.0165763 90.5556 0.00364898 90.6406 0.0401941 90.7189C0.0767392 90.7971 0.128849 90.8671 0.193324 90.9246C2.73011 93.4659 10.1477 94.2741 18.0117 87.9257C20.5428 85.809 22.7858 83.3688 24.6834 80.6676C26.657 77.989 28.5749 75.1376 28.8996 72.027H29.1583C47.4231 71.5746 66.2664 71.107 84.7544 70.5886L106.865 69.694C108.235 69.6381 109.793 69.572 111.02 70.2378C112.248 70.9037 112.953 72.088 113.496 73.0893C114.76 75.4144 115.515 77.982 115.713 80.6219C115.8 81.8417 115.825 83.6156 115.003 84.9422C113.988 86.5534 111.959 87.2751 110.28 87.7275C106.574 88.7269 102.73 89.1132 98.8996 88.8711C100.374 88.6263 101.804 88.1674 103.146 87.509C103.44 87.3664 103.684 87.1371 103.845 86.8518C104.005 86.5666 104.075 86.239 104.044 85.913C103.948 85.0997 103.253 84.6118 102.187 84.6067H102.136C101.043 84.6119 99.9668 84.8845 99.0022 85.4009C98.0375 85.9173 97.2133 86.6619 96.6012 87.5699C96.5259 87.6804 96.4581 87.7959 96.3983 87.9156C95.3836 88.002 94.3689 88.0477 93.3288 88.0935L45.1197 90.2079C43.8456 90.2664 42.5689 90.2341 41.2993 90.1113C39.7622 90.0128 38.2617 89.5993 36.8904 88.8965C37.4899 88.6314 38.0351 88.2575 38.4988 87.7936C38.9173 87.3651 39.2306 86.8449 39.4138 86.2741C39.5969 85.7033 39.645 85.0977 39.5541 84.5051C39.4812 84.0634 39.3003 83.6466 39.0277 83.2918C38.755 82.9371 38.399 82.6555 37.9914 82.472C37.4274 82.2276 36.8028 82.1599 36.1997 82.2778C35.5966 82.3958 35.0432 82.6938 34.6124 83.1327C33.136 84.5966 33.3491 86.7821 34.4095 88.3273L33.9782 88.4086C31.8676 88.7949 29.6859 89.0033 27.5703 89.2015C24.4652 89.4963 21.2588 89.7962 18.1791 90.6704C17.8781 90.7496 17.6039 90.9083 17.3852 91.1301C17.1665 91.3519 17.0114 91.6285 16.9361 91.9309C16.8834 92.146 16.8812 92.3703 16.9296 92.5864C16.978 92.8025 17.0758 93.0043 17.2151 93.1762C17.5107 93.4596 17.8616 93.6786 18.2458 93.8195C18.63 93.9603 19.0392 94.0199 19.4475 93.9945H19.5591C25.5104 93.8319 31.6646 93.6641 37.824 93.7251C48.0218 93.6133 58.3871 93.2677 68.4074 92.9373C89.2547 92.241 110.807 91.5243 131.771 92.8814C134.019 93.1152 135.952 91.3566 136.774 89.6539C137.646 87.8292 137.717 85.7707 137.788 83.951C138.722 58.3697 139.473 32.4071 140.016 6.78505C140.045 5.83085 139.838 4.88423 139.412 4.03021V4.03021ZM133.806 6.86637C133.897 5.94915 134.211 5.06814 134.719 4.29959C134.844 4.38924 134.965 4.48596 135.079 4.58931C135.43 4.93131 135.69 5.35652 135.833 5.82561C135.977 6.2947 136 6.79251 135.901 7.27299C135.855 7.55151 135.732 7.81162 135.546 8.02431C135.361 8.237 135.12 8.39393 134.851 8.4776C134.727 8.51852 134.596 8.53333 134.465 8.52108C134.335 8.50884 134.209 8.46981 134.095 8.40644C133.872 8.25904 133.633 7.94899 133.806 6.86637V6.86637ZM25.48 69.018C22.3293 70.5428 14.6784 73.3891 11.6393 67.1831C11.0085 65.8583 10.6875 64.4068 10.7007 62.939C10.7007 54.1053 11.3653 41.3019 13.3034 31.8582C14.171 27.6344 14.2826 25.0625 14.4754 20.7981V20.727C14.6783 16.2491 14.105 12.7573 12.7808 10.3633C12.1466 9.21968 10.9138 7.98457 9.52362 8.24887C8.84541 8.38895 8.23513 8.75649 7.79352 9.29083C6.8955 10.3582 6.72808 11.7661 6.60632 12.7928C5.31256 23.7055 5.76408 34.8976 6.20041 45.7238C6.74835 59.4116 7.32167 73.567 4.33334 87.0922C4.31532 87.1917 4.26257 87.2817 4.18452 87.3459C4.10646 87.4101 4.00818 87.4445 3.90718 87.4429C3.85137 87.4429 3.70931 87.4429 3.65858 86.7567C3.46405 83.5556 3.47252 80.3453 3.68394 77.1453C3.76512 75.3257 3.85135 73.44 3.85642 71.5848C3.85642 67.7321 3.55202 63.8438 3.23746 60.0775C3.12923 58.8169 3.02943 57.5547 2.93811 56.2908C1.76104 40.2599 2.52717 23.924 3.27298 8.12689C3.31864 7.05952 3.37953 5.85491 3.97314 4.97051C4.90667 3.58293 6.89044 3.2983 8.88942 3.19664C10.4807 3.15262 12.0727 3.24444 13.6484 3.47111C15.4224 3.69897 17.2077 3.82793 18.996 3.8574L18.9554 3.90314C18.5391 4.39955 18.2662 5.00045 18.1661 5.64094C18.0659 6.28143 18.1424 6.93716 18.3871 7.53729C19.3054 9.62629 21.7154 9.66187 23.0091 9.67712C45.6931 10.0075 68.6712 9.43315 91.3095 7.95916C97.0274 7.58304 100.538 7.63895 108.397 7.88292C109.919 8.0049 111.289 8.08623 112.537 8.16755C115.35 8.28804 118.153 8.56975 120.934 9.01128C123.329 9.41282 129.123 10.8461 131.244 15.5223C132.375 18.0128 132.218 20.9862 131.984 23.5784C131.589 27.8987 130.929 32.2902 130.285 36.5343C130.132 37.5508 129.985 38.5369 129.833 39.5483C127.296 38.486 120.98 38.7097 118.737 40.3565C118.26 40.7072 117.799 41.0681 117.352 41.4493C117.489 41.0681 117.621 40.6919 117.748 40.3107L117.773 40.2294C118.732 37.3373 118.788 36.331 118.133 35.9243C117.479 35.5177 116.733 36.2903 116.424 36.6156C116.405 36.6316 116.39 36.6505 116.378 36.6715C112.803 41.481 110.4 47.0613 109.361 52.9667C108.915 53.5106 108.458 54.0392 107.991 54.5576C107.031 55.6137 105.852 56.4464 104.536 56.9973C102.811 57.7089 101.67 57.592 100.599 56.5907C100.162 56.165 99.8209 55.6513 99.597 55.0835C99.3731 54.5158 99.272 53.9069 99.3004 53.2971C99.3202 53.0006 99.3558 52.7054 99.4069 52.4127C101.479 50.0712 103.138 47.3933 104.313 44.4938C104.918 43.1235 105.117 41.6081 104.886 40.1278C104.752 39.331 104.395 38.5889 103.856 37.9878C103.317 37.3867 102.619 36.9514 101.842 36.7325C101.407 36.6403 100.96 36.618 100.518 36.6664C99.1786 36.0819 97.4739 36.1886 95.551 37.0273C93.481 37.9422 91.7002 39.65 90.2542 42.11C89.4836 43.3759 88.8118 44.6997 88.2451 46.0695C82.1568 52.1687 77.0375 55.5183 68.793 55.6606H68.7169C67.8437 55.7631 66.9591 55.6285 66.1558 55.2708C65.3524 54.9131 64.6598 54.3455 64.1507 53.6275C68.3922 51.7825 71.4262 48.804 72.6185 45.1647C73.3034 43.0757 72.9635 41.5153 71.6038 40.5293C70.9488 40.0589 70.1565 39.8193 69.3511 39.8482C67.1948 39.9143 65.6677 41.4035 64.7088 42.5217C62.3699 45.2461 61.2892 48.4278 61.7509 51.2437C61.8489 51.8492 62.0316 52.4378 62.2938 52.9921C61.0572 53.4355 59.7862 53.7755 58.4937 54.0087C54.1761 54.7813 51.6139 53.6885 50.8833 50.7659C50.6344 49.7234 50.6344 48.6368 50.8833 47.5943C51.0863 46.6929 51.301 45.7984 51.5277 44.9106C55.5865 39.2637 58.8742 33.078 61.827 27.2227C63.1563 24.5949 64.8052 21.3267 65.0893 17.8298C65.1019 17.6615 65.0478 17.495 64.9385 17.3665C64.8292 17.238 64.6737 17.1579 64.5059 17.1437C63.0447 17.0217 62.0807 18.4804 61.7204 19.0243C57.984 24.6462 54.935 30.6973 52.6388 37.0476C52.6213 36.5994 52.5636 36.1537 52.4663 35.7159C52.3858 35.3629 52.2614 35.0214 52.0959 34.6994C52.2684 34.0336 52.4358 33.3576 52.6033 32.6663C53.4759 28.9508 54.1253 24.2544 51.5226 20.9049C49.5845 18.4194 45.9924 17.1996 42.3902 17.7993C39.0315 18.3584 33.9579 20.9455 31.4566 22.9329C26.6165 26.7754 25.48 27.8733 21.9995 33.0678C19.2446 37.1645 16.0736 44.7886 15.7793 49.8713C15.4952 54.7813 17.9305 60.6874 23.136 62.4663C26.5302 63.6252 30.5941 62.8933 35.206 60.2859C38.8521 58.1956 42.1889 55.6055 45.1197 52.5906C40.4318 59.3201 33.6078 65.1195 25.48 69.018ZM130.863 41.2663C132.167 42.232 132.629 44.5446 132.75 45.368C133.31 49.0516 133.414 52.7902 133.06 56.4992C132.847 58.7661 132.365 61.582 130.594 63.3507C129.975 62.8831 129.635 61.8767 129.554 60.3011C129.25 53.9375 129.97 47.5485 130.863 41.2663ZM117.195 37.7084C117.088 38.1607 116.901 38.8367 116.571 39.833L116.545 39.9143C116.14 41.1443 115.668 42.3591 115.145 43.5535C113.979 44.802 112.941 46.1642 112.045 47.6197C113.251 44.0714 114.989 40.7276 117.2 37.7033L117.195 37.7084ZM91.827 44.0872C94.1811 41.5001 96.6215 38.8266 99.8787 38.0591L100.249 37.9828C100.737 38.2738 101.136 38.6942 101.401 39.1976C102.086 40.448 101.959 42.3387 101.025 44.8293C100.711 45.673 100.305 46.5066 99.9092 47.3198C99.1355 48.7428 98.5586 50.2647 98.1943 51.8434C96.4287 53.7444 94.3841 55.2387 92.2887 55.6504C91.5373 55.8111 90.7531 55.687 90.0878 55.3021C89.4224 54.9171 88.9231 54.2988 88.6865 53.5665C88.5677 53.1267 88.4996 52.6748 88.4835 52.2196C88.3246 50.3742 88.6046 48.5174 89.3004 46.8014L90.102 45.9831C90.6956 45.3579 91.2892 44.7073 91.8574 44.0821L91.827 44.0872ZM91.2131 42.8775L91.2892 42.7504C92.5931 40.5344 94.1761 38.9994 96.0025 38.176C96.3318 38.029 96.6709 37.905 97.0172 37.8049C94.8102 39.0299 92.9939 40.9512 91.2435 42.8724L91.2131 42.8775ZM102.481 38.5724L102.375 38.3945C103.004 38.8916 103.435 39.5987 103.588 40.387C103.771 41.6287 103.595 42.8971 103.08 44.0415C102.428 45.6687 101.607 47.2225 100.63 48.6769C100.756 48.4075 100.888 48.1381 101.025 47.8637C101.431 47.0301 101.852 46.166 102.187 45.2664C103.283 42.4099 103.385 40.1582 102.512 38.5674L102.481 38.5724ZM63.4759 52.5499C63.2527 52.0752 63.094 51.5726 63.0041 51.0556C62.6083 48.6108 63.5825 45.8052 65.6728 43.3705C66.9513 41.8813 68.1335 41.1697 69.3917 41.1341H69.4729C69.9725 41.1275 70.4613 41.2806 70.8681 41.5712C71.4211 41.9728 72.0807 42.7454 71.4161 44.7835C70.3151 48.1229 67.4739 50.8523 63.4759 52.5499ZM38.6154 54.3441C37.3775 54.0392 36.2309 53.4038 36.2461 50.7862C36.2816 45.7543 38.2755 42.3438 41.9386 37.8151C43.4302 35.965 46.0939 33.9116 48.4023 33.7489H48.5647C48.9873 33.752 49.4033 33.8549 49.7788 34.0492C50.1543 34.2435 50.4788 34.5237 50.726 34.8671C48.8082 42.0948 46.2055 47.9755 42.8011 52.7736C41.7205 54.334 39.2496 54.4966 38.6104 54.3441H38.6154ZM39.8787 55.6199C38.2103 56.9425 36.4409 58.1321 34.587 59.1778C30.3049 61.6023 26.5911 62.3037 23.552 61.2617C18.9452 59.6861 16.794 54.3797 17.0528 49.9476C17.3369 45.0631 20.3912 37.749 23.0599 33.754C26.4338 28.717 27.5449 27.6547 32.2532 23.9088C34.6124 22.0434 39.5388 19.5681 42.583 19.0649C43.1228 18.9743 43.6692 18.9284 44.2166 18.9277C46.7839 18.9277 49.1532 19.9442 50.5231 21.6978C52.8062 24.6254 52.172 28.9457 51.3704 32.3715C51.2841 32.7324 51.203 33.0882 51.1116 33.4389C50.3418 32.7843 49.3493 32.4529 48.3415 32.5138C45.2466 32.7019 42.2532 35.4364 40.9645 37.0273C37.7225 41.0376 35.0335 44.8394 34.9929 50.7862C34.9929 54.7406 37.4993 55.3607 38.3313 55.564C38.8394 55.6626 39.3598 55.6815 39.8737 55.6199H39.8787ZM51.3704 37.3221C51.3352 38.4761 51.1441 39.6199 50.8022 40.7224C50.2205 42.8199 49.4531 44.8611 48.5089 46.8217C47.8848 47.6146 47.2405 48.3974 46.5809 49.1547C48.5955 45.3942 50.1996 41.4271 51.3653 37.3221H51.3704ZM52.6286 41.0325C54.9802 33.4821 58.3971 26.3072 62.7758 19.7257C63.0243 19.3135 63.3418 18.9473 63.7144 18.6431C63.2628 21.5605 61.8524 24.356 60.6702 26.6433C58.2513 31.5828 55.5651 36.3863 52.6235 41.0325H52.6286ZM27.3876 70.2023C27.3735 70.1632 27.3708 70.121 27.3798 70.0805C27.3888 70.04 27.4091 70.0029 27.4384 69.9735C27.4384 69.9735 27.4739 69.943 27.4891 69.943C27.4891 69.943 27.5703 69.9837 27.6109 70.3649V70.5428C27.5054 70.4531 27.4279 70.3349 27.3876 70.2023V70.2023ZM102.147 85.8774H102.187C102.517 85.8774 102.781 85.9587 102.796 86.0604C102.793 86.1276 102.772 86.1927 102.734 86.2484C102.697 86.3041 102.644 86.3481 102.583 86.3755C101.171 87.064 99.6558 87.5172 98.0979 87.7174C98.6088 87.1465 99.2325 86.6881 99.9294 86.3714C100.626 86.0547 101.381 85.8865 102.147 85.8774V85.8774ZM35.48 84.0375C35.82 83.6907 36.2835 83.4933 36.7686 83.4885C36.9995 83.4871 37.228 83.5356 37.4384 83.6308C37.6603 83.7285 37.8539 83.8809 38.0011 84.0737C38.1484 84.2666 38.2445 84.4937 38.2806 84.7338C38.3362 85.1251 38.3011 85.524 38.1779 85.8995C38.0548 86.275 37.8468 86.6171 37.5703 86.899C37.049 87.4013 36.416 87.7724 35.7235 87.9816C34.7443 86.8939 34.3841 85.1302 35.48 84.0375ZM136.5 83.9104C136.439 85.6029 136.368 87.5242 135.607 89.11C134.973 90.4417 133.527 91.7937 131.857 91.6158C110.807 90.2587 89.2395 90.9754 68.3466 91.6717C58.3313 92.0021 47.9762 92.3477 37.8037 92.4595C31.6291 92.3985 25.4648 92.5663 19.4982 92.7289C19.0266 92.7777 18.5535 92.651 18.169 92.3731C18.169 92.3477 18.1233 92.3172 18.169 92.2207C18.1962 92.1418 18.2424 92.0709 18.3034 92.0142C18.3645 91.9574 18.4385 91.9166 18.519 91.8953C21.4871 91.0567 24.6378 90.7619 27.6819 90.4722C29.8229 90.2689 32.0401 90.0605 34.1963 89.664C34.6022 89.5929 35.003 89.5116 35.4039 89.4048C37.0934 90.7975 39.4627 91.1939 41.1624 91.3718C42.494 91.5058 43.8336 91.5415 45.1705 91.4786L93.41 89.3642C94.3689 89.3184 95.3633 89.2777 96.3729 89.1913C96.5657 89.5827 97.0122 89.9842 98.037 90.0757C102.265 90.4436 106.525 90.0686 110.625 88.9677C112.522 88.4594 114.861 87.6208 116.094 85.6283C117.109 83.9866 117.109 81.9383 116.992 80.5456C116.784 77.7241 115.978 74.9794 114.628 72.4946C113.993 71.3408 113.106 69.9126 111.639 69.1349C110.117 68.3064 108.286 68.3776 106.83 68.4386L84.6936 69.3331C66.2207 69.8414 47.3572 70.3192 29.1127 70.7715H28.9249C28.9249 70.5886 28.9249 70.4005 28.8843 70.2124C28.8619 69.7427 28.6646 69.2984 28.3313 68.9672C37.8239 63.8336 45.3684 56.1638 49.5744 47.4875C49.3196 48.6753 49.3352 49.9053 49.62 51.0861C50.2643 53.6275 52.3597 56.4027 58.6966 55.2692C60.1327 55.0193 61.5436 54.6417 62.9128 54.1408C63.5387 55.1106 64.4217 55.8866 65.4629 56.3822C66.5041 56.8777 67.6624 57.0731 68.8082 56.9465C76.6165 56.8042 81.8625 53.8155 87.413 48.6108C87.1688 49.8195 87.0936 51.0563 87.1898 52.2856C87.2122 52.8357 87.2973 53.3814 87.4434 53.9121C87.7663 54.9531 88.4653 55.836 89.4037 56.3878C90.3421 56.9396 91.4523 57.1207 92.517 56.8957C94.5008 56.5094 96.3729 55.3353 98.032 53.7952C98.0933 55.2146 98.7006 56.5552 99.7265 57.5361C101.589 59.2744 103.527 58.7966 105.008 58.1867C106.484 57.5718 107.809 56.6421 108.889 55.4623C108.889 55.5488 108.854 55.6352 108.834 55.7216C108.733 55.9926 108.69 56.2817 108.707 56.5704V56.6009C108.707 56.6009 108.707 56.6314 108.707 56.6466C108.741 56.9226 108.862 57.1806 109.052 57.3836C109.135 57.4755 109.244 57.5405 109.364 57.5703C109.484 57.6002 109.61 57.5936 109.727 57.5513C109.844 57.5098 109.946 57.4346 110.021 57.3352C110.096 57.2358 110.14 57.1165 110.148 56.9922C110.203 56.2095 110.28 55.4268 110.386 54.644C110.518 54.1358 110.665 53.6275 110.828 53.17C112.981 50.4385 114.792 47.453 116.221 44.2803C117.225 43.2266 118.32 42.2639 119.493 41.4035C121.411 39.9905 127.423 39.8075 129.478 40.7987C129.532 40.8258 129.59 40.843 129.65 40.8495C128.722 47.2792 127.971 53.841 128.296 60.3773C128.336 61.2567 128.468 63.9353 130.457 64.7383C130.565 64.7834 130.684 64.7972 130.8 64.7784C130.915 64.7595 131.023 64.7087 131.112 64.6316C133.486 62.568 134.08 59.2744 134.328 56.6365C134.689 52.824 134.581 48.9816 134.009 45.1952C133.608 42.5319 132.542 40.6614 131.066 39.9295C131.223 38.8622 131.386 37.7999 131.543 36.7427C132.187 32.4833 132.857 28.0715 133.253 23.7105C133.501 20.9608 133.664 17.7892 132.405 15.0191C130.736 11.3138 126.632 8.70124 121.152 7.75585C118.319 7.30999 115.463 7.02321 112.598 6.89687C111.355 6.82063 110.006 6.73422 108.463 6.61732H108.433C100.523 6.37335 96.9868 6.31744 91.1826 6.69356C68.585 8.16755 45.6373 8.72665 22.9889 8.41152C21.1573 8.38611 20.0005 8.1523 19.5084 7.02902C19.3562 6.64174 19.3126 6.22012 19.3823 5.80981C19.4521 5.3995 19.6325 5.01611 19.9041 4.70113C20.1795 4.35888 20.5085 4.06364 20.8782 3.8269C24.419 3.64978 27.9353 3.13926 31.3805 2.30208C61.2385 0.23341 88.3821 1.7379 117.007 3.31863C118.103 3.37962 120.716 3.4152 123.862 3.35929C124.577 3.35929 125.297 3.31354 126.028 3.28305C127.301 3.22206 128.615 3.16615 129.914 3.21189C131.137 3.20499 132.353 3.3762 133.527 3.72016C132.979 4.61584 132.633 5.62 132.512 6.66306C132.431 7.17134 132.187 8.69616 133.359 9.46365C133.627 9.62858 133.926 9.73432 134.238 9.77377C134.549 9.81322 134.865 9.78547 135.165 9.69237C135.652 9.54679 136.088 9.27025 136.428 8.8929C136.768 8.51555 136.998 8.0519 137.093 7.55254C137.242 6.85118 137.21 6.12325 136.998 5.43814C136.787 4.75303 136.404 4.13358 135.886 3.63884L135.683 3.46094C135.982 3.31367 136.315 3.24876 136.647 3.27288C137.281 3.33388 137.829 3.78116 138.24 4.59948C138.566 5.27089 138.72 6.01353 138.686 6.75964C138.184 32.3766 137.459 58.3341 136.505 83.9256L136.5 83.9104Z" fill="#948A9E"/>
</svg>
