<svg width="20" height="16" viewBox="0 0 20 16" fill="none" xmlns="http://www.w3.org/2000/svg">
<path d="M18 0H2C0.9 0 0 0.9 0 2V14C0 15.1 0.9 16 2 16H18C19.1 16 20 15.1 20 14V2C20 0.9 19.1 0 18 0ZM5.11 12.89C4.68 13.32 3.97 13.28 3.6 12.8C2.53 11.39 2 9.69 2 8C2 6.31 2.53 4.62 3.59 3.2C3.96 2.72 4.67 2.67 5.1 3.1C5.45 3.45 5.49 4 5.2 4.39C4.4 5.46 4 6.73 4 8C4 9.27 4.4 10.53 5.2 11.6C5.5 11.99 5.46 12.54 5.11 12.89ZM10 12C7.79 12 6 10.21 6 8C6 5.79 7.79 4 10 4C12.21 4 14 5.79 14 8C14 10.21 12.21 12 10 12ZM14.9 12.9C14.55 12.55 14.51 12 14.81 11.61C15.6 10.54 16 9.27 16 8C16 6.73 15.6 5.47 14.8 4.4C14.5 4.01 14.54 3.45 14.89 3.1C15.32 2.67 16.03 2.71 16.4 3.19C17.47 4.6 18 6.29 18 7.99C18 9.68 17.47 11.37 16.41 12.79C16.04 13.28 15.33 13.33 14.9 12.9ZM10 6C8.9 6 8 6.9 8 8C8 9.1 8.9 10 10 10C11.1 10 12 9.1 12 8C12 6.9 11.1 6 10 6Z" fill="#BB9ED8"/>
</svg>
