<svg width="40" height="40" viewBox="0 0 40 40" fill="none" xmlns="http://www.w3.org/2000/svg">
<path d="M29.3908 26.051C32.6139 26.051 35.2268 23.4329 35.2268 20.2032C35.2268 16.9736 32.6139 14.3555 29.3908 14.3555C26.1676 14.3555 23.5547 16.9736 23.5547 20.2032C23.5547 23.4329 26.1676 26.051 29.3908 26.051Z" fill="#61586A"/>
<path d="M29.3893 28.9766C23.5415 28.9766 18.7793 32.9063 18.7793 37.7482C18.7793 38.0757 19.0361 38.333 19.3629 38.333H39.4156C39.7424 38.333 39.9992 38.0757 39.9992 37.7482C39.9992 32.9063 35.237 28.9766 29.3893 28.9766Z" fill="#61586A"/>
<path d="M10.6095 26.051C13.8327 26.051 16.4456 23.4329 16.4456 20.2032C16.4456 16.9736 13.8327 14.3555 10.6095 14.3555C7.38633 14.3555 4.77344 16.9736 4.77344 20.2032C4.77344 23.4329 7.38633 26.051 10.6095 26.051Z" fill="#61586A"/>
<path d="M10.61 28.9766C4.76223 28.9766 0 32.9063 0 37.7482C0 38.0757 0.256787 38.333 0.583606 38.333H20.6363C20.9631 38.333 21.2199 38.0757 21.2199 37.7482C21.2199 32.9063 16.4577 28.9766 10.61 28.9766Z" fill="#61586A"/>
<path d="M22.1905 4.36426C21.276 4.36426 20.4575 4.80978 19.9471 5.49325C19.4368 4.80978 18.6183 4.36426 17.7038 4.36426C16.1526 4.36426 14.8945 5.62994 14.8945 7.19432C14.8945 7.79679 14.9905 8.35369 15.1573 8.87009C15.9556 11.4015 18.4162 12.9152 19.6339 13.3304C19.8057 13.3911 20.0886 13.3911 20.2604 13.3304C21.4781 12.9152 23.9387 11.4015 24.737 8.87009C24.9037 8.35369 24.9997 7.79679 24.9997 7.19432C24.9997 5.62994 23.7416 4.36426 22.1905 4.36426Z" fill="#61586A"/>
</svg>
