<svg width="40" height="40" viewBox="0 0 40 40" fill="none" xmlns="http://www.w3.org/2000/svg">
<path fill-rule="evenodd" clip-rule="evenodd" d="M11.0003 4H27.667C32.267 4 36.0003 7.71667 36.0003 12.3V23.9333C36.0003 28.5167 32.267 32.2333 27.667 32.2333H25.167C24.6503 32.2333 24.1503 32.4833 23.8337 32.9L21.3337 36.2167C20.2337 37.6833 18.4337 37.6833 17.3337 36.2167L14.8337 32.9C14.5503 32.5333 13.9503 32.2333 13.5003 32.2333H11.0003C6.40033 32.2333 2.66699 28.5167 2.66699 23.9333V22.2667V12.3C2.66699 7.71667 6.40033 4 11.0003 4ZM24.2748 19.0588H20.3925V22.9412C20.3925 23.52 19.9125 24 19.3337 24C18.7548 24 18.2748 23.52 18.2748 22.9412V19.0588H14.3925C13.8137 19.0588 13.3337 18.5788 13.3337 18C13.3337 17.4212 13.8137 16.9412 14.3925 16.9412H18.2748V13.0588C18.2748 12.48 18.7548 12 19.3337 12C19.9125 12 20.3925 12.48 20.3925 13.0588V16.9412H24.2748C24.8537 16.9412 25.3337 17.4212 25.3337 18C25.3337 18.5788 24.8537 19.0588 24.2748 19.0588Z" fill="#61586A"/>
</svg>
