<svg width="40" height="40" viewBox="0 0 40 40" fill="none" xmlns="http://www.w3.org/2000/svg">
<path d="M31.333 16.5166C29.4497 16.5166 27.7663 17.4333 26.7163 18.8333C25.6663 17.4333 23.983 16.5166 22.0997 16.5166C18.9163 16.5166 16.333 19.1166 16.333 22.3166C16.333 23.5499 16.533 24.6999 16.8663 25.7499C18.4997 30.9333 23.5663 34.0499 26.0663 34.8999C26.4163 35.0166 26.9997 35.0166 27.3497 34.8999C29.8497 34.0499 34.9163 30.9499 36.5497 25.7499C36.8997 24.6833 37.083 23.5499 37.083 22.3166C37.0997 19.1166 34.5163 16.5166 31.333 16.5166Z" fill="#61586A"/>
<path d="M34.583 13.9003C34.583 14.2837 34.1997 14.5337 33.833 14.4337C31.583 13.8503 29.1163 14.3337 27.2497 15.667C26.883 15.9337 26.383 15.9337 26.033 15.667C24.7163 14.7003 23.1163 14.167 21.433 14.167C17.133 14.167 13.633 17.6837 13.633 22.017C13.633 26.717 15.883 30.2337 18.1497 32.5837C18.2663 32.7003 18.1663 32.9003 18.0163 32.8337C13.4663 31.2837 3.33301 24.8503 3.33301 13.9003C3.33301 9.06699 7.21634 5.16699 12.0163 5.16699C14.8663 5.16699 17.383 6.53366 18.9663 8.65033C20.5663 6.53366 23.083 5.16699 25.9163 5.16699C30.6997 5.16699 34.583 9.06699 34.583 13.9003Z" fill="#61586A"/>
</svg>
