<svg width="40" height="40" viewBox="0 0 40 40" fill="none" xmlns="http://www.w3.org/2000/svg">
<path d="M10.0003 16.667C8.16699 16.667 6.66699 18.167 6.66699 20.0003C6.66699 21.8337 8.16699 23.3337 10.0003 23.3337C11.8337 23.3337 13.3337 21.8337 13.3337 20.0003C13.3337 18.167 11.8337 16.667 10.0003 16.667ZM30.0003 16.667C28.167 16.667 26.667 18.167 26.667 20.0003C26.667 21.8337 28.167 23.3337 30.0003 23.3337C31.8337 23.3337 33.3337 21.8337 33.3337 20.0003C33.3337 18.167 31.8337 16.667 30.0003 16.667ZM20.0003 16.667C18.167 16.667 16.667 18.167 16.667 20.0003C16.667 21.8337 18.167 23.3337 20.0003 23.3337C21.8337 23.3337 23.3337 21.8337 23.3337 20.0003C23.3337 18.167 21.8337 16.667 20.0003 16.667Z" fill="#61586A"/>
</svg>
