<svg width="60" height="40" viewBox="0 0 60 40" fill="none" xmlns="http://www.w3.org/2000/svg">
<g clip-path="url(#clip0_1333_9636)">
<path d="M59.7476 1.71494C59.4127 1.06608 58.9561 0.886564 58.6299 0.849796C58.2753 0.826299 57.9244 0.934157 57.6449 1.1526C57.0289 0.92155 56.3745 0.808535 55.7163 0.819516C55.1379 0.797887 54.5638 0.819515 54.0072 0.847633C53.6984 0.86061 53.394 0.87575 53.0918 0.880076C51.7589 0.90603 50.6543 0.880076 50.1955 0.862773C37.0579 0.138214 24.6508 -0.547414 10.75 0.629184C10.1694 0.67893 9.44533 0.741652 8.81258 1.08555C7.84322 1.1101 6.87342 1.05948 5.91196 0.934148C5.20791 0.833344 4.49638 0.793542 3.78541 0.81519C2.8352 0.862773 1.78933 1.0185 1.25443 1.80578C0.913053 2.30757 0.884787 2.92831 0.860868 3.42577C0.541234 10.1652 0.208545 17.1318 0.717351 23.9881C0.75794 24.5274 0.801422 25.0659 0.847809 25.6038C0.980447 27.1935 1.11744 28.8373 1.11091 30.4529C1.11091 31.2315 1.07178 32.0275 1.03699 32.7953C0.94527 34.1808 0.941628 35.5707 1.02611 36.9566C1.06742 37.4281 1.26095 37.6942 1.60233 37.7396H1.69365C1.85785 37.7358 2.01594 37.6769 2.14225 37.5724C2.26856 37.468 2.35567 37.3242 2.38945 37.1643C3.69409 31.3397 3.43968 25.2815 3.20267 19.4288C3.01568 14.8435 2.82434 10.1004 3.37228 5.50212C3.42882 5.02196 3.49839 4.60236 3.75714 4.29524C3.86823 4.16208 4.02162 4.07054 4.19202 4.03569C4.50078 3.97946 4.84433 4.37959 5.00959 4.66509C5.52274 5.58214 5.75105 7.00963 5.6619 8.78967V8.81995C5.57928 10.6065 5.53145 11.6857 5.16833 13.442C4.32901 17.4995 4.03546 22.991 4.04198 26.776C4.03684 27.4829 4.19298 28.1818 4.49861 28.82C6.02068 31.8955 9.65843 30.5654 11.1544 29.8495L11.1892 29.8322C11.19 29.9061 11.2039 29.9794 11.2305 30.0485C11.2808 30.181 11.363 30.2992 11.4699 30.3927C11.5768 30.4862 11.7051 30.5522 11.8437 30.5848C11.7241 31.7614 10.9739 32.871 10.139 33.9914C9.35449 35.1086 8.42608 36.1186 7.3775 36.9956C4.15506 39.5759 1.28922 39.1238 0.465129 38.3084C0.440409 38.2811 0.410333 38.259 0.376754 38.2437C0.343176 38.2283 0.3068 38.2198 0.26984 38.2189C0.23288 38.218 0.19611 38.2246 0.161798 38.2383C0.127485 38.252 0.0963467 38.2725 0.070278 38.2986C0.0442093 38.3246 0.0237575 38.3557 0.0101851 38.3899C-0.00338736 38.4242 -0.00979795 38.4608 -0.0086603 38.4975C-0.00752264 38.5343 0.00114532 38.5704 0.0168075 38.6037C0.0324697 38.637 0.0548026 38.6668 0.0824346 38.6913C1.16963 39.7727 4.34858 40.1166 7.71888 37.4152C8.80364 36.5144 9.76493 35.476 10.5782 34.3266C11.424 33.1868 12.246 31.9734 12.3851 30.6497H12.496C20.3238 30.4572 28.3995 30.2583 36.3229 30.0376L45.7989 29.657C46.386 29.6332 47.0535 29.6051 47.5797 29.8884C48.1059 30.1717 48.4082 30.6757 48.6408 31.1018C49.1823 32.0912 49.5062 33.1838 49.591 34.3071C49.628 34.8262 49.6389 35.5811 49.2866 36.1456C48.8517 36.8312 47.982 37.1383 47.2623 37.3308C45.674 37.7561 44.0266 37.9205 42.3851 37.8175C43.0169 37.7133 43.63 37.518 44.2051 37.2378C44.3312 37.1771 44.4356 37.0796 44.5044 36.9582C44.5732 36.8368 44.603 36.6974 44.5899 36.5587C44.5486 36.2126 44.2507 36.005 43.7941 36.0028H43.7724C43.3036 36.005 42.8425 36.121 42.4291 36.3408C42.0157 36.5605 41.6624 36.8774 41.4001 37.2638C41.3678 37.3108 41.3388 37.3599 41.3131 37.4108C40.8783 37.4476 40.4434 37.4671 39.9976 37.4865L19.3366 38.3863C18.7906 38.4112 18.2434 38.3975 17.6993 38.3452C17.0405 38.3033 16.3974 38.1273 15.8098 37.8283C16.0667 37.7155 16.3004 37.5563 16.499 37.3589C16.6784 37.1766 16.8127 36.9552 16.8912 36.7123C16.9697 36.4695 16.9903 36.2117 16.9513 35.9596C16.9201 35.7716 16.8426 35.5942 16.7257 35.4433C16.6089 35.2923 16.4563 35.1725 16.2816 35.0944C16.0399 34.9904 15.7722 34.9616 15.5137 35.0118C15.2553 35.062 15.0181 35.1888 14.8335 35.3756C14.2007 35.9985 14.292 36.9285 14.7465 37.586L14.5617 37.6206C13.6571 37.785 12.7221 37.8737 11.8154 37.958C10.4847 38.0835 9.11049 38.2111 7.79063 38.5831C7.66164 38.6168 7.54412 38.6844 7.4504 38.7787C7.35667 38.8731 7.29019 38.9908 7.25791 39.1195C7.23534 39.211 7.23438 39.3065 7.25513 39.3984C7.27588 39.4904 7.31777 39.5763 7.3775 39.6494C7.50416 39.77 7.65456 39.8632 7.81922 39.9231C7.98388 39.9831 8.15923 40.0084 8.33423 39.9976H8.38206C10.9326 39.9284 13.5701 39.857 16.2099 39.883C20.5804 39.8354 25.0226 39.6883 29.3171 39.5478C38.2516 39.2514 47.4884 38.9465 56.4729 39.524C57.4362 39.6235 58.2646 38.8751 58.6169 38.1505C58.9909 37.3741 59.0213 36.4981 59.0518 35.7238C59.4519 24.8381 59.7737 13.7902 60.0063 2.88721C60.019 2.48117 59.9301 2.07835 59.7476 1.71494ZM57.3449 2.92182C57.3842 2.53151 57.5185 2.15661 57.7363 1.82957C57.79 1.86772 57.8416 1.90888 57.8906 1.95286C58.0412 2.09839 58.1524 2.27933 58.2139 2.47894C58.2755 2.67855 58.2855 2.89039 58.2429 3.09485C58.223 3.21337 58.1703 3.32405 58.0908 3.41456C58.0114 3.50507 57.9082 3.57184 57.7928 3.60745C57.7396 3.62486 57.6834 3.63116 57.6276 3.62595C57.5719 3.62074 57.5178 3.60413 57.4688 3.57717C57.3731 3.51444 57.2709 3.38251 57.3449 2.92182ZM10.9196 29.3693C9.56927 30.0182 6.29031 31.2294 4.98785 28.5885C4.71752 28.0248 4.57994 27.4071 4.58558 26.7825C4.58558 23.0235 4.87042 17.5752 5.70104 13.5566C6.07286 11.7593 6.1207 10.6649 6.20332 8.85023V8.81995C6.2903 6.91447 6.0446 5.42858 5.47709 4.40987C5.20529 3.92323 4.67691 3.39765 4.08113 3.51012C3.79047 3.56973 3.52892 3.72613 3.33966 3.95351C2.95479 4.40771 2.88305 5.00682 2.83086 5.44372C2.27639 10.0874 2.4699 14.85 2.6569 19.4569C2.89173 25.2815 3.13744 31.3051 1.85673 37.0605C1.849 37.1028 1.8264 37.1411 1.79295 37.1684C1.75949 37.1958 1.71737 37.2104 1.67409 37.2097C1.65017 37.2097 1.58929 37.2097 1.56754 36.9177C1.48417 35.5555 1.4878 34.1895 1.57841 32.8277C1.6132 32.0534 1.65016 31.251 1.65233 30.4616C1.65233 28.8221 1.52188 27.1675 1.38707 25.5648C1.34068 25.0285 1.29791 24.4913 1.25877 23.9535C0.754314 17.1318 1.08265 10.1804 1.40229 3.45821C1.42186 3.00401 1.44795 2.49141 1.70235 2.11507C2.10244 1.52461 2.95263 1.40349 3.80933 1.36023C4.49129 1.3415 5.1736 1.38057 5.8489 1.47703C6.60918 1.57399 7.3743 1.62886 8.14071 1.6414L8.12331 1.66087C7.94493 1.87211 7.82795 2.12781 7.78503 2.40036C7.74211 2.67291 7.77488 2.95194 7.87978 3.20732C8.27334 4.09625 9.30617 4.11139 9.86064 4.11788C19.5823 4.25847 29.4301 4.01407 39.1322 3.38683C41.5828 3.22678 43.0874 3.25057 46.4556 3.35439C47.1079 3.4063 47.695 3.44091 48.2299 3.47551C49.4353 3.52679 50.6368 3.64666 51.8285 3.83455C52.8548 4.00541 55.3379 4.61534 56.2468 6.60518C56.7317 7.66498 56.6643 8.93025 56.5643 10.0333C56.3947 11.8717 56.112 13.7405 55.8359 15.5465C55.7706 15.979 55.7076 16.3986 55.6423 16.829C54.5551 16.377 51.848 16.4722 50.887 17.1729C50.6826 17.3222 50.4847 17.4757 50.2933 17.6379C50.3521 17.4757 50.4086 17.3157 50.463 17.1535L50.4738 17.1189C50.8848 15.8882 50.9087 15.4599 50.6282 15.2869C50.3477 15.1139 50.0281 15.4426 49.8954 15.5811C49.8877 15.5879 49.8811 15.5959 49.8759 15.6049C48.3438 17.6514 47.3139 20.026 46.8687 22.539C46.6773 22.7704 46.4816 22.9954 46.2816 23.216C45.8701 23.6653 45.3647 24.0197 44.8008 24.2541C44.0616 24.5569 43.5723 24.5072 43.1135 24.0811C42.9264 23.9 42.78 23.6814 42.684 23.4398C42.5881 23.1982 42.5447 22.9391 42.5569 22.6796C42.5654 22.5534 42.5807 22.4278 42.6025 22.3032C43.4906 21.3068 44.2016 20.1673 44.7052 18.9335C44.9643 18.3504 45.0495 17.7055 44.9509 17.0756C44.8934 16.7366 44.7402 16.4208 44.5092 16.165C44.2782 15.9092 43.979 15.724 43.6462 15.6308C43.4598 15.5916 43.2682 15.5821 43.0787 15.6027C42.5047 15.354 41.7741 15.3994 40.95 15.7563C40.0629 16.1456 39.2997 16.8723 38.68 17.9191C38.3497 18.4578 38.0618 19.0211 37.8189 19.604C35.2096 22.1994 33.0157 23.6248 29.4823 23.6853H29.4497C29.0755 23.7289 28.6964 23.6717 28.3521 23.5194C28.0077 23.3672 27.7109 23.1257 27.4927 22.8202C29.3105 22.035 30.6108 20.7676 31.1218 19.219C31.4153 18.3301 31.2697 17.6661 30.6869 17.2465C30.4062 17.0463 30.0667 16.9444 29.7215 16.9566C28.7974 16.9848 28.1429 17.6185 27.7319 18.0943C26.7295 19.2536 26.2664 20.6076 26.4643 21.8058C26.5063 22.0634 26.5846 22.3139 26.6969 22.5498C26.167 22.7385 25.6222 22.8832 25.0683 22.9824C23.2179 23.3111 22.1198 22.8461 21.8067 21.6025C21.7 21.1589 21.7 20.6965 21.8067 20.2528C21.8937 19.8693 21.9857 19.4886 22.0829 19.1109C23.8224 16.7079 25.2314 14.0757 26.4969 11.5841C27.0666 10.4659 27.7732 9.07517 27.895 7.58712C27.9004 7.51549 27.8772 7.44463 27.8304 7.38996C27.7835 7.33528 27.7169 7.3012 27.645 7.29513C27.0187 7.24322 26.6056 7.86396 26.4512 8.09539C24.8499 10.4877 23.5432 13.0627 22.5591 15.7649C22.5516 15.5742 22.5268 15.3845 22.4851 15.1982C22.4507 15.048 22.3973 14.9027 22.3264 14.7657C22.4003 14.4823 22.4721 14.1947 22.5438 13.9005C22.9178 12.3195 23.1962 10.321 22.0807 8.89565C21.2501 7.83801 19.7106 7.31892 18.1668 7.57414C16.7274 7.81205 14.553 8.91295 13.481 9.75863C11.4066 11.3938 10.9196 11.8609 9.42794 14.0714C8.24725 15.8147 6.88826 19.0589 6.76214 21.2218C6.64038 23.3111 7.68408 25.8244 9.915 26.5814C11.3697 27.0745 13.1114 26.7631 15.0879 25.6535C16.6505 24.7641 18.0805 23.6619 19.3366 22.3789C17.3275 25.2426 14.4029 27.7104 10.9196 29.3693ZM56.0837 17.5601C56.6426 17.971 56.8404 18.9551 56.8926 19.3055C57.1323 20.873 57.1769 22.4639 57.0252 24.0422C56.9339 25.0068 56.7273 26.205 55.9685 26.9577C55.7032 26.7587 55.5575 26.3305 55.5227 25.66C55.3923 22.9521 55.701 20.2334 56.0837 17.5601ZM50.2259 16.0461C50.1803 16.2386 50.0998 16.5262 49.9585 16.9502L49.9476 16.9848C49.7737 17.5082 49.5715 18.0251 49.3475 18.5334C48.8478 19.0647 48.4027 19.6443 48.0189 20.2637C48.5358 18.7537 49.2808 17.3309 50.2281 16.0439L50.2259 16.0461ZM39.354 18.7605C40.3629 17.6596 41.4088 16.5219 42.8048 16.1953L42.9635 16.1629C43.1727 16.2867 43.3435 16.4656 43.4571 16.6798C43.7506 17.2119 43.6963 18.0164 43.2962 19.0762C43.1614 19.4353 42.9874 19.79 42.8178 20.1361C42.4862 20.7416 42.239 21.3892 42.0829 22.061C41.3262 22.8699 40.4499 23.5058 39.5519 23.681C39.2299 23.7494 38.8938 23.6965 38.6086 23.5328C38.3235 23.369 38.1095 23.1058 38.0081 22.7942C37.9572 22.6071 37.928 22.4148 37.9211 22.2211C37.853 21.4358 37.973 20.6457 38.2712 19.9154L38.6147 19.5672C38.8691 19.3012 39.1235 19.0243 39.3671 18.7583L39.354 18.7605ZM39.0909 18.2457L39.1235 18.1916C39.6823 17.2486 40.3607 16.5954 41.1435 16.2451C41.2846 16.1825 41.43 16.1298 41.5784 16.0872C40.6325 16.6084 39.8541 17.426 39.104 18.2435L39.0909 18.2457ZM43.9202 16.4138L43.8746 16.3381C44.1444 16.5496 44.3288 16.8505 44.3942 17.1859C44.473 17.7143 44.3976 18.2541 44.1768 18.741C43.8975 19.4335 43.5455 20.0946 43.1266 20.7135C43.1809 20.5989 43.2375 20.4843 43.2962 20.3675C43.4701 20.0128 43.6506 19.6451 43.7941 19.2623C44.2638 18.0467 44.3073 17.0886 43.9333 16.4116L43.9202 16.4138ZM27.2035 22.3616C27.1079 22.1596 27.0399 21.9458 27.0013 21.7258C26.8317 20.6854 27.2492 19.4915 28.1451 18.4555C28.693 17.8218 29.1996 17.519 29.7389 17.5038H29.7737C29.9878 17.501 30.1973 17.5662 30.3716 17.6899C30.6086 17.8607 30.8913 18.1895 30.6065 19.0568C30.1346 20.4778 28.917 21.6392 27.2035 22.3616ZM16.5491 23.1251C16.0185 22.9954 15.5271 22.725 15.5336 21.6111C15.5488 19.4699 16.4034 18.0186 17.9733 16.0915C18.6125 15.3042 19.7541 14.4304 20.7434 14.3612H20.813C20.9942 14.3625 21.1724 14.4063 21.3334 14.489C21.4943 14.5716 21.6334 14.6909 21.7393 14.837C20.9174 17.9126 19.8019 20.4151 18.3429 22.4568C17.8798 23.1208 16.8209 23.19 16.5469 23.1251H16.5491ZM17.0905 23.668C16.3754 24.2308 15.6171 24.737 14.8226 25.182C12.9874 26.2137 11.3958 26.5122 10.0933 26.0688C8.11896 25.3983 7.19702 23.1403 7.30791 21.2543C7.42968 19.1757 8.73867 16.0634 9.88239 14.3634C11.3284 12.22 11.8045 11.7679 13.8224 10.1739C14.8335 9.38013 16.9448 8.32682 18.2494 8.11269C18.4808 8.07411 18.715 8.05458 18.9496 8.05429C20.0498 8.05429 21.0653 8.48687 21.6523 9.23306C22.6308 10.4789 22.359 12.3173 22.0155 13.7751C21.9785 13.9286 21.9437 14.08 21.9046 14.2293C21.5746 13.9507 21.1493 13.8097 20.7173 13.8356C19.391 13.9157 18.1081 15.0793 17.5558 15.7563C16.1664 17.4628 15.0139 19.0806 14.9965 21.6111C14.9965 23.2938 16.0707 23.5577 16.4273 23.6442C16.6451 23.6862 16.8681 23.6942 17.0883 23.668H17.0905ZM22.0155 15.8817C22.0004 16.3727 21.9185 16.8595 21.7719 17.3287C21.5227 18.2212 21.1938 19.0898 20.7891 19.9241C20.5217 20.2615 20.2455 20.5946 19.9628 20.9168C20.8262 19.3166 21.5137 17.6285 22.0133 15.8817H22.0155ZM22.5547 17.4606C23.5625 14.2476 25.0269 11.1945 26.9035 8.39386C27.01 8.21847 27.1461 8.06262 27.3057 7.93317C27.1122 9.17466 26.5077 10.3642 26.0011 11.3375C24.9644 13.4394 23.8132 15.4835 22.5525 17.4606H22.5547ZM11.7371 29.8733C11.7311 29.8567 11.7299 29.8387 11.7338 29.8215C11.7376 29.8042 11.7464 29.7884 11.7589 29.7759C11.7589 29.7759 11.7741 29.763 11.7806 29.763C11.7806 29.763 11.8154 29.7803 11.8328 29.9425V30.0182C11.7876 29.98 11.7544 29.9297 11.7371 29.8733ZM43.7767 36.5435H43.7941C43.9354 36.5435 44.0485 36.5781 44.055 36.6214C44.0539 36.65 44.0447 36.6777 44.0286 36.7014C44.0125 36.7251 43.99 36.7438 43.9637 36.7555C43.3585 37.0485 42.7092 37.2413 42.0415 37.3265C42.2605 37.0836 42.5278 36.8885 42.8265 36.7538C43.1252 36.619 43.4488 36.5474 43.7767 36.5435ZM15.2053 35.7606C15.351 35.613 15.5496 35.529 15.7576 35.527C15.8565 35.5264 15.9544 35.547 16.0446 35.5876C16.1397 35.6291 16.2227 35.694 16.2858 35.776C16.3489 35.8581 16.3901 35.9547 16.4056 36.0569C16.4294 36.2234 16.4144 36.3932 16.3616 36.553C16.3088 36.7127 16.2196 36.8583 16.1011 36.9783C15.8777 37.192 15.6064 37.3499 15.3097 37.439C14.89 36.9761 14.7356 36.2256 15.2053 35.7606ZM58.4995 35.7065C58.4734 36.4267 58.4429 37.2443 58.1168 37.9191C57.845 38.4858 57.2253 39.0611 56.5099 38.9854C47.4884 38.4079 38.2451 38.7129 29.291 39.0092C24.9987 39.1498 20.5608 39.2969 16.2012 39.3444C13.5549 39.3185 10.913 39.3899 8.35597 39.4591C8.15383 39.4798 7.95108 39.4259 7.78628 39.3077C7.78628 39.2969 7.76671 39.2839 7.78628 39.2428C7.79795 39.2092 7.81774 39.1791 7.84391 39.1549C7.87007 39.1308 7.90181 39.1134 7.93631 39.1044C9.20833 38.7475 10.5586 38.622 11.8633 38.4988C12.7808 38.4123 13.731 38.3236 14.6552 38.1549C14.8291 38.1246 15.0009 38.09 15.1727 38.0446C15.8967 38.6372 16.9122 38.8059 17.6406 38.8816C18.2113 38.9386 18.7854 38.9538 19.3584 38.927L40.0324 38.0273C40.4434 38.0078 40.8696 37.9905 41.3023 37.9537C41.3849 38.1203 41.5762 38.2911 42.0155 38.3301C43.8276 38.4866 45.6532 38.327 47.4101 37.8586C48.2233 37.6423 49.2257 37.2854 49.7541 36.4376C50.189 35.739 50.189 34.8673 50.139 34.2747C50.0499 33.074 49.7045 31.9061 49.1257 30.8487C48.8539 30.3577 48.4734 29.75 47.845 29.4191C47.1927 29.0665 46.4077 29.0968 45.7837 29.1227L36.2968 29.5034C28.3799 29.7197 20.2955 29.923 12.4764 30.1155H12.396C12.396 30.0376 12.396 29.9576 12.3786 29.8776C12.369 29.6777 12.2844 29.4886 12.1416 29.3477C16.2098 27.1632 19.4432 23.8994 21.2457 20.2074C21.1365 20.7128 21.1432 21.2362 21.2653 21.7387C21.5414 22.8202 22.4395 24.0011 25.1553 23.5188C25.7707 23.4124 26.3754 23.2518 26.9622 23.0386C27.2304 23.4513 27.6089 23.7815 28.0551 23.9924C28.5013 24.2032 28.9978 24.2864 29.4888 24.2325C32.8352 24.172 35.0835 22.9002 37.4623 20.6854C37.3576 21.1997 37.3254 21.726 37.3666 22.2492C37.3762 22.4832 37.4127 22.7155 37.4753 22.9413C37.6137 23.3843 37.9133 23.7599 38.3155 23.9948C38.7176 24.2296 39.1934 24.3067 39.6497 24.2109C40.4999 24.0465 41.3023 23.5469 42.0133 22.8915C42.0396 23.4956 42.2998 24.066 42.7395 24.4834C43.5375 25.2231 44.3681 25.0198 45.0031 24.7603C45.6356 24.4986 46.2032 24.103 46.6665 23.601C46.6665 23.6377 46.6513 23.6745 46.6426 23.7113C46.5994 23.8266 46.5809 23.9496 46.5882 24.0725V24.0854C46.5882 24.0854 46.5882 24.0984 46.5882 24.1049C46.6029 24.2224 46.6547 24.3321 46.7361 24.4185C46.7717 24.4576 46.8182 24.4853 46.8697 24.498C46.9212 24.5107 46.9754 24.5079 47.0253 24.4899C47.0755 24.4722 47.1193 24.4402 47.1514 24.3979C47.1835 24.3556 47.2024 24.3049 47.2057 24.252C47.2296 23.9189 47.2623 23.5858 47.3079 23.2527C47.3645 23.0365 47.4275 22.8202 47.4971 22.6255C48.4199 21.4631 49.1961 20.1927 49.8085 18.8427C50.2387 18.3942 50.7081 17.9846 51.2109 17.6185C52.0329 17.0172 54.6095 16.9393 55.4901 17.3611C55.5133 17.3726 55.5383 17.38 55.5641 17.3827C55.1661 20.1187 54.8443 22.911 54.9835 25.6924C55.0009 26.0666 55.0574 27.2065 55.9098 27.5482C55.9562 27.5673 56.007 27.5732 56.0565 27.5652C56.1061 27.5572 56.1524 27.5356 56.1903 27.5028C57.2079 26.6246 57.4623 25.2231 57.5688 24.1006C57.7234 22.4782 57.6774 20.8432 57.4319 19.232C57.2601 18.0986 56.8035 17.3027 56.1707 16.9912C56.2381 16.537 56.3077 16.085 56.3751 15.6351C56.6513 13.8227 56.9383 11.9453 57.1079 10.0896C57.2144 8.91944 57.284 7.56981 56.7447 6.39105C56.0294 4.81432 54.2703 3.70261 51.922 3.30032C50.7078 3.11059 49.4838 2.98856 48.256 2.9348C47.7232 2.90235 47.1448 2.86558 46.4838 2.81584H46.4708C43.0809 2.71202 41.5654 2.68823 39.0779 2.84828C29.3931 3.47551 19.5584 3.71343 9.85195 3.57933C9.06699 3.56852 8.57124 3.46902 8.36032 2.99103C8.29509 2.82623 8.2764 2.64682 8.30629 2.47222C8.33619 2.29762 8.41352 2.13447 8.52992 2.00044C8.64795 1.8548 8.78893 1.72917 8.9474 1.62843C10.4649 1.55306 11.9718 1.33581 13.4484 0.979567C26.2446 0.0992819 37.8776 0.73949 50.1455 1.41214C50.6152 1.43809 51.735 1.45323 53.0831 1.42944C53.3897 1.42944 53.6984 1.40998 54.0115 1.397C54.5573 1.37105 55.1205 1.34725 55.6771 1.36672C56.201 1.36378 56.7225 1.43664 57.2253 1.58301C56.9908 1.96415 56.8424 2.39145 56.7904 2.8353C56.7556 3.05159 56.6512 3.70045 57.1535 4.02704C57.2681 4.09723 57.3965 4.14222 57.53 4.15901C57.6635 4.1758 57.7991 4.16399 57.9276 4.12437C58.136 4.06242 58.3232 3.94474 58.4689 3.78417C58.6146 3.6236 58.7132 3.4263 58.7539 3.21381C58.8178 2.91536 58.8038 2.6056 58.7132 2.31406C58.6226 2.02252 58.4584 1.75893 58.2364 1.5484L58.1494 1.4727C58.2775 1.41003 58.4201 1.38241 58.5625 1.39267C58.8343 1.41863 59.0692 1.60896 59.2453 1.95718C59.3852 2.24289 59.451 2.55891 59.4366 2.8764C59.2214 13.7772 58.9104 24.823 58.5017 35.713L58.4995 35.7065Z" fill="#948A9E"/>
<path d="M19.6086 35.3912C19.6034 35.4265 19.6052 35.4624 19.614 35.4969C19.6228 35.5315 19.6383 35.5639 19.6597 35.5925C19.6811 35.621 19.708 35.645 19.7388 35.6632C19.7696 35.6814 19.8037 35.6933 19.8391 35.6984C19.9573 35.7157 20.0763 35.7265 20.1957 35.7308C20.3914 35.8295 20.6052 35.8876 20.8241 35.9017C20.9481 35.9017 21.072 35.919 21.1981 35.919C21.5934 35.9186 21.9866 35.8618 22.3657 35.7503C22.4349 35.7299 22.4932 35.683 22.5276 35.62C22.5621 35.5569 22.57 35.4828 22.5495 35.414C22.529 35.3451 22.4819 35.2872 22.4185 35.2529C22.3551 35.2186 22.2806 35.2108 22.2114 35.2312C22.0855 35.2683 21.9578 35.2987 21.8287 35.322C21.925 35.2495 22.0038 35.1566 22.0595 35.0499C22.1151 34.9433 22.1462 34.8257 22.1505 34.7056C22.1505 34.2298 21.7156 33.9227 21.3046 33.8405C21.0745 33.7843 20.8336 33.7878 20.6052 33.8507C20.3768 33.9135 20.1684 34.0336 20 34.1995C19.8793 34.3311 19.7937 34.4908 19.7512 34.6639C19.7086 34.837 19.7105 35.0179 19.7565 35.1901C19.7175 35.2095 19.6838 35.2379 19.6581 35.2729C19.6324 35.3079 19.6154 35.3484 19.6086 35.3912ZM20.4044 34.5629C20.481 34.4902 20.5715 34.4337 20.6705 34.3965C20.7695 34.3594 20.8749 34.3424 20.9807 34.3466C21.0537 34.3461 21.1266 34.3533 21.1981 34.3682C21.3981 34.4093 21.6112 34.5499 21.6112 34.7035C21.6112 34.857 21.3634 35.0192 21.122 35.0863C20.8788 35.1559 20.6271 35.1923 20.374 35.1944C20.3018 35.1032 20.2651 34.989 20.2707 34.873C20.2763 34.757 20.3238 34.6469 20.4044 34.5629Z" fill="#948A9E"/>
<path d="M38.2692 35.1658C38.4241 35.2707 38.606 35.3293 38.7933 35.3345C38.8455 35.3345 38.902 35.3345 38.9563 35.3345C39.2028 35.3427 39.4462 35.2787 39.6565 35.1507C39.7844 35.0721 39.8863 34.9578 39.9493 34.8221C40.0123 34.6863 40.0338 34.535 40.0109 34.3872C39.9698 34.2469 39.8895 34.1211 39.7794 34.0243C39.6694 33.9274 39.5341 33.8635 39.389 33.84C39.3175 33.8252 39.2447 33.8179 39.1716 33.8184C38.9471 33.8229 38.7256 33.8707 38.5193 33.959C38.3806 34.0027 38.257 34.0844 38.1627 34.1947C38.0736 34.3137 38.0562 34.4564 38.2192 34.4672C38.2864 34.412 38.3593 34.3642 38.4367 34.3245C38.761 34.1493 39.1009 34.0045 39.4521 33.8919C38.7824 34.3245 38.4171 34.4629 38.2388 34.4629H38.2192C38.1516 34.515 38.101 34.5857 38.0735 34.6662C38.0503 34.7594 38.0567 34.8575 38.0917 34.9469C38.1268 35.0364 38.1888 35.1128 38.2692 35.1658ZM39.4804 34.5321C39.4727 34.5676 39.4579 34.6011 39.437 34.6309C39.4161 34.6606 39.3895 34.6858 39.3586 34.7052C39.2461 34.769 39.1185 34.8019 38.989 34.8003C39.1238 34.7333 39.2912 34.6468 39.4804 34.5321Z" fill="#948A9E"/>
</g>
<defs>
<clipPath id="clip0_1333_9636">
<rect width="60" height="40" fill="white"/>
</clipPath>
</defs>
</svg>
