<svg width="31" height="30" viewBox="0 0 31 30" fill="none" xmlns="http://www.w3.org/2000/svg">
<circle cx="15.5" cy="15" r="14.5" stroke="#7A37BE"/>
<path d="M18.418 10.0417H12.5846C10.8346 10.0417 9.66797 10.9167 9.66797 12.9584V17.0417C9.66797 19.0834 10.8346 19.9584 12.5846 19.9584H18.418C20.168 19.9584 21.3346 19.0834 21.3346 17.0417V12.9584C21.3346 10.9167 20.168 10.0417 18.418 10.0417ZM18.6921 13.5942L16.8663 15.0526C16.4813 15.3617 15.9913 15.5134 15.5013 15.5134C15.0113 15.5134 14.5155 15.3617 14.1363 15.0526L12.3105 13.5942C12.1238 13.4426 12.0946 13.1626 12.2405 12.9759C12.3921 12.7892 12.6663 12.7542 12.853 12.9059L14.6788 14.3642C15.1221 14.7201 15.8746 14.7201 16.318 14.3642L18.1438 12.9059C18.3305 12.7542 18.6105 12.7834 18.7563 12.9759C18.908 13.1626 18.8788 13.4426 18.6921 13.5942Z" fill="#7A37BE"/>
</svg>
