<svg width="30" height="30" viewBox="0 0 30 30" fill="none" xmlns="http://www.w3.org/2000/svg">
<path d="M0 4C0 1.79086 1.79086 0 4 0H26C28.2091 0 30 1.79086 30 4V26C30 28.2091 28.2091 30 26 30H4C1.79086 30 0 28.2091 0 26V4Z" fill="#FAFAFA"/>
<path d="M17.5893 9.80859C16.5335 9.80859 15.5885 10.3219 14.9993 11.1094C14.4102 10.3219 13.4652 9.80859 12.4093 9.80859C10.6185 9.80859 9.16602 11.2669 9.16602 13.0694C9.16602 13.7636 9.27685 14.4053 9.46935 15.0003C10.391 17.9169 13.2318 19.6611 14.6377 20.1394C14.836 20.2094 15.1627 20.2094 15.361 20.1394C16.7668 19.6611 19.6077 17.9169 20.5293 15.0003C20.7218 14.4053 20.8327 13.7636 20.8327 13.0694C20.8327 11.2669 19.3802 9.80859 17.5893 9.80859Z" fill="#CCCCCC"/>
</svg>
