<svg width="14" height="12" viewBox="0 0 14 12" fill="none" xmlns="http://www.w3.org/2000/svg">
<path d="M7.15594 0.70173L3.92427 3.9334C3.70844 4.14923 3.58594 4.44673 3.58594 4.7559V10.5834C3.58594 11.2251 4.11094 11.7501 4.7526 11.7501H10.0026C10.4693 11.7501 10.8893 11.4701 11.0759 11.0442L12.9776 6.60506C13.4676 5.45006 12.6218 4.16673 11.3676 4.16673H8.07177L8.62594 1.49506C8.68427 1.2034 8.59677 0.905897 8.38677 0.695897C8.0426 0.357563 7.49427 0.357563 7.15594 0.70173ZM1.2526 11.7501C1.89427 11.7501 2.41927 11.2251 2.41927 10.5834V5.91673C2.41927 5.27506 1.89427 4.75006 1.2526 4.75006C0.610937 4.75006 0.0859375 5.27506 0.0859375 5.91673V10.5834C0.0859375 11.2251 0.610937 11.7501 1.2526 11.7501Z" fill="#999999"/>
</svg>
