<svg width="16" height="13" viewBox="0 0 16 13" fill="none" xmlns="http://www.w3.org/2000/svg">
<path d="M8.74601 0.372987L5.05268 4.06632C4.80602 4.31299 4.66602 4.65299 4.66602 5.00632V11.6663C4.66602 12.3997 5.26602 12.9997 5.99935 12.9997H11.9993C12.5327 12.9997 13.0127 12.6797 13.226 12.193L15.3993 7.11965C15.9593 5.79965 14.9927 4.33299 13.5593 4.33299H9.79268L10.426 1.27965C10.4927 0.94632 10.3927 0.60632 10.1527 0.36632C9.75935 -0.0203462 9.13268 -0.0203462 8.74601 0.372987ZM1.99935 12.9997C2.73268 12.9997 3.33268 12.3997 3.33268 11.6663V6.33299C3.33268 5.59965 2.73268 4.99965 1.99935 4.99965C1.26602 4.99965 0.666016 5.59965 0.666016 6.33299V11.6663C0.666016 12.3997 1.26602 12.9997 1.99935 12.9997Z" fill="#333333"/>
</svg>
