<svg width="16" height="16" viewBox="0 0 16 16" fill="none" xmlns="http://www.w3.org/2000/svg">
<path d="M1.35355 0.646447C1.15829 0.451184 0.841709 0.451184 0.646447 0.646447C0.451185 0.841709 0.451185 1.15829 0.646447 1.35355L1.35355 0.646447ZM14.6464 15.3536C14.8417 15.5488 15.1583 15.5488 15.3536 15.3536C15.5488 15.1583 15.5488 14.8417 15.3536 14.6464L14.6464 15.3536ZM15.3536 1.35355C15.5488 1.15829 15.5488 0.841709 15.3536 0.646447C15.1583 0.451184 14.8417 0.451184 14.6464 0.646447L15.3536 1.35355ZM0.646447 14.6464C0.451184 14.8417 0.451184 15.1583 0.646447 15.3536C0.841709 15.5488 1.15829 15.5488 1.35355 15.3536L0.646447 14.6464ZM0.646447 1.35355L14.6464 15.3536L15.3536 14.6464L1.35355 0.646447L0.646447 1.35355ZM14.6464 0.646447L0.646447 14.6464L1.35355 15.3536L15.3536 1.35355L14.6464 0.646447Z" fill="#999999"/>
</svg>
