<svg width="16" height="16" viewBox="0 0 16 16" fill="none" xmlns="http://www.w3.org/2000/svg">
<path d="M1.5098 0.646447C1.31454 0.451184 0.997959 0.451184 0.802697 0.646447C0.607435 0.841709 0.607435 1.15829 0.802697 1.35355L1.5098 0.646447ZM14.8027 15.3536C14.998 15.5488 15.3145 15.5488 15.5098 15.3536C15.7051 15.1583 15.7051 14.8417 15.5098 14.6464L14.8027 15.3536ZM15.5098 1.35355C15.7051 1.15829 15.7051 0.841709 15.5098 0.646447C15.3145 0.451184 14.998 0.451184 14.8027 0.646447L15.5098 1.35355ZM0.802697 14.6464C0.607434 14.8417 0.607434 15.1583 0.802697 15.3536C0.997959 15.5488 1.31454 15.5488 1.5098 15.3536L0.802697 14.6464ZM0.802697 1.35355L14.8027 15.3536L15.5098 14.6464L1.5098 0.646447L0.802697 1.35355ZM14.8027 0.646447L0.802697 14.6464L1.5098 15.3536L15.5098 1.35355L14.8027 0.646447Z" fill="#999999"/>
</svg>
