<svg width="17" height="18" viewBox="0 0 17 18" fill="none" xmlns="http://www.w3.org/2000/svg">
<path d="M8.49935 0.666016C3.89935 0.666016 0.166016 4.39935 0.166016 8.99935C0.166016 13.5993 3.89935 17.3327 8.49935 17.3327C13.0993 17.3327 16.8327 13.5993 16.8327 8.99935C16.8327 4.39935 13.0993 0.666016 8.49935 0.666016ZM8.49935 15.666C4.82435 15.666 1.83268 12.6743 1.83268 8.99935C1.83268 5.32435 4.82435 2.33268 8.49935 2.33268C12.1743 2.33268 15.166 5.32435 15.166 8.99935C15.166 12.6743 12.1743 15.666 8.49935 15.666ZM7.66602 12.3327H9.33268V13.9993H7.66602V12.3327ZM9.00768 4.03268C7.29102 3.78268 5.77435 4.84102 5.31602 6.35768C5.16602 6.84102 5.53268 7.33268 6.04102 7.33268H6.20768C6.54935 7.33268 6.82435 7.09102 6.94102 6.77435C7.20768 6.03268 7.99935 5.52435 8.85768 5.70768C9.64935 5.87435 10.2327 6.64935 10.166 7.45768C10.0827 8.57435 8.81602 8.81602 8.12435 9.85768C8.12435 9.86602 8.11602 9.86602 8.11602 9.87435C8.10768 9.89102 8.09935 9.89935 8.09102 9.91602C8.01602 10.041 7.94102 10.1827 7.88268 10.3327C7.87435 10.3577 7.85768 10.3743 7.84935 10.3993C7.84102 10.416 7.84102 10.4327 7.83268 10.4577C7.73268 10.741 7.66602 11.0827 7.66602 11.4993H9.33268C9.33268 11.1493 9.42435 10.8577 9.56602 10.6077C9.58268 10.5827 9.59102 10.5577 9.60768 10.5327C9.67435 10.416 9.75768 10.3077 9.84102 10.2077C9.84935 10.1993 9.85768 10.1827 9.86602 10.1743C9.94935 10.0743 10.041 9.98268 10.141 9.89102C10.941 9.13268 12.0243 8.51602 11.7993 6.92435C11.5993 5.47435 10.4577 4.24935 9.00768 4.03268Z" fill="#7A37BE"/>
</svg>
