<svg width="16" height="15" viewBox="0 0 16 15" fill="none" xmlns="http://www.w3.org/2000/svg">
<path d="M1.35355 0.146447C1.15829 -0.0488155 0.841709 -0.0488155 0.646447 0.146447C0.451185 0.341709 0.451185 0.658291 0.646447 0.853553L1.35355 0.146447ZM14.6464 14.8536C14.8417 15.0488 15.1583 15.0488 15.3536 14.8536C15.5488 14.6583 15.5488 14.3417 15.3536 14.1464L14.6464 14.8536ZM15.3536 0.853553C15.5488 0.658291 15.5488 0.341709 15.3536 0.146447C15.1583 -0.0488155 14.8417 -0.0488155 14.6464 0.146447L15.3536 0.853553ZM0.646447 14.1464C0.451184 14.3417 0.451184 14.6583 0.646447 14.8536C0.841709 15.0488 1.15829 15.0488 1.35355 14.8536L0.646447 14.1464ZM0.646447 0.853553L14.6464 14.8536L15.3536 14.1464L1.35355 0.146447L0.646447 0.853553ZM14.6464 0.146447L0.646447 14.1464L1.35355 14.8536L15.3536 0.853553L14.6464 0.146447Z" fill="#948A9E"/>
</svg>
