<svg width="14" height="14" viewBox="0 0 14 14" fill="none" xmlns="http://www.w3.org/2000/svg">
<path d="M13.2987 0.709727C12.9087 0.319727 12.2787 0.319727 11.8887 0.709727L6.99875 5.58973L2.10875 0.699727C1.71875 0.309727 1.08875 0.309727 0.69875 0.699727C0.30875 1.08973 0.30875 1.71973 0.69875 2.10973L5.58875 6.99973L0.69875 11.8897C0.30875 12.2797 0.30875 12.9097 0.69875 13.2997C1.08875 13.6897 1.71875 13.6897 2.10875 13.2997L6.99875 8.40973L11.8887 13.2997C12.2787 13.6897 12.9087 13.6897 13.2987 13.2997C13.6887 12.9097 13.6887 12.2797 13.2987 11.8897L8.40875 6.99973L13.2987 2.10973C13.6787 1.72973 13.6787 1.08973 13.2987 0.709727Z" fill="#61586A"/>
</svg>
