<svg width="20" height="20" viewBox="0 0 20 20" fill="none" xmlns="http://www.w3.org/2000/svg">
<path d="M10.0013 1.66675C5.4013 1.66675 1.66797 5.40008 1.66797 10.0001C1.66797 14.6001 5.4013 18.3334 10.0013 18.3334C14.6013 18.3334 18.3346 14.6001 18.3346 10.0001C18.3346 5.40008 14.6013 1.66675 10.0013 1.66675ZM10.0013 16.6667C6.3263 16.6667 3.33464 13.6751 3.33464 10.0001C3.33464 6.32508 6.3263 3.33341 10.0013 3.33341C13.6763 3.33341 16.668 6.32508 16.668 10.0001C16.668 13.6751 13.6763 16.6667 10.0013 16.6667ZM9.16797 13.3334H10.8346V15.0001H9.16797V13.3334ZM10.5096 5.03341C8.79297 4.78341 7.2763 5.84175 6.81797 7.35842C6.66797 7.84175 7.03464 8.33342 7.54297 8.33342H7.70964C8.0513 8.33342 8.3263 8.09175 8.44297 7.77508C8.70964 7.03341 9.5013 6.52508 10.3596 6.70842C11.1513 6.87508 11.7346 7.65008 11.668 8.45841C11.5846 9.57508 10.318 9.81675 9.6263 10.8584C9.6263 10.8667 9.61797 10.8667 9.61797 10.8751C9.60964 10.8917 9.6013 10.9001 9.59297 10.9167C9.51797 11.0417 9.44297 11.1834 9.38464 11.3334C9.3763 11.3584 9.35964 11.3751 9.3513 11.4001C9.34297 11.4167 9.34297 11.4334 9.33464 11.4584C9.23464 11.7417 9.16797 12.0834 9.16797 12.5001H10.8346C10.8346 12.1501 10.9263 11.8584 11.068 11.6084C11.0846 11.5834 11.093 11.5584 11.1096 11.5334C11.1763 11.4167 11.2596 11.3084 11.343 11.2084C11.3513 11.2001 11.3596 11.1834 11.368 11.1751C11.4513 11.0751 11.543 10.9834 11.643 10.8917C12.443 10.1334 13.5263 9.51675 13.3013 7.92508C13.1013 6.47508 11.9596 5.25008 10.5096 5.03341Z" fill="#B3B3B3"/>
</svg>
