<svg width="20" height="20" viewBox="0 0 20 20" fill="none" xmlns="http://www.w3.org/2000/svg">
<path d="M16.6659 7.24162V4.99995C16.6659 4.08328 15.9159 3.33328 14.9992 3.33328H12.7576L11.1742 1.74995C10.5242 1.09995 9.46589 1.09995 8.81589 1.74995L7.24089 3.33328H4.99922C4.08255 3.33328 3.33255 4.08328 3.33255 4.99995V7.24162L1.74922 8.82495C1.09922 9.47495 1.09922 10.5333 1.74922 11.1833L3.33255 12.7666V15C3.33255 15.9166 4.08255 16.6666 4.99922 16.6666H7.24089L8.82422 18.25C9.47422 18.9 10.5326 18.9 11.1826 18.25L12.7659 16.6666H14.9992C15.9159 16.6666 16.6659 15.9166 16.6659 15V12.7583L18.2492 11.175C18.8992 10.525 18.8992 9.46662 18.2492 8.81662L16.6659 7.24162ZM9.99922 15C7.24089 15 4.99922 12.7583 4.99922 9.99995C4.99922 7.24162 7.24089 4.99995 9.99922 4.99995C12.7576 4.99995 14.9992 7.24162 14.9992 9.99995C14.9992 12.7583 12.7576 15 9.99922 15ZM9.99922 6.66662C8.15755 6.66662 6.66589 8.15828 6.66589 9.99995C6.66589 11.8416 8.15755 13.3333 9.99922 13.3333C11.8409 13.3333 13.3326 11.8416 13.3326 9.99995C13.3326 8.15828 11.8409 6.66662 9.99922 6.66662Z" fill="#B3B3B3"/>
</svg>
