<svg width="31" height="30" viewBox="0 0 31 30" fill="none" xmlns="http://www.w3.org/2000/svg">
<circle cx="15.5" cy="15" r="15" fill="#7A37BE"/>
<path d="M18.0913 9.80859C17.0355 9.80859 16.0905 10.3219 15.5013 11.1094C14.9121 10.3219 13.9671 9.80859 12.9113 9.80859C11.1205 9.80859 9.66797 11.2669 9.66797 13.0694C9.66797 13.7636 9.7788 14.4053 9.9713 15.0003C10.893 17.9169 13.7338 19.6611 15.1396 20.1394C15.338 20.2094 15.6646 20.2094 15.863 20.1394C17.2688 19.6611 20.1096 17.9169 21.0313 15.0003C21.2238 14.4053 21.3346 13.7636 21.3346 13.0694C21.3346 11.2669 19.8821 9.80859 18.0913 9.80859Z" fill="white"/>
</svg>
