<svg width="1032" height="241" viewBox="0 0 1032 241" fill="none" xmlns="http://www.w3.org/2000/svg">
<path d="M104.106 151.091C103.898 151.139 103.602 151.195 103.218 151.259C102.834 151.323 102.402 151.387 101.922 151.451C101.458 151.499 100.978 151.547 100.482 151.595C99.9864 151.627 99.5304 151.643 99.1144 151.643C98.9704 151.659 98.7384 151.675 98.4184 151.691C98.0984 151.691 97.7704 151.691 97.4344 151.691C97.0984 151.707 96.8024 151.715 96.5464 151.715C96.2904 151.715 96.1544 151.707 96.1384 151.691C95.8824 151.691 95.7064 151.643 95.6104 151.547C95.5304 151.451 95.4904 151.275 95.4904 151.019V136.451H98.2264V149.267L100.074 149.219C100.298 149.219 100.586 149.203 100.938 149.171C101.306 149.139 101.682 149.107 102.066 149.075C102.45 149.027 102.826 148.979 103.194 148.931C103.562 148.867 103.866 148.811 104.106 148.763V151.091ZM112.218 156.947H109.602V145.307H107.49V155.915H104.874V135.827H107.49V142.667H109.602V135.443H112.218V156.947ZM130.365 143.771V138.587H125.469V143.771H130.365ZM133.005 145.355C133.005 145.611 132.949 145.787 132.837 145.883C132.741 145.979 132.573 146.027 132.333 146.027H123.429C123.173 146.027 122.997 145.987 122.901 145.907C122.821 145.811 122.781 145.635 122.781 145.379V137.003C122.781 136.763 122.829 136.595 122.925 136.499C123.021 136.387 123.197 136.331 123.453 136.331H132.333C132.781 136.331 133.005 136.555 133.005 137.003V145.355ZM139.101 147.347H136.389V135.443H139.101V139.763H141.885V142.043H139.101V147.347ZM136.413 154.475V150.539H127.701V154.475H136.413ZM139.101 156.035C139.101 156.291 139.045 156.467 138.933 156.563C138.837 156.659 138.669 156.707 138.429 156.707H125.685C125.429 156.707 125.253 156.659 125.157 156.563C125.061 156.467 125.013 156.291 125.013 156.035V148.955C125.013 148.715 125.061 148.547 125.157 148.451C125.253 148.339 125.429 148.283 125.685 148.283H138.429C138.877 148.283 139.101 148.507 139.101 148.955V156.035ZM144.599 139.043C144.599 137.971 145.295 137.083 146.687 136.379C148.191 135.675 150.119 135.323 152.471 135.323C154.823 135.323 156.743 135.675 158.231 136.379C159.639 137.067 160.343 137.955 160.343 139.043C160.343 139.603 160.159 140.115 159.791 140.579C159.263 141.251 158.367 141.779 157.103 142.163C155.855 142.547 154.311 142.739 152.471 142.739C151.239 142.739 150.135 142.651 149.159 142.475C148.183 142.299 147.359 142.051 146.687 141.731C146.015 141.411 145.495 141.027 145.127 140.579C144.775 140.115 144.599 139.603 144.599 139.043ZM157.031 139.787C157.271 139.579 157.391 139.331 157.391 139.043C157.391 138.755 157.271 138.499 157.031 138.275C156.791 138.051 156.455 137.867 156.023 137.723C155.591 137.563 155.071 137.443 154.463 137.363C153.855 137.283 153.191 137.243 152.471 137.243C150.983 137.243 149.791 137.403 148.895 137.723C147.999 138.027 147.551 138.467 147.551 139.043C147.551 139.315 147.671 139.563 147.911 139.787C148.151 139.995 148.487 140.179 148.919 140.339C149.351 140.483 149.871 140.603 150.479 140.699C151.087 140.779 151.751 140.819 152.471 140.819C153.575 140.819 154.519 140.731 155.303 140.555C156.103 140.363 156.679 140.107 157.031 139.787ZM162.383 146.099H142.583V143.939H162.383V146.099ZM160.367 156.803H145.703C145.447 156.803 145.271 156.755 145.175 156.659C145.079 156.563 145.031 156.387 145.031 156.131V151.907C145.031 151.667 145.079 151.499 145.175 151.403C145.271 151.291 145.447 151.235 145.703 151.235H156.839V149.627H145.031V147.587H159.239C159.687 147.587 159.911 147.811 159.911 148.259V152.411C159.911 152.667 159.855 152.843 159.743 152.939C159.647 153.035 159.479 153.083 159.239 153.083H148.103V154.787H160.367V156.803ZM182.113 146.003C181.633 145.827 181.145 145.603 180.649 145.331C180.153 145.059 179.689 144.763 179.257 144.443C178.809 144.123 178.409 143.795 178.057 143.459C177.721 143.123 177.473 142.811 177.313 142.523C177.185 142.843 176.961 143.187 176.641 143.555C176.337 143.923 175.961 144.283 175.513 144.635C175.017 145.035 174.497 145.395 173.953 145.715C173.425 146.019 172.865 146.299 172.273 146.555L170.449 144.707C174.065 143.539 175.873 141.499 175.873 138.587H171.985V136.355H182.665V138.587H178.729C178.729 139.323 178.849 139.987 179.089 140.579C179.345 141.155 179.697 141.667 180.145 142.115C181.057 143.027 182.225 143.683 183.649 144.083L182.113 146.003ZM188.305 146.699H185.569V135.467H188.305V139.427H191.041V141.731H188.305V146.699ZM188.785 156.803H174.937C174.681 156.803 174.505 156.755 174.409 156.659C174.313 156.563 174.265 156.387 174.265 156.131V151.883C174.265 151.643 174.313 151.475 174.409 151.379C174.505 151.267 174.681 151.211 174.937 151.211H185.425V149.675H174.265V147.563H187.633C188.081 147.563 188.305 147.787 188.305 148.235V152.435C188.305 152.691 188.249 152.867 188.137 152.963C188.041 153.059 187.873 153.107 187.633 153.107H177.169V154.691H188.785V156.803ZM215.836 146.579H213.1V135.467H215.836V139.283H218.572V141.587H215.836V146.579ZM216.292 156.803H202.444C202.188 156.803 202.012 156.755 201.916 156.659C201.82 156.563 201.772 156.387 201.772 156.131V151.835C201.772 151.595 201.82 151.427 201.916 151.331C202.012 151.219 202.188 151.163 202.444 151.163H212.932V149.555H201.772V147.443H215.14C215.588 147.443 215.812 147.667 215.812 148.115V152.387C215.812 152.643 215.756 152.819 215.644 152.915C215.548 153.011 215.38 153.059 215.14 153.059H204.676V154.691H216.292V156.803ZM209.764 142.955C209.492 143.595 209.108 144.139 208.612 144.587C208.116 145.051 207.524 145.411 206.836 145.667C206.148 145.923 205.396 146.051 204.58 146.051C203.764 146.051 203.004 145.923 202.3 145.667C201.612 145.411 201.02 145.051 200.524 144.587C200.028 144.123 199.636 143.579 199.348 142.955C199.076 142.315 198.94 141.611 198.94 140.843C198.94 140.123 199.076 139.451 199.348 138.827C199.636 138.187 200.028 137.635 200.524 137.171C201.02 136.707 201.612 136.339 202.3 136.067C203.004 135.795 203.764 135.659 204.58 135.659C205.396 135.659 206.148 135.795 206.836 136.067C207.524 136.339 208.116 136.707 208.612 137.171C209.108 137.635 209.492 138.187 209.764 138.827C210.036 139.451 210.172 140.123 210.172 140.843C210.172 141.531 210.036 142.235 209.764 142.955ZM204.58 143.747C205.444 143.747 206.14 143.467 206.668 142.907C207.196 142.347 207.46 141.659 207.46 140.843C207.46 140.027 207.196 139.347 206.668 138.803C206.14 138.259 205.444 137.987 204.58 137.987C203.668 137.987 202.948 138.259 202.42 138.803C201.908 139.347 201.652 140.027 201.652 140.843C201.652 141.659 201.908 142.347 202.42 142.907C202.948 143.467 203.668 143.747 204.58 143.747ZM226.83 149.627C227.214 149.291 227.51 148.883 227.718 148.403C227.958 147.875 228.134 147.259 228.246 146.555C228.374 145.835 228.438 145.059 228.438 144.227C228.438 143.411 228.374 142.651 228.246 141.947C228.134 141.227 227.958 140.611 227.718 140.099C227.494 139.587 227.198 139.187 226.83 138.899C226.478 138.595 226.062 138.443 225.582 138.443C225.086 138.443 224.654 138.595 224.286 138.899C223.934 139.187 223.646 139.587 223.422 140.099C223.182 140.611 223.006 141.227 222.894 141.947C222.782 142.651 222.726 143.411 222.726 144.227C222.726 145.059 222.782 145.835 222.894 146.555C223.006 147.259 223.182 147.875 223.422 148.403C223.646 148.915 223.934 149.323 224.286 149.627C224.654 149.915 225.086 150.059 225.582 150.059C226.046 150.059 226.462 149.915 226.83 149.627ZM229.59 138.011C230.63 139.339 231.15 141.419 231.15 144.251C231.134 147.083 230.606 149.163 229.566 150.491C228.526 151.819 227.198 152.483 225.582 152.483C223.95 152.483 222.614 151.819 221.574 150.491C220.534 149.163 220.014 147.083 220.014 144.251C220.014 141.419 220.534 139.339 221.574 138.011C222.614 136.683 223.95 136.019 225.582 136.019C227.214 136.019 228.55 136.683 229.59 138.011ZM236.598 156.947H233.886V135.467H236.598V142.763H239.526V145.235H236.598V156.947ZM257.551 145.547C256.879 145.387 256.183 145.179 255.463 144.923C254.759 144.667 254.071 144.355 253.399 143.987C252.727 143.635 252.103 143.227 251.527 142.763C250.967 142.283 250.495 141.755 250.111 141.179C249.439 142.187 248.487 143.059 247.255 143.795C246.039 144.531 244.535 145.115 242.743 145.547L240.895 143.579C241.855 143.371 242.759 143.115 243.607 142.811C244.471 142.507 245.239 142.147 245.911 141.731C246.599 141.299 247.167 140.811 247.615 140.267C248.079 139.723 248.391 139.107 248.551 138.419H242.431V136.139H257.767V138.419H251.647C251.791 139.091 252.087 139.707 252.535 140.267C252.999 140.811 253.575 141.299 254.263 141.731C254.935 142.163 255.695 142.539 256.543 142.859C257.407 143.179 258.303 143.435 259.231 143.627L257.551 145.547ZM260.023 149.723H251.575V156.947H248.815V149.723H240.223V147.443H260.023V149.723ZM278.793 143.171H264.273C264.017 143.171 263.841 143.123 263.745 143.027C263.665 142.931 263.625 142.755 263.625 142.499V135.515H266.385V140.891H278.793V143.171ZM280.953 148.067H261.153V145.763H280.953V148.067ZM279.201 156.539H264.273C264.017 156.539 263.841 156.491 263.745 156.395C263.665 156.299 263.625 156.123 263.625 155.867V149.747H266.361V154.235H279.201V156.539ZM303.54 151.235C303.172 151.299 302.7 151.371 302.124 151.451C301.564 151.515 300.948 151.579 300.276 151.643C299.604 151.707 298.908 151.771 298.188 151.835C297.468 151.883 296.772 151.907 296.1 151.907C295.908 151.907 295.556 151.915 295.044 151.931C294.548 151.931 294.036 151.931 293.508 151.931H291.396C291.14 151.931 290.964 151.883 290.868 151.787C290.772 151.691 290.724 151.515 290.724 151.259V143.675C290.724 143.435 290.772 143.267 290.868 143.171C290.964 143.059 291.14 143.003 291.396 143.003H298.068V138.803H290.724V136.499H300.06C300.508 136.499 300.732 136.723 300.732 137.171V144.587C300.732 144.843 300.676 145.019 300.564 145.115C300.468 145.211 300.3 145.259 300.06 145.259H293.46V149.627L296.748 149.603C297.276 149.603 297.852 149.579 298.476 149.531C299.116 149.483 299.748 149.427 300.372 149.363C300.996 149.299 301.58 149.235 302.124 149.171C302.684 149.091 303.156 149.011 303.54 148.931V151.235ZM307.092 156.923H304.356V135.467H307.092V156.923ZM327.277 148.259C326.509 148.019 325.741 147.691 324.973 147.275C324.205 146.843 323.485 146.363 322.813 145.835C322.141 145.307 321.541 144.747 321.013 144.155C320.501 143.563 320.109 142.979 319.837 142.403C319.165 143.699 318.221 144.851 317.005 145.859C315.789 146.851 314.285 147.659 312.493 148.283L310.597 146.243C311.701 145.923 312.725 145.499 313.669 144.971C314.629 144.427 315.453 143.811 316.141 143.123C316.861 142.403 317.413 141.635 317.797 140.819C318.197 139.987 318.397 139.107 318.397 138.179V136.187H321.325V138.179C321.309 139.107 321.517 140.003 321.949 140.867C322.397 141.715 322.981 142.499 323.701 143.219C324.421 143.939 325.245 144.571 326.173 145.115C327.101 145.643 328.053 146.035 329.029 146.291L327.277 148.259ZM329.797 154.307H309.949V152.003H329.797V154.307ZM344.511 150.851C344.175 150.931 343.751 151.019 343.239 151.115C342.727 151.211 342.167 151.299 341.559 151.379C340.951 151.459 340.311 151.531 339.639 151.595C338.983 151.643 338.319 151.667 337.647 151.667L333.303 151.691C333.047 151.691 332.871 151.643 332.775 151.547C332.695 151.451 332.655 151.275 332.655 151.019V136.355H335.367V149.363L337.695 149.339C338.191 149.339 338.743 149.315 339.351 149.267C339.959 149.219 340.567 149.155 341.175 149.075C341.799 149.011 342.391 148.931 342.951 148.835C343.527 148.739 344.047 148.643 344.511 148.547V150.851ZM348.903 156.947H346.167V143.723H340.503V141.395H346.167V135.467H348.903V156.947ZM369.449 143.963H354.977C354.721 143.963 354.545 143.915 354.449 143.819C354.353 143.723 354.305 143.547 354.305 143.291V139.691C354.305 139.451 354.353 139.283 354.449 139.187C354.545 139.075 354.721 139.019 354.977 139.019H366.137V137.723H354.305V135.851H368.393C368.841 135.851 369.065 136.075 369.065 136.523V140.123C369.065 140.379 369.009 140.555 368.897 140.651C368.801 140.747 368.633 140.795 368.393 140.795H357.233V142.091H369.449V143.963ZM371.633 147.203H351.833V145.259H371.633V147.203ZM369.641 156.803H355.001C354.745 156.803 354.569 156.755 354.473 156.659C354.377 156.563 354.329 156.387 354.329 156.131V152.483C354.329 152.243 354.377 152.075 354.473 151.979C354.569 151.867 354.745 151.811 355.001 151.811H366.209V150.467H354.329V148.595H368.441C368.889 148.595 369.113 148.819 369.113 149.267V152.891C369.113 153.147 369.057 153.323 368.945 153.419C368.849 153.515 368.681 153.563 368.441 153.563H357.257V154.931H369.641V156.803ZM392.755 146.819C392.179 146.387 391.667 145.931 391.219 145.451C390.771 144.955 390.371 144.387 390.019 143.747C389.731 144.355 389.339 144.939 388.843 145.499C388.347 146.059 387.811 146.563 387.235 147.011C386.675 146.595 386.147 146.123 385.651 145.595C385.171 145.051 384.739 144.435 384.355 143.747C384.019 144.419 383.595 145.043 383.083 145.619C382.587 146.179 382.067 146.683 381.523 147.131L379.363 145.499C380.515 144.763 381.411 143.923 382.051 142.979C382.707 142.035 383.035 140.963 383.035 139.763V138.635H380.803V136.379H387.043V138.635H385.627V139.763C385.627 140.675 385.795 141.483 386.131 142.187C386.467 142.891 386.827 143.451 387.211 143.867C387.643 143.419 388.003 142.827 388.291 142.091C388.595 141.339 388.747 140.555 388.747 139.739V138.635H387.355V136.379H393.619V138.635H391.387V139.691C391.387 140.891 391.667 141.955 392.227 142.883C392.803 143.811 393.547 144.515 394.459 144.995L392.755 146.819ZM398.443 147.899H395.755V135.467H398.443V147.899ZM395.731 154.475V151.019H386.587V154.475H395.731ZM398.443 156.011C398.443 156.267 398.387 156.443 398.275 156.539C398.179 156.635 398.011 156.683 397.771 156.683H384.571C384.315 156.683 384.139 156.635 384.043 156.539C383.947 156.443 383.899 156.267 383.899 156.011V149.435C383.899 149.195 383.947 149.027 384.043 148.931C384.139 148.819 384.315 148.763 384.571 148.763H397.771C398.219 148.763 398.443 148.987 398.443 149.435V156.011ZM418.582 141.731H408.118V139.451H418.582V141.731ZM416.35 138.131H410.278V135.947H416.35V138.131ZM413.35 152.771C411.91 152.771 410.742 152.323 409.846 151.427C408.982 150.515 408.55 149.323 408.55 147.851C408.55 146.363 408.998 145.171 409.894 144.275C410.79 143.379 411.942 142.931 413.35 142.931C414.742 142.931 415.886 143.379 416.782 144.275C417.694 145.171 418.15 146.363 418.15 147.851C418.15 149.355 417.71 150.547 416.83 151.427C415.934 152.323 414.774 152.771 413.35 152.771ZM413.35 150.587C413.99 150.587 414.51 150.331 414.91 149.819C415.326 149.291 415.534 148.635 415.534 147.851C415.534 147.083 415.326 146.435 414.91 145.907C414.51 145.379 413.99 145.115 413.35 145.115C412.678 145.115 412.142 145.379 411.742 145.907C411.358 146.435 411.166 147.083 411.166 147.851C411.166 148.635 411.358 149.291 411.742 149.819C412.142 150.331 412.678 150.587 413.35 150.587ZM426.622 156.947H424.006V146.315H422.134V155.939H419.518V135.827H422.134V143.651H424.006V135.467H426.622V156.947ZM443.112 145.643V141.875H433.776V145.643H443.112ZM448.368 154.571H428.52V152.267H437.016V147.947H431.688C431.432 147.947 431.256 147.899 431.16 147.803C431.08 147.707 431.04 147.531 431.04 147.275V136.091H433.776V139.595H443.112V136.091H445.824V147.275C445.824 147.531 445.768 147.707 445.656 147.803C445.56 147.899 445.392 147.947 445.152 147.947H439.824V152.267H448.368V154.571ZM458.497 152.291C457.681 151.619 456.953 150.843 456.313 149.963C455.689 149.067 455.225 148.163 454.921 147.251C454.809 147.715 454.625 148.203 454.369 148.715C454.129 149.211 453.833 149.699 453.481 150.179C453.129 150.675 452.745 151.155 452.329 151.619C451.913 152.067 451.489 152.475 451.057 152.843L448.753 151.211C449.633 150.587 450.377 149.891 450.985 149.123C451.593 148.355 452.081 147.523 452.449 146.627C452.833 145.731 453.105 144.779 453.265 143.771C453.441 142.747 453.529 141.683 453.529 140.579V136.307H456.385V140.747C456.369 143.019 456.689 144.963 457.345 146.579C458.001 148.179 459.081 149.515 460.585 150.587L458.497 152.291ZM468.265 156.947H465.649V135.467H468.265V156.947ZM464.065 155.939H461.425V144.203H458.089V141.683H461.425V135.827H464.065V155.939ZM483.579 136.355C484.555 136.675 485.355 137.099 485.979 137.627C486.651 138.155 487.155 138.787 487.491 139.523C487.827 140.243 487.995 141.019 487.995 141.851C487.995 143.595 487.323 145.003 485.979 146.075C485.307 146.603 484.499 147.019 483.555 147.323C482.611 147.611 481.531 147.755 480.315 147.755C479.067 147.755 477.971 147.611 477.027 147.323C476.099 147.019 475.299 146.603 474.627 146.075C473.283 145.019 472.611 143.611 472.611 141.851C472.611 141.019 472.771 140.243 473.091 139.523C473.427 138.787 473.931 138.155 474.603 137.627C475.275 137.083 476.083 136.659 477.027 136.355C477.971 136.051 479.067 135.899 480.315 135.899C481.595 135.899 482.683 136.051 483.579 136.355ZM483.747 144.539C484.659 143.899 485.115 143.003 485.115 141.851C485.115 140.715 484.659 139.819 483.747 139.163C482.803 138.507 481.659 138.179 480.315 138.179C479.611 138.179 478.963 138.267 478.371 138.443C477.795 138.603 477.291 138.843 476.859 139.163C476.443 139.467 476.115 139.851 475.875 140.315C475.635 140.763 475.515 141.275 475.515 141.851C475.515 142.427 475.635 142.939 475.875 143.387C476.115 143.835 476.443 144.219 476.859 144.539C477.291 144.843 477.795 145.075 478.371 145.235C478.963 145.395 479.611 145.475 480.315 145.475C481.691 145.475 482.835 145.163 483.747 144.539ZM490.203 154.571H470.379V152.267H474.963V147.995H477.723V152.267H482.955V147.995H485.667V152.267H490.203V154.571ZM495.509 151.043H493.037L492.677 135.731H495.845L495.509 151.043ZM495.893 155.411H492.653V152.363H495.893V155.411Z" fill="#595062"/>
<path d="M87.7678 186.589V179.771H85.0378V186.589H87.7678ZM88.6078 187.079C88.6078 187.191 88.5892 187.266 88.5518 187.303C88.5145 187.331 88.4492 187.345 88.3558 187.345H84.4638C84.3518 187.345 84.2772 187.331 84.2398 187.303C84.2118 187.266 84.1978 187.191 84.1978 187.079V179.295C84.1978 179.193 84.2118 179.123 84.2398 179.085C84.2772 179.048 84.3518 179.029 84.4638 179.029H88.3558C88.4492 179.029 88.5145 179.048 88.5518 179.085C88.5892 179.123 88.6078 179.193 88.6078 179.295V187.079ZM93.6758 190.579H92.7798V183.369H90.9598V189.991H90.0638V178.357H90.9598V182.557H92.7798V178.147H93.6758V190.579ZM101.433 178.889H97.8488V178.147H101.433V178.889ZM102.931 185.049C102.137 184.741 101.461 184.349 100.901 183.873C100.35 183.388 99.9208 182.865 99.6128 182.305C99.2955 183.005 98.8615 183.645 98.3108 184.223C97.7695 184.802 97.1162 185.259 96.3508 185.595L95.6368 184.979C96.1875 184.774 96.6682 184.522 97.0788 184.223C97.4895 183.925 97.8395 183.593 98.1288 183.229C98.4182 182.865 98.6422 182.478 98.8008 182.067C98.9688 181.647 99.0808 181.213 99.1368 180.765H96.4348V180.037H102.833V180.765H100.047C100.093 181.521 100.397 182.221 100.957 182.865C101.535 183.528 102.385 184.051 103.505 184.433L102.931 185.049ZM105.969 185.861H105.073V178.133H105.969V185.861ZM100.215 190.607C99.7015 190.486 99.2628 190.318 98.8988 190.103C98.5442 189.879 98.2735 189.618 98.0868 189.319C97.9095 189.03 97.8208 188.717 97.8208 188.381C97.8208 188.055 97.9095 187.747 98.0868 187.457C98.2735 187.159 98.5442 186.902 98.8988 186.687C99.2628 186.463 99.7015 186.286 100.215 186.155C100.737 186.025 101.335 185.959 102.007 185.959C102.679 185.959 103.276 186.025 103.799 186.155C104.321 186.286 104.76 186.463 105.115 186.687C105.469 186.902 105.735 187.159 105.913 187.457C106.099 187.747 106.193 188.055 106.193 188.381C106.193 189.053 105.833 189.623 105.115 190.089C104.396 190.565 103.36 190.803 102.007 190.803C101.68 190.803 101.367 190.785 101.069 190.747C100.77 190.719 100.485 190.673 100.215 190.607ZM105.241 188.395C105.241 187.882 104.937 187.471 104.331 187.163C103.733 186.846 102.959 186.687 102.007 186.687C101.531 186.687 101.097 186.729 100.705 186.813C100.313 186.897 99.9768 187.014 99.6968 187.163C99.4075 187.313 99.1788 187.495 99.0108 187.709C98.8522 187.915 98.7728 188.143 98.7728 188.395C98.7728 188.647 98.8522 188.876 99.0108 189.081C99.1788 189.287 99.4075 189.464 99.6968 189.613C99.9862 189.763 100.322 189.875 100.705 189.949C101.097 190.033 101.531 190.075 102.007 190.075C102.483 190.075 102.917 190.033 103.309 189.949C103.701 189.875 104.037 189.763 104.317 189.613C104.606 189.464 104.83 189.287 104.989 189.081C105.157 188.876 105.241 188.647 105.241 188.395ZM116.89 185.189C116.675 185.227 116.353 185.269 115.924 185.315C115.494 185.353 115.009 185.395 114.468 185.441C113.926 185.479 113.352 185.511 112.746 185.539C112.139 185.567 111.542 185.581 110.954 185.581H108.126V184.825H111.906V182.753H109.498C109.395 182.753 109.325 182.735 109.288 182.697C109.25 182.651 109.232 182.581 109.232 182.487V178.945C109.232 178.861 109.25 178.796 109.288 178.749C109.325 178.703 109.395 178.679 109.498 178.679H115.588V179.393H110.1V182.039H115.784V182.753H112.788V184.783C113.002 184.783 113.287 184.774 113.642 184.755C114.006 184.737 114.388 184.713 114.79 184.685C115.191 184.657 115.578 184.625 115.952 184.587C116.325 184.541 116.638 184.494 116.89 184.447V185.189ZM118.15 187.737H117.254V178.147H118.15V187.737ZM118.374 190.313H110.45C110.347 190.313 110.277 190.295 110.24 190.257C110.202 190.22 110.184 190.15 110.184 190.047V186.785H111.108V189.557H118.374V190.313ZM132.739 186.995C132.553 187.033 132.305 187.075 131.997 187.121C131.699 187.168 131.353 187.215 130.961 187.261C130.588 187.308 130.191 187.35 129.771 187.387C129.361 187.425 128.959 187.448 128.567 187.457C128.175 187.476 127.793 187.49 127.419 187.499C127.046 187.499 126.71 187.499 126.411 187.499H125.333C125.231 187.499 125.161 187.481 125.123 187.443C125.086 187.397 125.067 187.327 125.067 187.233V182.991C125.067 182.907 125.086 182.842 125.123 182.795C125.161 182.749 125.231 182.725 125.333 182.725H129.729V179.561H125.067V178.805H130.317C130.495 178.805 130.583 178.894 130.583 179.071V183.201C130.583 183.379 130.495 183.467 130.317 183.467H125.949V186.701L128.287 186.673C128.707 186.673 129.137 186.655 129.575 186.617C130.023 186.58 130.457 186.538 130.877 186.491C131.279 186.435 131.643 186.384 131.969 186.337C132.305 186.291 132.562 186.249 132.739 186.211V186.995ZM134.181 190.579H133.285V178.147H134.181V190.579ZM146.306 185.413C145.821 185.227 145.345 184.998 144.878 184.727C144.421 184.457 143.996 184.149 143.604 183.803C143.203 183.467 142.848 183.099 142.54 182.697C142.232 182.296 141.994 181.857 141.826 181.381C141.658 181.811 141.425 182.226 141.126 182.627C140.837 183.019 140.496 183.388 140.104 183.733C139.712 184.088 139.278 184.41 138.802 184.699C138.336 184.979 137.846 185.222 137.332 185.427L136.576 184.699C137.164 184.522 137.743 184.27 138.312 183.943C138.891 183.607 139.404 183.215 139.852 182.767C140.3 182.319 140.66 181.834 140.93 181.311C141.21 180.779 141.35 180.233 141.35 179.673V178.707H142.26V179.673C142.26 180.261 142.405 180.821 142.694 181.353C142.984 181.876 143.357 182.361 143.814 182.809C144.272 183.257 144.78 183.645 145.34 183.971C145.91 184.298 146.465 184.541 147.006 184.699L146.306 185.413ZM147.538 188.745H136.086V187.989H147.538V188.745ZM156.569 186.743C156.364 186.79 156.107 186.841 155.799 186.897C155.491 186.944 155.16 186.991 154.805 187.037C154.441 187.084 154.068 187.131 153.685 187.177C153.312 187.215 152.957 187.238 152.621 187.247C152.201 187.266 151.819 187.28 151.473 187.289C151.128 187.289 150.829 187.289 150.577 187.289C150.325 187.299 150.125 187.303 149.975 187.303C149.835 187.294 149.761 187.289 149.751 187.289C149.649 187.289 149.579 187.271 149.541 187.233C149.504 187.187 149.485 187.117 149.485 187.023V178.707H150.395V186.463L152.663 186.435C152.962 186.426 153.293 186.403 153.657 186.365C154.021 186.328 154.381 186.281 154.735 186.225C155.099 186.179 155.44 186.127 155.757 186.071C156.084 186.015 156.355 185.964 156.569 185.917V186.743ZM158.529 190.579H157.633V182.725H154.035V181.969H157.633V178.147H158.529V190.579ZM169.072 187.471C168.858 187.509 168.582 187.546 168.246 187.583C167.92 187.621 167.546 187.653 167.126 187.681C166.706 187.719 166.268 187.747 165.81 187.765C165.362 187.784 164.914 187.793 164.466 187.793L160.658 187.821V187.065H164.172V184.447C163.743 184.41 163.351 184.307 162.996 184.139C162.651 183.971 162.352 183.757 162.1 183.495C161.858 183.234 161.666 182.931 161.526 182.585C161.396 182.24 161.33 181.871 161.33 181.479C161.33 181.05 161.405 180.653 161.554 180.289C161.713 179.916 161.937 179.599 162.226 179.337C162.506 179.067 162.842 178.857 163.234 178.707C163.636 178.558 164.079 178.483 164.564 178.483C165.04 178.483 165.474 178.558 165.866 178.707C166.258 178.857 166.594 179.067 166.874 179.337C167.164 179.599 167.388 179.916 167.546 180.289C167.705 180.653 167.784 181.05 167.784 181.479C167.784 182.291 167.528 182.968 167.014 183.509C166.492 184.041 165.829 184.349 165.026 184.433V187.009H165.46C165.722 187.009 166.016 187.005 166.342 186.995C166.678 186.977 167.01 186.953 167.336 186.925C167.663 186.897 167.976 186.865 168.274 186.827C168.582 186.79 168.848 186.748 169.072 186.701V187.471ZM164.55 183.705C165.288 183.705 165.857 183.491 166.258 183.061C166.678 182.632 166.888 182.1 166.888 181.465C166.888 181.157 166.832 180.868 166.72 180.597C166.618 180.327 166.464 180.093 166.258 179.897C166.062 179.701 165.82 179.547 165.53 179.435C165.241 179.323 164.914 179.267 164.55 179.267C164.186 179.267 163.86 179.323 163.57 179.435C163.29 179.547 163.052 179.701 162.856 179.897C162.66 180.093 162.511 180.327 162.408 180.597C162.306 180.868 162.254 181.157 162.254 181.465C162.254 181.792 162.306 182.091 162.408 182.361C162.511 182.632 162.66 182.87 162.856 183.075C163.052 183.271 163.29 183.425 163.57 183.537C163.86 183.649 164.186 183.705 164.55 183.705ZM170.388 190.593H169.492V178.147H170.388V183.187H172.236V183.985H170.388V190.593ZM182.654 186.687C182.392 187.079 182.075 187.373 181.702 187.569C181.338 187.765 180.941 187.863 180.512 187.863C180.073 187.863 179.672 187.765 179.308 187.569C178.944 187.373 178.631 187.079 178.37 186.687C178.108 186.295 177.903 185.805 177.754 185.217C177.604 184.629 177.53 183.943 177.53 183.159C177.53 182.375 177.604 181.689 177.754 181.101C177.903 180.513 178.108 180.023 178.37 179.631C178.631 179.239 178.944 178.945 179.308 178.749C179.672 178.553 180.073 178.455 180.512 178.455C180.941 178.455 181.338 178.553 181.702 178.749C182.075 178.945 182.392 179.239 182.654 179.631C182.915 180.023 183.12 180.513 183.27 181.101C183.419 181.689 183.494 182.375 183.494 183.159C183.494 183.953 183.419 184.643 183.27 185.231C183.12 185.81 182.915 186.295 182.654 186.687ZM182.472 184.797C182.574 184.2 182.626 183.654 182.626 183.159C182.607 181.974 182.411 181.022 182.038 180.303C181.655 179.585 181.146 179.225 180.512 179.225C179.868 179.225 179.354 179.585 178.972 180.303C178.589 181.022 178.398 181.974 178.398 183.159C178.398 183.766 178.444 184.312 178.538 184.797C178.64 185.273 178.785 185.684 178.972 186.029C179.158 186.375 179.378 186.641 179.63 186.827C179.891 187.005 180.185 187.093 180.512 187.093C180.988 187.093 181.398 186.893 181.744 186.491C182.089 186.09 182.332 185.525 182.472 184.797ZM187.092 190.579H186.196V178.147H187.092V190.579ZM195.339 187.023C195.217 187.042 195.049 187.065 194.835 187.093C194.629 187.121 194.396 187.145 194.135 187.163C193.883 187.191 193.617 187.215 193.337 187.233C193.066 187.252 192.814 187.266 192.581 187.275C192.273 187.294 191.988 187.308 191.727 187.317C191.475 187.317 191.251 187.317 191.055 187.317C190.859 187.327 190.7 187.331 190.579 187.331C190.457 187.322 190.392 187.317 190.383 187.317C190.28 187.317 190.21 187.299 190.173 187.261C190.135 187.215 190.117 187.145 190.117 187.051V179.281C190.117 179.197 190.135 179.132 190.173 179.085C190.21 179.039 190.28 179.015 190.383 179.015H194.373V179.757H190.985V186.519L192.707 186.477C192.875 186.477 193.08 186.468 193.323 186.449C193.575 186.431 193.827 186.407 194.079 186.379C194.331 186.361 194.569 186.337 194.793 186.309C195.017 186.281 195.199 186.253 195.339 186.225V187.023ZM199.469 190.579H198.573V183.663H196.753V189.991H195.857V178.357H196.753V182.851H198.573V178.147H199.469V190.579ZM212.644 188.899H201.192V188.143H206.47V185.623H203.054C202.951 185.623 202.881 185.6 202.844 185.553C202.806 185.507 202.788 185.437 202.788 185.343V182.123C202.788 182.039 202.806 181.979 202.844 181.941C202.881 181.895 202.951 181.871 203.054 181.871H209.97V179.519H202.746V178.791H210.586C210.763 178.791 210.852 178.88 210.852 179.057V182.333C210.852 182.511 210.763 182.599 210.586 182.599H203.656V184.895H211.356V185.623H207.338V188.143H212.644V188.899ZM223.873 181.255H217.937V180.499H223.873V181.255ZM222.529 179.295H219.281V178.525H222.529V179.295ZM222.809 187.177C222.352 187.691 221.722 187.947 220.919 187.947C220.509 187.947 220.145 187.882 219.827 187.751C219.51 187.611 219.239 187.42 219.015 187.177C218.791 186.935 218.619 186.645 218.497 186.309C218.385 185.973 218.329 185.6 218.329 185.189C218.329 184.779 218.39 184.405 218.511 184.069C218.633 183.724 218.805 183.43 219.029 183.187C219.253 182.945 219.524 182.758 219.841 182.627C220.168 182.487 220.527 182.417 220.919 182.417C221.311 182.417 221.666 182.487 221.983 182.627C222.31 182.758 222.585 182.945 222.809 183.187C223.033 183.43 223.206 183.724 223.327 184.069C223.449 184.405 223.509 184.779 223.509 185.189C223.509 185.992 223.276 186.655 222.809 187.177ZM220.919 187.205C221.451 187.205 221.871 187.019 222.179 186.645C222.497 186.263 222.655 185.777 222.655 185.189C222.655 184.9 222.613 184.634 222.529 184.391C222.455 184.139 222.343 183.925 222.193 183.747C222.053 183.561 221.876 183.416 221.661 183.313C221.447 183.211 221.199 183.159 220.919 183.159C220.639 183.159 220.392 183.211 220.177 183.313C219.963 183.416 219.781 183.561 219.631 183.747C219.482 183.925 219.37 184.139 219.295 184.391C219.221 184.634 219.183 184.9 219.183 185.189C219.183 185.777 219.333 186.263 219.631 186.645C219.93 187.019 220.359 187.205 220.919 187.205ZM228.297 190.579H227.415V178.147H228.297V190.579ZM226.015 189.991H225.147V184.097H223.635V183.285H225.147V178.357H226.015V189.991ZM239.988 190.579H239.092V183.397H236.306C236.269 184.909 235.984 186.034 235.452 186.771C234.92 187.499 234.23 187.863 233.38 187.863C232.942 187.863 232.54 187.765 232.176 187.569C231.822 187.373 231.514 187.079 231.252 186.687C230.991 186.295 230.786 185.805 230.636 185.217C230.496 184.629 230.426 183.943 230.426 183.159C230.426 182.375 230.496 181.689 230.636 181.101C230.786 180.513 230.991 180.023 231.252 179.631C231.514 179.239 231.822 178.945 232.176 178.749C232.54 178.553 232.942 178.455 233.38 178.455C234.192 178.455 234.864 178.805 235.396 179.505C235.928 180.196 236.227 181.241 236.292 182.641H239.092V178.147H239.988V190.579ZM234.598 186.491C234.925 186.081 235.158 185.516 235.298 184.797C235.392 184.415 235.438 183.869 235.438 183.159C235.42 181.955 235.233 181.003 234.878 180.303C234.524 179.585 234.024 179.225 233.38 179.225C232.746 179.225 232.237 179.585 231.854 180.303C231.481 181.013 231.294 181.965 231.294 183.159C231.294 183.766 231.341 184.312 231.434 184.797C231.537 185.273 231.677 185.684 231.854 186.029C232.032 186.375 232.246 186.641 232.498 186.827C232.76 187.005 233.054 187.093 233.38 187.093C233.875 187.093 234.281 186.893 234.598 186.491ZM249.453 187.667C248.697 187.163 248.025 186.557 247.437 185.847C246.849 185.129 246.401 184.331 246.093 183.453C245.813 184.387 245.375 185.241 244.777 186.015C244.189 186.781 243.527 187.448 242.789 188.017L241.949 187.401C243.172 186.645 244.091 185.712 244.707 184.601C245.323 183.491 245.631 182.175 245.631 180.653V179.659H242.873V178.903H249.383V179.659H246.541V180.933C246.541 182.193 246.821 183.327 247.381 184.335C247.951 185.343 248.879 186.23 250.167 186.995L249.453 187.667ZM252.505 190.579H251.609V178.147H252.505V190.579ZM254.564 187.275C256.16 186.454 257.378 185.418 258.218 184.167C259.058 182.917 259.581 181.414 259.786 179.659H255.348V178.903H260.458C260.636 178.903 260.724 178.992 260.724 179.169C260.584 181.008 260.08 182.651 259.212 184.097C258.354 185.544 257.08 186.804 255.39 187.877L254.564 187.275ZM264.434 190.579H263.538V178.161H264.434V190.579ZM275.958 186.687C275.696 187.079 275.384 187.373 275.02 187.569C274.656 187.765 274.259 187.863 273.83 187.863C273.391 187.863 272.99 187.765 272.626 187.569C272.271 187.373 271.963 187.079 271.702 186.687C271.44 186.295 271.235 185.805 271.086 185.217C270.946 184.629 270.876 183.943 270.876 183.159C270.876 182.375 270.946 181.689 271.086 181.101C271.235 180.513 271.44 180.023 271.702 179.631C271.963 179.239 272.271 178.945 272.626 178.749C272.99 178.553 273.391 178.455 273.83 178.455C274.259 178.455 274.656 178.553 275.02 178.749C275.384 178.945 275.696 179.239 275.958 179.631C276.219 180.023 276.42 180.513 276.56 181.101C276.709 181.689 276.784 182.375 276.784 183.159C276.784 183.953 276.709 184.643 276.56 185.231C276.42 185.81 276.219 186.295 275.958 186.687ZM275.916 183.159C275.897 181.955 275.706 181.003 275.342 180.303C274.978 179.585 274.474 179.225 273.83 179.225C273.195 179.225 272.686 179.585 272.304 180.303C271.93 181.013 271.744 181.965 271.744 183.159C271.744 183.766 271.79 184.312 271.884 184.797C271.986 185.273 272.126 185.684 272.304 186.029C272.481 186.375 272.696 186.641 272.948 186.827C273.209 187.005 273.503 187.093 273.83 187.093C274.315 187.093 274.721 186.893 275.048 186.491C275.384 186.09 275.622 185.525 275.762 184.797C275.864 184.2 275.916 183.654 275.916 183.159ZM280.102 190.593H279.178V178.147H280.102V182.613H282.034V183.397H280.102V190.593ZM290.309 181.983C289.637 181.797 289.039 181.549 288.517 181.241C287.994 180.924 287.593 180.513 287.313 180.009C287.005 180.541 286.599 180.989 286.095 181.353C285.591 181.708 284.956 182.007 284.191 182.249L283.463 181.605C283.948 181.484 284.396 181.335 284.807 181.157C285.227 180.971 285.586 180.751 285.885 180.499C286.193 180.247 286.431 179.963 286.599 179.645C286.776 179.328 286.865 178.973 286.865 178.581V178.301H287.761V178.609C287.761 179.309 288.036 179.883 288.587 180.331C289.137 180.779 289.907 181.106 290.897 181.311L290.309 181.983ZM293.109 185.301H292.213V178.147H293.109V185.301ZM291.793 183.467C291.541 183.505 291.223 183.547 290.841 183.593C290.467 183.631 290.071 183.663 289.651 183.691C289.231 183.729 288.806 183.757 288.377 183.775C287.947 183.794 287.56 183.803 287.215 183.803V185.329H286.347V183.831H283.015V183.075H286.557C287.098 183.075 287.635 183.066 288.167 183.047C288.699 183.019 289.203 182.987 289.679 182.949C290.136 182.912 290.547 182.875 290.911 182.837C291.284 182.791 291.578 182.749 291.793 182.711V183.467ZM292.213 189.711V188.059H285.983V189.711H292.213ZM293.109 190.173C293.109 190.276 293.085 190.346 293.039 190.383C293.001 190.421 292.936 190.439 292.843 190.439H285.353C285.25 190.439 285.18 190.421 285.143 190.383C285.105 190.346 285.087 190.276 285.087 190.173V185.917H285.983V187.331H292.213V185.917H293.109V190.173ZM303.078 186.743C302.779 186.799 302.429 186.86 302.028 186.925C301.636 186.991 301.225 187.051 300.796 187.107C300.348 187.163 299.914 187.21 299.494 187.247C299.074 187.275 298.691 187.289 298.346 187.289H295.98C295.877 187.289 295.807 187.271 295.77 187.233C295.732 187.187 295.714 187.117 295.714 187.023V179.169C295.714 179.085 295.732 179.02 295.77 178.973C295.807 178.927 295.877 178.903 295.98 178.903H301.342V179.659H296.596V186.491L298.178 186.477C298.682 186.477 299.186 186.459 299.69 186.421C300.203 186.375 300.684 186.323 301.132 186.267C301.58 186.211 301.972 186.155 302.308 186.099C302.653 186.034 302.91 185.983 303.078 185.945V186.743ZM304.52 190.593H303.596V178.147H304.52V182.515H306.438V183.299H304.52V190.593ZM312.739 183.999V179.491H308.889V183.999H312.739ZM317.345 187.373H316.449V183.243H313.565V184.461C313.565 184.573 313.546 184.648 313.509 184.685C313.471 184.713 313.406 184.727 313.313 184.727H308.315C308.203 184.727 308.128 184.713 308.091 184.685C308.063 184.648 308.049 184.573 308.049 184.461V179.029C308.049 178.927 308.063 178.857 308.091 178.819C308.128 178.782 308.203 178.763 308.315 178.763H313.313C313.406 178.763 313.471 178.782 313.509 178.819C313.546 178.857 313.565 178.927 313.565 179.029V180.037H316.449V178.147H317.345V187.373ZM316.449 182.501V180.779H313.565V182.501H316.449ZM317.667 190.313H309.687C309.584 190.313 309.514 190.295 309.477 190.257C309.439 190.22 309.421 190.15 309.421 190.047V186.309H310.317V189.557H317.667V190.313ZM332.116 186.995C331.93 187.033 331.682 187.075 331.374 187.121C331.076 187.168 330.73 187.215 330.338 187.261C329.965 187.308 329.568 187.35 329.148 187.387C328.738 187.425 328.336 187.448 327.944 187.457C327.552 187.476 327.17 187.49 326.796 187.499C326.423 187.499 326.087 187.499 325.788 187.499H324.71C324.608 187.499 324.538 187.481 324.5 187.443C324.463 187.397 324.444 187.327 324.444 187.233V182.991C324.444 182.907 324.463 182.842 324.5 182.795C324.538 182.749 324.608 182.725 324.71 182.725H329.106V179.561H324.444V178.805H329.694C329.872 178.805 329.96 178.894 329.96 179.071V183.201C329.96 183.379 329.872 183.467 329.694 183.467H325.326V186.701L327.664 186.673C328.084 186.673 328.514 186.655 328.952 186.617C329.4 186.58 329.834 186.538 330.254 186.491C330.656 186.435 331.02 186.384 331.346 186.337C331.682 186.291 331.939 186.249 332.116 186.211V186.995ZM333.558 190.579H332.662V178.147H333.558V190.579ZM345.683 185.413C345.198 185.227 344.722 184.998 344.255 184.727C343.798 184.457 343.373 184.149 342.981 183.803C342.58 183.467 342.225 183.099 341.917 182.697C341.609 182.296 341.371 181.857 341.203 181.381C341.035 181.811 340.802 182.226 340.503 182.627C340.214 183.019 339.873 183.388 339.481 183.733C339.089 184.088 338.655 184.41 338.179 184.699C337.713 184.979 337.223 185.222 336.709 185.427L335.953 184.699C336.541 184.522 337.12 184.27 337.689 183.943C338.268 183.607 338.781 183.215 339.229 182.767C339.677 182.319 340.037 181.834 340.307 181.311C340.587 180.779 340.727 180.233 340.727 179.673V178.707H341.637V179.673C341.637 180.261 341.782 180.821 342.071 181.353C342.361 181.876 342.734 182.361 343.191 182.809C343.649 183.257 344.157 183.645 344.717 183.971C345.287 184.298 345.842 184.541 346.383 184.699L345.683 185.413ZM346.915 188.745H335.463V187.989H346.915V188.745ZM355.946 186.743C355.741 186.79 355.484 186.841 355.176 186.897C354.868 186.944 354.537 186.991 354.182 187.037C353.818 187.084 353.445 187.131 353.062 187.177C352.689 187.215 352.334 187.238 351.998 187.247C351.578 187.266 351.196 187.28 350.85 187.289C350.505 187.289 350.206 187.289 349.954 187.289C349.702 187.299 349.502 187.303 349.352 187.303C349.212 187.294 349.138 187.289 349.128 187.289C349.026 187.289 348.956 187.271 348.918 187.233C348.881 187.187 348.862 187.117 348.862 187.023V178.707H349.772V186.463L352.04 186.435C352.339 186.426 352.67 186.403 353.034 186.365C353.398 186.328 353.758 186.281 354.112 186.225C354.476 186.179 354.817 186.127 355.134 186.071C355.461 186.015 355.732 185.964 355.946 185.917V186.743ZM357.906 190.579H357.01V182.725H353.412V181.969H357.01V178.147H357.906V190.579ZM371.726 184.475C371.362 184.214 371.035 183.915 370.746 183.579C370.456 183.234 370.214 182.809 370.018 182.305C369.784 182.809 369.523 183.253 369.234 183.635C368.944 184.018 368.622 184.363 368.268 184.671C367.876 184.326 367.54 183.971 367.26 183.607C366.98 183.243 366.723 182.809 366.49 182.305C366.303 182.781 366.042 183.239 365.706 183.677C365.37 184.107 365.034 184.461 364.698 184.741L363.942 184.195C364.548 183.803 365.052 183.281 365.454 182.627C365.864 181.965 366.07 181.115 366.07 180.079V179.491H364.782V178.749H368.128V179.491H366.924V180.079C366.924 180.91 367.04 181.605 367.274 182.165C367.507 182.716 367.834 183.206 368.254 183.635C368.702 183.178 369.038 182.669 369.262 182.109C369.495 181.549 369.612 180.873 369.612 180.079V179.491H368.394V178.749H371.782V179.491H370.452V180.079C370.452 181.106 370.61 181.913 370.928 182.501C371.254 183.089 371.726 183.561 372.342 183.915L371.726 184.475ZM374.554 185.315H373.686V178.147H374.554V185.315ZM373.658 189.697V186.701H367.484V189.697H373.658ZM374.54 190.173C374.54 190.276 374.516 190.346 374.47 190.383C374.432 190.421 374.367 190.439 374.274 190.439H366.854C366.751 190.439 366.681 190.421 366.644 190.383C366.606 190.346 366.588 190.276 366.588 190.173V186.225C366.588 186.132 366.606 186.067 366.644 186.029C366.681 185.983 366.751 185.959 366.854 185.959H374.274C374.451 185.959 374.54 186.048 374.54 186.225V190.173ZM381.961 179.183H378.349V178.427H381.961V179.183ZM383.683 181.185H376.613V180.429H383.683V181.185ZM380.169 187.485C380.803 187.485 381.307 187.271 381.681 186.841C382.073 186.412 382.269 185.885 382.269 185.259C382.269 184.653 382.077 184.13 381.695 183.691C381.312 183.253 380.803 183.033 380.169 183.033C379.525 183.033 379.011 183.253 378.629 183.691C378.255 184.121 378.069 184.643 378.069 185.259C378.069 185.885 378.255 186.412 378.629 186.841C379.002 187.271 379.515 187.485 380.169 187.485ZM382.353 187.387C382.091 187.658 381.774 187.868 381.401 188.017C381.027 188.157 380.617 188.227 380.169 188.227C379.693 188.227 379.268 188.157 378.895 188.017C378.531 187.868 378.223 187.663 377.971 187.401C377.709 187.131 377.509 186.818 377.369 186.463C377.229 186.109 377.159 185.707 377.159 185.259C377.159 184.391 377.434 183.682 377.985 183.131C378.246 182.87 378.559 182.665 378.923 182.515C379.296 182.366 379.711 182.291 380.169 182.291C380.617 182.291 381.027 182.366 381.401 182.515C381.774 182.665 382.091 182.87 382.353 183.131C382.614 183.402 382.815 183.719 382.955 184.083C383.104 184.438 383.179 184.83 383.179 185.259C383.179 185.689 383.104 186.085 382.955 186.449C382.815 186.813 382.614 187.126 382.353 187.387ZM386.119 190.593H385.195V178.147H386.119V183.285H388.037V184.069H386.119V190.593ZM388.836 187.275C390.432 186.454 391.65 185.418 392.49 184.167C393.33 182.917 393.852 181.414 394.058 179.659H389.62V178.903H394.73C394.907 178.903 394.996 178.992 394.996 179.169C394.856 181.008 394.352 182.651 393.484 184.097C392.625 185.544 391.351 186.804 389.662 187.877L388.836 187.275ZM398.706 190.579H397.81V178.161H398.706V190.579ZM410.621 182.879H402.445C402.342 182.879 402.272 182.861 402.235 182.823C402.197 182.777 402.179 182.707 402.179 182.613V180.569C402.179 180.485 402.197 180.42 402.235 180.373C402.272 180.327 402.342 180.303 402.445 180.303H409.417V179.141H402.179V178.441H410.047C410.224 178.441 410.313 178.53 410.313 178.707V180.737C410.313 180.915 410.224 181.003 410.047 181.003H403.047V182.179H410.621V182.879ZM411.993 184.671H400.597V183.957H411.993V184.671ZM410.705 190.425H402.445C402.342 190.425 402.272 190.407 402.235 190.369C402.197 190.332 402.179 190.262 402.179 190.159V188.045C402.179 187.952 402.197 187.887 402.235 187.849C402.272 187.803 402.342 187.779 402.445 187.779H409.515V186.547H402.179V185.847H410.159C410.336 185.847 410.425 185.936 410.425 186.113V188.213C410.425 188.316 410.401 188.386 410.355 188.423C410.317 188.461 410.252 188.479 410.159 188.479H403.075V189.725H410.705V190.425ZM426.694 190.663H425.798V187.107H418.28V186.365H422.102V183.859H416.866V183.117H420.674C420.721 182.856 420.768 182.562 420.814 182.235C420.861 181.899 420.908 181.554 420.954 181.199C420.992 180.854 421.024 180.513 421.052 180.177C421.09 179.841 421.118 179.543 421.136 179.281H418.14V178.539H421.71C421.888 178.539 421.976 178.628 421.976 178.805L421.906 179.687C421.878 180.033 421.846 180.401 421.808 180.793C421.771 181.195 421.724 181.601 421.668 182.011C421.622 182.413 421.57 182.781 421.514 183.117H425.56C425.598 182.865 425.64 182.576 425.686 182.249C425.742 181.913 425.794 181.573 425.84 181.227C425.887 180.873 425.924 180.527 425.952 180.191C425.99 179.855 426.013 179.552 426.022 179.281H422.424V178.539H426.624C426.802 178.539 426.89 178.628 426.89 178.805C426.872 179.067 426.848 179.379 426.82 179.743C426.792 180.098 426.755 180.471 426.708 180.863C426.671 181.255 426.624 181.652 426.568 182.053C426.522 182.445 426.47 182.8 426.414 183.117H428.262V183.859H422.984V186.365H426.428C426.606 186.365 426.694 186.454 426.694 186.631V190.663ZM443.244 181.605H434.97C434.867 181.605 434.797 181.587 434.76 181.549C434.722 181.503 434.704 181.433 434.704 181.339V178.147H435.572V180.877H443.244V181.605ZM443.244 190.425H434.984C434.881 190.425 434.811 190.407 434.774 190.369C434.736 190.332 434.718 190.262 434.718 190.159V187.695C434.718 187.602 434.736 187.537 434.774 187.499C434.811 187.453 434.881 187.429 434.984 187.429H442.054V185.931H434.718V185.217H438.372V183.663H433.136V182.935H444.532V183.663H439.254V185.217H442.698C442.875 185.217 442.964 185.306 442.964 185.483V187.863C442.964 187.966 442.94 188.036 442.894 188.073C442.856 188.111 442.791 188.129 442.698 188.129H435.614V189.725H443.244V190.425ZM453.703 186.995C453.516 187.033 453.269 187.075 452.961 187.121C452.662 187.168 452.317 187.215 451.925 187.261C451.551 187.308 451.155 187.35 450.735 187.387C450.324 187.425 449.923 187.448 449.531 187.457C449.148 187.476 448.793 187.49 448.467 187.499C448.149 187.499 447.869 187.499 447.627 187.499H446.773C446.67 187.499 446.6 187.481 446.563 187.443C446.525 187.397 446.507 187.327 446.507 187.233V182.991C446.507 182.907 446.525 182.842 446.563 182.795C446.6 182.749 446.67 182.725 446.773 182.725H450.959V179.561H446.507V178.805H451.547C451.724 178.805 451.813 178.894 451.813 179.071V183.201C451.813 183.379 451.724 183.467 451.547 183.467H447.389V186.701L449.251 186.673C449.671 186.673 450.1 186.655 450.539 186.617C450.987 186.58 451.421 186.538 451.841 186.491C452.242 186.435 452.606 186.384 452.933 186.337C453.269 186.291 453.525 186.249 453.703 186.211V186.995ZM455.621 190.579H454.753V183.019H452.471V182.249H454.753V178.147H455.621V190.579ZM466.472 184.489V181.773H460.018V184.489H466.472ZM468.978 188.871H457.526V188.115H462.79V185.231H459.416C459.304 185.231 459.234 185.217 459.206 185.189C459.178 185.152 459.164 185.077 459.164 184.965V178.763H460.018V181.059H466.472V178.763H467.354V184.965C467.354 185.077 467.335 185.152 467.298 185.189C467.26 185.217 467.19 185.231 467.088 185.231H463.672V188.115H468.978V188.871ZM475.601 187.471C474.285 186.538 473.435 185.306 473.053 183.775C472.661 185.465 471.732 186.874 470.267 188.003L469.427 187.429C470.556 186.645 471.373 185.689 471.877 184.559C472.39 183.43 472.647 182.063 472.647 180.457V178.749H473.543V180.779C473.543 182.319 473.776 183.579 474.243 184.559C474.709 185.539 475.4 186.295 476.315 186.827L475.601 187.471ZM480.431 190.579H479.563V178.147H480.431V190.579ZM478.009 189.991H477.127V182.907H474.859V182.095H477.127V178.357H478.009V189.991ZM491.702 183.173C491.599 183.388 491.468 183.584 491.31 183.761C491.16 183.929 490.992 184.079 490.806 184.209C490.432 184.499 489.98 184.718 489.448 184.867C488.916 185.017 488.328 185.091 487.684 185.091C487.03 185.091 486.438 185.017 485.906 184.867C485.374 184.718 484.921 184.499 484.548 184.209C483.754 183.64 483.358 182.823 483.358 181.759C483.358 181.246 483.456 180.784 483.652 180.373C483.857 179.953 484.156 179.603 484.548 179.323C484.921 179.034 485.374 178.815 485.906 178.665C486.438 178.507 487.03 178.427 487.684 178.427C488.328 178.427 488.916 178.507 489.448 178.665C489.98 178.815 490.432 179.034 490.806 179.323C491.198 179.603 491.496 179.953 491.702 180.373C491.907 180.784 492.01 181.246 492.01 181.759C492.01 182.301 491.907 182.772 491.702 183.173ZM487.684 184.377C488.701 184.377 489.513 184.144 490.12 183.677C490.428 183.453 490.666 183.183 490.834 182.865C491.002 182.548 491.086 182.179 491.086 181.759C491.086 181.358 491.002 180.999 490.834 180.681C490.666 180.355 490.428 180.075 490.12 179.841C489.821 179.617 489.466 179.445 489.056 179.323C488.645 179.202 488.188 179.141 487.684 179.141C487.18 179.141 486.718 179.202 486.298 179.323C485.887 179.445 485.532 179.617 485.234 179.841C484.935 180.075 484.702 180.355 484.534 180.681C484.366 180.999 484.282 181.358 484.282 181.759C484.282 182.179 484.366 182.548 484.534 182.865C484.702 183.183 484.935 183.453 485.234 183.677C485.84 184.144 486.657 184.377 487.684 184.377ZM493.382 188.871H481.958V188.115H484.786V185.413H485.668V188.115H489.714V185.413H490.582V188.115H493.382V188.871ZM496.211 186.897H495.441L495.231 178.399H496.407L496.211 186.897ZM496.393 189.431H495.259V188.255H496.393V189.431ZM203.294 211.401H202.398V205.927H199.85C199.775 206.795 199.453 207.5 198.884 208.041C198.315 208.583 197.582 208.853 196.686 208.853C196.201 208.853 195.762 208.774 195.37 208.615C194.978 208.447 194.642 208.219 194.362 207.929C194.082 207.64 193.867 207.299 193.718 206.907C193.569 206.515 193.494 206.081 193.494 205.605C193.494 205.129 193.569 204.695 193.718 204.303C193.867 203.902 194.082 203.557 194.362 203.267C194.642 202.978 194.978 202.754 195.37 202.595C195.762 202.427 196.201 202.343 196.686 202.343C197.545 202.343 198.263 202.609 198.842 203.141C199.402 203.645 199.733 204.322 199.836 205.171H202.398V202.147H203.294V211.401ZM196.686 208.055C197.414 208.055 197.974 207.822 198.366 207.355C198.758 206.879 198.954 206.296 198.954 205.605C198.954 204.915 198.758 204.331 198.366 203.855C197.974 203.37 197.414 203.127 196.686 203.127C195.958 203.127 195.398 203.37 195.006 203.855C194.614 204.331 194.418 204.915 194.418 205.605C194.418 206.296 194.614 206.879 195.006 207.355C195.398 207.822 195.958 208.055 196.686 208.055ZM203.686 214.313H195.636C195.533 214.313 195.463 214.295 195.426 214.257C195.389 214.22 195.37 214.15 195.37 214.047V210.253H196.266V213.557H203.686V214.313ZM211.205 211.653C210.561 211.205 210.034 210.683 209.623 210.085C209.222 209.479 208.909 208.779 208.685 207.985C208.489 208.807 208.148 209.577 207.663 210.295C207.178 211.014 206.599 211.639 205.927 212.171L205.045 211.625C205.605 211.233 206.086 210.804 206.487 210.337C206.898 209.871 207.229 209.353 207.481 208.783C207.742 208.214 207.934 207.589 208.055 206.907C208.186 206.217 208.251 205.456 208.251 204.625V203.757H206.067V203.015H211.303V203.757H209.161V204.947C209.161 206.366 209.376 207.579 209.805 208.587C210.234 209.651 210.944 210.468 211.933 211.037L211.205 211.653ZM215.979 214.579H215.111V202.147H215.979V214.579ZM213.557 213.991H212.675V207.047H210.407V206.235H212.675V202.357H213.557V213.991ZM227.348 206.879H219.214C219.111 206.879 219.041 206.861 219.004 206.823C218.967 206.777 218.948 206.707 218.948 206.613V202.805C218.948 202.721 218.967 202.656 219.004 202.609C219.041 202.563 219.111 202.539 219.214 202.539H227.222V203.281H219.802V206.137H227.348V206.879ZM228.776 209.427H217.38V208.685H228.776V209.427ZM227.67 214.313H219.228C219.125 214.313 219.055 214.295 219.018 214.257C218.981 214.22 218.962 214.15 218.962 214.047V210.589H219.788V213.557H227.67V214.313ZM237.135 211.667C236.379 211.163 235.707 210.557 235.119 209.847C234.531 209.129 234.083 208.331 233.775 207.453C233.495 208.387 233.056 209.241 232.459 210.015C231.871 210.781 231.208 211.448 230.471 212.017L229.631 211.401C230.854 210.645 231.773 209.712 232.389 208.601C233.005 207.491 233.313 206.175 233.313 204.653V203.659H230.555V202.903H237.065V203.659H234.223V204.933C234.223 206.193 234.503 207.327 235.063 208.335C235.632 209.343 236.561 210.23 237.849 210.995L237.135 211.667ZM240.187 214.579H239.291V202.147H240.187V214.579ZM257.254 209.315H245.858V208.573H251.122V207.089H251.43C250.926 206.791 250.492 206.422 250.128 205.983C249.764 205.545 249.466 205.12 249.232 204.709C249.148 204.905 249.041 205.115 248.91 205.339C248.78 205.554 248.616 205.769 248.42 205.983C248.234 206.198 248.014 206.408 247.762 206.613C247.52 206.809 247.244 206.987 246.936 207.145L246.208 206.557C246.656 206.361 247.039 206.137 247.356 205.885C247.674 205.633 247.935 205.367 248.14 205.087C248.355 204.807 248.518 204.513 248.63 204.205C248.742 203.897 248.812 203.589 248.84 203.281H247.076V202.539H251.43V203.281H249.666C249.722 203.907 249.909 204.462 250.226 204.947C250.553 205.423 250.996 205.857 251.556 206.249C252.088 205.885 252.522 205.442 252.858 204.919C253.204 204.387 253.395 203.841 253.432 203.281H251.696V202.539H256.036V203.281H254.272C254.328 203.981 254.585 204.621 255.042 205.199C255.509 205.769 256.12 206.221 256.876 206.557L256.162 207.145C255.602 206.856 255.126 206.487 254.734 206.039C254.352 205.582 254.058 205.129 253.852 204.681C253.628 205.101 253.339 205.531 252.984 205.969C252.639 206.408 252.214 206.781 251.71 207.089H251.99V208.573H257.254V209.315ZM255.686 214.663H254.79V211.415H247.272V210.673H255.42C255.598 210.673 255.686 210.762 255.686 210.939V214.663ZM265.613 211.667C264.857 211.163 264.185 210.557 263.597 209.847C263.009 209.129 262.561 208.331 262.253 207.453C261.973 208.387 261.535 209.241 260.937 210.015C260.349 210.781 259.687 211.448 258.949 212.017L258.109 211.401C259.332 210.645 260.251 209.712 260.867 208.601C261.483 207.491 261.791 206.175 261.791 204.653V203.659H259.033V202.903H265.543V203.659H262.701V204.933C262.701 206.193 262.981 207.327 263.541 208.335C264.111 209.343 265.039 210.23 266.327 210.995L265.613 211.667ZM268.665 214.579H267.769V202.147H268.665V214.579ZM281.7 212.899H270.248V212.143H275.526V209.623H272.11C272.008 209.623 271.938 209.6 271.9 209.553C271.863 209.507 271.844 209.437 271.844 209.343V206.123C271.844 206.039 271.863 205.979 271.9 205.941C271.938 205.895 272.008 205.871 272.11 205.871H279.026V203.519H271.802V202.791H279.642C279.82 202.791 279.908 202.88 279.908 203.057V206.333C279.908 206.511 279.82 206.599 279.642 206.599H272.712V208.895H280.412V209.623H276.394V212.143H281.7V212.899ZM294.75 210.225C294.843 209.693 294.937 209.143 295.03 208.573C295.133 208.004 295.226 207.435 295.31 206.865C295.385 206.296 295.45 205.741 295.506 205.199C295.562 204.649 295.599 204.131 295.618 203.645H287.946V202.903H296.248C296.425 202.903 296.514 202.992 296.514 203.169C296.439 204.373 296.337 205.549 296.206 206.697C296.075 207.845 295.893 209.026 295.66 210.239L294.75 210.225ZM297.984 212.871H286.518V212.115H290.872V207.257H291.754V212.115H297.984V212.871ZM304.481 207.803V203.491H300.631V207.803H304.481ZM305.307 208.265C305.307 208.377 305.288 208.452 305.251 208.489C305.214 208.517 305.148 208.531 305.055 208.531H300.057C299.945 208.531 299.87 208.517 299.833 208.489C299.805 208.452 299.791 208.377 299.791 208.265V203.029C299.791 202.927 299.805 202.857 299.833 202.819C299.87 202.782 299.945 202.763 300.057 202.763H305.055C305.148 202.763 305.214 202.782 305.251 202.819C305.288 202.857 305.307 202.927 305.307 203.029V208.265ZM309.087 211.401H308.205V202.147H309.087V211.401ZM309.409 214.313H301.429C301.326 214.313 301.256 214.295 301.219 214.257C301.182 214.22 301.163 214.15 301.163 214.047V210.281H302.059V213.557H309.409V214.313ZM320.61 205.199C320.507 205.33 320.381 205.456 320.232 205.577C320.092 205.689 319.929 205.792 319.742 205.885C319.369 206.081 318.921 206.231 318.398 206.333C317.875 206.427 317.292 206.473 316.648 206.473C315.36 206.473 314.324 206.277 313.54 205.885C312.756 205.493 312.364 204.952 312.364 204.261C312.364 203.58 312.756 203.048 313.54 202.665C313.913 202.479 314.361 202.334 314.884 202.231C315.416 202.119 316.004 202.063 316.648 202.063C317.292 202.063 317.875 202.119 318.398 202.231C318.921 202.334 319.369 202.479 319.742 202.665C320.115 202.852 320.405 203.081 320.61 203.351C320.825 203.622 320.932 203.925 320.932 204.261C320.932 204.588 320.825 204.901 320.61 205.199ZM319.07 205.367C319.369 205.227 319.602 205.064 319.77 204.877C319.947 204.691 320.036 204.49 320.036 204.275C320.036 204.051 319.947 203.846 319.77 203.659C319.602 203.473 319.369 203.314 319.07 203.183C318.771 203.053 318.412 202.95 317.992 202.875C317.581 202.791 317.133 202.749 316.648 202.749C316.144 202.749 315.687 202.791 315.276 202.875C314.865 202.95 314.511 203.053 314.212 203.183C313.577 203.454 313.26 203.818 313.26 204.275C313.26 204.705 313.577 205.069 314.212 205.367C314.511 205.507 314.865 205.619 315.276 205.703C315.687 205.778 316.144 205.815 316.648 205.815C317.133 205.815 317.581 205.778 317.992 205.703C318.412 205.619 318.771 205.507 319.07 205.367ZM322.36 208.209H310.964V207.481H322.36V208.209ZM321.072 214.425H312.812C312.709 214.425 312.639 214.407 312.602 214.369C312.565 214.332 312.546 214.262 312.546 214.159V211.793C312.546 211.7 312.565 211.635 312.602 211.597C312.639 211.551 312.709 211.527 312.812 211.527H319.882V210.113H312.546V209.399H320.526C320.703 209.399 320.792 209.488 320.792 209.665V211.961C320.792 212.064 320.769 212.134 320.722 212.171C320.685 212.209 320.619 212.227 320.526 212.227H313.442V213.725H321.072V214.425ZM336.151 208.489V205.773H329.697V208.489H336.151ZM338.657 212.871H327.205V212.115H332.469V209.231H329.095C328.983 209.231 328.913 209.217 328.885 209.189C328.857 209.152 328.843 209.077 328.843 208.965V202.763H329.697V205.059H336.151V202.763H337.033V208.965C337.033 209.077 337.015 209.152 336.977 209.189C336.94 209.217 336.87 209.231 336.767 209.231H333.351V212.115H338.657V212.871ZM345.77 211.037C345.649 211.056 345.476 211.079 345.252 211.107C345.038 211.135 344.8 211.159 344.538 211.177C344.268 211.205 343.992 211.229 343.712 211.247C343.432 211.266 343.176 211.28 342.942 211.289C342.634 211.308 342.354 211.322 342.102 211.331C341.86 211.331 341.645 211.331 341.458 211.331C341.281 211.341 341.136 211.345 341.024 211.345C340.912 211.336 340.842 211.331 340.814 211.331C340.712 211.331 340.642 211.313 340.604 211.275C340.567 211.229 340.548 211.159 340.548 211.065V202.749H341.444V210.505L343.068 210.477C343.236 210.477 343.446 210.468 343.698 210.449C343.95 210.431 344.207 210.407 344.468 210.379C344.73 210.361 344.977 210.337 345.21 210.309C345.444 210.281 345.63 210.253 345.77 210.225V211.037ZM349.9 214.579H349.004V207.663H347.184V213.991H346.288V202.357H347.184V206.851H349.004V202.147H349.9V214.579ZM359.855 210.225C359.949 209.693 360.042 209.143 360.135 208.573C360.238 208.004 360.331 207.435 360.415 206.865C360.49 206.296 360.555 205.741 360.611 205.199C360.667 204.649 360.705 204.131 360.723 203.645H353.051V202.903H361.353C361.531 202.903 361.619 202.992 361.619 203.169C361.545 204.373 361.442 205.549 361.311 206.697C361.181 207.845 360.999 209.026 360.765 210.239L359.855 210.225ZM363.089 212.871H351.623V212.115H355.977V207.257H356.859V212.115H363.089V212.871ZM364.854 214.635C365.069 214.579 365.228 214.425 365.33 214.173C365.433 213.931 365.47 213.66 365.442 213.361H364.77V212.087H365.918C366.068 212.087 366.142 212.171 366.142 212.339V213.095C366.142 213.394 366.105 213.655 366.03 213.879C365.956 214.103 365.858 214.29 365.736 214.439C365.624 214.598 365.489 214.719 365.33 214.803C365.181 214.897 365.022 214.957 364.854 214.985V214.635ZM380.616 207.257C380.392 207.313 380.117 207.369 379.79 207.425C379.464 207.481 379.104 207.533 378.712 207.579C378.32 207.626 377.919 207.668 377.508 207.705C377.107 207.733 376.71 207.752 376.318 207.761C375.973 207.78 375.623 207.794 375.268 207.803C374.923 207.813 374.606 207.817 374.316 207.817H373.294C373.192 207.817 373.122 207.799 373.084 207.761C373.047 207.715 373.028 207.645 373.028 207.551V203.029C373.028 202.945 373.047 202.88 373.084 202.833C373.122 202.787 373.192 202.763 373.294 202.763H378.684V203.505H373.882V207.033L376.038 206.991C376.393 206.991 376.79 206.977 377.228 206.949C377.676 206.912 378.115 206.865 378.544 206.809C378.974 206.763 379.37 206.716 379.734 206.669C380.108 206.613 380.402 206.557 380.616 206.501V207.257ZM382.016 208.601H381.134V202.147H382.016V204.541H383.78V205.311H382.016V208.601ZM381.176 213.711V211.751H375.128V213.711H381.176ZM382.044 214.173C382.044 214.276 382.021 214.346 381.974 214.383C381.937 214.421 381.872 214.439 381.778 214.439H374.512C374.41 214.439 374.34 214.421 374.302 214.383C374.265 214.346 374.246 214.276 374.246 214.173V209.273H375.128V211.023H381.176V209.273H382.044V214.173ZM391.607 208.685C390.879 208.349 390.231 207.943 389.661 207.467C389.101 206.991 388.667 206.445 388.359 205.829C388.117 206.511 387.739 207.113 387.225 207.635C386.721 208.158 386.035 208.643 385.167 209.091L384.397 208.503C384.929 208.279 385.41 208.013 385.839 207.705C386.278 207.397 386.647 207.047 386.945 206.655C387.253 206.263 387.491 205.829 387.659 205.353C387.827 204.877 387.911 204.359 387.911 203.799V203.491H385.279V202.749H391.397V203.491H388.807V203.827C388.807 204.359 388.896 204.845 389.073 205.283C389.251 205.722 389.498 206.119 389.815 206.473C390.123 206.828 390.483 207.136 390.893 207.397C391.313 207.659 391.761 207.869 392.237 208.027L391.607 208.685ZM394.351 209.735H393.483V202.147H394.351V205.073H396.185V205.829H394.351V209.735ZM394.379 213.361C394.109 213.809 393.647 214.159 392.993 214.411C392.349 214.673 391.533 214.803 390.543 214.803C389.899 214.803 389.321 214.743 388.807 214.621C388.303 214.509 387.874 214.346 387.519 214.131C387.174 213.917 386.908 213.66 386.721 213.361C386.535 213.072 386.441 212.75 386.441 212.395C386.441 212.05 386.535 211.728 386.721 211.429C386.908 211.131 387.174 210.879 387.519 210.673C387.874 210.459 388.303 210.291 388.807 210.169C389.321 210.048 389.899 209.987 390.543 209.987C391.197 209.987 391.78 210.048 392.293 210.169C392.807 210.291 393.236 210.459 393.581 210.673C393.936 210.879 394.202 211.131 394.379 211.429C394.566 211.728 394.659 212.05 394.659 212.395C394.659 212.741 394.566 213.063 394.379 213.361ZM390.543 214.075C391.495 214.075 392.256 213.931 392.825 213.641C393.432 213.361 393.735 212.946 393.735 212.395C393.735 211.835 393.432 211.415 392.825 211.135C392.219 210.855 391.458 210.715 390.543 210.715C390.095 210.715 389.675 210.753 389.283 210.827C388.901 210.893 388.565 210.995 388.275 211.135C387.986 211.275 387.762 211.453 387.603 211.667C387.445 211.873 387.365 212.115 387.365 212.395C387.365 212.675 387.445 212.918 387.603 213.123C387.771 213.338 387.995 213.515 388.275 213.655C388.565 213.795 388.901 213.898 389.283 213.963C389.675 214.038 390.095 214.075 390.543 214.075ZM406.182 205.199C406.08 205.33 405.954 205.456 405.804 205.577C405.664 205.689 405.501 205.792 405.314 205.885C404.941 206.081 404.493 206.231 403.97 206.333C403.448 206.427 402.864 206.473 402.22 206.473C400.932 206.473 399.896 206.277 399.112 205.885C398.328 205.493 397.936 204.952 397.936 204.261C397.936 203.58 398.328 203.048 399.112 202.665C399.486 202.479 399.934 202.334 400.456 202.231C400.988 202.119 401.576 202.063 402.22 202.063C402.864 202.063 403.448 202.119 403.97 202.231C404.493 202.334 404.941 202.479 405.314 202.665C405.688 202.852 405.977 203.081 406.182 203.351C406.397 203.622 406.504 203.925 406.504 204.261C406.504 204.588 406.397 204.901 406.182 205.199ZM404.642 205.367C404.941 205.227 405.174 205.064 405.342 204.877C405.52 204.691 405.608 204.49 405.608 204.275C405.608 204.051 405.52 203.846 405.342 203.659C405.174 203.473 404.941 203.314 404.642 203.183C404.344 203.053 403.984 202.95 403.564 202.875C403.154 202.791 402.706 202.749 402.22 202.749C401.716 202.749 401.259 202.791 400.848 202.875C400.438 202.95 400.083 203.053 399.784 203.183C399.15 203.454 398.832 203.818 398.832 204.275C398.832 204.705 399.15 205.069 399.784 205.367C400.083 205.507 400.438 205.619 400.848 205.703C401.259 205.778 401.716 205.815 402.22 205.815C402.706 205.815 403.154 205.778 403.564 205.703C403.984 205.619 404.344 205.507 404.642 205.367ZM407.932 208.209H396.536V207.481H407.932V208.209ZM406.644 214.425H398.384C398.282 214.425 398.212 214.407 398.174 214.369C398.137 214.332 398.118 214.262 398.118 214.159V211.793C398.118 211.7 398.137 211.635 398.174 211.597C398.212 211.551 398.282 211.527 398.384 211.527H405.454V210.113H398.118V209.399H406.098C406.276 209.399 406.364 209.488 406.364 209.665V211.961C406.364 212.064 406.341 212.134 406.294 212.171C406.257 212.209 406.192 212.227 406.098 212.227H399.014V213.725H406.644V214.425ZM418.322 207.775V205.549H414.472V207.775H418.322ZM419.162 208.237C419.162 208.349 419.143 208.424 419.106 208.461C419.068 208.489 418.998 208.503 418.896 208.503H413.898C413.786 208.503 413.716 208.489 413.688 208.461C413.66 208.424 413.646 208.349 413.646 208.237V202.609H414.472V204.821H418.322V202.609H419.162V208.237ZM422.704 209.413H421.822V202.147H422.704V204.905H424.468V205.675H422.704V209.413ZM422.984 214.439H415.34C415.237 214.439 415.167 214.421 415.13 214.383C415.092 214.346 415.074 214.276 415.074 214.173V210.309C415.074 210.216 415.092 210.151 415.13 210.113C415.167 210.067 415.237 210.043 415.34 210.043H422.732V210.799H415.956V213.697H422.984V214.439ZM434.661 205.199C434.558 205.33 434.432 205.456 434.283 205.577C434.143 205.689 433.979 205.792 433.793 205.885C433.419 206.081 432.971 206.231 432.449 206.333C431.926 206.427 431.343 206.473 430.699 206.473C429.411 206.473 428.375 206.277 427.591 205.885C426.807 205.493 426.415 204.952 426.415 204.261C426.415 203.58 426.807 203.048 427.591 202.665C427.964 202.479 428.412 202.334 428.935 202.231C429.467 202.119 430.055 202.063 430.699 202.063C431.343 202.063 431.926 202.119 432.449 202.231C432.971 202.334 433.419 202.479 433.793 202.665C434.166 202.852 434.455 203.081 434.661 203.351C434.875 203.622 434.983 203.925 434.983 204.261C434.983 204.588 434.875 204.901 434.661 205.199ZM433.121 205.367C433.419 205.227 433.653 205.064 433.821 204.877C433.998 204.691 434.087 204.49 434.087 204.275C434.087 204.051 433.998 203.846 433.821 203.659C433.653 203.473 433.419 203.314 433.121 203.183C432.822 203.053 432.463 202.95 432.043 202.875C431.632 202.791 431.184 202.749 430.699 202.749C430.195 202.749 429.737 202.791 429.327 202.875C428.916 202.95 428.561 203.053 428.263 203.183C427.628 203.454 427.311 203.818 427.311 204.275C427.311 204.705 427.628 205.069 428.263 205.367C428.561 205.507 428.916 205.619 429.327 205.703C429.737 205.778 430.195 205.815 430.699 205.815C431.184 205.815 431.632 205.778 432.043 205.703C432.463 205.619 432.822 205.507 433.121 205.367ZM436.411 208.209H425.015V207.481H436.411V208.209ZM435.123 214.425H426.863C426.76 214.425 426.69 214.407 426.653 214.369C426.615 214.332 426.597 214.262 426.597 214.159V211.793C426.597 211.7 426.615 211.635 426.653 211.597C426.69 211.551 426.76 211.527 426.863 211.527H433.933V210.113H426.597V209.399H434.577C434.754 209.399 434.843 209.488 434.843 209.665V211.961C434.843 212.064 434.819 212.134 434.773 212.171C434.735 212.209 434.67 212.227 434.577 212.227H427.493V213.725H435.123V214.425ZM451.448 207.691C450.963 207.57 450.487 207.411 450.02 207.215C449.563 207.019 449.134 206.791 448.732 206.529C448.34 206.268 447.99 205.974 447.682 205.647C447.384 205.321 447.155 204.961 446.996 204.569C446.791 204.98 446.534 205.349 446.226 205.675C445.918 205.993 445.568 206.277 445.176 206.529C444.794 206.781 444.374 207.005 443.916 207.201C443.468 207.388 443.002 207.551 442.516 207.691L441.83 206.963C442.474 206.823 443.076 206.637 443.636 206.403C444.206 206.161 444.7 205.876 445.12 205.549C445.55 205.223 445.886 204.859 446.128 204.457C446.38 204.047 446.506 203.589 446.506 203.085V202.469H447.444V203.071C447.444 203.557 447.566 204.005 447.808 204.415C448.051 204.826 448.387 205.195 448.816 205.521C449.236 205.848 449.726 206.133 450.286 206.375C450.846 206.618 451.448 206.805 452.092 206.935L451.448 207.691ZM452.68 209.861H447.472V214.579H446.576V209.861H441.284V209.105H452.68V209.861ZM464.218 206.669C464.059 207.052 463.844 207.379 463.574 207.649C463.294 207.929 462.958 208.149 462.566 208.307C462.183 208.457 461.754 208.531 461.278 208.531C460.792 208.531 460.354 208.452 459.962 208.293C459.579 208.125 459.248 207.897 458.968 207.607C458.697 207.327 458.487 207.001 458.338 206.627C458.188 206.245 458.114 205.843 458.114 205.423C458.114 204.994 458.188 204.593 458.338 204.219C458.487 203.837 458.702 203.501 458.982 203.211C459.252 202.931 459.584 202.712 459.976 202.553C460.368 202.385 460.806 202.301 461.292 202.301C461.768 202.301 462.197 202.385 462.58 202.553C462.962 202.712 463.294 202.931 463.574 203.211C463.854 203.491 464.068 203.823 464.218 204.205C464.376 204.588 464.456 204.994 464.456 205.423C464.456 205.825 464.376 206.24 464.218 206.669ZM463.56 205.409C463.56 204.784 463.359 204.243 462.958 203.785C462.566 203.319 462.006 203.085 461.278 203.085C460.55 203.085 459.994 203.319 459.612 203.785C459.229 204.252 459.038 204.793 459.038 205.409C459.038 205.727 459.084 206.03 459.178 206.319C459.271 206.599 459.416 206.851 459.612 207.075C459.798 207.29 460.032 207.463 460.312 207.593C460.592 207.715 460.914 207.775 461.278 207.775C461.642 207.775 461.964 207.715 462.244 207.593C462.524 207.463 462.762 207.29 462.958 207.075C463.359 206.618 463.56 206.063 463.56 205.409ZM467.886 209.385H467.004V202.147H467.886V209.385ZM468.53 214.663C467.998 214.337 467.531 213.959 467.13 213.529C466.738 213.109 466.397 212.633 466.108 212.101C465.846 212.605 465.534 213.058 465.17 213.459C464.815 213.87 464.409 214.243 463.952 214.579C463.438 214.187 463 213.781 462.636 213.361C462.272 212.951 461.987 212.521 461.782 212.073C461.492 212.615 461.147 213.1 460.746 213.529C460.344 213.959 459.887 214.337 459.374 214.663L458.674 214.061C459 213.893 459.322 213.679 459.64 213.417C459.966 213.156 460.256 212.867 460.508 212.549C460.76 212.232 460.965 211.896 461.124 211.541C461.282 211.177 461.362 210.799 461.362 210.407V209.917H462.216V210.477C462.216 211.019 462.379 211.56 462.706 212.101C463.032 212.633 463.448 213.109 463.952 213.529C464.344 213.231 464.74 212.773 465.142 212.157C465.487 211.588 465.66 210.991 465.66 210.365V209.917H466.514V210.435C466.514 210.799 466.588 211.163 466.738 211.527C466.896 211.891 467.106 212.237 467.368 212.563C467.629 212.89 467.923 213.184 468.25 213.445C468.576 213.707 468.912 213.912 469.258 214.061L468.53 214.663ZM480.053 214.579H479.157V207.397H476.371C476.333 208.909 476.049 210.034 475.517 210.771C474.985 211.499 474.294 211.863 473.445 211.863C473.006 211.863 472.605 211.765 472.241 211.569C471.886 211.373 471.578 211.079 471.317 210.687C471.055 210.295 470.85 209.805 470.701 209.217C470.561 208.629 470.491 207.943 470.491 207.159C470.491 206.375 470.561 205.689 470.701 205.101C470.85 204.513 471.055 204.023 471.317 203.631C471.578 203.239 471.886 202.945 472.241 202.749C472.605 202.553 473.006 202.455 473.445 202.455C474.257 202.455 474.929 202.805 475.461 203.505C475.993 204.196 476.291 205.241 476.357 206.641H479.157V202.147H480.053V214.579ZM474.663 210.491C474.989 210.081 475.223 209.516 475.363 208.797C475.456 208.415 475.503 207.869 475.503 207.159C475.484 205.955 475.297 205.003 474.943 204.303C474.588 203.585 474.089 203.225 473.445 203.225C472.81 203.225 472.301 203.585 471.919 204.303C471.545 205.013 471.359 205.965 471.359 207.159C471.359 207.766 471.405 208.312 471.499 208.797C471.601 209.273 471.741 209.684 471.919 210.029C472.096 210.375 472.311 210.641 472.563 210.827C472.824 211.005 473.118 211.093 473.445 211.093C473.939 211.093 474.345 210.893 474.663 210.491ZM491.702 207.173C491.599 207.388 491.468 207.584 491.31 207.761C491.16 207.929 490.992 208.079 490.806 208.209C490.432 208.499 489.98 208.718 489.448 208.867C488.916 209.017 488.328 209.091 487.684 209.091C487.03 209.091 486.438 209.017 485.906 208.867C485.374 208.718 484.921 208.499 484.548 208.209C483.754 207.64 483.358 206.823 483.358 205.759C483.358 205.246 483.456 204.784 483.652 204.373C483.857 203.953 484.156 203.603 484.548 203.323C484.921 203.034 485.374 202.815 485.906 202.665C486.438 202.507 487.03 202.427 487.684 202.427C488.328 202.427 488.916 202.507 489.448 202.665C489.98 202.815 490.432 203.034 490.806 203.323C491.198 203.603 491.496 203.953 491.702 204.373C491.907 204.784 492.01 205.246 492.01 205.759C492.01 206.301 491.907 206.772 491.702 207.173ZM487.684 208.377C488.701 208.377 489.513 208.144 490.12 207.677C490.428 207.453 490.666 207.183 490.834 206.865C491.002 206.548 491.086 206.179 491.086 205.759C491.086 205.358 491.002 204.999 490.834 204.681C490.666 204.355 490.428 204.075 490.12 203.841C489.821 203.617 489.466 203.445 489.056 203.323C488.645 203.202 488.188 203.141 487.684 203.141C487.18 203.141 486.718 203.202 486.298 203.323C485.887 203.445 485.532 203.617 485.234 203.841C484.935 204.075 484.702 204.355 484.534 204.681C484.366 204.999 484.282 205.358 484.282 205.759C484.282 206.179 484.366 206.548 484.534 206.865C484.702 207.183 484.935 207.453 485.234 207.677C485.84 208.144 486.657 208.377 487.684 208.377ZM493.382 212.871H481.958V212.115H484.786V209.413H485.668V212.115H489.714V209.413H490.582V212.115H493.382V212.871ZM496.211 210.897H495.441L495.231 202.399H496.407L496.211 210.897ZM496.393 213.431H495.259V212.255H496.393V213.431Z" fill="#61586A"/>
<g clip-path="url(#clip0_2073_30767)">
<path d="M538 198.65C538 203.532 630.233 207.465 743.99 207.465C857.747 207.465 950 203.431 950 198.65C950 193.869 857.767 189.834 743.99 189.834C630.213 189.834 538 193.788 538 198.65Z" fill="#DDD0D0"/>
<path d="M720.86 80.7178C720.86 80.7178 699.398 121.306 716.796 126.692C734.193 132.079 740.047 120.398 740.047 120.398L739.661 85.8418L720.86 80.7178Z" fill="#FFD7D7"/>
<path d="M609.871 194.253H891.265C893.115 194.156 894.857 193.358 896.132 192.024C897.407 190.689 898.117 188.921 898.117 187.082C898.117 185.243 897.407 183.474 896.132 182.14C894.857 180.806 893.115 180.008 891.265 179.91H609.871C608.021 180.008 606.279 180.806 605.004 182.14C603.729 183.474 603.019 185.243 603.019 187.082C603.019 188.921 603.729 190.689 605.004 192.024C606.279 193.358 608.021 194.156 609.871 194.253Z" fill="#BBB4C1"/>
<path d="M618.138 146.563C618.138 146.563 657.69 99.3378 653.747 97.0986C649.804 94.8594 633.788 115.638 633.788 115.638C633.788 115.638 651.857 81.2223 649.032 79.8102C646.207 78.3981 616.106 135.085 616.106 135.085C616.106 135.085 625.252 71.7409 621.898 70.5305C618.545 69.3202 608.322 133.652 608.322 133.652C608.322 133.652 600.354 82.0494 596.533 84.7325C592.712 87.4155 600.293 132.523 600.293 132.523C600.293 132.523 583.404 95.5251 584.034 101.133C584.664 106.741 591.188 133.874 591.188 133.874C591.188 133.874 563.384 86.8305 564.197 94.4963C565.01 102.162 589.481 147.854 589.481 147.854L618.138 146.563Z" fill="#7B9B75"/>
<path d="M624.706 195.12L592.187 194.717C591.36 194.728 590.558 194.435 589.935 193.895C589.313 193.356 588.913 192.606 588.813 191.792L584.524 144.768C584.501 144.31 584.575 143.852 584.74 143.423C584.905 142.995 585.158 142.605 585.483 142.279C585.808 141.952 586.197 141.697 586.627 141.528C587.057 141.359 587.517 141.281 587.979 141.298L630.397 141.823C630.86 141.813 631.32 141.9 631.748 142.077C632.175 142.255 632.56 142.519 632.878 142.854C633.196 143.189 633.44 143.586 633.594 144.02C633.747 144.454 633.808 144.915 633.771 145.373L628.202 192.276C628.086 193.099 627.662 193.849 627.014 194.376C626.366 194.903 625.542 195.169 624.706 195.12Z" fill="#8A6277"/>
<path d="M617.512 195.02L584.993 194.637C584.166 194.648 583.364 194.355 582.741 193.815C582.119 193.275 581.719 192.526 581.619 191.712L577.249 144.688C577.22 144.23 577.288 143.771 577.45 143.341C577.611 142.911 577.862 142.52 578.186 142.192C578.51 141.865 578.9 141.609 579.331 141.441C579.761 141.273 580.222 141.197 580.684 141.218L623.142 141.702C623.604 141.692 624.064 141.779 624.49 141.957C624.917 142.134 625.301 142.399 625.617 142.734C625.934 143.069 626.175 143.467 626.327 143.901C626.478 144.335 626.536 144.795 626.495 145.253L620.967 192.135C620.861 192.959 620.447 193.712 619.807 194.247C619.167 194.781 618.347 195.057 617.512 195.02Z" fill="#A37B90"/>
<path d="M744.274 182.775H772.302L772.668 122.094H741.023L744.274 182.775Z" fill="#40507F"/>
<path d="M796.388 131.01C796.388 131.01 861.183 147.956 865.004 172.527C868.825 197.097 825.777 203.028 804.03 204.562C782.283 206.095 772.669 196.613 772.669 196.613L760.474 121.973L796.388 131.01Z" fill="#40507F"/>
<path d="M717.771 131.01C717.771 131.01 652.976 147.956 649.196 172.527C645.415 197.097 692.954 203.028 714.722 204.562C736.49 206.095 739.112 194.596 739.112 194.596L753.766 121.973L717.771 131.01Z" fill="#40507F"/>
<path d="M727.709 128.549C727.709 128.549 730.921 55.7445 747.241 49.7531C765.106 43.1968 792.707 47.3928 798.358 57.5399C804.008 67.687 793.439 130.284 793.439 130.284C793.439 130.284 758.074 134.339 727.709 128.549Z" fill="#BBB4C1"/>
<path d="M775.576 37.2646L776.836 49.7922C776.836 49.7922 775.799 54.0487 768.462 55.3801C765.686 56.0653 762.766 55.8964 760.088 54.896L760.21 48.4809L760.332 42.207L773.401 37.9707L775.576 37.2646Z" fill="#FFD7D7"/>
<path d="M773.32 37.9717C773.295 38.3975 773.213 38.8181 773.076 39.2225C770.861 45.7586 763.28 47.8767 760.13 48.4819L760.252 42.2081L773.32 37.9717Z" fill="#2E2A32"/>
<path d="M754.56 13.9047C754.56 13.9047 749.519 30.2854 753.015 38.7581C756.511 47.2308 764.377 44.9311 768.99 42.6919C771.612 41.4989 773.859 39.6237 775.494 37.2653C776.911 37.5064 778.368 37.299 779.659 36.6727C780.95 36.0463 782.01 35.0327 782.689 33.7753C785.209 29.2767 782.811 24.7176 780.108 23.9308C779.14 23.7692 778.148 23.8095 777.196 24.0492C776.244 24.2888 775.353 24.7226 774.58 25.3228L776.449 20.5215C776.449 20.5215 763.706 -1.36633 754.56 13.9047Z" fill="#FFD7D7"/>
<path d="M757.527 33.6542C757.6 33.6721 757.677 33.6721 757.75 33.6542C757.871 33.5973 757.964 33.4956 758.01 33.371C758.055 33.2464 758.05 33.109 757.994 32.9884C757.375 30.9772 757.572 28.8058 758.543 26.9365C758.578 26.879 758.6 26.8148 758.609 26.7481C758.618 26.6814 758.613 26.6136 758.593 26.5491C758.574 26.4846 758.542 26.4247 758.498 26.3733C758.454 26.3219 758.4 26.2801 758.339 26.2506C758.281 26.2187 758.216 26.1985 758.15 26.1914C758.083 26.1842 758.016 26.1903 757.952 26.209C757.888 26.2278 757.828 26.2589 757.776 26.3007C757.724 26.3424 757.68 26.394 757.648 26.4524C757.073 27.5248 756.726 28.7029 756.628 29.914C756.53 31.125 756.684 32.3431 757.079 33.4928C757.135 33.5539 757.205 33.6005 757.283 33.6286C757.361 33.6568 757.444 33.6656 757.527 33.6542Z" fill="#2E2A32"/>
<path d="M776.101 32.5447C776.18 32.5447 776.257 32.5265 776.328 32.4914C776.399 32.4564 776.46 32.4056 776.507 32.3429L780.206 27.34C780.299 27.2457 780.352 27.119 780.352 26.987C780.352 26.855 780.299 26.7282 780.206 26.6339C780.152 26.5952 780.09 26.5676 780.025 26.5528C779.959 26.5379 779.891 26.536 779.825 26.5473C779.759 26.5585 779.696 26.5827 779.639 26.6183C779.582 26.654 779.533 26.7004 779.495 26.7549L775.572 31.7579C775.534 31.8105 775.506 31.8702 775.492 31.9335C775.477 31.9969 775.475 32.0625 775.487 32.1265C775.498 32.1906 775.522 32.2516 775.558 32.3061C775.594 32.3606 775.64 32.4074 775.694 32.4438C775.746 32.4956 775.812 32.5325 775.883 32.5502C775.955 32.568 776.03 32.5661 776.101 32.5447Z" fill="#2E2A32"/>
<path d="M780.452 30.7489C780.587 30.7489 780.716 30.6958 780.812 30.6012C780.907 30.5066 780.961 30.3783 780.961 30.2446C780.963 30.1793 780.953 30.1142 780.929 30.0531C780.906 29.992 780.871 29.9362 780.825 29.8891C780.779 29.842 780.725 29.8045 780.664 29.7789C780.604 29.7533 780.539 29.7402 780.473 29.7402H777.465C777.33 29.7402 777.201 29.7933 777.105 29.8879C777.01 29.9825 776.957 30.1108 776.957 30.2446C776.951 30.3105 776.959 30.377 776.981 30.4395C777.003 30.5019 777.039 30.559 777.085 30.6067C777.131 30.6545 777.187 30.6919 777.249 30.7164C777.311 30.741 777.378 30.752 777.444 30.7489H780.452Z" fill="#2E2A32"/>
<path d="M774.578 25.3225C774.361 25.4857 774.113 25.6039 773.849 25.67C773.585 25.7362 773.31 25.7489 773.04 25.7075C772.771 25.6661 772.513 25.5714 772.281 25.429C772.05 25.2866 771.849 25.0995 771.692 24.8787C770.29 23.2043 772.2 17.4752 772.2 17.4752C769.661 18.3996 766.904 18.5609 764.274 17.9391C761.994 16.72 760.165 14.8124 759.05 12.4924C759.05 12.4924 749.681 18.161 747.689 11.5039C744.538 0.933134 759.253 3.4346 759.253 3.4346C759.253 3.4346 759.64 -0.741239 768.786 1.41729C777.119 3.4346 777.952 13.3194 777.952 13.3194C777.952 13.3194 781.082 11.3021 782.647 16.3656C783.117 17.7815 783.276 19.2807 783.115 20.7627C782.954 22.2448 782.475 23.6756 781.712 24.9594C780.568 24.4995 779.337 24.2937 778.105 24.3564C776.872 24.4192 775.669 24.7489 774.578 25.3225Z" fill="#2E2A32"/>
<path d="M765.962 21.0672C766.054 21.0965 766.154 21.0965 766.246 21.0672C766.303 21.0305 766.351 20.983 766.389 20.9275C766.427 20.872 766.453 20.8095 766.467 20.7438C766.48 20.6781 766.48 20.6103 766.466 20.5446C766.453 20.4789 766.427 20.4165 766.389 20.3611C765.908 19.7841 765.256 19.3735 764.525 19.1886C763.794 19.0037 763.024 19.054 762.324 19.3323C762.197 19.3778 762.094 19.4714 762.037 19.5924C761.979 19.7135 761.973 19.8521 762.019 19.9778C762.037 20.041 762.068 20.0997 762.11 20.1501C762.153 20.2004 762.206 20.2413 762.265 20.2699C762.325 20.2985 762.39 20.3142 762.456 20.3161C762.522 20.3179 762.588 20.3057 762.649 20.2804C762.649 20.2804 764.58 19.6551 765.474 20.926C765.531 20.9959 765.608 21.0468 765.696 21.072C765.783 21.0972 765.876 21.0956 765.962 21.0672Z" fill="#2E2A32"/>
<path d="M753.665 20.6628C753.734 20.6659 753.803 20.653 753.867 20.625C753.93 20.5969 753.986 20.5547 754.03 20.5014C754.501 19.9792 755.141 19.6367 755.839 19.5331C756.044 19.5375 756.244 19.5869 756.427 19.6776C756.61 19.7683 756.77 19.8981 756.896 20.0576C756.937 20.1169 756.99 20.1668 757.052 20.2042C757.113 20.2415 757.182 20.2653 757.254 20.2741C757.326 20.2828 757.399 20.2763 757.468 20.2548C757.537 20.2334 757.6 20.1976 757.654 20.1499C757.708 20.1021 757.751 20.0435 757.781 19.9779C757.81 19.9123 757.825 19.8413 757.824 19.7695C757.824 19.6978 757.808 19.6269 757.777 19.5618C757.747 19.4967 757.703 19.4387 757.648 19.3918C757.432 19.1218 757.157 18.9036 756.843 18.7534C756.53 18.6033 756.187 18.525 755.839 18.5244C754.848 18.6212 753.932 19.0903 753.278 19.8357C753.185 19.9299 753.133 20.0567 753.133 20.1887C753.133 20.3207 753.185 20.4475 753.278 20.5417C753.387 20.6295 753.525 20.6728 753.665 20.6628Z" fill="#2E2A32"/>
<path d="M714.296 89.1299C720.28 92.2905 725.92 96.056 731.125 100.366C740.372 107.992 747.242 49.752 747.242 49.752C747.242 49.752 727.71 58.2045 714.296 89.1299Z" fill="#BBB4C1"/>
<path d="M730.312 99.4991C730.443 99.4992 730.57 99.4489 730.664 99.3587C730.759 99.2684 730.815 99.1452 730.82 99.015C731.477 90.2084 732.678 81.4502 734.418 72.7899C734.432 72.7236 734.434 72.655 734.421 72.5882C734.408 72.5215 734.382 72.4579 734.344 72.4014C734.306 72.3449 734.257 72.2965 734.2 72.2593C734.143 72.2221 734.079 72.1967 734.011 72.1847C733.879 72.1612 733.743 72.1903 733.633 72.2659C733.522 72.3415 733.447 72.4573 733.422 72.5882C731.68 81.3167 730.472 90.1418 729.804 99.015C729.801 99.0803 729.812 99.1454 729.835 99.2065C729.858 99.2676 729.894 99.3234 729.94 99.3705C729.985 99.4176 730.04 99.4551 730.1 99.4807C730.161 99.5063 730.226 99.5194 730.292 99.5193L730.312 99.4991Z" fill="white"/>
<path d="M765.108 56.4705C766.751 56.4583 768.387 56.262 769.986 55.8854C776.957 54.2514 778.115 50.0554 778.278 49.8335C778.296 49.7686 778.301 49.7006 778.293 49.6338C778.284 49.5669 778.262 49.5024 778.228 49.4441C778.194 49.3858 778.149 49.3349 778.094 49.2944C778.04 49.2538 777.978 49.2245 777.912 49.2081C777.849 49.1898 777.784 49.1842 777.719 49.1917C777.654 49.1991 777.591 49.2194 777.534 49.2514C777.477 49.2834 777.427 49.3264 777.388 49.3779C777.348 49.4294 777.319 49.4883 777.302 49.5511C777.302 49.7125 776.103 53.3638 769.742 54.8364C762.303 56.5713 758.868 53.7471 758.848 53.7269C758.797 53.6832 758.738 53.6498 758.674 53.6287C758.611 53.6076 758.543 53.5991 758.476 53.6038C758.409 53.6085 758.344 53.6262 758.284 53.656C758.224 53.6858 758.17 53.727 758.126 53.7774C758.082 53.8277 758.049 53.8861 758.027 53.9494C758.006 54.0126 757.997 54.0794 758.002 54.1459C758.007 54.2124 758.025 54.2773 758.055 54.3369C758.085 54.3966 758.126 54.4498 758.177 54.4935C760.193 55.9157 762.638 56.6131 765.108 56.4705Z" fill="white"/>
<path d="M761.186 38.2135H761.349C762.887 37.782 764.194 36.7677 764.987 35.3892C765.036 35.2656 765.036 35.1283 764.987 35.0047C764.938 34.8812 764.843 34.7806 764.722 34.7235C764.6 34.6733 764.464 34.6704 764.34 34.7152C764.216 34.76 764.113 34.8493 764.052 34.9656C763.387 36.0693 762.327 36.8834 761.084 37.2451C760.954 37.2829 760.844 37.3688 760.775 37.4852C760.707 37.6016 760.687 37.7396 760.718 37.8705C760.756 37.9654 760.82 38.0478 760.903 38.1084C760.985 38.1691 761.083 38.2055 761.186 38.2135Z" fill="#2E2A32"/>
<path d="M799.375 196.169C799.375 196.169 785.595 206.074 785.148 207.365C784.701 208.656 779.315 234.841 775.331 237.988C774.301 238.894 773.023 239.477 771.66 239.664C770.296 239.851 768.907 239.633 767.669 239.037C767.669 239.037 758.746 180.535 759.539 178.518C760.331 176.5 785.412 171.457 785.412 171.457L799.375 196.169Z" fill="#FFD7D7"/>
<path d="M769.863 239.563L763.319 176.582L754.762 177.893L762.648 240.733L769.863 239.563Z" fill="#2E2A32"/>
<path d="M780.411 226.369L782.789 217.634L767.322 215.092L766.407 223.121L780.411 226.369Z" fill="#2E2A32"/>
<path d="M714.294 195.503C714.294 195.503 728.094 205.428 728.521 206.699C728.948 207.97 734.374 234.175 738.338 237.322C739.368 238.228 740.645 238.811 742.009 238.998C743.372 239.185 744.761 238.967 746 238.371C746 238.371 754.922 179.869 754.13 177.852C753.337 175.834 728.277 170.791 728.277 170.791L714.294 195.503Z" fill="#FFD7D7"/>
<path d="M743.829 238.996L750.373 176.016L758.93 177.327L751.044 240.166L743.829 238.996Z" fill="#2E2A32"/>
<path d="M733.278 225.803L730.9 217.068L746.367 214.526L747.281 222.555L733.278 225.803Z" fill="#2E2A32"/>
<path d="M749.602 166.051L728.464 206.7L698.871 195.161L711.229 166.051H749.602Z" fill="#40507F"/>
<path d="M763.238 168.008L786.367 208.657L813.684 197.138L801.326 168.008H763.238Z" fill="#40507F"/>
<path d="M886.465 195.04H910.488V156.328C910.488 154.762 910.178 153.212 909.574 151.765C908.97 150.319 908.085 149.004 906.97 147.897C905.855 146.79 904.531 145.912 903.073 145.313C901.616 144.714 900.054 144.405 898.476 144.405C896.899 144.405 895.337 144.714 893.88 145.313C892.422 145.912 891.098 146.79 889.983 147.897C888.867 149.004 887.983 150.319 887.379 151.765C886.775 153.212 886.465 154.762 886.465 156.328V195.04Z" fill="#B1BDEA"/>
<path d="M893.924 136.497H903.07V149.892H893.924V136.497Z" fill="#B1BDEA"/>
<path d="M892.928 138.171H904.046C904.493 138.206 904.943 138.149 905.367 138.003C905.791 137.858 906.18 137.626 906.51 137.324C906.839 137.022 907.102 136.655 907.282 136.247C907.462 135.839 907.555 135.399 907.555 134.953C907.555 134.508 907.462 134.067 907.282 133.659C907.102 133.251 906.839 132.885 906.51 132.583C906.18 132.28 905.791 132.049 905.367 131.903C904.943 131.758 904.493 131.7 904.046 131.736H892.928C892.481 131.7 892.031 131.758 891.607 131.903C891.183 132.049 890.794 132.28 890.465 132.583C890.135 132.885 889.872 133.251 889.692 133.659C889.512 134.067 889.419 134.508 889.419 134.953C889.419 135.399 889.512 135.839 889.692 136.247C889.872 136.655 890.135 137.022 890.465 137.324C890.794 137.626 891.183 137.858 891.607 138.003C892.031 138.149 892.481 138.206 892.928 138.171Z" fill="#BBB4C1"/>
<path d="M907.297 176.44C907.431 176.44 907.561 176.387 907.656 176.293C907.751 176.198 907.805 176.07 907.805 175.936V154.27C907.8 154.138 907.745 154.012 907.65 153.919C907.556 153.825 907.43 153.771 907.297 153.766C907.162 153.766 907.033 153.819 906.937 153.913C906.842 154.008 906.788 154.136 906.788 154.27V175.996C906.803 176.119 906.864 176.233 906.957 176.315C907.051 176.396 907.172 176.441 907.297 176.44Z" fill="white"/>
<path d="M780.494 136.537C780.494 136.537 767.181 133.854 765.962 134.843C764.742 135.831 768.38 152.434 768.38 152.434L788.461 152.171V141.217L780.494 136.537Z" fill="#FFD7D7"/>
<path d="M801.511 158.889H714.481C712.865 158.889 711.555 157.588 711.555 155.984V155.076C711.555 153.472 712.865 152.171 714.481 152.171H801.511C803.128 152.171 804.438 153.472 804.438 155.076V155.984C804.438 157.588 803.128 158.889 801.511 158.889Z" fill="#2E2A32"/>
<path d="M780.594 158.888H716.409L698.117 117.715H759.72C760.474 117.714 761.212 117.931 761.844 118.339C762.475 118.748 762.973 119.33 763.277 120.015L780.594 158.888Z" fill="white"/>
<path d="M775.023 158.888H710.818L694.558 122.153C694.346 121.672 694.258 121.147 694.301 120.623C694.344 120.1 694.517 119.596 694.806 119.156C695.094 118.716 695.488 118.354 695.952 118.102C696.416 117.851 696.936 117.718 697.465 117.715H756.691L775.023 158.888Z" fill="#68B6D8"/>
<path d="M740.047 138.292C740.047 139.361 739.727 140.407 739.129 141.296C738.53 142.185 737.68 142.878 736.684 143.287C735.689 143.696 734.594 143.803 733.537 143.595C732.481 143.386 731.51 142.871 730.748 142.115C729.986 141.359 729.468 140.396 729.258 139.347C729.047 138.298 729.155 137.211 729.567 136.223C729.98 135.235 730.678 134.391 731.574 133.797C732.469 133.203 733.523 132.886 734.6 132.886C736.044 132.886 737.43 133.455 738.451 134.469C739.473 135.483 740.047 136.858 740.047 138.292Z" fill="white"/>
<path d="M703.767 158.283C703.861 158.285 703.954 158.262 704.037 158.216C704.119 158.169 704.187 158.102 704.234 158.021C704.283 157.922 704.3 157.811 704.282 157.702C704.264 157.593 704.211 157.493 704.133 157.416C703.238 156.569 695.495 149.165 692.08 149.165H691.918C691.684 149.176 691.455 149.238 691.248 149.346C691.041 149.454 690.86 149.606 690.718 149.79C690.404 150.134 690.191 150.556 690.102 151.011C690.012 151.466 690.05 151.937 690.21 152.373C691.653 156.064 702.405 158.061 703.685 158.283H703.767ZM692.1 150.214C694.133 150.214 699.255 154.37 702.141 156.992C698.32 156.145 691.978 154.329 691.166 152.05C691.071 151.775 691.054 151.48 691.115 151.196C691.176 150.912 691.312 150.649 691.511 150.436C691.569 150.363 691.643 150.305 691.728 150.267C691.813 150.228 691.906 150.21 691.999 150.214H692.1Z" fill="#BBB4C1"/>
<path d="M743.851 165.485C743.974 165.485 744.092 165.442 744.184 165.362C744.277 165.283 744.337 165.173 744.354 165.052C744.372 164.932 744.345 164.81 744.278 164.708C744.212 164.606 744.111 164.531 743.994 164.497C724.281 159.593 704.144 156.56 683.853 155.439C683.786 155.434 683.719 155.441 683.655 155.462C683.592 155.482 683.532 155.515 683.481 155.558C683.43 155.601 683.388 155.654 683.358 155.713C683.328 155.772 683.309 155.837 683.304 155.903C683.299 156.039 683.346 156.172 683.437 156.273C683.528 156.375 683.655 156.438 683.792 156.448C704.014 157.56 724.084 160.579 743.729 165.465L743.851 165.485Z" fill="#BBB4C1"/>
<path d="M767.747 168.511H767.93C788.133 161.837 809.118 157.769 830.367 156.407C830.434 156.402 830.499 156.384 830.558 156.354C830.618 156.324 830.671 156.282 830.715 156.231C830.758 156.181 830.791 156.122 830.812 156.059C830.832 155.995 830.84 155.929 830.834 155.862C830.835 155.796 830.821 155.73 830.794 155.67C830.767 155.609 830.727 155.555 830.676 155.511C830.626 155.467 830.567 155.434 830.503 155.415C830.439 155.395 830.372 155.39 830.306 155.398C808.963 156.755 787.884 160.823 767.584 167.502C767.465 167.537 767.362 167.613 767.295 167.717C767.229 167.822 767.203 167.946 767.223 168.068C767.243 168.19 767.308 168.3 767.404 168.378C767.5 168.456 767.622 168.496 767.747 168.491V168.511Z" fill="#BBB4C1"/>
<path d="M810.43 158.384C811.751 158.142 822.523 155.984 823.905 152.332C824.065 151.895 824.101 151.423 824.008 150.967C823.914 150.511 823.696 150.09 823.377 149.75C823.231 149.568 823.045 149.421 822.834 149.32C822.623 149.219 822.392 149.166 822.157 149.165H822.035C818.641 149.165 810.958 156.71 810.064 157.577C810.006 157.664 809.974 157.766 809.974 157.87C809.974 157.974 810.006 158.076 810.064 158.162C810.104 158.224 810.158 158.277 810.221 158.315C810.285 158.354 810.356 158.377 810.43 158.384ZM822.015 150.093C822.401 150.093 822.523 150.234 822.584 150.315C822.788 150.521 822.931 150.779 822.995 151.06C823.06 151.342 823.044 151.635 822.95 151.909C822.096 154.208 815.857 156.125 812.056 157.012C814.922 154.35 819.901 150.093 822.015 150.093Z" fill="#BBB4C1"/>
<path d="M763.234 27.5418C763.369 27.5418 763.498 27.4886 763.593 27.394C763.689 27.2995 763.742 27.1712 763.742 27.0375V23.9106C763.742 23.7768 763.689 23.6486 763.593 23.554C763.498 23.4594 763.369 23.4062 763.234 23.4062C763.099 23.4062 762.97 23.4594 762.875 23.554C762.779 23.6486 762.726 23.7768 762.726 23.9106V27.0375C762.726 27.1712 762.779 27.2995 762.875 27.394C762.97 27.4886 763.099 27.5418 763.234 27.5418Z" fill="#2E2A32"/>
<path d="M754.761 27.5418C754.896 27.5418 755.025 27.4886 755.121 27.394C755.216 27.2995 755.27 27.1712 755.27 27.0375V23.9106C755.27 23.7768 755.216 23.6486 755.121 23.554C755.025 23.4594 754.896 23.4062 754.761 23.4062C754.627 23.4062 754.497 23.4594 754.402 23.554C754.307 23.6486 754.253 23.7768 754.253 23.9106V27.0375C754.253 27.1712 754.307 27.2995 754.402 27.394C754.497 27.4886 754.627 27.5418 754.761 27.5418Z" fill="#2E2A32"/>
<path d="M819.495 82.4941C819.495 82.4941 836.161 106.702 819.109 125.786C802.504 144.406 788.459 152.172 788.459 152.172L780.492 136.538L799.963 104.866L800.146 102.284C805.11 94.4209 811.681 87.679 819.434 82.4941H819.495Z" fill="#FFD7D7"/>
<path d="M717.83 138.535C716.872 137.6 715.701 136.908 714.416 136.517C710.066 135.085 697.221 133.229 694.803 137.385C692.384 141.541 699.599 142.59 699.599 142.59C699.599 142.59 693.664 142.731 695.148 146.624C695.58 147.611 696.285 148.457 697.18 149.064C698.076 149.67 699.126 150.014 700.209 150.054C700.209 150.054 694.112 150.76 697.628 154.996C701.144 159.232 714.579 159.999 719.009 158.567C723.44 157.134 718.542 152.232 718.542 152.232C718.542 152.232 723.095 150.054 722.302 147.431C721.509 144.809 717.404 144.688 717.404 144.688C717.881 144.341 718.276 143.894 718.562 143.38C718.848 142.866 719.017 142.296 719.057 141.71C719.098 141.124 719.009 140.536 718.797 139.988C718.585 139.439 718.255 138.943 717.83 138.535Z" fill="#FFD7D7"/>
<path d="M715.902 145.333C716.023 145.33 716.139 145.287 716.231 145.21C716.324 145.133 716.387 145.027 716.41 144.909C716.418 144.843 716.414 144.775 716.396 144.711C716.378 144.647 716.347 144.586 716.305 144.534C716.264 144.481 716.212 144.437 716.153 144.405C716.095 144.372 716.03 144.352 715.963 144.344L699.703 142.105C699.571 142.088 699.438 142.122 699.331 142.201C699.225 142.281 699.154 142.398 699.134 142.529C699.126 142.595 699.13 142.662 699.148 142.727C699.166 142.791 699.197 142.851 699.239 142.904C699.28 142.956 699.332 143 699.391 143.033C699.45 143.065 699.514 143.086 699.581 143.093L715.841 145.333H715.902Z" fill="#2E2A32"/>
<path d="M716.633 152.676C716.767 152.676 716.897 152.623 716.992 152.528C717.087 152.434 717.141 152.305 717.141 152.172C717.141 152.038 717.087 151.909 716.992 151.815C716.897 151.72 716.767 151.667 716.633 151.667L700.251 149.65C700.119 149.633 699.986 149.667 699.879 149.746C699.773 149.826 699.702 149.943 699.682 150.074C699.67 150.139 699.672 150.205 699.688 150.27C699.703 150.334 699.732 150.395 699.772 150.448C699.812 150.501 699.863 150.545 699.92 150.578C699.978 150.61 700.042 150.631 700.109 150.638L716.511 152.656L716.633 152.676Z" fill="#2E2A32"/>
<path d="M828.926 94.8389C828.926 94.8389 822.158 72.6484 806.223 60.2218C795.045 51.4666 787.138 49.752 787.138 49.752L793.459 111.441L828.926 94.8389Z" fill="#BBB4C1"/>
<path d="M794.026 108.375H794.148C794.213 108.361 794.275 108.334 794.33 108.296C794.385 108.257 794.432 108.209 794.468 108.153C794.504 108.096 794.528 108.034 794.54 107.968C794.551 107.902 794.549 107.835 794.534 107.77L791.79 96.8766C791.776 96.812 791.749 96.7509 791.71 96.6971C791.671 96.6434 791.622 96.5981 791.564 96.5641C791.507 96.5301 791.444 96.508 791.378 96.4993C791.312 96.4906 791.245 96.4955 791.18 96.5135C791.115 96.5278 791.053 96.5548 790.998 96.593C790.943 96.6313 790.896 96.68 790.86 96.7362C790.824 96.7925 790.8 96.8552 790.789 96.9209C790.777 96.9865 790.779 97.0537 790.794 97.1187L793.538 108.012C793.572 108.115 793.637 108.206 793.724 108.271C793.811 108.336 793.917 108.372 794.026 108.375Z" fill="white"/>
<rect x="-0.75" y="0.75" width="27.0312" height="17.0247" rx="1.25" transform="matrix(-1 0 0 1 703.738 35.6348)" stroke="white" stroke-width="1.5"/>
<path d="M704.434 36.5283L690.436 46.4778L677.639 36.5283" stroke="white" stroke-width="1.5"/>
<path d="M677.062 41.5419C676.359 40.5483 675.584 39.6864 674.497 39.1017C673.602 38.6205 672.593 38.3012 671.619 38.0195C670.132 37.5895 668.015 37.1184 666.77 38.3228C666.123 38.949 665.504 40.0277 666.203 40.8112C667.068 41.7794 668.608 42.1829 669.825 42.4725C670.123 42.5432 670.412 42.6415 670.708 42.7137C670.862 42.7511 671.108 42.7369 671.247 42.8137C671.503 42.9545 670.672 42.7052 670.382 42.6724C669.702 42.5956 668.966 42.962 668.682 43.5961C667.736 45.7058 671.246 46.2596 672.672 46.3775C672.981 46.403 672.599 46.37 672.491 46.3878C672.118 46.4495 671.671 46.7428 671.358 46.9393C670.915 47.2179 670.742 47.9125 671.042 48.3317C671.333 48.7378 671.654 48.8984 672.022 49.1968C672.145 49.2963 672.436 49.2348 672.592 49.2657C672.847 49.3162 673.113 49.2967 673.371 49.2967C674.328 49.2967 675.113 49.2222 675.964 48.8004C676.3 48.6336 676.95 48.4031 677.125 48.056" stroke="white" stroke-width="1.5" stroke-linecap="round"/>
<path d="M705.301 41.5419C706.004 40.5483 706.779 39.6864 707.866 39.1017C708.761 38.6205 709.77 38.3012 710.744 38.0195C712.231 37.5895 714.348 37.1184 715.593 38.3228C716.241 38.949 716.86 40.0277 716.16 40.8112C715.296 41.7794 713.755 42.1829 712.538 42.4725C712.241 42.5432 711.952 42.6415 711.655 42.7137C711.502 42.7511 711.256 42.7369 711.116 42.8137C710.861 42.9545 711.691 42.7052 711.982 42.6724C712.661 42.5956 713.397 42.962 713.682 43.5961C714.627 45.7058 711.118 46.2596 709.691 46.3775C709.382 46.403 709.764 46.37 709.872 46.3878C710.245 46.4495 710.693 46.7428 711.005 46.9393C711.448 47.2179 711.622 47.9125 711.321 48.3317C711.03 48.7378 710.709 48.8984 710.341 49.1968C710.218 49.2963 709.927 49.2348 709.771 49.2657C709.517 49.3162 709.251 49.2967 708.992 49.2967C708.036 49.2967 707.25 49.2222 706.399 48.8004C706.063 48.6336 705.413 48.4031 705.238 48.056" stroke="white" stroke-width="1.5" stroke-linecap="round"/>
</g>
<defs>
<clipPath id="clip0_2073_30767">
<rect width="412" height="240" fill="white" transform="matrix(-1 0 0 1 950 0.731445)"/>
</clipPath>
</defs>
</svg>
