<svg width="1032" height="238" viewBox="0 0 1032 238" fill="none" xmlns="http://www.w3.org/2000/svg">
<g clip-path="url(#clip0_2073_30832)">
<path d="M243.27 217.626C310.246 217.626 364.541 215.435 364.541 212.733C364.541 210.03 310.246 207.84 243.27 207.84C176.295 207.84 122 210.03 122 212.733C122 215.435 176.295 217.626 243.27 217.626Z" fill="#DDD0D0"/>
<path d="M211.838 5.33884C211.838 5.33884 200.321 -4.67902 188.857 7.76741C177.393 20.2138 187.235 61.446 187.235 61.446L206.383 54.7138L211.838 5.33884Z" fill="#2E2A32"/>
<path d="M183.776 82.0527C181.833 80.517 141.29 74.6777 142.77 131.517C144.25 188.356 195.347 225.731 277.483 208.66C346.747 194.249 281.191 114.892 281.191 114.892L183.776 82.0527Z" fill="#BB9ED8"/>
<path d="M188.268 183.768C188.192 183.784 188.113 183.784 188.037 183.768C176.862 177.072 167.821 167.33 161.971 155.678C161.948 155.624 161.935 155.566 161.934 155.507C161.933 155.449 161.943 155.39 161.965 155.335C161.986 155.281 162.018 155.231 162.059 155.188C162.1 155.146 162.149 155.112 162.203 155.089C162.312 155.046 162.434 155.046 162.543 155.089C162.652 155.132 162.741 155.215 162.791 155.321C168.582 166.814 177.517 176.42 188.554 183.018C188.655 183.077 188.728 183.174 188.758 183.288C188.788 183.402 188.773 183.523 188.714 183.625C188.66 183.688 188.59 183.734 188.511 183.759C188.433 183.785 188.349 183.787 188.268 183.768Z" fill="white"/>
<path d="M203.762 168.107C203.762 173.178 221.751 177.303 243.93 177.303C266.108 177.303 284.08 173.178 284.08 168.107C284.08 163.035 266.091 158.91 243.93 158.91C221.769 158.91 203.762 163.035 203.762 168.107Z" fill="#A685C8"/>
<path d="M316.705 171.428C316.705 171.428 327.527 183.821 330.005 184.963C332.483 186.106 358.388 194.392 363.398 199.16C368.408 203.928 368.907 213.446 367.517 214.356C366.126 215.267 281.404 215.713 281.404 215.713L279.871 174.821L316.705 171.428Z" fill="#39476B"/>
<path d="M362.543 181.356C362.543 181.356 378.339 185.909 381.049 185.516C383.759 185.123 410.003 178.07 416.706 179.356C423.41 180.641 429.062 188.284 428.384 189.891C427.707 191.498 356.731 237.731 356.731 237.731L333.34 204.177L362.543 181.356Z" fill="#40507F"/>
<path d="M374.455 183.767C374.455 183.767 372.137 201.624 374.989 201.017C377.842 200.41 394.904 184.856 393.05 183.16C391.196 181.464 376.612 182.071 374.455 183.767Z" fill="white"/>
<path d="M325.405 179.91C325.405 179.91 313.816 193.66 316.491 194.713C319.165 195.767 341.968 191.91 341.344 189.481C340.72 187.052 328.15 179.66 325.405 179.91Z" fill="white"/>
<path d="M264.773 108.927C264.773 108.927 304.442 80.7662 338.815 89.409C373.189 98.0519 323.019 181.605 323.019 181.605L273.099 181.713L277.948 157.784L218.098 157.659L244.502 120.159L264.773 108.927Z" fill="#8E657D"/>
<path d="M310.754 113.856C310.671 113.872 310.586 113.872 310.504 113.856C310.407 113.787 310.341 113.684 310.318 113.568C310.294 113.452 310.316 113.331 310.379 113.231C313.334 108.719 316.864 104.613 320.88 101.016C320.925 100.978 320.976 100.948 321.032 100.929C321.088 100.911 321.147 100.903 321.206 100.907C321.265 100.912 321.322 100.927 321.375 100.954C321.428 100.98 321.475 101.016 321.513 101.061C321.552 101.106 321.581 101.157 321.6 101.213C321.619 101.269 321.626 101.328 321.622 101.387C321.618 101.446 321.602 101.504 321.576 101.556C321.55 101.609 321.513 101.656 321.469 101.695C317.512 105.231 314.035 109.271 311.128 113.713C311.081 113.764 311.023 113.804 310.958 113.829C310.893 113.854 310.823 113.863 310.754 113.856Z" fill="white"/>
<path d="M197.467 47.9265C203.297 39.4443 214.244 38.6408 223.514 39.855C227.987 40.4509 232.297 41.9287 236.195 44.203C240.094 46.4772 243.504 49.5029 246.228 53.105C252.415 61.3193 261.775 72.7479 268.96 77.98C280.602 86.3193 304.225 96.355 304.225 96.355L261.079 107.426L262.167 110.623L200.212 139.641C200.212 139.641 183.614 68.2122 197.467 47.9265Z" fill="#68B6D8"/>
<path d="M211.731 28.5342L209.574 41.1949C209.574 41.1949 211.232 45.2127 218.489 47.0877C223.837 48.4806 225.727 46.8377 225.727 46.8377L226.387 41.0163L226.69 34.6413L213.8 29.4449L211.731 28.5342Z" fill="#FFD7D7"/>
<path d="M213.798 30.5352C213.789 30.9516 213.843 31.3669 213.958 31.7673C215.741 38.3209 221.268 42.0709 226.278 41.7852L226.527 35.6602L213.798 30.5352Z" fill="#2E2A32"/>
<path d="M234.039 9.80349C234.039 9.80349 236.356 25.8749 232.131 33.6963C227.906 41.5178 221.434 38.9106 217.191 36.2499C214.791 34.8244 212.819 32.7761 211.485 30.3213C210.098 30.4091 208.719 30.0581 207.541 29.318C206.364 28.5778 205.449 27.4858 204.925 26.1963C202.963 21.5713 205.745 17.4106 208.49 16.9106C209.437 16.8529 210.386 16.993 211.276 17.3219C212.166 17.6508 212.978 18.1614 213.661 18.8213L212.377 13.9642C212.377 13.9642 226.8 -5.89294 234.039 9.80349Z" fill="#FFD7D7"/>
<path d="M229.184 28.6775C229.114 28.7006 229.039 28.7006 228.97 28.6775C228.869 28.6179 228.795 28.5206 228.765 28.407C228.735 28.2933 228.751 28.1723 228.809 28.0704C229.637 26.1449 229.676 23.9704 228.916 22.0168C228.873 21.9074 228.873 21.7858 228.916 21.6764C228.959 21.567 229.042 21.4781 229.148 21.4275C229.203 21.4044 229.262 21.3925 229.321 21.3926C229.381 21.3927 229.44 21.4047 229.495 21.428C229.55 21.4513 229.599 21.4854 229.641 21.5283C229.682 21.5711 229.715 21.6219 229.736 21.6775C230.179 22.7677 230.393 23.9373 230.365 25.1138C230.338 26.2903 230.069 27.4486 229.576 28.5168C229.528 28.5729 229.467 28.6167 229.399 28.6447C229.331 28.6726 229.257 28.6839 229.184 28.6775Z" fill="#2E2A32"/>
<path d="M211.444 25.7131C211.368 25.7138 211.293 25.6943 211.228 25.6566C211.162 25.619 211.107 25.5645 211.069 25.4988L208.003 20.2667C207.952 20.1603 207.939 20.0392 207.969 19.9248C207.998 19.8104 208.067 19.7101 208.163 19.6417C208.268 19.5822 208.391 19.5657 208.508 19.5957C208.624 19.6257 208.724 19.6998 208.787 19.8024L211.836 25.0524C211.894 25.1544 211.91 25.2753 211.88 25.389C211.85 25.5027 211.777 25.5999 211.675 25.6595C211.604 25.6958 211.524 25.7142 211.444 25.7131Z" fill="#2E2A32"/>
<path d="M210.338 23.8022L207.396 23.57C207.337 23.5655 207.28 23.5494 207.228 23.5227C207.175 23.496 207.129 23.4592 207.091 23.4144C207.053 23.3696 207.024 23.3177 207.006 23.2616C206.988 23.2056 206.981 23.1465 206.986 23.0879C206.985 23.0274 206.997 22.9674 207.022 22.9123C207.047 22.8571 207.084 22.8082 207.13 22.769C207.176 22.7297 207.23 22.7011 207.288 22.6853C207.347 22.6694 207.408 22.6666 207.467 22.6772L210.356 22.9093C210.474 22.9093 210.587 22.9563 210.671 23.0401C210.754 23.1238 210.801 23.2373 210.801 23.3557C210.801 23.4741 210.754 23.5877 210.671 23.6714C210.587 23.7551 210.474 23.8022 210.356 23.8022H210.338Z" fill="#2E2A32"/>
<path d="M222.428 15.6064C222.323 15.6087 222.221 15.5703 222.143 15.4992C222.1 15.4591 222.066 15.4107 222.043 15.357C222.02 15.3032 222.008 15.2453 222.008 15.1867C222.008 15.1282 222.02 15.0702 222.043 15.0165C222.066 14.9627 222.1 14.9143 222.143 14.8742C222.648 14.3815 223.296 14.061 223.994 13.9584C224.692 13.8559 225.404 13.9764 226.029 14.3028C226.135 14.3531 226.217 14.4432 226.257 14.5535C226.297 14.6638 226.292 14.7854 226.243 14.8921C226.19 14.9994 226.096 15.0816 225.983 15.1216C225.87 15.1615 225.746 15.1561 225.637 15.1064C225.637 15.1064 223.854 14.2671 222.82 15.4457C222.773 15.5029 222.713 15.5476 222.645 15.5757C222.576 15.6037 222.502 15.6143 222.428 15.6064Z" fill="#2E2A32"/>
<path d="M234.249 16.5527C234.179 16.5557 234.11 16.541 234.047 16.5097C233.985 16.4785 233.931 16.4318 233.892 16.3741C233.48 15.8092 232.889 15.4003 232.216 15.2134C232.012 15.2001 231.807 15.2315 231.616 15.3055C231.425 15.3796 231.253 15.4944 231.111 15.642C231.021 15.703 230.913 15.7294 230.805 15.7162C230.698 15.703 230.599 15.6511 230.527 15.5702C230.455 15.4894 230.415 15.385 230.414 15.2766C230.413 15.1682 230.452 15.0633 230.523 14.9812C230.753 14.7474 231.032 14.5682 231.341 14.457C231.65 14.3457 231.979 14.3052 232.305 14.3384C233.239 14.5281 234.063 15.072 234.605 15.8562C234.642 15.9018 234.668 15.9546 234.682 16.0111C234.697 16.0676 234.699 16.1266 234.689 16.184C234.679 16.2415 234.656 16.2961 234.624 16.3443C234.591 16.3924 234.548 16.433 234.498 16.4634C234.465 16.4943 234.425 16.5182 234.383 16.5335C234.34 16.5488 234.294 16.5554 234.249 16.5527Z" fill="#2E2A32"/>
<path d="M212.659 141.088C212.54 141.084 212.425 141.042 212.332 140.968C212.239 140.894 212.172 140.792 212.142 140.677L210.359 133.999C210.34 133.928 210.335 133.855 210.345 133.783C210.354 133.711 210.378 133.641 210.414 133.578C210.451 133.515 210.499 133.46 210.557 133.415C210.615 133.371 210.681 133.339 210.751 133.32C210.821 133.299 210.895 133.292 210.968 133.3C211.041 133.309 211.111 133.332 211.175 133.369C211.239 133.406 211.294 133.455 211.337 133.515C211.381 133.574 211.412 133.641 211.428 133.713L213.211 140.392C213.23 140.462 213.235 140.535 213.225 140.608C213.216 140.68 213.192 140.749 213.156 140.812C213.119 140.875 213.071 140.931 213.013 140.975C212.955 141.019 212.889 141.052 212.819 141.07L212.659 141.088Z" fill="#534579"/>
<path d="M264.95 124.303C264.879 124.303 264.81 124.29 264.745 124.263C264.68 124.236 264.621 124.196 264.572 124.147C264.522 124.097 264.482 124.038 264.456 123.973C264.429 123.908 264.415 123.838 264.415 123.768L264.219 116.625C264.219 116.478 264.277 116.337 264.381 116.233C264.484 116.13 264.625 116.071 264.771 116.071C264.918 116.071 265.059 116.13 265.162 116.233C265.266 116.337 265.324 116.478 265.324 116.625L265.502 123.768C265.505 123.84 265.493 123.911 265.467 123.978C265.441 124.045 265.402 124.106 265.352 124.158C265.302 124.21 265.243 124.251 265.176 124.279C265.11 124.307 265.039 124.321 264.968 124.321L264.95 124.303Z" fill="#534579"/>
<path d="M259.1 128.731C258.953 128.731 258.812 128.672 258.709 128.569C258.605 128.465 258.547 128.324 258.547 128.177V120.641C258.547 120.495 258.605 120.354 258.709 120.25C258.812 120.146 258.953 120.088 259.1 120.088C259.171 120.088 259.242 120.102 259.308 120.13C259.375 120.158 259.434 120.199 259.484 120.251C259.534 120.303 259.573 120.364 259.599 120.431C259.625 120.498 259.637 120.57 259.634 120.641V128.177C259.637 128.249 259.625 128.321 259.599 128.388C259.573 128.455 259.534 128.516 259.484 128.568C259.434 128.619 259.375 128.66 259.308 128.688C259.242 128.716 259.171 128.731 259.1 128.731Z" fill="#534579"/>
<path d="M199.93 138.141C199.93 138.141 282.637 95.9805 301.553 102.213C326.352 110.373 371.298 177.73 371.298 177.73L331.897 215.927C331.897 215.927 291.087 160.784 284.562 161.588C277.003 162.445 234.517 180.338 219.399 175.48C204.28 170.623 199.93 138.141 199.93 138.141Z" fill="#A37B90"/>
<path d="M285.932 161.946H285.789C285.707 161.915 285.634 161.863 285.581 161.793C285.527 161.724 285.494 161.64 285.486 161.553C285.486 161.196 284.951 152.624 288.196 149.428C288.623 148.991 289.143 148.656 289.717 148.449C290.291 148.242 290.905 148.167 291.512 148.231C291.962 148.2 292.41 148.308 292.796 148.542C293.182 148.775 293.487 149.122 293.669 149.535C294.9 152.767 287.144 160.91 286.253 161.838C286.21 161.878 286.159 161.908 286.104 161.927C286.048 161.945 285.99 161.952 285.932 161.946ZM291.138 149.088C290.706 149.079 290.276 149.159 289.877 149.325C289.478 149.491 289.118 149.739 288.82 150.053C286.502 152.338 286.324 158.053 286.342 160.428C289.497 157.017 293.473 151.713 292.849 149.838C292.849 149.678 292.6 149.178 291.441 149.088H291.138Z" fill="white"/>
<path d="M248.334 97.3041C248.24 97.3053 248.148 97.2766 248.071 97.222C247.994 97.1675 247.937 97.09 247.907 97.0006L244.234 86.4648C243.895 87.1434 243.753 87.0898 243.521 87.0006C243.289 86.9113 243.129 86.5184 243.699 84.697C243.731 84.609 243.79 84.533 243.866 84.4788C243.942 84.4246 244.033 84.3948 244.127 84.3934C244.519 83.3755 245.108 81.822 245.999 79.447C250.153 68.2505 239.295 56.2327 239.188 56.2327C239.149 56.1893 239.118 56.1385 239.098 56.0832C239.077 56.0278 239.068 55.9691 239.071 55.9102C239.073 55.8513 239.087 55.7935 239.112 55.7401C239.137 55.6866 239.172 55.6386 239.215 55.5988C239.258 55.5589 239.309 55.528 239.364 55.5077C239.42 55.4875 239.478 55.4784 239.537 55.4809C239.596 55.4834 239.654 55.4974 239.707 55.5222C239.76 55.5471 239.808 55.5822 239.848 55.6256C239.955 55.7506 251.169 68.1256 246.819 79.8577C245.821 82.5541 245.179 84.2684 244.751 85.3577L248.762 96.8041C248.797 96.9178 248.787 97.0405 248.733 97.1468C248.68 97.2531 248.589 97.335 248.477 97.3756L248.334 97.3041Z" fill="#40507F"/>
<path d="M223.728 21.5339C223.667 21.5341 223.606 21.5215 223.549 21.4969C223.493 21.4722 223.442 21.4361 223.4 21.3908C223.358 21.3455 223.326 21.292 223.306 21.2336C223.286 21.1752 223.278 21.1133 223.283 21.0518L223.568 18.1946C223.581 18.0766 223.638 17.968 223.728 17.891L224.834 16.9446C224.875 16.8966 224.926 16.8579 224.984 16.8313C225.042 16.8046 225.104 16.7906 225.168 16.7901C225.231 16.7896 225.294 16.8026 225.352 16.8283C225.41 16.8541 225.461 16.8919 225.504 16.9393C225.546 16.9867 225.577 17.0426 225.596 17.1032C225.615 17.1638 225.621 17.2278 225.613 17.2908C225.606 17.3539 225.585 17.4145 225.552 17.4688C225.519 17.523 225.474 17.5696 225.422 17.6053L224.442 18.4625L224.174 21.141C224.157 21.2484 224.104 21.3465 224.022 21.4183C223.941 21.4901 223.837 21.531 223.728 21.5339Z" fill="#2E2A32"/>
<path d="M232.127 22.7841C232.065 22.7843 232.004 22.7717 231.948 22.7471C231.891 22.7224 231.84 22.6863 231.798 22.641C231.756 22.5957 231.724 22.5422 231.704 22.4838C231.684 22.4255 231.676 22.3636 231.681 22.302L231.913 19.4449C231.912 19.3866 231.924 19.3289 231.948 19.2762C231.973 19.2235 232.01 19.1773 232.056 19.1413L233.446 17.9449C233.486 17.9021 233.534 17.8681 233.588 17.8448C233.642 17.8216 233.7 17.8096 233.758 17.8096C233.817 17.8096 233.874 17.8216 233.928 17.8448C233.982 17.8681 234.03 17.9021 234.07 17.9449C234.152 18.0283 234.198 18.1405 234.198 18.2574C234.198 18.3742 234.152 18.4864 234.07 18.5699L232.822 19.6591L232.608 22.3377C232.608 22.3995 232.596 22.4606 232.571 22.5172C232.547 22.5738 232.511 22.6248 232.465 22.6667C232.42 22.7087 232.367 22.7408 232.308 22.761C232.25 22.7812 232.188 22.7891 232.127 22.7841Z" fill="#2E2A32"/>
<path d="M213.514 18.8927L214.709 21.607C214.709 21.607 215.957 17.7142 216.706 17.3927C220.023 16.6402 223.173 15.2778 225.994 13.3749C230.362 10.232 230.933 8.53558 230.933 8.53558C232.498 11.2698 233.6 14.2445 234.196 17.3392C234.57 20.3213 234.606 21.8392 234.606 21.8392C234.606 21.8392 237.316 4.21416 232.502 1.87487C227.688 -0.464414 224.996 1.78558 224.996 1.78558C224.996 1.78558 215.886 -0.33942 209.699 4.62487C203.513 9.58915 206.133 18.4106 206.133 18.4106C206.133 18.4106 209.182 15.607 213.514 18.8927Z" fill="#2E2A32"/>
<path d="M252.578 108.266H308.881L324.927 71.8369H270.87C270.211 71.8347 269.565 72.0241 269.011 72.3823C268.458 72.7405 268.02 73.2521 267.75 73.8548L252.578 108.266Z" fill="white"/>
<path d="M257.461 108.265H313.764L328.027 75.7476C328.214 75.3232 328.292 74.8587 328.254 74.3962C328.217 73.9338 328.064 73.4881 327.811 73.0996C327.558 72.7111 327.212 72.3921 326.804 72.1716C326.396 71.9511 325.94 71.8361 325.477 71.8369H273.542L257.461 108.265Z" fill="#39476B"/>
<path d="M245.25 112.875L313.141 112.875C314.431 112.875 315.477 111.828 315.477 110.536V109.696C315.477 108.404 314.431 107.357 313.141 107.357L245.25 107.357C243.96 107.357 242.914 108.404 242.914 109.696V110.536C242.914 111.828 243.96 112.875 245.25 112.875Z" fill="#2E2A32"/>
<path d="M288.129 90.0526C288.129 91.0034 288.411 91.9329 288.938 92.7232C289.466 93.5135 290.216 94.1292 291.094 94.4922C291.971 94.8553 292.936 94.9494 293.867 94.7626C294.798 94.5758 295.652 94.1165 296.322 93.4429C296.992 92.7693 297.448 91.9117 297.631 90.9788C297.814 90.0458 297.716 89.0794 297.351 88.202C296.985 87.3246 296.367 86.5756 295.576 86.0499C294.785 85.5242 293.856 85.2455 292.907 85.2491C292.278 85.2491 291.655 85.3734 291.074 85.615C290.494 85.8567 289.966 86.2108 289.522 86.6571C289.078 87.1033 288.727 87.633 288.487 88.2157C288.248 88.7984 288.127 89.4227 288.129 90.0526Z" fill="white"/>
<path d="M307.382 95.3378C308.022 94.5019 308.846 93.8239 309.788 93.3557C313.033 91.7664 322.928 88.9271 325.282 91.945C327.635 94.9628 322.072 96.6057 322.072 96.6057C322.072 96.6057 326.743 96.07 326.03 99.3914C325.793 100.21 325.334 100.946 324.705 101.519C324.075 102.093 323.3 102.481 322.465 102.641C322.465 102.641 327.385 102.641 325.032 106.213C322.679 109.784 312.249 111.999 308.612 111.338C304.975 110.677 308.291 106.266 308.291 106.266C308.291 106.266 304.476 105.034 304.814 102.856C305.153 100.677 308.38 100.159 308.38 100.159C307.96 99.9439 307.594 99.6371 307.308 99.2613C307.022 98.8856 306.824 98.4504 306.729 97.9879C306.633 97.5254 306.642 97.0472 306.755 96.5886C306.868 96.13 307.082 95.7026 307.382 95.3378Z" fill="#FFD7D7"/>
<path d="M309.573 100.57C309.477 100.57 309.383 100.539 309.306 100.481C309.229 100.423 309.173 100.342 309.146 100.249C309.118 100.133 309.136 100.011 309.195 99.9078C309.255 99.8048 309.352 99.7287 309.466 99.6953L322.036 96.1238C322.091 96.1076 322.148 96.1027 322.205 96.1093C322.262 96.1159 322.317 96.1338 322.367 96.1621C322.417 96.1905 322.461 96.2285 322.496 96.2741C322.531 96.3197 322.556 96.3718 322.57 96.4274C322.587 96.4837 322.592 96.5427 322.586 96.6009C322.579 96.6592 322.561 96.7157 322.533 96.7671C322.505 96.8185 322.467 96.8638 322.422 96.9005C322.376 96.9372 322.324 96.9646 322.267 96.981L309.698 100.552L309.573 100.57Z" fill="#2E2A32"/>
<path d="M309.788 106.464C309.688 106.466 309.591 106.433 309.513 106.371C309.435 106.309 309.381 106.222 309.36 106.124C309.333 106.011 309.351 105.891 309.411 105.791C309.471 105.691 309.568 105.618 309.681 105.589L322.339 102.196C322.453 102.169 322.572 102.187 322.672 102.247C322.772 102.307 322.844 102.404 322.874 102.517C322.907 102.631 322.894 102.753 322.837 102.857C322.78 102.961 322.684 103.038 322.571 103.071L309.913 106.446L309.788 106.464Z" fill="#2E2A32"/>
<path d="M224.677 88.1239C224.677 88.1239 234.732 72.1596 239.6 70.2667C244.467 68.3739 256.305 70.9274 256.305 72.3024C256.305 73.6774 245.376 75.4453 245.376 75.4453C245.376 75.4453 251.527 86.1596 251.616 88.606C251.705 91.0524 246.178 98.0524 244.966 98.7667C243.754 99.481 240.687 95.5346 240.687 95.5346C238.519 98.0338 235.707 99.8872 232.557 100.892C227.815 102.142 222.359 94.9274 222.359 94.9274L224.677 88.1239Z" fill="#FFD7D7"/>
<path d="M239.651 76.785C239.525 76.7862 239.403 76.7416 239.308 76.6594C239.213 76.5773 239.151 76.4632 239.134 76.3386C239.121 76.2715 239.122 76.2026 239.137 76.136C239.152 76.0693 239.18 76.0065 239.22 75.9513C239.261 75.8961 239.312 75.8497 239.37 75.815C239.429 75.7802 239.494 75.7579 239.562 75.7493L244.732 74.8743C244.869 74.8534 245.008 74.8863 245.121 74.9662C245.234 75.0461 245.312 75.1668 245.338 75.3029C245.359 75.4378 245.325 75.5753 245.245 75.6857C245.165 75.796 245.045 75.8702 244.91 75.8922L239.74 76.7672L239.651 76.785Z" fill="#2E2A32"/>
<path d="M204.242 42.0713C204.242 42.0713 152.539 67.232 162.398 111.303C169.53 143.446 230.985 112.036 230.985 112.036L226.885 83.4642L199.411 86.8391L204.242 42.0713Z" fill="#68B6D8"/>
<path d="M197.324 124.642C197.228 124.639 197.135 124.607 197.059 124.549C196.982 124.492 196.925 124.412 196.896 124.321C196.879 124.264 196.874 124.205 196.881 124.147C196.887 124.089 196.905 124.032 196.933 123.981C196.961 123.929 196.999 123.884 197.045 123.847C197.09 123.811 197.143 123.783 197.199 123.767C197.431 123.767 219.752 116.928 230.021 110.285L226.313 83.4991C212.701 84.2058 199.147 85.7804 185.735 88.2134C185.679 88.2292 185.62 88.2328 185.562 88.2239C185.504 88.2149 185.448 88.1936 185.399 88.1615C185.35 88.1293 185.309 88.0871 185.278 88.0375C185.246 87.9879 185.226 87.9322 185.218 87.8741C185.205 87.8177 185.204 87.7593 185.214 87.7024C185.224 87.6454 185.245 87.5911 185.277 87.5427C185.309 87.4944 185.35 87.4529 185.398 87.4208C185.446 87.3888 185.5 87.3668 185.557 87.3562C199.152 84.891 212.89 83.2985 226.687 82.5884C226.8 82.5831 226.91 82.6206 226.996 82.6935C227.082 82.7664 227.138 82.8692 227.151 82.9812L230.948 110.446C230.959 110.528 230.946 110.612 230.911 110.688C230.877 110.764 230.822 110.828 230.752 110.874C220.465 117.642 197.68 124.553 197.466 124.624L197.324 124.642Z" fill="#40507F"/>
<path d="M201.676 85.6419C199.59 85.6419 189.855 85.4991 188.59 82.9991C188.453 82.7071 188.407 82.3807 188.458 82.0622C188.509 81.7438 188.654 81.448 188.875 81.2134C189.132 80.8718 189.456 80.5863 189.827 80.3744C190.198 80.1626 190.608 80.0288 191.032 79.9812C195.079 79.4098 201.943 84.6241 202.228 84.8384C202.305 84.894 202.361 84.9724 202.39 85.0622C202.419 85.1521 202.418 85.2487 202.389 85.3384C202.357 85.4263 202.298 85.5024 202.222 85.5566C202.146 85.6108 202.055 85.6405 201.961 85.6419H201.676ZM191.71 80.8384H191.157C190.848 80.8639 190.549 80.9552 190.278 81.1061C190.007 81.257 189.772 81.464 189.588 81.7134C189.214 82.2134 189.338 82.4634 189.392 82.5705C190.123 84.0169 196.131 84.6241 200.553 84.6955C198.591 83.3919 194.491 80.8384 191.71 80.8384Z" fill="#40507F"/>
<path d="M222.25 47.7673C219.671 47.863 217.106 47.3491 214.762 46.2673C209.966 43.7137 209.093 40.9102 209.057 40.9102C209.024 40.7965 209.037 40.6743 209.094 40.5705C209.151 40.4667 209.247 40.3898 209.36 40.3566C209.416 40.3376 209.476 40.3304 209.535 40.3356C209.594 40.3408 209.651 40.3582 209.703 40.3868C209.755 40.4153 209.8 40.4544 209.836 40.5014C209.873 40.5485 209.899 40.6025 209.913 40.6602C209.913 40.6602 210.751 43.1959 215.172 45.553C219.594 47.9102 227.349 46.4995 227.42 46.4816C227.479 46.4699 227.539 46.4698 227.598 46.4814C227.656 46.493 227.712 46.5161 227.762 46.5492C227.811 46.5824 227.854 46.625 227.887 46.6747C227.92 46.7244 227.944 46.7801 227.955 46.8387C227.967 46.8974 227.967 46.9577 227.955 47.0164C227.944 47.075 227.921 47.1308 227.888 47.1806C227.855 47.2303 227.812 47.2731 227.762 47.3063C227.713 47.3396 227.657 47.3627 227.599 47.3745C225.83 47.6592 224.041 47.7906 222.25 47.7673Z" fill="#40507F"/>
<path d="M221.27 115.267C221.16 115.268 221.055 115.228 220.972 115.156C220.89 115.083 220.837 114.983 220.824 114.874L217.615 85.2493C217.605 85.1316 217.639 85.0144 217.712 84.9215C217.785 84.8286 217.891 84.767 218.007 84.7493C218.066 84.7392 218.127 84.7416 218.185 84.7563C218.243 84.771 218.297 84.7977 218.344 84.8347C218.391 84.8718 218.43 84.9183 218.458 84.9712C218.486 85.0242 218.502 85.0824 218.507 85.1422L221.716 114.785C221.726 114.901 221.69 115.016 221.617 115.106C221.544 115.196 221.439 115.254 221.323 115.267H221.27Z" fill="#40507F"/>
<path d="M228.757 30.7423C227.068 29.6953 223.596 29.3371 222.071 29.2888C222.499 30.6326 223.836 33.2602 225.757 33.0204C227.679 32.7806 228.558 31.4017 228.757 30.7423Z" stroke="#2E2A32" stroke-width="0.596887" stroke-linejoin="round"/>
<g clip-path="url(#clip1_2073_30832)">
<path d="M298.03 9.37109H259.855C258.852 9.37099 257.859 9.57088 256.932 9.95936C256.006 10.3478 255.164 10.9173 254.455 11.6352C253.745 12.3531 253.183 13.2054 252.799 14.1433C252.416 15.0813 252.218 16.0866 252.219 17.1017V25.4702C252.219 26.485 252.416 27.49 252.8 28.4275C253.184 29.3651 253.747 30.217 254.456 30.9346C255.165 31.6521 256.007 32.2213 256.933 32.6095C257.86 32.9978 258.852 33.1976 259.855 33.1975H262.146C262.686 35.2297 260.433 37.0183 256.933 39.4001C256.933 39.4001 268.742 38.5704 270.524 33.1975H298.027C299.03 33.1978 300.023 32.9982 300.95 32.61C301.876 32.2218 302.718 31.6527 303.428 30.9351C304.137 30.2175 304.699 29.3655 305.083 28.4279C305.467 27.4902 305.665 26.4851 305.665 25.4702V17.1017C305.665 16.0867 305.468 15.0815 305.084 14.1436C304.701 13.2057 304.139 12.3534 303.43 11.6355C302.721 10.9176 301.879 10.3482 300.952 9.95962C300.026 9.57108 299.033 9.37109 298.03 9.37109Z" fill="white"/>
</g>
</g>
<path d="M490.244 137.051H473.564V135.059H490.244V137.051ZM486.14 134.123H477.596V132.179H486.14V134.123ZM491.828 146.771H472.028V144.659H480.428V143.171C478.636 143.075 477.244 142.803 476.252 142.355C475.276 141.891 474.788 141.275 474.788 140.507C474.788 139.643 475.404 138.979 476.636 138.515C477.868 138.035 479.636 137.795 481.94 137.795C484.164 137.795 485.908 138.035 487.172 138.515C488.452 138.979 489.092 139.643 489.092 140.507C489.092 141.275 488.588 141.891 487.58 142.355C486.572 142.803 485.172 143.075 483.38 143.171V144.659H491.828V146.771ZM481.94 141.587C484.548 141.587 485.852 141.235 485.852 140.531C485.852 140.195 485.508 139.931 484.82 139.739C484.148 139.531 483.188 139.427 481.94 139.427C480.676 139.427 479.708 139.531 479.036 139.739C478.364 139.931 478.028 140.195 478.028 140.531C478.028 141.235 479.332 141.587 481.94 141.587ZM489.404 154.067H486.524V150.083H474.236V147.971H488.732C489.18 147.971 489.404 148.195 489.404 148.643V154.067ZM510.718 136.859C510.718 138.235 510.014 139.339 508.606 140.171C507.246 141.003 505.326 141.419 502.846 141.419C500.35 141.419 498.422 141.003 497.062 140.171C495.67 139.339 494.974 138.235 494.974 136.859C494.974 135.531 495.67 134.443 497.062 133.595C498.486 132.747 500.414 132.323 502.846 132.323C505.262 132.323 507.182 132.747 508.606 133.595C510.014 134.427 510.718 135.515 510.718 136.859ZM506.374 138.659C506.822 138.451 507.166 138.203 507.406 137.915C507.646 137.611 507.766 137.267 507.766 136.883C507.766 136.499 507.646 136.155 507.406 135.851C507.166 135.547 506.83 135.291 506.398 135.083C505.966 134.875 505.446 134.715 504.838 134.603C504.23 134.491 503.566 134.435 502.846 134.435C501.358 134.435 500.166 134.651 499.27 135.083C498.374 135.515 497.926 136.115 497.926 136.883C497.926 137.267 498.046 137.611 498.286 137.915C498.526 138.203 498.862 138.451 499.294 138.659C499.726 138.851 500.246 139.003 500.854 139.115C501.462 139.227 502.126 139.283 502.846 139.283C503.566 139.283 504.222 139.227 504.814 139.115C505.422 139.003 505.942 138.851 506.374 138.659ZM512.782 145.571H492.958V143.291H512.782V145.571ZM510.958 153.539H496.102C495.846 153.539 495.67 153.491 495.574 153.395C495.494 153.299 495.454 153.123 495.454 152.867V147.155H498.19V151.235H510.958V153.539ZM538.68 141.659H523.896C523.64 141.659 523.464 141.611 523.368 141.515C523.288 141.419 523.248 141.243 523.248 140.987V133.067H525.936V139.355H538.68V141.659ZM540.648 146.579H532.152V153.947H529.392V146.579H520.848V144.299H540.648V146.579ZM561.578 143.531H553.346V149.123H550.586V143.531H541.778V141.227H555.746C555.97 140.171 556.154 139.123 556.298 138.083C556.458 137.027 556.57 136.107 556.634 135.323H543.89V133.019H558.842C559.29 133.019 559.514 133.243 559.514 133.691C559.482 134.219 559.426 134.803 559.346 135.443C559.282 136.067 559.202 136.715 559.106 137.387C559.01 138.059 558.898 138.723 558.77 139.379C558.658 140.035 558.538 140.651 558.41 141.227H561.578V143.531ZM559.778 153.539H545.018C544.762 153.539 544.586 153.491 544.49 153.395C544.41 153.299 544.37 153.123 544.37 152.867V146.075H547.082V151.235H559.778V153.539ZM562.948 148.139C568.196 145.243 570.964 141.195 571.252 135.995H564.148V133.691H573.604C574.052 133.691 574.276 133.915 574.276 134.363C574.084 137.755 573.244 140.739 571.756 143.315C570.268 145.891 568.084 148.099 565.204 149.939L562.948 148.139ZM579.988 153.947H577.3V132.443H579.988V140.819H582.916V143.243H579.988V153.947ZM596.405 140.819C596.133 141.475 595.749 142.051 595.253 142.547C594.741 143.043 594.133 143.427 593.429 143.699C592.741 143.971 591.965 144.107 591.101 144.107C590.237 144.107 589.453 143.971 588.749 143.699C588.045 143.427 587.437 143.043 586.925 142.547C586.429 142.051 586.045 141.475 585.773 140.819C585.501 140.147 585.365 139.403 585.365 138.587C585.365 137.819 585.501 137.099 585.773 136.427C586.045 135.755 586.429 135.171 586.925 134.675C587.437 134.179 588.045 133.795 588.749 133.523C589.453 133.235 590.237 133.091 591.101 133.091C591.965 133.091 592.741 133.235 593.429 133.523C594.133 133.795 594.741 134.179 595.253 134.675C595.749 135.171 596.133 135.755 596.405 136.427C596.693 137.099 596.837 137.819 596.837 138.587C596.837 139.403 596.693 140.147 596.405 140.819ZM591.101 141.851C592.061 141.851 592.797 141.539 593.309 140.915C593.837 140.275 594.101 139.499 594.101 138.587C594.101 137.659 593.837 136.891 593.309 136.283C592.797 135.675 592.061 135.371 591.101 135.371C590.141 135.371 589.397 135.675 588.869 136.283C588.357 136.891 588.101 137.659 588.101 138.587C588.101 139.499 588.357 140.275 588.869 140.915C589.397 141.539 590.141 141.851 591.101 141.851ZM598.877 148.619C597.373 148.955 595.597 149.203 593.549 149.363C591.517 149.507 589.285 149.579 586.853 149.579H584.381V147.227L590.909 147.155C591.277 147.155 591.781 147.139 592.421 147.107C593.061 147.059 593.765 147.003 594.533 146.939C595.301 146.875 596.061 146.795 596.813 146.699C597.581 146.603 598.269 146.499 598.877 146.387V148.619ZM602.141 153.947H599.429V132.467H602.141V153.947ZM624.872 146.459C625.176 144.763 625.44 143.011 625.664 141.203C625.888 139.379 626.024 137.619 626.072 135.923H613.592V133.643H628.304C628.752 133.643 628.976 133.867 628.976 134.315C628.912 135.227 628.832 136.195 628.736 137.219C628.656 138.227 628.552 139.259 628.424 140.315C628.312 141.387 628.176 142.451 628.016 143.507C627.872 144.547 627.72 145.531 627.56 146.459H624.872ZM631.352 151.571H611.504V149.267H618.464V141.275H621.224V149.267H631.352V151.571ZM641.41 141.683V135.611H636.61V141.683H641.41ZM644.074 143.291C644.074 143.547 644.018 143.723 643.906 143.819C643.81 143.915 643.642 143.963 643.402 143.963H634.618C634.362 143.963 634.186 143.923 634.09 143.843C634.01 143.747 633.97 143.571 633.97 143.315V134.003C633.97 133.763 634.018 133.595 634.114 133.499C634.21 133.387 634.386 133.331 634.642 133.331H643.402C643.85 133.331 644.074 133.555 644.074 134.003V143.291ZM650.65 148.139H647.962V132.467H650.65V148.139ZM651.082 153.539H636.826C636.57 153.539 636.394 153.491 636.298 153.395C636.218 153.299 636.178 153.123 636.178 152.867V146.147H638.914V151.235H651.082V153.539ZM655.403 136.043C655.403 134.971 656.099 134.083 657.491 133.379C658.995 132.675 660.923 132.323 663.275 132.323C665.627 132.323 667.547 132.675 669.035 133.379C670.443 134.067 671.147 134.955 671.147 136.043C671.147 136.603 670.963 137.115 670.595 137.579C670.067 138.251 669.171 138.779 667.907 139.163C666.659 139.547 665.115 139.739 663.275 139.739C662.043 139.739 660.939 139.651 659.963 139.475C658.987 139.299 658.163 139.051 657.491 138.731C656.819 138.411 656.299 138.027 655.931 137.579C655.579 137.115 655.403 136.603 655.403 136.043ZM667.835 136.787C668.075 136.579 668.195 136.331 668.195 136.043C668.195 135.755 668.075 135.499 667.835 135.275C667.595 135.051 667.259 134.867 666.827 134.723C666.395 134.563 665.875 134.443 665.267 134.363C664.659 134.283 663.995 134.243 663.275 134.243C661.787 134.243 660.595 134.403 659.699 134.723C658.803 135.027 658.355 135.467 658.355 136.043C658.355 136.315 658.475 136.563 658.715 136.787C658.955 136.995 659.291 137.179 659.723 137.339C660.155 137.483 660.675 137.603 661.283 137.699C661.891 137.779 662.555 137.819 663.275 137.819C664.379 137.819 665.323 137.731 666.107 137.555C666.907 137.363 667.483 137.107 667.835 136.787ZM673.187 143.099H653.387V140.939H673.187V143.099ZM671.171 153.803H656.507C656.251 153.803 656.075 153.755 655.979 153.659C655.883 153.563 655.835 153.387 655.835 153.131V148.907C655.835 148.667 655.883 148.499 655.979 148.403C656.075 148.291 656.251 148.235 656.507 148.235H667.643V146.627H655.835V144.587H670.043C670.491 144.587 670.715 144.811 670.715 145.259V149.411C670.715 149.667 670.659 149.843 670.547 149.939C670.451 150.035 670.283 150.083 670.043 150.083H658.907V151.787H671.171V153.803ZM692.918 143.003C692.438 142.827 691.95 142.603 691.454 142.331C690.958 142.059 690.494 141.763 690.062 141.443C689.614 141.123 689.214 140.795 688.862 140.459C688.526 140.123 688.278 139.811 688.118 139.523C687.99 139.843 687.766 140.187 687.446 140.555C687.142 140.923 686.766 141.283 686.318 141.635C685.822 142.035 685.302 142.395 684.758 142.715C684.23 143.019 683.67 143.299 683.078 143.555L681.254 141.707C684.87 140.539 686.678 138.499 686.678 135.587H682.79V133.355H693.47V135.587H689.534C689.534 136.323 689.654 136.987 689.894 137.579C690.15 138.155 690.502 138.667 690.95 139.115C691.862 140.027 693.03 140.683 694.454 141.083L692.918 143.003ZM699.11 143.699H696.374V132.467H699.11V136.427H701.846V138.731H699.11V143.699ZM699.59 153.803H685.742C685.486 153.803 685.31 153.755 685.214 153.659C685.118 153.563 685.07 153.387 685.07 153.131V148.883C685.07 148.643 685.118 148.475 685.214 148.379C685.31 148.267 685.486 148.211 685.742 148.211H696.23V146.675H685.07V144.563H698.438C698.886 144.563 699.11 144.787 699.11 145.235V149.435C699.11 149.691 699.054 149.867 698.942 149.963C698.846 150.059 698.678 150.107 698.438 150.107H687.974V151.691H699.59V153.803ZM726.761 139.595H712.289C712.033 139.595 711.857 139.547 711.761 139.451C711.681 139.355 711.641 139.179 711.641 138.923V133.643C711.641 133.403 711.681 133.235 711.761 133.139C711.857 133.027 712.033 132.971 712.289 132.971H726.521V135.059H714.401V137.483H726.761V139.595ZM728.969 143.291H709.169V141.107H728.969V143.291ZM726.953 153.803H712.289C712.033 153.803 711.857 153.755 711.761 153.659C711.665 153.563 711.617 153.387 711.617 153.131V149.027C711.617 148.787 711.665 148.619 711.761 148.523C711.857 148.411 712.033 148.355 712.289 148.355H723.425V146.939H711.617V144.851H725.825C726.273 144.851 726.497 145.075 726.497 145.523V149.603C726.497 149.859 726.441 150.035 726.329 150.131C726.233 150.227 726.065 150.275 725.825 150.275H714.689V151.739H726.953V153.803ZM737.922 146.627C738.306 146.291 738.602 145.883 738.81 145.403C739.05 144.875 739.226 144.259 739.338 143.555C739.466 142.835 739.53 142.059 739.53 141.227C739.53 140.411 739.466 139.651 739.338 138.947C739.226 138.227 739.05 137.611 738.81 137.099C738.586 136.587 738.29 136.187 737.922 135.899C737.57 135.595 737.154 135.443 736.674 135.443C736.178 135.443 735.746 135.595 735.378 135.899C735.026 136.187 734.738 136.587 734.514 137.099C734.274 137.611 734.098 138.227 733.986 138.947C733.874 139.651 733.818 140.411 733.818 141.227C733.818 142.059 733.874 142.835 733.986 143.555C734.098 144.259 734.274 144.875 734.514 145.403C734.738 145.915 735.026 146.323 735.378 146.627C735.746 146.915 736.178 147.059 736.674 147.059C737.138 147.059 737.554 146.915 737.922 146.627ZM748.242 153.947H745.506V142.091H742.218C742.154 143.371 741.97 144.475 741.666 145.403C741.378 146.331 740.986 147.099 740.49 147.707C740.01 148.299 739.442 148.747 738.786 149.051C738.146 149.339 737.442 149.483 736.674 149.483C735.042 149.483 733.706 148.819 732.666 147.491C731.626 146.163 731.106 144.083 731.106 141.251C731.106 138.419 731.626 136.339 732.666 135.011C733.706 133.683 735.042 133.019 736.674 133.019C738.162 133.019 739.402 133.563 740.394 134.651C741.386 135.723 741.978 137.403 742.17 139.691H745.506V132.467H748.242V153.947ZM768.356 142.547C767.684 142.387 766.988 142.179 766.268 141.923C765.564 141.667 764.876 141.355 764.204 140.987C763.532 140.635 762.908 140.227 762.332 139.763C761.772 139.283 761.3 138.755 760.916 138.179C760.244 139.187 759.292 140.059 758.06 140.795C756.844 141.531 755.34 142.115 753.548 142.547L751.7 140.579C752.66 140.371 753.564 140.115 754.412 139.811C755.276 139.507 756.044 139.147 756.716 138.731C757.404 138.299 757.972 137.811 758.42 137.267C758.884 136.723 759.196 136.107 759.356 135.419H753.236V133.139H768.572V135.419H762.452C762.596 136.091 762.892 136.707 763.34 137.267C763.804 137.811 764.38 138.299 765.068 138.731C765.74 139.163 766.5 139.539 767.348 139.859C768.212 140.179 769.108 140.435 770.036 140.627L768.356 142.547ZM770.828 146.723H762.38V153.947H759.62V146.723H751.028V144.443H770.828V146.723ZM785.638 147.851C785.286 147.931 784.846 148.019 784.318 148.115C783.806 148.211 783.238 148.299 782.614 148.379C781.99 148.459 781.342 148.531 780.67 148.595C779.998 148.659 779.326 148.691 778.654 148.691L774.094 148.715C773.838 148.715 773.662 148.667 773.566 148.571C773.486 148.475 773.446 148.299 773.446 148.043V133.331H776.134V146.363H778.702C779.198 146.363 779.758 146.339 780.382 146.291C781.006 146.243 781.63 146.179 782.254 146.099C782.878 146.035 783.486 145.955 784.078 145.859C784.67 145.763 785.19 145.667 785.638 145.571V147.851ZM789.238 153.947H786.526V132.443H789.238V140.315H792.166V142.763H789.238V153.947ZM806.063 133.355C807.039 133.675 807.839 134.099 808.463 134.627C809.135 135.155 809.639 135.787 809.975 136.523C810.311 137.243 810.479 138.019 810.479 138.851C810.479 140.595 809.807 142.003 808.463 143.075C807.791 143.603 806.983 144.019 806.039 144.323C805.095 144.611 804.015 144.755 802.799 144.755C801.551 144.755 800.455 144.611 799.511 144.323C798.583 144.019 797.783 143.603 797.111 143.075C795.767 142.019 795.095 140.611 795.095 138.851C795.095 138.019 795.255 137.243 795.575 136.523C795.911 135.787 796.415 135.155 797.087 134.627C797.759 134.083 798.567 133.659 799.511 133.355C800.455 133.051 801.551 132.899 802.799 132.899C804.079 132.899 805.167 133.051 806.063 133.355ZM806.231 141.539C807.143 140.899 807.599 140.003 807.599 138.851C807.599 137.715 807.143 136.819 806.231 136.163C805.287 135.507 804.143 135.179 802.799 135.179C802.095 135.179 801.447 135.267 800.855 135.443C800.279 135.603 799.775 135.843 799.343 136.163C798.927 136.467 798.599 136.851 798.359 137.315C798.119 137.763 797.999 138.275 797.999 138.851C797.999 139.427 798.119 139.939 798.359 140.387C798.599 140.835 798.927 141.219 799.343 141.539C799.775 141.843 800.279 142.075 800.855 142.235C801.447 142.395 802.095 142.475 802.799 142.475C804.175 142.475 805.319 142.163 806.231 141.539ZM812.687 151.571H792.863V149.267H797.447V144.995H800.207V149.267H805.439V144.995H808.151V149.267H812.687V151.571ZM820.033 152.147H816.937V149.243H820.033V152.147ZM819.721 147.275H817.153C817.105 146.779 817.065 146.339 817.033 145.955C817.017 145.571 817.009 145.195 817.009 144.827C817.009 143.963 817.217 143.235 817.633 142.643C818.049 142.051 818.545 141.507 819.121 141.011C819.729 140.499 820.225 139.971 820.609 139.427C821.009 138.867 821.209 138.227 821.209 137.507C821.209 135.843 820.441 135.011 818.905 135.011C818.329 135.011 817.737 135.155 817.129 135.443C816.537 135.731 815.969 136.131 815.425 136.643L814.153 134.819C814.841 134.099 815.601 133.571 816.433 133.235C817.265 132.883 818.233 132.707 819.337 132.707C820.089 132.707 820.753 132.835 821.329 133.091C821.921 133.331 822.417 133.667 822.817 134.099C823.217 134.515 823.521 135.011 823.729 135.587C823.937 136.147 824.041 136.747 824.041 137.387C824.041 137.867 823.961 138.331 823.801 138.779C823.657 139.211 823.465 139.627 823.225 140.027C822.985 140.427 822.705 140.795 822.385 141.131C822.081 141.467 821.769 141.771 821.449 142.043C820.905 142.459 820.481 142.939 820.177 143.483C819.873 144.027 819.721 144.779 819.721 145.739V147.275Z" fill="#595062"/>
<path d="M477.38 183.533V176.673H473.544V183.533H477.38ZM478.262 184.023C478.262 184.135 478.243 184.21 478.206 184.247C478.169 184.275 478.103 184.289 478.01 184.289H472.942C472.83 184.289 472.755 184.275 472.718 184.247C472.69 184.21 472.676 184.135 472.676 184.023V176.183C472.676 176.081 472.69 176.011 472.718 175.973C472.755 175.936 472.83 175.917 472.942 175.917H478.01C478.103 175.917 478.169 175.936 478.206 175.973C478.243 176.011 478.262 176.081 478.262 176.183V184.023ZM481.594 187.593H480.67V175.147H481.594V179.529H483.54V180.313H481.594V187.593ZM493.915 187.173C493.915 187.276 493.892 187.346 493.845 187.383C493.808 187.421 493.742 187.439 493.649 187.439H485.935C485.832 187.439 485.762 187.421 485.725 187.383C485.688 187.346 485.669 187.276 485.669 187.173V183.477C485.669 183.384 485.688 183.319 485.725 183.281C485.762 183.235 485.832 183.211 485.935 183.211H493.649C493.826 183.211 493.915 183.3 493.915 183.477V187.173ZM488.413 179.767C488.338 179.758 488.268 179.749 488.203 179.739L488.007 179.711C487.55 179.599 487.102 179.436 486.663 179.221C485.879 178.82 485.487 178.237 485.487 177.471C485.487 177.117 485.585 176.79 485.781 176.491C485.977 176.202 486.271 175.95 486.663 175.735C487.036 175.521 487.484 175.357 488.007 175.245C488.539 175.124 489.127 175.063 489.771 175.063C490.415 175.063 490.998 175.124 491.521 175.245C492.044 175.357 492.492 175.521 492.865 175.735C493.238 175.941 493.528 176.193 493.733 176.491C493.948 176.79 494.055 177.117 494.055 177.471C494.055 177.845 493.948 178.181 493.733 178.479C493.528 178.769 493.238 179.016 492.865 179.221C492.492 179.436 492.044 179.599 491.521 179.711C490.998 179.814 490.415 179.865 489.771 179.865C489.444 179.865 489.136 179.851 488.847 179.823C488.772 179.814 488.698 179.805 488.623 179.795C488.558 179.786 488.488 179.777 488.413 179.767ZM492.193 178.703C492.492 178.545 492.725 178.358 492.893 178.143C493.07 177.929 493.159 177.7 493.159 177.457C493.159 177.215 493.07 176.991 492.893 176.785C492.725 176.571 492.492 176.384 492.193 176.225C491.894 176.076 491.535 175.959 491.115 175.875C490.704 175.782 490.256 175.735 489.771 175.735C489.267 175.735 488.81 175.782 488.399 175.875C487.988 175.959 487.634 176.076 487.335 176.225C486.7 176.561 486.383 176.972 486.383 177.457C486.383 177.952 486.7 178.367 487.335 178.703C487.634 178.862 487.988 178.988 488.399 179.081C488.81 179.165 489.267 179.207 489.771 179.207C490.256 179.207 490.704 179.165 491.115 179.081C491.535 178.988 491.894 178.862 492.193 178.703ZM493.033 186.711V183.939H486.523V186.711H493.033ZM495.483 181.783H484.087V181.041H495.483V181.783ZM505.942 178.199C505.839 178.33 505.713 178.456 505.564 178.577C505.424 178.689 505.261 178.792 505.074 178.885C504.701 179.081 504.253 179.231 503.73 179.333C503.207 179.427 502.624 179.473 501.98 179.473C500.692 179.473 499.656 179.277 498.872 178.885C498.088 178.493 497.696 177.952 497.696 177.261C497.696 176.58 498.088 176.048 498.872 175.665C499.245 175.479 499.693 175.334 500.216 175.231C500.748 175.119 501.336 175.063 501.98 175.063C502.624 175.063 503.207 175.119 503.73 175.231C504.253 175.334 504.701 175.479 505.074 175.665C505.447 175.852 505.737 176.081 505.942 176.351C506.157 176.622 506.264 176.925 506.264 177.261C506.264 177.588 506.157 177.901 505.942 178.199ZM504.402 178.367C504.701 178.227 504.934 178.064 505.102 177.877C505.279 177.691 505.368 177.49 505.368 177.275C505.368 177.051 505.279 176.846 505.102 176.659C504.934 176.473 504.701 176.314 504.402 176.183C504.103 176.053 503.744 175.95 503.324 175.875C502.913 175.791 502.465 175.749 501.98 175.749C501.476 175.749 501.019 175.791 500.608 175.875C500.197 175.95 499.843 176.053 499.544 176.183C498.909 176.454 498.592 176.818 498.592 177.275C498.592 177.705 498.909 178.069 499.544 178.367C499.843 178.507 500.197 178.619 500.608 178.703C501.019 178.778 501.476 178.815 501.98 178.815C502.465 178.815 502.913 178.778 503.324 178.703C503.744 178.619 504.103 178.507 504.402 178.367ZM507.692 181.209H496.296V180.481H507.692V181.209ZM506.404 187.425H498.144C498.041 187.425 497.971 187.407 497.934 187.369C497.897 187.332 497.878 187.262 497.878 187.159V184.793C497.878 184.7 497.897 184.635 497.934 184.597C497.971 184.551 498.041 184.527 498.144 184.527H505.214V183.113H497.878V182.399H505.858C506.035 182.399 506.124 182.488 506.124 182.665V184.961C506.124 185.064 506.101 185.134 506.054 185.171C506.017 185.209 505.951 185.227 505.858 185.227H498.774V186.725H506.404V187.425ZM520.84 183.743C520.541 183.799 520.191 183.86 519.79 183.925C519.398 183.991 518.987 184.051 518.558 184.107C518.11 184.163 517.676 184.21 517.256 184.247C516.836 184.275 516.453 184.289 516.108 184.289H513.742C513.639 184.289 513.569 184.271 513.532 184.233C513.494 184.187 513.476 184.117 513.476 184.023V176.169C513.476 176.085 513.494 176.02 513.532 175.973C513.569 175.927 513.639 175.903 513.742 175.903H519.104V176.659H514.358V183.491L515.94 183.477C516.444 183.477 516.948 183.459 517.452 183.421C517.965 183.375 518.446 183.323 518.894 183.267C519.342 183.211 519.734 183.155 520.07 183.099C520.415 183.034 520.672 182.983 520.84 182.945V183.743ZM522.282 187.593H521.358V175.147H522.282V179.515H524.2V180.299H522.282V187.593ZM531.158 178.255H525.222V177.499H531.158V178.255ZM529.814 176.295H526.566V175.525H529.814V176.295ZM530.822 182.189C530.822 183.001 530.584 183.664 530.108 184.177C529.651 184.691 529.021 184.947 528.218 184.947C527.808 184.947 527.439 184.882 527.112 184.751C526.795 184.611 526.524 184.42 526.3 184.177C526.076 183.935 525.904 183.645 525.782 183.309C525.67 182.973 525.614 182.6 525.614 182.189C525.614 181.377 525.848 180.71 526.314 180.187C526.79 179.665 527.425 179.403 528.218 179.403C529.012 179.403 529.642 179.665 530.108 180.187C530.584 180.71 530.822 181.377 530.822 182.189ZM528.218 184.205C528.75 184.205 529.175 184.019 529.492 183.645C529.81 183.263 529.968 182.777 529.968 182.189C529.968 181.601 529.814 181.116 529.506 180.733C529.208 180.341 528.778 180.145 528.218 180.145C527.658 180.145 527.224 180.341 526.916 180.733C526.618 181.116 526.468 181.601 526.468 182.189C526.468 182.777 526.618 183.263 526.916 183.645C527.224 184.019 527.658 184.205 528.218 184.205ZM535.582 187.579H534.686V181.013H532.922V186.991H532.054V175.357H532.922V180.201H534.686V175.147H535.582V187.579ZM551.012 179.235H542.878C542.775 179.235 542.705 179.217 542.668 179.179C542.631 179.133 542.612 179.063 542.612 178.969V175.805C542.612 175.721 542.631 175.656 542.668 175.609C542.705 175.563 542.775 175.539 542.878 175.539H550.886V176.253H543.466V178.521H551.012V179.235ZM552.44 181.209H541.044V180.481H552.44V181.209ZM551.152 187.425H542.892C542.789 187.425 542.719 187.407 542.682 187.369C542.645 187.332 542.626 187.262 542.626 187.159V184.863C542.626 184.77 542.645 184.705 542.682 184.667C542.719 184.621 542.789 184.597 542.892 184.597H549.962V183.253H542.626V182.539H550.606C550.783 182.539 550.872 182.628 550.872 182.805V185.031C550.872 185.134 550.849 185.204 550.802 185.241C550.765 185.279 550.699 185.297 550.606 185.297H543.522V186.725H551.152V187.425ZM563.543 187.579H562.647V180.397H559.861C559.824 181.909 559.539 183.034 559.007 183.771C558.475 184.499 557.784 184.863 556.935 184.863C556.496 184.863 556.095 184.765 555.731 184.569C555.376 184.373 555.068 184.079 554.807 183.687C554.546 183.295 554.34 182.805 554.191 182.217C554.051 181.629 553.981 180.943 553.981 180.159C553.981 179.375 554.051 178.689 554.191 178.101C554.34 177.513 554.546 177.023 554.807 176.631C555.068 176.239 555.376 175.945 555.731 175.749C556.095 175.553 556.496 175.455 556.935 175.455C557.747 175.455 558.419 175.805 558.951 176.505C559.483 177.196 559.782 178.241 559.847 179.641H562.647V175.147H563.543V187.579ZM558.153 183.491C558.48 183.081 558.713 182.516 558.853 181.797C558.946 181.415 558.993 180.869 558.993 180.159C558.974 178.955 558.788 178.003 558.433 177.303C558.078 176.585 557.579 176.225 556.935 176.225C556.3 176.225 555.792 176.585 555.409 177.303C555.036 178.013 554.849 178.965 554.849 180.159C554.849 180.766 554.896 181.312 554.989 181.797C555.092 182.273 555.232 182.684 555.409 183.029C555.586 183.375 555.801 183.641 556.053 183.827C556.314 184.005 556.608 184.093 556.935 184.093C557.43 184.093 557.836 183.893 558.153 183.491ZM575.626 180.873C573.293 180.248 571.809 179.221 571.174 177.793C570.754 178.587 570.175 179.221 569.438 179.697C568.71 180.173 567.795 180.565 566.694 180.873L566.008 180.187C566.652 180.047 567.254 179.861 567.814 179.627C568.374 179.394 568.869 179.114 569.298 178.787C569.718 178.47 570.054 178.111 570.306 177.709C570.558 177.299 570.684 176.855 570.684 176.379H566.918V175.623H575.416V176.379H571.622C571.622 176.883 571.748 177.336 572 177.737C572.261 178.139 572.616 178.503 573.064 178.829C573.493 179.147 573.988 179.422 574.548 179.655C575.108 179.879 575.682 180.052 576.27 180.173L575.626 180.873ZM576.858 183.029H571.664V187.579H570.768V183.029H565.462V182.273H576.858V183.029ZM587.779 179.459H579.505C579.402 179.459 579.332 179.441 579.295 179.403C579.258 179.357 579.239 179.287 579.239 179.193V175.217H580.107V178.717H587.779V179.459ZM589.067 182.119H577.671V181.377H589.067V182.119ZM587.961 187.313H579.519C579.416 187.313 579.346 187.295 579.309 187.257C579.272 187.22 579.253 187.15 579.253 187.047V183.421H580.079V186.557H587.961V187.313ZM594.109 182.119C595.714 181.634 596.983 180.887 597.917 179.879C598.869 178.843 599.447 177.719 599.653 176.505H595.047V175.749H600.353C600.53 175.749 600.619 175.838 600.619 176.015C600.516 176.771 600.32 177.49 600.031 178.171C599.741 178.843 599.354 179.473 598.869 180.061C598.383 180.649 597.8 181.177 597.119 181.643C596.437 182.11 595.658 182.497 594.781 182.805L594.109 182.119ZM604.273 183.589H603.391V179.277H600.717V178.507H603.391V175.147H604.273V183.589ZM604.357 187.565C603.937 187.444 603.526 187.281 603.125 187.075C602.723 186.87 602.35 186.627 602.005 186.347C601.65 186.067 601.333 185.764 601.053 185.437C600.782 185.101 600.563 184.737 600.395 184.345C600.003 185.073 599.48 185.727 598.827 186.305C598.173 186.884 597.366 187.304 596.405 187.565L595.733 186.893C596.33 186.744 596.881 186.529 597.385 186.249C597.898 185.979 598.337 185.666 598.701 185.311C599.065 184.966 599.349 184.588 599.555 184.177C599.769 183.767 599.877 183.337 599.877 182.889V182.287H600.899V182.889C600.899 183.337 601.006 183.771 601.221 184.191C601.435 184.611 601.729 184.999 602.103 185.353C602.476 185.708 602.915 186.021 603.419 186.291C603.923 186.562 604.459 186.767 605.029 186.907L604.357 187.565ZM611.665 180.803V176.491H607.815V180.803H611.665ZM612.505 181.265C612.505 181.377 612.487 181.452 612.449 181.489C612.412 181.517 612.347 181.531 612.253 181.531H607.255C607.143 181.531 607.069 181.517 607.031 181.489C607.003 181.452 606.989 181.377 606.989 181.265V176.029C606.989 175.927 607.003 175.857 607.031 175.819C607.069 175.782 607.143 175.763 607.255 175.763H612.253C612.347 175.763 612.412 175.782 612.449 175.819C612.487 175.857 612.505 175.927 612.505 176.029V181.265ZM616.047 184.401H615.165V175.147H616.047V178.283H617.811V179.053H616.047V184.401ZM616.467 187.313H608.613C608.511 187.313 608.441 187.295 608.403 187.257C608.366 187.22 608.347 187.15 608.347 187.047V183.253H609.229V186.557H616.467V187.313ZM625.834 175.665C626.366 175.824 626.819 176.048 627.192 176.337C627.995 176.925 628.396 177.742 628.396 178.787C628.396 179.329 628.294 179.8 628.088 180.201C627.883 180.593 627.584 180.943 627.192 181.251C626.819 181.541 626.366 181.765 625.834 181.923C625.302 182.073 624.714 182.147 624.07 182.147C623.417 182.147 622.824 182.073 622.292 181.923C621.76 181.765 621.308 181.541 620.934 181.251C620.141 180.682 619.744 179.861 619.744 178.787C619.744 178.274 619.842 177.812 620.038 177.401C620.244 176.981 620.542 176.627 620.934 176.337C621.308 176.048 621.76 175.824 622.292 175.665C622.824 175.507 623.417 175.427 624.07 175.427C624.686 175.427 625.274 175.507 625.834 175.665ZM624.07 181.433C625.078 181.433 625.89 181.195 626.506 180.719C626.814 180.495 627.052 180.225 627.22 179.907C627.388 179.581 627.472 179.207 627.472 178.787C627.472 178.386 627.388 178.022 627.22 177.695C627.052 177.369 626.814 177.089 626.506 176.855C626.208 176.631 625.853 176.459 625.442 176.337C625.032 176.207 624.574 176.141 624.07 176.141C623.566 176.141 623.104 176.207 622.684 176.337C622.274 176.459 621.919 176.631 621.62 176.855C621.322 177.089 621.088 177.369 620.92 177.695C620.752 178.022 620.668 178.386 620.668 178.787C620.668 179.207 620.752 179.581 620.92 179.907C621.088 180.225 621.322 180.495 621.62 180.719C622.236 181.195 623.053 181.433 624.07 181.433ZM629.782 185.745H618.33V184.989H629.782V185.745ZM641.991 185.899H630.539V185.143H635.817V182.623H632.401C632.299 182.623 632.229 182.6 632.191 182.553C632.154 182.507 632.135 182.437 632.135 182.343V179.123C632.135 179.039 632.154 178.979 632.191 178.941C632.229 178.895 632.299 178.871 632.401 178.871H639.317V176.519H632.093V175.791H639.933C640.111 175.791 640.199 175.88 640.199 176.057V179.333C640.199 179.511 640.111 179.599 639.933 179.599H633.003V181.895H640.703V182.623H636.685V185.143H641.991V185.899ZM657.057 180.299H648.629C648.526 180.299 648.456 180.281 648.419 180.243C648.382 180.197 648.363 180.127 648.363 180.033V175.539H649.245V179.557H657.057V180.299ZM658.233 182.875H653.011V187.579H652.101V182.875H646.837V182.119H658.233V182.875ZM665.052 187.579H664.156V181.979H659.018V181.223H667.544C667.675 180.43 667.787 179.613 667.88 178.773C667.983 177.933 668.062 177.135 668.118 176.379H660.404V175.637H668.748C668.925 175.637 669.014 175.726 669.014 175.903C668.986 176.277 668.949 176.697 668.902 177.163C668.865 177.621 668.818 178.087 668.762 178.563C668.706 179.049 668.645 179.525 668.58 179.991C668.524 180.449 668.468 180.859 668.412 181.223H670.47V181.979H665.052V187.579ZM679.515 183.743C679.31 183.79 679.053 183.841 678.745 183.897C678.437 183.944 678.106 183.991 677.751 184.037C677.387 184.084 677.014 184.131 676.631 184.177C676.258 184.215 675.903 184.238 675.567 184.247C675.147 184.266 674.75 184.28 674.377 184.289C674.004 184.289 673.677 184.289 673.397 184.289C673.108 184.299 672.874 184.303 672.697 184.303C672.52 184.294 672.426 184.289 672.417 184.289C672.314 184.289 672.244 184.271 672.207 184.233C672.17 184.187 672.151 184.117 672.151 184.023V175.707H673.033V183.463L675.609 183.435C675.908 183.426 676.239 183.403 676.603 183.365C676.967 183.328 677.326 183.281 677.681 183.225C678.045 183.179 678.386 183.127 678.703 183.071C679.03 183.015 679.3 182.964 679.515 182.917V183.743ZM680.971 187.579H680.061V175.147H680.971V179.781H682.903V180.593H680.971V187.579ZM695.798 183.743C695.5 183.799 695.15 183.86 694.748 183.925C694.356 183.991 693.946 184.051 693.516 184.107C693.068 184.163 692.634 184.21 692.214 184.247C691.794 184.275 691.412 184.289 691.066 184.289H688.7C688.598 184.289 688.528 184.271 688.49 184.233C688.453 184.187 688.434 184.117 688.434 184.023V176.169C688.434 176.085 688.453 176.02 688.49 175.973C688.528 175.927 688.598 175.903 688.7 175.903H694.062V176.659H689.316V183.491L690.898 183.477C691.402 183.477 691.906 183.459 692.41 183.421C692.924 183.375 693.404 183.323 693.852 183.267C694.3 183.211 694.692 183.155 695.028 183.099C695.374 183.034 695.63 182.983 695.798 182.945V183.743ZM697.24 187.593H696.316V175.147H697.24V179.515H699.158V180.299H697.24V187.593ZM707.027 181.825C706.178 181.461 705.497 181.046 704.983 180.579C704.47 180.113 704.069 179.581 703.779 178.983C703.518 179.683 703.131 180.299 702.617 180.831C702.104 181.363 701.423 181.83 700.573 182.231L699.761 181.657C700.863 181.219 701.731 180.621 702.365 179.865C703 179.1 703.317 178.148 703.317 177.009V176.491H700.685V175.749H706.803V176.491H704.213V177.037C704.213 178.083 704.535 178.946 705.179 179.627C705.823 180.309 706.659 180.827 707.685 181.181L707.027 181.825ZM710.219 182.735H709.323V178.787H706.523V178.031H709.323V175.133H710.219V182.735ZM710.429 185.325C710.429 186.044 710.065 186.632 709.337 187.089C708.619 187.565 707.587 187.803 706.243 187.803C704.927 187.803 703.901 187.565 703.163 187.089C702.426 186.632 702.057 186.044 702.057 185.325C702.057 184.625 702.426 184.037 703.163 183.561C703.901 183.085 704.927 182.847 706.243 182.847C707.587 182.847 708.619 183.085 709.337 183.561C710.065 184.037 710.429 184.625 710.429 185.325ZM709.491 185.325C709.491 184.765 709.183 184.336 708.567 184.037C707.961 183.729 707.186 183.575 706.243 183.575C705.786 183.575 705.357 183.617 704.955 183.701C704.563 183.776 704.223 183.888 703.933 184.037C703.308 184.327 702.995 184.756 702.995 185.325C702.995 185.605 703.079 185.853 703.247 186.067C703.415 186.282 703.644 186.464 703.933 186.613C704.232 186.763 704.577 186.875 704.969 186.949C705.361 187.033 705.786 187.075 706.243 187.075C706.701 187.075 707.125 187.033 707.517 186.949C707.919 186.875 708.264 186.763 708.553 186.613C708.843 186.464 709.071 186.282 709.239 186.067C709.407 185.853 709.491 185.605 709.491 185.325ZM717.78 175.889H714.098V175.147H717.78V175.889ZM719.544 177.779H712.418V177.037H719.544V177.779ZM718.984 180.719C718.984 181.373 718.723 181.891 718.2 182.273C717.678 182.647 716.936 182.833 715.974 182.833C715.013 182.833 714.271 182.647 713.748 182.273C713.226 181.891 712.964 181.373 712.964 180.719C712.964 180.075 713.226 179.562 713.748 179.179C714.271 178.797 715.013 178.605 715.974 178.605C716.936 178.605 717.678 178.797 718.2 179.179C718.723 179.562 718.984 180.075 718.984 180.719ZM717.5 181.755C717.883 181.513 718.074 181.167 718.074 180.719C718.074 180.271 717.883 179.931 717.5 179.697C717.127 179.455 716.618 179.333 715.974 179.333C715.33 179.333 714.817 179.455 714.434 179.697C714.061 179.931 713.874 180.271 713.874 180.719C713.874 181.167 714.061 181.513 714.434 181.755C714.817 181.989 715.33 182.105 715.974 182.105C716.618 182.105 717.127 181.989 717.5 181.755ZM721.98 184.387H721.098V175.147H721.98V178.983H723.786V179.753H721.98V184.387ZM722.414 187.313H714.588C714.486 187.313 714.416 187.295 714.378 187.257C714.341 187.22 714.322 187.15 714.322 187.047V183.757H715.204V186.557H722.414V187.313ZM737.046 183.995C736.859 184.033 736.612 184.075 736.304 184.121C736.005 184.168 735.66 184.215 735.268 184.261C734.895 184.308 734.498 184.35 734.078 184.387C733.667 184.425 733.266 184.448 732.874 184.457C732.482 184.476 732.099 184.49 731.726 184.499C731.353 184.499 731.017 184.499 730.718 184.499H729.64C729.537 184.499 729.467 184.481 729.43 184.443C729.393 184.397 729.374 184.327 729.374 184.233V179.991C729.374 179.907 729.393 179.842 729.43 179.795C729.467 179.749 729.537 179.725 729.64 179.725H734.036V176.561H729.374V175.805H734.624C734.801 175.805 734.89 175.894 734.89 176.071V180.201C734.89 180.379 734.801 180.467 734.624 180.467H730.256V183.701L732.594 183.673C733.014 183.673 733.443 183.655 733.882 183.617C734.33 183.58 734.764 183.538 735.184 183.491C735.585 183.435 735.949 183.384 736.276 183.337C736.612 183.291 736.869 183.249 737.046 183.211V183.995ZM738.488 187.579H737.592V175.147H738.488V187.579ZM750.613 182.413C750.128 182.227 749.652 181.998 749.185 181.727C748.728 181.457 748.303 181.149 747.911 180.803C747.51 180.467 747.155 180.099 746.847 179.697C746.539 179.296 746.301 178.857 746.133 178.381C745.965 178.811 745.732 179.226 745.433 179.627C745.144 180.019 744.803 180.388 744.411 180.733C744.019 181.088 743.585 181.41 743.109 181.699C742.642 181.979 742.152 182.222 741.639 182.427L740.883 181.699C741.471 181.522 742.05 181.27 742.619 180.943C743.198 180.607 743.711 180.215 744.159 179.767C744.607 179.319 744.966 178.834 745.237 178.311C745.517 177.779 745.657 177.233 745.657 176.673V175.707H746.567V176.673C746.567 177.261 746.712 177.821 747.001 178.353C747.29 178.876 747.664 179.361 748.121 179.809C748.578 180.257 749.087 180.645 749.647 180.971C750.216 181.298 750.772 181.541 751.313 181.699L750.613 182.413ZM751.845 185.745H740.393V184.989H751.845V185.745ZM760.876 183.743C760.671 183.79 760.414 183.841 760.106 183.897C759.798 183.944 759.467 183.991 759.112 184.037C758.748 184.084 758.375 184.131 757.992 184.177C757.619 184.215 757.264 184.238 756.928 184.247C756.508 184.266 756.125 184.28 755.78 184.289C755.435 184.289 755.136 184.289 754.884 184.289C754.632 184.299 754.431 184.303 754.282 184.303C754.142 184.294 754.067 184.289 754.058 184.289C753.955 184.289 753.885 184.271 753.848 184.233C753.811 184.187 753.792 184.117 753.792 184.023V175.707H754.702V183.463L756.97 183.435C757.269 183.426 757.6 183.403 757.964 183.365C758.328 183.328 758.687 183.281 759.042 183.225C759.406 183.179 759.747 183.127 760.064 183.071C760.391 183.015 760.661 182.964 760.876 182.917V183.743ZM762.836 187.579H761.94V179.725H758.342V178.969H761.94V175.147H762.836V187.579ZM764.979 184.247C768.134 182.567 769.879 180.043 770.215 176.673H765.791V175.917H770.915C771.092 175.917 771.181 176.006 771.181 176.183C771.022 178.041 770.509 179.688 769.641 181.125C768.773 182.553 767.485 183.785 765.777 184.821L764.979 184.247ZM774.583 187.593H773.673V175.147H774.583V180.299H776.515V181.111H774.583V187.593ZM790.32 180.957C790.106 180.995 789.788 181.037 789.368 181.083C788.948 181.121 788.468 181.163 787.926 181.209C787.394 181.247 786.825 181.279 786.218 181.307C785.621 181.335 785.028 181.349 784.44 181.349H781.64V180.607H785.378V179.039H782.97C782.868 179.039 782.798 179.021 782.76 178.983C782.723 178.937 782.704 178.867 782.704 178.773V175.875C782.704 175.791 782.723 175.726 782.76 175.679C782.798 175.633 782.868 175.609 782.97 175.609H789.102V176.323H783.544V178.325H789.298V179.039H786.26V180.565C786.475 180.565 786.76 180.556 787.114 180.537C787.478 180.519 787.856 180.495 788.248 180.467C788.64 180.439 789.018 180.407 789.382 180.369C789.756 180.323 790.068 180.276 790.32 180.229V180.957ZM791.622 181.867H790.726V175.147H791.622V181.867ZM791.874 187.425H783.922C783.82 187.425 783.75 187.407 783.712 187.369C783.675 187.332 783.656 187.262 783.656 187.159V184.863C783.656 184.77 783.675 184.705 783.712 184.667C783.75 184.621 783.82 184.597 783.922 184.597H790.642V183.267H783.656V182.511H791.314C791.492 182.511 791.58 182.6 791.58 182.777V185.045C791.58 185.148 791.557 185.218 791.51 185.255C791.473 185.293 791.408 185.311 791.314 185.311H784.58V186.697H791.874V187.425ZM807.542 180.691C807.057 180.57 806.581 180.411 806.114 180.215C805.657 180.019 805.227 179.791 804.826 179.529C804.434 179.268 804.084 178.974 803.776 178.647C803.477 178.321 803.249 177.961 803.09 177.569C802.885 177.98 802.628 178.349 802.32 178.675C802.012 178.993 801.662 179.277 801.27 179.529C800.887 179.781 800.467 180.005 800.01 180.201C799.562 180.388 799.095 180.551 798.61 180.691L797.924 179.963C798.568 179.823 799.17 179.637 799.73 179.403C800.299 179.161 800.794 178.876 801.214 178.549C801.643 178.223 801.979 177.859 802.222 177.457C802.474 177.047 802.6 176.589 802.6 176.085V175.469H803.538V176.071C803.538 176.557 803.659 177.005 803.902 177.415C804.145 177.826 804.481 178.195 804.91 178.521C805.33 178.848 805.82 179.133 806.38 179.375C806.94 179.618 807.542 179.805 808.186 179.935L807.542 180.691ZM808.774 182.861H803.566V187.579H802.67V182.861H797.378V182.105H808.774V182.861ZM820.312 179.669C820.153 180.052 819.938 180.379 819.668 180.649C819.388 180.929 819.052 181.149 818.66 181.307C818.277 181.457 817.848 181.531 817.372 181.531C816.886 181.531 816.448 181.452 816.056 181.293C815.673 181.125 815.342 180.897 815.062 180.607C814.791 180.327 814.581 180.001 814.432 179.627C814.282 179.245 814.208 178.843 814.208 178.423C814.208 177.994 814.282 177.593 814.432 177.219C814.581 176.837 814.796 176.501 815.076 176.211C815.346 175.931 815.678 175.712 816.07 175.553C816.462 175.385 816.9 175.301 817.386 175.301C817.862 175.301 818.291 175.385 818.674 175.553C819.056 175.712 819.388 175.931 819.668 176.211C819.948 176.491 820.162 176.823 820.312 177.205C820.47 177.588 820.55 177.994 820.55 178.423C820.55 178.825 820.47 179.24 820.312 179.669ZM819.654 178.409C819.654 177.784 819.453 177.243 819.052 176.785C818.66 176.319 818.1 176.085 817.372 176.085C816.644 176.085 816.088 176.319 815.706 176.785C815.323 177.252 815.132 177.793 815.132 178.409C815.132 178.727 815.178 179.03 815.272 179.319C815.365 179.599 815.51 179.851 815.706 180.075C815.892 180.29 816.126 180.463 816.406 180.593C816.686 180.715 817.008 180.775 817.372 180.775C817.736 180.775 818.058 180.715 818.338 180.593C818.618 180.463 818.856 180.29 819.052 180.075C819.453 179.618 819.654 179.063 819.654 178.409ZM823.98 182.385H823.098V175.147H823.98V182.385ZM824.624 187.663C824.092 187.337 823.625 186.959 823.224 186.529C822.832 186.109 822.491 185.633 822.202 185.101C821.94 185.605 821.628 186.058 821.264 186.459C820.909 186.87 820.503 187.243 820.046 187.579C819.532 187.187 819.094 186.781 818.73 186.361C818.366 185.951 818.081 185.521 817.876 185.073C817.586 185.615 817.241 186.1 816.84 186.529C816.438 186.959 815.981 187.337 815.468 187.663L814.768 187.061C815.094 186.893 815.416 186.679 815.734 186.417C816.06 186.156 816.35 185.867 816.602 185.549C816.854 185.232 817.059 184.896 817.218 184.541C817.376 184.177 817.456 183.799 817.456 183.407V182.917H818.31V183.477C818.31 184.019 818.473 184.56 818.8 185.101C819.126 185.633 819.542 186.109 820.046 186.529C820.438 186.231 820.834 185.773 821.236 185.157C821.581 184.588 821.754 183.991 821.754 183.365V182.917H822.608V183.435C822.608 183.799 822.682 184.163 822.832 184.527C822.99 184.891 823.2 185.237 823.462 185.563C823.723 185.89 824.017 186.184 824.344 186.445C824.67 186.707 825.006 186.912 825.352 187.061L824.624 187.663ZM836.147 187.579H835.251V180.397H832.465C832.427 181.909 832.143 183.034 831.611 183.771C831.079 184.499 830.388 184.863 829.539 184.863C829.1 184.863 828.699 184.765 828.335 184.569C827.98 184.373 827.672 184.079 827.411 183.687C827.149 183.295 826.944 182.805 826.795 182.217C826.655 181.629 826.585 180.943 826.585 180.159C826.585 179.375 826.655 178.689 826.795 178.101C826.944 177.513 827.149 177.023 827.411 176.631C827.672 176.239 827.98 175.945 828.335 175.749C828.699 175.553 829.1 175.455 829.539 175.455C830.351 175.455 831.023 175.805 831.555 176.505C832.087 177.196 832.385 178.241 832.451 179.641H835.251V175.147H836.147V187.579ZM830.757 183.491C831.083 183.081 831.317 182.516 831.457 181.797C831.55 181.415 831.597 180.869 831.597 180.159C831.578 178.955 831.391 178.003 831.037 177.303C830.682 176.585 830.183 176.225 829.539 176.225C828.904 176.225 828.395 176.585 828.013 177.303C827.639 178.013 827.453 178.965 827.453 180.159C827.453 180.766 827.499 181.312 827.593 181.797C827.695 182.273 827.835 182.684 828.013 183.029C828.19 183.375 828.405 183.641 828.657 183.827C828.918 184.005 829.212 184.093 829.539 184.093C830.033 184.093 830.439 183.893 830.757 183.491ZM847.796 180.173C847.693 180.388 847.562 180.584 847.404 180.761C847.254 180.929 847.086 181.079 846.9 181.209C846.526 181.499 846.074 181.718 845.542 181.867C845.01 182.017 844.422 182.091 843.778 182.091C843.124 182.091 842.532 182.017 842 181.867C841.468 181.718 841.015 181.499 840.642 181.209C839.848 180.64 839.452 179.823 839.452 178.759C839.452 178.246 839.55 177.784 839.745 177.373C839.951 176.953 840.25 176.603 840.642 176.323C841.015 176.034 841.468 175.815 842 175.665C842.532 175.507 843.124 175.427 843.778 175.427C844.422 175.427 845.01 175.507 845.542 175.665C846.074 175.815 846.526 176.034 846.9 176.323C847.292 176.603 847.59 176.953 847.796 177.373C848.001 177.784 848.104 178.246 848.104 178.759C848.104 179.301 848.001 179.772 847.796 180.173ZM843.778 181.377C844.795 181.377 845.607 181.144 846.214 180.677C846.522 180.453 846.76 180.183 846.928 179.865C847.096 179.548 847.18 179.179 847.18 178.759C847.18 178.358 847.096 177.999 846.928 177.681C846.76 177.355 846.522 177.075 846.214 176.841C845.915 176.617 845.56 176.445 845.15 176.323C844.739 176.202 844.282 176.141 843.778 176.141C843.274 176.141 842.812 176.202 842.392 176.323C841.981 176.445 841.626 176.617 841.328 176.841C841.029 177.075 840.796 177.355 840.628 177.681C840.46 177.999 840.376 178.358 840.376 178.759C840.376 179.179 840.46 179.548 840.628 179.865C840.796 180.183 841.029 180.453 841.328 180.677C841.934 181.144 842.751 181.377 843.778 181.377ZM849.476 185.871H838.052V185.115H840.88V182.413H841.762V185.115H845.808V182.413H846.676V185.115H849.476V185.871ZM852.458 186.361H851.254V185.101H852.458V186.361ZM482 203.277C481.552 203.193 481.109 203.095 480.67 202.983C480.241 202.871 479.83 202.727 479.438 202.549C479.046 202.381 478.691 202.176 478.374 201.933C478.057 201.691 477.795 201.401 477.59 201.065C477.179 201.672 476.591 202.143 475.826 202.479C475.07 202.815 474.179 203.081 473.152 203.277L472.522 202.605C473.11 202.503 473.656 202.386 474.16 202.255C474.673 202.125 475.131 201.966 475.532 201.779C475.933 201.602 476.265 201.387 476.526 201.135C476.787 200.883 476.965 200.58 477.058 200.225H473.348V199.511H481.804V200.225H478.108C478.173 200.561 478.341 200.86 478.612 201.121C478.883 201.383 479.228 201.611 479.648 201.807C480.068 202.003 480.525 202.171 481.02 202.311C481.524 202.442 482.056 202.545 482.616 202.619L482 203.277ZM483.274 204.943H471.878V204.215H477.128V202.703H478.024V204.215H483.274V204.943ZM480.054 206.525H475.07V205.825H480.054V206.525ZM482.28 208.163H472.914V207.463H482.28V208.163ZM481.636 210.291C481.636 210.562 481.533 210.786 481.328 210.963C481.132 211.15 480.857 211.304 480.502 211.425C480.138 211.547 479.709 211.631 479.214 211.677C478.719 211.733 478.173 211.761 477.576 211.761C476.979 211.761 476.428 211.733 475.924 211.677C475.429 211.631 475 211.547 474.636 211.425C474.281 211.304 474.001 211.15 473.796 210.963C473.6 210.786 473.502 210.562 473.502 210.291C473.502 210.03 473.605 209.806 473.81 209.619C474.015 209.433 474.3 209.279 474.664 209.157C475.028 209.036 475.457 208.947 475.952 208.891C476.447 208.835 476.988 208.807 477.576 208.807C478.164 208.807 478.701 208.835 479.186 208.891C479.681 208.947 480.11 209.036 480.474 209.157C480.838 209.279 481.123 209.433 481.328 209.619C481.533 209.806 481.636 210.03 481.636 210.291ZM480.39 210.683C480.558 210.59 480.642 210.455 480.642 210.277C480.642 210.128 480.558 210.002 480.39 209.899C480.222 209.806 479.998 209.727 479.718 209.661C479.438 209.596 479.116 209.549 478.752 209.521C478.388 209.493 477.996 209.479 477.576 209.479C477.156 209.479 476.764 209.493 476.4 209.521C476.036 209.549 475.714 209.596 475.434 209.661C475.154 209.727 474.93 209.806 474.762 209.899C474.603 210.002 474.524 210.128 474.524 210.277C474.524 210.445 474.603 210.581 474.762 210.683C474.921 210.786 475.14 210.87 475.42 210.935C475.7 211.001 476.022 211.043 476.386 211.061C476.759 211.089 477.156 211.103 477.576 211.103C477.996 211.103 478.388 211.089 478.752 211.061C479.125 211.043 479.452 211.001 479.732 210.935C480.012 210.87 480.231 210.786 480.39 210.683ZM486.957 203.781C486.854 203.744 486.756 203.688 486.663 203.613C485.879 203.156 485.487 202.517 485.487 201.695C485.487 200.893 485.879 200.258 486.663 199.791C487.036 199.567 487.484 199.39 488.007 199.259C488.539 199.129 489.127 199.063 489.771 199.063C490.415 199.063 490.998 199.129 491.521 199.259C492.044 199.39 492.492 199.567 492.865 199.791C493.238 200.025 493.528 200.305 493.733 200.631C493.948 200.949 494.055 201.303 494.055 201.695C494.055 202.097 493.948 202.461 493.733 202.787C493.528 203.105 493.238 203.38 492.865 203.613C492.492 203.847 492.044 204.024 491.521 204.145C490.998 204.267 490.415 204.327 489.771 204.327C489.052 204.327 488.464 204.267 488.007 204.145C487.876 204.108 487.75 204.075 487.629 204.047C487.508 204.01 487.391 203.968 487.279 203.921C487.223 203.903 487.167 203.879 487.111 203.851C487.055 203.823 487.004 203.8 486.957 203.781ZM492.193 203.095C492.492 202.927 492.725 202.727 492.893 202.493C493.07 202.26 493.159 202.008 493.159 201.737C493.159 201.467 493.07 201.215 492.893 200.981C492.725 200.739 492.492 200.529 492.193 200.351C491.894 200.174 491.535 200.034 491.115 199.931C490.704 199.819 490.256 199.763 489.771 199.763C489.267 199.763 488.81 199.819 488.399 199.931C487.988 200.034 487.634 200.174 487.335 200.351C486.7 200.715 486.383 201.177 486.383 201.737C486.383 202.288 486.7 202.741 487.335 203.095C487.634 203.263 487.988 203.399 488.399 203.501C488.81 203.595 489.267 203.641 489.771 203.641C490.256 203.641 490.704 203.595 491.115 203.501C491.535 203.399 491.894 203.263 492.193 203.095ZM495.483 206.427H484.087V205.685H495.483V206.427ZM494.377 211.313H485.935C485.832 211.313 485.762 211.295 485.725 211.257C485.688 211.22 485.669 211.15 485.669 211.047V207.589H486.495V210.557H494.377V211.313ZM510.689 201.723H501.393V200.953H510.689V201.723ZM508.435 200.001H503.633V199.231H508.435V200.001ZM509.877 204.341C509.877 204.901 509.564 205.34 508.939 205.657C508.313 205.975 507.338 206.133 506.013 206.133C504.687 206.133 503.712 205.975 503.087 205.657C502.461 205.34 502.149 204.901 502.149 204.341C502.149 203.781 502.461 203.338 503.087 203.011C503.712 202.685 504.687 202.521 506.013 202.521C507.338 202.521 508.313 202.685 508.939 203.011C509.564 203.338 509.877 203.781 509.877 204.341ZM508.197 205.139C508.645 204.934 508.869 204.663 508.869 204.327C508.869 203.991 508.645 203.725 508.197 203.529C507.749 203.324 507.021 203.221 506.013 203.221C505.005 203.221 504.277 203.324 503.829 203.529C503.381 203.725 503.157 203.991 503.157 204.327C503.157 204.663 503.381 204.934 503.829 205.139C504.277 205.335 505.005 205.433 506.013 205.433C507.021 205.433 507.749 205.335 508.197 205.139ZM511.753 207.869H506.573V211.593H505.649V207.869H500.357V207.127H511.753V207.869ZM513.014 208.275C514.61 207.454 515.828 206.418 516.668 205.167C517.508 203.917 518.03 202.414 518.236 200.659H513.798V199.903H518.908C519.085 199.903 519.174 199.992 519.174 200.169C519.034 202.008 518.53 203.651 517.662 205.097C516.803 206.544 515.529 207.804 513.84 208.877L513.014 208.275ZM522.884 211.579H521.988V199.161H522.884V211.579ZM524.914 208.247C528.069 206.567 529.814 204.043 530.15 200.673H525.726V199.917H530.85C531.028 199.917 531.116 200.006 531.116 200.183C530.958 202.041 530.444 203.688 529.576 205.125C528.708 206.553 527.42 207.785 525.712 208.821L524.914 208.247ZM534.518 211.593H533.608V199.147H534.518V204.299H536.45V205.111H534.518V211.593ZM548.982 204.705C548.618 204.444 548.296 204.155 548.016 203.837C547.745 203.511 547.512 203.091 547.316 202.577C547.092 203.081 546.803 203.543 546.448 203.963C546.093 204.374 545.743 204.733 545.398 205.041C545.006 204.696 544.647 204.332 544.32 203.949C544.003 203.557 543.727 203.109 543.494 202.605C543.317 203.063 543.046 203.506 542.682 203.935C542.505 204.15 542.327 204.346 542.15 204.523C541.982 204.701 541.819 204.859 541.66 204.999L540.918 204.467C541.31 204.187 541.641 203.912 541.912 203.641C542.192 203.361 542.416 203.063 542.584 202.745C542.752 202.419 542.873 202.064 542.948 201.681C543.032 201.299 543.074 200.855 543.074 200.351V199.455H543.928V200.351C543.928 201.275 544.045 201.971 544.278 202.437C544.521 202.96 544.894 203.459 545.398 203.935C545.874 203.459 546.238 202.955 546.49 202.423C546.751 201.91 546.882 201.219 546.882 200.351V199.455H547.736V200.351C547.736 201.331 547.899 202.12 548.226 202.717C548.562 203.305 549.024 203.767 549.612 204.103L548.982 204.705ZM551.208 206.035H550.368V199.147H551.208V201.807H552.944V202.577H551.208V206.035ZM549.276 206.483H545.104V205.741H549.276V206.483ZM551.698 208.023H542.738V207.281H551.698V208.023ZM550.816 210.963C550.62 211.159 550.354 211.318 550.018 211.439C549.682 211.561 549.276 211.649 548.8 211.705C548.324 211.761 547.806 211.789 547.246 211.789C546.677 211.789 546.154 211.761 545.678 211.705C545.202 211.649 544.796 211.561 544.46 211.439C544.115 211.318 543.849 211.159 543.662 210.963C543.475 210.767 543.382 210.529 543.382 210.249C543.382 209.979 543.475 209.75 543.662 209.563C543.858 209.367 544.129 209.209 544.474 209.087C544.819 208.966 545.225 208.877 545.692 208.821C546.168 208.756 546.686 208.723 547.246 208.723C548.338 208.723 549.257 208.845 550.004 209.087C550.349 209.209 550.62 209.367 550.816 209.563C551.012 209.75 551.11 209.979 551.11 210.249C551.11 210.529 551.012 210.767 550.816 210.963ZM547.246 209.395C546.555 209.395 545.883 209.461 545.23 209.591C544.969 209.657 544.759 209.741 544.6 209.843C544.451 209.955 544.376 210.086 544.376 210.235C544.376 210.413 544.451 210.557 544.6 210.669C544.749 210.791 544.955 210.884 545.216 210.949C545.477 211.015 545.781 211.057 546.126 211.075C546.481 211.103 546.854 211.117 547.246 211.117C547.638 211.117 548.007 211.103 548.352 211.075C548.697 211.057 549.001 211.015 549.262 210.949C549.523 210.884 549.729 210.791 549.878 210.669C550.037 210.557 550.116 210.413 550.116 210.235C550.116 210.086 550.037 209.955 549.878 209.843C549.719 209.741 549.509 209.657 549.248 209.591C548.977 209.526 548.674 209.479 548.338 209.451C548.011 209.414 547.647 209.395 547.246 209.395ZM559.105 207.687C558.844 208.079 558.526 208.373 558.153 208.569C557.789 208.765 557.392 208.863 556.963 208.863C556.524 208.863 556.123 208.765 555.759 208.569C555.395 208.373 555.082 208.079 554.821 207.687C554.56 207.295 554.354 206.805 554.205 206.217C554.056 205.629 553.981 204.943 553.981 204.159C553.981 203.375 554.056 202.689 554.205 202.101C554.354 201.513 554.56 201.023 554.821 200.631C555.082 200.239 555.395 199.945 555.759 199.749C556.123 199.553 556.524 199.455 556.963 199.455C557.392 199.455 557.789 199.553 558.153 199.749C558.526 199.945 558.844 200.239 559.105 200.631C559.366 201.023 559.572 201.513 559.721 202.101C559.87 202.689 559.945 203.375 559.945 204.159C559.945 204.953 559.87 205.643 559.721 206.231C559.572 206.81 559.366 207.295 559.105 207.687ZM558.923 205.797C559.026 205.2 559.077 204.654 559.077 204.159C559.058 202.974 558.862 202.022 558.489 201.303C558.106 200.585 557.598 200.225 556.963 200.225C556.319 200.225 555.806 200.585 555.423 201.303C555.04 202.022 554.849 202.974 554.849 204.159C554.849 204.766 554.896 205.312 554.989 205.797C555.092 206.273 555.236 206.684 555.423 207.029C555.61 207.375 555.829 207.641 556.081 207.827C556.342 208.005 556.636 208.093 556.963 208.093C557.439 208.093 557.85 207.893 558.195 207.491C558.54 207.09 558.783 206.525 558.923 205.797ZM563.543 211.579H562.647V199.147H563.543V211.579ZM571.188 204.999V200.491H567.338V204.999H571.188ZM575.794 208.373H574.898V204.243H572.014V205.461C572.014 205.573 571.995 205.648 571.958 205.685C571.921 205.713 571.855 205.727 571.762 205.727H566.764C566.652 205.727 566.577 205.713 566.54 205.685C566.512 205.648 566.498 205.573 566.498 205.461V200.029C566.498 199.927 566.512 199.857 566.54 199.819C566.577 199.782 566.652 199.763 566.764 199.763H571.762C571.855 199.763 571.921 199.782 571.958 199.819C571.995 199.857 572.014 199.927 572.014 200.029V201.037H574.898V199.147H575.794V208.373ZM574.898 203.501V201.779H572.014V203.501H574.898ZM576.116 211.313H568.136C568.033 211.313 567.963 211.295 567.926 211.257C567.889 211.22 567.87 211.15 567.87 211.047V207.309H568.766V210.557H576.116V211.313ZM586.282 207.589V200.771H583.552V207.589H586.282ZM587.122 208.079C587.122 208.191 587.103 208.266 587.066 208.303C587.028 208.331 586.963 208.345 586.87 208.345H582.978C582.866 208.345 582.791 208.331 582.754 208.303C582.726 208.266 582.712 208.191 582.712 208.079V200.295C582.712 200.193 582.726 200.123 582.754 200.085C582.791 200.048 582.866 200.029 582.978 200.029H586.87C586.963 200.029 587.028 200.048 587.066 200.085C587.103 200.123 587.122 200.193 587.122 200.295V208.079ZM592.19 211.579H591.294V204.369H589.474V210.991H588.578V199.357H589.474V203.557H591.294V199.147H592.19V211.579ZM602.187 207.743C601.981 207.79 601.725 207.841 601.417 207.897C601.109 207.944 600.777 207.991 600.423 208.037C600.059 208.084 599.685 208.131 599.303 208.177C598.929 208.215 598.575 208.238 598.239 208.247C597.819 208.266 597.436 208.28 597.091 208.289C596.745 208.289 596.447 208.289 596.195 208.289C595.943 208.299 595.742 208.303 595.593 208.303C595.453 208.294 595.378 208.289 595.369 208.289C595.266 208.289 595.196 208.271 595.159 208.233C595.121 208.187 595.103 208.117 595.103 208.023V199.707H596.013V207.463L598.281 207.435C598.579 207.426 598.911 207.403 599.275 207.365C599.639 207.328 599.998 207.281 600.353 207.225C600.717 207.179 601.057 207.127 601.375 207.071C601.701 207.015 601.972 206.964 602.187 206.917V207.743ZM604.147 211.579H603.251V203.725H599.653V202.969H603.251V199.147H604.147V211.579ZM621.606 206.525H610.21V205.783H615.474V204.089C614.886 204.061 614.354 203.987 613.878 203.865C613.402 203.744 612.996 203.581 612.66 203.375C612.324 203.161 612.063 202.904 611.876 202.605C611.699 202.307 611.61 201.966 611.61 201.583C611.61 200.818 612.002 200.202 612.786 199.735C613.159 199.521 613.607 199.357 614.13 199.245C614.662 199.124 615.25 199.063 615.894 199.063C616.538 199.063 617.121 199.124 617.644 199.245C618.167 199.357 618.615 199.521 618.988 199.735C619.361 199.959 619.651 200.225 619.856 200.533C620.071 200.841 620.178 201.191 620.178 201.583C620.178 202.339 619.823 202.932 619.114 203.361C618.386 203.809 617.462 204.052 616.342 204.089V205.783H621.606V206.525ZM618.316 202.927C618.615 202.769 618.848 202.582 619.016 202.367C619.193 202.143 619.282 201.896 619.282 201.625C619.282 201.355 619.193 201.107 619.016 200.883C618.848 200.65 618.615 200.454 618.316 200.295C618.017 200.127 617.658 199.997 617.238 199.903C616.827 199.81 616.379 199.763 615.894 199.763C615.39 199.763 614.933 199.81 614.522 199.903C614.111 199.997 613.757 200.127 613.458 200.295C612.823 200.631 612.506 201.075 612.506 201.625C612.506 202.157 612.823 202.591 613.458 202.927C614.065 203.254 614.877 203.417 615.894 203.417C616.379 203.417 616.827 203.375 617.238 203.291C617.658 203.207 618.017 203.086 618.316 202.927ZM620.5 211.313H612.058C611.955 211.313 611.885 211.295 611.848 211.257C611.811 211.22 611.792 211.15 611.792 211.047V207.589H612.618V210.557H620.5V211.313ZM633.843 209.871H622.391V209.115H627.641V205.811H624.239C624.136 205.811 624.066 205.793 624.029 205.755C623.992 205.709 623.973 205.639 623.973 205.545V200.169C623.973 200.085 623.992 200.02 624.029 199.973C624.066 199.927 624.136 199.903 624.239 199.903H632.401V200.645H624.841V205.069H632.541V205.811H628.579V209.115H633.843V209.871ZM634.768 208.247C637.923 206.567 639.668 204.043 640.004 200.673H635.58V199.917H640.704C640.881 199.917 640.97 200.006 640.97 200.183C640.811 202.041 640.298 203.688 639.43 205.125C638.562 206.553 637.274 207.785 635.566 208.821L634.768 208.247ZM644.372 211.593H643.462V199.147H644.372V204.299H646.304V205.111H644.372V211.593ZM662.294 205.293H650.898V204.565H656.148V203.375C655.56 203.357 655.028 203.296 654.552 203.193C654.076 203.081 653.67 202.937 653.334 202.759C653.007 202.573 652.75 202.353 652.564 202.101C652.386 201.84 652.298 201.546 652.298 201.219C652.298 200.547 652.69 200.02 653.474 199.637C654.323 199.255 655.359 199.063 656.582 199.063C657.226 199.063 657.809 199.115 658.332 199.217C658.854 199.32 659.302 199.46 659.676 199.637C660.049 199.824 660.338 200.053 660.544 200.323C660.758 200.585 660.866 200.883 660.866 201.219C660.866 201.873 660.511 202.386 659.802 202.759C659.12 203.123 658.196 203.329 657.03 203.375V204.565H662.294V205.293ZM656.582 202.731C657.618 202.731 658.425 202.587 659.004 202.297C659.302 202.167 659.536 202.013 659.704 201.835C659.881 201.649 659.97 201.448 659.97 201.233C659.97 201.009 659.881 200.809 659.704 200.631C659.536 200.445 659.302 200.286 659.004 200.155C658.705 200.034 658.346 199.936 657.926 199.861C657.515 199.787 657.067 199.749 656.582 199.749C656.078 199.749 655.62 199.787 655.21 199.861C654.799 199.936 654.444 200.034 654.146 200.155C653.511 200.426 653.194 200.785 653.194 201.233C653.194 201.672 653.511 202.027 654.146 202.297C654.724 202.587 655.536 202.731 656.582 202.731ZM661.006 211.425H652.746C652.643 211.425 652.573 211.407 652.536 211.369C652.498 211.332 652.48 211.262 652.48 211.159V208.793C652.48 208.7 652.498 208.635 652.536 208.597C652.573 208.551 652.643 208.527 652.746 208.527H659.816V207.141H652.48V206.427H660.46C660.637 206.427 660.726 206.516 660.726 206.693V208.961C660.726 209.064 660.702 209.134 660.656 209.171C660.618 209.209 660.553 209.227 660.46 209.227H653.376V210.725H661.006V211.425ZM671.381 207.995C671.194 208.033 670.947 208.075 670.639 208.121C670.331 208.168 669.99 208.215 669.617 208.261C669.243 208.308 668.851 208.35 668.441 208.387C668.03 208.425 667.624 208.448 667.223 208.457C666.831 208.476 666.453 208.49 666.089 208.499C665.734 208.499 665.412 208.499 665.123 208.499H664.129C664.026 208.499 663.956 208.481 663.919 208.443C663.881 208.397 663.863 208.327 663.863 208.233V203.991C663.863 203.907 663.881 203.842 663.919 203.795C663.956 203.749 664.026 203.725 664.129 203.725H668.497V200.561H663.863V199.805H669.113C669.29 199.805 669.379 199.894 669.379 200.071V204.201C669.379 204.379 669.29 204.467 669.113 204.467H664.717V207.701L666.943 207.673C667.363 207.673 667.797 207.655 668.245 207.617C668.693 207.58 669.117 207.538 669.519 207.491C669.939 207.445 670.307 207.398 670.625 207.351C670.951 207.295 671.203 207.249 671.381 207.211V207.995ZM672.823 211.593H671.899V199.147H672.823V203.795H674.769V204.579H672.823V211.593ZM675.456 208.247C678.61 206.567 680.356 204.043 680.692 200.673H676.268V199.917H681.392C681.569 199.917 681.658 200.006 681.658 200.183C681.499 202.041 680.986 203.688 680.118 205.125C679.25 206.553 677.962 207.785 676.254 208.821L675.456 208.247ZM685.06 211.593H684.15V199.147H685.06V204.299H686.992V205.111H685.06V211.593ZM695.728 207.225C695.822 206.693 695.915 206.143 696.008 205.573C696.111 205.004 696.204 204.435 696.288 203.865C696.363 203.296 696.428 202.741 696.484 202.199C696.54 201.649 696.578 201.131 696.596 200.645H688.924V199.903H697.226C697.404 199.903 697.492 199.992 697.492 200.169C697.418 201.373 697.315 202.549 697.184 203.697C697.054 204.845 696.872 206.026 696.638 207.239L695.728 207.225ZM698.962 209.871H687.496V209.115H691.85V204.257H692.732V209.115H698.962V209.871ZM700.727 211.635C700.942 211.579 701.101 211.425 701.203 211.173C701.306 210.931 701.343 210.66 701.315 210.361H700.643V209.087H701.791C701.941 209.087 702.015 209.171 702.015 209.339V210.095C702.015 210.394 701.978 210.655 701.903 210.879C701.829 211.103 701.731 211.29 701.609 211.439C701.497 211.598 701.362 211.719 701.203 211.803C701.054 211.897 700.895 211.957 700.727 211.985V211.635ZM713.717 204.789V200.491H709.867V204.789H713.717ZM718.323 206.735H717.427V204.033H714.543V205.251C714.543 205.363 714.525 205.438 714.487 205.475C714.45 205.503 714.385 205.517 714.291 205.517H709.293C709.181 205.517 709.107 205.503 709.069 205.475C709.041 205.438 709.027 205.363 709.027 205.251V200.029C709.027 199.927 709.041 199.857 709.069 199.819C709.107 199.782 709.181 199.763 709.293 199.763H714.291C714.385 199.763 714.45 199.782 714.487 199.819C714.525 199.857 714.543 199.927 714.543 200.029V200.939H717.427V199.147H718.323V206.735ZM717.427 203.291V201.681H714.543V203.291H717.427ZM718.561 209.367C718.561 210.086 718.183 210.674 717.427 211.131C716.653 211.598 715.603 211.831 714.277 211.831C713.605 211.831 713.008 211.771 712.485 211.649C711.963 211.528 711.515 211.355 711.141 211.131C710.768 210.917 710.483 210.655 710.287 210.347C710.091 210.049 709.993 209.722 709.993 209.367C709.993 209.022 710.091 208.7 710.287 208.401C710.483 208.093 710.768 207.832 711.141 207.617C711.515 207.393 711.963 207.221 712.485 207.099C713.008 206.969 713.605 206.903 714.277 206.903C715.621 206.903 716.671 207.141 717.427 207.617C718.183 208.084 718.561 208.667 718.561 209.367ZM717.357 208.625C717.189 208.42 716.956 208.238 716.657 208.079C715.976 207.781 715.183 207.631 714.277 207.631C713.82 207.631 713.386 207.669 712.975 207.743C712.574 207.818 712.219 207.93 711.911 208.079C711.613 208.229 711.375 208.411 711.197 208.625C711.02 208.84 710.931 209.087 710.931 209.367C710.931 209.647 711.02 209.895 711.197 210.109C711.375 210.324 711.617 210.506 711.925 210.655C712.224 210.805 712.574 210.917 712.975 210.991C713.386 211.066 713.82 211.103 714.277 211.103C714.735 211.103 715.169 211.066 715.579 210.991C715.99 210.917 716.345 210.805 716.643 210.655C716.942 210.506 717.18 210.324 717.357 210.109C717.535 209.895 717.623 209.647 717.623 209.367C717.623 209.078 717.535 208.831 717.357 208.625ZM728.432 210.991H727.55V206.301H725.688C725.492 207.179 725.18 207.827 724.75 208.247C724.321 208.667 723.826 208.877 723.266 208.877C722.874 208.877 722.515 208.784 722.188 208.597C721.871 208.401 721.596 208.112 721.362 207.729C721.138 207.337 720.961 206.847 720.83 206.259C720.7 205.671 720.634 204.985 720.634 204.201C720.634 203.417 720.7 202.736 720.83 202.157C720.961 201.569 721.138 201.084 721.362 200.701C721.596 200.309 721.871 200.02 722.188 199.833C722.515 199.637 722.874 199.539 723.266 199.539C723.826 199.539 724.312 199.74 724.722 200.141C725.142 200.543 725.455 201.154 725.66 201.975H727.55V199.371H728.432V210.991ZM727.55 205.489V202.773H725.814C725.87 203.221 725.898 203.697 725.898 204.201C725.898 204.435 725.889 204.659 725.87 204.873C725.861 205.088 725.847 205.293 725.828 205.489H727.55ZM724.526 207.057C724.862 206.357 725.03 205.405 725.03 204.201C725.021 203.585 724.97 203.044 724.876 202.577C724.792 202.111 724.671 201.705 724.512 201.359C724.195 200.65 723.775 200.295 723.252 200.295C722.73 200.295 722.31 200.65 721.992 201.359C721.666 202.125 721.502 203.072 721.502 204.201C721.502 204.808 721.544 205.354 721.628 205.839C721.722 206.315 721.843 206.721 721.992 207.057C722.151 207.393 722.338 207.655 722.552 207.841C722.767 208.019 723 208.107 723.252 208.107C723.766 208.107 724.19 207.757 724.526 207.057ZM730.714 211.579H729.818V199.147H730.714V211.579ZM745.304 207.995C745.117 208.033 744.87 208.075 744.562 208.121C744.263 208.168 743.918 208.215 743.526 208.261C743.152 208.308 742.756 208.35 742.336 208.387C741.925 208.425 741.524 208.448 741.132 208.457C740.74 208.476 740.357 208.49 739.984 208.499C739.61 208.499 739.274 208.499 738.976 208.499H737.898C737.795 208.499 737.725 208.481 737.688 208.443C737.65 208.397 737.632 208.327 737.632 208.233V203.991C737.632 203.907 737.65 203.842 737.688 203.795C737.725 203.749 737.795 203.725 737.898 203.725H742.294V200.561H737.632V199.805H742.882C743.059 199.805 743.148 199.894 743.148 200.071V204.201C743.148 204.379 743.059 204.467 742.882 204.467H738.514V207.701L740.852 207.673C741.272 207.673 741.701 207.655 742.14 207.617C742.588 207.58 743.022 207.538 743.442 207.491C743.843 207.435 744.207 207.384 744.534 207.337C744.87 207.291 745.126 207.249 745.304 207.211V207.995ZM746.746 211.579H745.85V199.147H746.746V211.579ZM758.871 206.413C758.385 206.227 757.909 205.998 757.443 205.727C756.985 205.457 756.561 205.149 756.169 204.803C755.767 204.467 755.413 204.099 755.105 203.697C754.797 203.296 754.559 202.857 754.391 202.381C754.223 202.811 753.989 203.226 753.691 203.627C753.401 204.019 753.061 204.388 752.669 204.733C752.277 205.088 751.843 205.41 751.367 205.699C750.9 205.979 750.41 206.222 749.897 206.427L749.141 205.699C749.729 205.522 750.307 205.27 750.877 204.943C751.455 204.607 751.969 204.215 752.417 203.767C752.865 203.319 753.224 202.834 753.495 202.311C753.775 201.779 753.915 201.233 753.915 200.673V199.707H754.825V200.673C754.825 201.261 754.969 201.821 755.259 202.353C755.548 202.876 755.921 203.361 756.379 203.809C756.836 204.257 757.345 204.645 757.905 204.971C758.474 205.298 759.029 205.541 759.571 205.699L758.871 206.413ZM760.103 209.745H748.651V208.989H760.103V209.745ZM769.134 207.743C768.928 207.79 768.672 207.841 768.364 207.897C768.056 207.944 767.724 207.991 767.37 208.037C767.006 208.084 766.632 208.131 766.25 208.177C765.876 208.215 765.522 208.238 765.186 208.247C764.766 208.266 764.383 208.28 764.038 208.289C763.692 208.289 763.394 208.289 763.142 208.289C762.89 208.299 762.689 208.303 762.54 208.303C762.4 208.294 762.325 208.289 762.316 208.289C762.213 208.289 762.143 208.271 762.106 208.233C762.068 208.187 762.05 208.117 762.05 208.023V199.707H762.96V207.463L765.228 207.435C765.526 207.426 765.858 207.403 766.222 207.365C766.586 207.328 766.945 207.281 767.3 207.225C767.664 207.179 768.004 207.127 768.322 207.071C768.648 207.015 768.919 206.964 769.134 206.917V207.743ZM771.094 211.579H770.198V203.725H766.6V202.969H770.198V199.147H771.094V211.579ZM784.521 209.899H773.069V209.143H778.347V206.623H774.931C774.828 206.623 774.758 206.6 774.721 206.553C774.683 206.507 774.665 206.437 774.665 206.343V203.123C774.665 203.039 774.683 202.979 774.721 202.941C774.758 202.895 774.828 202.871 774.931 202.871H781.847V200.519H774.623V199.791H782.463C782.64 199.791 782.729 199.88 782.729 200.057V203.333C782.729 203.511 782.64 203.599 782.463 203.599H775.533V205.895H783.233V206.623H779.215V209.143H784.521V209.899ZM796.506 206.049C796.198 205.9 795.89 205.727 795.582 205.531C795.274 205.335 794.971 205.107 794.672 204.845C794.056 204.313 793.585 203.693 793.258 202.983C793.006 203.767 792.591 204.444 792.012 205.013C791.443 205.583 790.794 206.063 790.066 206.455L789.296 205.811C790.323 205.326 791.168 204.682 791.83 203.879C792.484 203.058 792.81 202.064 792.81 200.897V199.483H793.72V200.897C793.72 201.457 793.814 201.971 794 202.437C794.196 202.895 794.453 203.319 794.77 203.711C795.088 204.085 795.452 204.411 795.862 204.691C796.273 204.962 796.702 205.177 797.15 205.335L796.506 206.049ZM799.698 208.387H798.816V202.535H795.918V201.765H798.816V199.147H799.698V208.387ZM800.09 211.313H792.04C791.938 211.313 791.868 211.295 791.83 211.257C791.793 211.22 791.774 211.15 791.774 211.047V207.253H792.67V210.557H800.09V211.313ZM808.869 205.825C808.02 205.461 807.339 205.046 806.825 204.579C806.312 204.113 805.911 203.581 805.621 202.983C805.36 203.683 804.973 204.299 804.459 204.831C803.946 205.363 803.265 205.83 802.415 206.231L801.603 205.657C802.705 205.219 803.573 204.621 804.207 203.865C804.842 203.1 805.159 202.148 805.159 201.009V200.491H802.527V199.749H808.645V200.491H806.055V201.037C806.055 202.083 806.377 202.946 807.021 203.627C807.665 204.309 808.501 204.827 809.527 205.181L808.869 205.825ZM812.061 206.735H811.165V202.787H808.365V202.031H811.165V199.133H812.061V206.735ZM812.271 209.325C812.271 210.044 811.907 210.632 811.179 211.089C810.461 211.565 809.429 211.803 808.085 211.803C806.769 211.803 805.743 211.565 805.005 211.089C804.268 210.632 803.899 210.044 803.899 209.325C803.899 208.625 804.268 208.037 805.005 207.561C805.743 207.085 806.769 206.847 808.085 206.847C809.429 206.847 810.461 207.085 811.179 207.561C811.907 208.037 812.271 208.625 812.271 209.325ZM811.333 209.325C811.333 208.765 811.025 208.336 810.409 208.037C809.803 207.729 809.028 207.575 808.085 207.575C807.628 207.575 807.199 207.617 806.797 207.701C806.405 207.776 806.065 207.888 805.775 208.037C805.15 208.327 804.837 208.756 804.837 209.325C804.837 209.605 804.921 209.853 805.089 210.067C805.257 210.282 805.486 210.464 805.775 210.613C806.074 210.763 806.419 210.875 806.811 210.949C807.203 211.033 807.628 211.075 808.085 211.075C808.543 211.075 808.967 211.033 809.359 210.949C809.761 210.875 810.106 210.763 810.395 210.613C810.685 210.464 810.913 210.282 811.081 210.067C811.249 209.853 811.333 209.605 811.333 209.325ZM820.686 208.471C820.416 208.527 820.089 208.579 819.706 208.625C819.333 208.672 818.936 208.714 818.516 208.751C818.096 208.789 817.672 208.817 817.242 208.835C816.822 208.854 816.43 208.863 816.066 208.863H814.092V208.107H816.934V205.111H815.016C814.914 205.111 814.844 205.093 814.806 205.055C814.769 205.009 814.75 204.939 814.75 204.845V200.295C814.75 200.211 814.769 200.146 814.806 200.099C814.844 200.053 814.914 200.029 815.016 200.029H819.874V200.771H815.59V204.383H820.084V205.111H817.788V208.037C818.302 208.019 818.792 207.986 819.258 207.939C819.734 207.893 820.21 207.827 820.686 207.743V208.471ZM824.48 211.579H823.612V205.055H821.946V210.991H821.078V199.357H821.946V204.243H823.612V199.147H824.48V211.579ZM835.723 204.173C835.621 204.388 835.49 204.584 835.331 204.761C835.182 204.929 835.014 205.079 834.827 205.209C834.454 205.499 834.001 205.718 833.469 205.867C832.937 206.017 832.349 206.091 831.705 206.091C831.052 206.091 830.459 206.017 829.927 205.867C829.395 205.718 828.943 205.499 828.569 205.209C827.776 204.64 827.379 203.823 827.379 202.759C827.379 202.246 827.477 201.784 827.673 201.373C827.879 200.953 828.177 200.603 828.569 200.323C828.943 200.034 829.395 199.815 829.927 199.665C830.459 199.507 831.052 199.427 831.705 199.427C832.349 199.427 832.937 199.507 833.469 199.665C834.001 199.815 834.454 200.034 834.827 200.323C835.219 200.603 835.518 200.953 835.723 201.373C835.929 201.784 836.031 202.246 836.031 202.759C836.031 203.301 835.929 203.772 835.723 204.173ZM831.705 205.377C832.723 205.377 833.535 205.144 834.141 204.677C834.449 204.453 834.687 204.183 834.855 203.865C835.023 203.548 835.107 203.179 835.107 202.759C835.107 202.358 835.023 201.999 834.855 201.681C834.687 201.355 834.449 201.075 834.141 200.841C833.843 200.617 833.488 200.445 833.077 200.323C832.667 200.202 832.209 200.141 831.705 200.141C831.201 200.141 830.739 200.202 830.319 200.323C829.909 200.445 829.554 200.617 829.255 200.841C828.957 201.075 828.723 201.355 828.555 201.681C828.387 201.999 828.303 202.358 828.303 202.759C828.303 203.179 828.387 203.548 828.555 203.865C828.723 204.183 828.957 204.453 829.255 204.677C829.862 205.144 830.679 205.377 831.705 205.377ZM837.403 209.871H825.979V209.115H828.807V206.413H829.689V209.115H833.735V206.413H834.603V209.115H837.403V209.871ZM840.232 207.897H839.462L839.252 199.399H840.428L840.232 207.897ZM840.414 210.431H839.28V209.255H840.414V210.431Z" fill="#61586A"/>
<defs>
<clipPath id="clip0_2073_30832">
<rect width="309" height="237" fill="white" transform="translate(122.5 0.731445)"/>
</clipPath>
<clipPath id="clip1_2073_30832">
<rect width="53.4459" height="30.9629" fill="white" transform="translate(252.219 9.37109)"/>
</clipPath>
</defs>
</svg>
