<svg width="329" height="334" viewBox="0 0 329 334" fill="none" xmlns="http://www.w3.org/2000/svg">
<path d="M20.8669 13.896C20.7109 13.932 20.4889 13.974 20.2009 14.022C19.9129 14.07 19.5889 14.118 19.2289 14.166C18.8809 14.202 18.5209 14.238 18.1489 14.274C17.7769 14.298 17.4349 14.31 17.1229 14.31C17.0149 14.322 16.8409 14.334 16.6009 14.346C16.3609 14.346 16.1149 14.346 15.8629 14.346C15.6109 14.358 15.3889 14.364 15.1969 14.364C15.0049 14.364 14.9029 14.358 14.8909 14.346C14.6989 14.346 14.5669 14.31 14.4949 14.238C14.4349 14.166 14.4049 14.034 14.4049 13.842V2.91598H16.4569V12.528L17.8429 12.492C18.0109 12.492 18.2269 12.48 18.4909 12.456C18.7669 12.432 19.0489 12.408 19.3369 12.384C19.6249 12.348 19.9069 12.312 20.1829 12.276C20.4589 12.228 20.6869 12.186 20.8669 12.15V13.896ZM26.9509 18.288H24.9889V9.55798H23.4049V17.514H21.4429V2.44798H23.4049V7.57798H24.9889V2.15998H26.9509V18.288ZM40.5609 8.40598V4.51798H36.8889V8.40598H40.5609ZM42.5409 9.59398C42.5409 9.78598 42.4989 9.91798 42.4149 9.98998C42.3429 10.062 42.2169 10.098 42.0369 10.098H35.3589C35.1669 10.098 35.0349 10.068 34.9629 10.008C34.9029 9.93598 34.8729 9.80398 34.8729 9.61198V3.32998C34.8729 3.14998 34.9089 3.02398 34.9809 2.95198C35.0529 2.86798 35.1849 2.82598 35.3769 2.82598H42.0369C42.3729 2.82598 42.5409 2.99398 42.5409 3.32998V9.59398ZM47.1129 11.088H45.0789V2.15998H47.1129V5.39998H49.2009V7.10998H47.1129V11.088ZM45.0969 16.434V13.482H38.5629V16.434H45.0969ZM47.1129 17.604C47.1129 17.796 47.0709 17.928 46.9869 18C46.9149 18.072 46.7889 18.108 46.6089 18.108H37.0509C36.8589 18.108 36.7269 18.072 36.6549 18C36.5829 17.928 36.5469 17.796 36.5469 17.604V12.294C36.5469 12.114 36.5829 11.988 36.6549 11.916C36.7269 11.832 36.8589 11.79 37.0509 11.79H46.6089C46.9449 11.79 47.1129 11.958 47.1129 12.294V17.604ZM51.2361 4.85998C51.2361 4.05598 51.7581 3.38998 52.8021 2.86198C53.9301 2.33398 55.3761 2.06998 57.1401 2.06998C58.9041 2.06998 60.3441 2.33398 61.4601 2.86198C62.5161 3.37798 63.0441 4.04398 63.0441 4.85998C63.0441 5.27998 62.9061 5.66398 62.6301 6.01198C62.2341 6.51598 61.5621 6.91198 60.6141 7.19998C59.6781 7.48798 58.5201 7.63198 57.1401 7.63198C56.2161 7.63198 55.3881 7.56598 54.6561 7.43398C53.9241 7.30198 53.3061 7.11598 52.8021 6.87598C52.2981 6.63598 51.9081 6.34798 51.6321 6.01198C51.3681 5.66398 51.2361 5.27998 51.2361 4.85998ZM60.5601 5.41798C60.7401 5.26198 60.8301 5.07598 60.8301 4.85998C60.8301 4.64398 60.7401 4.45198 60.5601 4.28398C60.3801 4.11598 60.1281 3.97798 59.8041 3.86998C59.4801 3.74998 59.0901 3.65998 58.6341 3.59998C58.1781 3.53998 57.6801 3.50998 57.1401 3.50998C56.0241 3.50998 55.1301 3.62998 54.4581 3.86998C53.7861 4.09798 53.4501 4.42798 53.4501 4.85998C53.4501 5.06398 53.5401 5.24998 53.7201 5.41798C53.9001 5.57398 54.1521 5.71198 54.4761 5.83198C54.8001 5.93998 55.1901 6.02998 55.6461 6.10198C56.1021 6.16198 56.6001 6.19198 57.1401 6.19198C57.9681 6.19198 58.6761 6.12598 59.2641 5.99398C59.8641 5.84998 60.2961 5.65798 60.5601 5.41798ZM64.5741 10.152H49.7241V8.53198H64.5741V10.152ZM63.0621 18.18H52.0641C51.8721 18.18 51.7401 18.144 51.6681 18.072C51.5961 18 51.5601 17.868 51.5601 17.676V14.508C51.5601 14.328 51.5961 14.202 51.6681 14.13C51.7401 14.046 51.8721 14.004 52.0641 14.004H60.4161V12.798H51.5601V11.268H62.2161C62.5521 11.268 62.7201 11.436 62.7201 11.772V14.886C62.7201 15.078 62.6781 15.21 62.5941 15.282C62.5221 15.354 62.3961 15.39 62.2161 15.39H53.8641V16.668H63.0621V18.18ZM79.3721 10.08C79.0121 9.94798 78.6461 9.77998 78.2741 9.57598C77.9021 9.37198 77.5541 9.14998 77.2301 8.90998C76.8941 8.66998 76.5941 8.42398 76.3301 8.17198C76.0781 7.91998 75.8921 7.68598 75.7721 7.46998C75.6761 7.70998 75.5081 7.96798 75.2681 8.24398C75.0401 8.51998 74.7581 8.78998 74.4221 9.05398C74.0501 9.35398 73.6601 9.62398 73.2521 9.86398C72.8561 10.092 72.4361 10.302 71.9921 10.494L70.6241 9.10798C73.3361 8.23198 74.6921 6.70198 74.6921 4.51798H71.7761V2.84398H79.7861V4.51798H76.8341C76.8341 5.06998 76.9241 5.56798 77.1041 6.01198C77.2961 6.44398 77.5601 6.82798 77.8961 7.16398C78.5801 7.84798 79.4561 8.33998 80.5241 8.63998L79.3721 10.08ZM84.0161 10.602H81.9641V2.17798H84.0161V5.14798H86.0681V6.87598H84.0161V10.602ZM84.3761 18.18H73.9901C73.7981 18.18 73.6661 18.144 73.5941 18.072C73.5221 18 73.4861 17.868 73.4861 17.676V14.49C73.4861 14.31 73.5221 14.184 73.5941 14.112C73.6661 14.028 73.7981 13.986 73.9901 13.986H81.8561V12.834H73.4861V11.25H83.5121C83.8481 11.25 84.0161 11.418 84.0161 11.754V14.904C84.0161 15.096 83.9741 15.228 83.8901 15.3C83.8181 15.372 83.6921 15.408 83.5121 15.408H75.6641V16.596H84.3761V18.18ZM104.664 10.512H102.612V2.17798H104.664V5.03998H106.716V6.76798H104.664V10.512ZM105.006 18.18H94.6201C94.4281 18.18 94.2961 18.144 94.2241 18.072C94.1521 18 94.1161 17.868 94.1161 17.676V14.454C94.1161 14.274 94.1521 14.148 94.2241 14.076C94.2961 13.992 94.4281 13.95 94.6201 13.95H102.486V12.744H94.1161V11.16H104.142C104.478 11.16 104.646 11.328 104.646 11.664V14.868C104.646 15.06 104.604 15.192 104.52 15.264C104.448 15.336 104.322 15.372 104.142 15.372H96.2941V16.596H105.006V18.18ZM100.11 7.79398C99.9061 8.27398 99.6181 8.68198 99.2461 9.01798C98.8741 9.36598 98.4301 9.63598 97.9141 9.82798C97.3981 10.02 96.8341 10.116 96.2221 10.116C95.6101 10.116 95.0401 10.02 94.5121 9.82798C93.9961 9.63598 93.5521 9.36598 93.1801 9.01798C92.8081 8.66998 92.5141 8.26198 92.2981 7.79398C92.0941 7.31398 91.9921 6.78598 91.9921 6.20998C91.9921 5.66998 92.0941 5.16598 92.2981 4.69798C92.5141 4.21798 92.8081 3.80398 93.1801 3.45598C93.5521 3.10798 93.9961 2.83198 94.5121 2.62798C95.0401 2.42398 95.6101 2.32198 96.2221 2.32198C96.8341 2.32198 97.3981 2.42398 97.9141 2.62798C98.4301 2.83198 98.8741 3.10798 99.2461 3.45598C99.6181 3.80398 99.9061 4.21798 100.11 4.69798C100.314 5.16598 100.416 5.66998 100.416 6.20998C100.416 6.72598 100.314 7.25398 100.11 7.79398ZM96.2221 8.38798C96.8701 8.38798 97.3921 8.17798 97.7881 7.75798C98.1841 7.33798 98.3821 6.82198 98.3821 6.20998C98.3821 5.59798 98.1841 5.08798 97.7881 4.67998C97.3921 4.27198 96.8701 4.06798 96.2221 4.06798C95.5381 4.06798 94.9981 4.27198 94.6021 4.67998C94.2181 5.08798 94.0261 5.59798 94.0261 6.20998C94.0261 6.82198 94.2181 7.33798 94.6021 7.75798C94.9981 8.17798 95.5381 8.38798 96.2221 8.38798ZM112.909 12.798C113.197 12.546 113.419 12.24 113.575 11.88C113.755 11.484 113.887 11.022 113.971 10.494C114.067 9.95398 114.115 9.37198 114.115 8.74798C114.115 8.13598 114.067 7.56598 113.971 7.03798C113.887 6.49798 113.755 6.03598 113.575 5.65198C113.407 5.26798 113.185 4.96798 112.909 4.75198C112.645 4.52398 112.333 4.40998 111.973 4.40998C111.601 4.40998 111.277 4.52398 111.001 4.75198C110.737 4.96798 110.521 5.26798 110.353 5.65198C110.173 6.03598 110.041 6.49798 109.957 7.03798C109.873 7.56598 109.831 8.13598 109.831 8.74798C109.831 9.37198 109.873 9.95398 109.957 10.494C110.041 11.022 110.173 11.484 110.353 11.88C110.521 12.264 110.737 12.57 111.001 12.798C111.277 13.014 111.601 13.122 111.973 13.122C112.321 13.122 112.633 13.014 112.909 12.798ZM114.979 4.08598C115.759 5.08198 116.149 6.64198 116.149 8.76598C116.137 10.89 115.741 12.45 114.961 13.446C114.181 14.442 113.185 14.94 111.973 14.94C110.749 14.94 109.747 14.442 108.967 13.446C108.187 12.45 107.797 10.89 107.797 8.76598C107.797 6.64198 108.187 5.08198 108.967 4.08598C109.747 3.08998 110.749 2.59198 111.973 2.59198C113.197 2.59198 114.199 3.08998 114.979 4.08598ZM120.235 18.288H118.201V2.17798H120.235V7.64998H122.431V9.50398H120.235V18.288ZM135.951 9.73798C135.447 9.61798 134.925 9.46198 134.385 9.26998C133.857 9.07798 133.341 8.84398 132.837 8.56798C132.333 8.30398 131.865 7.99798 131.433 7.64998C131.013 7.28998 130.659 6.89398 130.371 6.46198C129.867 7.21798 129.153 7.87198 128.229 8.42398C127.317 8.97598 126.189 9.41398 124.845 9.73798L123.459 8.26198C124.179 8.10598 124.857 7.91398 125.493 7.68598C126.141 7.45798 126.717 7.18798 127.221 6.87598C127.737 6.55198 128.163 6.18598 128.499 5.77798C128.847 5.36998 129.081 4.90798 129.201 4.39198H124.611V2.68198H136.113V4.39198H131.523C131.631 4.89598 131.853 5.35798 132.189 5.77798C132.537 6.18598 132.969 6.55198 133.485 6.87598C133.989 7.19998 134.559 7.48198 135.195 7.72198C135.843 7.96198 136.515 8.15398 137.211 8.29798L135.951 9.73798ZM137.805 12.87H131.469V18.288H129.399V12.87H122.955V11.16H137.805V12.87ZM151.882 7.95598H140.992C140.8 7.95598 140.668 7.91998 140.596 7.84798C140.536 7.77598 140.506 7.64398 140.506 7.45198V2.21398H142.576V6.24598H151.882V7.95598ZM153.502 11.628H138.652V9.89998H153.502V11.628ZM152.188 17.982H140.992C140.8 17.982 140.668 17.946 140.596 17.874C140.536 17.802 140.506 17.67 140.506 17.478V12.888H142.558V16.254H152.188V17.982ZM170.442 14.004C170.166 14.052 169.812 14.106 169.38 14.166C168.96 14.214 168.498 14.262 167.994 14.31C167.49 14.358 166.968 14.406 166.428 14.454C165.888 14.49 165.366 14.508 164.862 14.508C164.718 14.508 164.454 14.514 164.07 14.526C163.698 14.526 163.314 14.526 162.918 14.526H161.334C161.142 14.526 161.01 14.49 160.938 14.418C160.866 14.346 160.83 14.214 160.83 14.022V8.33398C160.83 8.15398 160.866 8.02798 160.938 7.95598C161.01 7.87198 161.142 7.82998 161.334 7.82998H166.338V4.67998H160.83V2.95198H167.832C168.168 2.95198 168.336 3.11998 168.336 3.45598V9.01798C168.336 9.20998 168.294 9.34198 168.21 9.41398C168.138 9.48598 168.012 9.52198 167.832 9.52198H162.882V12.798L165.348 12.78C165.744 12.78 166.176 12.762 166.644 12.726C167.124 12.69 167.598 12.648 168.066 12.6C168.534 12.552 168.972 12.504 169.38 12.456C169.8 12.396 170.154 12.336 170.442 12.276V14.004ZM173.106 18.27H171.054V2.17798H173.106V18.27ZM188.245 11.772C187.669 11.592 187.093 11.346 186.517 11.034C185.941 10.71 185.401 10.35 184.897 9.95398C184.393 9.55798 183.943 9.13798 183.547 8.69398C183.163 8.24998 182.869 7.81198 182.665 7.37998C182.161 8.35198 181.453 9.21598 180.541 9.97198C179.629 10.716 178.501 11.322 177.157 11.79L175.735 10.26C176.563 10.02 177.331 9.70198 178.039 9.30598C178.759 8.89798 179.377 8.43598 179.893 7.91998C180.433 7.37998 180.847 6.80398 181.135 6.19198C181.435 5.56798 181.585 4.90798 181.585 4.21198V2.71798H183.781V4.21198C183.769 4.90798 183.925 5.57998 184.249 6.22798C184.585 6.86398 185.023 7.45198 185.563 7.99198C186.103 8.53198 186.721 9.00598 187.417 9.41398C188.113 9.80998 188.827 10.104 189.559 10.296L188.245 11.772ZM190.135 16.308H175.249V14.58H190.135V16.308ZM201.17 13.716C200.918 13.776 200.6 13.842 200.216 13.914C199.832 13.986 199.412 14.052 198.956 14.112C198.5 14.172 198.02 14.226 197.516 14.274C197.024 14.31 196.526 14.328 196.022 14.328L192.764 14.346C192.572 14.346 192.44 14.31 192.368 14.238C192.308 14.166 192.278 14.034 192.278 13.842V2.84398H194.312V12.6L196.058 12.582C196.43 12.582 196.844 12.564 197.3 12.528C197.756 12.492 198.212 12.444 198.668 12.384C199.136 12.336 199.58 12.276 200 12.204C200.432 12.132 200.822 12.06 201.17 11.988V13.716ZM204.464 18.288H202.412V8.36998H198.164V6.62398H202.412V2.17798H204.464V18.288ZM219.874 8.54998H209.02C208.828 8.54998 208.696 8.51398 208.624 8.44198C208.552 8.36998 208.516 8.23798 208.516 8.04598V5.34598C208.516 5.16598 208.552 5.03998 208.624 4.96798C208.696 4.88398 208.828 4.84198 209.02 4.84198H217.39V3.86998H208.516V2.46598H219.082C219.418 2.46598 219.586 2.63398 219.586 2.96998V5.66998C219.586 5.86198 219.544 5.99398 219.46 6.06598C219.388 6.13798 219.262 6.17398 219.082 6.17398H210.712V7.14598H219.874V8.54998ZM221.512 10.98H206.662V9.52198H221.512V10.98ZM220.018 18.18H209.038C208.846 18.18 208.714 18.144 208.642 18.072C208.57 18 208.534 17.868 208.534 17.676V14.94C208.534 14.76 208.57 14.634 208.642 14.562C208.714 14.478 208.846 14.436 209.038 14.436H217.444V13.428H208.534V12.024H219.118C219.454 12.024 219.622 12.192 219.622 12.528V15.246C219.622 15.438 219.58 15.57 219.496 15.642C219.424 15.714 219.298 15.75 219.118 15.75H210.73V16.776H220.018V18.18ZM237.354 10.692C236.922 10.368 236.538 10.026 236.202 9.66598C235.866 9.29398 235.566 8.86798 235.302 8.38798C235.086 8.84398 234.792 9.28198 234.42 9.70198C234.048 10.122 233.646 10.5 233.214 10.836C232.794 10.524 232.398 10.17 232.026 9.77398C231.666 9.36598 231.342 8.90398 231.054 8.38798C230.802 8.89198 230.484 9.35998 230.1 9.79198C229.728 10.212 229.338 10.59 228.93 10.926L227.31 9.70198C228.174 9.14998 228.846 8.51998 229.326 7.81198C229.818 7.10398 230.064 6.29998 230.064 5.39998V4.55398H228.39V2.86198H233.07V4.55398H232.008V5.39998C232.008 6.08398 232.134 6.68998 232.386 7.21798C232.638 7.74598 232.908 8.16598 233.196 8.47798C233.52 8.14198 233.79 7.69798 234.006 7.14598C234.234 6.58198 234.348 5.99398 234.348 5.38198V4.55398H233.304V2.86198H238.002V4.55398H236.328V5.34598C236.328 6.24598 236.538 7.04398 236.958 7.73998C237.39 8.43598 237.948 8.96398 238.632 9.32398L237.354 10.692ZM241.62 11.502H239.604V2.17798H241.62V11.502ZM239.586 16.434V13.842H232.728V16.434H239.586ZM241.62 17.586C241.62 17.778 241.578 17.91 241.494 17.982C241.422 18.054 241.296 18.09 241.116 18.09H231.216C231.024 18.09 230.892 18.054 230.82 17.982C230.748 17.91 230.712 17.778 230.712 17.586V12.654C230.712 12.474 230.748 12.348 230.82 12.276C230.892 12.192 231.024 12.15 231.216 12.15H241.116C241.452 12.15 241.62 12.318 241.62 12.654V17.586ZM256.724 6.87598H248.876V5.16598H256.724V6.87598ZM255.05 4.17598H250.496V2.53798H255.05V4.17598ZM252.8 15.156C251.72 15.156 250.844 14.82 250.172 14.148C249.524 13.464 249.2 12.57 249.2 11.466C249.2 10.35 249.536 9.45598 250.208 8.78398C250.88 8.11198 251.744 7.77598 252.8 7.77598C253.844 7.77598 254.702 8.11198 255.374 8.78398C256.058 9.45598 256.4 10.35 256.4 11.466C256.4 12.594 256.07 13.488 255.41 14.148C254.738 14.82 253.868 15.156 252.8 15.156ZM252.8 13.518C253.28 13.518 253.67 13.326 253.97 12.942C254.282 12.546 254.438 12.054 254.438 11.466C254.438 10.89 254.282 10.404 253.97 10.008C253.67 9.61198 253.28 9.41398 252.8 9.41398C252.296 9.41398 251.894 9.61198 251.594 10.008C251.306 10.404 251.162 10.89 251.162 11.466C251.162 12.054 251.306 12.546 251.594 12.942C251.894 13.326 252.296 13.518 252.8 13.518ZM262.754 18.288H260.792V10.314H259.388V17.532H257.426V2.44798H259.388V8.31598H260.792V2.17798H262.754V18.288ZM275.121 9.80998V6.98398H268.119V9.80998H275.121ZM279.063 16.506H264.177V14.778H270.549V11.538H266.553C266.361 11.538 266.229 11.502 266.157 11.43C266.097 11.358 266.067 11.226 266.067 11.034V2.64598H268.119V5.27398H275.121V2.64598H277.155V11.034C277.155 11.226 277.113 11.358 277.029 11.43C276.957 11.502 276.831 11.538 276.651 11.538H272.655V14.778H279.063V16.506ZM286.66 14.796C286.048 14.292 285.502 13.71 285.022 13.05C284.554 12.378 284.206 11.7 283.978 11.016C283.894 11.364 283.756 11.73 283.564 12.114C283.384 12.486 283.162 12.852 282.898 13.212C282.634 13.584 282.346 13.944 282.034 14.292C281.722 14.628 281.404 14.934 281.08 15.21L279.352 13.986C280.012 13.518 280.57 12.996 281.026 12.42C281.482 11.844 281.848 11.22 282.124 10.548C282.412 9.87598 282.616 9.16198 282.736 8.40598C282.868 7.63798 282.934 6.83998 282.934 6.01198V2.80798H285.076V6.13798C285.064 7.84198 285.304 9.29998 285.796 10.512C286.288 11.712 287.098 12.714 288.226 13.518L286.66 14.796ZM293.986 18.288H292.024V2.17798H293.986V18.288ZM290.836 17.532H288.856V8.72998H286.354V6.83998H288.856V2.44798H290.836V17.532ZM305.471 2.84398C306.203 3.08398 306.803 3.40198 307.271 3.79798C307.775 4.19398 308.153 4.66798 308.405 5.21998C308.657 5.75998 308.783 6.34198 308.783 6.96598C308.783 8.27398 308.279 9.32998 307.271 10.134C306.767 10.53 306.161 10.842 305.453 11.07C304.745 11.286 303.935 11.394 303.023 11.394C302.087 11.394 301.265 11.286 300.557 11.07C299.861 10.842 299.261 10.53 298.757 10.134C297.749 9.34198 297.245 8.28598 297.245 6.96598C297.245 6.34198 297.365 5.75998 297.605 5.21998C297.857 4.66798 298.235 4.19398 298.739 3.79798C299.243 3.38998 299.849 3.07198 300.557 2.84398C301.265 2.61598 302.087 2.50198 303.023 2.50198C303.983 2.50198 304.799 2.61598 305.471 2.84398ZM305.597 8.98198C306.281 8.50198 306.623 7.82998 306.623 6.96598C306.623 6.11398 306.281 5.44198 305.597 4.94998C304.889 4.45798 304.031 4.21198 303.023 4.21198C302.495 4.21198 302.009 4.27798 301.565 4.40998C301.133 4.52998 300.755 4.70998 300.431 4.94998C300.119 5.17798 299.873 5.46598 299.693 5.81398C299.513 6.14998 299.423 6.53398 299.423 6.96598C299.423 7.39798 299.513 7.78198 299.693 8.11798C299.873 8.45398 300.119 8.74198 300.431 8.98198C300.755 9.20998 301.133 9.38398 301.565 9.50398C302.009 9.62398 302.495 9.68398 303.023 9.68398C304.055 9.68398 304.913 9.44998 305.597 8.98198ZM310.439 16.506H295.571V14.778H299.009V11.574H301.079V14.778H305.003V11.574H307.037V14.778H310.439V16.506ZM314.419 13.86H312.565L312.295 2.37598H314.671L314.419 13.86ZM314.707 17.136H312.277V14.85H314.707V17.136Z" fill="#595062"/>
<path d="M51.426 50.734V43.916H48.696V50.734H51.426ZM52.266 51.224C52.266 51.336 52.2474 51.4106 52.21 51.448C52.1727 51.476 52.1074 51.49 52.014 51.49H48.122C48.01 51.49 47.9354 51.476 47.898 51.448C47.87 51.4106 47.856 51.336 47.856 51.224V43.44C47.856 43.3373 47.87 43.2673 47.898 43.23C47.9354 43.1926 48.01 43.174 48.122 43.174H52.014C52.1074 43.174 52.1727 43.1926 52.21 43.23C52.2474 43.2673 52.266 43.3373 52.266 43.44V51.224ZM57.334 54.724H56.438V47.514H54.618V54.136H53.722V42.502H54.618V46.702H56.438V42.292H57.334V54.724ZM65.091 43.034H61.507V42.292H65.091V43.034ZM66.589 49.194C65.7957 48.886 65.119 48.494 64.559 48.018C64.0084 47.5326 63.579 47.01 63.271 46.45C62.9537 47.15 62.5197 47.7893 61.969 48.368C61.4277 48.9466 60.7744 49.404 60.009 49.74L59.295 49.124C59.8457 48.9186 60.3264 48.6666 60.737 48.368C61.1477 48.0693 61.4977 47.738 61.787 47.374C62.0764 47.01 62.3004 46.6226 62.459 46.212C62.627 45.792 62.739 45.358 62.795 44.91H60.093V44.182H66.491V44.91H63.705C63.7517 45.666 64.055 46.366 64.615 47.01C65.1937 47.6726 66.043 48.1953 67.163 48.578L66.589 49.194ZM69.627 50.006H68.731V42.278H69.627V50.006ZM63.873 54.752C63.3597 54.6306 62.921 54.4626 62.557 54.248C62.2024 54.024 61.9317 53.7626 61.745 53.464C61.5677 53.1746 61.479 52.862 61.479 52.526C61.479 52.1993 61.5677 51.8913 61.745 51.602C61.9317 51.3033 62.2024 51.0466 62.557 50.832C62.921 50.608 63.3597 50.4306 63.873 50.3C64.3957 50.1693 64.993 50.104 65.665 50.104C66.337 50.104 66.9344 50.1693 67.457 50.3C67.9797 50.4306 68.4184 50.608 68.773 50.832C69.1277 51.0466 69.3937 51.3033 69.571 51.602C69.7577 51.8913 69.851 52.1993 69.851 52.526C69.851 53.198 69.4917 53.7673 68.773 54.234C68.0544 54.71 67.0184 54.948 65.665 54.948C65.3384 54.948 65.0257 54.9293 64.727 54.892C64.4284 54.864 64.1437 54.8173 63.873 54.752ZM68.899 52.54C68.899 52.0266 68.5957 51.616 67.989 51.308C67.3917 50.9906 66.617 50.832 65.665 50.832C65.189 50.832 64.755 50.874 64.363 50.958C63.971 51.042 63.635 51.1586 63.355 51.308C63.0657 51.4573 62.837 51.6393 62.669 51.854C62.5104 52.0593 62.431 52.288 62.431 52.54C62.431 52.792 62.5104 53.0206 62.669 53.226C62.837 53.4313 63.0657 53.6086 63.355 53.758C63.6444 53.9073 63.9804 54.0193 64.363 54.094C64.755 54.178 65.189 54.22 65.665 54.22C66.141 54.22 66.575 54.178 66.967 54.094C67.359 54.0193 67.695 53.9073 67.975 53.758C68.2644 53.6086 68.4884 53.4313 68.647 53.226C68.815 53.0206 68.899 52.792 68.899 52.54ZM80.548 49.334C80.3333 49.3713 80.0113 49.4133 79.582 49.46C79.1527 49.4973 78.6673 49.5393 78.126 49.586C77.5847 49.6233 77.0107 49.656 76.404 49.684C75.7973 49.712 75.2 49.726 74.612 49.726H71.784V48.97H75.564V46.898H73.156C73.0533 46.898 72.9833 46.8793 72.946 46.842C72.9087 46.7953 72.89 46.7253 72.89 46.632V43.09C72.89 43.006 72.9087 42.9406 72.946 42.894C72.9833 42.8473 73.0533 42.824 73.156 42.824H79.246V43.538H73.758V46.184H79.442V46.898H76.446V48.928C76.6607 48.928 76.9453 48.9186 77.3 48.9C77.664 48.8813 78.0467 48.858 78.448 48.83C78.8493 48.802 79.2367 48.7693 79.61 48.732C79.9833 48.6853 80.296 48.6386 80.548 48.592V49.334ZM81.808 51.882H80.912V42.292H81.808V51.882ZM82.032 54.458H74.108C74.0053 54.458 73.9353 54.4393 73.898 54.402C73.8607 54.3646 73.842 54.2946 73.842 54.192V50.93H74.766V53.702H82.032V54.458ZM96.3975 51.14C96.2109 51.1773 95.9635 51.2193 95.6555 51.266C95.3569 51.3126 95.0115 51.3593 94.6195 51.406C94.2462 51.4526 93.8495 51.4946 93.4295 51.532C93.0189 51.5693 92.6175 51.5926 92.2255 51.602C91.8335 51.6206 91.4509 51.6346 91.0775 51.644C90.7042 51.644 90.3682 51.644 90.0695 51.644H88.9915C88.8889 51.644 88.8189 51.6253 88.7815 51.588C88.7442 51.5413 88.7255 51.4713 88.7255 51.378V47.136C88.7255 47.052 88.7442 46.9866 88.7815 46.94C88.8189 46.8933 88.8889 46.87 88.9915 46.87H93.3875V43.706H88.7255V42.95H93.9755C94.1529 42.95 94.2415 43.0386 94.2415 43.216V47.346C94.2415 47.5233 94.1529 47.612 93.9755 47.612H89.6075V50.846L91.9455 50.818C92.3655 50.818 92.7949 50.7993 93.2335 50.762C93.6815 50.7246 94.1155 50.6826 94.5355 50.636C94.9369 50.58 95.3009 50.5286 95.6275 50.482C95.9635 50.4353 96.2202 50.3933 96.3975 50.356V51.14ZM97.8395 54.724H96.9435V42.292H97.8395V54.724ZM109.965 49.558C109.479 49.3713 109.003 49.1426 108.537 48.872C108.079 48.6013 107.655 48.2933 107.263 47.948C106.861 47.612 106.507 47.2433 106.199 46.842C105.891 46.4406 105.653 46.002 105.485 45.526C105.317 45.9553 105.083 46.3706 104.785 46.772C104.495 47.164 104.155 47.5326 103.763 47.878C103.371 48.2326 102.937 48.5546 102.461 48.844C101.994 49.124 101.504 49.3666 100.991 49.572L100.235 48.844C100.823 48.6666 101.401 48.4146 101.971 48.088C102.549 47.752 103.063 47.36 103.511 46.912C103.959 46.464 104.318 45.9786 104.589 45.456C104.869 44.924 105.009 44.378 105.009 43.818V42.852H105.919V43.818C105.919 44.406 106.063 44.966 106.353 45.498C106.642 46.0206 107.015 46.506 107.473 46.954C107.93 47.402 108.439 47.7893 108.999 48.116C109.568 48.4426 110.123 48.6853 110.665 48.844L109.965 49.558ZM111.197 52.89H99.7445V52.134H111.197V52.89ZM120.228 50.888C120.022 50.9346 119.766 50.986 119.458 51.042C119.15 51.0886 118.818 51.1353 118.464 51.182C118.1 51.2286 117.726 51.2753 117.344 51.322C116.97 51.3593 116.616 51.3826 116.28 51.392C115.86 51.4106 115.477 51.4246 115.132 51.434C114.786 51.434 114.488 51.434 114.236 51.434C113.984 51.4433 113.783 51.448 113.634 51.448C113.494 51.4386 113.419 51.434 113.41 51.434C113.307 51.434 113.237 51.4153 113.2 51.378C113.162 51.3313 113.144 51.2613 113.144 51.168V42.852H114.054V50.608L116.322 50.58C116.62 50.5706 116.952 50.5473 117.316 50.51C117.68 50.4726 118.039 50.426 118.394 50.37C118.758 50.3233 119.098 50.272 119.416 50.216C119.742 50.16 120.013 50.1086 120.228 50.062V50.888ZM122.188 54.724H121.292V46.87H117.694V46.114H121.292V42.292H122.188V54.724ZM132.731 51.616C132.516 51.6533 132.241 51.6906 131.905 51.728C131.578 51.7653 131.205 51.798 130.785 51.826C130.365 51.8633 129.926 51.8913 129.469 51.91C129.021 51.9286 128.573 51.938 128.125 51.938L124.317 51.966V51.21H127.831V48.592C127.401 48.5546 127.009 48.452 126.655 48.284C126.309 48.116 126.011 47.9013 125.759 47.64C125.516 47.3786 125.325 47.0753 125.185 46.73C125.054 46.3846 124.989 46.016 124.989 45.624C124.989 45.1946 125.063 44.798 125.213 44.434C125.371 44.0606 125.595 43.7433 125.885 43.482C126.165 43.2113 126.501 43.0013 126.893 42.852C127.294 42.7026 127.737 42.628 128.223 42.628C128.699 42.628 129.133 42.7026 129.525 42.852C129.917 43.0013 130.253 43.2113 130.533 43.482C130.822 43.7433 131.046 44.0606 131.204 44.434C131.363 44.798 131.443 45.1946 131.443 45.624C131.443 46.436 131.186 47.1126 130.673 47.654C130.15 48.186 129.487 48.494 128.685 48.578V51.154H129.119C129.38 51.154 129.674 51.1493 130.001 51.14C130.337 51.1213 130.668 51.098 130.995 51.07C131.321 51.042 131.634 51.0093 131.933 50.972C132.241 50.9346 132.507 50.8926 132.731 50.846V51.616ZM128.209 47.85C128.946 47.85 129.515 47.6353 129.917 47.206C130.337 46.7766 130.547 46.2446 130.547 45.61C130.547 45.302 130.491 45.0126 130.379 44.742C130.276 44.4713 130.122 44.238 129.917 44.042C129.721 43.846 129.478 43.692 129.189 43.58C128.899 43.468 128.573 43.412 128.209 43.412C127.845 43.412 127.518 43.468 127.229 43.58C126.949 43.692 126.711 43.846 126.515 44.042C126.319 44.238 126.169 44.4713 126.067 44.742C125.964 45.0126 125.913 45.302 125.913 45.61C125.913 45.9366 125.964 46.2353 126.067 46.506C126.169 46.7766 126.319 47.0146 126.515 47.22C126.711 47.416 126.949 47.57 127.229 47.682C127.518 47.794 127.845 47.85 128.209 47.85ZM134.047 54.738H133.151V42.292H134.047V47.332H135.895V48.13H134.047V54.738ZM146.312 50.832C146.051 51.224 145.733 51.518 145.36 51.714C144.996 51.91 144.599 52.008 144.17 52.008C143.731 52.008 143.33 51.91 142.966 51.714C142.602 51.518 142.289 51.224 142.028 50.832C141.767 50.44 141.561 49.95 141.412 49.362C141.263 48.774 141.188 48.088 141.188 47.304C141.188 46.52 141.263 45.834 141.412 45.246C141.561 44.658 141.767 44.168 142.028 43.776C142.289 43.384 142.602 43.09 142.966 42.894C143.33 42.698 143.731 42.6 144.17 42.6C144.599 42.6 144.996 42.698 145.36 42.894C145.733 43.09 146.051 43.384 146.312 43.776C146.573 44.168 146.779 44.658 146.928 45.246C147.077 45.834 147.152 46.52 147.152 47.304C147.152 48.0973 147.077 48.788 146.928 49.376C146.779 49.9546 146.573 50.44 146.312 50.832ZM146.13 48.942C146.233 48.3446 146.284 47.7986 146.284 47.304C146.265 46.1186 146.069 45.1666 145.696 44.448C145.313 43.7293 144.805 43.37 144.17 43.37C143.526 43.37 143.013 43.7293 142.63 44.448C142.247 45.1666 142.056 46.1186 142.056 47.304C142.056 47.9106 142.103 48.4566 142.196 48.942C142.299 49.418 142.443 49.8286 142.63 50.174C142.817 50.5193 143.036 50.7853 143.288 50.972C143.549 51.1493 143.843 51.238 144.17 51.238C144.646 51.238 145.057 51.0373 145.402 50.636C145.747 50.2346 145.99 49.67 146.13 48.942ZM150.75 54.724H149.854V42.292H150.75V54.724ZM158.997 51.168C158.876 51.1866 158.708 51.21 158.493 51.238C158.288 51.266 158.054 51.2893 157.793 51.308C157.541 51.336 157.275 51.3593 156.995 51.378C156.724 51.3966 156.472 51.4106 156.239 51.42C155.931 51.4386 155.646 51.4526 155.385 51.462C155.133 51.462 154.909 51.462 154.713 51.462C154.517 51.4713 154.358 51.476 154.237 51.476C154.116 51.4666 154.05 51.462 154.041 51.462C153.938 51.462 153.868 51.4433 153.831 51.406C153.794 51.3593 153.775 51.2893 153.775 51.196V43.426C153.775 43.342 153.794 43.2766 153.831 43.23C153.868 43.1833 153.938 43.16 154.041 43.16H158.031V43.902H154.643V50.664L156.365 50.622C156.533 50.622 156.738 50.6126 156.981 50.594C157.233 50.5753 157.485 50.552 157.737 50.524C157.989 50.5053 158.227 50.482 158.451 50.454C158.675 50.426 158.857 50.398 158.997 50.37V51.168ZM163.127 54.724H162.231V47.808H160.411V54.136H159.515V42.502H160.411V46.996H162.231V42.292H163.127V54.724ZM176.302 53.044H164.85V52.288H170.128V49.768H166.712C166.609 49.768 166.539 49.7446 166.502 49.698C166.465 49.6513 166.446 49.5813 166.446 49.488V46.268C166.446 46.184 166.465 46.1233 166.502 46.086C166.539 46.0393 166.609 46.016 166.712 46.016H173.628V43.664H166.404V42.936H174.244C174.421 42.936 174.51 43.0246 174.51 43.202V46.478C174.51 46.6553 174.421 46.744 174.244 46.744H167.314V49.04H175.014V49.768H170.996V52.288H176.302V53.044ZM187.532 45.4H181.596V44.644H187.532V45.4ZM186.188 43.44H182.94V42.67H186.188V43.44ZM186.468 51.322C186.01 51.8353 185.38 52.092 184.578 52.092C184.167 52.092 183.803 52.0266 183.486 51.896C183.168 51.756 182.898 51.5646 182.674 51.322C182.45 51.0793 182.277 50.79 182.156 50.454C182.044 50.118 181.988 49.7446 181.988 49.334C181.988 48.9233 182.048 48.55 182.17 48.214C182.291 47.8686 182.464 47.5746 182.688 47.332C182.912 47.0893 183.182 46.9026 183.5 46.772C183.826 46.632 184.186 46.562 184.578 46.562C184.97 46.562 185.324 46.632 185.642 46.772C185.968 46.9026 186.244 47.0893 186.468 47.332C186.692 47.5746 186.864 47.8686 186.986 48.214C187.107 48.55 187.168 48.9233 187.168 49.334C187.168 50.1366 186.934 50.7993 186.468 51.322ZM184.578 51.35C185.11 51.35 185.53 51.1633 185.838 50.79C186.155 50.4073 186.314 49.922 186.314 49.334C186.314 49.0446 186.272 48.7786 186.188 48.536C186.113 48.284 186.001 48.0693 185.852 47.892C185.712 47.7053 185.534 47.5606 185.32 47.458C185.105 47.3553 184.858 47.304 184.578 47.304C184.298 47.304 184.05 47.3553 183.836 47.458C183.621 47.5606 183.439 47.7053 183.29 47.892C183.14 48.0693 183.028 48.284 182.954 48.536C182.879 48.7786 182.842 49.0446 182.842 49.334C182.842 49.922 182.991 50.4073 183.29 50.79C183.588 51.1633 184.018 51.35 184.578 51.35ZM191.956 54.724H191.074V42.292H191.956V54.724ZM189.674 54.136H188.806V48.242H187.294V47.43H188.806V42.502H189.674V54.136ZM203.647 54.724H202.751V47.542H199.965C199.927 49.054 199.643 50.1786 199.111 50.916C198.579 51.644 197.888 52.008 197.039 52.008C196.6 52.008 196.199 51.91 195.835 51.714C195.48 51.518 195.172 51.224 194.911 50.832C194.649 50.44 194.444 49.95 194.295 49.362C194.155 48.774 194.085 48.088 194.085 47.304C194.085 46.52 194.155 45.834 194.295 45.246C194.444 44.658 194.649 44.168 194.911 43.776C195.172 43.384 195.48 43.09 195.835 42.894C196.199 42.698 196.6 42.6 197.039 42.6C197.851 42.6 198.523 42.95 199.055 43.65C199.587 44.3406 199.885 45.386 199.951 46.786H202.751V42.292H203.647V54.724ZM198.257 50.636C198.583 50.2253 198.817 49.6606 198.957 48.942C199.05 48.5593 199.097 48.0133 199.097 47.304C199.078 46.1 198.891 45.148 198.537 44.448C198.182 43.7293 197.683 43.37 197.039 43.37C196.404 43.37 195.895 43.7293 195.513 44.448C195.139 45.1573 194.953 46.1093 194.953 47.304C194.953 47.9106 194.999 48.4566 195.093 48.942C195.195 49.418 195.335 49.8286 195.513 50.174C195.69 50.5193 195.905 50.7853 196.157 50.972C196.418 51.1493 196.712 51.238 197.039 51.238C197.533 51.238 197.939 51.0373 198.257 50.636ZM213.112 51.812C212.356 51.308 211.684 50.7013 211.096 49.992C210.508 49.2733 210.06 48.4753 209.752 47.598C209.472 48.5313 209.033 49.3853 208.436 50.16C207.848 50.9253 207.185 51.5926 206.448 52.162L205.608 51.546C206.83 50.79 207.75 49.8566 208.366 48.746C208.982 47.6353 209.29 46.3193 209.29 44.798V43.804H206.532V43.048H213.042V43.804H210.2V45.078C210.2 46.338 210.48 47.472 211.04 48.48C211.609 49.488 212.538 50.3746 213.826 51.14L213.112 51.812ZM216.164 54.724H215.268V42.292H216.164V54.724ZM218.222 51.42C219.818 50.5986 221.036 49.5626 221.876 48.312C222.716 47.0613 223.239 45.5586 223.444 43.804H219.006V43.048H224.116C224.294 43.048 224.382 43.1366 224.382 43.314C224.242 45.1526 223.738 46.7953 222.87 48.242C222.012 49.6886 220.738 50.9486 219.048 52.022L218.222 51.42ZM228.092 54.724H227.196V42.306H228.092V54.724ZM239.616 50.832C239.355 51.224 239.042 51.518 238.678 51.714C238.314 51.91 237.917 52.008 237.488 52.008C237.049 52.008 236.648 51.91 236.284 51.714C235.929 51.518 235.621 51.224 235.36 50.832C235.099 50.44 234.893 49.95 234.744 49.362C234.604 48.774 234.534 48.088 234.534 47.304C234.534 46.52 234.604 45.834 234.744 45.246C234.893 44.658 235.099 44.168 235.36 43.776C235.621 43.384 235.929 43.09 236.284 42.894C236.648 42.698 237.049 42.6 237.488 42.6C237.917 42.6 238.314 42.698 238.678 42.894C239.042 43.09 239.355 43.384 239.616 43.776C239.877 44.168 240.078 44.658 240.218 45.246C240.367 45.834 240.442 46.52 240.442 47.304C240.442 48.0973 240.367 48.788 240.218 49.376C240.078 49.9546 239.877 50.44 239.616 50.832ZM239.574 47.304C239.555 46.1 239.364 45.148 239 44.448C238.636 43.7293 238.132 43.37 237.488 43.37C236.853 43.37 236.345 43.7293 235.962 44.448C235.589 45.1573 235.402 46.1093 235.402 47.304C235.402 47.9106 235.449 48.4566 235.542 48.942C235.645 49.418 235.785 49.8286 235.962 50.174C236.139 50.5193 236.354 50.7853 236.606 50.972C236.867 51.1493 237.161 51.238 237.488 51.238C237.973 51.238 238.379 51.0373 238.706 50.636C239.042 50.2346 239.28 49.67 239.42 48.942C239.523 48.3446 239.574 47.7986 239.574 47.304ZM243.76 54.738H242.836V42.292H243.76V46.758H245.692V47.542H243.76V54.738ZM253.967 46.128C253.295 45.9413 252.698 45.694 252.175 45.386C251.652 45.0686 251.251 44.658 250.971 44.154C250.663 44.686 250.257 45.134 249.753 45.498C249.249 45.8526 248.614 46.1513 247.849 46.394L247.121 45.75C247.606 45.6286 248.054 45.4793 248.465 45.302C248.885 45.1153 249.244 44.896 249.543 44.644C249.851 44.392 250.089 44.1073 250.257 43.79C250.434 43.4726 250.523 43.118 250.523 42.726V42.446H251.419V42.754C251.419 43.454 251.694 44.028 252.245 44.476C252.796 44.924 253.566 45.2506 254.555 45.456L253.967 46.128ZM256.767 49.446H255.871V42.292H256.767V49.446ZM255.451 47.612C255.199 47.6493 254.882 47.6913 254.499 47.738C254.126 47.7753 253.729 47.808 253.309 47.836C252.889 47.8733 252.464 47.9013 252.035 47.92C251.606 47.9386 251.218 47.948 250.873 47.948V49.474H250.005V47.976H246.673V47.22H250.215C250.756 47.22 251.293 47.2106 251.825 47.192C252.357 47.164 252.861 47.1313 253.337 47.094C253.794 47.0566 254.205 47.0193 254.569 46.982C254.942 46.9353 255.236 46.8933 255.451 46.856V47.612ZM255.871 53.856V52.204H249.641V53.856H255.871ZM256.767 54.318C256.767 54.4206 256.744 54.4906 256.697 54.528C256.66 54.5653 256.594 54.584 256.501 54.584H249.011C248.908 54.584 248.838 54.5653 248.801 54.528C248.764 54.4906 248.745 54.4206 248.745 54.318V50.062H249.641V51.476H255.871V50.062H256.767V54.318ZM266.736 50.888C266.437 50.944 266.087 51.0046 265.686 51.07C265.294 51.1353 264.883 51.196 264.454 51.252C264.006 51.308 263.572 51.3546 263.152 51.392C262.732 51.42 262.349 51.434 262.004 51.434H259.638C259.535 51.434 259.465 51.4153 259.428 51.378C259.391 51.3313 259.372 51.2613 259.372 51.168V43.314C259.372 43.23 259.391 43.1646 259.428 43.118C259.465 43.0713 259.535 43.048 259.638 43.048H265V43.804H260.254V50.636L261.836 50.622C262.34 50.622 262.844 50.6033 263.348 50.566C263.861 50.5193 264.342 50.468 264.79 50.412C265.238 50.356 265.63 50.3 265.966 50.244C266.311 50.1786 266.568 50.1273 266.736 50.09V50.888ZM268.178 54.738H267.254V42.292H268.178V46.66H270.096V47.444H268.178V54.738ZM276.397 48.144V43.636H272.547V48.144H276.397ZM281.003 51.518H280.107V47.388H277.223V48.606C277.223 48.718 277.204 48.7926 277.167 48.83C277.13 48.858 277.064 48.872 276.971 48.872H271.973C271.861 48.872 271.786 48.858 271.749 48.83C271.721 48.7926 271.707 48.718 271.707 48.606V43.174C271.707 43.0713 271.721 43.0013 271.749 42.964C271.786 42.9266 271.861 42.908 271.973 42.908H276.971C277.064 42.908 277.13 42.9266 277.167 42.964C277.204 43.0013 277.223 43.0713 277.223 43.174V44.182H280.107V42.292H281.003V51.518ZM280.107 46.646V44.924H277.223V46.646H280.107ZM281.325 54.458H273.345C273.242 54.458 273.172 54.4393 273.135 54.402C273.098 54.3646 273.079 54.2946 273.079 54.192V50.454H273.975V53.702H281.325V54.458ZM86.1641 75.14C85.9775 75.1773 85.7301 75.2193 85.4221 75.266C85.1235 75.3126 84.7781 75.3593 84.3861 75.406C84.0128 75.4526 83.6161 75.4946 83.1961 75.532C82.7855 75.5693 82.3841 75.5926 81.9921 75.602C81.6001 75.6206 81.2175 75.6346 80.8441 75.644C80.4708 75.644 80.1348 75.644 79.8361 75.644H78.7581C78.6555 75.644 78.5855 75.6253 78.5481 75.588C78.5108 75.5413 78.4921 75.4713 78.4921 75.378V71.136C78.4921 71.052 78.5108 70.9866 78.5481 70.94C78.5855 70.8933 78.6555 70.87 78.7581 70.87H83.1541V67.706H78.4921V66.95H83.7421C83.9195 66.95 84.0081 67.0386 84.0081 67.216V71.346C84.0081 71.5233 83.9195 71.612 83.7421 71.612H79.3741V74.846L81.7121 74.818C82.1321 74.818 82.5615 74.7993 83.0001 74.762C83.4481 74.7246 83.8821 74.6826 84.3021 74.636C84.7035 74.58 85.0675 74.5286 85.3941 74.482C85.7301 74.4353 85.9868 74.3933 86.1641 74.356V75.14ZM87.6061 78.724H86.7101V66.292H87.6061V78.724ZM99.7311 73.558C99.2458 73.3713 98.7698 73.1426 98.3031 72.872C97.8458 72.6013 97.4211 72.2933 97.0291 71.948C96.6278 71.612 96.2731 71.2433 95.9651 70.842C95.6571 70.4406 95.4191 70.002 95.2511 69.526C95.0831 69.9553 94.8498 70.3706 94.5511 70.772C94.2618 71.164 93.9211 71.5326 93.5291 71.878C93.1371 72.2326 92.7031 72.5546 92.2271 72.844C91.7605 73.124 91.2705 73.3666 90.7571 73.572L90.0011 72.844C90.5891 72.6666 91.1678 72.4146 91.7371 72.088C92.3158 71.752 92.8291 71.36 93.2771 70.912C93.7251 70.464 94.0845 69.9786 94.3551 69.456C94.6351 68.924 94.7751 68.378 94.7751 67.818V66.852H95.6851V67.818C95.6851 68.406 95.8298 68.966 96.1191 69.498C96.4085 70.0206 96.7818 70.506 97.2391 70.954C97.6965 71.402 98.2051 71.7893 98.7651 72.116C99.3345 72.4426 99.8898 72.6853 100.431 72.844L99.7311 73.558ZM100.963 76.89H89.5111V76.134H100.963V76.89ZM109.994 74.888C109.789 74.9346 109.532 74.986 109.224 75.042C108.916 75.0886 108.585 75.1353 108.23 75.182C107.866 75.2286 107.493 75.2753 107.11 75.322C106.737 75.3593 106.382 75.3826 106.046 75.392C105.626 75.4106 105.243 75.4246 104.898 75.434C104.553 75.434 104.254 75.434 104.002 75.434C103.75 75.4433 103.549 75.448 103.4 75.448C103.26 75.4386 103.185 75.434 103.176 75.434C103.073 75.434 103.003 75.4153 102.966 75.378C102.929 75.3313 102.91 75.2613 102.91 75.168V66.852H103.82V74.608L106.088 74.58C106.387 74.5706 106.718 74.5473 107.082 74.51C107.446 74.4726 107.805 74.426 108.16 74.37C108.524 74.3233 108.865 74.272 109.182 74.216C109.509 74.16 109.779 74.1086 109.994 74.062V74.888ZM111.954 78.724H111.058V70.87H107.46V70.114H111.058V66.292H111.954V78.724ZM125.774 72.62C125.41 72.3586 125.083 72.06 124.794 71.724C124.504 71.3786 124.262 70.954 124.066 70.45C123.832 70.954 123.571 71.3973 123.282 71.78C122.992 72.1626 122.67 72.508 122.316 72.816C121.924 72.4706 121.588 72.116 121.308 71.752C121.028 71.388 120.771 70.954 120.538 70.45C120.351 70.926 120.09 71.3833 119.754 71.822C119.418 72.2513 119.082 72.606 118.746 72.886L117.99 72.34C118.596 71.948 119.1 71.4253 119.502 70.772C119.912 70.1093 120.118 69.26 120.118 68.224V67.636H118.83V66.894H122.176V67.636H120.972V68.224C120.972 69.0546 121.088 69.75 121.322 70.31C121.555 70.8606 121.882 71.3506 122.302 71.78C122.75 71.3226 123.086 70.814 123.31 70.254C123.543 69.694 123.66 69.0173 123.66 68.224V67.636H122.442V66.894H125.83V67.636H124.5V68.224C124.5 69.2506 124.658 70.058 124.976 70.646C125.302 71.234 125.774 71.7053 126.39 72.06L125.774 72.62ZM128.602 73.46H127.734V66.292H128.602V73.46ZM127.706 77.842V74.846H121.532V77.842H127.706ZM128.588 78.318C128.588 78.4206 128.564 78.4906 128.518 78.528C128.48 78.5653 128.415 78.584 128.322 78.584H120.902C120.799 78.584 120.729 78.5653 120.692 78.528C120.654 78.4906 120.636 78.4206 120.636 78.318V74.37C120.636 74.2766 120.654 74.2113 120.692 74.174C120.729 74.1273 120.799 74.104 120.902 74.104H128.322C128.499 74.104 128.588 74.1926 128.588 74.37V78.318ZM136.009 67.328H132.397V66.572H136.009V67.328ZM137.731 69.33H130.661V68.574H137.731V69.33ZM134.217 75.63C134.851 75.63 135.355 75.4153 135.729 74.986C136.121 74.5566 136.317 74.0293 136.317 73.404C136.317 72.7973 136.125 72.2746 135.743 71.836C135.36 71.3973 134.851 71.178 134.217 71.178C133.573 71.178 133.059 71.3973 132.677 71.836C132.303 72.2653 132.117 72.788 132.117 73.404C132.117 74.0293 132.303 74.5566 132.677 74.986C133.05 75.4153 133.563 75.63 134.217 75.63ZM136.401 75.532C136.139 75.8026 135.822 76.0126 135.449 76.162C135.075 76.302 134.665 76.372 134.217 76.372C133.741 76.372 133.316 76.302 132.943 76.162C132.579 76.0126 132.271 75.8073 132.019 75.546C131.757 75.2753 131.557 74.9626 131.417 74.608C131.277 74.2533 131.207 73.852 131.207 73.404C131.207 72.536 131.482 71.8266 132.033 71.276C132.294 71.0146 132.607 70.8093 132.971 70.66C133.344 70.5106 133.759 70.436 134.217 70.436C134.665 70.436 135.075 70.5106 135.449 70.66C135.822 70.8093 136.139 71.0146 136.401 71.276C136.662 71.5466 136.863 71.864 137.003 72.228C137.152 72.5826 137.227 72.9746 137.227 73.404C137.227 73.8333 137.152 74.23 137.003 74.594C136.863 74.958 136.662 75.2706 136.401 75.532ZM140.167 78.738H139.243V66.292H140.167V71.43H142.085V72.214H140.167V78.738ZM142.884 75.42C144.48 74.5986 145.698 73.5626 146.538 72.312C147.378 71.0613 147.9 69.5586 148.106 67.804H143.668V67.048H148.778C148.955 67.048 149.044 67.1366 149.044 67.314C148.904 69.1526 148.4 70.7953 147.532 72.242C146.673 73.6886 145.399 74.9486 143.71 76.022L142.884 75.42ZM152.754 78.724H151.858V66.306H152.754V78.724ZM164.669 71.024H156.493C156.39 71.024 156.32 71.0053 156.283 70.968C156.245 70.9213 156.227 70.8513 156.227 70.758V68.714C156.227 68.63 156.245 68.5646 156.283 68.518C156.32 68.4713 156.39 68.448 156.493 68.448H163.465V67.286H156.227V66.586H164.095C164.272 66.586 164.361 66.6746 164.361 66.852V68.882C164.361 69.0593 164.272 69.148 164.095 69.148H157.095V70.324H164.669V71.024ZM166.041 72.816H154.645V72.102H166.041V72.816ZM164.753 78.57H156.493C156.39 78.57 156.32 78.5513 156.283 78.514C156.245 78.4766 156.227 78.4066 156.227 78.304V76.19C156.227 76.0966 156.245 76.0313 156.283 75.994C156.32 75.9473 156.39 75.924 156.493 75.924H163.563V74.692H156.227V73.992H164.207C164.384 73.992 164.473 74.0806 164.473 74.258V76.358C164.473 76.4606 164.449 76.5306 164.403 76.568C164.365 76.6053 164.3 76.624 164.207 76.624H157.123V77.87H164.753V78.57ZM180.742 78.808H179.846V75.252H172.328V74.51H176.15V72.004H170.914V71.262H174.722C174.769 71.0006 174.815 70.7066 174.862 70.38C174.909 70.044 174.955 69.6986 175.002 69.344C175.039 68.9986 175.072 68.658 175.1 68.322C175.137 67.986 175.165 67.6873 175.184 67.426H172.188V66.684H175.758C175.935 66.684 176.024 66.7726 176.024 66.95L175.954 67.832C175.926 68.1773 175.893 68.546 175.856 68.938C175.819 69.3393 175.772 69.7453 175.716 70.156C175.669 70.5573 175.618 70.926 175.562 71.262H179.608C179.645 71.01 179.687 70.7206 179.734 70.394C179.79 70.058 179.841 69.7173 179.888 69.372C179.935 69.0173 179.972 68.672 180 68.336C180.037 68 180.061 67.6966 180.07 67.426H176.472V66.684H180.672C180.849 66.684 180.938 66.7726 180.938 66.95C180.919 67.2113 180.896 67.524 180.868 67.888C180.84 68.2426 180.803 68.616 180.756 69.008C180.719 69.4 180.672 69.7966 180.616 70.198C180.569 70.59 180.518 70.9446 180.462 71.262H182.31V72.004H177.032V74.51H180.476C180.653 74.51 180.742 74.5986 180.742 74.776V78.808ZM197.292 69.75H189.018C188.915 69.75 188.845 69.7313 188.808 69.694C188.77 69.6473 188.752 69.5773 188.752 69.484V66.292H189.62V69.022H197.292V69.75ZM197.292 78.57H189.032C188.929 78.57 188.859 78.5513 188.822 78.514C188.784 78.4766 188.766 78.4066 188.766 78.304V75.84C188.766 75.7466 188.784 75.6813 188.822 75.644C188.859 75.5973 188.929 75.574 189.032 75.574H196.102V74.076H188.766V73.362H192.42V71.808H187.184V71.08H198.58V71.808H193.302V73.362H196.746C196.923 73.362 197.012 73.4506 197.012 73.628V76.008C197.012 76.1106 196.988 76.1806 196.942 76.218C196.904 76.2553 196.839 76.274 196.746 76.274H189.662V77.87H197.292V78.57ZM207.751 75.14C207.564 75.1773 207.317 75.2193 207.009 75.266C206.71 75.3126 206.365 75.3593 205.973 75.406C205.599 75.4526 205.203 75.4946 204.783 75.532C204.372 75.5693 203.971 75.5926 203.579 75.602C203.196 75.6206 202.841 75.6346 202.515 75.644C202.197 75.644 201.917 75.644 201.675 75.644H200.821C200.718 75.644 200.648 75.6253 200.611 75.588C200.573 75.5413 200.555 75.4713 200.555 75.378V71.136C200.555 71.052 200.573 70.9866 200.611 70.94C200.648 70.8933 200.718 70.87 200.821 70.87H205.007V67.706H200.555V66.95H205.595C205.772 66.95 205.861 67.0386 205.861 67.216V71.346C205.861 71.5233 205.772 71.612 205.595 71.612H201.437V74.846L203.299 74.818C203.719 74.818 204.148 74.7993 204.587 74.762C205.035 74.7246 205.469 74.6826 205.889 74.636C206.29 74.58 206.654 74.5286 206.981 74.482C207.317 74.4353 207.573 74.3933 207.751 74.356V75.14ZM209.669 78.724H208.801V71.164H206.519V70.394H208.801V66.292H209.669V78.724ZM220.52 72.634V69.918H214.066V72.634H220.52ZM223.026 77.016H211.574V76.26H216.838V73.376H213.464C213.352 73.376 213.282 73.362 213.254 73.334C213.226 73.2966 213.212 73.222 213.212 73.11V66.908H214.066V69.204H220.52V66.908H221.402V73.11C221.402 73.222 221.383 73.2966 221.346 73.334C221.308 73.362 221.238 73.376 221.136 73.376H217.72V76.26H223.026V77.016ZM229.649 75.616C228.333 74.6826 227.483 73.4506 227.101 71.92C226.709 73.6093 225.78 75.0186 224.315 76.148L223.475 75.574C224.604 74.79 225.421 73.8333 225.925 72.704C226.438 71.5746 226.695 70.2073 226.695 68.602V66.894H227.591V68.924C227.591 70.464 227.824 71.724 228.291 72.704C228.757 73.684 229.448 74.44 230.363 74.972L229.649 75.616ZM234.479 78.724H233.611V66.292H234.479V78.724ZM232.057 78.136H231.175V71.052H228.907V70.24H231.175V66.502H232.057V78.136ZM245.75 71.318C245.647 71.5326 245.516 71.7286 245.358 71.906C245.208 72.074 245.04 72.2233 244.854 72.354C244.48 72.6433 244.028 72.8626 243.496 73.012C242.964 73.1613 242.376 73.236 241.732 73.236C241.078 73.236 240.486 73.1613 239.954 73.012C239.422 72.8626 238.969 72.6433 238.596 72.354C237.802 71.7846 237.406 70.968 237.406 69.904C237.406 69.3906 237.504 68.9286 237.7 68.518C237.905 68.098 238.204 67.748 238.596 67.468C238.969 67.1786 239.422 66.9593 239.954 66.81C240.486 66.6513 241.078 66.572 241.732 66.572C242.376 66.572 242.964 66.6513 243.496 66.81C244.028 66.9593 244.48 67.1786 244.854 67.468C245.246 67.748 245.544 68.098 245.75 68.518C245.955 68.9286 246.058 69.3906 246.058 69.904C246.058 70.4453 245.955 70.9166 245.75 71.318ZM241.732 72.522C242.749 72.522 243.561 72.2886 244.168 71.822C244.476 71.598 244.714 71.3273 244.882 71.01C245.05 70.6926 245.134 70.324 245.134 69.904C245.134 69.5026 245.05 69.1433 244.882 68.826C244.714 68.4993 244.476 68.2193 244.168 67.986C243.869 67.762 243.514 67.5893 243.104 67.468C242.693 67.3466 242.236 67.286 241.732 67.286C241.228 67.286 240.766 67.3466 240.346 67.468C239.935 67.5893 239.58 67.762 239.282 67.986C238.983 68.2193 238.75 68.4993 238.582 68.826C238.414 69.1433 238.33 69.5026 238.33 69.904C238.33 70.324 238.414 70.6926 238.582 71.01C238.75 71.3273 238.983 71.598 239.282 71.822C239.888 72.2886 240.705 72.522 241.732 72.522ZM247.43 77.016H236.006V76.26H238.834V73.558H239.716V76.26H243.762V73.558H244.63V76.26H247.43V77.016ZM250.259 75.042H249.489L249.279 66.544H250.455L250.259 75.042ZM250.441 77.576H249.307V76.4H250.441V77.576ZM22.502 99.546H21.606V94.072H19.058C18.9833 94.94 18.6613 95.6446 18.092 96.186C17.5227 96.7273 16.79 96.998 15.894 96.998C15.4087 96.998 14.97 96.9186 14.578 96.76C14.186 96.592 13.85 96.3633 13.57 96.074C13.29 95.7846 13.0753 95.444 12.926 95.052C12.7767 94.66 12.702 94.226 12.702 93.75C12.702 93.274 12.7767 92.84 12.926 92.448C13.0753 92.0466 13.29 91.7013 13.57 91.412C13.85 91.1226 14.186 90.8986 14.578 90.74C14.97 90.572 15.4087 90.488 15.894 90.488C16.7527 90.488 17.4713 90.754 18.05 91.286C18.61 91.79 18.9413 92.4666 19.044 93.316H21.606V90.292H22.502V99.546ZM15.894 96.2C16.622 96.2 17.182 95.9666 17.574 95.5C17.966 95.024 18.162 94.4406 18.162 93.75C18.162 93.0593 17.966 92.476 17.574 92C17.182 91.5146 16.622 91.272 15.894 91.272C15.166 91.272 14.606 91.5146 14.214 92C13.822 92.476 13.626 93.0593 13.626 93.75C13.626 94.4406 13.822 95.024 14.214 95.5C14.606 95.9666 15.166 96.2 15.894 96.2ZM22.894 102.458H14.844C14.7413 102.458 14.6713 102.439 14.634 102.402C14.5967 102.365 14.578 102.295 14.578 102.192V98.398H15.474V101.702H22.894V102.458ZM30.413 99.798C29.769 99.35 29.2416 98.8273 28.831 98.23C28.4296 97.6233 28.117 96.9233 27.893 96.13C27.697 96.9513 27.3563 97.7213 26.871 98.44C26.3856 99.1586 25.807 99.784 25.135 100.316L24.253 99.77C24.813 99.378 25.2936 98.9486 25.695 98.482C26.1056 98.0153 26.437 97.4973 26.689 96.928C26.9503 96.3586 27.1416 95.7333 27.263 95.052C27.3936 94.3613 27.459 93.6006 27.459 92.77V91.902H25.275V91.16H30.511V91.902H28.369V93.092C28.369 94.5106 28.5836 95.724 29.013 96.732C29.4423 97.796 30.1516 98.6126 31.141 99.182L30.413 99.798ZM35.187 102.724H34.319V90.292H35.187V102.724ZM32.765 102.136H31.883V95.192H29.615V94.38H31.883V90.502H32.765V102.136ZM46.556 95.024H38.422C38.3193 95.024 38.2493 95.0053 38.212 94.968C38.1746 94.9213 38.156 94.8513 38.156 94.758V90.95C38.156 90.866 38.1746 90.8006 38.212 90.754C38.2493 90.7073 38.3193 90.684 38.422 90.684H46.43V91.426H39.01V94.282H46.556V95.024ZM47.984 97.572H36.588V96.83H47.984V97.572ZM46.878 102.458H38.436C38.3333 102.458 38.2633 102.439 38.226 102.402C38.1886 102.365 38.17 102.295 38.17 102.192V98.734H38.996V101.702H46.878V102.458ZM56.3429 99.812C55.5869 99.308 54.9149 98.7013 54.3269 97.992C53.7389 97.2733 53.2909 96.4753 52.9829 95.598C52.7029 96.5313 52.2643 97.3853 51.6669 98.16C51.0789 98.9253 50.4163 99.5926 49.6789 100.162L48.8389 99.546C50.0616 98.79 50.9809 97.8566 51.5969 96.746C52.2129 95.6353 52.5209 94.3193 52.5209 92.798V91.804H49.7629V91.048H56.2729V91.804H53.4309V93.078C53.4309 94.338 53.7109 95.472 54.2709 96.48C54.8403 97.488 55.7689 98.3746 57.0569 99.14L56.3429 99.812ZM59.3949 102.724H58.4989V90.292H59.3949V102.724ZM76.4625 97.46H65.0665V96.718H70.3305V95.234H70.6385C70.1345 94.9353 69.7005 94.5666 69.3365 94.128C68.9725 93.6893 68.6738 93.2646 68.4405 92.854C68.3565 93.05 68.2491 93.26 68.1185 93.484C67.9878 93.6986 67.8245 93.9133 67.6285 94.128C67.4418 94.3426 67.2225 94.5526 66.9705 94.758C66.7278 94.954 66.4525 95.1313 66.1445 95.29L65.4165 94.702C65.8645 94.506 66.2471 94.282 66.5645 94.03C66.8818 93.778 67.1431 93.512 67.3485 93.232C67.5631 92.952 67.7265 92.658 67.8385 92.35C67.9505 92.042 68.0205 91.734 68.0485 91.426H66.2845V90.684H70.6385V91.426H68.8745C68.9305 92.0513 69.1171 92.6066 69.4345 93.092C69.7611 93.568 70.2045 94.002 70.7645 94.394C71.2965 94.03 71.7305 93.5866 72.0665 93.064C72.4118 92.532 72.6031 91.986 72.6405 91.426H70.9045V90.684H75.2445V91.426H73.4805C73.5365 92.126 73.7931 92.7653 74.2505 93.344C74.7171 93.9133 75.3285 94.366 76.0845 94.702L75.3705 95.29C74.8105 95.0006 74.3345 94.632 73.9425 94.184C73.5598 93.7266 73.2658 93.274 73.0605 92.826C72.8365 93.246 72.5471 93.6753 72.1925 94.114C71.8471 94.5526 71.4225 94.926 70.9185 95.234H71.1985V96.718H76.4625V97.46ZM74.8945 102.808H73.9985V99.56H66.4805V98.818H74.6285C74.8058 98.818 74.8945 98.9066 74.8945 99.084V102.808ZM84.8215 99.812C84.0655 99.308 83.3935 98.7013 82.8055 97.992C82.2175 97.2733 81.7695 96.4753 81.4615 95.598C81.1815 96.5313 80.7428 97.3853 80.1455 98.16C79.5575 98.9253 78.8948 99.5926 78.1575 100.162L77.3175 99.546C78.5401 98.79 79.4595 97.8566 80.0755 96.746C80.6915 95.6353 80.9995 94.3193 80.9995 92.798V91.804H78.2415V91.048H84.7515V91.804H81.9095V93.078C81.9095 94.338 82.1895 95.472 82.7495 96.48C83.3188 97.488 84.2475 98.3746 85.5355 99.14L84.8215 99.812ZM87.8735 102.724H86.9775V90.292H87.8735V102.724ZM100.908 101.044H89.4564V100.288H94.7344V97.768H91.3184C91.2158 97.768 91.1458 97.7446 91.1084 97.698C91.0711 97.6513 91.0524 97.5813 91.0524 97.488V94.268C91.0524 94.184 91.0711 94.1233 91.1084 94.086C91.1458 94.0393 91.2158 94.016 91.3184 94.016H98.2344V91.664H91.0104V90.936H98.8504C99.0278 90.936 99.1164 91.0246 99.1164 91.202V94.478C99.1164 94.6553 99.0278 94.744 98.8504 94.744H91.9204V97.04H99.6204V97.768H95.6024V100.288H100.908V101.044ZM113.958 98.37C114.051 97.838 114.145 97.2873 114.238 96.718C114.341 96.1486 114.434 95.5793 114.518 95.01C114.593 94.4406 114.658 93.8853 114.714 93.344C114.77 92.7933 114.807 92.2753 114.826 91.79H107.154V91.048H115.456C115.633 91.048 115.722 91.1366 115.722 91.314C115.647 92.518 115.545 93.694 115.414 94.842C115.283 95.99 115.101 97.1706 114.868 98.384L113.958 98.37ZM117.192 101.016H105.726V100.26H110.08V95.402H110.962V100.26H117.192V101.016ZM123.689 95.948V91.636H119.839V95.948H123.689ZM124.515 96.41C124.515 96.522 124.496 96.5966 124.459 96.634C124.422 96.662 124.356 96.676 124.263 96.676H119.265C119.153 96.676 119.078 96.662 119.041 96.634C119.013 96.5966 118.999 96.522 118.999 96.41V91.174C118.999 91.0713 119.013 91.0013 119.041 90.964C119.078 90.9266 119.153 90.908 119.265 90.908H124.263C124.356 90.908 124.422 90.9266 124.459 90.964C124.496 91.0013 124.515 91.0713 124.515 91.174V96.41ZM128.295 99.546H127.413V90.292H128.295V99.546ZM128.617 102.458H120.637C120.534 102.458 120.464 102.439 120.427 102.402C120.39 102.365 120.371 102.295 120.371 102.192V98.426H121.267V101.702H128.617V102.458ZM139.818 93.344C139.715 93.4746 139.589 93.6006 139.44 93.722C139.3 93.834 139.137 93.9366 138.95 94.03C138.577 94.226 138.129 94.3753 137.606 94.478C137.083 94.5713 136.5 94.618 135.856 94.618C134.568 94.618 133.532 94.422 132.748 94.03C131.964 93.638 131.572 93.0966 131.572 92.406C131.572 91.7246 131.964 91.1926 132.748 90.81C133.121 90.6233 133.569 90.4786 134.092 90.376C134.624 90.264 135.212 90.208 135.856 90.208C136.5 90.208 137.083 90.264 137.606 90.376C138.129 90.4786 138.577 90.6233 138.95 90.81C139.323 90.9966 139.613 91.2253 139.818 91.496C140.033 91.7666 140.14 92.07 140.14 92.406C140.14 92.7326 140.033 93.0453 139.818 93.344ZM138.278 93.512C138.577 93.372 138.81 93.2086 138.978 93.022C139.155 92.8353 139.244 92.6346 139.244 92.42C139.244 92.196 139.155 91.9906 138.978 91.804C138.81 91.6173 138.577 91.4586 138.278 91.328C137.979 91.1973 137.62 91.0946 137.2 91.02C136.789 90.936 136.341 90.894 135.856 90.894C135.352 90.894 134.895 90.936 134.484 91.02C134.073 91.0946 133.719 91.1973 133.42 91.328C132.785 91.5986 132.468 91.9626 132.468 92.42C132.468 92.8493 132.785 93.2133 133.42 93.512C133.719 93.652 134.073 93.764 134.484 93.848C134.895 93.9226 135.352 93.96 135.856 93.96C136.341 93.96 136.789 93.9226 137.2 93.848C137.62 93.764 137.979 93.652 138.278 93.512ZM141.568 96.354H130.172V95.626H141.568V96.354ZM140.28 102.57H132.02C131.917 102.57 131.847 102.551 131.81 102.514C131.773 102.477 131.754 102.407 131.754 102.304V99.938C131.754 99.8446 131.773 99.7793 131.81 99.742C131.847 99.6953 131.917 99.672 132.02 99.672H139.09V98.258H131.754V97.544H139.734C139.911 97.544 140 97.6326 140 97.81V100.106C140 100.209 139.977 100.279 139.93 100.316C139.893 100.353 139.827 100.372 139.734 100.372H132.65V101.87H140.28V102.57ZM155.359 96.634V93.918H148.905V96.634H155.359ZM157.865 101.016H146.413V100.26H151.677V97.376H148.303C148.191 97.376 148.121 97.362 148.093 97.334C148.065 97.2966 148.051 97.222 148.051 97.11V90.908H148.905V93.204H155.359V90.908H156.241V97.11C156.241 97.222 156.223 97.2966 156.185 97.334C156.148 97.362 156.078 97.376 155.975 97.376H152.559V100.26H157.865V101.016ZM164.978 99.182C164.857 99.2006 164.684 99.224 164.46 99.252C164.246 99.28 164.008 99.3033 163.746 99.322C163.476 99.35 163.2 99.3733 162.92 99.392C162.64 99.4106 162.384 99.4246 162.15 99.434C161.842 99.4526 161.562 99.4666 161.31 99.476C161.068 99.476 160.853 99.476 160.666 99.476C160.489 99.4853 160.344 99.49 160.232 99.49C160.12 99.4806 160.05 99.476 160.022 99.476C159.92 99.476 159.85 99.4573 159.812 99.42C159.775 99.3733 159.756 99.3033 159.756 99.21V90.894H160.652V98.65L162.276 98.622C162.444 98.622 162.654 98.6126 162.906 98.594C163.158 98.5753 163.415 98.552 163.676 98.524C163.938 98.5053 164.185 98.482 164.418 98.454C164.652 98.426 164.838 98.398 164.978 98.37V99.182ZM169.108 102.724H168.212V95.808H166.392V102.136H165.496V90.502H166.392V94.996H168.212V90.292H169.108V102.724ZM179.063 98.37C179.157 97.838 179.25 97.2873 179.343 96.718C179.446 96.1486 179.539 95.5793 179.623 95.01C179.698 94.4406 179.763 93.8853 179.819 93.344C179.875 92.7933 179.913 92.2753 179.931 91.79H172.259V91.048H180.561C180.739 91.048 180.827 91.1366 180.827 91.314C180.753 92.518 180.65 93.694 180.519 94.842C180.389 95.99 180.207 97.1706 179.973 98.384L179.063 98.37ZM182.297 101.016H170.831V100.26H175.185V95.402H176.067V100.26H182.297V101.016ZM184.062 102.78C184.277 102.724 184.436 102.57 184.538 102.318C184.641 102.075 184.678 101.805 184.65 101.506H183.978V100.232H185.126C185.276 100.232 185.35 100.316 185.35 100.484V101.24C185.35 101.539 185.313 101.8 185.238 102.024C185.164 102.248 185.066 102.435 184.944 102.584C184.832 102.743 184.697 102.864 184.538 102.948C184.389 103.041 184.23 103.102 184.062 103.13V102.78ZM199.824 95.402C199.6 95.458 199.325 95.514 198.998 95.57C198.672 95.626 198.312 95.6773 197.92 95.724C197.528 95.7706 197.127 95.8126 196.716 95.85C196.315 95.878 195.918 95.8966 195.526 95.906C195.181 95.9246 194.831 95.9386 194.476 95.948C194.131 95.9573 193.814 95.962 193.524 95.962H192.502C192.4 95.962 192.33 95.9433 192.292 95.906C192.255 95.8593 192.236 95.7893 192.236 95.696V91.174C192.236 91.09 192.255 91.0246 192.292 90.978C192.33 90.9313 192.4 90.908 192.502 90.908H197.892V91.65H193.09V95.178L195.246 95.136C195.601 95.136 195.998 95.122 196.436 95.094C196.884 95.0566 197.323 95.01 197.752 94.954C198.182 94.9073 198.578 94.8606 198.942 94.814C199.316 94.758 199.61 94.702 199.824 94.646V95.402ZM201.224 96.746H200.342V90.292H201.224V92.686H202.988V93.456H201.224V96.746ZM200.384 101.856V99.896H194.336V101.856H200.384ZM201.252 102.318C201.252 102.421 201.229 102.491 201.182 102.528C201.145 102.565 201.08 102.584 200.986 102.584H193.72C193.618 102.584 193.548 102.565 193.51 102.528C193.473 102.491 193.454 102.421 193.454 102.318V97.418H194.336V99.168H200.384V97.418H201.252V102.318ZM210.815 96.83C210.087 96.494 209.439 96.088 208.869 95.612C208.309 95.136 207.875 94.59 207.567 93.974C207.325 94.6553 206.947 95.2573 206.433 95.78C205.929 96.3026 205.243 96.788 204.375 97.236L203.605 96.648C204.137 96.424 204.618 96.158 205.047 95.85C205.486 95.542 205.855 95.192 206.153 94.8C206.461 94.408 206.699 93.974 206.867 93.498C207.035 93.022 207.119 92.504 207.119 91.944V91.636H204.487V90.894H210.605V91.636H208.015V91.972C208.015 92.504 208.104 92.9893 208.281 93.428C208.459 93.8666 208.706 94.2633 209.023 94.618C209.331 94.9726 209.691 95.2806 210.101 95.542C210.521 95.8033 210.969 96.0133 211.445 96.172L210.815 96.83ZM213.559 97.88H212.691V90.292H213.559V93.218H215.393V93.974H213.559V97.88ZM213.587 101.506C213.317 101.954 212.855 102.304 212.201 102.556C211.557 102.817 210.741 102.948 209.751 102.948C209.107 102.948 208.529 102.887 208.015 102.766C207.511 102.654 207.082 102.491 206.727 102.276C206.382 102.061 206.116 101.805 205.929 101.506C205.743 101.217 205.649 100.895 205.649 100.54C205.649 100.195 205.743 99.8726 205.929 99.574C206.116 99.2753 206.382 99.0233 206.727 98.818C207.082 98.6033 207.511 98.4353 208.015 98.314C208.529 98.1926 209.107 98.132 209.751 98.132C210.405 98.132 210.988 98.1926 211.501 98.314C212.015 98.4353 212.444 98.6033 212.789 98.818C213.144 99.0233 213.41 99.2753 213.587 99.574C213.774 99.8726 213.867 100.195 213.867 100.54C213.867 100.885 213.774 101.207 213.587 101.506ZM209.751 102.22C210.703 102.22 211.464 102.075 212.033 101.786C212.64 101.506 212.943 101.091 212.943 100.54C212.943 99.98 212.64 99.56 212.033 99.28C211.427 99 210.666 98.86 209.751 98.86C209.303 98.86 208.883 98.8973 208.491 98.972C208.109 99.0373 207.773 99.14 207.483 99.28C207.194 99.42 206.97 99.5973 206.811 99.812C206.653 100.017 206.573 100.26 206.573 100.54C206.573 100.82 206.653 101.063 206.811 101.268C206.979 101.483 207.203 101.66 207.483 101.8C207.773 101.94 208.109 102.043 208.491 102.108C208.883 102.183 209.303 102.22 209.751 102.22ZM225.39 93.344C225.288 93.4746 225.162 93.6006 225.012 93.722C224.872 93.834 224.709 93.9366 224.522 94.03C224.149 94.226 223.701 94.3753 223.178 94.478C222.656 94.5713 222.072 94.618 221.428 94.618C220.14 94.618 219.104 94.422 218.32 94.03C217.536 93.638 217.144 93.0966 217.144 92.406C217.144 91.7246 217.536 91.1926 218.32 90.81C218.694 90.6233 219.142 90.4786 219.664 90.376C220.196 90.264 220.784 90.208 221.428 90.208C222.072 90.208 222.656 90.264 223.178 90.376C223.701 90.4786 224.149 90.6233 224.522 90.81C224.896 90.9966 225.185 91.2253 225.39 91.496C225.605 91.7666 225.712 92.07 225.712 92.406C225.712 92.7326 225.605 93.0453 225.39 93.344ZM223.85 93.512C224.149 93.372 224.382 93.2086 224.55 93.022C224.728 92.8353 224.816 92.6346 224.816 92.42C224.816 92.196 224.728 91.9906 224.55 91.804C224.382 91.6173 224.149 91.4586 223.85 91.328C223.552 91.1973 223.192 91.0946 222.772 91.02C222.362 90.936 221.914 90.894 221.428 90.894C220.924 90.894 220.467 90.936 220.056 91.02C219.646 91.0946 219.291 91.1973 218.992 91.328C218.358 91.5986 218.04 91.9626 218.04 92.42C218.04 92.8493 218.358 93.2133 218.992 93.512C219.291 93.652 219.646 93.764 220.056 93.848C220.467 93.9226 220.924 93.96 221.428 93.96C221.914 93.96 222.362 93.9226 222.772 93.848C223.192 93.764 223.552 93.652 223.85 93.512ZM227.14 96.354H215.744V95.626H227.14V96.354ZM225.852 102.57H217.592C217.49 102.57 217.42 102.551 217.382 102.514C217.345 102.477 217.326 102.407 217.326 102.304V99.938C217.326 99.8446 217.345 99.7793 217.382 99.742C217.42 99.6953 217.49 99.672 217.592 99.672H224.662V98.258H217.326V97.544H225.306C225.484 97.544 225.572 97.6326 225.572 97.81V100.106C225.572 100.209 225.549 100.279 225.502 100.316C225.465 100.353 225.4 100.372 225.306 100.372H218.222V101.87H225.852V102.57ZM237.53 95.92V93.694H233.68V95.92H237.53ZM238.37 96.382C238.37 96.494 238.351 96.5686 238.314 96.606C238.276 96.634 238.206 96.648 238.104 96.648H233.106C232.994 96.648 232.924 96.634 232.896 96.606C232.868 96.5686 232.854 96.494 232.854 96.382V90.754H233.68V92.966H237.53V90.754H238.37V96.382ZM241.912 97.558H241.03V90.292H241.912V93.05H243.676V93.82H241.912V97.558ZM242.192 102.584H234.548C234.445 102.584 234.375 102.565 234.338 102.528C234.3 102.491 234.282 102.421 234.282 102.318V98.454C234.282 98.3606 234.3 98.2953 234.338 98.258C234.375 98.2113 234.445 98.188 234.548 98.188H241.94V98.944H235.164V101.842H242.192V102.584ZM253.869 93.344C253.766 93.4746 253.64 93.6006 253.491 93.722C253.351 93.834 253.187 93.9366 253.001 94.03C252.627 94.226 252.179 94.3753 251.657 94.478C251.134 94.5713 250.551 94.618 249.907 94.618C248.619 94.618 247.583 94.422 246.799 94.03C246.015 93.638 245.623 93.0966 245.623 92.406C245.623 91.7246 246.015 91.1926 246.799 90.81C247.172 90.6233 247.62 90.4786 248.143 90.376C248.675 90.264 249.263 90.208 249.907 90.208C250.551 90.208 251.134 90.264 251.657 90.376C252.179 90.4786 252.627 90.6233 253.001 90.81C253.374 90.9966 253.663 91.2253 253.869 91.496C254.083 91.7666 254.191 92.07 254.191 92.406C254.191 92.7326 254.083 93.0453 253.869 93.344ZM252.329 93.512C252.627 93.372 252.861 93.2086 253.029 93.022C253.206 92.8353 253.295 92.6346 253.295 92.42C253.295 92.196 253.206 91.9906 253.029 91.804C252.861 91.6173 252.627 91.4586 252.329 91.328C252.03 91.1973 251.671 91.0946 251.251 91.02C250.84 90.936 250.392 90.894 249.907 90.894C249.403 90.894 248.945 90.936 248.535 91.02C248.124 91.0946 247.769 91.1973 247.471 91.328C246.836 91.5986 246.519 91.9626 246.519 92.42C246.519 92.8493 246.836 93.2133 247.471 93.512C247.769 93.652 248.124 93.764 248.535 93.848C248.945 93.9226 249.403 93.96 249.907 93.96C250.392 93.96 250.84 93.9226 251.251 93.848C251.671 93.764 252.03 93.652 252.329 93.512ZM255.619 96.354H244.223V95.626H255.619V96.354ZM254.331 102.57H246.071C245.968 102.57 245.898 102.551 245.861 102.514C245.823 102.477 245.805 102.407 245.805 102.304V99.938C245.805 99.8446 245.823 99.7793 245.861 99.742C245.898 99.6953 245.968 99.672 246.071 99.672H253.141V98.258H245.805V97.544H253.785C253.962 97.544 254.051 97.6326 254.051 97.81V100.106C254.051 100.209 254.027 100.279 253.981 100.316C253.943 100.353 253.878 100.372 253.785 100.372H246.701V101.87H254.331V102.57ZM270.656 95.836C270.171 95.7146 269.695 95.556 269.228 95.36C268.771 95.164 268.342 94.9353 267.94 94.674C267.548 94.4126 267.198 94.1186 266.89 93.792C266.592 93.4653 266.363 93.106 266.204 92.714C265.999 93.1246 265.742 93.4933 265.434 93.82C265.126 94.1373 264.776 94.422 264.384 94.674C264.002 94.926 263.582 95.15 263.124 95.346C262.676 95.5326 262.21 95.696 261.724 95.836L261.038 95.108C261.682 94.968 262.284 94.7813 262.844 94.548C263.414 94.3053 263.908 94.0206 264.328 93.694C264.758 93.3673 265.094 93.0033 265.336 92.602C265.588 92.1913 265.714 91.734 265.714 91.23V90.614H266.652V91.216C266.652 91.7013 266.774 92.1493 267.016 92.56C267.259 92.9706 267.595 93.3393 268.024 93.666C268.444 93.9926 268.934 94.2773 269.494 94.52C270.054 94.7626 270.656 94.9493 271.3 95.08L270.656 95.836ZM271.888 98.006H266.68V102.724H265.784V98.006H260.492V97.25H271.888V98.006ZM283.426 94.814C283.267 95.1966 283.052 95.5233 282.782 95.794C282.502 96.074 282.166 96.2933 281.774 96.452C281.391 96.6013 280.962 96.676 280.486 96.676C280 96.676 279.562 96.5966 279.17 96.438C278.787 96.27 278.456 96.0413 278.176 95.752C277.905 95.472 277.695 95.1453 277.546 94.772C277.396 94.3893 277.322 93.988 277.322 93.568C277.322 93.1386 277.396 92.7373 277.546 92.364C277.695 91.9813 277.91 91.6453 278.19 91.356C278.46 91.076 278.792 90.8566 279.184 90.698C279.576 90.53 280.014 90.446 280.5 90.446C280.976 90.446 281.405 90.53 281.788 90.698C282.17 90.8566 282.502 91.076 282.782 91.356C283.062 91.636 283.276 91.9673 283.426 92.35C283.584 92.7326 283.664 93.1386 283.664 93.568C283.664 93.9693 283.584 94.3846 283.426 94.814ZM282.768 93.554C282.768 92.9286 282.567 92.3873 282.166 91.93C281.774 91.4633 281.214 91.23 280.486 91.23C279.758 91.23 279.202 91.4633 278.82 91.93C278.437 92.3966 278.246 92.938 278.246 93.554C278.246 93.8713 278.292 94.1746 278.386 94.464C278.479 94.744 278.624 94.996 278.82 95.22C279.006 95.4346 279.24 95.6073 279.52 95.738C279.8 95.8593 280.122 95.92 280.486 95.92C280.85 95.92 281.172 95.8593 281.452 95.738C281.732 95.6073 281.97 95.4346 282.166 95.22C282.567 94.7626 282.768 94.2073 282.768 93.554ZM287.094 97.53H286.212V90.292H287.094V97.53ZM287.738 102.808C287.206 102.481 286.739 102.103 286.338 101.674C285.946 101.254 285.605 100.778 285.316 100.246C285.054 100.75 284.742 101.203 284.378 101.604C284.023 102.015 283.617 102.388 283.16 102.724C282.646 102.332 282.208 101.926 281.844 101.506C281.48 101.095 281.195 100.666 280.99 100.218C280.7 100.759 280.355 101.245 279.954 101.674C279.552 102.103 279.095 102.481 278.582 102.808L277.882 102.206C278.208 102.038 278.53 101.823 278.848 101.562C279.174 101.301 279.464 101.011 279.716 100.694C279.968 100.377 280.173 100.041 280.332 99.686C280.49 99.322 280.57 98.944 280.57 98.552V98.062H281.424V98.622C281.424 99.1633 281.587 99.7046 281.914 100.246C282.24 100.778 282.656 101.254 283.16 101.674C283.552 101.375 283.948 100.918 284.35 100.302C284.695 99.7326 284.868 99.1353 284.868 98.51V98.062H285.722V98.58C285.722 98.944 285.796 99.308 285.946 99.672C286.104 100.036 286.314 100.381 286.576 100.708C286.837 101.035 287.131 101.329 287.458 101.59C287.784 101.851 288.12 102.057 288.466 102.206L287.738 102.808ZM299.261 102.724H298.365V95.542H295.579C295.541 97.054 295.257 98.1786 294.725 98.916C294.193 99.644 293.502 100.008 292.653 100.008C292.214 100.008 291.813 99.91 291.449 99.714C291.094 99.518 290.786 99.224 290.525 98.832C290.263 98.44 290.058 97.95 289.909 97.362C289.769 96.774 289.699 96.088 289.699 95.304C289.699 94.52 289.769 93.834 289.909 93.246C290.058 92.658 290.263 92.168 290.525 91.776C290.786 91.384 291.094 91.09 291.449 90.894C291.813 90.698 292.214 90.6 292.653 90.6C293.465 90.6 294.137 90.95 294.669 91.65C295.201 92.3406 295.499 93.386 295.565 94.786H298.365V90.292H299.261V102.724ZM293.871 98.636C294.197 98.2253 294.431 97.6606 294.571 96.942C294.664 96.5593 294.711 96.0133 294.711 95.304C294.692 94.1 294.505 93.148 294.151 92.448C293.796 91.7293 293.297 91.37 292.653 91.37C292.018 91.37 291.509 91.7293 291.127 92.448C290.753 93.1573 290.567 94.1093 290.567 95.304C290.567 95.9106 290.613 96.4566 290.707 96.942C290.809 97.418 290.949 97.8286 291.127 98.174C291.304 98.5193 291.519 98.7853 291.771 98.972C292.032 99.1493 292.326 99.238 292.653 99.238C293.147 99.238 293.553 99.0373 293.871 98.636ZM310.91 95.318C310.807 95.5326 310.676 95.7286 310.518 95.906C310.368 96.074 310.2 96.2233 310.014 96.354C309.64 96.6433 309.188 96.8626 308.656 97.012C308.124 97.1613 307.536 97.236 306.892 97.236C306.238 97.236 305.646 97.1613 305.114 97.012C304.582 96.8626 304.129 96.6433 303.756 96.354C302.962 95.7846 302.566 94.968 302.566 93.904C302.566 93.3906 302.664 92.9286 302.86 92.518C303.065 92.098 303.364 91.748 303.756 91.468C304.129 91.1786 304.582 90.9593 305.114 90.81C305.646 90.6513 306.238 90.572 306.892 90.572C307.536 90.572 308.124 90.6513 308.656 90.81C309.188 90.9593 309.64 91.1786 310.014 91.468C310.406 91.748 310.704 92.098 310.91 92.518C311.115 92.9286 311.218 93.3906 311.218 93.904C311.218 94.4453 311.115 94.9166 310.91 95.318ZM306.892 96.522C307.909 96.522 308.721 96.2886 309.328 95.822C309.636 95.598 309.874 95.3273 310.042 95.01C310.21 94.6926 310.294 94.324 310.294 93.904C310.294 93.5026 310.21 93.1433 310.042 92.826C309.874 92.4993 309.636 92.2193 309.328 91.986C309.029 91.762 308.674 91.5893 308.264 91.468C307.853 91.3466 307.396 91.286 306.892 91.286C306.388 91.286 305.926 91.3466 305.506 91.468C305.095 91.5893 304.74 91.762 304.442 91.986C304.143 92.2193 303.91 92.4993 303.742 92.826C303.574 93.1433 303.49 93.5026 303.49 93.904C303.49 94.324 303.574 94.6926 303.742 95.01C303.91 95.3273 304.143 95.598 304.442 95.822C305.048 96.2886 305.865 96.522 306.892 96.522ZM312.59 101.016H301.166V100.26H303.994V97.558H304.876V100.26H308.922V97.558H309.79V100.26H312.59V101.016ZM315.419 99.042H314.649L314.439 90.544H315.615L315.419 99.042ZM315.601 101.576H314.467V100.4H315.601V101.576Z" fill="#61586A"/>
<g clip-path="url(#clip0_2073_30496)">
<path d="M14.5 302.991C14.5 306.546 81.66 309.411 164.493 309.411C247.325 309.411 314.5 306.473 314.5 302.991C314.5 299.51 247.34 296.572 164.493 296.572C81.6452 296.572 14.5 299.451 14.5 302.991Z" fill="#DDD0D0"/>
<path d="M147.654 217.118C147.654 217.118 132.026 246.673 144.694 250.595C157.363 254.517 161.625 246.012 161.625 246.012L161.344 220.849L147.654 217.118Z" fill="#FFD7D7"/>
<path d="M66.8307 299.79H271.729C273.076 299.719 274.345 299.138 275.273 298.166C276.201 297.195 276.719 295.907 276.719 294.568C276.719 293.229 276.201 291.941 275.273 290.969C274.345 289.998 273.076 289.417 271.729 289.346H66.8307C65.4836 289.417 64.2152 289.998 63.2869 290.969C62.3586 291.941 61.8412 293.229 61.8412 294.568C61.8412 295.907 62.3586 297.195 63.2869 298.166C64.2152 299.138 65.4836 299.719 66.8307 299.79Z" fill="#BBB4C1"/>
<path d="M72.8545 265.063C72.8545 265.063 101.654 230.676 98.7831 229.045C95.912 227.415 84.2501 242.545 84.2501 242.545C84.2501 242.545 97.4068 217.485 95.3497 216.457C93.2925 215.429 71.3745 256.705 71.3745 256.705C71.3745 256.705 78.0343 210.581 75.5924 209.7C73.1505 208.818 65.7063 255.662 65.7063 255.662C65.7063 255.662 59.9049 218.087 57.1226 220.041C54.3403 221.995 59.8605 254.84 59.8605 254.84C59.8605 254.84 47.5622 227.9 48.021 231.983C48.4797 236.067 53.2304 255.824 53.2304 255.824C53.2304 255.824 32.9847 221.569 33.5767 227.151C34.1687 232.732 51.9872 266.003 51.9872 266.003L72.8545 265.063Z" fill="#7B9B75"/>
<path d="M77.6339 300.42L53.9548 300.126C53.3528 300.134 52.769 299.921 52.3155 299.528C51.8621 299.135 51.571 298.589 51.498 297.996L48.3754 263.756C48.3587 263.422 48.4121 263.089 48.5323 262.777C48.6524 262.465 48.8367 262.181 49.0733 261.943C49.3099 261.706 49.5937 261.519 49.9066 261.396C50.2196 261.274 50.5549 261.217 50.8913 261.229L81.7778 261.611C82.1151 261.604 82.4502 261.667 82.7615 261.796C83.0728 261.926 83.3532 262.119 83.5848 262.362C83.8163 262.606 83.9938 262.895 84.1057 263.211C84.2176 263.527 84.2614 263.863 84.2345 264.197L80.1794 298.349C80.0949 298.948 79.7861 299.494 79.3144 299.878C78.8427 300.262 78.2428 300.455 77.6339 300.42Z" fill="#8A6277"/>
<path d="M72.3949 300.347L48.7158 300.068C48.1138 300.076 47.53 299.863 47.0766 299.47C46.6231 299.077 46.332 298.532 46.2591 297.938L43.0772 263.698C43.0561 263.364 43.1059 263.03 43.2235 262.717C43.3412 262.404 43.5239 262.119 43.7598 261.881C43.9958 261.642 44.2796 261.456 44.5929 261.334C44.9063 261.212 45.242 261.156 45.5783 261.171L76.4944 261.524C76.8312 261.516 77.1658 261.58 77.4763 261.709C77.7869 261.838 78.0665 262.032 78.2969 262.275C78.5273 262.519 78.7033 262.809 78.8135 263.125C78.9236 263.441 78.9655 263.776 78.9363 264.109L74.9108 298.247C74.8335 298.846 74.5318 299.395 74.0658 299.784C73.5997 300.173 73.0033 300.374 72.3949 300.347Z" fill="#A37B90"/>
<path d="M164.7 291.431H185.109L185.375 247.246H162.332L164.7 291.431Z" fill="#40507F"/>
<path d="M202.645 253.739C202.645 253.739 249.825 266.078 252.608 283.969C255.39 301.861 224.045 306.179 208.209 307.296C192.374 308.412 185.374 301.508 185.374 301.508L176.494 247.158L202.645 253.739Z" fill="#40507F"/>
<path d="M145.403 253.739C145.403 253.739 98.2227 266.078 95.47 283.969C92.7173 301.861 127.333 306.179 143.184 307.296C159.034 308.412 160.943 300.039 160.943 300.039L171.613 247.158L145.403 253.739Z" fill="#40507F"/>
<path d="M152.636 251.946C152.636 251.946 154.974 198.933 166.858 194.57C179.867 189.796 199.965 192.852 204.079 200.24C208.193 207.629 200.497 253.21 200.497 253.21C200.497 253.21 174.746 256.162 152.636 251.946Z" fill="#BBB4C1"/>
<path d="M187.493 185.478L188.41 194.6C188.41 194.6 187.655 197.699 182.313 198.668C180.291 199.167 178.165 199.044 176.215 198.316L176.304 193.645L176.393 189.076L185.909 185.992L187.493 185.478Z" fill="#FFD7D7"/>
<path d="M185.848 185.992C185.829 186.302 185.77 186.609 185.67 186.903C184.057 191.662 178.537 193.205 176.243 193.645L176.332 189.077L185.848 185.992Z" fill="#2E2A32"/>
<path d="M172.191 168.468C172.191 168.468 168.521 180.396 171.067 186.565C173.612 192.735 179.34 191.06 182.699 189.43C184.608 188.561 186.245 187.196 187.435 185.478C188.466 185.654 189.527 185.503 190.468 185.047C191.408 184.591 192.18 183.853 192.674 182.937C194.509 179.661 192.763 176.342 190.794 175.769C190.089 175.651 189.367 175.68 188.674 175.855C187.981 176.029 187.332 176.345 186.769 176.782L188.13 173.286C188.13 173.286 178.851 157.349 172.191 168.468Z" fill="#FFD7D7"/>
<path d="M174.349 182.848C174.403 182.861 174.459 182.861 174.512 182.848C174.6 182.807 174.668 182.733 174.701 182.642C174.734 182.551 174.73 182.451 174.69 182.364C174.239 180.899 174.383 179.318 175.089 177.957C175.115 177.915 175.131 177.868 175.138 177.82C175.144 177.771 175.14 177.722 175.126 177.675C175.112 177.628 175.089 177.584 175.057 177.547C175.025 177.509 174.986 177.479 174.941 177.457C174.899 177.434 174.852 177.419 174.803 177.414C174.755 177.409 174.706 177.413 174.659 177.427C174.612 177.441 174.569 177.463 174.531 177.494C174.493 177.524 174.461 177.562 174.438 177.604C174.019 178.385 173.766 179.243 173.695 180.125C173.624 181.007 173.736 181.894 174.024 182.731C174.064 182.775 174.115 182.809 174.172 182.83C174.229 182.85 174.289 182.857 174.349 182.848Z" fill="#2E2A32"/>
<path d="M187.877 182.04C187.935 182.04 187.991 182.027 188.043 182.002C188.094 181.976 188.139 181.939 188.173 181.893L190.867 178.25C190.935 178.182 190.973 178.09 190.973 177.993C190.973 177.897 190.935 177.805 190.867 177.736C190.827 177.708 190.782 177.688 190.735 177.677C190.687 177.666 190.638 177.665 190.589 177.673C190.541 177.681 190.495 177.699 190.454 177.725C190.413 177.751 190.377 177.785 190.349 177.824L187.493 181.467C187.465 181.506 187.445 181.549 187.434 181.595C187.423 181.641 187.422 181.689 187.43 181.736C187.439 181.782 187.456 181.827 187.482 181.867C187.508 181.906 187.542 181.94 187.581 181.967C187.619 182.005 187.667 182.031 187.719 182.044C187.771 182.057 187.826 182.056 187.877 182.04Z" fill="#2E2A32"/>
<path d="M191.044 180.733C191.142 180.733 191.236 180.695 191.305 180.626C191.375 180.557 191.414 180.464 191.414 180.366C191.416 180.319 191.408 180.271 191.391 180.227C191.374 180.182 191.348 180.142 191.315 180.107C191.282 180.073 191.242 180.046 191.198 180.027C191.154 180.009 191.106 179.999 191.059 179.999H188.868C188.77 179.999 188.676 180.038 188.607 180.107C188.537 180.175 188.498 180.269 188.498 180.366C188.494 180.414 188.5 180.463 188.516 180.508C188.532 180.554 188.558 180.595 188.592 180.63C188.625 180.665 188.666 180.692 188.711 180.71C188.756 180.728 188.805 180.736 188.853 180.733H191.044Z" fill="#2E2A32"/>
<path d="M186.763 176.783C186.605 176.901 186.424 176.987 186.232 177.036C186.04 177.084 185.839 177.093 185.643 177.063C185.447 177.033 185.259 176.964 185.091 176.86C184.922 176.756 184.776 176.62 184.662 176.459C183.64 175.24 185.032 171.068 185.032 171.068C183.183 171.742 181.175 171.859 179.26 171.406C177.6 170.519 176.268 169.13 175.456 167.44C175.456 167.44 168.634 171.568 167.183 166.72C164.889 159.023 175.604 160.845 175.604 160.845C175.604 160.845 175.885 157.804 182.545 159.376C188.613 160.845 189.22 168.042 189.22 168.042C189.22 168.042 191.499 166.574 192.638 170.261C192.98 171.292 193.096 172.383 192.979 173.462C192.862 174.541 192.513 175.583 191.958 176.518C191.125 176.183 190.228 176.033 189.331 176.079C188.433 176.125 187.557 176.365 186.763 176.783Z" fill="#2E2A32"/>
<path d="M180.492 173.683C180.56 173.704 180.632 173.704 180.699 173.683C180.741 173.656 180.776 173.622 180.804 173.581C180.831 173.541 180.85 173.495 180.86 173.448C180.87 173.4 180.87 173.35 180.86 173.302C180.85 173.255 180.831 173.209 180.803 173.169C180.453 172.749 179.978 172.45 179.446 172.315C178.914 172.18 178.353 172.217 177.843 172.42C177.751 172.453 177.676 172.521 177.634 172.609C177.593 172.697 177.588 172.798 177.621 172.89C177.634 172.936 177.657 172.979 177.688 173.015C177.719 173.052 177.757 173.082 177.801 173.102C177.844 173.123 177.891 173.135 177.939 173.136C177.988 173.137 178.036 173.129 178.08 173.11C178.08 173.11 179.486 172.655 180.137 173.58C180.179 173.631 180.235 173.668 180.299 173.686C180.362 173.705 180.43 173.704 180.492 173.683Z" fill="#2E2A32"/>
<path d="M171.538 173.389C171.588 173.391 171.639 173.382 171.685 173.362C171.731 173.341 171.772 173.31 171.804 173.272C172.147 172.891 172.613 172.642 173.121 172.566C173.27 172.57 173.416 172.606 173.549 172.672C173.682 172.738 173.799 172.832 173.891 172.948C173.92 172.992 173.959 173.028 174.004 173.055C174.049 173.082 174.099 173.1 174.151 173.106C174.204 173.112 174.257 173.108 174.307 173.092C174.357 173.076 174.403 173.05 174.443 173.016C174.482 172.981 174.513 172.938 174.535 172.89C174.556 172.843 174.567 172.791 174.566 172.739C174.566 172.686 174.554 172.635 174.532 172.587C174.51 172.54 174.478 172.498 174.438 172.464C174.281 172.267 174.08 172.108 173.852 171.999C173.624 171.889 173.374 171.832 173.121 171.832C172.4 171.903 171.732 172.244 171.256 172.787C171.189 172.855 171.151 172.948 171.151 173.044C171.151 173.14 171.189 173.232 171.256 173.301C171.335 173.365 171.436 173.396 171.538 173.389Z" fill="#2E2A32"/>
<path d="M142.869 223.244C147.227 225.545 151.333 228.287 155.123 231.425C161.857 236.978 166.859 194.57 166.859 194.57C166.859 194.57 152.637 200.725 142.869 223.244Z" fill="#BBB4C1"/>
<path d="M154.533 230.793C154.629 230.793 154.721 230.757 154.79 230.691C154.859 230.625 154.899 230.536 154.903 230.441C155.381 224.028 156.256 217.651 157.523 211.345C157.533 211.297 157.534 211.247 157.525 211.198C157.516 211.149 157.497 211.103 157.469 211.062C157.441 211.021 157.406 210.986 157.364 210.959C157.322 210.931 157.276 210.913 157.227 210.904C157.13 210.887 157.031 210.908 156.951 210.963C156.871 211.018 156.815 211.103 156.797 211.198C155.529 217.554 154.65 223.98 154.163 230.441C154.161 230.488 154.169 230.536 154.186 230.58C154.203 230.625 154.229 230.665 154.262 230.7C154.295 230.734 154.335 230.761 154.379 230.78C154.423 230.799 154.47 230.808 154.518 230.808L154.533 230.793Z" fill="white"/>
<path d="M179.873 199.463C181.069 199.454 182.261 199.311 183.425 199.037C188.501 197.847 189.344 194.791 189.463 194.63C189.476 194.583 189.48 194.533 189.474 194.484C189.467 194.436 189.451 194.389 189.427 194.346C189.402 194.304 189.369 194.267 189.329 194.237C189.289 194.208 189.244 194.186 189.196 194.174C189.151 194.161 189.103 194.157 189.056 194.162C189.008 194.168 188.963 194.183 188.921 194.206C188.88 194.229 188.843 194.261 188.814 194.298C188.785 194.336 188.764 194.378 188.752 194.424C188.752 194.542 187.879 197.2 183.247 198.273C177.83 199.536 175.329 197.48 175.315 197.465C175.278 197.433 175.235 197.409 175.188 197.393C175.142 197.378 175.093 197.372 175.044 197.375C174.995 197.379 174.948 197.392 174.904 197.413C174.86 197.435 174.821 197.465 174.789 197.502C174.757 197.538 174.733 197.581 174.717 197.627C174.702 197.673 174.695 197.721 174.699 197.77C174.702 197.818 174.715 197.866 174.737 197.909C174.759 197.952 174.789 197.991 174.826 198.023C176.294 199.059 178.075 199.566 179.873 199.463Z" fill="white"/>
<path d="M177.014 186.169H177.133C178.253 185.855 179.205 185.116 179.782 184.112C179.818 184.022 179.818 183.922 179.782 183.832C179.746 183.742 179.677 183.669 179.589 183.628C179.501 183.591 179.401 183.589 179.311 183.622C179.22 183.654 179.146 183.719 179.101 183.804C178.617 184.608 177.845 185.2 176.94 185.464C176.846 185.491 176.765 185.554 176.715 185.639C176.666 185.723 176.651 185.824 176.674 185.919C176.701 185.988 176.748 186.048 176.808 186.092C176.868 186.137 176.94 186.163 177.014 186.169Z" fill="#2E2A32"/>
<path d="M204.82 301.185C204.82 301.185 194.786 308.397 194.461 309.337C194.135 310.277 190.213 329.344 187.313 331.635C186.562 332.295 185.632 332.72 184.639 332.856C183.646 332.992 182.635 332.833 181.733 332.399C181.733 332.399 175.236 289.801 175.813 288.332C176.391 286.863 194.653 283.19 194.653 283.19L204.82 301.185Z" fill="#FFD7D7"/>
<path d="M183.336 332.783L178.571 286.923L172.34 287.878L178.082 333.634L183.336 332.783Z" fill="#2E2A32"/>
<path d="M191.015 323.174L192.746 316.814L181.484 314.963L180.818 320.809L191.015 323.174Z" fill="#2E2A32"/>
<path d="M142.871 300.699C142.871 300.699 152.92 307.926 153.23 308.852C153.541 309.777 157.493 328.858 160.379 331.15C161.129 331.81 162.059 332.234 163.052 332.37C164.045 332.506 165.056 332.347 165.958 331.914C165.958 331.914 172.455 289.315 171.878 287.846C171.301 286.377 153.053 282.705 153.053 282.705L142.871 300.699Z" fill="#FFD7D7"/>
<path d="M164.371 332.369L169.137 286.51L175.367 287.465L169.625 333.221L164.371 332.369Z" fill="#2E2A32"/>
<path d="M156.694 322.763L154.962 316.403L166.225 314.552L166.891 320.398L156.694 322.763Z" fill="#2E2A32"/>
<path d="M168.578 279.254L153.187 308.853L131.639 300.45L140.637 279.254H168.578Z" fill="#40507F"/>
<path d="M178.51 280.679L195.352 310.277L215.242 301.89L206.244 280.679H178.51Z" fill="#40507F"/>
<path d="M268.238 300.362H285.73V272.174C285.73 271.033 285.504 269.905 285.065 268.851C284.625 267.798 283.981 266.841 283.169 266.035C282.356 265.229 281.392 264.589 280.331 264.153C279.27 263.717 278.133 263.492 276.984 263.492C275.835 263.492 274.698 263.717 273.637 264.153C272.576 264.589 271.611 265.229 270.799 266.035C269.987 266.841 269.343 267.798 268.903 268.851C268.464 269.905 268.238 271.033 268.238 272.174V300.362Z" fill="#B1BDEA"/>
<path d="M273.668 257.734H280.328V267.488H273.668V257.734Z" fill="#B1BDEA"/>
<path d="M272.943 258.953H281.039C281.364 258.979 281.692 258.937 282.001 258.831C282.309 258.725 282.593 258.556 282.833 258.336C283.073 258.116 283.264 257.849 283.395 257.552C283.526 257.255 283.594 256.934 283.594 256.61C283.594 256.286 283.526 255.965 283.395 255.668C283.264 255.371 283.073 255.104 282.833 254.884C282.593 254.664 282.309 254.495 282.001 254.389C281.692 254.283 281.364 254.241 281.039 254.267H272.943C272.618 254.241 272.29 254.283 271.982 254.389C271.673 254.495 271.39 254.664 271.15 254.884C270.91 255.104 270.718 255.371 270.587 255.668C270.456 255.965 270.389 256.286 270.389 256.61C270.389 256.934 270.456 257.255 270.587 257.552C270.718 257.849 270.91 258.116 271.15 258.336C271.39 258.556 271.673 258.725 271.982 258.831C272.29 258.937 272.618 258.979 272.943 258.953Z" fill="#BBB4C1"/>
<path d="M283.407 286.819C283.505 286.819 283.6 286.781 283.669 286.712C283.738 286.643 283.777 286.549 283.777 286.452V270.676C283.774 270.58 283.734 270.488 283.665 270.42C283.596 270.352 283.504 270.312 283.407 270.309C283.309 270.309 283.215 270.347 283.146 270.416C283.076 270.485 283.037 270.578 283.037 270.676V286.496C283.048 286.586 283.092 286.668 283.16 286.728C283.228 286.787 283.316 286.82 283.407 286.819Z" fill="white"/>
<path d="M191.074 257.764C191.074 257.764 181.38 255.811 180.492 256.53C179.604 257.25 182.253 269.339 182.253 269.339L196.875 269.148V261.172L191.074 257.764Z" fill="#FFD7D7"/>
<path d="M206.377 274.039H143.006C141.829 274.039 140.875 273.092 140.875 271.924V271.263C140.875 270.095 141.829 269.148 143.006 269.148H206.377C207.554 269.148 208.509 270.095 208.509 271.263V271.924C208.509 273.092 207.554 274.039 206.377 274.039Z" fill="#2E2A32"/>
<path d="M191.148 274.038H144.412L131.092 244.058H175.949C176.498 244.057 177.035 244.215 177.495 244.512C177.955 244.81 178.318 245.234 178.539 245.732L191.148 274.038Z" fill="white"/>
<path d="M187.094 274.038H140.342L128.503 247.289C128.348 246.939 128.284 246.556 128.315 246.176C128.347 245.795 128.473 245.427 128.683 245.107C128.893 244.786 129.179 244.523 129.517 244.34C129.855 244.157 130.234 244.06 130.619 244.058H173.745L187.094 274.038Z" fill="#68B6D8"/>
<path d="M161.625 259.041C161.625 259.82 161.392 260.581 160.957 261.228C160.521 261.876 159.901 262.38 159.177 262.678C158.452 262.976 157.654 263.054 156.885 262.902C156.116 262.75 155.409 262.375 154.854 261.825C154.299 261.274 153.922 260.573 153.769 259.809C153.616 259.046 153.694 258.254 153.994 257.535C154.295 256.815 154.803 256.201 155.455 255.768C156.107 255.335 156.874 255.104 157.659 255.104C158.711 255.104 159.719 255.519 160.463 256.258C161.207 256.996 161.625 257.997 161.625 259.041Z" fill="white"/>
<path d="M135.206 273.598C135.274 273.599 135.342 273.582 135.402 273.548C135.462 273.515 135.512 273.466 135.546 273.407C135.582 273.335 135.594 273.253 135.581 273.174C135.567 273.095 135.529 273.022 135.472 272.966C134.821 272.349 129.182 266.958 126.696 266.958H126.578C126.407 266.966 126.241 267.011 126.09 267.09C125.939 267.168 125.808 267.279 125.704 267.413C125.476 267.663 125.32 267.971 125.255 268.302C125.19 268.634 125.217 268.976 125.334 269.294C126.385 271.982 134.214 273.436 135.146 273.598H135.206ZM126.711 267.722C128.191 267.722 131.92 270.748 134.022 272.657C131.239 272.04 126.622 270.718 126.03 269.059C125.961 268.858 125.949 268.643 125.993 268.437C126.037 268.23 126.137 268.039 126.282 267.883C126.324 267.83 126.378 267.788 126.44 267.76C126.501 267.732 126.569 267.719 126.637 267.722H126.711Z" fill="#BBB4C1"/>
<path d="M164.392 278.842C164.481 278.842 164.567 278.81 164.634 278.752C164.701 278.694 164.745 278.614 164.758 278.527C164.771 278.439 164.751 278.35 164.703 278.276C164.654 278.201 164.581 278.147 164.495 278.122C150.142 274.551 135.478 272.343 120.704 271.527C120.655 271.523 120.606 271.528 120.56 271.543C120.513 271.558 120.47 271.582 120.433 271.613C120.396 271.644 120.365 271.683 120.343 271.726C120.321 271.769 120.308 271.816 120.304 271.865C120.3 271.963 120.335 272.06 120.401 272.134C120.467 272.208 120.56 272.254 120.659 272.261C135.384 273.071 149.998 275.27 164.303 278.827L164.392 278.842Z" fill="#BBB4C1"/>
<path d="M181.796 281.045H181.929C196.64 276.185 211.92 273.223 227.393 272.231C227.441 272.228 227.489 272.215 227.532 272.193C227.576 272.171 227.614 272.14 227.646 272.103C227.678 272.067 227.702 272.024 227.717 271.978C227.732 271.932 227.737 271.883 227.733 271.835C227.734 271.787 227.723 271.739 227.704 271.695C227.684 271.65 227.655 271.611 227.618 271.579C227.582 271.547 227.539 271.523 227.492 271.509C227.446 271.495 227.397 271.491 227.348 271.497C211.808 272.485 196.459 275.447 181.677 280.311C181.59 280.335 181.515 280.391 181.467 280.467C181.419 280.543 181.4 280.634 181.414 280.723C181.429 280.811 181.476 280.892 181.546 280.948C181.616 281.005 181.705 281.034 181.796 281.03V281.045Z" fill="#BBB4C1"/>
<path d="M212.873 273.671C213.835 273.495 221.679 271.923 222.685 269.264C222.802 268.946 222.828 268.602 222.76 268.27C222.692 267.938 222.533 267.632 222.3 267.384C222.194 267.251 222.059 267.144 221.905 267.071C221.752 266.997 221.583 266.958 221.412 266.958H221.324C218.852 266.958 213.258 272.452 212.607 273.083C212.564 273.146 212.541 273.221 212.541 273.296C212.541 273.372 212.564 273.446 212.607 273.509C212.636 273.555 212.675 273.593 212.721 273.621C212.767 273.649 212.819 273.666 212.873 273.671ZM221.309 267.634C221.59 267.634 221.679 267.737 221.723 267.795C221.872 267.945 221.976 268.133 222.023 268.338C222.07 268.543 222.058 268.757 221.99 268.956C221.368 270.63 216.825 272.026 214.057 272.672C216.144 270.733 219.77 267.634 221.309 267.634Z" fill="#BBB4C1"/>
<path d="M178.509 178.398C178.607 178.398 178.701 178.359 178.771 178.29C178.84 178.222 178.879 178.128 178.879 178.031V175.754C178.879 175.657 178.84 175.563 178.771 175.494C178.701 175.425 178.607 175.387 178.509 175.387C178.411 175.387 178.317 175.425 178.247 175.494C178.178 175.563 178.139 175.657 178.139 175.754V178.031C178.139 178.128 178.178 178.222 178.247 178.29C178.317 178.359 178.411 178.398 178.509 178.398Z" fill="#2E2A32"/>
<path d="M172.337 178.398C172.435 178.398 172.529 178.359 172.599 178.29C172.668 178.222 172.707 178.128 172.707 178.031V175.754C172.707 175.657 172.668 175.563 172.599 175.494C172.529 175.425 172.435 175.387 172.337 175.387C172.239 175.387 172.145 175.425 172.075 175.494C172.006 175.563 171.967 175.657 171.967 175.754V178.031C171.967 178.128 172.006 178.222 172.075 178.29C172.145 178.359 172.239 178.398 172.337 178.398Z" fill="#2E2A32"/>
<path d="M219.47 218.412C219.47 218.412 231.606 236.039 219.189 249.935C207.098 263.493 196.871 269.149 196.871 269.149L191.07 257.764L205.248 234.702L205.381 232.822C208.995 227.097 213.78 222.188 219.426 218.412H219.47Z" fill="#FFD7D7"/>
<path d="M145.442 259.218C144.744 258.537 143.891 258.033 142.956 257.749C139.789 256.706 130.436 255.355 128.674 258.381C126.913 261.407 132.167 262.17 132.167 262.17C132.167 262.17 127.846 262.273 128.926 265.108C129.241 265.827 129.754 266.443 130.406 266.884C131.058 267.326 131.822 267.576 132.611 267.605C132.611 267.605 128.171 268.12 130.732 271.204C133.292 274.289 143.074 274.847 146.301 273.804C149.527 272.761 145.96 269.192 145.96 269.192C145.96 269.192 149.275 267.605 148.698 265.696C148.121 263.786 145.131 263.698 145.131 263.698C145.479 263.445 145.767 263.12 145.975 262.746C146.183 262.371 146.306 261.956 146.336 261.53C146.365 261.103 146.301 260.675 146.146 260.276C145.992 259.876 145.752 259.515 145.442 259.218Z" fill="#FFD7D7"/>
<path d="M144.041 264.167C144.129 264.165 144.214 264.134 144.281 264.078C144.348 264.021 144.394 263.944 144.411 263.858C144.417 263.81 144.414 263.761 144.401 263.714C144.388 263.667 144.365 263.623 144.335 263.585C144.305 263.547 144.267 263.515 144.224 263.491C144.181 263.468 144.134 263.453 144.086 263.447L132.246 261.817C132.15 261.804 132.053 261.829 131.975 261.887C131.898 261.945 131.846 262.03 131.832 262.125C131.825 262.173 131.829 262.222 131.842 262.269C131.855 262.316 131.877 262.36 131.908 262.398C131.938 262.437 131.976 262.469 132.018 262.492C132.061 262.516 132.108 262.531 132.157 262.536L143.997 264.167H144.041Z" fill="#2E2A32"/>
<path d="M144.575 269.515C144.673 269.515 144.768 269.476 144.837 269.408C144.906 269.339 144.945 269.245 144.945 269.148C144.945 269.051 144.906 268.957 144.837 268.888C144.768 268.819 144.673 268.781 144.575 268.781L132.647 267.312C132.551 267.299 132.454 267.324 132.376 267.382C132.299 267.44 132.247 267.525 132.233 267.62C132.224 267.668 132.226 267.716 132.237 267.763C132.248 267.81 132.269 267.854 132.298 267.893C132.327 267.931 132.364 267.963 132.406 267.987C132.448 268.011 132.495 268.026 132.543 268.032L144.487 269.5L144.575 269.515Z" fill="#2E2A32"/>
<path d="M226.34 227.401C226.34 227.401 221.412 211.243 209.809 202.194C201.669 195.819 195.912 194.57 195.912 194.57L200.515 239.49L226.34 227.401Z" fill="#BBB4C1"/>
<path d="M200.925 237.256H201.014C201.062 237.246 201.107 237.226 201.147 237.198C201.187 237.17 201.221 237.135 201.247 237.094C201.273 237.053 201.291 237.007 201.299 236.959C201.308 236.912 201.306 236.863 201.295 236.815L199.297 228.883C199.287 228.836 199.267 228.792 199.239 228.753C199.211 228.713 199.175 228.68 199.133 228.656C199.091 228.631 199.045 228.615 198.997 228.609C198.949 228.602 198.9 228.606 198.853 228.619C198.806 228.629 198.761 228.649 198.721 228.677C198.681 228.705 198.646 228.74 198.62 228.781C198.594 228.822 198.576 228.868 198.568 228.915C198.56 228.963 198.561 229.012 198.572 229.06L200.57 236.992C200.595 237.067 200.642 237.132 200.705 237.18C200.769 237.227 200.846 237.254 200.925 237.256Z" fill="white"/>
<rect x="-0.951312" y="0.951312" width="18.8725" height="11.5862" rx="1.58552" transform="matrix(-1 0 0 1 134.371 184.291)" stroke="white" stroke-width="1.90262"/>
<path d="M135.688 184.941L125.495 192.186L116.177 184.941" stroke="white" stroke-width="1.90262"/>
<path d="M115.759 188.591C115.247 187.868 114.683 187.24 113.891 186.815C113.24 186.464 112.505 186.232 111.795 186.026C110.713 185.713 109.171 185.37 108.265 186.247C107.793 186.703 107.343 187.489 107.852 188.059C108.481 188.764 109.603 189.058 110.489 189.269C110.706 189.32 110.916 189.392 111.132 189.445C111.244 189.472 111.423 189.461 111.525 189.517C111.711 189.62 111.106 189.438 110.894 189.415C110.4 189.359 109.864 189.625 109.657 190.087C108.968 191.623 111.524 192.027 112.562 192.112C112.787 192.131 112.509 192.107 112.431 192.12C112.159 192.165 111.833 192.378 111.606 192.521C111.283 192.724 111.157 193.23 111.375 193.535C111.587 193.831 111.821 193.948 112.089 194.165C112.178 194.238 112.391 194.193 112.504 194.215C112.689 194.252 112.883 194.238 113.071 194.238C113.768 194.238 114.34 194.184 114.959 193.877C115.204 193.755 115.677 193.587 115.805 193.335" stroke="white" stroke-width="1.90262" stroke-linecap="round"/>
<path d="M136.319 188.591C136.831 187.868 137.395 187.24 138.187 186.815C138.838 186.464 139.573 186.232 140.283 186.026C141.365 185.713 142.907 185.37 143.814 186.247C144.285 186.703 144.736 187.489 144.226 188.059C143.597 188.764 142.475 189.058 141.589 189.269C141.372 189.32 141.162 189.392 140.946 189.445C140.834 189.472 140.655 189.461 140.554 189.517C140.367 189.62 140.972 189.438 141.184 189.415C141.678 189.359 142.215 189.625 142.421 190.087C143.11 191.623 140.555 192.027 139.516 192.112C139.291 192.131 139.569 192.107 139.647 192.12C139.919 192.165 140.245 192.378 140.473 192.521C140.795 192.724 140.922 193.23 140.703 193.535C140.491 193.831 140.257 193.948 139.989 194.165C139.9 194.238 139.687 194.193 139.574 194.215C139.389 194.252 139.195 194.238 139.007 194.238C138.31 194.238 137.738 194.184 137.119 193.877C136.874 193.755 136.401 193.587 136.273 193.335" stroke="white" stroke-width="1.90262" stroke-linecap="round"/>
</g>
<defs>
<clipPath id="clip0_2073_30496">
<rect width="300" height="174.757" fill="white" transform="matrix(-1 0 0 1 314.5 158.876)"/>
</clipPath>
</defs>
</svg>
