<svg width="329" height="338" viewBox="0 0 329 338" fill="none" xmlns="http://www.w3.org/2000/svg">
<path d="M45.162 4.52998H32.652V3.03598H45.162V4.52998ZM42.084 2.33398H35.676V0.875977H42.084V2.33398ZM46.35 11.82H31.5V10.236H37.8V9.11998C36.456 9.04798 35.412 8.84398 34.668 8.50798C33.936 8.15998 33.57 7.69798 33.57 7.12198C33.57 6.47398 34.032 5.97598 34.956 5.62798C35.88 5.26798 37.206 5.08798 38.934 5.08798C40.602 5.08798 41.91 5.26798 42.858 5.62798C43.818 5.97598 44.298 6.47398 44.298 7.12198C44.298 7.69798 43.92 8.15998 43.164 8.50798C42.408 8.84398 41.358 9.04798 40.014 9.11998V10.236H46.35V11.82ZM38.934 7.93198C40.89 7.93198 41.868 7.66798 41.868 7.13998C41.868 6.88798 41.61 6.68998 41.094 6.54598C40.59 6.38998 39.87 6.31198 38.934 6.31198C37.986 6.31198 37.26 6.38998 36.756 6.54598C36.252 6.68998 36 6.88798 36 7.13998C36 7.66798 36.978 7.93198 38.934 7.93198ZM44.532 17.292H42.372V14.304H33.156V12.72H44.028C44.364 12.72 44.532 12.888 44.532 13.224V17.292Z" fill="#595062"/>
<path d="M60.5173 4.38598C60.5173 5.41798 59.9893 6.24598 58.9333 6.86998C57.9133 7.49398 56.4733 7.80598 54.6133 7.80598C52.7413 7.80598 51.2953 7.49398 50.2753 6.86998C49.2313 6.24598 48.7093 5.41798 48.7093 4.38598C48.7093 3.38998 49.2313 2.57398 50.2753 1.93798C51.3433 1.30198 52.7893 0.983977 54.6133 0.983977C56.4253 0.983977 57.8653 1.30198 58.9333 1.93798C59.9893 2.56198 60.5173 3.37798 60.5173 4.38598ZM57.2593 5.73598C57.5953 5.57998 57.8533 5.39398 58.0333 5.17798C58.2133 4.94998 58.3033 4.69198 58.3033 4.40398C58.3033 4.11598 58.2133 3.85798 58.0333 3.62998C57.8533 3.40198 57.6013 3.20998 57.2773 3.05398C56.9533 2.89798 56.5633 2.77798 56.1073 2.69398C55.6513 2.60998 55.1533 2.56798 54.6133 2.56798C53.4973 2.56798 52.6033 2.72998 51.9313 3.05398C51.2593 3.37798 50.9233 3.82798 50.9233 4.40398C50.9233 4.69198 51.0133 4.94998 51.1933 5.17798C51.3733 5.39398 51.6253 5.57998 51.9493 5.73598C52.2733 5.87998 52.6633 5.99398 53.1193 6.07798C53.5753 6.16198 54.0733 6.20398 54.6133 6.20398C55.1533 6.20398 55.6453 6.16198 56.0893 6.07798C56.5453 5.99398 56.9353 5.87998 57.2593 5.73598ZM62.0653 10.92H47.1973V9.20998H62.0653V10.92ZM60.6973 16.896H49.5553C49.3633 16.896 49.2313 16.86 49.1593 16.788C49.0993 16.716 49.0693 16.584 49.0693 16.392V12.108H51.1213V15.168H60.6973V16.896Z" fill="#595062"/>
<path d="M81.4892 7.98598H70.4012C70.2092 7.98598 70.0772 7.94998 70.0052 7.87798C69.9452 7.80598 69.9152 7.67398 69.9152 7.48198V1.54198H71.9312V6.25798H81.4892V7.98598ZM82.9652 11.676H76.5932V17.202H74.5232V11.676H68.1152V9.96598H82.9652V11.676Z" fill="#595062"/>
<path d="M98.6625 9.38998H92.4885V13.584H90.4185V9.38998H83.8125V7.66198H94.2885C94.4565 6.86998 94.5945 6.08398 94.7025 5.30398C94.8225 4.51198 94.9065 3.82198 94.9545 3.23398H85.3965V1.50598H96.6105C96.9465 1.50598 97.1145 1.67398 97.1145 2.00998C97.0905 2.40598 97.0485 2.84398 96.9885 3.32398C96.9405 3.79198 96.8805 4.27798 96.8085 4.78198C96.7365 5.28598 96.6525 5.78398 96.5565 6.27598C96.4725 6.76798 96.3825 7.22998 96.2865 7.66198H98.6625V9.38998ZM97.3125 16.896H86.2425C86.0505 16.896 85.9185 16.86 85.8465 16.788C85.7865 16.716 85.7565 16.584 85.7565 16.392V11.298H87.7905V15.168H97.3125V16.896Z" fill="#595062"/>
<path d="M99.6898 12.846C103.626 10.674 105.702 7.63798 105.918 3.73798H100.59V2.00998H107.682C108.018 2.00998 108.186 2.17798 108.186 2.51398C108.042 5.05798 107.412 7.29598 106.296 9.22798C105.18 11.16 103.542 12.816 101.382 14.196L99.6898 12.846ZM112.47 17.202H110.454V1.07398H112.47V7.35598H114.666V9.17398H112.47V17.202Z" fill="#595062"/>
<path d="M124.783 7.35598C124.579 7.84798 124.291 8.27998 123.919 8.65198C123.535 9.02398 123.079 9.31198 122.551 9.51598C122.035 9.71998 121.453 9.82198 120.805 9.82198C120.157 9.82198 119.569 9.71998 119.041 9.51598C118.513 9.31198 118.057 9.02398 117.673 8.65198C117.301 8.27998 117.013 7.84798 116.809 7.35598C116.605 6.85198 116.503 6.29398 116.503 5.68198C116.503 5.10598 116.605 4.56598 116.809 4.06198C117.013 3.55798 117.301 3.11998 117.673 2.74798C118.057 2.37598 118.513 2.08798 119.041 1.88398C119.569 1.66798 120.157 1.55998 120.805 1.55998C121.453 1.55998 122.035 1.66798 122.551 1.88398C123.079 2.08798 123.535 2.37598 123.919 2.74798C124.291 3.11998 124.579 3.55798 124.783 4.06198C124.999 4.56598 125.107 5.10598 125.107 5.68198C125.107 6.29398 124.999 6.85198 124.783 7.35598ZM120.805 8.12998C121.525 8.12998 122.077 7.89598 122.461 7.42798C122.857 6.94798 123.055 6.36598 123.055 5.68198C123.055 4.98598 122.857 4.40998 122.461 3.95398C122.077 3.49798 121.525 3.26998 120.805 3.26998C120.085 3.26998 119.527 3.49798 119.131 3.95398C118.747 4.40998 118.555 4.98598 118.555 5.68198C118.555 6.36598 118.747 6.94798 119.131 7.42798C119.527 7.89598 120.085 8.12998 120.805 8.12998ZM126.637 13.206C125.509 13.458 124.177 13.644 122.641 13.764C121.117 13.872 119.443 13.926 117.619 13.926H115.765V12.162L120.661 12.108C120.937 12.108 121.315 12.096 121.795 12.072C122.275 12.036 122.803 11.994 123.379 11.946C123.955 11.898 124.525 11.838 125.089 11.766C125.665 11.694 126.181 11.616 126.637 11.532V13.206ZM129.085 17.202H127.051V1.09198H129.085V17.202Z" fill="#595062"/>
<path d="M146.133 11.586C146.361 10.314 146.559 8.99998 146.727 7.64398C146.895 6.27598 146.997 4.95598 147.033 3.68398H137.673V1.97398H148.707C149.043 1.97398 149.211 2.14198 149.211 2.47798C149.163 3.16198 149.103 3.88798 149.031 4.65598C148.971 5.41198 148.893 6.18598 148.797 6.97798C148.713 7.78198 148.611 8.57998 148.491 9.37198C148.383 10.152 148.269 10.89 148.149 11.586H146.133ZM150.993 15.42H136.107V13.692H141.327V7.69798H143.397V13.692H150.993V15.42Z" fill="#595062"/>
<path d="M158.536 8.00398V3.44998H154.936V8.00398H158.536ZM160.534 9.20998C160.534 9.40198 160.492 9.53398 160.408 9.60598C160.336 9.67798 160.21 9.71398 160.03 9.71398H153.442C153.25 9.71398 153.118 9.68398 153.046 9.62398C152.986 9.55198 152.956 9.41998 152.956 9.22798V2.24398C152.956 2.06398 152.992 1.93798 153.064 1.86598C153.136 1.78198 153.268 1.73998 153.46 1.73998H160.03C160.366 1.73998 160.534 1.90798 160.534 2.24398V9.20998ZM165.466 12.846H163.45V1.09198H165.466V12.846ZM165.79 16.896H155.098C154.906 16.896 154.774 16.86 154.702 16.788C154.642 16.716 154.612 16.584 154.612 16.392V11.352H156.664V15.168H165.79V16.896Z" fill="#595062"/>
<path d="M169.032 3.77398C169.032 2.96998 169.554 2.30398 170.598 1.77598C171.726 1.24798 173.172 0.983977 174.936 0.983977C176.7 0.983977 178.14 1.24798 179.256 1.77598C180.312 2.29198 180.84 2.95798 180.84 3.77398C180.84 4.19398 180.702 4.57798 180.426 4.92598C180.03 5.42998 179.358 5.82598 178.41 6.11398C177.474 6.40198 176.316 6.54598 174.936 6.54598C174.012 6.54598 173.184 6.47998 172.452 6.34798C171.72 6.21598 171.102 6.02998 170.598 5.78998C170.094 5.54998 169.704 5.26198 169.428 4.92598C169.164 4.57798 169.032 4.19398 169.032 3.77398ZM178.356 4.33198C178.536 4.17598 178.626 3.98998 178.626 3.77398C178.626 3.55798 178.536 3.36598 178.356 3.19798C178.176 3.02998 177.924 2.89198 177.6 2.78398C177.276 2.66398 176.886 2.57398 176.43 2.51398C175.974 2.45398 175.476 2.42398 174.936 2.42398C173.82 2.42398 172.926 2.54398 172.254 2.78398C171.582 3.01198 171.246 3.34198 171.246 3.77398C171.246 3.97798 171.336 4.16398 171.516 4.33198C171.696 4.48798 171.948 4.62598 172.272 4.74598C172.596 4.85398 172.986 4.94398 173.442 5.01598C173.898 5.07598 174.396 5.10598 174.936 5.10598C175.764 5.10598 176.472 5.03998 177.06 4.90798C177.66 4.76398 178.092 4.57198 178.356 4.33198ZM182.37 9.06598H167.52V7.44598H182.37V9.06598ZM180.858 17.094H169.86C169.668 17.094 169.536 17.058 169.464 16.986C169.392 16.914 169.356 16.782 169.356 16.59V13.422C169.356 13.242 169.392 13.116 169.464 13.044C169.536 12.96 169.668 12.918 169.86 12.918H178.212V11.712H169.356V10.182H180.012C180.348 10.182 180.516 10.35 180.516 10.686V13.8C180.516 13.992 180.474 14.124 180.39 14.196C180.318 14.268 180.192 14.304 180.012 14.304H171.66V15.582H180.858V17.094Z" fill="#595062"/>
<path d="M197.168 8.99398C196.808 8.86198 196.441 8.69398 196.07 8.48998C195.698 8.28598 195.35 8.06398 195.025 7.82398C194.689 7.58398 194.389 7.33798 194.126 7.08598C193.874 6.83398 193.688 6.59998 193.568 6.38398C193.472 6.62398 193.304 6.88198 193.064 7.15798C192.836 7.43398 192.553 7.70398 192.217 7.96798C191.846 8.26798 191.456 8.53798 191.048 8.77798C190.652 9.00598 190.232 9.21598 189.788 9.40798L188.42 8.02198C191.132 7.14598 192.488 5.61598 192.488 3.43198H189.572V1.75798H197.581V3.43198H194.63C194.63 3.98398 194.72 4.48198 194.9 4.92598C195.092 5.35798 195.355 5.74198 195.691 6.07798C196.376 6.76198 197.252 7.25398 198.32 7.55398L197.168 8.99398ZM201.812 9.51598H199.76V1.09198H201.812V4.06198H203.864V5.78998H201.812V9.51598ZM202.172 17.094H191.786C191.594 17.094 191.462 17.058 191.39 16.986C191.318 16.914 191.282 16.782 191.282 16.59V13.404C191.282 13.224 191.318 13.098 191.39 13.026C191.462 12.942 191.594 12.9 191.786 12.9H199.652V11.748H191.282V10.164H201.308C201.644 10.164 201.812 10.332 201.812 10.668V13.818C201.812 14.01 201.77 14.142 201.686 14.214C201.613 14.286 201.488 14.322 201.308 14.322H193.46V15.51H202.172V17.094Z" fill="#595062"/>
<path d="M222.549 6.43798H211.695C211.503 6.43798 211.371 6.40198 211.299 6.32998C211.239 6.25798 211.209 6.12598 211.209 5.93398V1.97398C211.209 1.79398 211.239 1.66798 211.299 1.59598C211.371 1.51198 211.503 1.46998 211.695 1.46998H222.369V3.03598H213.279V4.85398H222.549V6.43798ZM224.205 9.20998H209.355V7.57198H224.205V9.20998ZM222.693 17.094H211.695C211.503 17.094 211.371 17.058 211.299 16.986C211.227 16.914 211.191 16.782 211.191 16.59V13.512C211.191 13.332 211.227 13.206 211.299 13.134C211.371 13.05 211.503 13.008 211.695 13.008H220.047V11.946H211.191V10.38H221.847C222.183 10.38 222.351 10.548 222.351 10.884V13.944C222.351 14.136 222.309 14.268 222.225 14.34C222.153 14.412 222.027 14.448 221.847 14.448H213.495V15.546H222.693V17.094Z" fill="#595062"/>
<path d="M230.921 11.712C231.209 11.46 231.431 11.154 231.587 10.794C231.767 10.398 231.899 9.93598 231.983 9.40798C232.079 8.86798 232.127 8.28598 232.127 7.66198C232.127 7.04998 232.079 6.47998 231.983 5.95198C231.899 5.41198 231.767 4.94998 231.587 4.56598C231.419 4.18198 231.197 3.88198 230.921 3.66598C230.657 3.43798 230.345 3.32398 229.985 3.32398C229.613 3.32398 229.289 3.43798 229.013 3.66598C228.749 3.88198 228.533 4.18198 228.365 4.56598C228.185 4.94998 228.053 5.41198 227.969 5.95198C227.885 6.47998 227.843 7.04998 227.843 7.66198C227.843 8.28598 227.885 8.86798 227.969 9.40798C228.053 9.93598 228.185 10.398 228.365 10.794C228.533 11.178 228.749 11.484 229.013 11.712C229.289 11.928 229.613 12.036 229.985 12.036C230.333 12.036 230.645 11.928 230.921 11.712ZM238.661 17.202H236.609V8.30998H234.143C234.095 9.26998 233.957 10.098 233.729 10.794C233.513 11.49 233.219 12.066 232.847 12.522C232.487 12.966 232.061 13.302 231.569 13.53C231.089 13.746 230.561 13.854 229.985 13.854C228.761 13.854 227.759 13.356 226.979 12.36C226.199 11.364 225.809 9.80398 225.809 7.67998C225.809 5.55598 226.199 3.99598 226.979 2.99998C227.759 2.00398 228.761 1.50598 229.985 1.50598C231.101 1.50598 232.031 1.91398 232.775 2.72998C233.519 3.53398 233.963 4.79398 234.107 6.50998H236.609V1.09198H238.661V17.202Z" fill="#595062"/>
<path d="M253.746 8.65198C253.242 8.53198 252.72 8.37598 252.18 8.18398C251.652 7.99198 251.136 7.75798 250.632 7.48198C250.128 7.21798 249.66 6.91198 249.228 6.56398C248.808 6.20398 248.454 5.80798 248.166 5.37598C247.662 6.13198 246.948 6.78598 246.024 7.33798C245.112 7.88998 243.984 8.32798 242.64 8.65198L241.254 7.17598C241.974 7.01998 242.652 6.82798 243.288 6.59998C243.936 6.37198 244.512 6.10198 245.016 5.78998C245.532 5.46598 245.958 5.09998 246.294 4.69198C246.642 4.28398 246.876 3.82198 246.996 3.30598H242.406V1.59598H253.908V3.30598H249.318C249.426 3.80998 249.648 4.27198 249.984 4.69198C250.332 5.09998 250.764 5.46598 251.28 5.78998C251.784 6.11398 252.354 6.39598 252.99 6.63598C253.638 6.87598 254.31 7.06798 255.006 7.21198L253.746 8.65198ZM255.6 11.784H249.264V17.202H247.194V11.784H240.75V10.074H255.6V11.784Z" fill="#595062"/>
<path d="M266.707 12.63C266.443 12.69 266.113 12.756 265.717 12.828C265.333 12.9 264.907 12.966 264.439 13.026C263.971 13.086 263.485 13.14 262.981 13.188C262.477 13.236 261.973 13.26 261.469 13.26L258.049 13.278C257.857 13.278 257.725 13.242 257.653 13.17C257.593 13.098 257.563 12.966 257.563 12.774V1.73998H259.579V11.514H261.505C261.877 11.514 262.297 11.496 262.765 11.46C263.233 11.424 263.701 11.376 264.169 11.316C264.637 11.268 265.093 11.208 265.537 11.136C265.981 11.064 266.371 10.992 266.707 10.92V12.63ZM269.407 17.202H267.373V1.07398H269.407V6.97798H271.603V8.81398H269.407V17.202Z" fill="#595062"/>
<path d="M282.027 1.75798C282.759 1.99798 283.359 2.31598 283.827 2.71198C284.331 3.10798 284.709 3.58198 284.961 4.13398C285.213 4.67398 285.339 5.25598 285.339 5.87998C285.339 7.18798 284.835 8.24398 283.827 9.04798C283.323 9.44398 282.717 9.75598 282.009 9.98398C281.301 10.2 280.491 10.308 279.579 10.308C278.643 10.308 277.821 10.2 277.113 9.98398C276.417 9.75598 275.817 9.44398 275.313 9.04798C274.305 8.25598 273.801 7.19998 273.801 5.87998C273.801 5.25598 273.921 4.67398 274.161 4.13398C274.413 3.58198 274.791 3.10798 275.295 2.71198C275.799 2.30398 276.405 1.98598 277.113 1.75798C277.821 1.52998 278.643 1.41598 279.579 1.41598C280.539 1.41598 281.355 1.52998 282.027 1.75798ZM282.153 7.89598C282.837 7.41598 283.179 6.74398 283.179 5.87998C283.179 5.02798 282.837 4.35598 282.153 3.86398C281.445 3.37198 280.587 3.12598 279.579 3.12598C279.051 3.12598 278.565 3.19198 278.121 3.32398C277.689 3.44398 277.311 3.62398 276.987 3.86398C276.675 4.09198 276.429 4.37998 276.249 4.72798C276.069 5.06398 275.979 5.44798 275.979 5.87998C275.979 6.31198 276.069 6.69598 276.249 7.03198C276.429 7.36798 276.675 7.65598 276.987 7.89598C277.311 8.12398 277.689 8.29798 278.121 8.41798C278.565 8.53798 279.051 8.59798 279.579 8.59798C280.611 8.59798 281.469 8.36398 282.153 7.89598ZM286.995 15.42H272.127V13.692H275.565V10.488H277.635V13.692H281.559V10.488H283.593V13.692H286.995V15.42Z" fill="#595062"/>
<path d="M292.504 15.852H290.182V13.674H292.504V15.852ZM292.27 12.198H290.344C290.308 11.826 290.278 11.496 290.254 11.208C290.242 10.92 290.236 10.638 290.236 10.362C290.236 9.71398 290.392 9.16798 290.704 8.72398C291.016 8.27998 291.388 7.87198 291.82 7.49998C292.276 7.11598 292.648 6.71998 292.936 6.31198C293.236 5.89198 293.386 5.41198 293.386 4.87198C293.386 3.62398 292.81 2.99998 291.658 2.99998C291.226 2.99998 290.782 3.10798 290.326 3.32398C289.882 3.53998 289.456 3.83998 289.048 4.22398L288.094 2.85598C288.61 2.31598 289.18 1.91998 289.804 1.66798C290.428 1.40398 291.154 1.27198 291.982 1.27198C292.546 1.27198 293.044 1.36798 293.476 1.55998C293.92 1.73998 294.292 1.99198 294.592 2.31598C294.892 2.62798 295.12 2.99998 295.276 3.43198C295.432 3.85198 295.51 4.30198 295.51 4.78198C295.51 5.14198 295.45 5.48998 295.33 5.82598C295.222 6.14998 295.078 6.46198 294.898 6.76198C294.718 7.06198 294.508 7.33798 294.268 7.58998C294.04 7.84198 293.806 8.06998 293.566 8.27398C293.158 8.58598 292.84 8.94598 292.612 9.35398C292.384 9.76198 292.27 10.326 292.27 11.046V12.198Z" fill="#595062"/>
<path d="M84.5167 41.762V34.902H80.6806V41.762H84.5167ZM85.3987 42.252C85.3987 42.364 85.38 42.4387 85.3427 42.476C85.3053 42.504 85.24 42.518 85.1467 42.518H80.0786C79.9667 42.518 79.892 42.504 79.8546 42.476C79.8266 42.4387 79.8126 42.364 79.8126 42.252V34.412C79.8126 34.3093 79.8266 34.2393 79.8546 34.202C79.892 34.1647 79.9667 34.146 80.0786 34.146H85.1467C85.24 34.146 85.3053 34.1647 85.3427 34.202C85.38 34.2393 85.3987 34.3093 85.3987 34.412V42.252ZM88.7307 45.822H87.8067V33.376H88.7307V37.758H90.6767V38.542H88.7307V45.822Z" fill="#61586A"/>
<path d="M101.052 45.402C101.052 45.5047 101.028 45.5747 100.982 45.612C100.944 45.6493 100.879 45.668 100.786 45.668H93.0716C92.969 45.668 92.899 45.6493 92.8616 45.612C92.8243 45.5747 92.8056 45.5047 92.8056 45.402V41.706C92.8056 41.6127 92.8243 41.5473 92.8616 41.51C92.899 41.4633 92.969 41.44 93.0716 41.44H100.786C100.963 41.44 101.052 41.5287 101.052 41.706V45.402ZM95.5496 37.996C95.475 37.9867 95.405 37.9773 95.3396 37.968L95.1436 37.94C94.6863 37.828 94.2383 37.6647 93.7996 37.45C93.0156 37.0487 92.6236 36.4653 92.6236 35.7C92.6236 35.3453 92.7216 35.0187 92.9176 34.72C93.1136 34.4307 93.4076 34.1787 93.7996 33.964C94.173 33.7493 94.621 33.586 95.1436 33.474C95.6756 33.3527 96.2636 33.292 96.9076 33.292C97.5516 33.292 98.135 33.3527 98.6576 33.474C99.1803 33.586 99.6283 33.7493 100.002 33.964C100.375 34.1693 100.664 34.4213 100.87 34.72C101.084 35.0187 101.192 35.3453 101.192 35.7C101.192 36.0733 101.084 36.4093 100.87 36.708C100.664 36.9973 100.375 37.2447 100.002 37.45C99.6283 37.6647 99.1803 37.828 98.6576 37.94C98.135 38.0427 97.5516 38.094 96.9076 38.094C96.581 38.094 96.273 38.08 95.9836 38.052C95.909 38.0427 95.8343 38.0333 95.7596 38.024C95.6943 38.0147 95.6243 38.0053 95.5496 37.996ZM99.3296 36.932C99.6283 36.7733 99.8616 36.5867 100.03 36.372C100.207 36.1573 100.296 35.9287 100.296 35.686C100.296 35.4433 100.207 35.2193 100.03 35.014C99.8616 34.7993 99.6283 34.6127 99.3296 34.454C99.031 34.3047 98.6716 34.188 98.2516 34.104C97.841 34.0107 97.393 33.964 96.9076 33.964C96.4036 33.964 95.9463 34.0107 95.5356 34.104C95.125 34.188 94.7703 34.3047 94.4716 34.454C93.837 34.79 93.5196 35.2007 93.5196 35.686C93.5196 36.1807 93.837 36.596 94.4716 36.932C94.7703 37.0907 95.125 37.2167 95.5356 37.31C95.9463 37.394 96.4036 37.436 96.9076 37.436C97.393 37.436 97.841 37.394 98.2516 37.31C98.6716 37.2167 99.031 37.0907 99.3296 36.932ZM100.17 44.94V42.168H93.6596V44.94H100.17ZM102.62 40.012H91.2236V39.27H102.62V40.012Z" fill="#61586A"/>
<path d="M113.079 36.428C112.976 36.5587 112.85 36.6847 112.701 36.806C112.561 36.918 112.397 37.0207 112.211 37.114C111.837 37.31 111.389 37.4593 110.867 37.562C110.344 37.6553 109.761 37.702 109.117 37.702C107.829 37.702 106.793 37.506 106.009 37.114C105.225 36.722 104.833 36.1807 104.833 35.49C104.833 34.8087 105.225 34.2767 106.009 33.894C106.382 33.7073 106.83 33.5627 107.353 33.46C107.885 33.348 108.473 33.292 109.117 33.292C109.761 33.292 110.344 33.348 110.867 33.46C111.389 33.5627 111.837 33.7073 112.211 33.894C112.584 34.0807 112.873 34.3093 113.079 34.58C113.293 34.8507 113.401 35.154 113.401 35.49C113.401 35.8167 113.293 36.1293 113.079 36.428ZM111.539 36.596C111.837 36.456 112.071 36.2927 112.239 36.106C112.416 35.9193 112.505 35.7187 112.505 35.504C112.505 35.28 112.416 35.0747 112.239 34.888C112.071 34.7013 111.837 34.5427 111.539 34.412C111.24 34.2813 110.881 34.1787 110.461 34.104C110.05 34.02 109.602 33.978 109.117 33.978C108.613 33.978 108.155 34.02 107.745 34.104C107.334 34.1787 106.979 34.2813 106.681 34.412C106.046 34.6827 105.729 35.0467 105.729 35.504C105.729 35.9333 106.046 36.2973 106.681 36.596C106.979 36.736 107.334 36.848 107.745 36.932C108.155 37.0067 108.613 37.044 109.117 37.044C109.602 37.044 110.05 37.0067 110.461 36.932C110.881 36.848 111.24 36.736 111.539 36.596ZM114.829 39.438H103.433V38.71H114.829V39.438ZM113.541 45.654H105.281C105.178 45.654 105.108 45.6353 105.071 45.598C105.033 45.5607 105.015 45.4907 105.015 45.388V43.022C105.015 42.9287 105.033 42.8633 105.071 42.826C105.108 42.7793 105.178 42.756 105.281 42.756H112.351V41.342H105.015V40.628H112.995C113.172 40.628 113.261 40.7167 113.261 40.894V43.19C113.261 43.2927 113.237 43.3627 113.191 43.4C113.153 43.4373 113.088 43.456 112.995 43.456H105.911V44.954H113.541V45.654Z" fill="#61586A"/>
<path d="M127.976 41.972C127.677 42.028 127.327 42.0887 126.926 42.154C126.534 42.2193 126.123 42.28 125.694 42.336C125.246 42.392 124.812 42.4387 124.392 42.476C123.972 42.504 123.589 42.518 123.244 42.518H120.878C120.775 42.518 120.705 42.4993 120.668 42.462C120.631 42.4153 120.612 42.3453 120.612 42.252V34.398C120.612 34.314 120.631 34.2487 120.668 34.202C120.705 34.1553 120.775 34.132 120.878 34.132H126.24V34.888H121.494V41.72L123.076 41.706C123.58 41.706 124.084 41.6873 124.588 41.65C125.101 41.6033 125.582 41.552 126.03 41.496C126.478 41.44 126.87 41.384 127.206 41.328C127.551 41.2627 127.808 41.2113 127.976 41.174V41.972ZM129.418 45.822H128.494V33.376H129.418V37.744H131.336V38.528H129.418V45.822Z" fill="#61586A"/>
<path d="M138.295 36.484H132.359V35.728H138.295V36.484ZM136.951 34.524H133.703V33.754H136.951V34.524ZM137.959 40.418C137.959 41.23 137.721 41.8927 137.245 42.406C136.788 42.9193 136.158 43.176 135.355 43.176C134.944 43.176 134.576 43.1107 134.249 42.98C133.932 42.84 133.661 42.6487 133.437 42.406C133.213 42.1633 133.04 41.874 132.919 41.538C132.807 41.202 132.751 40.8287 132.751 40.418C132.751 39.606 132.984 38.9387 133.451 38.416C133.927 37.8933 134.562 37.632 135.355 37.632C136.148 37.632 136.778 37.8933 137.245 38.416C137.721 38.9387 137.959 39.606 137.959 40.418ZM135.355 42.434C135.887 42.434 136.312 42.2473 136.629 41.874C136.946 41.4913 137.105 41.006 137.105 40.418C137.105 39.83 136.951 39.3447 136.643 38.962C136.344 38.57 135.915 38.374 135.355 38.374C134.795 38.374 134.361 38.57 134.053 38.962C133.754 39.3447 133.605 39.83 133.605 40.418C133.605 41.006 133.754 41.4913 134.053 41.874C134.361 42.2473 134.795 42.434 135.355 42.434ZM142.719 45.808H141.823V39.242H140.059V45.22H139.191V33.586H140.059V38.43H141.823V33.376H142.719V45.808Z" fill="#61586A"/>
<path d="M158.149 37.464H150.015C149.912 37.464 149.842 37.4453 149.805 37.408C149.767 37.3613 149.749 37.2913 149.749 37.198V34.034C149.749 33.95 149.767 33.8847 149.805 33.838C149.842 33.7913 149.912 33.768 150.015 33.768H158.023V34.482H150.603V36.75H158.149V37.464ZM159.577 39.438H148.181V38.71H159.577V39.438ZM158.289 45.654H150.029C149.926 45.654 149.856 45.6353 149.819 45.598C149.781 45.5607 149.763 45.4907 149.763 45.388V43.092C149.763 42.9987 149.781 42.9333 149.819 42.896C149.856 42.8493 149.926 42.826 150.029 42.826H157.099V41.482H149.763V40.768H157.743C157.92 40.768 158.009 40.8567 158.009 41.034V43.26C158.009 43.3627 157.985 43.4327 157.939 43.47C157.901 43.5073 157.836 43.526 157.743 43.526H150.659V44.954H158.289V45.654Z" fill="#61586A"/>
<path d="M170.68 45.808H169.784V38.626H166.998C166.96 40.138 166.676 41.2627 166.144 42C165.612 42.728 164.921 43.092 164.072 43.092C163.633 43.092 163.232 42.994 162.868 42.798C162.513 42.602 162.205 42.308 161.944 41.916C161.682 41.524 161.477 41.034 161.328 40.446C161.188 39.858 161.118 39.172 161.118 38.388C161.118 37.604 161.188 36.918 161.328 36.33C161.477 35.742 161.682 35.252 161.944 34.86C162.205 34.468 162.513 34.174 162.868 33.978C163.232 33.782 163.633 33.684 164.072 33.684C164.884 33.684 165.556 34.034 166.088 34.734C166.62 35.4247 166.918 36.47 166.984 37.87H169.784V33.376H170.68V45.808ZM165.29 41.72C165.616 41.3093 165.85 40.7447 165.99 40.026C166.083 39.6433 166.13 39.0973 166.13 38.388C166.111 37.184 165.924 36.232 165.57 35.532C165.215 34.8133 164.716 34.454 164.072 34.454C163.437 34.454 162.928 34.8133 162.546 35.532C162.172 36.2413 161.986 37.1933 161.986 38.388C161.986 38.9947 162.032 39.5407 162.126 40.026C162.228 40.502 162.368 40.9127 162.546 41.258C162.723 41.6033 162.938 41.8693 163.19 42.056C163.451 42.2333 163.745 42.322 164.072 42.322C164.566 42.322 164.972 42.1213 165.29 41.72Z" fill="#61586A"/>
<path d="M182.763 39.102C180.429 38.4767 178.945 37.45 178.311 36.022C177.891 36.8153 177.312 37.45 176.575 37.926C175.847 38.402 174.932 38.794 173.831 39.102L173.145 38.416C173.789 38.276 174.391 38.0893 174.951 37.856C175.511 37.6227 176.005 37.3427 176.435 37.016C176.855 36.6987 177.191 36.3393 177.443 35.938C177.695 35.5273 177.821 35.084 177.821 34.608H174.055V33.852H182.553V34.608H178.759C178.759 35.112 178.885 35.5647 179.137 35.966C179.398 36.3673 179.753 36.7313 180.201 37.058C180.63 37.3753 181.125 37.6507 181.685 37.884C182.245 38.108 182.819 38.2807 183.407 38.402L182.763 39.102ZM183.995 41.258H178.801V45.808H177.905V41.258H172.599V40.502H183.995V41.258Z" fill="#61586A"/>
<path d="M194.916 37.688H186.642C186.539 37.688 186.469 37.6693 186.432 37.632C186.394 37.5853 186.376 37.5153 186.376 37.422V33.446H187.244V36.946H194.916V37.688ZM196.204 40.348H184.808V39.606H196.204V40.348ZM195.098 45.542H186.656C186.553 45.542 186.483 45.5233 186.446 45.486C186.408 45.4487 186.39 45.3787 186.39 45.276V41.65H187.216V44.786H195.098V45.542Z" fill="#61586A"/>
<path d="M201.245 40.348C202.85 39.8627 204.12 39.116 205.053 38.108C206.005 37.072 206.584 35.9473 206.789 34.734H202.183V33.978H207.489C207.666 33.978 207.755 34.0667 207.755 34.244C207.652 35 207.456 35.7187 207.167 36.4C206.878 37.072 206.49 37.702 206.005 38.29C205.52 38.878 204.936 39.4053 204.255 39.872C203.574 40.3387 202.794 40.726 201.917 41.034L201.245 40.348ZM211.409 41.818H210.527V37.506H207.853V36.736H210.527V33.376H211.409V41.818ZM211.493 45.794C211.073 45.6727 210.662 45.5093 210.261 45.304C209.86 45.0987 209.486 44.856 209.141 44.576C208.786 44.296 208.469 43.9927 208.189 43.666C207.918 43.33 207.699 42.966 207.531 42.574C207.139 43.302 206.616 43.9553 205.963 44.534C205.31 45.1127 204.502 45.5327 203.541 45.794L202.869 45.122C203.466 44.9727 204.017 44.758 204.521 44.478C205.034 44.2073 205.473 43.8947 205.837 43.54C206.201 43.1947 206.486 42.8167 206.691 42.406C206.906 41.9953 207.013 41.566 207.013 41.118V40.516H208.035V41.118C208.035 41.566 208.142 42 208.357 42.42C208.572 42.84 208.866 43.2273 209.239 43.582C209.612 43.9367 210.051 44.2493 210.555 44.52C211.059 44.7907 211.596 44.996 212.165 45.136L211.493 45.794Z" fill="#61586A"/>
<path d="M218.802 39.032V34.72H214.952V39.032H218.802ZM219.642 39.494C219.642 39.606 219.623 39.6807 219.586 39.718C219.549 39.746 219.483 39.76 219.39 39.76H214.392C214.28 39.76 214.205 39.746 214.168 39.718C214.14 39.6807 214.126 39.606 214.126 39.494V34.258C214.126 34.1553 214.14 34.0853 214.168 34.048C214.205 34.0107 214.28 33.992 214.392 33.992H219.39C219.483 33.992 219.549 34.0107 219.586 34.048C219.623 34.0853 219.642 34.1553 219.642 34.258V39.494ZM223.184 42.63H222.302V33.376H223.184V36.512H224.948V37.282H223.184V42.63ZM223.604 45.542H215.75C215.647 45.542 215.577 45.5233 215.54 45.486C215.503 45.4487 215.484 45.3787 215.484 45.276V41.482H216.366V44.786H223.604V45.542Z" fill="#61586A"/>
<path d="M232.971 33.894C233.503 34.0527 233.956 34.2767 234.329 34.566C235.132 35.154 235.533 35.9707 235.533 37.016C235.533 37.5573 235.43 38.0287 235.225 38.43C235.02 38.822 234.721 39.172 234.329 39.48C233.956 39.7693 233.503 39.9933 232.971 40.152C232.439 40.3013 231.851 40.376 231.207 40.376C230.554 40.376 229.961 40.3013 229.429 40.152C228.897 39.9933 228.444 39.7693 228.071 39.48C227.278 38.9107 226.881 38.0893 226.881 37.016C226.881 36.5027 226.979 36.0407 227.175 35.63C227.38 35.21 227.679 34.8553 228.071 34.566C228.444 34.2767 228.897 34.0527 229.429 33.894C229.961 33.7353 230.554 33.656 231.207 33.656C231.823 33.656 232.411 33.7353 232.971 33.894ZM231.207 39.662C232.215 39.662 233.027 39.424 233.643 38.948C233.951 38.724 234.189 38.4533 234.357 38.136C234.525 37.8093 234.609 37.436 234.609 37.016C234.609 36.6147 234.525 36.2507 234.357 35.924C234.189 35.5973 233.951 35.3173 233.643 35.084C233.344 34.86 232.99 34.6873 232.579 34.566C232.168 34.4353 231.711 34.37 231.207 34.37C230.703 34.37 230.241 34.4353 229.821 34.566C229.41 34.6873 229.056 34.86 228.757 35.084C228.458 35.3173 228.225 35.5973 228.057 35.924C227.889 36.2507 227.805 36.6147 227.805 37.016C227.805 37.436 227.889 37.8093 228.057 38.136C228.225 38.4533 228.458 38.724 228.757 38.948C229.373 39.424 230.19 39.662 231.207 39.662ZM236.919 43.974H225.467V43.218H236.919V43.974Z" fill="#61586A"/>
<path d="M249.128 44.128H237.676V43.372H242.954V40.852H239.538C239.435 40.852 239.365 40.8287 239.328 40.782C239.291 40.7353 239.272 40.6653 239.272 40.572V37.352C239.272 37.268 239.291 37.2073 239.328 37.17C239.365 37.1233 239.435 37.1 239.538 37.1H246.454V34.748H239.23V34.02H247.07C247.247 34.02 247.336 34.1087 247.336 34.286V37.562C247.336 37.7393 247.247 37.828 247.07 37.828H240.14V40.124H247.84V40.852H243.822V43.372H249.128V44.128Z" fill="#61586A"/>
<path d="M70.8665 62.528H62.4385C62.3358 62.528 62.2658 62.5093 62.2285 62.472C62.1912 62.4253 62.1725 62.3553 62.1725 62.262V57.768H63.0545V61.786H70.8665V62.528ZM72.0425 65.104H66.8205V69.808H65.9105V65.104H60.6465V64.348H72.0425V65.104Z" fill="#61586A"/>
<path d="M78.8615 69.808H77.9655V64.208H72.8275V63.452H81.3535C81.4841 62.6587 81.5961 61.842 81.6895 61.002C81.7921 60.162 81.8715 59.364 81.9275 58.608H74.2135V57.866H82.5575C82.7348 57.866 82.8235 57.9547 82.8235 58.132C82.7955 58.5053 82.7581 58.9253 82.7115 59.392C82.6741 59.8493 82.6275 60.316 82.5715 60.792C82.5155 61.2773 82.4548 61.7533 82.3895 62.22C82.3335 62.6773 82.2775 63.088 82.2215 63.452H84.2795V64.208H78.8615V69.808Z" fill="#61586A"/>
<path d="M93.3245 65.972C93.1191 66.0187 92.8625 66.07 92.5545 66.126C92.2465 66.1727 91.9151 66.2193 91.5605 66.266C91.1965 66.3127 90.8231 66.3593 90.4405 66.406C90.0671 66.4433 89.7125 66.4667 89.3765 66.476C88.9565 66.4947 88.5598 66.5087 88.1865 66.518C87.8131 66.518 87.4865 66.518 87.2065 66.518C86.9171 66.5273 86.6838 66.532 86.5065 66.532C86.3291 66.5227 86.2358 66.518 86.2265 66.518C86.1238 66.518 86.0538 66.4993 86.0165 66.462C85.9791 66.4153 85.9605 66.3453 85.9605 66.252V57.936H86.8425V65.692L89.4185 65.664C89.7171 65.6547 90.0485 65.6313 90.4125 65.594C90.7765 65.5567 91.1358 65.51 91.4905 65.454C91.8545 65.4073 92.1951 65.356 92.5125 65.3C92.8391 65.244 93.1098 65.1927 93.3245 65.146V65.972ZM94.7805 69.808H93.8705V57.376H94.7805V62.01H96.7125V62.822H94.7805V69.808Z" fill="#61586A"/>
<path d="M109.608 65.972C109.309 66.028 108.959 66.0887 108.558 66.154C108.166 66.2193 107.755 66.28 107.326 66.336C106.878 66.392 106.444 66.4387 106.024 66.476C105.604 66.504 105.221 66.518 104.876 66.518H102.51C102.407 66.518 102.337 66.4993 102.3 66.462C102.263 66.4153 102.244 66.3453 102.244 66.252V58.398C102.244 58.314 102.263 58.2487 102.3 58.202C102.337 58.1553 102.407 58.132 102.51 58.132H107.872V58.888H103.126V65.72L104.708 65.706C105.212 65.706 105.716 65.6873 106.22 65.65C106.733 65.6033 107.214 65.552 107.662 65.496C108.11 65.44 108.502 65.384 108.838 65.328C109.183 65.2627 109.44 65.2113 109.608 65.174V65.972ZM111.05 69.822H110.126V57.376H111.05V61.744H112.968V62.528H111.05V69.822Z" fill="#61586A"/>
<path d="M120.837 64.054C119.988 63.69 119.306 63.2747 118.793 62.808C118.28 62.3413 117.878 61.8093 117.589 61.212C117.328 61.912 116.94 62.528 116.427 63.06C115.914 63.592 115.232 64.0587 114.383 64.46L113.571 63.886C114.672 63.4473 115.54 62.85 116.175 62.094C116.81 61.3287 117.127 60.3767 117.127 59.238V58.72H114.495V57.978H120.613V58.72H118.023V59.266C118.023 60.3113 118.345 61.1747 118.989 61.856C119.633 62.5373 120.468 63.0553 121.495 63.41L120.837 64.054ZM124.029 64.964H123.133V61.016H120.333V60.26H123.133V57.362H124.029V64.964ZM124.239 67.554C124.239 68.2727 123.875 68.8607 123.147 69.318C122.428 69.794 121.397 70.032 120.053 70.032C118.737 70.032 117.71 69.794 116.973 69.318C116.236 68.8607 115.867 68.2727 115.867 67.554C115.867 66.854 116.236 66.266 116.973 65.79C117.71 65.314 118.737 65.076 120.053 65.076C121.397 65.076 122.428 65.314 123.147 65.79C123.875 66.266 124.239 66.854 124.239 67.554ZM123.301 67.554C123.301 66.994 122.993 66.5647 122.377 66.266C121.77 65.958 120.996 65.804 120.053 65.804C119.596 65.804 119.166 65.846 118.765 65.93C118.373 66.0047 118.032 66.1167 117.743 66.266C117.118 66.5553 116.805 66.9847 116.805 67.554C116.805 67.834 116.889 68.0813 117.057 68.296C117.225 68.5107 117.454 68.6927 117.743 68.842C118.042 68.9913 118.387 69.1033 118.779 69.178C119.171 69.262 119.596 69.304 120.053 69.304C120.51 69.304 120.935 69.262 121.327 69.178C121.728 69.1033 122.074 68.9913 122.363 68.842C122.652 68.6927 122.881 68.5107 123.049 68.296C123.217 68.0813 123.301 67.834 123.301 67.554Z" fill="#61586A"/>
<path d="M131.59 58.118H127.908V57.376H131.59V58.118ZM133.354 60.008H126.228V59.266H133.354V60.008ZM132.794 62.948C132.794 63.6013 132.533 64.1193 132.01 64.502C131.487 64.8753 130.745 65.062 129.784 65.062C128.823 65.062 128.081 64.8753 127.558 64.502C127.035 64.1193 126.774 63.6013 126.774 62.948C126.774 62.304 127.035 61.7907 127.558 61.408C128.081 61.0253 128.823 60.834 129.784 60.834C130.745 60.834 131.487 61.0253 132.01 61.408C132.533 61.7907 132.794 62.304 132.794 62.948ZM131.31 63.984C131.693 63.7413 131.884 63.396 131.884 62.948C131.884 62.5 131.693 62.1593 131.31 61.926C130.937 61.6833 130.428 61.562 129.784 61.562C129.14 61.562 128.627 61.6833 128.244 61.926C127.871 62.1593 127.684 62.5 127.684 62.948C127.684 63.396 127.871 63.7413 128.244 63.984C128.627 64.2173 129.14 64.334 129.784 64.334C130.428 64.334 130.937 64.2173 131.31 63.984ZM135.79 66.616H134.908V57.376H135.79V61.212H137.596V61.982H135.79V66.616ZM136.224 69.542H128.398C128.295 69.542 128.225 69.5233 128.188 69.486C128.151 69.4487 128.132 69.3787 128.132 69.276V65.986H129.014V68.786H136.224V69.542Z" fill="#61586A"/>
<path d="M150.855 66.224C150.669 66.2613 150.421 66.3033 150.113 66.35C149.815 66.3967 149.469 66.4433 149.077 66.49C148.704 66.5367 148.307 66.5787 147.887 66.616C147.477 66.6533 147.075 66.6767 146.683 66.686C146.291 66.7047 145.909 66.7187 145.535 66.728C145.162 66.728 144.826 66.728 144.527 66.728H143.449C143.347 66.728 143.277 66.7093 143.239 66.672C143.202 66.6253 143.183 66.5553 143.183 66.462V62.22C143.183 62.136 143.202 62.0707 143.239 62.024C143.277 61.9773 143.347 61.954 143.449 61.954H147.845V58.79H143.183V58.034H148.433C148.611 58.034 148.699 58.1227 148.699 58.3V62.43C148.699 62.6073 148.611 62.696 148.433 62.696H144.065V65.93L146.403 65.902C146.823 65.902 147.253 65.8833 147.691 65.846C148.139 65.8087 148.573 65.7667 148.993 65.72C149.395 65.664 149.759 65.6127 150.085 65.566C150.421 65.5193 150.678 65.4773 150.855 65.44V66.224ZM152.297 69.808H151.401V57.376H152.297V69.808Z" fill="#61586A"/>
<path d="M164.422 64.642C163.937 64.4553 163.461 64.2267 162.994 63.956C162.537 63.6853 162.112 63.3773 161.72 63.032C161.319 62.696 160.964 62.3273 160.656 61.926C160.348 61.5247 160.11 61.086 159.942 60.61C159.774 61.0393 159.541 61.4547 159.242 61.856C158.953 62.248 158.612 62.6167 158.22 62.962C157.828 63.3167 157.394 63.6387 156.918 63.928C156.452 64.208 155.962 64.4507 155.448 64.656L154.692 63.928C155.28 63.7507 155.859 63.4987 156.428 63.172C157.007 62.836 157.52 62.444 157.968 61.996C158.416 61.548 158.776 61.0627 159.046 60.54C159.326 60.008 159.466 59.462 159.466 58.902V57.936H160.376V58.902C160.376 59.49 160.521 60.05 160.81 60.582C161.1 61.1047 161.473 61.59 161.93 62.038C162.388 62.486 162.896 62.8733 163.456 63.2C164.026 63.5267 164.581 63.7693 165.122 63.928L164.422 64.642ZM165.654 67.974H154.202V67.218H165.654V67.974Z" fill="#61586A"/>
<path d="M174.685 65.972C174.48 66.0187 174.223 66.07 173.915 66.126C173.607 66.1727 173.276 66.2193 172.921 66.266C172.557 66.3127 172.184 66.3593 171.801 66.406C171.428 66.4433 171.073 66.4667 170.737 66.476C170.317 66.4947 169.935 66.5087 169.589 66.518C169.244 66.518 168.945 66.518 168.693 66.518C168.441 66.5273 168.241 66.532 168.091 66.532C167.951 66.5227 167.877 66.518 167.867 66.518C167.765 66.518 167.695 66.4993 167.657 66.462C167.62 66.4153 167.601 66.3453 167.601 66.252V57.936H168.511V65.692L170.779 65.664C171.078 65.6547 171.409 65.6313 171.773 65.594C172.137 65.5567 172.497 65.51 172.851 65.454C173.215 65.4073 173.556 65.356 173.873 65.3C174.2 65.244 174.471 65.1927 174.685 65.146V65.972ZM176.645 69.808H175.749V61.954H172.151V61.198H175.749V57.376H176.645V69.808Z" fill="#61586A"/>
<path d="M178.788 66.476C181.943 64.796 183.688 62.2713 184.024 58.902H179.6V58.146H184.724C184.902 58.146 184.99 58.2347 184.99 58.412C184.832 60.2693 184.318 61.9167 183.45 63.354C182.582 64.782 181.294 66.014 179.586 67.05L178.788 66.476ZM188.392 69.822H187.482V57.376H188.392V62.528H190.324V63.34H188.392V69.822Z" fill="#61586A"/>
<path d="M204.13 63.186C203.915 63.2233 203.598 63.2653 203.178 63.312C202.758 63.3493 202.277 63.3913 201.736 63.438C201.204 63.4753 200.635 63.508 200.028 63.536C199.431 63.564 198.838 63.578 198.25 63.578H195.45V62.836H199.188V61.268H196.78C196.677 61.268 196.607 61.2493 196.57 61.212C196.533 61.1653 196.514 61.0953 196.514 61.002V58.104C196.514 58.02 196.533 57.9547 196.57 57.908C196.607 57.8613 196.677 57.838 196.78 57.838H202.912V58.552H197.354V60.554H203.108V61.268H200.07V62.794C200.285 62.794 200.569 62.7847 200.924 62.766C201.288 62.7473 201.666 62.724 202.058 62.696C202.45 62.668 202.828 62.6353 203.192 62.598C203.565 62.5513 203.878 62.5047 204.13 62.458V63.186ZM205.432 64.096H204.536V57.376H205.432V64.096ZM205.684 69.654H197.732C197.629 69.654 197.559 69.6353 197.522 69.598C197.485 69.5607 197.466 69.4907 197.466 69.388V67.092C197.466 66.9987 197.485 66.9333 197.522 66.896C197.559 66.8493 197.629 66.826 197.732 66.826H204.452V65.496H197.466V64.74H205.124C205.301 64.74 205.39 64.8287 205.39 65.006V67.274C205.39 67.3767 205.367 67.4467 205.32 67.484C205.283 67.5213 205.217 67.54 205.124 67.54H198.39V68.926H205.684V69.654Z" fill="#61586A"/>
<path d="M221.352 62.92C220.866 62.7987 220.39 62.64 219.923 62.444C219.466 62.248 219.037 62.0193 218.635 61.758C218.243 61.4967 217.893 61.2027 217.585 60.876C217.287 60.5493 217.058 60.19 216.899 59.798C216.694 60.2087 216.438 60.5773 216.13 60.904C215.822 61.2213 215.471 61.506 215.079 61.758C214.697 62.01 214.277 62.234 213.819 62.43C213.371 62.6167 212.905 62.78 212.419 62.92L211.733 62.192C212.377 62.052 212.979 61.8653 213.539 61.632C214.109 61.3893 214.604 61.1047 215.023 60.778C215.453 60.4513 215.789 60.0873 216.031 59.686C216.283 59.2753 216.41 58.818 216.41 58.314V57.698H217.347V58.3C217.347 58.7853 217.469 59.2333 217.712 59.644C217.954 60.0547 218.29 60.4233 218.719 60.75C219.139 61.0767 219.63 61.3613 220.189 61.604C220.749 61.8467 221.352 62.0333 221.995 62.164L221.352 62.92ZM222.583 65.09H217.375V69.808H216.479V65.09H211.188V64.334H222.583V65.09Z" fill="#61586A"/>
<path d="M234.121 61.898C233.962 62.2807 233.748 62.6073 233.477 62.878C233.197 63.158 232.861 63.3773 232.469 63.536C232.086 63.6853 231.657 63.76 231.181 63.76C230.696 63.76 230.257 63.6807 229.865 63.522C229.482 63.354 229.151 63.1253 228.871 62.836C228.6 62.556 228.39 62.2293 228.241 61.856C228.092 61.4733 228.017 61.072 228.017 60.652C228.017 60.2227 228.092 59.8213 228.241 59.448C228.39 59.0653 228.605 58.7293 228.885 58.44C229.156 58.16 229.487 57.9407 229.879 57.782C230.271 57.614 230.71 57.53 231.195 57.53C231.671 57.53 232.1 57.614 232.483 57.782C232.866 57.9407 233.197 58.16 233.477 58.44C233.757 58.72 233.972 59.0513 234.121 59.434C234.28 59.8167 234.359 60.2227 234.359 60.652C234.359 61.0533 234.28 61.4687 234.121 61.898ZM233.463 60.638C233.463 60.0127 233.262 59.4713 232.861 59.014C232.469 58.5473 231.909 58.314 231.181 58.314C230.453 58.314 229.898 58.5473 229.515 59.014C229.132 59.4807 228.941 60.022 228.941 60.638C228.941 60.9553 228.988 61.2587 229.081 61.548C229.174 61.828 229.319 62.08 229.515 62.304C229.702 62.5187 229.935 62.6913 230.215 62.822C230.495 62.9433 230.817 63.004 231.181 63.004C231.545 63.004 231.867 62.9433 232.147 62.822C232.427 62.6913 232.665 62.5187 232.861 62.304C233.262 61.8467 233.463 61.2913 233.463 60.638ZM237.789 64.614H236.907V57.376H237.789V64.614ZM238.433 69.892C237.901 69.5653 237.434 69.1873 237.033 68.758C236.641 68.338 236.3 67.862 236.011 67.33C235.75 67.834 235.437 68.2867 235.073 68.688C234.718 69.0987 234.312 69.472 233.855 69.808C233.342 69.416 232.903 69.01 232.539 68.59C232.175 68.1793 231.89 67.75 231.685 67.302C231.396 67.8433 231.05 68.3287 230.649 68.758C230.248 69.1873 229.79 69.5653 229.277 69.892L228.577 69.29C228.904 69.122 229.226 68.9073 229.543 68.646C229.87 68.3847 230.159 68.0953 230.411 67.778C230.663 67.4607 230.868 67.1247 231.027 66.77C231.186 66.406 231.265 66.028 231.265 65.636V65.146H232.119V65.706C232.119 66.2473 232.282 66.7887 232.609 67.33C232.936 67.862 233.351 68.338 233.855 68.758C234.247 68.4593 234.644 68.002 235.045 67.386C235.39 66.8167 235.563 66.2193 235.563 65.594V65.146H236.417V65.664C236.417 66.028 236.492 66.392 236.641 66.756C236.8 67.12 237.01 67.4653 237.271 67.792C237.532 68.1187 237.826 68.4127 238.153 68.674C238.48 68.9353 238.816 69.1407 239.161 69.29L238.433 69.892Z" fill="#61586A"/>
<path d="M249.956 69.808H249.06V62.626H246.274C246.237 64.138 245.952 65.2627 245.42 66C244.888 66.728 244.197 67.092 243.348 67.092C242.909 67.092 242.508 66.994 242.144 66.798C241.789 66.602 241.481 66.308 241.22 65.916C240.959 65.524 240.753 65.034 240.604 64.446C240.464 63.858 240.394 63.172 240.394 62.388C240.394 61.604 240.464 60.918 240.604 60.33C240.753 59.742 240.959 59.252 241.22 58.86C241.481 58.468 241.789 58.174 242.144 57.978C242.508 57.782 242.909 57.684 243.348 57.684C244.16 57.684 244.832 58.034 245.364 58.734C245.896 59.4247 246.195 60.47 246.26 61.87H249.06V57.376H249.956V69.808ZM244.566 65.72C244.893 65.3093 245.126 64.7447 245.266 64.026C245.359 63.6433 245.406 63.0973 245.406 62.388C245.387 61.184 245.201 60.232 244.846 59.532C244.491 58.8133 243.992 58.454 243.348 58.454C242.713 58.454 242.205 58.8133 241.822 59.532C241.449 60.2413 241.262 61.1933 241.262 62.388C241.262 62.9947 241.309 63.5407 241.402 64.026C241.505 64.502 241.645 64.9127 241.822 65.258C241.999 65.6033 242.214 65.8693 242.466 66.056C242.727 66.2333 243.021 66.322 243.348 66.322C243.843 66.322 244.249 66.1213 244.566 65.72Z" fill="#61586A"/>
<path d="M261.605 62.402C261.502 62.6167 261.372 62.8127 261.213 62.99C261.064 63.158 260.896 63.3073 260.709 63.438C260.336 63.7273 259.883 63.9467 259.351 64.096C258.819 64.2453 258.231 64.32 257.587 64.32C256.934 64.32 256.341 64.2453 255.809 64.096C255.277 63.9467 254.824 63.7273 254.451 63.438C253.658 62.8687 253.261 62.052 253.261 60.988C253.261 60.4747 253.359 60.0127 253.555 59.602C253.76 59.182 254.059 58.832 254.451 58.552C254.824 58.2627 255.277 58.0433 255.809 57.894C256.341 57.7353 256.934 57.656 257.587 57.656C258.231 57.656 258.819 57.7353 259.351 57.894C259.883 58.0433 260.336 58.2627 260.709 58.552C261.101 58.832 261.4 59.182 261.605 59.602C261.81 60.0127 261.913 60.4747 261.913 60.988C261.913 61.5293 261.81 62.0007 261.605 62.402ZM257.587 63.606C258.604 63.606 259.416 63.3727 260.023 62.906C260.331 62.682 260.569 62.4113 260.737 62.094C260.905 61.7767 260.989 61.408 260.989 60.988C260.989 60.5867 260.905 60.2273 260.737 59.91C260.569 59.5833 260.331 59.3033 260.023 59.07C259.724 58.846 259.37 58.6733 258.959 58.552C258.548 58.4307 258.091 58.37 257.587 58.37C257.083 58.37 256.621 58.4307 256.201 58.552C255.79 58.6733 255.436 58.846 255.137 59.07C254.838 59.3033 254.605 59.5833 254.437 59.91C254.269 60.2273 254.185 60.5867 254.185 60.988C254.185 61.408 254.269 61.7767 254.437 62.094C254.605 62.4113 254.838 62.682 255.137 62.906C255.744 63.3727 256.56 63.606 257.587 63.606ZM263.285 68.1H251.861V67.344H254.689V64.642H255.571V67.344H259.617V64.642H260.485V67.344H263.285V68.1Z" fill="#61586A"/>
<path d="M266.268 68.59H265.064V67.33H266.268V68.59Z" fill="#61586A"/>
<path d="M58.5595 85.506C58.1115 85.422 57.6682 85.324 57.2295 85.212C56.8002 85.1 56.3895 84.9553 55.9975 84.778C55.6055 84.61 55.2508 84.4047 54.9335 84.162C54.6162 83.9193 54.3548 83.63 54.1495 83.294C53.7388 83.9007 53.1508 84.372 52.3855 84.708C51.6295 85.044 50.7382 85.31 49.7115 85.506L49.0815 84.834C49.6695 84.7313 50.2155 84.6147 50.7195 84.484C51.2328 84.3533 51.6902 84.1947 52.0915 84.008C52.4928 83.8307 52.8242 83.616 53.0855 83.364C53.3468 83.112 53.5242 82.8087 53.6175 82.454H49.9075V81.74H58.3635V82.454H54.6675C54.7328 82.79 54.9008 83.0887 55.1715 83.35C55.4422 83.6113 55.7875 83.84 56.2075 84.036C56.6275 84.232 57.0848 84.4 57.5795 84.54C58.0835 84.6707 58.6155 84.7733 59.1755 84.848L58.5595 85.506ZM59.8335 87.172H48.4375V86.444H53.6875V84.932H54.5835V86.444H59.8335V87.172ZM56.6135 88.754H51.6295V88.054H56.6135V88.754ZM58.8395 90.392H49.4735V89.692H58.8395V90.392ZM58.1955 92.52C58.1955 92.7907 58.0928 93.0147 57.8875 93.192C57.6915 93.3787 57.4162 93.5327 57.0615 93.654C56.6975 93.7753 56.2682 93.8593 55.7735 93.906C55.2788 93.962 54.7328 93.99 54.1355 93.99C53.5382 93.99 52.9875 93.962 52.4835 93.906C51.9888 93.8593 51.5595 93.7753 51.1955 93.654C50.8408 93.5327 50.5608 93.3787 50.3555 93.192C50.1595 93.0147 50.0615 92.7907 50.0615 92.52C50.0615 92.2587 50.1642 92.0347 50.3695 91.848C50.5748 91.6613 50.8595 91.5073 51.2235 91.386C51.5875 91.2647 52.0168 91.176 52.5115 91.12C53.0062 91.064 53.5475 91.036 54.1355 91.036C54.7235 91.036 55.2602 91.064 55.7455 91.12C56.2402 91.176 56.6695 91.2647 57.0335 91.386C57.3975 91.5073 57.6822 91.6613 57.8875 91.848C58.0928 92.0347 58.1955 92.2587 58.1955 92.52ZM56.9495 92.912C57.1175 92.8187 57.2015 92.6833 57.2015 92.506C57.2015 92.3567 57.1175 92.2307 56.9495 92.128C56.7815 92.0347 56.5575 91.9553 56.2775 91.89C55.9975 91.8247 55.6755 91.778 55.3115 91.75C54.9475 91.722 54.5555 91.708 54.1355 91.708C53.7155 91.708 53.3235 91.722 52.9595 91.75C52.5955 91.778 52.2735 91.8247 51.9935 91.89C51.7135 91.9553 51.4895 92.0347 51.3215 92.128C51.1628 92.2307 51.0835 92.3567 51.0835 92.506C51.0835 92.674 51.1628 92.8093 51.3215 92.912C51.4802 93.0147 51.6995 93.0987 51.9795 93.164C52.2595 93.2293 52.5815 93.2713 52.9455 93.29C53.3188 93.318 53.7155 93.332 54.1355 93.332C54.5555 93.332 54.9475 93.318 55.3115 93.29C55.6848 93.2713 56.0115 93.2293 56.2915 93.164C56.5715 93.0987 56.7908 93.0147 56.9495 92.912Z" fill="#61586A"/>
<path d="M63.5165 86.01C63.4138 85.9727 63.3158 85.9167 63.2225 85.842C62.4385 85.3847 62.0465 84.7453 62.0465 83.924C62.0465 83.1213 62.4385 82.4867 63.2225 82.02C63.5958 81.796 64.0438 81.6187 64.5665 81.488C65.0985 81.3573 65.6865 81.292 66.3305 81.292C66.9745 81.292 67.5578 81.3573 68.0805 81.488C68.6032 81.6187 69.0512 81.796 69.4245 82.02C69.7978 82.2533 70.0872 82.5333 70.2925 82.86C70.5072 83.1773 70.6145 83.532 70.6145 83.924C70.6145 84.3253 70.5072 84.6893 70.2925 85.016C70.0872 85.3333 69.7978 85.6087 69.4245 85.842C69.0512 86.0753 68.6032 86.2527 68.0805 86.374C67.5578 86.4953 66.9745 86.556 66.3305 86.556C65.6118 86.556 65.0238 86.4953 64.5665 86.374C64.4358 86.3367 64.3098 86.304 64.1885 86.276C64.0672 86.2387 63.9505 86.1967 63.8385 86.15C63.7825 86.1313 63.7265 86.108 63.6705 86.08C63.6145 86.052 63.5632 86.0287 63.5165 86.01ZM68.7525 85.324C69.0511 85.156 69.2845 84.9553 69.4525 84.722C69.6298 84.4887 69.7185 84.2367 69.7185 83.966C69.7185 83.6953 69.6298 83.4433 69.4525 83.21C69.2845 82.9673 69.0511 82.7573 68.7525 82.58C68.4538 82.4027 68.0945 82.2627 67.6745 82.16C67.2638 82.048 66.8158 81.992 66.3305 81.992C65.8265 81.992 65.3692 82.048 64.9585 82.16C64.5478 82.2627 64.1932 82.4027 63.8945 82.58C63.2598 82.944 62.9425 83.406 62.9425 83.966C62.9425 84.5167 63.2598 84.9693 63.8945 85.324C64.1932 85.492 64.5478 85.6273 64.9585 85.73C65.3692 85.8233 65.8265 85.87 66.3305 85.87C66.8158 85.87 67.2638 85.8233 67.6745 85.73C68.0945 85.6273 68.4538 85.492 68.7525 85.324ZM72.0425 88.656H60.6465V87.914H72.0425V88.656ZM70.9365 93.542H62.4945C62.3918 93.542 62.3218 93.5233 62.2845 93.486C62.2472 93.4487 62.2285 93.3787 62.2285 93.276V89.818H63.0545V92.786H70.9365V93.542Z" fill="#61586A"/>
<path d="M87.248 83.952H77.952V83.182H87.248V83.952ZM84.994 82.23H80.192V81.46H84.994V82.23ZM86.436 86.57C86.436 87.13 86.1233 87.5687 85.498 87.886C84.8727 88.2033 83.8974 88.362 82.572 88.362C81.2467 88.362 80.2714 88.2033 79.646 87.886C79.0207 87.5687 78.708 87.13 78.708 86.57C78.708 86.01 79.0207 85.5667 79.646 85.24C80.2714 84.9133 81.2467 84.75 82.572 84.75C83.8974 84.75 84.8727 84.9133 85.498 85.24C86.1233 85.5667 86.436 86.01 86.436 86.57ZM84.756 87.368C85.204 87.1627 85.428 86.892 85.428 86.556C85.428 86.22 85.204 85.954 84.756 85.758C84.308 85.5527 83.58 85.45 82.572 85.45C81.564 85.45 80.836 85.5527 80.388 85.758C79.94 85.954 79.716 86.22 79.716 86.556C79.716 86.892 79.94 87.1627 80.388 87.368C80.836 87.564 81.564 87.662 82.572 87.662C83.58 87.662 84.308 87.564 84.756 87.368ZM88.312 90.098H83.132V93.822H82.208V90.098H76.916V89.356H88.312V90.098Z" fill="#61586A"/>
<path d="M89.573 90.504C91.169 89.6827 92.387 88.6467 93.227 87.396C94.067 86.1453 94.5897 84.6427 94.795 82.888H90.357V82.132H95.467C95.6443 82.132 95.733 82.2207 95.733 82.398C95.593 84.2367 95.089 85.8793 94.221 87.326C93.3623 88.7727 92.0883 90.0327 90.399 91.106L89.573 90.504ZM99.443 93.808H98.547V81.39H99.443V93.808Z" fill="#61586A"/>
<path d="M101.474 90.476C104.629 88.796 106.374 86.2713 106.71 82.902H102.286V82.146H107.41C107.587 82.146 107.676 82.2347 107.676 82.412C107.517 84.2693 107.004 85.9167 106.136 87.354C105.268 88.782 103.98 90.014 102.272 91.05L101.474 90.476ZM111.078 93.822H110.168V81.376H111.078V86.528H113.01V87.34H111.078V93.822Z" fill="#61586A"/>
<path d="M125.542 86.934C125.178 86.6727 124.856 86.3833 124.576 86.066C124.305 85.7393 124.072 85.3193 123.876 84.806C123.652 85.31 123.362 85.772 123.008 86.192C122.653 86.6027 122.303 86.962 121.958 87.27C121.566 86.9247 121.206 86.5607 120.88 86.178C120.562 85.786 120.287 85.338 120.054 84.834C119.876 85.2913 119.606 85.7347 119.242 86.164C119.064 86.3787 118.887 86.5747 118.71 86.752C118.542 86.9293 118.378 87.088 118.22 87.228L117.478 86.696C117.87 86.416 118.201 86.1407 118.472 85.87C118.752 85.59 118.976 85.2913 119.144 84.974C119.312 84.6473 119.433 84.2927 119.508 83.91C119.592 83.5273 119.634 83.084 119.634 82.58V81.684H120.488V82.58C120.488 83.504 120.604 84.1993 120.838 84.666C121.08 85.1887 121.454 85.688 121.958 86.164C122.434 85.688 122.798 85.184 123.05 84.652C123.311 84.1387 123.442 83.448 123.442 82.58V81.684H124.296V82.58C124.296 83.56 124.459 84.3487 124.786 84.946C125.122 85.534 125.584 85.996 126.172 86.332L125.542 86.934ZM127.768 88.264H126.928V81.376H127.768V84.036H129.504V84.806H127.768V88.264ZM125.836 88.712H121.664V87.97H125.836V88.712ZM128.258 90.252H119.298V89.51H128.258V90.252ZM127.376 93.192C127.18 93.388 126.914 93.5467 126.578 93.668C126.242 93.7893 125.836 93.878 125.36 93.934C124.884 93.99 124.366 94.018 123.806 94.018C123.236 94.018 122.714 93.99 122.238 93.934C121.762 93.878 121.356 93.7893 121.02 93.668C120.674 93.5467 120.408 93.388 120.222 93.192C120.035 92.996 119.942 92.758 119.942 92.478C119.942 92.2073 120.035 91.9787 120.222 91.792C120.418 91.596 120.688 91.4373 121.034 91.316C121.379 91.1947 121.785 91.106 122.252 91.05C122.728 90.9847 123.246 90.952 123.806 90.952C124.898 90.952 125.817 91.0733 126.564 91.316C126.909 91.4373 127.18 91.596 127.376 91.792C127.572 91.9787 127.67 92.2073 127.67 92.478C127.67 92.758 127.572 92.996 127.376 93.192ZM123.806 91.624C123.115 91.624 122.443 91.6893 121.79 91.82C121.528 91.8853 121.318 91.9693 121.16 92.072C121.01 92.184 120.936 92.3147 120.936 92.464C120.936 92.6413 121.01 92.786 121.16 92.898C121.309 93.0193 121.514 93.1127 121.776 93.178C122.037 93.2433 122.34 93.2853 122.686 93.304C123.04 93.332 123.414 93.346 123.806 93.346C124.198 93.346 124.566 93.332 124.912 93.304C125.257 93.2853 125.56 93.2433 125.822 93.178C126.083 93.1127 126.288 93.0193 126.438 92.898C126.596 92.786 126.676 92.6413 126.676 92.464C126.676 92.3147 126.596 92.184 126.438 92.072C126.279 91.9693 126.069 91.8853 125.808 91.82C125.537 91.7547 125.234 91.708 124.898 91.68C124.571 91.6427 124.207 91.624 123.806 91.624Z" fill="#61586A"/>
<path d="M135.665 89.916C135.403 90.308 135.086 90.602 134.713 90.798C134.349 90.994 133.952 91.092 133.522 91.092C133.084 91.092 132.683 90.994 132.319 90.798C131.955 90.602 131.642 90.308 131.381 89.916C131.119 89.524 130.914 89.034 130.765 88.446C130.615 87.858 130.541 87.172 130.541 86.388C130.541 85.604 130.615 84.918 130.765 84.33C130.914 83.742 131.119 83.252 131.381 82.86C131.642 82.468 131.955 82.174 132.319 81.978C132.683 81.782 133.084 81.684 133.522 81.684C133.952 81.684 134.349 81.782 134.713 81.978C135.086 82.174 135.403 82.468 135.665 82.86C135.926 83.252 136.131 83.742 136.281 84.33C136.43 84.918 136.505 85.604 136.505 86.388C136.505 87.1813 136.43 87.872 136.281 88.46C136.131 89.0387 135.926 89.524 135.665 89.916ZM135.482 88.026C135.585 87.4287 135.637 86.8827 135.637 86.388C135.618 85.2027 135.422 84.2507 135.049 83.532C134.666 82.8133 134.157 82.454 133.522 82.454C132.879 82.454 132.365 82.8133 131.982 83.532C131.6 84.2507 131.409 85.2027 131.409 86.388C131.409 86.9947 131.455 87.5407 131.549 88.026C131.651 88.502 131.796 88.9127 131.982 89.258C132.169 89.6033 132.389 89.8693 132.641 90.056C132.902 90.2333 133.196 90.322 133.522 90.322C133.998 90.322 134.409 90.1213 134.755 89.72C135.1 89.3187 135.342 88.754 135.482 88.026ZM140.103 93.808H139.207V81.376H140.103V93.808Z" fill="#61586A"/>
<path d="M147.747 87.228V82.72H143.897V87.228H147.747ZM152.353 90.602H151.457V86.472H148.573V87.69C148.573 87.802 148.555 87.8767 148.517 87.914C148.48 87.942 148.415 87.956 148.321 87.956H143.323C143.211 87.956 143.137 87.942 143.099 87.914C143.071 87.8767 143.057 87.802 143.057 87.69V82.258C143.057 82.1553 143.071 82.0853 143.099 82.048C143.137 82.0107 143.211 81.992 143.323 81.992H148.321C148.415 81.992 148.48 82.0107 148.517 82.048C148.555 82.0853 148.573 82.1553 148.573 82.258V83.266H151.457V81.376H152.353V90.602ZM151.457 85.73V84.008H148.573V85.73H151.457ZM152.675 93.542H144.695C144.593 93.542 144.523 93.5233 144.485 93.486C144.448 93.4487 144.429 93.3787 144.429 93.276V89.538H145.325V92.786H152.675V93.542Z" fill="#61586A"/>
<path d="M162.841 89.818V83H160.111V89.818H162.841ZM163.681 90.308C163.681 90.42 163.662 90.4947 163.625 90.532C163.588 90.56 163.522 90.574 163.429 90.574H159.537C159.425 90.574 159.35 90.56 159.313 90.532C159.285 90.4947 159.271 90.42 159.271 90.308V82.524C159.271 82.4213 159.285 82.3513 159.313 82.314C159.35 82.2767 159.425 82.258 159.537 82.258H163.429C163.522 82.258 163.588 82.2767 163.625 82.314C163.662 82.3513 163.681 82.4213 163.681 82.524V90.308ZM168.749 93.808H167.853V86.598H166.033V93.22H165.137V81.586H166.033V85.786H167.853V81.376H168.749V93.808Z" fill="#61586A"/>
<path d="M178.746 89.972C178.541 90.0187 178.284 90.07 177.976 90.126C177.668 90.1727 177.337 90.2193 176.982 90.266C176.618 90.3127 176.245 90.3593 175.862 90.406C175.489 90.4433 175.134 90.4667 174.798 90.476C174.378 90.4947 173.995 90.5087 173.65 90.518C173.305 90.518 173.006 90.518 172.754 90.518C172.502 90.5273 172.301 90.532 172.152 90.532C172.012 90.5227 171.937 90.518 171.928 90.518C171.825 90.518 171.755 90.4993 171.718 90.462C171.681 90.4153 171.662 90.3453 171.662 90.252V81.936H172.572V89.692L174.84 89.664C175.139 89.6547 175.47 89.6313 175.834 89.594C176.198 89.5567 176.557 89.51 176.912 89.454C177.276 89.4073 177.617 89.356 177.934 89.3C178.261 89.244 178.531 89.1927 178.746 89.146V89.972ZM180.706 93.808H179.81V85.954H176.212V85.198H179.81V81.376H180.706V93.808Z" fill="#61586A"/>
<path d="M198.166 88.754H186.77V88.012H192.034V86.318C191.446 86.29 190.914 86.2153 190.438 86.094C189.962 85.9727 189.556 85.8093 189.22 85.604C188.884 85.3893 188.622 85.1327 188.436 84.834C188.258 84.5353 188.17 84.1947 188.17 83.812C188.17 83.0467 188.562 82.4307 189.346 81.964C189.719 81.7493 190.167 81.586 190.69 81.474C191.222 81.3527 191.81 81.292 192.454 81.292C193.098 81.292 193.681 81.3527 194.204 81.474C194.726 81.586 195.174 81.7493 195.548 81.964C195.921 82.188 196.21 82.454 196.416 82.762C196.63 83.07 196.738 83.42 196.738 83.812C196.738 84.568 196.383 85.1607 195.674 85.59C194.946 86.038 194.022 86.2807 192.902 86.318V88.012H198.166V88.754ZM194.876 85.156C195.174 84.9973 195.408 84.8107 195.576 84.596C195.753 84.372 195.842 84.1247 195.842 83.854C195.842 83.5833 195.753 83.336 195.576 83.112C195.408 82.8787 195.174 82.6827 194.876 82.524C194.577 82.356 194.218 82.2253 193.798 82.132C193.387 82.0387 192.939 81.992 192.454 81.992C191.95 81.992 191.492 82.0387 191.082 82.132C190.671 82.2253 190.316 82.356 190.018 82.524C189.383 82.86 189.066 83.3033 189.066 83.854C189.066 84.386 189.383 84.82 190.018 85.156C190.624 85.4827 191.436 85.646 192.454 85.646C192.939 85.646 193.387 85.604 193.798 85.52C194.218 85.436 194.577 85.3147 194.876 85.156ZM197.06 93.542H188.618C188.515 93.542 188.445 93.5233 188.408 93.486C188.37 93.4487 188.352 93.3787 188.352 93.276V89.818H189.178V92.786H197.06V93.542Z" fill="#61586A"/>
<path d="M210.403 92.1H198.951V91.344H204.201V88.04H200.799C200.696 88.04 200.626 88.0213 200.589 87.984C200.551 87.9373 200.533 87.8673 200.533 87.774V82.398C200.533 82.314 200.551 82.2487 200.589 82.202C200.626 82.1553 200.696 82.132 200.799 82.132H208.961V82.874H201.401V87.298H209.101V88.04H205.139V91.344H210.403V92.1Z" fill="#61586A"/>
<path d="M211.327 90.476C214.482 88.796 216.227 86.2713 216.563 82.902H212.139V82.146H217.263C217.441 82.146 217.529 82.2347 217.529 82.412C217.371 84.2693 216.857 85.9167 215.989 87.354C215.121 88.782 213.833 90.014 212.125 91.05L211.327 90.476ZM220.931 93.822H220.021V81.376H220.931V86.528H222.863V87.34H220.931V93.822Z" fill="#61586A"/>
<path d="M238.853 87.522H227.457V86.794H232.707V85.604C232.119 85.5853 231.587 85.5247 231.111 85.422C230.635 85.31 230.229 85.1653 229.893 84.988C229.566 84.8013 229.31 84.582 229.123 84.33C228.946 84.0687 228.857 83.7747 228.857 83.448C228.857 82.776 229.249 82.2487 230.033 81.866C230.882 81.4833 231.918 81.292 233.141 81.292C233.785 81.292 234.368 81.3433 234.891 81.446C235.414 81.5487 235.862 81.6887 236.235 81.866C236.608 82.0527 236.898 82.2813 237.103 82.552C237.318 82.8133 237.425 83.112 237.425 83.448C237.425 84.1013 237.07 84.6147 236.361 84.988C235.68 85.352 234.756 85.5573 233.589 85.604V86.794H238.853V87.522ZM233.141 84.96C234.177 84.96 234.984 84.8153 235.563 84.526C235.862 84.3953 236.095 84.2413 236.263 84.064C236.44 83.8773 236.529 83.6767 236.529 83.462C236.529 83.238 236.44 83.0373 236.263 82.86C236.095 82.6733 235.862 82.5147 235.563 82.384C235.264 82.2627 234.905 82.1647 234.485 82.09C234.074 82.0153 233.626 81.978 233.141 81.978C232.637 81.978 232.18 82.0153 231.769 82.09C231.358 82.1647 231.004 82.2627 230.705 82.384C230.07 82.6547 229.753 83.014 229.753 83.462C229.753 83.9007 230.07 84.2553 230.705 84.526C231.284 84.8153 232.096 84.96 233.141 84.96ZM237.565 93.654H229.305C229.202 93.654 229.132 93.6353 229.095 93.598C229.058 93.5607 229.039 93.4907 229.039 93.388V91.022C229.039 90.9287 229.058 90.8633 229.095 90.826C229.132 90.7793 229.202 90.756 229.305 90.756H236.375V89.37H229.039V88.656H237.019C237.196 88.656 237.285 88.7447 237.285 88.922V91.19C237.285 91.2927 237.262 91.3627 237.215 91.4C237.178 91.4373 237.112 91.456 237.019 91.456H229.935V92.954H237.565V93.654Z" fill="#61586A"/>
<path d="M247.94 90.224C247.753 90.2613 247.506 90.3033 247.198 90.35C246.89 90.3967 246.549 90.4433 246.176 90.49C245.803 90.5367 245.411 90.5787 245 90.616C244.589 90.6533 244.183 90.6767 243.782 90.686C243.39 90.7047 243.012 90.7187 242.648 90.728C242.293 90.728 241.971 90.728 241.682 90.728H240.688C240.585 90.728 240.515 90.7093 240.478 90.672C240.441 90.6253 240.422 90.5553 240.422 90.462V86.22C240.422 86.136 240.441 86.0707 240.478 86.024C240.515 85.9773 240.585 85.954 240.688 85.954H245.056V82.79H240.422V82.034H245.672C245.849 82.034 245.938 82.1227 245.938 82.3V86.43C245.938 86.6073 245.849 86.696 245.672 86.696H241.276V89.93L243.502 89.902C243.922 89.902 244.356 89.8833 244.804 89.846C245.252 89.8087 245.677 89.7667 246.078 89.72C246.498 89.6733 246.867 89.6267 247.184 89.58C247.511 89.524 247.763 89.4773 247.94 89.44V90.224ZM249.382 93.822H248.458V81.376H249.382V86.024H251.328V86.808H249.382V93.822Z" fill="#61586A"/>
<path d="M252.015 90.476C255.17 88.796 256.915 86.2713 257.251 82.902H252.827V82.146H257.951C258.128 82.146 258.217 82.2347 258.217 82.412C258.058 84.2693 257.545 85.9167 256.677 87.354C255.809 88.782 254.521 90.014 252.813 91.05L252.015 90.476ZM261.619 93.822H260.709V81.376H261.619V86.528H263.551V87.34H261.619V93.822Z" fill="#61586A"/>
<path d="M272.288 89.454C272.381 88.922 272.475 88.3713 272.568 87.802C272.671 87.2327 272.764 86.6633 272.848 86.094C272.923 85.5247 272.988 84.9693 273.044 84.428C273.1 83.8773 273.137 83.3593 273.156 82.874H265.484V82.132H273.786C273.963 82.132 274.052 82.2207 274.052 82.398C273.977 83.602 273.875 84.778 273.744 85.926C273.613 87.074 273.431 88.2547 273.198 89.468L272.288 89.454ZM275.522 92.1H264.056V91.344H268.41V86.486H269.292V91.344H275.522V92.1Z" fill="#61586A"/>
<path d="M277.287 93.864C277.502 93.808 277.66 93.654 277.763 93.402C277.866 93.1593 277.903 92.8887 277.875 92.59H277.203V91.316H278.351C278.5 91.316 278.575 91.4 278.575 91.568V92.324C278.575 92.6227 278.538 92.884 278.463 93.108C278.388 93.332 278.29 93.5187 278.169 93.668C278.057 93.8267 277.922 93.948 277.763 94.032C277.614 94.1253 277.455 94.186 277.287 94.214V93.864Z" fill="#61586A"/>
<path d="M102.986 111.018V106.72H99.1358V111.018H102.986ZM107.592 112.964H106.696V110.262H103.812V111.48C103.812 111.592 103.793 111.667 103.756 111.704C103.718 111.732 103.653 111.746 103.56 111.746H98.5618C98.4498 111.746 98.3751 111.732 98.3378 111.704C98.3098 111.667 98.2958 111.592 98.2958 111.48V106.258C98.2958 106.155 98.3098 106.085 98.3378 106.048C98.3751 106.011 98.4498 105.992 98.5618 105.992H103.56C103.653 105.992 103.718 106.011 103.756 106.048C103.793 106.085 103.812 106.155 103.812 106.258V107.168H106.696V105.376H107.592V112.964ZM106.696 109.52V107.91H103.812V109.52H106.696ZM107.83 115.596C107.83 116.315 107.452 116.903 106.696 117.36C105.921 117.827 104.871 118.06 103.546 118.06C102.874 118.06 102.276 117.999 101.754 117.878C101.231 117.757 100.783 117.584 100.41 117.36C100.036 117.145 99.7518 116.884 99.5558 116.576C99.3598 116.277 99.2618 115.951 99.2618 115.596C99.2618 115.251 99.3598 114.929 99.5558 114.63C99.7518 114.322 100.036 114.061 100.41 113.846C100.783 113.622 101.231 113.449 101.754 113.328C102.276 113.197 102.874 113.132 103.546 113.132C104.89 113.132 105.94 113.37 106.696 113.846C107.452 114.313 107.83 114.896 107.83 115.596ZM106.626 114.854C106.458 114.649 106.224 114.467 105.926 114.308C105.244 114.009 104.451 113.86 103.546 113.86C103.088 113.86 102.654 113.897 102.244 113.972C101.842 114.047 101.488 114.159 101.18 114.308C100.881 114.457 100.643 114.639 100.466 114.854C100.288 115.069 100.2 115.316 100.2 115.596C100.2 115.876 100.288 116.123 100.466 116.338C100.643 116.553 100.886 116.735 101.194 116.884C101.492 117.033 101.842 117.145 102.244 117.22C102.654 117.295 103.088 117.332 103.546 117.332C104.003 117.332 104.437 117.295 104.848 117.22C105.258 117.145 105.613 117.033 105.912 116.884C106.21 116.735 106.448 116.553 106.626 116.338C106.803 116.123 106.892 115.876 106.892 115.596C106.892 115.307 106.803 115.059 106.626 114.854Z" fill="#61586A"/>
<path d="M117.701 117.22H116.819V112.53H114.957C114.761 113.407 114.448 114.056 114.019 114.476C113.589 114.896 113.095 115.106 112.535 115.106C112.143 115.106 111.783 115.013 111.457 114.826C111.139 114.63 110.864 114.341 110.631 113.958C110.407 113.566 110.229 113.076 110.099 112.488C109.968 111.9 109.903 111.214 109.903 110.43C109.903 109.646 109.968 108.965 110.099 108.386C110.229 107.798 110.407 107.313 110.631 106.93C110.864 106.538 111.139 106.249 111.457 106.062C111.783 105.866 112.143 105.768 112.535 105.768C113.095 105.768 113.58 105.969 113.991 106.37C114.411 106.771 114.723 107.383 114.929 108.204H116.819V105.6H117.701V117.22ZM116.819 111.718V109.002H115.083C115.139 109.45 115.167 109.926 115.167 110.43C115.167 110.663 115.157 110.887 115.139 111.102C115.129 111.317 115.115 111.522 115.097 111.718H116.819ZM113.795 113.286C114.131 112.586 114.299 111.634 114.299 110.43C114.289 109.814 114.238 109.273 114.145 108.806C114.061 108.339 113.939 107.933 113.781 107.588C113.463 106.879 113.043 106.524 112.521 106.524C111.998 106.524 111.578 106.879 111.261 107.588C110.934 108.353 110.771 109.301 110.771 110.43C110.771 111.037 110.813 111.583 110.897 112.068C110.99 112.544 111.111 112.95 111.261 113.286C111.419 113.622 111.606 113.883 111.821 114.07C112.035 114.247 112.269 114.336 112.521 114.336C113.034 114.336 113.459 113.986 113.795 113.286ZM119.983 117.808H119.087V105.376H119.983V117.808Z" fill="#61586A"/>
<path d="M134.572 114.224C134.386 114.261 134.138 114.303 133.83 114.35C133.532 114.397 133.186 114.443 132.794 114.49C132.421 114.537 132.024 114.579 131.604 114.616C131.194 114.653 130.792 114.677 130.4 114.686C130.008 114.705 129.626 114.719 129.252 114.728C128.879 114.728 128.543 114.728 128.244 114.728H127.166C127.064 114.728 126.994 114.709 126.956 114.672C126.919 114.625 126.9 114.555 126.9 114.462V110.22C126.9 110.136 126.919 110.071 126.956 110.024C126.994 109.977 127.064 109.954 127.166 109.954H131.562V106.79H126.9V106.034H132.15C132.328 106.034 132.416 106.123 132.416 106.3V110.43C132.416 110.607 132.328 110.696 132.15 110.696H127.782V113.93L130.12 113.902C130.54 113.902 130.97 113.883 131.408 113.846C131.856 113.809 132.29 113.767 132.71 113.72C133.112 113.664 133.476 113.613 133.802 113.566C134.138 113.519 134.395 113.477 134.572 113.44V114.224ZM136.014 117.808H135.118V105.376H136.014V117.808Z" fill="#61586A"/>
<path d="M148.139 112.642C147.654 112.455 147.178 112.227 146.711 111.956C146.254 111.685 145.829 111.377 145.437 111.032C145.036 110.696 144.681 110.327 144.373 109.926C144.065 109.525 143.827 109.086 143.659 108.61C143.491 109.039 143.258 109.455 142.959 109.856C142.67 110.248 142.329 110.617 141.937 110.962C141.545 111.317 141.111 111.639 140.635 111.928C140.169 112.208 139.679 112.451 139.165 112.656L138.409 111.928C138.997 111.751 139.576 111.499 140.145 111.172C140.724 110.836 141.237 110.444 141.685 109.996C142.133 109.548 142.493 109.063 142.763 108.54C143.043 108.008 143.183 107.462 143.183 106.902V105.936H144.093V106.902C144.093 107.49 144.238 108.05 144.527 108.582C144.817 109.105 145.19 109.59 145.647 110.038C146.105 110.486 146.613 110.873 147.173 111.2C147.743 111.527 148.298 111.769 148.839 111.928L148.139 112.642ZM149.371 115.974H137.919V115.218H149.371V115.974Z" fill="#61586A"/>
<path d="M158.402 113.972C158.197 114.019 157.94 114.07 157.632 114.126C157.324 114.173 156.993 114.219 156.638 114.266C156.274 114.313 155.901 114.359 155.518 114.406C155.145 114.443 154.79 114.467 154.454 114.476C154.034 114.495 153.652 114.509 153.306 114.518C152.961 114.518 152.662 114.518 152.41 114.518C152.158 114.527 151.958 114.532 151.808 114.532C151.668 114.523 151.594 114.518 151.584 114.518C151.482 114.518 151.412 114.499 151.374 114.462C151.337 114.415 151.318 114.345 151.318 114.252V105.936H152.228V113.692L154.496 113.664C154.795 113.655 155.126 113.631 155.49 113.594C155.854 113.557 156.214 113.51 156.568 113.454C156.932 113.407 157.273 113.356 157.59 113.3C157.917 113.244 158.188 113.193 158.402 113.146V113.972ZM160.362 117.808H159.466V109.954H155.868V109.198H159.466V105.376H160.362V117.808Z" fill="#61586A"/>
<path d="M173.789 116.128H162.337V115.372H167.615V112.852H164.199C164.097 112.852 164.027 112.829 163.989 112.782C163.952 112.735 163.933 112.665 163.933 112.572V109.352C163.933 109.268 163.952 109.207 163.989 109.17C164.027 109.123 164.097 109.1 164.199 109.1H171.115V106.748H163.891V106.02H171.731C171.909 106.02 171.997 106.109 171.997 106.286V109.562C171.997 109.739 171.909 109.828 171.731 109.828H164.801V112.124H172.501V112.852H168.483V115.372H173.789V116.128Z" fill="#61586A"/>
<path d="M185.775 112.278C185.467 112.129 185.159 111.956 184.851 111.76C184.543 111.564 184.239 111.335 183.941 111.074C183.325 110.542 182.853 109.921 182.527 109.212C182.275 109.996 181.859 110.673 181.281 111.242C180.711 111.811 180.063 112.292 179.335 112.684L178.565 112.04C179.591 111.555 180.436 110.911 181.099 110.108C181.752 109.287 182.079 108.293 182.079 107.126V105.712H182.989V107.126C182.989 107.686 183.082 108.199 183.269 108.666C183.465 109.123 183.721 109.548 184.039 109.94C184.356 110.313 184.72 110.64 185.131 110.92C185.541 111.191 185.971 111.405 186.419 111.564L185.775 112.278ZM188.967 114.616H188.085V108.764H185.187V107.994H188.085V105.376H188.967V114.616ZM189.359 117.542H181.309C181.206 117.542 181.136 117.523 181.099 117.486C181.061 117.449 181.043 117.379 181.043 117.276V113.482H181.939V116.786H189.359V117.542Z" fill="#61586A"/>
<path d="M198.138 112.054C197.288 111.69 196.607 111.275 196.094 110.808C195.58 110.341 195.179 109.809 194.89 109.212C194.628 109.912 194.241 110.528 193.728 111.06C193.214 111.592 192.533 112.059 191.684 112.46L190.872 111.886C191.973 111.447 192.841 110.85 193.476 110.094C194.11 109.329 194.428 108.377 194.428 107.238V106.72H191.796V105.978H197.914V106.72H195.324V107.266C195.324 108.311 195.646 109.175 196.29 109.856C196.934 110.537 197.769 111.055 198.796 111.41L198.138 112.054ZM201.33 112.964H200.434V109.016H197.634V108.26H200.434V105.362H201.33V112.964ZM201.54 115.554C201.54 116.273 201.176 116.861 200.448 117.318C199.729 117.794 198.698 118.032 197.354 118.032C196.038 118.032 195.011 117.794 194.274 117.318C193.536 116.861 193.168 116.273 193.168 115.554C193.168 114.854 193.536 114.266 194.274 113.79C195.011 113.314 196.038 113.076 197.354 113.076C198.698 113.076 199.729 113.314 200.448 113.79C201.176 114.266 201.54 114.854 201.54 115.554ZM200.602 115.554C200.602 114.994 200.294 114.565 199.678 114.266C199.071 113.958 198.296 113.804 197.354 113.804C196.896 113.804 196.467 113.846 196.066 113.93C195.674 114.005 195.333 114.117 195.044 114.266C194.418 114.555 194.106 114.985 194.106 115.554C194.106 115.834 194.19 116.081 194.358 116.296C194.526 116.511 194.754 116.693 195.044 116.842C195.342 116.991 195.688 117.103 196.08 117.178C196.472 117.262 196.896 117.304 197.354 117.304C197.811 117.304 198.236 117.262 198.628 117.178C199.029 117.103 199.374 116.991 199.664 116.842C199.953 116.693 200.182 116.511 200.35 116.296C200.518 116.081 200.602 115.834 200.602 115.554Z" fill="#61586A"/>
<path d="M209.955 114.7C209.684 114.756 209.357 114.807 208.975 114.854C208.601 114.901 208.205 114.943 207.785 114.98C207.365 115.017 206.94 115.045 206.511 115.064C206.091 115.083 205.699 115.092 205.335 115.092H203.361V114.336H206.203V111.34H204.285C204.182 111.34 204.112 111.321 204.075 111.284C204.037 111.237 204.019 111.167 204.019 111.074V106.524C204.019 106.44 204.037 106.375 204.075 106.328C204.112 106.281 204.182 106.258 204.285 106.258H209.143V107H204.859V110.612H209.353V111.34H207.057V114.266C207.57 114.247 208.06 114.215 208.527 114.168C209.003 114.121 209.479 114.056 209.955 113.972V114.7ZM213.749 117.808H212.881V111.284H211.215V117.22H210.347V105.586H211.215V110.472H212.881V105.376H213.749V117.808Z" fill="#61586A"/>
<path d="M224.992 110.402C224.889 110.617 224.758 110.813 224.6 110.99C224.45 111.158 224.282 111.307 224.096 111.438C223.722 111.727 223.27 111.947 222.738 112.096C222.206 112.245 221.618 112.32 220.974 112.32C220.32 112.32 219.728 112.245 219.196 112.096C218.664 111.947 218.211 111.727 217.838 111.438C217.044 110.869 216.648 110.052 216.648 108.988C216.648 108.475 216.746 108.013 216.942 107.602C217.147 107.182 217.446 106.832 217.838 106.552C218.211 106.263 218.664 106.043 219.196 105.894C219.728 105.735 220.32 105.656 220.974 105.656C221.618 105.656 222.206 105.735 222.738 105.894C223.27 106.043 223.722 106.263 224.096 106.552C224.488 106.832 224.786 107.182 224.992 107.602C225.197 108.013 225.3 108.475 225.3 108.988C225.3 109.529 225.197 110.001 224.992 110.402ZM220.974 111.606C221.991 111.606 222.803 111.373 223.41 110.906C223.718 110.682 223.956 110.411 224.124 110.094C224.292 109.777 224.376 109.408 224.376 108.988C224.376 108.587 224.292 108.227 224.124 107.91C223.956 107.583 223.718 107.303 223.41 107.07C223.111 106.846 222.756 106.673 222.346 106.552C221.935 106.431 221.478 106.37 220.974 106.37C220.47 106.37 220.008 106.431 219.588 106.552C219.177 106.673 218.822 106.846 218.524 107.07C218.225 107.303 217.992 107.583 217.824 107.91C217.656 108.227 217.572 108.587 217.572 108.988C217.572 109.408 217.656 109.777 217.824 110.094C217.992 110.411 218.225 110.682 218.524 110.906C219.13 111.373 219.947 111.606 220.974 111.606ZM226.672 116.1H215.248V115.344H218.076V112.642H218.958V115.344H223.004V112.642H223.872V115.344H226.672V116.1Z" fill="#61586A"/>
<path d="M229.501 114.126H228.731L228.521 105.628H229.697L229.501 114.126ZM229.683 116.66H228.549V115.484H229.683V116.66Z" fill="#61586A"/>
<g clip-path="url(#clip0_2073_30560)">
<path d="M139.49 322.722C187.175 322.722 225.831 321.16 225.831 319.233C225.831 317.306 187.175 315.744 139.49 315.744C91.8047 315.744 53.1484 317.306 53.1484 319.233C53.1484 321.16 91.8047 322.722 139.49 322.722Z" fill="#DDD0D0"/>
<path d="M117.112 171.345C117.112 171.345 108.912 164.201 100.75 173.077C92.5882 181.952 99.595 211.354 99.595 211.354L113.228 206.553L117.112 171.345Z" fill="#2E2A32"/>
<path d="M97.1295 226.048C95.7459 224.953 66.8808 220.789 67.9344 261.32C68.988 301.851 105.368 328.503 163.847 316.329C213.161 306.053 166.487 249.465 166.487 249.465L97.1295 226.048Z" fill="#BB9ED8"/>
<path d="M100.328 298.579C100.273 298.59 100.217 298.59 100.163 298.579C92.2068 293.805 85.7701 286.857 81.6048 278.549C81.588 278.51 81.579 278.469 81.5782 278.427C81.5774 278.385 81.5848 278.343 81.6002 278.304C81.6155 278.265 81.6384 278.23 81.6676 278.199C81.6967 278.169 81.7314 278.145 81.7699 278.129C81.8476 278.098 81.9341 278.098 82.0118 278.129C82.0896 278.159 82.1528 278.218 82.1887 278.294C86.3115 286.489 92.6731 293.339 100.531 298.044C100.603 298.086 100.655 298.156 100.677 298.237C100.698 298.318 100.687 298.404 100.645 298.477C100.607 298.522 100.557 298.555 100.501 298.573C100.445 298.591 100.385 298.593 100.328 298.579Z" fill="white"/>
<path d="M111.359 287.411C111.359 291.028 124.167 293.969 139.958 293.969C155.749 293.969 168.544 291.028 168.544 287.411C168.544 283.795 155.736 280.854 139.958 280.854C124.18 280.854 111.359 283.795 111.359 287.411Z" fill="#A685C8"/>
<path d="M191.772 289.779C191.772 289.779 199.477 298.616 201.241 299.431C203.005 300.246 221.449 306.155 225.016 309.555C228.583 312.954 228.938 319.741 227.948 320.391C226.958 321.04 166.638 321.359 166.638 321.359L165.547 292.199L191.772 289.779Z" fill="#39476B"/>
<path d="M224.409 296.859C224.409 296.859 235.656 300.106 237.585 299.826C239.514 299.546 258.199 294.516 262.972 295.433C267.745 296.35 271.769 301.8 271.286 302.946C270.804 304.092 220.271 337.059 220.271 337.059L203.617 313.132L224.409 296.859Z" fill="#40507F"/>
<path d="M232.89 298.579C232.89 298.579 231.24 311.313 233.271 310.88C235.302 310.447 247.45 299.356 246.13 298.146C244.809 296.936 234.426 297.369 232.89 298.579Z" fill="white"/>
<path d="M197.968 295.828C197.968 295.828 189.717 305.633 191.621 306.384C193.525 307.135 209.76 304.385 209.316 302.653C208.872 300.921 199.923 295.649 197.968 295.828Z" fill="white"/>
<path d="M154.798 245.211C154.798 245.211 183.041 225.13 207.514 231.294C231.987 237.457 196.268 297.037 196.268 297.037L160.726 297.113L164.179 280.05L121.566 279.961L140.365 253.221L154.798 245.211Z" fill="#8E657D"/>
<path d="M187.536 248.726C187.477 248.737 187.417 248.737 187.358 248.726C187.289 248.677 187.242 248.604 187.225 248.521C187.209 248.438 187.224 248.352 187.269 248.28C189.373 245.063 191.886 242.135 194.746 239.571C194.777 239.543 194.814 239.522 194.854 239.509C194.894 239.495 194.936 239.49 194.977 239.493C195.019 239.496 195.06 239.507 195.098 239.526C195.135 239.545 195.169 239.571 195.196 239.603C195.224 239.634 195.245 239.671 195.258 239.711C195.271 239.751 195.277 239.793 195.274 239.835C195.271 239.877 195.259 239.918 195.241 239.956C195.222 239.993 195.196 240.027 195.164 240.055C192.347 242.576 189.872 245.457 187.802 248.624C187.769 248.661 187.727 248.689 187.681 248.707C187.635 248.725 187.585 248.731 187.536 248.726Z" fill="white"/>
<path d="M106.878 201.713C111.028 195.665 118.822 195.092 125.423 195.958C128.607 196.383 131.676 197.436 134.451 199.058C137.227 200.68 139.655 202.837 141.594 205.406C145.999 211.263 152.663 219.413 157.779 223.144C166.067 229.09 182.886 236.247 182.886 236.247L152.168 244.142L152.942 246.421L108.832 267.113C108.832 267.113 97.0147 216.179 106.878 201.713Z" fill="#68B6D8"/>
<path d="M117.036 187.885L115.5 196.913C115.5 196.913 116.68 199.778 121.847 201.115C125.655 202.108 127 200.937 127 200.937L127.47 196.786L127.686 192.24L118.508 188.534L117.036 187.885Z" fill="#FFD7D7"/>
<path d="M118.508 189.312C118.502 189.608 118.541 189.905 118.623 190.19C119.892 194.863 123.827 197.537 127.394 197.334L127.572 192.966L118.508 189.312Z" fill="#2E2A32"/>
<path d="M132.916 174.529C132.916 174.529 134.567 185.989 131.558 191.566C128.55 197.143 123.942 195.284 120.921 193.387C119.212 192.37 117.809 190.91 116.859 189.159C115.871 189.222 114.889 188.972 114.051 188.444C113.213 187.916 112.561 187.137 112.188 186.218C110.792 182.92 112.772 179.953 114.727 179.597C115.401 179.555 116.076 179.655 116.71 179.89C117.344 180.124 117.922 180.488 118.408 180.959L117.494 177.495C117.494 177.495 127.763 163.336 132.916 174.529Z" fill="#FFD7D7"/>
<path d="M129.457 187.988C129.408 188.004 129.354 188.004 129.305 187.988C129.233 187.945 129.18 187.876 129.159 187.795C129.138 187.714 129.149 187.627 129.191 187.555C129.78 186.182 129.807 184.631 129.267 183.238C129.236 183.16 129.236 183.073 129.267 182.995C129.297 182.917 129.356 182.854 129.432 182.818C129.471 182.801 129.513 182.793 129.555 182.793C129.598 182.793 129.64 182.802 129.679 182.818C129.718 182.835 129.753 182.859 129.783 182.89C129.812 182.92 129.835 182.956 129.851 182.996C130.166 183.774 130.318 184.608 130.298 185.447C130.279 186.285 130.088 187.111 129.736 187.873C129.702 187.913 129.659 187.944 129.611 187.964C129.562 187.984 129.509 187.992 129.457 187.988Z" fill="#2E2A32"/>
<path d="M116.833 185.874C116.779 185.874 116.726 185.86 116.679 185.833C116.632 185.807 116.593 185.768 116.566 185.721L114.383 181.99C114.347 181.914 114.338 181.828 114.359 181.746C114.38 181.664 114.429 181.593 114.497 181.544C114.572 181.502 114.66 181.49 114.743 181.511C114.825 181.533 114.897 181.586 114.942 181.659L117.112 185.402C117.154 185.475 117.165 185.561 117.144 185.643C117.122 185.724 117.07 185.793 116.998 185.835C116.947 185.861 116.89 185.874 116.833 185.874Z" fill="#2E2A32"/>
<path d="M116.044 184.511L113.949 184.345C113.908 184.342 113.867 184.331 113.83 184.312C113.792 184.292 113.759 184.266 113.732 184.234C113.705 184.202 113.684 184.165 113.672 184.125C113.659 184.085 113.654 184.043 113.657 184.001C113.657 183.958 113.666 183.916 113.683 183.876C113.701 183.837 113.727 183.802 113.76 183.774C113.793 183.746 113.831 183.726 113.873 183.714C113.914 183.703 113.958 183.701 114 183.709L116.056 183.874C116.141 183.874 116.221 183.908 116.281 183.967C116.34 184.027 116.374 184.108 116.374 184.192C116.374 184.277 116.34 184.358 116.281 184.418C116.221 184.477 116.141 184.511 116.056 184.511H116.044Z" fill="#2E2A32"/>
<path d="M124.651 178.666C124.576 178.668 124.503 178.641 124.448 178.59C124.417 178.561 124.393 178.527 124.377 178.488C124.36 178.45 124.352 178.409 124.352 178.367C124.352 178.325 124.36 178.284 124.377 178.246C124.393 178.207 124.417 178.173 124.448 178.144C124.808 177.793 125.269 177.564 125.766 177.491C126.262 177.418 126.77 177.504 127.215 177.737C127.29 177.773 127.348 177.837 127.377 177.916C127.405 177.994 127.402 178.081 127.367 178.157C127.329 178.233 127.263 178.292 127.182 178.321C127.102 178.349 127.013 178.345 126.936 178.31C126.936 178.31 125.666 177.711 124.93 178.552C124.897 178.593 124.854 178.624 124.805 178.644C124.756 178.664 124.703 178.672 124.651 178.666Z" fill="#2E2A32"/>
<path d="M133.066 179.342C133.016 179.344 132.967 179.334 132.923 179.311C132.878 179.289 132.84 179.256 132.812 179.215C132.519 178.812 132.098 178.52 131.619 178.387C131.474 178.377 131.328 178.4 131.192 178.453C131.056 178.505 130.933 178.587 130.832 178.692C130.768 178.736 130.691 178.755 130.615 178.745C130.538 178.736 130.468 178.699 130.416 178.641C130.365 178.584 130.337 178.509 130.336 178.432C130.335 178.355 130.363 178.28 130.413 178.221C130.577 178.055 130.776 177.927 130.996 177.847C131.216 177.768 131.45 177.739 131.683 177.763C132.347 177.898 132.934 178.286 133.32 178.845C133.346 178.878 133.365 178.915 133.375 178.956C133.385 178.996 133.387 179.038 133.379 179.079C133.372 179.12 133.356 179.159 133.333 179.193C133.31 179.228 133.279 179.257 133.244 179.278C133.22 179.3 133.192 179.317 133.161 179.328C133.131 179.339 133.098 179.344 133.066 179.342Z" fill="#2E2A32"/>
<path d="M117.694 268.145C117.609 268.142 117.528 268.112 117.461 268.059C117.395 268.007 117.348 267.934 117.326 267.852L116.056 263.089C116.043 263.039 116.04 262.987 116.046 262.935C116.053 262.884 116.07 262.834 116.096 262.789C116.122 262.744 116.156 262.705 116.198 262.673C116.239 262.642 116.286 262.619 116.336 262.605C116.386 262.59 116.438 262.585 116.49 262.591C116.542 262.597 116.592 262.614 116.638 262.64C116.683 262.667 116.722 262.702 116.753 262.744C116.784 262.786 116.806 262.835 116.818 262.886L118.087 267.648C118.101 267.698 118.104 267.75 118.097 267.802C118.091 267.853 118.074 267.903 118.048 267.948C118.022 267.993 117.987 268.032 117.946 268.064C117.905 268.095 117.858 268.119 117.808 268.132L117.694 268.145Z" fill="#534579"/>
<path d="M154.927 256.176C154.877 256.176 154.827 256.166 154.781 256.147C154.735 256.128 154.693 256.099 154.657 256.064C154.622 256.028 154.594 255.986 154.575 255.94C154.556 255.894 154.546 255.844 154.546 255.794L154.406 250.7C154.406 250.596 154.448 250.495 154.521 250.421C154.595 250.347 154.695 250.306 154.8 250.306C154.904 250.306 155.004 250.347 155.078 250.421C155.152 250.495 155.193 250.596 155.193 250.7L155.32 255.794C155.322 255.845 155.313 255.896 155.295 255.944C155.277 255.992 155.249 256.035 155.213 256.072C155.178 256.109 155.135 256.138 155.088 256.158C155.041 256.178 154.99 256.189 154.939 256.189L154.927 256.176Z" fill="#534579"/>
<path d="M150.761 259.333C150.656 259.333 150.556 259.291 150.482 259.217C150.409 259.143 150.367 259.043 150.367 258.938V253.565C150.367 253.46 150.409 253.36 150.482 253.286C150.556 253.212 150.656 253.17 150.761 253.17C150.812 253.17 150.862 253.18 150.909 253.2C150.956 253.22 150.999 253.249 151.035 253.286C151.07 253.323 151.098 253.367 151.116 253.415C151.135 253.462 151.143 253.513 151.141 253.565V258.938C151.143 258.989 151.135 259.04 151.116 259.088C151.098 259.136 151.07 259.18 151.035 259.217C150.999 259.253 150.956 259.283 150.909 259.303C150.862 259.323 150.812 259.333 150.761 259.333Z" fill="#534579"/>
<path d="M108.633 266.044C108.633 266.044 167.518 235.98 180.986 240.424C198.643 246.243 230.643 294.274 230.643 294.274L202.59 321.511C202.59 321.511 173.535 282.19 168.889 282.763C163.507 283.374 133.258 296.133 122.494 292.67C111.73 289.206 108.633 266.044 108.633 266.044Z" fill="#A37B90"/>
<path d="M169.864 283.018H169.763C169.704 282.996 169.652 282.959 169.614 282.909C169.576 282.86 169.553 282.8 169.547 282.738C169.547 282.483 169.166 276.371 171.476 274.092C171.78 273.78 172.15 273.541 172.559 273.394C172.968 273.246 173.405 273.193 173.837 273.239C174.157 273.216 174.477 273.294 174.752 273.46C175.026 273.626 175.243 273.874 175.373 274.168C176.249 276.473 170.727 282.279 170.093 282.942C170.062 282.97 170.026 282.991 169.987 283.004C169.947 283.018 169.905 283.022 169.864 283.018ZM173.571 273.85C173.263 273.843 172.957 273.9 172.673 274.019C172.389 274.137 172.133 274.314 171.921 274.537C170.27 276.167 170.143 280.242 170.156 281.936C172.403 279.503 175.234 275.722 174.789 274.385C174.789 274.27 174.612 273.913 173.786 273.85H173.571Z" fill="white"/>
<path d="M143.096 236.923C143.029 236.924 142.963 236.904 142.908 236.865C142.854 236.826 142.813 236.771 142.791 236.707L140.176 229.194C139.935 229.678 139.834 229.64 139.669 229.576C139.504 229.512 139.389 229.232 139.796 227.933C139.819 227.871 139.86 227.816 139.914 227.778C139.969 227.739 140.034 227.718 140.1 227.717C140.379 226.991 140.798 225.883 141.433 224.19C144.391 216.206 136.66 207.636 136.584 207.636C136.556 207.605 136.534 207.569 136.519 207.529C136.505 207.49 136.499 207.448 136.5 207.406C136.502 207.364 136.512 207.323 136.53 207.285C136.547 207.247 136.572 207.212 136.603 207.184C136.634 207.156 136.67 207.133 136.709 207.119C136.749 207.105 136.791 207.098 136.832 207.1C136.874 207.102 136.915 207.112 136.953 207.129C136.991 207.147 137.025 207.172 137.054 207.203C137.13 207.292 145.114 216.117 142.017 224.483C141.306 226.405 140.849 227.628 140.544 228.404L143.4 236.567C143.425 236.648 143.418 236.735 143.38 236.811C143.342 236.887 143.277 236.945 143.197 236.974L143.096 236.923Z" fill="#40507F"/>
<path d="M125.576 182.894C125.532 182.894 125.489 182.885 125.449 182.867C125.408 182.85 125.372 182.824 125.342 182.791C125.312 182.759 125.29 182.721 125.275 182.679C125.261 182.638 125.255 182.594 125.259 182.55L125.462 180.512C125.471 180.428 125.512 180.351 125.576 180.296L126.363 179.621C126.393 179.587 126.429 179.559 126.47 179.54C126.511 179.521 126.556 179.511 126.601 179.511C126.646 179.51 126.691 179.52 126.732 179.538C126.773 179.556 126.81 179.583 126.84 179.617C126.87 179.651 126.893 179.691 126.906 179.734C126.92 179.777 126.924 179.823 126.918 179.868C126.913 179.913 126.898 179.956 126.874 179.995C126.851 180.033 126.819 180.067 126.782 180.092L126.084 180.703L125.894 182.613C125.882 182.69 125.843 182.76 125.785 182.811C125.727 182.862 125.653 182.891 125.576 182.894Z" fill="#2E2A32"/>
<path d="M131.553 183.785C131.509 183.785 131.465 183.776 131.425 183.758C131.385 183.741 131.349 183.715 131.319 183.683C131.289 183.65 131.266 183.612 131.252 183.57C131.237 183.529 131.232 183.485 131.235 183.441L131.4 181.403C131.399 181.362 131.408 181.321 131.426 181.283C131.443 181.246 131.469 181.213 131.502 181.187L132.492 180.334C132.521 180.303 132.555 180.279 132.593 180.262C132.631 180.246 132.673 180.237 132.714 180.237C132.756 180.237 132.797 180.246 132.835 180.262C132.873 180.279 132.908 180.303 132.936 180.334C132.994 180.393 133.027 180.473 133.027 180.557C133.027 180.64 132.994 180.72 132.936 180.779L132.048 181.556L131.895 183.466C131.896 183.51 131.887 183.554 131.869 183.594C131.852 183.635 131.826 183.671 131.794 183.701C131.762 183.731 131.723 183.754 131.682 183.768C131.64 183.782 131.596 183.788 131.553 183.785Z" fill="#2E2A32"/>
<path d="M118.304 181.01L119.154 182.945C119.154 182.945 120.043 180.169 120.576 179.94C122.938 179.403 125.18 178.432 127.189 177.075C130.299 174.834 130.705 173.624 130.705 173.624C131.82 175.574 132.605 177.695 133.028 179.902C133.295 182.028 133.32 183.111 133.32 183.111C133.32 183.111 135.25 170.543 131.823 168.874C128.395 167.206 126.479 168.811 126.479 168.811C126.479 168.811 119.992 167.295 115.587 170.835C111.183 174.375 113.049 180.666 113.049 180.666C113.049 180.666 115.219 178.667 118.304 181.01Z" fill="#2E2A32"/>
<path d="M146.117 244.74H186.203L197.627 218.764H159.141C158.671 218.762 158.212 218.897 157.817 219.153C157.423 219.408 157.111 219.773 156.919 220.203L146.117 244.74Z" fill="white"/>
<path d="M149.594 244.74H189.68L199.835 221.552C199.968 221.25 200.024 220.918 199.997 220.589C199.97 220.259 199.861 219.941 199.681 219.664C199.501 219.387 199.254 219.16 198.964 219.002C198.674 218.845 198.349 218.763 198.019 218.764H161.043L149.594 244.74Z" fill="#39476B"/>
<path d="M140.899 248.027H189.236C190.154 248.027 190.898 247.281 190.898 246.359V245.761C190.898 244.84 190.154 244.093 189.236 244.093H140.899C139.98 244.093 139.236 244.84 139.236 245.761V246.359C139.236 247.281 139.98 248.027 140.899 248.027Z" fill="#2E2A32"/>
<path d="M171.43 231.753C171.43 232.431 171.63 233.093 172.006 233.657C172.382 234.22 172.916 234.659 173.541 234.918C174.165 235.177 174.852 235.244 175.515 235.111C176.178 234.978 176.786 234.65 177.263 234.17C177.74 233.69 178.064 233.078 178.195 232.413C178.325 231.748 178.256 231.059 177.995 230.433C177.735 229.807 177.295 229.273 176.732 228.898C176.169 228.523 175.507 228.325 174.832 228.327C174.384 228.327 173.94 228.416 173.527 228.588C173.113 228.76 172.738 229.013 172.422 229.331C172.106 229.649 171.855 230.027 171.685 230.443C171.515 230.858 171.428 231.303 171.43 231.753Z" fill="white"/>
<path d="M185.132 235.522C185.588 234.926 186.175 234.442 186.846 234.108C189.156 232.975 196.201 230.95 197.876 233.102C199.552 235.254 195.592 236.426 195.592 236.426C195.592 236.426 198.917 236.044 198.409 238.412C198.24 238.996 197.914 239.521 197.466 239.93C197.018 240.339 196.466 240.615 195.871 240.73C195.871 240.73 199.374 240.73 197.699 243.276C196.023 245.823 188.597 247.402 186.008 246.931C183.418 246.46 185.779 243.315 185.779 243.315C185.779 243.315 183.063 242.436 183.304 240.882C183.545 239.329 185.843 238.96 185.843 238.96C185.544 238.806 185.283 238.587 185.08 238.319C184.876 238.051 184.735 237.741 184.667 237.411C184.599 237.082 184.605 236.741 184.686 236.414C184.766 236.086 184.919 235.782 185.132 235.522Z" fill="#FFD7D7"/>
<path d="M186.696 239.252C186.628 239.252 186.561 239.23 186.506 239.189C186.451 239.147 186.411 239.089 186.392 239.023C186.372 238.941 186.385 238.853 186.427 238.78C186.47 238.707 186.539 238.652 186.62 238.628L195.569 236.082C195.608 236.07 195.65 236.067 195.69 236.071C195.731 236.076 195.77 236.089 195.805 236.109C195.841 236.129 195.872 236.156 195.897 236.189C195.922 236.221 195.94 236.259 195.95 236.298C195.962 236.338 195.965 236.38 195.961 236.422C195.956 236.464 195.944 236.504 195.924 236.54C195.904 236.577 195.877 236.609 195.844 236.636C195.812 236.662 195.774 236.681 195.734 236.693L186.785 239.24L186.696 239.252Z" fill="#2E2A32"/>
<path d="M186.848 243.455C186.778 243.457 186.708 243.434 186.653 243.389C186.597 243.345 186.559 243.283 186.544 243.213C186.525 243.132 186.538 243.047 186.58 242.976C186.623 242.904 186.692 242.852 186.772 242.831L195.785 240.412C195.865 240.393 195.951 240.406 196.022 240.449C196.093 240.492 196.145 240.561 196.166 240.641C196.189 240.722 196.18 240.809 196.139 240.883C196.099 240.957 196.031 241.012 195.95 241.036L186.937 243.443L186.848 243.455Z" fill="#2E2A32"/>
<path d="M126.252 230.377C126.252 230.377 133.411 218.993 136.876 217.644C140.342 216.294 148.77 218.115 148.77 219.095C148.77 220.076 140.989 221.336 140.989 221.336C140.989 221.336 145.368 228.977 145.432 230.721C145.495 232.466 141.56 237.457 140.697 237.966C139.834 238.476 137.65 235.662 137.65 235.662C136.107 237.444 134.105 238.765 131.862 239.482C128.486 240.373 124.602 235.229 124.602 235.229L126.252 230.377Z" fill="#FFD7D7"/>
<path d="M136.913 222.292C136.824 222.293 136.737 222.261 136.67 222.202C136.602 222.144 136.558 222.062 136.545 221.973C136.536 221.926 136.537 221.876 136.548 221.829C136.558 221.781 136.578 221.737 136.607 221.697C136.636 221.658 136.672 221.625 136.714 221.6C136.755 221.575 136.802 221.559 136.85 221.553L140.531 220.929C140.628 220.914 140.728 220.938 140.808 220.995C140.889 221.052 140.944 221.138 140.963 221.235C140.977 221.331 140.953 221.429 140.896 221.508C140.839 221.586 140.754 221.639 140.658 221.655L136.977 222.279L136.913 222.292Z" fill="#2E2A32"/>
<path d="M111.705 197.538C111.705 197.538 74.8939 215.48 81.9134 246.906C86.9908 269.827 130.745 247.428 130.745 247.428L127.826 227.055L108.265 229.461L111.705 197.538Z" fill="#68B6D8"/>
<path d="M106.775 256.418C106.707 256.416 106.641 256.393 106.587 256.352C106.532 256.31 106.491 256.253 106.471 256.188C106.459 256.148 106.455 256.106 106.46 256.065C106.464 256.023 106.477 255.983 106.497 255.946C106.517 255.91 106.544 255.877 106.576 255.851C106.609 255.825 106.646 255.805 106.686 255.794C106.851 255.794 122.744 250.917 130.055 246.18L127.415 227.079C117.723 227.583 108.074 228.706 98.5244 230.441C98.4842 230.452 98.4421 230.455 98.4009 230.449C98.3597 230.442 98.3203 230.427 98.2855 230.404C98.2506 230.381 98.221 230.351 98.1987 230.316C98.1764 230.28 98.162 230.241 98.1563 230.199C98.147 230.159 98.1459 230.117 98.1532 230.077C98.1604 230.036 98.1757 229.997 98.1983 229.963C98.2208 229.928 98.2501 229.899 98.2843 229.876C98.3185 229.853 98.357 229.837 98.3974 229.83C108.077 228.072 117.858 226.936 127.681 226.43C127.762 226.426 127.84 226.453 127.901 226.505C127.963 226.557 128.002 226.63 128.011 226.71L130.715 246.294C130.723 246.353 130.714 246.413 130.689 246.467C130.664 246.521 130.625 246.567 130.576 246.6C123.251 251.426 107.029 256.354 106.877 256.405L106.775 256.418Z" fill="#40507F"/>
<path d="M109.875 228.608C108.389 228.608 101.459 228.506 100.557 226.723C100.46 226.515 100.427 226.282 100.464 226.055C100.5 225.828 100.603 225.617 100.761 225.45C100.944 225.206 101.174 225.003 101.438 224.852C101.702 224.701 101.994 224.605 102.297 224.571C105.178 224.164 110.065 227.882 110.268 228.035C110.322 228.074 110.362 228.13 110.383 228.194C110.403 228.258 110.403 228.327 110.382 228.391C110.359 228.454 110.318 228.508 110.263 228.547C110.209 228.586 110.144 228.607 110.078 228.608H109.875ZM102.779 225.182H102.385C102.166 225.201 101.952 225.266 101.76 225.373C101.567 225.481 101.399 225.629 101.268 225.806C101.002 226.163 101.091 226.341 101.129 226.418C101.649 227.449 105.927 227.882 109.075 227.933C107.679 227.003 104.759 225.182 102.779 225.182Z" fill="#40507F"/>
<path d="M124.523 201.6C122.687 201.669 120.861 201.302 119.192 200.531C115.777 198.71 115.155 196.711 115.13 196.711C115.106 196.63 115.116 196.543 115.156 196.468C115.197 196.394 115.265 196.34 115.346 196.316C115.386 196.302 115.428 196.297 115.47 196.301C115.512 196.305 115.553 196.317 115.59 196.337C115.627 196.358 115.659 196.386 115.685 196.419C115.711 196.453 115.729 196.491 115.739 196.532C115.739 196.532 116.336 198.341 119.484 200.021C122.632 201.702 128.153 200.696 128.204 200.684C128.246 200.675 128.289 200.675 128.33 200.683C128.372 200.692 128.412 200.708 128.447 200.732C128.483 200.755 128.513 200.786 128.537 200.821C128.56 200.857 128.577 200.896 128.585 200.938C128.593 200.98 128.593 201.023 128.585 201.065C128.577 201.107 128.561 201.146 128.537 201.182C128.513 201.217 128.483 201.248 128.448 201.272C128.412 201.295 128.373 201.312 128.331 201.32C127.072 201.523 125.798 201.617 124.523 201.6Z" fill="#40507F"/>
<path d="M123.826 249.733C123.748 249.733 123.673 249.705 123.614 249.654C123.556 249.602 123.518 249.53 123.509 249.453L121.224 228.328C121.217 228.244 121.241 228.16 121.293 228.094C121.345 228.028 121.42 227.984 121.503 227.971C121.545 227.964 121.588 227.966 121.63 227.976C121.671 227.987 121.709 228.006 121.743 228.032C121.776 228.058 121.804 228.092 121.824 228.129C121.844 228.167 121.856 228.209 121.859 228.251L124.143 249.389C124.151 249.472 124.125 249.554 124.073 249.618C124.021 249.682 123.946 249.723 123.864 249.733H123.826Z" fill="#40507F"/>
<path fill-rule="evenodd" clip-rule="evenodd" d="M124.829 188.744C124.994 189.143 125.236 189.605 125.541 189.992C125.967 190.532 126.455 190.854 126.981 190.788C128.01 190.659 128.56 190.02 128.778 189.591C128.23 189.313 127.464 189.109 126.678 188.968C126.006 188.848 125.342 188.778 124.829 188.744ZM126.782 188.38C127.692 188.543 128.659 188.801 129.311 189.206C129.426 189.277 129.478 189.417 129.439 189.546C129.272 190.103 128.566 191.191 127.056 191.38C126.213 191.485 125.541 190.956 125.073 190.362C124.598 189.759 124.269 189.016 124.109 188.513C124.08 188.421 124.097 188.32 124.155 188.243C124.214 188.166 124.306 188.122 124.403 188.125C124.958 188.142 125.862 188.216 126.782 188.38Z" fill="#2E2A32"/>
<g clip-path="url(#clip1_2073_30560)">
<path d="M178.476 174.221H151.296C150.582 174.221 149.875 174.363 149.215 174.64C148.556 174.917 147.956 175.323 147.451 175.835C146.946 176.347 146.546 176.955 146.273 177.624C146 178.293 145.859 179.009 145.859 179.733V185.701C145.859 186.424 146 187.141 146.273 187.809C146.547 188.478 146.947 189.086 147.452 189.597C147.957 190.109 148.556 190.515 149.216 190.792C149.875 191.068 150.582 191.211 151.296 191.211H152.928C153.312 192.66 151.708 193.935 149.216 195.634C149.216 195.634 157.624 195.042 158.892 191.211H178.474C179.188 191.211 179.895 191.069 180.555 190.792C181.214 190.515 181.814 190.109 182.319 189.598C182.824 189.086 183.224 188.478 183.498 187.81C183.771 187.141 183.911 186.424 183.911 185.701V179.733C183.912 179.009 183.771 178.293 183.498 177.624C183.225 176.955 182.825 176.347 182.32 175.835C181.815 175.324 181.216 174.917 180.556 174.64C179.897 174.363 179.19 174.221 178.476 174.221Z" fill="white"/>
</g>
</g>
<defs>
<clipPath id="clip0_2073_30560">
<rect width="220" height="169" fill="white" transform="translate(53.5039 168.06)"/>
</clipPath>
<clipPath id="clip1_2073_30560">
<rect width="38.0521" height="22.079" fill="white" transform="translate(145.859 174.221)"/>
</clipPath>
</defs>
</svg>
