<svg width="36" height="36" viewBox="0 0 36 36" fill="none" xmlns="http://www.w3.org/2000/svg">
<path d="M10.5 12C9.675 12 9 12.675 9 13.5V22.5C9 24.15 10.35 25.5 12 25.5H24C24.825 25.5 25.5 24.825 25.5 24C25.5 23.175 24.825 22.5 24 22.5H12V13.5C12 12.675 11.325 12 10.5 12Z" fill="#948A9E"/>
<path d="M30 4.5H18C16.35 4.5 15 5.85 15 7.5V16.5C15 18.15 16.35 19.5 18 19.5H30C31.65 19.5 33 18.15 33 16.5V7.5C33 5.85 31.65 4.5 30 4.5ZM29.25 16.5H18.75C18.33 16.5 18 16.17 18 15.75V10.5H30V15.75C30 16.17 29.67 16.5 29.25 16.5Z" fill="#948A9E"/>
<path d="M4.5 18C3.675 18 3 18.675 3 19.5V28.5C3 30.15 4.35 31.5 6 31.5H18C18.825 31.5 19.5 30.825 19.5 30C19.5 29.175 18.825 28.5 18 28.5H6V19.5C6 18.675 5.325 18 4.5 18Z" fill="#948A9E"/>
</svg>
