<svg width="112" height="94" viewBox="0 0 112 94" fill="none" xmlns="http://www.w3.org/2000/svg">
<path d="M70.985 21.0156C70.985 19.9356 70.43 18.9906 69.575 18.4656L57.515 11.4006C56.585 10.8456 55.415 10.8456 54.485 11.4006L42.425 18.4656C41.57 18.9906 41 19.9356 41 21.0156V36.0156C41 37.6656 42.35 39.0156 44 39.0156H68C69.65 39.0156 71 37.6656 71 36.0156L70.985 21.0156ZM54.41 27.5256L43.61 20.7756L54.485 14.4006C55.415 13.8456 56.585 13.8456 57.515 14.4006L68.39 20.7756L57.59 27.5256C56.615 28.1256 55.385 28.1256 54.41 27.5256Z" fill="#948A9E"/>
<path d="M21.9688 64.3438H20.4844V71.4219H21.9688V68.5H24V67.2656H21.9688V64.3438ZM11.1875 67.9531C11.1719 69.7891 12.7422 71.0781 14.8594 71.0781C16.9844 71.0781 18.5312 69.7891 18.5312 67.9531C18.5312 66.1016 16.9844 64.8359 14.8594 64.8281C12.7422 64.8359 11.1719 66.1016 11.1875 67.9531ZM12.625 67.9531C12.6172 66.8125 13.5703 66.0391 14.8594 66.0469C16.1484 66.0391 17.0938 66.8125 17.0938 67.9531C17.0938 69.0938 16.1484 69.8906 14.8594 69.8906C13.5703 69.8906 12.6172 69.0938 12.625 67.9531ZM12.9219 73.2188H20.5V74.5H12.9531V78.1719H22.4531V76.9844H14.4062V75.6094H21.9688V72.0625H12.9219V73.2188ZM36.4062 64.3594H34.9219V72.6562H36.4062V64.3594ZM25.5 66.375H30.4688V67.9688H25.5312V72.0312H26.7031C29.3516 72.0391 31.2578 71.9609 33.5469 71.6094L33.3594 70.3906C31.2266 70.7422 29.4375 70.8125 26.9844 70.8125V69.125H31.9375V65.1875H25.5V66.375ZM27.2031 78.1719H36.4062V73.3594H27.2031V78.1719ZM28.6719 76.9688V74.5469H34.9531V76.9688H28.6719ZM50.2188 64.3438H48.7344V78.375H50.2188V64.3438ZM39.1094 70.2969C39.1094 73.3203 40.6172 75.2266 42.7344 75.2188C44.8125 75.2266 46.3438 73.3203 46.3438 70.2969C46.3438 67.3047 44.8125 65.3984 42.7344 65.3906C40.6172 65.3984 39.1094 67.3047 39.1094 70.2969ZM40.5469 70.2969C40.5391 68.1016 41.4297 66.7266 42.7344 66.7188C44.0156 66.7266 44.9062 68.1016 44.9062 70.2969C44.9062 72.5234 44.0156 73.8906 42.7344 73.8906C41.4297 73.8906 40.5391 72.5234 40.5469 70.2969ZM59.3438 72.5469H57.9531V78.1719H62.9062V72.5469H61.5312V74.1719H59.3438V72.5469ZM56.5625 68.1719C56.5547 70.1016 58.0938 71.4297 60.2344 71.4219C62.0938 71.4297 63.5312 70.3672 63.8203 68.7656H66.5469V71.7656H68.0312V64.3438H66.5469V67.5469H63.8125C63.5078 65.9766 62.0781 64.9375 60.2344 64.9375C58.0938 64.9375 56.5547 66.2578 56.5625 68.1719ZM57.9844 68.1719C57.9766 66.9766 58.9141 66.1641 60.2344 66.1719C61.5312 66.1641 62.4531 66.9766 62.4531 68.1719C62.4531 69.3828 61.5312 70.2109 60.2344 70.2188C58.9141 70.2109 57.9766 69.3828 57.9844 68.1719ZM59.3438 77.0156V75.2969H61.5312V77.0156H59.3438ZM62.9844 77.1562L63.7344 78.2812C64.9375 77.7812 65.7578 76.8516 66.2188 75.7734C66.6641 76.8828 67.4844 77.7969 68.75 78.2812L69.5156 77.1562C67.7891 76.5469 66.9609 75.0625 66.9688 73.5938V72.4531H65.5V73.5938C65.5 74.9922 64.6719 76.4609 62.9844 77.1562ZM73.9844 65.3906C71.8984 65.3984 70.4219 67.3047 70.4375 70.2969C70.4219 73.3203 71.8984 75.2266 73.9844 75.2188C75.9375 75.2266 77.3516 73.5312 77.5156 70.7969H80.3906V78.375H81.8594V64.3438H80.3906V69.5938H77.5C77.2734 67.0078 75.8906 65.3984 73.9844 65.3906ZM71.8438 70.2969C71.8516 68.1016 72.7188 66.7266 73.9844 66.7188C75.25 66.7266 76.1172 68.1016 76.125 70.2969C76.1172 72.5234 75.25 73.8906 73.9844 73.8906C72.7188 73.8906 71.8516 72.5234 71.8438 70.2969ZM96.8281 75.3594H93.7656V71.6719C94.8906 71.0391 95.5625 70.0469 95.5625 68.8125C95.5625 66.6094 93.3984 65.1641 90.3906 65.1562C87.3906 65.1641 85.2266 66.6094 85.2344 68.8125C85.2266 70.0703 85.9297 71.0703 87.0781 71.7031V75.3594H84.0156V76.5938H96.8281V75.3594ZM86.6719 68.8125C86.6719 67.3047 88.1953 66.3438 90.3906 66.3438C92.5703 66.3438 94.1172 67.3047 94.125 68.8125C94.1172 70.3125 92.5703 71.2891 90.3906 71.2969C88.1953 71.2891 86.6719 70.3125 86.6719 68.8125ZM88.5469 75.3594V72.25C89.1094 72.3828 89.7344 72.4531 90.3906 72.4531C91.0625 72.4531 91.6953 72.3828 92.2656 72.25V75.3594H88.5469ZM99.4375 77.125C100.039 77.1172 100.539 76.625 100.547 76.0156C100.539 75.4062 100.039 74.9062 99.4375 74.9062C98.8281 74.9062 98.3203 75.4062 98.3281 76.0156C98.3203 76.625 98.8281 77.1172 99.4375 77.125Z" fill="#948A9E"/>
</svg>
