<svg width="36" height="36" viewBox="0 0 36 36" fill="none" xmlns="http://www.w3.org/2000/svg">
<path d="M15.375 19.5C15.375 20.535 14.535 21.375 13.5 21.375C12.465 21.375 11.625 20.535 11.625 19.5C11.625 18.465 12.465 17.625 13.5 17.625C14.535 17.625 15.375 18.465 15.375 19.5ZM22.5 17.625C21.465 17.625 20.625 18.465 20.625 19.5C20.625 20.535 21.465 21.375 22.5 21.375C23.535 21.375 24.375 20.535 24.375 19.5C24.375 18.465 23.535 17.625 22.5 17.625ZM33 18C33 26.28 26.28 33 18 33C9.72 33 3 26.28 3 18C3 9.72 9.72 3 18 3C26.28 3 33 9.72 33 18ZM15.99 6.18C18.09 9.66 21.9 12 26.25 12C26.94 12 27.615 11.925 28.26 11.82C26.16 8.34 22.35 6 18 6C17.31 6 16.635 6.075 15.99 6.18ZM6.63 14.205C9.195 12.75 11.175 10.38 12.12 7.545C9.555 9 7.575 11.37 6.63 14.205ZM30 18C30 16.83 29.82 15.705 29.505 14.64C28.455 14.865 27.375 15 26.25 15C21.555 15 17.37 12.84 14.61 9.465C13.035 13.305 9.9 16.32 6 17.79C6.015 17.85 6 17.925 6 18C6 24.615 11.385 30 18 30C24.615 30 30 24.615 30 18Z" fill="#948A9E"/>
</svg>
