<svg width="36" height="36" viewBox="0 0 36 36" fill="none" xmlns="http://www.w3.org/2000/svg">
<path d="M32.985 14.0156C32.985 12.9356 32.43 11.9906 31.575 11.4656L19.515 4.40062C18.585 3.84562 17.415 3.84562 16.485 4.40062L4.425 11.4656C3.57 11.9906 3 12.9356 3 14.0156V29.0156C3 30.6656 4.35 32.0156 6 32.0156H30C31.65 32.0156 33 30.6656 33 29.0156L32.985 14.0156ZM16.41 20.5256L5.61 13.7756L16.485 7.40062C17.415 6.84562 18.585 6.84562 19.515 7.40062L30.39 13.7756L19.59 20.5256C18.615 21.1256 17.385 21.1256 16.41 20.5256Z" fill="#948A9E"/>
</svg>
