<svg width="315" height="48" viewBox="0 0 315 48" fill="none" xmlns="http://www.w3.org/2000/svg">
<path d="M93.2109 7.84375V7.46875H94.2109V6.26562H90.1328V7.46875H91.8359V7.84375C91.8359 9.25 91.2188 11.0312 89.6172 11.875L90.4141 12.9531C91.4844 12.3984 92.1484 11.4141 92.5234 10.3281C92.8516 11.4297 93.4609 12.4766 94.5391 13.0938C95.625 12.4844 96.2344 11.4297 96.5547 10.3125C96.9297 11.4062 97.5938 12.3906 98.6797 12.9531L99.4609 11.875C97.8516 11.0625 97.25 9.27344 97.2578 7.84375V7.46875H98.8672V6.26562H94.8672V7.46875H95.8359V7.84375C95.8281 8.96094 95.5469 10.4453 94.5391 11.4688C93.5 10.4219 93.2109 8.90625 93.2109 7.84375ZM92.1172 19.1562H101.586V14.2344H92.1172V19.1562ZM93.5859 17.9531V15.4062H100.133V17.9531H93.5859ZM100.102 13.5156H101.586V5.3125H100.102V13.5156ZM114.602 5.34375H113.117V15.8125H114.602V11.0781H116.633V9.84375H114.602V5.34375ZM103.617 8.17188H111.961V6.96875H108.539V5.32812H107.055V6.96875H103.617V8.17188ZM104.383 11.4844C104.375 13.0703 105.758 14.1016 107.789 14.1094C109.797 14.1016 111.18 13.0703 111.18 11.4844C111.18 9.88281 109.797 8.83594 107.789 8.84375C105.758 8.83594 104.375 9.88281 104.383 11.4844ZM105.727 19.0312H115.195V17.8281H107.211V14.9844H105.727V19.0312ZM105.82 11.4844C105.805 10.5625 106.602 9.99219 107.789 9.98438C108.977 9.99219 109.773 10.5625 109.789 11.4844C109.773 12.3984 108.977 12.9609 107.789 12.9531C106.602 12.9609 105.805 12.3984 105.82 11.4844ZM132.961 5.32812H131.477V19.3594H132.961V5.32812ZM122.117 7.79688H127.164V10.5156H122.133V16H123.32C125.797 15.9922 127.906 15.8984 130.383 15.4844L130.242 14.2656C127.898 14.6484 125.922 14.7578 123.648 14.7656V11.7031H128.68V6.59375H122.117V7.79688ZM142.273 7.3125V6.25H140.711V7.3125C140.703 9.59375 138.289 11.7344 135.633 12.2344L136.289 13.4688C138.531 12.9688 140.586 11.5078 141.508 9.54688C142.414 11.5156 144.469 12.9844 146.711 13.4688L147.398 12.2344C144.703 11.75 142.273 9.59375 142.273 7.3125ZM135.164 17.4844H147.977V16.25H135.164V17.4844ZM160.68 5.32812H159.195V9.84375H155.023V11.0625H159.195V19.3594H160.68V5.32812ZM149.742 15.9844H150.867C153.062 15.9922 155.094 15.8672 157.352 15.4062L157.164 14.1875C155.125 14.5938 153.242 14.7188 151.242 14.75V6.875H149.742V15.9844ZM173.727 5.32812H172.242V19.3125H173.727V12.1406H175.898V10.9062H173.727V5.32812ZM162.836 15.5781L163.664 16.7344C168.273 14.4609 170.055 10.8438 170.07 6.79688H163.539V8.03125H168.555C168.25 11.2969 166.344 13.8281 162.836 15.5781ZM183.539 13.5312H182.148V19.1562H187.102V13.5312H185.727V15.1562H183.539V13.5312ZM180.758 9.15625C180.75 11.0859 182.289 12.4141 184.43 12.4062C186.289 12.4141 187.727 11.3516 188.016 9.75H190.742V12.75H192.227V5.32812H190.742V8.53125H188.008C187.703 6.96094 186.273 5.92188 184.43 5.92188C182.289 5.92188 180.75 7.24219 180.758 9.15625ZM182.18 9.15625C182.172 7.96094 183.109 7.14844 184.43 7.15625C185.727 7.14844 186.648 7.96094 186.648 9.15625C186.648 10.3672 185.727 11.1953 184.43 11.2031C183.109 11.1953 182.172 10.3672 182.18 9.15625ZM183.539 18V16.2812H185.727V18H183.539ZM187.18 18.1406L187.93 19.2656C189.133 18.7656 189.953 17.8359 190.414 16.7578C190.859 17.8672 191.68 18.7812 192.945 19.2656L193.711 18.1406C191.984 17.5312 191.156 16.0469 191.164 14.5781V13.4375H189.695V14.5781C189.695 15.9766 188.867 17.4453 187.18 18.1406ZM198.18 6.375C196.094 6.38281 194.617 8.28906 194.633 11.2812C194.617 14.3047 196.094 16.2109 198.18 16.2031C200.133 16.2109 201.547 14.5156 201.711 11.7812H204.586V19.3594H206.055V5.32812H204.586V10.5781H201.695C201.469 7.99219 200.086 6.38281 198.18 6.375ZM196.039 11.2812C196.047 9.08594 196.914 7.71094 198.18 7.70312C199.445 7.71094 200.312 9.08594 200.32 11.2812C200.312 13.5078 199.445 14.875 198.18 14.875C196.914 14.875 196.047 13.5078 196.039 11.2812ZM221.023 16.3438H217.961V12.6562C219.086 12.0234 219.758 11.0312 219.758 9.79688C219.758 7.59375 217.594 6.14844 214.586 6.14062C211.586 6.14844 209.422 7.59375 209.43 9.79688C209.422 11.0547 210.125 12.0547 211.273 12.6875V16.3438H208.211V17.5781H221.023V16.3438ZM210.867 9.79688C210.867 8.28906 212.391 7.32812 214.586 7.32812C216.766 7.32812 218.312 8.28906 218.32 9.79688C218.312 11.2969 216.766 12.2734 214.586 12.2812C212.391 12.2734 210.867 11.2969 210.867 9.79688ZM212.742 16.3438V13.2344C213.305 13.3672 213.93 13.4375 214.586 13.4375C215.258 13.4375 215.891 13.3672 216.461 13.2344V16.3438H212.742ZM223.633 18.1094C224.234 18.1016 224.734 17.6094 224.742 17C224.734 16.3906 224.234 15.8906 223.633 15.8906C223.023 15.8906 222.516 16.3906 222.523 17C222.516 17.6094 223.023 18.1016 223.633 18.1094ZM5.77344 31.5625V30.0625H4.30469V31.4375C4.28906 33.5312 3.02344 35.3984 0.835938 36.1719L1.63281 37.3594C3.26562 36.7578 4.45312 35.5234 5.0625 33.9531C5.67188 35.3359 6.82031 36.4297 8.35156 36.9688L9.14844 35.7969C7.0625 35.1094 5.76562 33.3984 5.77344 31.5625ZM2.72656 40.7031C2.72656 42.3594 4.51562 43.3047 7.42969 43.2969C10.3047 43.3047 12.0703 42.3594 12.0703 40.7031C12.0703 39.0625 10.3047 38.1016 7.42969 38.1094C4.51562 38.1016 2.72656 39.0625 2.72656 40.7031ZM4.21094 40.7031C4.20312 39.8125 5.40625 39.2812 7.42969 39.2812C9.4375 39.2812 10.625 39.8125 10.6172 40.7031C10.625 41.625 9.4375 42.125 7.42969 42.1406C5.40625 42.125 4.20312 41.625 4.21094 40.7031ZM10.4609 37.7812H11.9453V34.0938H13.9766V32.8438H11.9453V29.3281H10.4609V37.7812ZM25.7734 29.3281H24.2891V37.2344H25.7734V33.8906H27.8047V32.6562H25.7734V29.3281ZM15.3984 36.5156H16.5078C19.5078 36.5156 21.1641 36.4453 23.0547 36.0469L22.8828 34.8594C21.125 35.2031 19.5938 35.3125 16.8672 35.3125V31.4531H21.6172V30.25H15.3984V36.5156ZM16.8359 43.1406H25.7734V37.9219H16.8359V43.1406ZM18.2891 41.9531V39.1094H24.3047V41.9531H18.2891ZM34.9766 29.5625C31.8203 29.5547 29.9688 30.4062 29.9766 31.9688C29.9688 33.5391 31.8203 34.3906 34.9766 34.3906C38.1328 34.3906 39.9688 33.5391 39.9766 31.9688C39.9688 30.4062 38.1328 29.5547 34.9766 29.5625ZM28.6016 36.4375H41.3672V35.25H28.6016V36.4375ZM30.1328 38.625H38.2891V39.7188H30.1484V43.1875H40.1484V42.0469H31.6016V40.7969H39.7578V37.5156H30.1328V38.625ZM31.5234 31.9688C31.5156 31.1406 32.75 30.6562 34.9766 30.6562C37.2188 30.6562 38.4531 31.1406 38.4453 31.9688C38.4531 32.8359 37.2188 33.2812 34.9766 33.2812C32.75 33.2812 31.5156 32.8359 31.5234 31.9688ZM52.7109 30.1719C49.7344 30.1797 47.5469 31.6562 47.5547 33.8906C47.5469 35.9844 49.3828 37.3828 51.9766 37.5938V40.3438H46.3359V41.5781H59.1484V40.3438H53.4453V37.5938C56.0547 37.3828 57.8828 35.9844 57.8828 33.8906C57.8828 31.6562 55.7031 30.1797 52.7109 30.1719ZM48.9922 33.8906C48.9922 32.375 50.5547 31.375 52.7109 31.3906C54.8828 31.375 56.4375 32.375 56.4453 33.8906C56.4375 35.4609 54.8828 36.4375 52.7109 36.4531C50.5547 36.4375 48.9922 35.4609 48.9922 33.8906ZM71.7266 30H61.3359V31.1875H63.3828V34.1406H61.3984V35.3281H71.6641V34.1406H69.6953V31.1875H71.7266V30ZM60.1641 37.9219H72.9297V36.7188H60.1641V37.9219ZM61.7734 43.0312H71.4922V41.8281H63.2734V39.0938H61.7734V43.0312ZM64.8516 34.1406V31.1875H68.2109V34.1406H64.8516ZM84.8984 29.3281H83.4297V43.3281H84.8984V36.2344H87.1484V35H84.8984V29.3281ZM73.9141 32.7344H82.2109V31.5156H78.8516V29.5156H77.3672V31.5156H73.9141V32.7344ZM74.6328 37.0156C74.6328 38.9375 76.1016 40.2734 78.1172 40.2812C80.125 40.2734 81.5938 38.9375 81.6016 37.0156C81.5938 35.1094 80.125 33.7656 78.1172 33.7656C76.1016 33.7656 74.6328 35.1094 74.6328 37.0156ZM76.0547 37.0156C76.0469 35.8203 76.9219 34.9922 78.1172 34.9844C79.3047 34.9922 80.1719 35.8203 80.1797 37.0156C80.1719 38.2344 79.3047 39.0469 78.1172 39.0312C76.9219 39.0469 76.0469 38.2344 76.0547 37.0156ZM99.1484 30.6719H89.1641V31.875H97.6641V32.0469C97.6562 33.7266 97.6562 35.7109 97.1172 38.4219L98.6172 38.5781C99.1406 35.7109 99.1406 33.7734 99.1484 32.0469V30.6719ZM87.8203 41.4375H100.586V40.2031H94.1484V35.2656H92.6797V40.2031H87.8203V41.4375ZM112.633 30.7188H106.086V39.8125H112.633V30.7188ZM107.539 38.6094V31.8906H111.164V38.6094H107.539ZM114.977 43.3281H116.461V36.0625H118.711V34.8125H116.461V29.3281H114.977V43.3281ZM125.758 29.625C122.695 29.6172 120.75 30.6172 120.758 32.3125C120.75 33.9766 122.695 34.9609 125.758 34.9531C128.828 34.9609 130.75 33.9766 130.758 32.3125C130.75 30.6172 128.828 29.6172 125.758 29.625ZM119.383 37.2344H132.148V36.0312H119.383V37.2344ZM120.914 43.1562H130.586V38.4844H120.914V43.1562ZM122.289 32.3125C122.281 31.3438 123.602 30.7891 125.758 30.7969C127.898 30.7891 129.234 31.3438 129.227 32.3125C129.234 33.2422 127.898 33.7891 125.758 33.7969C123.602 33.7891 122.281 33.2422 122.289 32.3125ZM122.383 41.9531V39.6719H129.148V41.9531H122.383ZM145.258 29.3281H143.836V43.3281H145.258V29.3281ZM133.367 35.375C133.367 38.4141 134.555 40.3203 136.383 40.3125C138.117 40.3203 139.281 38.625 139.414 35.8906H140.992V42.6406H142.414V29.5938H140.992V34.6875H139.406C139.234 32.0625 138.086 30.4453 136.383 30.4531C134.555 30.4453 133.367 32.3438 133.367 35.375ZM134.742 35.375C134.742 33.1406 135.375 31.8359 136.383 31.8438C137.414 31.8359 138.055 33.1406 138.055 35.375C138.055 37.6016 137.414 38.9141 136.383 38.9062C135.375 38.9141 134.742 37.6016 134.742 35.375ZM162.289 35.9688H154.008V31.7969H162.164V30.5781H152.539V37.1875H162.289V35.9688ZM150.945 41.4844H163.758V40.25H150.945V41.4844ZM176.102 33.4219H167.93V29.8281H166.461V34.6094H176.102V33.4219ZM164.758 37.5625H177.57V36.375H164.758V37.5625ZM166.352 43H176.195V41.7812H167.836V38.8906H166.352V43ZM194.133 29.3281H192.648V43.3594H194.133V29.3281ZM183.289 31.7969H188.336V34.5156H183.305V40H184.492C186.969 39.9922 189.078 39.8984 191.555 39.4844L191.414 38.2656C189.07 38.6484 187.094 38.7578 184.82 38.7656V35.7031H189.852V30.5938H183.289V31.7969ZM203.445 31.3125V30.25H201.883V31.3125C201.875 33.5938 199.461 35.7344 196.805 36.2344L197.461 37.4688C199.703 36.9688 201.758 35.5078 202.68 33.5469C203.586 35.5156 205.641 36.9844 207.883 37.4688L208.57 36.2344C205.875 35.75 203.445 33.5938 203.445 31.3125ZM196.336 41.4844H209.148V40.25H196.336V41.4844ZM221.852 29.3281H220.367V33.8438H216.195V35.0625H220.367V43.3594H221.852V29.3281ZM210.914 39.9844H212.039C214.234 39.9922 216.266 39.8672 218.523 39.4062L218.336 38.1875C216.297 38.5938 214.414 38.7188 212.414 38.75V30.875H210.914V39.9844ZM236.789 35.75H223.977V36.8906H236.789V35.75ZM225.492 38.9375H233.742V39.9688H225.508V43.1562H235.648V42.1094H226.992V40.9531H235.211V37.875H225.492V38.9375ZM225.586 30.7344H233.695V31.7344H225.617V34.8281H235.414V33.7812H227.086V32.7188H235.18V29.6875H225.586V30.7344ZM245.164 31.8438V31.4688H246.164V30.2656H242.086V31.4688H243.789V31.8438C243.789 33.25 243.172 35.0312 241.57 35.875L242.367 36.9531C243.438 36.3984 244.102 35.4141 244.477 34.3281C244.805 35.4297 245.414 36.4766 246.492 37.0938C247.578 36.4844 248.188 35.4297 248.508 34.3125C248.883 35.4062 249.547 36.3906 250.633 36.9531L251.414 35.875C249.805 35.0625 249.203 33.2734 249.211 31.8438V31.4688H250.82V30.2656H246.82V31.4688H247.789V31.8438C247.781 32.9609 247.5 34.4453 246.492 35.4688C245.453 34.4219 245.164 32.9062 245.164 31.8438ZM244.07 43.1562H253.539V38.2344H244.07V43.1562ZM245.539 41.9531V39.4062H252.086V41.9531H245.539ZM252.055 37.5156H253.539V29.3125H252.055V37.5156ZM262.477 31.6406H259.742V29.7344H258.273V31.6406H255.523V32.8438H262.477V31.6406ZM255.977 36.9062C255.969 38.8203 257.25 40.1641 259.008 40.1562C260.781 40.1641 262.047 38.8203 262.055 36.9062C262.047 35.0234 260.781 33.6875 259.008 33.6875C257.25 33.6875 255.969 35.0234 255.977 36.9062ZM257.289 36.9062C257.281 35.7422 258 34.9297 259.008 34.9219C260.016 34.9297 260.742 35.7422 260.742 36.9062C260.742 38.0938 260.016 38.8906 259.008 38.8906C258 38.8906 257.281 38.0938 257.289 36.9062ZM263.117 42.6719H264.523V36.375H266.133V43.3281H267.539V29.3281H266.133V35.1562H264.523V29.6406H263.117V42.6719ZM282.195 40.3594H276.492V37.4844H280.68V30.2812H279.211V32.6875H272.336V30.2812H270.852V37.4844H275.023V40.3594H269.383V41.5938H282.195V40.3594ZM272.336 36.2812V33.8906H279.211V36.2812H272.336ZM287.477 33.1562V30.6094H286.039V33.2188C286.047 35.6016 285 38.0781 283.023 39.2656L283.945 40.375C285.305 39.5469 286.273 38.0312 286.781 36.2578C287.266 37.875 288.148 39.2734 289.461 40.0625L290.289 38.9219C288.414 37.7734 287.477 35.3906 287.477 33.1562ZM288.773 35.4844H290.945V42.6406H292.352V29.5938H290.945V34.25H288.773V35.4844ZM293.836 43.3281H295.258V29.3281H293.836V43.3281ZM309.852 40.3438H306.789V36.6562C307.914 36.0234 308.586 35.0312 308.586 33.7969C308.586 31.5938 306.422 30.1484 303.414 30.1406C300.414 30.1484 298.25 31.5938 298.258 33.7969C298.25 35.0547 298.953 36.0547 300.102 36.6875V40.3438H297.039V41.5781H309.852V40.3438ZM299.695 33.7969C299.695 32.2891 301.219 31.3281 303.414 31.3281C305.594 31.3281 307.141 32.2891 307.148 33.7969C307.141 35.2969 305.594 36.2734 303.414 36.2812C301.219 36.2734 299.695 35.2969 299.695 33.7969ZM301.57 40.3438V37.2344C302.133 37.3672 302.758 37.4375 303.414 37.4375C304.086 37.4375 304.719 37.3672 305.289 37.2344V40.3438H301.57ZM312.461 42.1094C313.062 42.1016 313.562 41.6094 313.57 41C313.562 40.3906 313.062 39.8906 312.461 39.8906C311.852 39.8906 311.344 40.3906 311.352 41C311.344 41.6094 311.852 42.1016 312.461 42.1094Z" fill="#948A9E"/>
</svg>
