<svg width="293" height="48" viewBox="0 0 293 48" fill="none" xmlns="http://www.w3.org/2000/svg">
<path d="M76.75 7.84375V7.45312H79.7656V6.25H72.1875V7.45312H75.2656V7.82812C75.2578 9.75781 73.9375 11.5703 71.75 12.3125L72.5469 13.4688C74.1875 12.8906 75.4062 11.6953 76.0156 10.1875C76.625 11.5625 77.7891 12.6562 79.375 13.2031L80.125 12.0469C77.9844 11.3281 76.7422 9.63281 76.75 7.84375ZM73.6094 15.6562H81.375V19.3281H82.8594V14.4531H73.6094V15.6562ZM81.375 13.7656H82.8594V10.1719H84.8906V8.92188H82.8594V5.32812H81.375V13.7656ZM90.6562 7.42188V6.10938H89.1875V7.48438C89.1719 9.58594 87.875 11.4531 85.6406 12.2188L86.4375 13.4062C88.1328 12.7969 89.3516 11.5391 89.9531 9.9375C90.5625 11.3438 91.6953 12.4219 93.2344 12.9844L94.0469 11.8281C91.9219 11.1328 90.6484 9.38281 90.6562 7.42188ZM87.9375 16.6562C87.9297 18.3438 89.7266 19.3047 92.6719 19.2969C95.6016 19.3047 97.3984 18.3438 97.4062 16.6562C97.3984 14.9609 95.6016 13.9766 92.6719 13.9844C89.7266 13.9766 87.9297 14.9609 87.9375 16.6562ZM89.4062 16.6562C89.3984 15.6953 90.6172 15.1406 92.6719 15.1406C94.7109 15.1406 95.9297 15.6953 95.9375 16.6562C95.9297 17.5859 94.7109 18.1328 92.6719 18.125C90.6172 18.1328 89.3984 17.5859 89.4062 16.6562ZM92.9219 9.39062H95.875V13.5938H97.3594V5.32812H95.875V8.17188H92.9219V9.39062ZM110.516 5.34375H109.031V15.8125H110.516V11.0781H112.547V9.84375H110.516V5.34375ZM99.5312 8.17188H107.875V6.96875H104.453V5.32812H102.969V6.96875H99.5312V8.17188ZM100.297 11.4844C100.289 13.0703 101.672 14.1016 103.703 14.1094C105.711 14.1016 107.094 13.0703 107.094 11.4844C107.094 9.88281 105.711 8.83594 103.703 8.84375C101.672 8.83594 100.289 9.88281 100.297 11.4844ZM101.641 19.0312H111.109V17.8281H103.125V14.9844H101.641V19.0312ZM101.734 11.4844C101.719 10.5625 102.516 9.99219 103.703 9.98438C104.891 9.99219 105.688 10.5625 105.703 11.4844C105.688 12.3984 104.891 12.9609 103.703 12.9531C102.516 12.9609 101.719 12.3984 101.734 11.4844ZM129.281 5.32812H127.875V19.3281H129.281V5.32812ZM117.203 15.2812L118.047 16.3438C120.023 15.1875 121.359 13.7656 122.188 12.1406H124.922V18.6406H126.328V5.6875H124.922V10.9531H122.703C123.133 9.73438 123.32 8.42969 123.328 7.0625H117.859V8.28125H121.852C121.594 11.1641 120.172 13.5156 117.203 15.2812ZM136.219 8.89062V6.5H134.719V8.89062C134.719 11.5625 133.172 14.2422 130.969 15.2188L131.875 16.4688C133.555 15.6484 134.844 13.9609 135.492 11.9062C136.148 13.8203 137.422 15.3906 139.031 16.1562L139.922 14.9844C137.75 14.0234 136.203 11.4453 136.219 8.89062ZM141.188 19.3594H142.672V5.32812H141.188V19.3594ZM157.672 11.125H144.906V12.3125H150.531V13.5312H146.438V14.6719H154.594V15.7344H146.453V19.1875H156.453V18.0469H147.906V16.8125H156.062V13.5312H152.016V12.3125H157.672V11.125ZM146.547 10.0938H156.031V5.78125H146.547V10.0938ZM148 8.92188V6.95312H154.547V8.92188H148ZM170.328 5.32812H168.844V19.3594H170.328V5.32812ZM159.219 11.2812C159.219 14.3047 160.727 16.2109 162.844 16.2031C164.922 16.2109 166.453 14.3047 166.453 11.2812C166.453 8.28906 164.922 6.38281 162.844 6.375C160.727 6.38281 159.219 8.28906 159.219 11.2812ZM160.656 11.2812C160.648 9.08594 161.539 7.71094 162.844 7.70312C164.125 7.71094 165.016 9.08594 165.016 11.2812C165.016 13.5078 164.125 14.875 162.844 14.875C161.539 14.875 160.648 13.5078 160.656 11.2812ZM179.453 13.5312H178.062V19.1562H183.016V13.5312H181.641V15.1562H179.453V13.5312ZM176.672 9.15625C176.664 11.0859 178.203 12.4141 180.344 12.4062C182.203 12.4141 183.641 11.3516 183.93 9.75H186.656V12.75H188.141V5.32812H186.656V8.53125H183.922C183.617 6.96094 182.188 5.92188 180.344 5.92188C178.203 5.92188 176.664 7.24219 176.672 9.15625ZM178.094 9.15625C178.086 7.96094 179.023 7.14844 180.344 7.15625C181.641 7.14844 182.562 7.96094 182.562 9.15625C182.562 10.3672 181.641 11.1953 180.344 11.2031C179.023 11.1953 178.086 10.3672 178.094 9.15625ZM179.453 18V16.2812H181.641V18H179.453ZM183.094 18.1406L183.844 19.2656C185.047 18.7656 185.867 17.8359 186.328 16.7578C186.773 17.8672 187.594 18.7812 188.859 19.2656L189.625 18.1406C187.898 17.5312 187.07 16.0469 187.078 14.5781V13.4375H185.609V14.5781C185.609 15.9766 184.781 17.4453 183.094 18.1406ZM194.094 6.375C192.008 6.38281 190.531 8.28906 190.547 11.2812C190.531 14.3047 192.008 16.2109 194.094 16.2031C196.047 16.2109 197.461 14.5156 197.625 11.7812H200.5V19.3594H201.969V5.32812H200.5V10.5781H197.609C197.383 7.99219 196 6.38281 194.094 6.375ZM191.953 11.2812C191.961 9.08594 192.828 7.71094 194.094 7.70312C195.359 7.71094 196.227 9.08594 196.234 11.2812C196.227 13.5078 195.359 14.875 194.094 14.875C192.828 14.875 191.961 13.5078 191.953 11.2812ZM216.938 16.3438H213.875V12.6562C215 12.0234 215.672 11.0312 215.672 9.79688C215.672 7.59375 213.508 6.14844 210.5 6.14062C207.5 6.14844 205.336 7.59375 205.344 9.79688C205.336 11.0547 206.039 12.0547 207.188 12.6875V16.3438H204.125V17.5781H216.938V16.3438ZM206.781 9.79688C206.781 8.28906 208.305 7.32812 210.5 7.32812C212.68 7.32812 214.227 8.28906 214.234 9.79688C214.227 11.2969 212.68 12.2734 210.5 12.2812C208.305 12.2734 206.781 11.2969 206.781 9.79688ZM208.656 16.3438V13.2344C209.219 13.3672 209.844 13.4375 210.5 13.4375C211.172 13.4375 211.805 13.3672 212.375 13.2344V16.3438H208.656ZM219.547 18.1094C220.148 18.1016 220.648 17.6094 220.656 17C220.648 16.3906 220.148 15.8906 219.547 15.8906C218.938 15.8906 218.43 16.3906 218.438 17C218.43 17.6094 218.938 18.1016 219.547 18.1094ZM12.3594 29.3281H10.875V43.3594H12.3594V29.3281ZM1.65625 39.9219H2.8125C5.71875 39.9141 7.54688 39.8359 9.64062 39.4531L9.48438 38.2188C7.50781 38.5703 5.80469 38.6484 3.15625 38.6562V31.8594H8.35938V30.625H1.65625V39.9219ZM18.3906 30.375C16.3047 30.3828 14.8281 32.2891 14.8438 35.2812C14.8281 38.3047 16.3047 40.2109 18.3906 40.2031C20.3438 40.2109 21.7578 38.5156 21.9219 35.7812H24.7969V43.3594H26.2656V29.3281H24.7969V34.5781H21.9062C21.6797 31.9922 20.2969 30.3828 18.3906 30.375ZM16.25 35.2812C16.2578 33.0859 17.125 31.7109 18.3906 31.7031C19.6562 31.7109 20.5234 33.0859 20.5312 35.2812C20.5234 37.5078 19.6562 38.875 18.3906 38.875C17.125 38.875 16.2578 37.5078 16.25 35.2812ZM33.25 31.5625V30.0625H31.7812V31.4375C31.7656 33.5312 30.5 35.3984 28.3125 36.1719L29.1094 37.3594C30.7422 36.7578 31.9297 35.5234 32.5391 33.9531C33.1484 35.3359 34.2969 36.4297 35.8281 36.9688L36.625 35.7969C34.5391 35.1094 33.2422 33.3984 33.25 31.5625ZM30.2031 40.7031C30.2031 42.3594 31.9922 43.3047 34.9062 43.2969C37.7812 43.3047 39.5469 42.3594 39.5469 40.7031C39.5469 39.0625 37.7812 38.1016 34.9062 38.1094C31.9922 38.1016 30.2031 39.0625 30.2031 40.7031ZM31.6875 40.7031C31.6797 39.8125 32.8828 39.2812 34.9062 39.2812C36.9141 39.2812 38.1016 39.8125 38.0938 40.7031C38.1016 41.625 36.9141 42.125 34.9062 42.1406C32.8828 42.125 31.6797 41.625 31.6875 40.7031ZM37.9375 37.7812H39.4219V34.0938H41.4531V32.8438H39.4219V29.3281H37.9375V37.7812ZM53.25 29.3281H51.7656V37.2344H53.25V33.8906H55.2812V32.6562H53.25V29.3281ZM42.875 36.5156H43.9844C46.9844 36.5156 48.6406 36.4453 50.5312 36.0469L50.3594 34.8594C48.6016 35.2031 47.0703 35.3125 44.3438 35.3125V31.4531H49.0938V30.25H42.875V36.5156ZM44.3125 43.1406H53.25V37.9219H44.3125V43.1406ZM45.7656 41.9531V39.1094H51.7812V41.9531H45.7656ZM68.8906 40.3281H63.1562V37H61.6875V40.3281H56.0781V41.5469H68.8906V40.3281ZM56.5156 36.0312L57.1719 37.25C59.4297 36.8047 61.4922 35.3906 62.4141 33.4844C63.3359 35.3984 65.4141 36.8047 67.6875 37.25L68.3281 36.0312C65.625 35.5781 63.1875 33.5 63.1875 31.2812V30.2188H61.625V31.2812C61.6172 33.5 59.2109 35.5781 56.5156 36.0312ZM81.9531 29.3281H80.5312V43.3281H81.9531V29.3281ZM70.0625 35.375C70.0625 38.4141 71.25 40.3203 73.0781 40.3125C74.8125 40.3203 75.9766 38.625 76.1094 35.8906H77.6875V42.6406H79.1094V29.5938H77.6875V34.6875H76.1016C75.9297 32.0625 74.7812 30.4453 73.0781 30.4531C71.25 30.4453 70.0625 32.3438 70.0625 35.375ZM71.4375 35.375C71.4375 33.1406 72.0703 31.8359 73.0781 31.8438C74.1094 31.8359 74.75 33.1406 74.75 35.375C74.75 37.6016 74.1094 38.9141 73.0781 38.9062C72.0703 38.9141 71.4375 37.6016 71.4375 35.375ZM88.7812 32.8906V30.5H87.2812V32.8906C87.2734 35.4844 85.8281 38.1797 83.6562 39.2188L84.5938 40.4219C86.2109 39.5859 87.4297 37.8828 88.0469 35.8672C88.6641 37.7812 89.8672 39.3594 91.4531 40.1562L92.3594 38.9688C90.2188 38.0078 88.7812 35.4531 88.7812 32.8906ZM90.8125 35.1875H93.9375V43.3594H95.4062V29.3281H93.9375V33.9844H90.8125V35.1875ZM113.109 29.3438H111.625V37.5625H108.812V38.6094H111.625V39.9531H113.109V29.3438ZM101.406 35.7344L101.594 36.9219C102.727 36.9219 104.031 36.9219 105.391 36.8672V39.5156H106.875V36.7891C108.109 36.7031 109.367 36.5781 110.562 36.375L110.469 35.3125C107.484 35.6875 103.992 35.7109 101.406 35.7344ZM102.5 32.3438C102.492 33.8359 103.914 34.7812 105.984 34.7812C108.031 34.7812 109.453 33.8359 109.453 32.3438C109.453 30.8594 108.031 29.875 105.984 29.875C103.906 29.875 102.492 30.8594 102.5 32.3438ZM103.344 43.0312H113.453V41.8281H104.812V38.9219H103.344V43.0312ZM103.906 32.3438C103.898 31.5078 104.742 30.9688 105.984 30.9844C107.18 30.9688 108.039 31.5078 108.047 32.3438C108.039 33.1719 107.18 33.6875 105.984 33.6875C104.742 33.6875 103.898 33.1719 103.906 32.3438ZM126.203 29.3281H124.734V43.3281H126.203V36.2344H128.453V35H126.203V29.3281ZM115.219 32.7344H123.516V31.5156H120.156V29.5156H118.672V31.5156H115.219V32.7344ZM115.938 37.0156C115.938 38.9375 117.406 40.2734 119.422 40.2812C121.43 40.2734 122.898 38.9375 122.906 37.0156C122.898 35.1094 121.43 33.7656 119.422 33.7656C117.406 33.7656 115.938 35.1094 115.938 37.0156ZM117.359 37.0156C117.352 35.8203 118.227 34.9922 119.422 34.9844C120.609 34.9922 121.477 35.8203 121.484 37.0156C121.477 38.2344 120.609 39.0469 119.422 39.0312C118.227 39.0469 117.352 38.2344 117.359 37.0156ZM140.453 33.4219H132.281V29.8281H130.812V34.6094H140.453V33.4219ZM129.109 37.5625H141.922V36.375H129.109V37.5625ZM130.703 43H140.547V41.7812H132.188V38.8906H130.703V43ZM158.891 29.3281H157.484V43.3281H158.891V29.3281ZM146.812 39.2812L147.656 40.3438C149.633 39.1875 150.969 37.7656 151.797 36.1406H154.531V42.6406H155.938V29.6875H154.531V34.9531H152.312C152.742 33.7344 152.93 32.4297 152.938 31.0625H147.469V32.2812H151.461C151.203 35.1641 149.781 37.5156 146.812 39.2812ZM165.828 32.8906V30.5H164.328V32.8906C164.328 35.5625 162.781 38.2422 160.578 39.2188L161.484 40.4688C163.164 39.6484 164.453 37.9609 165.102 35.9062C165.758 37.8203 167.031 39.3906 168.641 40.1562L169.531 38.9844C167.359 38.0234 165.812 35.4453 165.828 32.8906ZM170.797 43.3594H172.281V29.3281H170.797V43.3594ZM187.281 35.125H174.516V36.3125H180.141V37.5312H176.047V38.6719H184.203V39.7344H176.062V43.1875H186.062V42.0469H177.516V40.8125H185.672V37.5312H181.625V36.3125H187.281V35.125ZM176.156 34.0938H185.641V29.7812H176.156V34.0938ZM177.609 32.9219V30.9531H184.156V32.9219H177.609ZM194.719 29.5625C191.562 29.5547 189.711 30.4062 189.719 31.9688C189.711 33.5391 191.562 34.3906 194.719 34.3906C197.875 34.3906 199.711 33.5391 199.719 31.9688C199.711 30.4062 197.875 29.5547 194.719 29.5625ZM188.344 36.4375H201.109V35.25H188.344V36.4375ZM189.875 38.625H198.031V39.7188H189.891V43.1875H199.891V42.0469H191.344V40.7969H199.5V37.5156H189.875V38.625ZM191.266 31.9688C191.258 31.1406 192.492 30.6562 194.719 30.6562C196.961 30.6562 198.195 31.1406 198.188 31.9688C198.195 32.8359 196.961 33.2812 194.719 33.2812C192.492 33.2812 191.258 32.8359 191.266 31.9688ZM210.969 31.8438V31.4531H213.984V30.25H206.406V31.4531H209.484V31.8281C209.477 33.7578 208.156 35.5703 205.969 36.3125L206.766 37.4688C208.406 36.8906 209.625 35.6953 210.234 34.1875C210.844 35.5625 212.008 36.6562 213.594 37.2031L214.344 36.0469C212.203 35.3281 210.961 33.6328 210.969 31.8438ZM207.828 39.6562H215.594V43.3281H217.078V38.4531H207.828V39.6562ZM215.594 37.7656H217.078V34.1719H219.109V32.9219H217.078V29.3281H215.594V37.7656ZM224.875 31.4219V30.1094H223.406V31.4844C223.391 33.5859 222.094 35.4531 219.859 36.2188L220.656 37.4062C222.352 36.7969 223.57 35.5391 224.172 33.9375C224.781 35.3438 225.914 36.4219 227.453 36.9844L228.266 35.8281C226.141 35.1328 224.867 33.3828 224.875 31.4219ZM222.156 40.6562C222.148 42.3438 223.945 43.3047 226.891 43.2969C229.82 43.3047 231.617 42.3438 231.625 40.6562C231.617 38.9609 229.82 37.9766 226.891 37.9844C223.945 37.9766 222.148 38.9609 222.156 40.6562ZM223.625 40.6562C223.617 39.6953 224.836 39.1406 226.891 39.1406C228.93 39.1406 230.148 39.6953 230.156 40.6562C230.148 41.5859 228.93 42.1328 226.891 42.125C224.836 42.1328 223.617 41.5859 223.625 40.6562ZM227.141 33.3906H230.094V37.5938H231.578V29.3281H230.094V32.1719H227.141V33.3906ZM240.656 31.6406H237.922V29.7344H236.453V31.6406H233.703V32.8438H240.656V31.6406ZM234.156 36.9062C234.148 38.8203 235.43 40.1641 237.188 40.1562C238.961 40.1641 240.227 38.8203 240.234 36.9062C240.227 35.0234 238.961 33.6875 237.188 33.6875C235.43 33.6875 234.148 35.0234 234.156 36.9062ZM235.469 36.9062C235.461 35.7422 236.18 34.9297 237.188 34.9219C238.195 34.9297 238.922 35.7422 238.922 36.9062C238.922 38.0938 238.195 38.8906 237.188 38.8906C236.18 38.8906 235.461 38.0938 235.469 36.9062ZM241.297 42.6719H242.703V36.375H244.312V43.3281H245.719V29.3281H244.312V35.1562H242.703V29.6406H241.297V42.6719ZM260.375 40.3594H254.672V37.4844H258.859V30.2812H257.391V32.6875H250.516V30.2812H249.031V37.4844H253.203V40.3594H247.562V41.5938H260.375V40.3594ZM250.516 36.2812V33.8906H257.391V36.2812H250.516ZM265.656 33.1562V30.6094H264.219V33.2188C264.227 35.6016 263.18 38.0781 261.203 39.2656L262.125 40.375C263.484 39.5469 264.453 38.0312 264.961 36.2578C265.445 37.875 266.328 39.2734 267.641 40.0625L268.469 38.9219C266.594 37.7734 265.656 35.3906 265.656 33.1562ZM266.953 35.4844H269.125V42.6406H270.531V29.5938H269.125V34.25H266.953V35.4844ZM272.016 43.3281H273.438V29.3281H272.016V43.3281ZM288.031 40.3438H284.969V36.6562C286.094 36.0234 286.766 35.0312 286.766 33.7969C286.766 31.5938 284.602 30.1484 281.594 30.1406C278.594 30.1484 276.43 31.5938 276.438 33.7969C276.43 35.0547 277.133 36.0547 278.281 36.6875V40.3438H275.219V41.5781H288.031V40.3438ZM277.875 33.7969C277.875 32.2891 279.398 31.3281 281.594 31.3281C283.773 31.3281 285.32 32.2891 285.328 33.7969C285.32 35.2969 283.773 36.2734 281.594 36.2812C279.398 36.2734 277.875 35.2969 277.875 33.7969ZM279.75 40.3438V37.2344C280.312 37.3672 280.938 37.4375 281.594 37.4375C282.266 37.4375 282.898 37.3672 283.469 37.2344V40.3438H279.75ZM290.641 42.1094C291.242 42.1016 291.742 41.6094 291.75 41C291.742 40.3906 291.242 39.8906 290.641 39.8906C290.031 39.8906 289.523 40.3906 289.531 41C289.523 41.6094 290.031 42.1016 290.641 42.1094Z" fill="#948A9E"/>
</svg>
