<svg width="257" height="48" viewBox="0 0 257 48" fill="none" xmlns="http://www.w3.org/2000/svg">
<path d="M67.3047 8.11328V7.77148H69.9434V6.71875H63.3125V7.77148H66.0059V8.09961C65.999 9.78809 64.8438 11.374 62.9297 12.0234L63.627 13.0352C65.0625 12.5293 66.1289 11.4834 66.6621 10.1641C67.1953 11.3672 68.2139 12.3242 69.6016 12.8027L70.2578 11.791C68.3848 11.1621 67.2979 9.67871 67.3047 8.11328ZM64.5566 14.9492H71.3516V18.1621H72.6504V13.8965H64.5566V14.9492ZM71.3516 13.2949H72.6504V10.1504H74.4277V9.05664H72.6504V5.91211H71.3516V13.2949ZM79.4727 7.74414V6.5957H78.1875V7.79883C78.1738 9.6377 77.0391 11.2715 75.084 11.9414L75.7812 12.9805C77.2646 12.4473 78.3311 11.3467 78.8574 9.94531C79.3906 11.1758 80.3818 12.1191 81.7285 12.6113L82.4395 11.5996C80.5801 10.9912 79.4658 9.45996 79.4727 7.74414ZM77.0938 15.8242C77.0869 17.3008 78.6592 18.1416 81.2363 18.1348C83.7998 18.1416 85.3721 17.3008 85.3789 15.8242C85.3721 14.3408 83.7998 13.4795 81.2363 13.4863C78.6592 13.4795 77.0869 14.3408 77.0938 15.8242ZM78.3789 15.8242C78.3721 14.9834 79.4385 14.498 81.2363 14.498C83.0205 14.498 84.0869 14.9834 84.0938 15.8242C84.0869 16.6377 83.0205 17.1162 81.2363 17.1094C79.4385 17.1162 78.3721 16.6377 78.3789 15.8242ZM81.4551 9.4668H84.0391V13.1445H85.3379V5.91211H84.0391V8.40039H81.4551V9.4668ZM96.8496 5.92578H95.5508V15.0859H96.8496V10.9434H98.627V9.86328H96.8496V5.92578ZM87.2383 8.40039H94.5391V7.34766H91.5449V5.91211H90.2461V7.34766H87.2383V8.40039ZM87.9082 11.2988C87.9014 12.6865 89.1113 13.5889 90.8887 13.5957C92.6455 13.5889 93.8555 12.6865 93.8555 11.2988C93.8555 9.89746 92.6455 8.98145 90.8887 8.98828C89.1113 8.98145 87.9014 9.89746 87.9082 11.2988ZM89.084 17.9023H97.3691V16.8496H90.3828V14.3613H89.084V17.9023ZM89.166 11.2988C89.1523 10.4922 89.8496 9.99316 90.8887 9.98633C91.9277 9.99316 92.625 10.4922 92.6387 11.2988C92.625 12.0986 91.9277 12.5908 90.8887 12.584C89.8496 12.5908 89.1523 12.0986 89.166 11.2988ZM113.27 5.91211H112.039V18.1621H113.27V5.91211ZM102.701 14.6211L103.439 15.5508C105.169 14.5391 106.338 13.2949 107.062 11.873H109.455V17.5605H110.686V6.22656H109.455V10.834H107.514C107.89 9.76758 108.054 8.62598 108.061 7.42969H103.275V8.49609H106.769C106.543 11.0186 105.299 13.0762 102.701 14.6211ZM119.34 9.0293V6.9375H118.027V9.0293C118.027 11.3672 116.674 13.7119 114.746 14.5664L115.539 15.6602C117.009 14.9424 118.137 13.4658 118.704 11.668C119.278 13.3428 120.393 14.7168 121.801 15.3867L122.58 14.3613C120.68 13.5205 119.326 11.2646 119.34 9.0293ZM123.688 18.1895H124.986V5.91211H123.688V18.1895ZM138.111 10.9844H126.941V12.0234H131.863V13.0898H128.281V14.0879H135.418V15.0176H128.295V18.0391H137.045V17.041H129.566V15.9609H136.703V13.0898H133.162V12.0234H138.111V10.9844ZM128.377 10.082H136.676V6.30859H128.377V10.082ZM129.648 9.05664V7.33398H135.377V9.05664H129.648ZM149.186 5.91211H147.887V18.1895H149.186V5.91211ZM139.465 11.1211C139.465 13.7666 140.784 15.4346 142.637 15.4277C144.455 15.4346 145.795 13.7666 145.795 11.1211C145.795 8.50293 144.455 6.83496 142.637 6.82812C140.784 6.83496 139.465 8.50293 139.465 11.1211ZM140.723 11.1211C140.716 9.2002 141.495 7.99707 142.637 7.99023C143.758 7.99707 144.537 9.2002 144.537 11.1211C144.537 13.0693 143.758 14.2656 142.637 14.2656C141.495 14.2656 140.716 13.0693 140.723 11.1211ZM157.17 13.0898H155.953V18.0117H160.287V13.0898H159.084V14.5117H157.17V13.0898ZM154.736 9.26172C154.729 10.9502 156.076 12.1123 157.949 12.1055C159.576 12.1123 160.834 11.1826 161.087 9.78125H163.473V12.4062H164.771V5.91211H163.473V8.71484H161.08C160.813 7.34082 159.562 6.43164 157.949 6.43164C156.076 6.43164 154.729 7.58691 154.736 9.26172ZM155.98 9.26172C155.974 8.21582 156.794 7.50488 157.949 7.51172C159.084 7.50488 159.891 8.21582 159.891 9.26172C159.891 10.3213 159.084 11.0459 157.949 11.0527C156.794 11.0459 155.974 10.3213 155.98 9.26172ZM157.17 17V15.4961H159.084V17H157.17ZM160.355 17.123L161.012 18.1074C162.064 17.6699 162.782 16.8564 163.186 15.9131C163.575 16.8838 164.293 17.6836 165.4 18.1074L166.07 17.123C164.56 16.5898 163.835 15.291 163.842 14.0059V13.0078H162.557V14.0059C162.557 15.2295 161.832 16.5146 160.355 17.123ZM169.98 6.82812C168.155 6.83496 166.863 8.50293 166.877 11.1211C166.863 13.7666 168.155 15.4346 169.98 15.4277C171.689 15.4346 172.927 13.9512 173.07 11.5586H175.586V18.1895H176.871V5.91211H175.586V10.5059H173.057C172.858 8.24316 171.648 6.83496 169.98 6.82812ZM168.107 11.1211C168.114 9.2002 168.873 7.99707 169.98 7.99023C171.088 7.99707 171.847 9.2002 171.854 11.1211C171.847 13.0693 171.088 14.2656 169.98 14.2656C168.873 14.2656 168.114 13.0693 168.107 11.1211ZM189.969 15.5508H187.289V12.3242C188.273 11.7705 188.861 10.9023 188.861 9.82227C188.861 7.89453 186.968 6.62988 184.336 6.62305C181.711 6.62988 179.817 7.89453 179.824 9.82227C179.817 10.9229 180.433 11.7979 181.438 12.3516V15.5508H178.758V16.6309H189.969V15.5508ZM181.082 9.82227C181.082 8.50293 182.415 7.66211 184.336 7.66211C186.243 7.66211 187.597 8.50293 187.604 9.82227C187.597 11.1348 186.243 11.9893 184.336 11.9961C182.415 11.9893 181.082 11.1348 181.082 9.82227ZM182.723 15.5508V12.8301C183.215 12.9463 183.762 13.0078 184.336 13.0078C184.924 13.0078 185.478 12.9463 185.977 12.8301V15.5508H182.723ZM192.252 17.0957C192.778 17.0889 193.216 16.6582 193.223 16.125C193.216 15.5918 192.778 15.1543 192.252 15.1543C191.719 15.1543 191.274 15.5918 191.281 16.125C191.274 16.6582 191.719 17.0889 192.252 17.0957ZM10.9629 29.9121H9.66406V42.1895H10.9629V29.9121ZM1.59766 39.1816H2.60938C5.15234 39.1748 6.75195 39.1064 8.58398 38.7715L8.44727 37.6914C6.71777 37.999 5.22754 38.0674 2.91016 38.0742V32.127H7.46289V31.0469H1.59766V39.1816ZM16.2402 30.8281C14.415 30.835 13.123 32.5029 13.1367 35.1211C13.123 37.7666 14.415 39.4346 16.2402 39.4277C17.9492 39.4346 19.1865 37.9512 19.3301 35.5586H21.8457V42.1895H23.1309V29.9121H21.8457V34.5059H19.3164C19.1182 32.2432 17.9082 30.835 16.2402 30.8281ZM14.3672 35.1211C14.374 33.2002 15.1328 31.9971 16.2402 31.9902C17.3477 31.9971 18.1064 33.2002 18.1133 35.1211C18.1064 37.0693 17.3477 38.2656 16.2402 38.2656C15.1328 38.2656 14.374 37.0693 14.3672 35.1211ZM29.2422 31.8672V30.5547H27.957V31.7578C27.9434 33.5898 26.8359 35.2236 24.9219 35.9004L25.6191 36.9395C27.0479 36.4131 28.0869 35.333 28.6201 33.959C29.1533 35.1689 30.1582 36.126 31.498 36.5977L32.1953 35.5723C30.3701 34.9707 29.2354 33.4736 29.2422 31.8672ZM26.5762 39.8652C26.5762 41.3145 28.1416 42.1416 30.6914 42.1348C33.207 42.1416 34.752 41.3145 34.752 39.8652C34.752 38.4297 33.207 37.5889 30.6914 37.5957C28.1416 37.5889 26.5762 38.4297 26.5762 39.8652ZM27.875 39.8652C27.8682 39.0859 28.9209 38.6211 30.6914 38.6211C32.4482 38.6211 33.4873 39.0859 33.4805 39.8652C33.4873 40.6719 32.4482 41.1094 30.6914 41.123C28.9209 41.1094 27.8682 40.6719 27.875 39.8652ZM33.3438 37.3086H34.6426V34.082H36.4199V32.9883H34.6426V29.9121H33.3438V37.3086ZM46.7422 29.9121H45.4434V36.8301H46.7422V33.9043H48.5195V32.8242H46.7422V29.9121ZM37.6641 36.2012H38.6348C41.2598 36.2012 42.709 36.1396 44.3633 35.791L44.2129 34.752C42.6748 35.0527 41.335 35.1484 38.9492 35.1484V31.7715H43.1055V30.7188H37.6641V36.2012ZM38.9219 41.998H46.7422V37.4316H38.9219V41.998ZM40.1934 40.959V38.4707H45.457V40.959H40.1934ZM60.4277 39.5371H55.4102V36.625H54.125V39.5371H49.2168V40.6035H60.4277V39.5371ZM49.5996 35.7773L50.1738 36.8438C52.1494 36.4541 53.9541 35.2168 54.7607 33.5488C55.5674 35.2236 57.3857 36.4541 59.375 36.8438L59.9355 35.7773C57.5703 35.3809 55.4375 33.5625 55.4375 31.6211V30.6914H54.0703V31.6211C54.0635 33.5625 51.958 35.3809 49.5996 35.7773ZM71.8574 29.9121H70.6133V42.1621H71.8574V29.9121ZM61.4531 35.2031C61.4531 37.8623 62.4922 39.5303 64.0918 39.5234C65.6094 39.5303 66.6279 38.0469 66.7441 35.6543H68.125V41.5605H69.3691V30.1445H68.125V34.6016H66.7373C66.5869 32.3047 65.582 30.8896 64.0918 30.8965C62.4922 30.8896 61.4531 32.5508 61.4531 35.2031ZM62.6562 35.2031C62.6562 33.248 63.21 32.1064 64.0918 32.1133C64.9941 32.1064 65.5547 33.248 65.5547 35.2031C65.5547 37.1514 64.9941 38.2998 64.0918 38.293C63.21 38.2998 62.6562 37.1514 62.6562 35.2031ZM77.832 33.0293V30.9375H76.5195V33.0293C76.5127 35.2988 75.248 37.6572 73.3477 38.5664L74.168 39.6191C75.583 38.8877 76.6494 37.3975 77.1895 35.6338C77.7295 37.3086 78.7822 38.6895 80.1699 39.3867L80.9629 38.3477C79.0898 37.5068 77.832 35.2715 77.832 33.0293ZM79.6094 35.0391H82.3438V42.1895H83.6289V29.9121H82.3438V33.9863H79.6094V35.0391ZM99.1191 29.9258H97.8203V37.1172H95.3594V38.0332H97.8203V39.209H99.1191V29.9258ZM88.8789 35.5176L89.043 36.5566C90.0342 36.5566 91.1758 36.5566 92.3652 36.5088V38.8262H93.6641V36.4404C94.7441 36.3652 95.8447 36.2559 96.8906 36.0781L96.8086 35.1484C94.1973 35.4766 91.1416 35.4971 88.8789 35.5176ZM89.8359 32.5508C89.8291 33.8564 91.0732 34.6836 92.8848 34.6836C94.6758 34.6836 95.9199 33.8564 95.9199 32.5508C95.9199 31.252 94.6758 30.3906 92.8848 30.3906C91.0664 30.3906 89.8291 31.252 89.8359 32.5508ZM90.5742 41.9023H99.4199V40.8496H91.8594V38.3066H90.5742V41.9023ZM91.0664 32.5508C91.0596 31.8193 91.7979 31.3477 92.8848 31.3613C93.9307 31.3477 94.6826 31.8193 94.6895 32.5508C94.6826 33.2754 93.9307 33.7266 92.8848 33.7266C91.7979 33.7266 91.0596 33.2754 91.0664 32.5508ZM110.576 29.9121H109.291V42.1621H110.576V35.9551H112.545V34.875H110.576V29.9121ZM100.965 32.8926H108.225V31.8262H105.285V30.0762H103.986V31.8262H100.965V32.8926ZM101.594 36.6387C101.594 38.3203 102.879 39.4893 104.643 39.4961C106.399 39.4893 107.685 38.3203 107.691 36.6387C107.685 34.9707 106.399 33.7949 104.643 33.7949C102.879 33.7949 101.594 34.9707 101.594 36.6387ZM102.838 36.6387C102.831 35.5928 103.597 34.8682 104.643 34.8613C105.682 34.8682 106.44 35.5928 106.447 36.6387C106.44 37.7051 105.682 38.416 104.643 38.4023C103.597 38.416 102.831 37.7051 102.838 36.6387ZM123.045 33.4941H115.895V30.3496H114.609V34.5332H123.045V33.4941ZM113.119 37.1172H124.33V36.0781H113.119V37.1172ZM114.514 41.875H123.127V40.8086H115.812V38.2793H114.514V41.875ZM139.178 29.9121H137.947V42.1621H139.178V29.9121ZM128.609 38.6211L129.348 39.5508C131.077 38.5391 132.246 37.2949 132.971 35.873H135.363V41.5605H136.594V30.2266H135.363V34.834H133.422C133.798 33.7676 133.962 32.626 133.969 31.4297H129.184V32.4961H132.677C132.451 35.0186 131.207 37.0762 128.609 38.6211ZM145.248 33.0293V30.9375H143.936V33.0293C143.936 35.3672 142.582 37.7119 140.654 38.5664L141.447 39.6602C142.917 38.9424 144.045 37.4658 144.612 35.668C145.187 37.3428 146.301 38.7168 147.709 39.3867L148.488 38.3613C146.588 37.5205 145.234 35.2646 145.248 33.0293ZM149.596 42.1895H150.895V29.9121H149.596V42.1895ZM164.02 34.9844H152.85V36.0234H157.771V37.0898H154.189V38.0879H161.326V39.0176H154.203V42.0391H162.953V41.041H155.475V39.9609H162.611V37.0898H159.07V36.0234H164.02V34.9844ZM154.285 34.082H162.584V30.3086H154.285V34.082ZM155.557 33.0566V31.334H161.285V33.0566H155.557ZM170.527 30.1172C167.766 30.1104 166.146 30.8555 166.152 32.2227C166.146 33.5967 167.766 34.3418 170.527 34.3418C173.289 34.3418 174.896 33.5967 174.902 32.2227C174.896 30.8555 173.289 30.1104 170.527 30.1172ZM164.949 36.1328H176.119V35.0938H164.949V36.1328ZM166.289 38.0469H173.426V39.0039H166.303V42.0391H175.053V41.041H167.574V39.9473H174.711V37.0762H166.289V38.0469ZM167.506 32.2227C167.499 31.498 168.579 31.0742 170.527 31.0742C172.489 31.0742 173.569 31.498 173.562 32.2227C173.569 32.9814 172.489 33.3711 170.527 33.3711C168.579 33.3711 167.499 32.9814 167.506 32.2227ZM184.746 32.1133V31.7715H187.385V30.7188H180.754V31.7715H183.447V32.0996C183.44 33.7881 182.285 35.374 180.371 36.0234L181.068 37.0352C182.504 36.5293 183.57 35.4834 184.104 34.1641C184.637 35.3672 185.655 36.3242 187.043 36.8027L187.699 35.791C185.826 35.1621 184.739 33.6787 184.746 32.1133ZM181.998 38.9492H188.793V42.1621H190.092V37.8965H181.998V38.9492ZM188.793 37.2949H190.092V34.1504H191.869V33.0566H190.092V29.9121H188.793V37.2949ZM196.914 31.7441V30.5957H195.629V31.7988C195.615 33.6377 194.48 35.2715 192.525 35.9414L193.223 36.9805C194.706 36.4473 195.772 35.3467 196.299 33.9453C196.832 35.1758 197.823 36.1191 199.17 36.6113L199.881 35.5996C198.021 34.9912 196.907 33.46 196.914 31.7441ZM194.535 39.8242C194.528 41.3008 196.101 42.1416 198.678 42.1348C201.241 42.1416 202.813 41.3008 202.82 39.8242C202.813 38.3408 201.241 37.4795 198.678 37.4863C196.101 37.4795 194.528 38.3408 194.535 39.8242ZM195.82 39.8242C195.813 38.9834 196.88 38.498 198.678 38.498C200.462 38.498 201.528 38.9834 201.535 39.8242C201.528 40.6377 200.462 41.1162 198.678 41.1094C196.88 41.1162 195.813 40.6377 195.82 39.8242ZM198.896 33.4668H201.48V37.1445H202.779V29.9121H201.48V32.4004H198.896V33.4668ZM210.723 31.9355H208.33V30.2676H207.045V31.9355H204.639V32.9883H210.723V31.9355ZM205.035 36.543C205.028 38.2178 206.149 39.3936 207.688 39.3867C209.239 39.3936 210.347 38.2178 210.354 36.543C210.347 34.8955 209.239 33.7266 207.688 33.7266C206.149 33.7266 205.028 34.8955 205.035 36.543ZM206.184 36.543C206.177 35.5244 206.806 34.8135 207.688 34.8066C208.569 34.8135 209.205 35.5244 209.205 36.543C209.205 37.582 208.569 38.2793 207.688 38.2793C206.806 38.2793 206.177 37.582 206.184 36.543ZM211.283 41.5879H212.514V36.0781H213.922V42.1621H215.152V29.9121H213.922V35.0117H212.514V30.1855H211.283V41.5879ZM227.977 39.5645H222.986V37.0488H226.65V30.7461H225.365V32.8516H219.35V30.7461H218.051V37.0488H221.701V39.5645H216.766V40.6445H227.977V39.5645ZM219.35 35.9961V33.9043H225.365V35.9961H219.35ZM232.598 33.2617V31.0332H231.34V33.3164C231.347 35.4014 230.431 37.5684 228.701 38.6074L229.508 39.5781C230.697 38.8535 231.545 37.5273 231.989 35.9756C232.413 37.3906 233.186 38.6143 234.334 39.3047L235.059 38.3066C233.418 37.3018 232.598 35.2168 232.598 33.2617ZM233.732 35.2988H235.633V41.5605H236.863V30.1445H235.633V34.2188H233.732V35.2988ZM238.162 42.1621H239.406V29.9121H238.162V42.1621ZM252.176 39.5508H249.496V36.3242C250.48 35.7705 251.068 34.9023 251.068 33.8223C251.068 31.8945 249.175 30.6299 246.543 30.623C243.918 30.6299 242.024 31.8945 242.031 33.8223C242.024 34.9229 242.64 35.7979 243.645 36.3516V39.5508H240.965V40.6309H252.176V39.5508ZM243.289 33.8223C243.289 32.5029 244.622 31.6621 246.543 31.6621C248.45 31.6621 249.804 32.5029 249.811 33.8223C249.804 35.1348 248.45 35.9893 246.543 35.9961C244.622 35.9893 243.289 35.1348 243.289 33.8223ZM244.93 39.5508V36.8301C245.422 36.9463 245.969 37.0078 246.543 37.0078C247.131 37.0078 247.685 36.9463 248.184 36.8301V39.5508H244.93ZM254.459 41.0957C254.985 41.0889 255.423 40.6582 255.43 40.125C255.423 39.5918 254.985 39.1543 254.459 39.1543C253.926 39.1543 253.481 39.5918 253.488 40.125C253.481 40.6582 253.926 41.0889 254.459 41.0957Z" fill="#948A9E"/>
</svg>
