<svg width="252" height="48" viewBox="0 0 252 48" fill="none" xmlns="http://www.w3.org/2000/svg">
<path d="M56.1875 7.5625V6.0625H54.7188V7.4375C54.7031 9.53125 53.4375 11.3984 51.25 12.1719L52.0469 13.3594C53.6797 12.7578 54.8672 11.5234 55.4766 9.95312C56.0859 11.3359 57.2344 12.4297 58.7656 12.9688L59.5625 11.7969C57.4766 11.1094 56.1797 9.39844 56.1875 7.5625ZM53.1406 16.7031C53.1406 18.3594 54.9297 19.3047 57.8438 19.2969C60.7188 19.3047 62.4844 18.3594 62.4844 16.7031C62.4844 15.0625 60.7188 14.1016 57.8438 14.1094C54.9297 14.1016 53.1406 15.0625 53.1406 16.7031ZM54.625 16.7031C54.6172 15.8125 55.8203 15.2812 57.8438 15.2812C59.8516 15.2812 61.0391 15.8125 61.0312 16.7031C61.0391 17.625 59.8516 18.125 57.8438 18.1406C55.8203 18.125 54.6172 17.625 54.625 16.7031ZM60.875 13.7812H62.3594V10.0938H64.3906V8.84375H62.3594V5.32812H60.875V13.7812ZM76.1875 5.32812H74.7031V13.2344H76.1875V9.89062H78.2188V8.65625H76.1875V5.32812ZM65.8125 12.5156H66.9219C69.9219 12.5156 71.5781 12.4453 73.4688 12.0469L73.2969 10.8594C71.5391 11.2031 70.0078 11.3125 67.2812 11.3125V7.45312H72.0312V6.25H65.8125V12.5156ZM67.25 19.1406H76.1875V13.9219H67.25V19.1406ZM68.7031 17.9531V15.1094H74.7188V17.9531H68.7031ZM94.5156 5.32812H93.0312V19.3281H94.5156V5.32812ZM83.2344 8.75H91.6719V7.54688H88.1875V5.46875H86.6875V7.54688H83.2344V8.75ZM83.9531 13.0156C83.9453 14.9375 85.4297 16.2734 87.4688 16.2812C89.5078 16.2734 90.9922 14.9375 91 13.0156C90.9922 11.1094 89.5078 9.76562 87.4688 9.76562C85.4297 9.76562 83.9453 11.1094 83.9531 13.0156ZM85.3594 13.0156C85.3594 11.8203 86.2422 10.9922 87.4688 10.9844C88.6953 10.9922 89.5781 11.8203 89.5781 13.0156C89.5781 14.2344 88.6953 15.0469 87.4688 15.0312C86.2422 15.0469 85.3594 14.2344 85.3594 13.0156ZM103.859 7.3125V6.25H102.297V7.3125C102.289 9.59375 99.875 11.7344 97.2188 12.2344L97.875 13.4688C100.117 12.9688 102.172 11.5078 103.094 9.54688C104 11.5156 106.055 12.9844 108.297 13.4688L108.984 12.2344C106.289 11.75 103.859 9.59375 103.859 7.3125ZM96.75 17.4844H109.562V16.25H96.75V17.4844ZM121.938 12.5H113.688V10.5938H121.5V9.42188H113.688V7.625H121.797V6.40625H112.188V13.6875H116.219V16.4219H110.578V17.6406H123.391V16.4219H117.703V13.6875H121.938V12.5ZM136.031 5.32812H134.547V19.3594H136.031V5.32812ZM125.188 7.79688H130.234V10.5156H125.203V16H126.391C128.867 15.9922 130.977 15.8984 133.453 15.4844L133.312 14.2656C130.969 14.6484 128.992 14.7578 126.719 14.7656V11.7031H131.75V6.59375H125.188V7.79688ZM149.141 5.32812H147.656V19.3125H149.141V12.1406H151.312V10.9062H149.141V5.32812ZM138.25 15.5781L139.078 16.7344C143.688 14.4609 145.469 10.8438 145.484 6.79688H138.953V8.03125H143.969C143.664 11.2969 141.758 13.8281 138.25 15.5781ZM158.953 13.5312H157.562V19.1562H162.516V13.5312H161.141V15.1562H158.953V13.5312ZM156.172 9.15625C156.164 11.0859 157.703 12.4141 159.844 12.4062C161.703 12.4141 163.141 11.3516 163.43 9.75H166.156V12.75H167.641V5.32812H166.156V8.53125H163.422C163.117 6.96094 161.688 5.92188 159.844 5.92188C157.703 5.92188 156.164 7.24219 156.172 9.15625ZM157.594 9.15625C157.586 7.96094 158.523 7.14844 159.844 7.15625C161.141 7.14844 162.062 7.96094 162.062 9.15625C162.062 10.3672 161.141 11.1953 159.844 11.2031C158.523 11.1953 157.586 10.3672 157.594 9.15625ZM158.953 18V16.2812H161.141V18H158.953ZM162.594 18.1406L163.344 19.2656C164.547 18.7656 165.367 17.8359 165.828 16.7578C166.273 17.8672 167.094 18.7812 168.359 19.2656L169.125 18.1406C167.398 17.5312 166.57 16.0469 166.578 14.5781V13.4375H165.109V14.5781C165.109 15.9766 164.281 17.4453 162.594 18.1406ZM173.594 6.375C171.508 6.38281 170.031 8.28906 170.047 11.2812C170.031 14.3047 171.508 16.2109 173.594 16.2031C175.547 16.2109 176.961 14.5156 177.125 11.7812H180V19.3594H181.469V5.32812H180V10.5781H177.109C176.883 7.99219 175.5 6.38281 173.594 6.375ZM171.453 11.2812C171.461 9.08594 172.328 7.71094 173.594 7.70312C174.859 7.71094 175.727 9.08594 175.734 11.2812C175.727 13.5078 174.859 14.875 173.594 14.875C172.328 14.875 171.461 13.5078 171.453 11.2812ZM196.438 16.3438H193.375V12.6562C194.5 12.0234 195.172 11.0312 195.172 9.79688C195.172 7.59375 193.008 6.14844 190 6.14062C187 6.14844 184.836 7.59375 184.844 9.79688C184.836 11.0547 185.539 12.0547 186.688 12.6875V16.3438H183.625V17.5781H196.438V16.3438ZM186.281 9.79688C186.281 8.28906 187.805 7.32812 190 7.32812C192.18 7.32812 193.727 8.28906 193.734 9.79688C193.727 11.2969 192.18 12.2734 190 12.2812C187.805 12.2734 186.281 11.2969 186.281 9.79688ZM188.156 16.3438V13.2344C188.719 13.3672 189.344 13.4375 190 13.4375C190.672 13.4375 191.305 13.3672 191.875 13.2344V16.3438H188.156ZM199.047 18.1094C199.648 18.1016 200.148 17.6094 200.156 17C200.148 16.3906 199.648 15.8906 199.047 15.8906C198.438 15.8906 197.93 16.3906 197.938 17C197.93 17.6094 198.438 18.1016 199.047 18.1094ZM5.83594 31.5625V30.0625H4.36719V31.4375C4.35156 33.5312 3.08594 35.3984 0.898438 36.1719L1.69531 37.3594C3.32812 36.7578 4.51562 35.5234 5.125 33.9531C5.73438 35.3359 6.88281 36.4297 8.41406 36.9688L9.21094 35.7969C7.125 35.1094 5.82812 33.3984 5.83594 31.5625ZM2.78906 40.7031C2.78906 42.3594 4.57812 43.3047 7.49219 43.2969C10.3672 43.3047 12.1328 42.3594 12.1328 40.7031C12.1328 39.0625 10.3672 38.1016 7.49219 38.1094C4.57812 38.1016 2.78906 39.0625 2.78906 40.7031ZM4.27344 40.7031C4.26562 39.8125 5.46875 39.2812 7.49219 39.2812C9.5 39.2812 10.6875 39.8125 10.6797 40.7031C10.6875 41.625 9.5 42.125 7.49219 42.1406C5.46875 42.125 4.26562 41.625 4.27344 40.7031ZM10.5234 37.7812H12.0078V34.0938H14.0391V32.8438H12.0078V29.3281H10.5234V37.7812ZM25.8359 29.3281H24.3516V37.2344H25.8359V33.8906H27.8672V32.6562H25.8359V29.3281ZM15.4609 36.5156H16.5703C19.5703 36.5156 21.2266 36.4453 23.1172 36.0469L22.9453 34.8594C21.1875 35.2031 19.6562 35.3125 16.9297 35.3125V31.4531H21.6797V30.25H15.4609V36.5156ZM16.8984 43.1406H25.8359V37.9219H16.8984V43.1406ZM18.3516 41.9531V39.1094H24.3672V41.9531H18.3516ZM35.0391 29.5625C31.8828 29.5547 30.0312 30.4062 30.0391 31.9688C30.0312 33.5391 31.8828 34.3906 35.0391 34.3906C38.1953 34.3906 40.0312 33.5391 40.0391 31.9688C40.0312 30.4062 38.1953 29.5547 35.0391 29.5625ZM28.6641 36.4375H41.4297V35.25H28.6641V36.4375ZM30.1953 38.625H38.3516V39.7188H30.2109V43.1875H40.2109V42.0469H31.6641V40.7969H39.8203V37.5156H30.1953V38.625ZM31.5859 31.9688C31.5781 31.1406 32.8125 30.6562 35.0391 30.6562C37.2812 30.6562 38.5156 31.1406 38.5078 31.9688C38.5156 32.8359 37.2812 33.2812 35.0391 33.2812C32.8125 33.2812 31.5781 32.8359 31.5859 31.9688ZM52.7734 30.1719C49.7969 30.1797 47.6094 31.6562 47.6172 33.8906C47.6094 35.9844 49.4453 37.3828 52.0391 37.5938V40.3438H46.3984V41.5781H59.2109V40.3438H53.5078V37.5938C56.1172 37.3828 57.9453 35.9844 57.9453 33.8906C57.9453 31.6562 55.7656 30.1797 52.7734 30.1719ZM49.0547 33.8906C49.0547 32.375 50.6172 31.375 52.7734 31.3906C54.9453 31.375 56.5 32.375 56.5078 33.8906C56.5 35.4609 54.9453 36.4375 52.7734 36.4531C50.6172 36.4375 49.0547 35.4609 49.0547 33.8906ZM71.7891 30H61.3984V31.1875H63.4453V34.1406H61.4609V35.3281H71.7266V34.1406H69.7578V31.1875H71.7891V30ZM60.2266 37.9219H72.9922V36.7188H60.2266V37.9219ZM61.8359 43.0312H71.5547V41.8281H63.3359V39.0938H61.8359V43.0312ZM64.9141 34.1406V31.1875H68.2734V34.1406H64.9141ZM84.9609 29.3281H83.4922V43.3281H84.9609V36.2344H87.2109V35H84.9609V29.3281ZM73.9766 32.7344H82.2734V31.5156H78.9141V29.5156H77.4297V31.5156H73.9766V32.7344ZM74.6953 37.0156C74.6953 38.9375 76.1641 40.2734 78.1797 40.2812C80.1875 40.2734 81.6562 38.9375 81.6641 37.0156C81.6562 35.1094 80.1875 33.7656 78.1797 33.7656C76.1641 33.7656 74.6953 35.1094 74.6953 37.0156ZM76.1172 37.0156C76.1094 35.8203 76.9844 34.9922 78.1797 34.9844C79.3672 34.9922 80.2344 35.8203 80.2422 37.0156C80.2344 38.2344 79.3672 39.0469 78.1797 39.0312C76.9844 39.0469 76.1094 38.2344 76.1172 37.0156ZM99.5391 29.3281H98.0703V34.875H94.9297V36.0938H98.0703V43.3281H99.5391V29.3281ZM87.8516 39.5625L88.6328 40.7344C93.3828 38.3828 94.9609 34.8828 94.9766 30.8281H88.4766V32.0156H93.4688C93.2109 35.2266 91.5625 37.75 87.8516 39.5625ZM114.789 34.8281H112.617V29.3281H111.133V43.3125H112.617V36.0469H114.789V34.8281ZM102.242 39.7969H103.398C105.5 39.8047 107.703 39.6641 110.102 39.1875L109.93 37.9375C107.703 38.3906 105.664 38.5547 103.711 38.5625V30.6875H102.242V39.7969ZM131.461 29.3281H130.039V34.875H128.227V29.6094H126.867V42.6094H128.227V36.0938H130.039V43.3281H131.461V29.3281ZM119.914 39.9688H120.852C122.891 39.9531 124.344 39.8984 126.023 39.5469L125.914 38.3281C124.414 38.6172 123.117 38.6953 121.398 38.7031V32.2188H125.164V31.0156H119.914V39.9688ZM144.242 29.3281H142.758V43.3281H144.242V36.4375H146.352V35.1875H144.242V29.3281ZM133.102 39.5156L133.336 40.75C135.75 40.7578 139.023 40.7266 142.055 40.1875L141.961 39.0938C140.797 39.2578 139.547 39.3594 138.305 39.4219V38.0547C139.891 37.8281 140.938 36.8672 140.945 35.5156C140.938 33.9375 139.555 32.8984 137.57 32.8906C135.578 32.8984 134.211 33.9375 134.227 35.5156C134.211 36.8672 135.242 37.8203 136.82 38.0547V39.4766C135.484 39.5156 134.203 39.5156 133.102 39.5156ZM133.367 32.1719H141.758V30.9844H138.305V29.3594H136.82V30.9844H133.367V32.1719ZM135.617 35.5156C135.617 34.6172 136.398 34.0469 137.57 34.0469C138.742 34.0469 139.516 34.6172 139.523 35.5156C139.516 36.4062 138.742 36.9609 137.57 36.9531C136.398 36.9609 135.617 36.4062 135.617 35.5156ZM159.148 29.3281H157.727V43.3281H159.148V29.3281ZM147.258 35.375C147.258 38.4141 148.445 40.3203 150.273 40.3125C152.008 40.3203 153.172 38.625 153.305 35.8906H154.883V42.6406H156.305V29.5938H154.883V34.6875H153.297C153.125 32.0625 151.977 30.4453 150.273 30.4531C148.445 30.4453 147.258 32.3438 147.258 35.375ZM148.633 35.375C148.633 33.1406 149.266 31.8359 150.273 31.8438C151.305 31.8359 151.945 33.1406 151.945 35.375C151.945 37.6016 151.305 38.9141 150.273 38.9062C149.266 38.9141 148.633 37.6016 148.633 35.375ZM169.742 32.2188V32.0781H172.789V30.8906H169.758V29.2656H168.273V30.8906H165.227V32.0781H168.273V32.2188C168.273 33.9922 166.945 35.5859 164.805 36.2188L165.523 37.375C167.188 36.8594 168.406 35.7734 169.023 34.375C169.648 35.6484 170.844 36.6406 172.461 37.1094L173.148 35.9531C171.008 35.3359 169.742 33.8359 169.742 32.2188ZM166.898 43.1562H175.836V38.2188H166.898V43.1562ZM168.352 41.9531V39.3906H174.367V41.9531H168.352ZM174.352 37.5938H175.836V34.0312H177.867V32.7969H175.836V29.3281H174.352V37.5938ZM182.461 30.375C180.375 30.3828 178.898 32.2891 178.914 35.2812C178.898 38.3047 180.375 40.2109 182.461 40.2031C183.812 40.2109 184.906 39.3906 185.508 37.9844H188.867V43.3594H190.336V29.3281H188.867V32.375H185.406C184.789 31.1094 183.742 30.3828 182.461 30.375ZM180.32 35.2812C180.328 33.0859 181.195 31.7109 182.461 31.7031C183.727 31.7109 184.594 33.0859 184.602 35.2812C184.594 37.5078 183.727 38.875 182.461 38.875C181.195 38.875 180.328 37.5078 180.32 35.2812ZM185.828 33.5938H188.867V36.7656H185.867C185.961 36.3047 186.008 35.8125 186.008 35.2812C186.008 34.6719 185.938 34.1094 185.828 33.5938ZM199.414 31.6406H196.68V29.7344H195.211V31.6406H192.461V32.8438H199.414V31.6406ZM192.914 36.9062C192.906 38.8203 194.188 40.1641 195.945 40.1562C197.719 40.1641 198.984 38.8203 198.992 36.9062C198.984 35.0234 197.719 33.6875 195.945 33.6875C194.188 33.6875 192.906 35.0234 192.914 36.9062ZM194.227 36.9062C194.219 35.7422 194.938 34.9297 195.945 34.9219C196.953 34.9297 197.68 35.7422 197.68 36.9062C197.68 38.0938 196.953 38.8906 195.945 38.8906C194.938 38.8906 194.219 38.0938 194.227 36.9062ZM200.055 42.6719H201.461V36.375H203.07V43.3281H204.477V29.3281H203.07V35.1562H201.461V29.6406H200.055V42.6719ZM219.133 40.3594H213.43V37.4844H217.617V30.2812H216.148V32.6875H209.273V30.2812H207.789V37.4844H211.961V40.3594H206.32V41.5938H219.133V40.3594ZM209.273 36.2812V33.8906H216.148V36.2812H209.273ZM224.414 33.1562V30.6094H222.977V33.2188C222.984 35.6016 221.938 38.0781 219.961 39.2656L220.883 40.375C222.242 39.5469 223.211 38.0312 223.719 36.2578C224.203 37.875 225.086 39.2734 226.398 40.0625L227.227 38.9219C225.352 37.7734 224.414 35.3906 224.414 33.1562ZM225.711 35.4844H227.883V42.6406H229.289V29.5938H227.883V34.25H225.711V35.4844ZM230.773 43.3281H232.195V29.3281H230.773V43.3281ZM246.789 40.3438H243.727V36.6562C244.852 36.0234 245.523 35.0312 245.523 33.7969C245.523 31.5938 243.359 30.1484 240.352 30.1406C237.352 30.1484 235.188 31.5938 235.195 33.7969C235.188 35.0547 235.891 36.0547 237.039 36.6875V40.3438H233.977V41.5781H246.789V40.3438ZM236.633 33.7969C236.633 32.2891 238.156 31.3281 240.352 31.3281C242.531 31.3281 244.078 32.2891 244.086 33.7969C244.078 35.2969 242.531 36.2734 240.352 36.2812C238.156 36.2734 236.633 35.2969 236.633 33.7969ZM238.508 40.3438V37.2344C239.07 37.3672 239.695 37.4375 240.352 37.4375C241.023 37.4375 241.656 37.3672 242.227 37.2344V40.3438H238.508ZM249.398 42.1094C250 42.1016 250.5 41.6094 250.508 41C250.5 40.3906 250 39.8906 249.398 39.8906C248.789 39.8906 248.281 40.3906 248.289 41C248.281 41.6094 248.789 42.1016 249.398 42.1094Z" fill="#948A9E"/>
</svg>
