<svg width="228" height="48" viewBox="0 0 228 48" fill="none" xmlns="http://www.w3.org/2000/svg">
<path d="M64.1875 5.32812H62.7031V13.5H64.1875V9.875H66.2188V8.64062H64.1875V5.32812ZM53.7344 12.6875H60.3281V6.125H58.8594V8.15625H55.1875V6.125H53.7344V12.6875ZM55.1875 11.5156V9.32812H58.8594V11.5156H55.1875ZM55.2656 19.125H64.5469V17.9531H56.75V15.4219H64.2969V14.2344H55.2656V19.125ZM79.7812 12.6406H67.0156V13.8281H79.7812V12.6406ZM68.3906 8.59375C68.3828 10.3594 70.3438 11.4297 73.3906 11.4375C76.4219 11.4297 78.3828 10.3594 78.3906 8.59375C78.3828 6.83594 76.4219 5.78906 73.3906 5.79688C70.3438 5.78906 68.3828 6.83594 68.3906 8.59375ZM68.625 19.0312H78.3438V17.8281H70.125V14.9688H68.625V19.0312ZM69.9219 8.59375C69.9141 7.59375 71.2422 6.98438 73.3906 6.98438C75.5312 6.98438 76.8672 7.59375 76.8594 8.59375C76.8672 9.63281 75.5312 10.2188 73.3906 10.2188C71.2422 10.2188 69.9141 9.63281 69.9219 8.59375ZM89.1406 7.1875V7.04688H90.8438V5.82812H85.5781V7.04688H87.6719V7.25C87.6797 8.16406 86.7422 9.36719 85.1094 9.84375L85.75 10.9219C87.1172 10.5234 88.0156 9.65625 88.4688 8.6875C88.9297 9.5625 89.8047 10.3672 91.125 10.75C92.4375 10.3828 93.3125 9.59375 93.7656 8.71875C94.2109 9.70312 95.125 10.5391 96.5 10.9219L97.1562 9.84375C95.4766 9.40625 94.5781 8.26562 94.5781 7.25V7.04688H96.6562V5.82812H91.4062V7.04688H93.0781V7.1875C93.0859 7.98438 92.3828 8.96094 91.1328 9.48438C89.8672 8.94531 89.1484 7.9375 89.1406 7.1875ZM84.75 13.3906H97.5469V12.1875H91.8594V10.8438H90.3906V12.1875H84.75V13.3906ZM86.1406 15.9375H94.4375V19.3281H95.9375V14.75H86.1406V15.9375ZM103.734 9.45312V7.96875H106.922V6.73438H99.0312V7.96875H102.234V9.45312C102.219 11.8672 100.656 14.4922 98.5469 15.4844L99.4062 16.6562C101.039 15.8594 102.352 14.1562 103 12.1562C103.648 14.0234 104.961 15.5703 106.609 16.2969L107.422 15.1406C105.266 14.2188 103.727 11.7969 103.734 9.45312ZM108.688 19.3281H110.172V5.32812H108.688V19.3281ZM123.312 5.32812H121.828V19.3125H123.312V12.1406H125.484V10.9062H123.312V5.32812ZM112.422 15.5781L113.25 16.7344C117.859 14.4609 119.641 10.8438 119.656 6.79688H113.125V8.03125H118.141C117.836 11.2969 115.93 13.8281 112.422 15.5781ZM133.125 13.5312H131.734V19.1562H136.688V13.5312H135.312V15.1562H133.125V13.5312ZM130.344 9.15625C130.336 11.0859 131.875 12.4141 134.016 12.4062C135.875 12.4141 137.312 11.3516 137.602 9.75H140.328V12.75H141.812V5.32812H140.328V8.53125H137.594C137.289 6.96094 135.859 5.92188 134.016 5.92188C131.875 5.92188 130.336 7.24219 130.344 9.15625ZM131.766 9.15625C131.758 7.96094 132.695 7.14844 134.016 7.15625C135.312 7.14844 136.234 7.96094 136.234 9.15625C136.234 10.3672 135.312 11.1953 134.016 11.2031C132.695 11.1953 131.758 10.3672 131.766 9.15625ZM133.125 18V16.2812H135.312V18H133.125ZM136.766 18.1406L137.516 19.2656C138.719 18.7656 139.539 17.8359 140 16.7578C140.445 17.8672 141.266 18.7812 142.531 19.2656L143.297 18.1406C141.57 17.5312 140.742 16.0469 140.75 14.5781V13.4375H139.281V14.5781C139.281 15.9766 138.453 17.4453 136.766 18.1406ZM147.766 6.375C145.68 6.38281 144.203 8.28906 144.219 11.2812C144.203 14.3047 145.68 16.2109 147.766 16.2031C149.719 16.2109 151.133 14.5156 151.297 11.7812H154.172V19.3594H155.641V5.32812H154.172V10.5781H151.281C151.055 7.99219 149.672 6.38281 147.766 6.375ZM145.625 11.2812C145.633 9.08594 146.5 7.71094 147.766 7.70312C149.031 7.71094 149.898 9.08594 149.906 11.2812C149.898 13.5078 149.031 14.875 147.766 14.875C146.5 14.875 145.633 13.5078 145.625 11.2812ZM170.609 16.3438H167.547V12.6562C168.672 12.0234 169.344 11.0312 169.344 9.79688C169.344 7.59375 167.18 6.14844 164.172 6.14062C161.172 6.14844 159.008 7.59375 159.016 9.79688C159.008 11.0547 159.711 12.0547 160.859 12.6875V16.3438H157.797V17.5781H170.609V16.3438ZM160.453 9.79688C160.453 8.28906 161.977 7.32812 164.172 7.32812C166.352 7.32812 167.898 8.28906 167.906 9.79688C167.898 11.2969 166.352 12.2734 164.172 12.2812C161.977 12.2734 160.453 11.2969 160.453 9.79688ZM162.328 16.3438V13.2344C162.891 13.3672 163.516 13.4375 164.172 13.4375C164.844 13.4375 165.477 13.3672 166.047 13.2344V16.3438H162.328ZM173.219 18.1094C173.82 18.1016 174.32 17.6094 174.328 17C174.32 16.3906 173.82 15.8906 173.219 15.8906C172.609 15.8906 172.102 16.3906 172.109 17C172.102 17.6094 172.609 18.1016 173.219 18.1094ZM12.4141 29.3281H10.9297V43.3594H12.4141V29.3281ZM1.57031 31.7969H6.61719V34.5156H1.58594V40H2.77344C5.25 39.9922 7.35938 39.8984 9.83594 39.4844L9.69531 38.2656C7.35156 38.6484 5.375 38.7578 3.10156 38.7656V35.7031H8.13281V30.5938H1.57031V31.7969ZM21.7266 31.3125V30.25H20.1641V31.3125C20.1562 33.5938 17.7422 35.7344 15.0859 36.2344L15.7422 37.4688C17.9844 36.9688 20.0391 35.5078 20.9609 33.5469C21.8672 35.5156 23.9219 36.9844 26.1641 37.4688L26.8516 36.2344C24.1562 35.75 21.7266 33.5938 21.7266 31.3125ZM14.6172 41.4844H27.4297V40.25H14.6172V41.4844ZM40.1328 29.3281H38.6484V33.8438H34.4766V35.0625H38.6484V43.3594H40.1328V29.3281ZM29.1953 39.9844H30.3203C32.5156 39.9922 34.5469 39.8672 36.8047 39.4062L36.6172 38.1875C34.5781 38.5938 32.6953 38.7188 30.6953 38.75V30.875H29.1953V39.9844ZM55.0703 35.75H42.2578V36.8906H55.0703V35.75ZM43.7734 38.9375H52.0234V39.9688H43.7891V43.1562H53.9297V42.1094H45.2734V40.9531H53.4922V37.875H43.7734V38.9375ZM43.8672 30.7344H51.9766V31.7344H43.8984V34.8281H53.6953V33.7812H45.3672V32.7188H53.4609V29.6875H43.8672V30.7344ZM63.4453 31.8438V31.4688H64.4453V30.2656H60.3672V31.4688H62.0703V31.8438C62.0703 33.25 61.4531 35.0312 59.8516 35.875L60.6484 36.9531C61.7188 36.3984 62.3828 35.4141 62.7578 34.3281C63.0859 35.4297 63.6953 36.4766 64.7734 37.0938C65.8594 36.4844 66.4688 35.4297 66.7891 34.3125C67.1641 35.4062 67.8281 36.3906 68.9141 36.9531L69.6953 35.875C68.0859 35.0625 67.4844 33.2734 67.4922 31.8438V31.4688H69.1016V30.2656H65.1016V31.4688H66.0703V31.8438C66.0625 32.9609 65.7812 34.4453 64.7734 35.4688C63.7344 34.4219 63.4453 32.9062 63.4453 31.8438ZM62.3516 43.1562H71.8203V38.2344H62.3516V43.1562ZM63.8203 41.9531V39.4062H70.3672V41.9531H63.8203ZM70.3359 37.5156H71.8203V29.3125H70.3359V37.5156ZM84.7422 29.3281H83.2734V43.3281H84.7422V36.2344H86.9922V35H84.7422V29.3281ZM73.7578 32.7344H82.0547V31.5156H78.6953V29.5156H77.2109V31.5156H73.7578V32.7344ZM74.4766 37.0156C74.4766 38.9375 75.9453 40.2734 77.9609 40.2812C79.9688 40.2734 81.4375 38.9375 81.4453 37.0156C81.4375 35.1094 79.9688 33.7656 77.9609 33.7656C75.9453 33.7656 74.4766 35.1094 74.4766 37.0156ZM75.8984 37.0156C75.8906 35.8203 76.7656 34.9922 77.9609 34.9844C79.1484 34.9922 80.0156 35.8203 80.0234 37.0156C80.0156 38.2344 79.1484 39.0469 77.9609 39.0312C76.7656 39.0469 75.8906 38.2344 75.8984 37.0156ZM98.9922 30.6719H89.0078V31.875H97.5078V32.0469C97.5 33.7266 97.5 35.7109 96.9609 38.4219L98.4609 38.5781C98.9844 35.7109 98.9844 33.7734 98.9922 32.0469V30.6719ZM87.6641 41.4375H100.43V40.2031H93.9922V35.2656H92.5234V40.2031H87.6641V41.4375ZM104.008 40.9219H102.258L101.43 45.2344H102.758L104.008 40.9219ZM113.883 31.1875V31.0469H115.586V29.8281H110.32V31.0469H112.414V31.25C112.422 32.1641 111.484 33.3672 109.852 33.8438L110.492 34.9219C111.859 34.5234 112.758 33.6562 113.211 32.6875C113.672 33.5625 114.547 34.3672 115.867 34.75C117.18 34.3828 118.055 33.5938 118.508 32.7188C118.953 33.7031 119.867 34.5391 121.242 34.9219L121.898 33.8438C120.219 33.4062 119.32 32.2656 119.32 31.25V31.0469H121.398V29.8281H116.148V31.0469H117.82V31.1875C117.828 31.9844 117.125 32.9609 115.875 33.4844C114.609 32.9453 113.891 31.9375 113.883 31.1875ZM109.492 37.3906H122.289V36.1875H116.602V34.8438H115.133V36.1875H109.492V37.3906ZM110.883 39.9375H119.18V43.3281H120.68V38.75H110.883V39.9375ZM128.477 33.4531V31.9688H131.664V30.7344H123.773V31.9688H126.977V33.4531C126.961 35.8672 125.398 38.4922 123.289 39.4844L124.148 40.6562C125.781 39.8594 127.094 38.1562 127.742 36.1562C128.391 38.0234 129.703 39.5703 131.352 40.2969L132.164 39.1406C130.008 38.2188 128.469 35.7969 128.477 33.4531ZM133.43 43.3281H134.914V29.3281H133.43V43.3281ZM149.945 35.75H137.133V36.8906H149.945V35.75ZM138.648 38.9375H146.898V39.9688H138.664V43.1562H148.805V42.1094H140.148V40.9531H148.367V37.875H138.648V38.9375ZM138.742 30.7344H146.852V31.7344H138.773V34.8281H148.57V33.7812H140.242V32.7188H148.336V29.6875H138.742V30.7344ZM167.695 40.3594H161.992V37.4844H166.18V30.2812H164.711V32.6875H157.836V30.2812H156.352V37.4844H160.523V40.3594H154.883V41.5938H167.695V40.3594ZM157.836 36.2812V33.8906H164.711V36.2812H157.836ZM180.695 29.3281H179.273V34.9375H177.477V29.6094H176.086V42.6094H177.477V36.1562H179.273V43.3281H180.695V29.3281ZM169.367 39.7656H170.273C171.781 39.7734 173.383 39.6719 175.305 39.3281L175.148 38.0312C173.555 38.3438 172.141 38.4453 170.852 38.4609V30.9844H169.367V39.7656ZM195.352 40.3594H189.648V37.4844H193.836V30.2812H192.367V32.6875H185.492V30.2812H184.008V37.4844H188.18V40.3594H182.539V41.5938H195.352V40.3594ZM185.492 36.2812V33.8906H192.367V36.2812H185.492ZM200.633 33.1562V30.6094H199.195V33.2188C199.203 35.6016 198.156 38.0781 196.18 39.2656L197.102 40.375C198.461 39.5469 199.43 38.0312 199.938 36.2578C200.422 37.875 201.305 39.2734 202.617 40.0625L203.445 38.9219C201.57 37.7734 200.633 35.3906 200.633 33.1562ZM201.93 35.4844H204.102V42.6406H205.508V29.5938H204.102V34.25H201.93V35.4844ZM206.992 43.3281H208.414V29.3281H206.992V43.3281ZM223.008 40.3438H219.945V36.6562C221.07 36.0234 221.742 35.0312 221.742 33.7969C221.742 31.5938 219.578 30.1484 216.57 30.1406C213.57 30.1484 211.406 31.5938 211.414 33.7969C211.406 35.0547 212.109 36.0547 213.258 36.6875V40.3438H210.195V41.5781H223.008V40.3438ZM212.852 33.7969C212.852 32.2891 214.375 31.3281 216.57 31.3281C218.75 31.3281 220.297 32.2891 220.305 33.7969C220.297 35.2969 218.75 36.2734 216.57 36.2812C214.375 36.2734 212.852 35.2969 212.852 33.7969ZM214.727 40.3438V37.2344C215.289 37.3672 215.914 37.4375 216.57 37.4375C217.242 37.4375 217.875 37.3672 218.445 37.2344V40.3438H214.727ZM225.617 42.1094C226.219 42.1016 226.719 41.6094 226.727 41C226.719 40.3906 226.219 39.8906 225.617 39.8906C225.008 39.8906 224.5 40.3906 224.508 41C224.5 41.6094 225.008 42.1016 225.617 42.1094Z" fill="#948A9E"/>
</svg>
