<svg width="201" height="11" viewBox="0 0 201 11" fill="none" xmlns="http://www.w3.org/2000/svg">
<path d="M3.80859 2.26562V1.10547H3.09375V2.21875C3.08789 3.87109 1.95117 5.25391 0.457031 5.82812L0.855469 6.42578C2.0625 5.93945 3.04688 4.94336 3.47461 3.66016C3.91992 4.79688 4.88086 5.70508 6.03516 6.14453L6.44531 5.54688C4.98633 5.03711 3.80859 3.71289 3.80859 2.26562ZM1.82812 9.03906C1.82227 10.2168 3.09961 10.8789 5.21484 10.8789C7.32422 10.8789 8.58984 10.2168 8.58984 9.03906C8.58984 7.87305 7.32422 7.19922 5.21484 7.19922C3.09961 7.19922 1.82227 7.87305 1.82812 9.03906ZM2.55469 9.03906C2.54883 8.2832 3.58008 7.80273 5.21484 7.80859C6.84961 7.80273 7.875 8.2832 7.875 9.03906C7.875 9.8125 6.84961 10.2812 5.21484 10.293C3.58008 10.2812 2.54883 9.8125 2.55469 9.03906ZM7.76953 6.91797H8.50781V3.98828H10.1016V3.35547H8.50781V0.578125H7.76953V6.91797ZM18.8789 0.578125H18.1406V6.46094H18.8789V3.80078H20.4727V3.17969H18.8789V0.578125ZM11.3438 5.78125H12.1289C14.2559 5.77539 15.5039 5.7168 17.0156 5.41797L16.9102 4.79688C15.457 5.08398 14.2266 5.16016 12.1289 5.14844H12.082V1.90234H15.9141V1.29297H11.3438V5.78125ZM12.4219 10.7617H18.8789V7.03516H12.4219V10.7617ZM13.1367 10.1406V7.64453H18.1406V10.1406H13.1367ZM30.0234 0.578125H29.3086V10.9141H30.0234V0.578125ZM21.3398 5.03125C21.3457 7.19336 22.2129 8.57617 23.543 8.57031C24.8262 8.57617 25.6816 7.30469 25.7637 5.30078H27.2578V10.375H27.9727V0.8125H27.2578V4.66797H25.7578C25.6582 2.7168 24.8086 1.49219 23.543 1.49219C22.2129 1.49219 21.3457 2.86914 21.3398 5.03125ZM22.043 5.03125C22.0371 3.32031 22.6348 2.17773 23.543 2.18359C24.4688 2.17773 25.0664 3.32031 25.0664 5.03125C25.0664 6.73633 24.4688 7.88477 23.543 7.87891C22.6348 7.88477 22.0371 6.73633 22.043 5.03125ZM37.8984 2.73438V2.47656H40.3125V1.85547H37.9219V0.519531H37.1719V1.85547H34.7578V2.47656H37.1719V2.73438C37.1719 4.18164 35.9824 5.40625 34.4883 5.875L34.8633 6.46094C36.0938 6.03906 37.1133 5.16016 37.5469 4.00586C37.9922 5.05469 38.9648 5.86914 40.1484 6.26172L40.5234 5.67578C39.0352 5.21289 37.9043 4.06445 37.8984 2.73438ZM36.0586 10.7617H42.5156V7.21094H36.0586V10.7617ZM36.7734 10.1523V7.80859H41.7773V10.1523H36.7734ZM41.7773 6.71875H42.5156V3.89453H44.1094V3.26172H42.5156V0.578125H41.7773V6.71875ZM47.5898 1.39844C46.0781 1.4043 45.0234 2.79883 45.0352 4.97266C45.0234 7.15234 46.0781 8.54688 47.5898 8.54688C48.5918 8.54688 49.3887 7.92578 49.8105 6.87109H52.6289V10.9258H53.3555V0.578125H52.6289V2.94531H49.7578C49.3184 1.97266 48.5449 1.4043 47.5898 1.39844ZM45.7383 4.97266C45.7324 3.24414 46.4941 2.06055 47.5898 2.05469C48.6797 2.06055 49.4473 3.24414 49.4414 4.97266C49.4473 6.70117 48.6797 7.89062 47.5898 7.89062C46.4941 7.89062 45.7324 6.70117 45.7383 4.97266ZM49.9746 3.57812H52.6289V6.23828H50.0098C50.0977 5.85742 50.1445 5.42969 50.1445 4.97266C50.1445 4.46289 50.0859 3.99414 49.9746 3.57812ZM63.1641 0.578125H62.4258V10.9141H63.1641V5.53516H64.9453V4.90234H63.1641V0.578125ZM55.1484 2.89844H61.3242V2.27734H58.6406V0.683594H57.9023V2.27734H55.1484V2.89844ZM55.793 6.19141C55.7871 7.58008 56.8359 8.53516 58.2891 8.53516C59.7422 8.53516 60.7852 7.58008 60.7852 6.19141C60.7852 4.80859 59.7422 3.84766 58.2891 3.84766C56.8359 3.84766 55.7871 4.80859 55.793 6.19141ZM56.4961 6.19141C56.4902 5.20703 57.252 4.47461 58.2891 4.46875C59.3203 4.47461 60.0762 5.20703 60.082 6.19141C60.0762 7.17578 59.3203 7.90234 58.2891 7.89062C57.252 7.90234 56.4902 7.17578 56.4961 6.19141ZM68.332 1.39844C66.8203 1.4043 65.7656 2.79883 65.7773 4.97266C65.7656 7.15234 66.8203 8.54688 68.332 8.54688C69.334 8.54688 70.1309 7.92578 70.5527 6.87109H73.3711V10.9258H74.0977V0.578125H73.3711V2.94531H70.5C70.0605 1.97266 69.2871 1.4043 68.332 1.39844ZM66.4805 4.97266C66.4746 3.24414 67.2363 2.06055 68.332 2.05469C69.4219 2.06055 70.1895 3.24414 70.1836 4.97266C70.1895 6.70117 69.4219 7.89062 68.332 7.89062C67.2363 7.89062 66.4746 6.70117 66.4805 4.97266ZM70.7168 3.57812H73.3711V6.23828H70.752C70.8398 5.85742 70.8867 5.42969 70.8867 4.97266C70.8867 4.46289 70.8281 3.99414 70.7168 3.57812ZM87.3398 0.578125H86.6133V10.9258H87.3398V0.578125ZM79.4414 2.19531H83.4727V4.52734H79.4531V8.39453H80.3086C82.0488 8.39453 83.6309 8.3125 85.5938 8.00781L85.5234 7.375C83.584 7.68555 82.0137 7.76172 80.3086 7.76172H80.2148V5.14844H84.2109V1.5625H79.4414V2.19531ZM94.2773 2.14844V1.32812H93.5156V2.14844C93.5098 4.01758 91.2832 5.55859 89.6602 5.875L90.0117 6.50781C91.4766 6.13867 93.2461 5.01367 93.9023 3.43164C94.5586 5.01953 96.3398 6.14453 97.793 6.50781L98.1562 5.875C96.5273 5.56445 94.2773 4 94.2773 2.14844ZM89.2148 9.46094H98.6836V8.83984H89.2148V9.46094ZM108.117 0.578125H107.379V4.05859H104.016V4.67969H107.379V10.9258H108.117V0.578125ZM100.16 8.39453H100.945C102.645 8.39453 104.057 8.30078 105.703 7.96094L105.609 7.35156C104.016 7.67383 102.609 7.75 100.945 7.76172H100.91V1.75H100.16V8.39453ZM117.352 1.80859H113.297V8.28906H113.941C115.67 8.28906 116.66 8.24219 117.891 7.99609L117.797 7.36328C116.637 7.60352 115.658 7.65039 114 7.64453V5.16016H117.211V4.53906H114V2.41797H117.352V1.80859ZM118.641 10.375H119.367V5.39453H120.961V10.9141H121.676V0.578125H120.961V4.77344H119.367V0.8125H118.641V10.375ZM131.344 1.72656H124.266V2.34766H130.617V2.69922C130.617 3.92969 130.617 5.49414 130.184 7.64453L130.945 7.73828C131.338 5.45312 131.338 3.95898 131.344 2.69922V1.72656ZM123.223 9.34375H132.645V8.71094H123.223V9.34375ZM143.039 5.42969H133.582V6.02734H143.039V5.42969ZM134.742 7.53906H141.105V8.53516H134.766V10.7617H142.195V10.1992H135.492V9.08594H141.844V6.96484H134.742V7.53906ZM134.789 1.48047H141.07V2.44141H134.824V4.55078H141.984V3.98828H135.551V2.96875H141.809V0.929688H134.789V1.48047ZM154.91 0.578125H154.172V6.625H154.91V3.75391H156.504V3.10938H154.91V0.578125ZM147.34 5.93359H152.098V1.14062H151.371V2.82812H148.066V1.14062H147.34V5.93359ZM148.066 5.3125V3.4375H151.371V5.3125H148.066ZM148.488 10.7617H155.191V10.1523H149.227V7.83203H155.004V7.23438H148.488V10.7617ZM159.984 1.39844C158.473 1.4043 157.418 2.79883 157.43 4.97266C157.418 7.15234 158.473 8.54688 159.984 8.54688C161.502 8.54688 162.557 7.15234 162.562 4.97266C162.557 2.79883 161.502 1.4043 159.984 1.39844ZM158.121 4.97266C158.121 3.24414 158.889 2.06055 159.984 2.05469C161.098 2.06055 161.854 3.24414 161.859 4.97266C161.854 6.70117 161.098 7.89062 159.984 7.89062C158.889 7.89062 158.121 6.70117 158.121 4.97266ZM164.449 10.9141H165.188V5.41797H166.969V4.78516H165.188V0.578125H164.449V10.9141ZM177.07 8.92188H172.676V6.58984H175.875V1.32812H175.148V3.27344H169.5V1.32812H168.75V6.58984H171.938V8.92188H167.602V9.55469H177.07V8.92188ZM169.5 5.96875V3.89453H175.148V5.96875H169.5ZM180.961 3.625V1.57422H180.258V3.64844C180.252 5.42383 179.279 7.26367 177.879 8.06641L178.371 8.61719C179.42 7.97852 180.246 6.74219 180.621 5.31836C180.99 6.625 181.77 7.79102 182.789 8.40625L183.234 7.83203C181.881 7.04688 180.961 5.25391 180.961 3.625ZM182.074 4.99609H183.961V10.375H184.664V0.8125H183.961V4.35156H182.074V4.99609ZM186.082 10.9141H186.797V0.578125H186.082V10.9141ZM197.812 8.91016H195.375V6.01562C196.26 5.56445 196.793 4.83203 196.793 3.90625C196.793 2.31836 195.246 1.28125 193.043 1.26953C190.857 1.28125 189.305 2.31836 189.305 3.90625C189.305 4.84375 189.855 5.58789 190.758 6.0332V8.91016H188.344V9.54297H197.812V8.91016ZM190.008 3.90625C190.008 2.69922 191.279 1.88477 193.043 1.89062C194.801 1.88477 196.09 2.69922 196.09 3.90625C196.09 5.08984 194.801 5.91602 193.043 5.91016C191.279 5.91602 190.008 5.08984 190.008 3.90625ZM191.484 8.91016V6.30859C191.953 6.4375 192.475 6.50781 193.043 6.50781C193.623 6.50781 194.162 6.4375 194.637 6.30273V8.91016H191.484ZM199.734 10.0586C200.074 10.0645 200.355 9.77734 200.355 9.4375C200.355 9.0918 200.074 8.81055 199.734 8.80469C199.389 8.81055 199.102 9.0918 199.102 9.4375C199.102 9.77734 199.389 10.0645 199.734 10.0586Z" fill="#61586A"/>
</svg>
