<svg width="321" height="402" viewBox="0 0 321 402" fill="none" xmlns="http://www.w3.org/2000/svg">
<path d="M95.3835 12.784C95.3942 13.936 95.3302 14.8587 95.1915 15.552C95.0528 16.2453 94.8555 16.592 94.5995 16.592C94.4822 16.6027 94.3862 16.528 94.3115 16.368C94.2475 16.208 94.1888 15.9947 94.1355 15.728C94.0928 15.4613 94.0608 15.1573 94.0395 14.816C94.0288 14.4747 94.0235 14.1227 94.0235 13.76V9.824C93.5328 10.016 92.9888 10.2133 92.3915 10.416C91.7942 10.6187 91.1915 10.8053 90.5835 10.976C89.9755 11.1467 89.3782 11.2907 88.7915 11.408C88.2048 11.5253 87.6768 11.6 87.2075 11.632C86.7382 11.664 86.3968 11.5947 86.1835 11.424C85.9808 11.2533 85.8795 10.928 85.8795 10.448V5.648C85.8795 5.49867 85.8528 5.36533 85.7995 5.248C85.7462 5.13067 85.6715 5.03467 85.5755 4.96C85.4475 4.88533 85.2768 4.82133 85.0635 4.768C84.8502 4.704 84.6475 4.66133 84.4555 4.64C84.3808 4.64 84.3275 4.608 84.2955 4.544C84.2742 4.46933 84.2688 4.39467 84.2795 4.32C84.2902 4.23467 84.3222 4.16 84.3755 4.096C84.4395 4.032 84.5248 3.99467 84.6315 3.984C85.0155 3.97333 85.4582 3.984 85.9595 4.016C86.4608 4.048 86.9142 4.096 87.3195 4.16C87.3942 4.18133 87.4475 4.24533 87.4795 4.352C87.5115 4.448 87.5115 4.54933 87.4795 4.656C87.4688 4.688 87.4528 4.73067 87.4315 4.784C87.4208 4.83733 87.4102 4.896 87.3995 4.96C87.3888 5.024 87.3728 5.09333 87.3515 5.168C87.3408 5.232 87.3355 5.30133 87.3355 5.376V9.952C87.3355 10.1653 87.3995 10.3093 87.5275 10.384C87.6555 10.448 87.7995 10.4747 87.9595 10.464C88.2902 10.4533 88.7062 10.4053 89.2075 10.32C89.7088 10.2347 90.2422 10.128 90.8075 10C91.3622 9.872 91.9168 9.73333 92.4715 9.584C93.0368 9.424 93.5542 9.264 94.0235 9.104V3.392C94.0235 3.136 94.0022 2.92267 93.9595 2.752C93.9168 2.58133 93.8315 2.448 93.7035 2.352C93.5222 2.224 93.3088 2.12267 93.0635 2.048C92.8288 1.97333 92.5942 1.91467 92.3595 1.872C92.2742 1.86133 92.2155 1.81867 92.1835 1.744C92.1622 1.66933 92.1568 1.59467 92.1675 1.52C92.1888 1.44533 92.2315 1.38133 92.2955 1.328C92.3595 1.264 92.4502 1.232 92.5675 1.232C92.9728 1.24267 93.4475 1.28533 93.9915 1.36C94.5355 1.424 94.9995 1.51467 95.3835 1.632C95.4475 1.664 95.5008 1.728 95.5435 1.824C95.5862 1.90933 95.5915 2.01067 95.5595 2.128C95.5062 2.288 95.4635 2.448 95.4315 2.608C95.4102 2.768 95.3942 2.928 95.3835 3.088V7.504C95.6182 7.49333 95.8528 7.472 96.0875 7.44C96.3222 7.39733 96.5088 7.312 96.6475 7.184C96.7008 7.10933 96.8822 7.06667 97.1915 7.056C97.5008 7.04533 97.7782 7.056 98.0235 7.088C98.2902 7.152 98.4822 7.248 98.5995 7.376C98.7168 7.49333 98.7648 7.616 98.7435 7.744C98.7222 7.872 98.6315 7.984 98.4715 8.08C98.3115 8.16533 98.0982 8.208 97.8315 8.208H95.3835V12.784ZM111.632 12.8C111.632 13.952 111.563 14.8747 111.424 15.568C111.296 16.2613 111.099 16.608 110.832 16.608C110.715 16.6293 110.619 16.56 110.544 16.4C110.48 16.24 110.422 16.0267 110.368 15.76C110.326 15.4933 110.294 15.1893 110.272 14.848C110.251 14.5067 110.24 14.1493 110.24 13.776V11.296C109.739 11.3813 109.184 11.4773 108.576 11.584C107.979 11.68 107.371 11.7813 106.752 11.888C106.134 11.984 105.531 12.0747 104.944 12.16C104.358 12.2453 103.84 12.304 103.392 12.336C103.243 12.3467 103.088 12.3787 102.928 12.432C102.779 12.4747 102.651 12.512 102.544 12.544C102.459 12.576 102.379 12.608 102.304 12.64C102.24 12.6613 102.171 12.6827 102.096 12.704C102.011 12.7147 101.92 12.72 101.824 12.72C101.739 12.7093 101.638 12.688 101.52 12.656C101.36 12.624 101.12 12.5493 100.8 12.432C100.491 12.304 100.192 12.16 99.9043 12C99.5629 11.8187 99.4189 11.6427 99.4723 11.472C99.5363 11.2907 99.7336 11.2267 100.064 11.28C100.32 11.312 100.64 11.3333 101.024 11.344C101.408 11.344 101.755 11.344 102.064 11.344C102.576 11.344 103.179 11.3227 103.872 11.28C104.576 11.2373 105.307 11.1733 106.064 11.088C106.811 11.0133 107.547 10.928 108.272 10.832C109.008 10.736 109.67 10.64 110.256 10.544V3.424C110.256 3.168 110.235 2.95467 110.192 2.784C110.16 2.61333 110.08 2.47467 109.952 2.368C109.782 2.24 109.574 2.13867 109.328 2.064C109.094 1.98933 108.864 1.93067 108.64 1.888C108.555 1.87733 108.491 1.83467 108.448 1.76C108.416 1.68533 108.411 1.60533 108.432 1.52C108.443 1.44533 108.475 1.38133 108.528 1.328C108.592 1.264 108.683 1.23733 108.8 1.248C109.206 1.25867 109.675 1.30133 110.208 1.376C110.752 1.44 111.216 1.53067 111.6 1.648C111.675 1.68 111.734 1.73867 111.776 1.824C111.819 1.90933 111.83 2.016 111.808 2.144C111.755 2.304 111.712 2.46933 111.68 2.64C111.659 2.8 111.643 2.96 111.632 3.12V12.8ZM104.656 8.352C105.286 8.352 105.798 8.128 106.192 7.68C106.587 7.232 106.784 6.704 106.784 6.096C106.784 5.79733 106.731 5.50933 106.624 5.232C106.528 4.95467 106.384 4.704 106.192 4.48C106.011 4.26667 105.787 4.096 105.52 3.968C105.264 3.82933 104.976 3.76 104.656 3.76C104.027 3.76 103.52 3.99467 103.136 4.464C102.752 4.92267 102.56 5.46667 102.56 6.096C102.56 6.39467 102.608 6.68267 102.704 6.96C102.811 7.22667 102.955 7.46667 103.136 7.68C103.318 7.88267 103.536 8.048 103.792 8.176C104.048 8.29333 104.336 8.352 104.656 8.352ZM106.176 3.184C106.624 3.376 106.992 3.62667 107.28 3.936C107.579 4.23467 107.803 4.576 107.952 4.96C108.112 5.344 108.192 5.728 108.192 6.112C108.192 6.54933 108.107 6.96 107.936 7.344C107.766 7.71733 107.526 8.048 107.216 8.336C106.907 8.624 106.534 8.848 106.096 9.008C105.67 9.168 105.19 9.248 104.656 9.248C104.102 9.248 103.606 9.168 103.168 9.008C102.731 8.83733 102.363 8.608 102.064 8.32C101.755 8.032 101.52 7.70133 101.36 7.328C101.2 6.944 101.12 6.53867 101.12 6.112C101.12 5.696 101.195 5.296 101.344 4.912C101.494 4.528 101.718 4.18667 102.016 3.888C102.315 3.58933 102.683 3.34933 103.12 3.168C103.568 2.98667 104.08 2.896 104.656 2.896C105.232 2.896 105.739 2.992 106.176 3.184ZM131.441 12.784C131.452 13.936 131.388 14.8587 131.249 15.552C131.111 16.2453 130.908 16.592 130.641 16.592C130.524 16.6027 130.428 16.528 130.353 16.368C130.279 16.208 130.225 15.9947 130.193 15.728C130.151 15.4613 130.119 15.1573 130.097 14.816C130.087 14.4747 130.081 14.1227 130.081 13.76V10.608C129.708 10.7573 129.212 10.9333 128.593 11.136C127.985 11.3387 127.329 11.5307 126.625 11.712C125.921 11.8933 125.207 12.0533 124.481 12.192C123.767 12.3307 123.127 12.416 122.561 12.448C122.103 12.48 121.777 12.4107 121.585 12.24C121.393 12.0693 121.297 11.7493 121.297 11.28V8.56C121.297 8.272 121.207 8.08533 121.025 8C120.844 7.904 120.625 7.83467 120.369 7.792C120.263 7.78133 120.188 7.73867 120.145 7.664C120.103 7.58933 120.087 7.51467 120.097 7.44C120.119 7.36533 120.161 7.296 120.225 7.232C120.3 7.168 120.396 7.13067 120.513 7.12C120.812 7.12 121.185 7.136 121.633 7.168C122.092 7.2 122.492 7.23733 122.833 7.28C122.919 7.29067 123.095 7.30133 123.361 7.312C123.628 7.312 123.916 7.312 124.225 7.312C124.535 7.312 124.833 7.312 125.121 7.312C125.409 7.30133 125.628 7.29067 125.777 7.28V4.4C125.585 4.4 125.372 4.40533 125.137 4.416C124.903 4.416 124.679 4.42133 124.465 4.432C124.241 4.44267 124.039 4.45333 123.857 4.464C123.676 4.47467 123.543 4.48 123.457 4.48C123.265 4.50133 123.089 4.528 122.929 4.56C122.769 4.592 122.599 4.64 122.417 4.704C122.321 4.736 122.22 4.752 122.113 4.752C122.007 4.752 121.863 4.72533 121.681 4.672C121.543 4.64 121.377 4.576 121.185 4.48C120.993 4.384 120.791 4.272 120.577 4.144C120.385 4.016 120.311 3.89333 120.353 3.776C120.396 3.65867 120.556 3.60533 120.833 3.616C120.983 3.62667 121.143 3.63733 121.313 3.648C121.495 3.65867 121.676 3.66933 121.857 3.68C122.028 3.70133 122.204 3.71733 122.385 3.728C122.567 3.73867 122.748 3.744 122.929 3.744C123.217 3.76533 123.591 3.77067 124.049 3.76C124.508 3.74933 124.892 3.728 125.201 3.696C125.308 3.696 125.399 3.69067 125.473 3.68C125.548 3.65867 125.601 3.63733 125.633 3.616C125.655 3.60533 125.681 3.59467 125.713 3.584C125.745 3.57333 125.783 3.55733 125.825 3.536C125.857 3.52533 125.889 3.51467 125.921 3.504C125.964 3.49333 126.001 3.48267 126.033 3.472C126.247 3.46133 126.46 3.46133 126.673 3.472C126.897 3.472 127.105 3.488 127.297 3.52C127.457 3.56267 127.548 3.64267 127.569 3.76C127.591 3.86667 127.58 3.97333 127.537 4.08C127.516 4.13333 127.495 4.18133 127.473 4.224C127.452 4.26667 127.431 4.30933 127.409 4.352C127.388 4.40533 127.367 4.45333 127.345 4.496C127.335 4.53867 127.324 4.58133 127.313 4.624L126.897 7.328C127.036 7.33867 127.153 7.376 127.249 7.44C127.345 7.504 127.393 7.58933 127.393 7.696C127.393 7.792 127.345 7.87733 127.249 7.952C127.153 8.02667 127.009 8.064 126.817 8.064H122.721V10.848C122.721 11.008 122.78 11.1147 122.897 11.168C123.015 11.2213 123.153 11.248 123.313 11.248C123.676 11.248 124.161 11.2053 124.769 11.12C125.388 11.024 126.028 10.9067 126.689 10.768C127.351 10.64 127.985 10.5013 128.593 10.352C129.212 10.192 129.708 10.0427 130.081 9.904V3.392C130.081 3.136 130.06 2.92267 130.017 2.752C129.975 2.58133 129.884 2.448 129.745 2.352C129.564 2.224 129.351 2.12267 129.105 2.048C128.871 1.97333 128.641 1.91467 128.417 1.872C128.332 1.86133 128.273 1.81867 128.241 1.744C128.209 1.66933 128.204 1.59467 128.225 1.52C128.247 1.44533 128.289 1.38133 128.353 1.328C128.417 1.264 128.508 1.232 128.625 1.232C129.031 1.24267 129.5 1.28533 130.033 1.36C130.577 1.424 131.041 1.51467 131.425 1.632C131.5 1.664 131.559 1.728 131.601 1.824C131.644 1.90933 131.649 2.01067 131.617 2.128C131.564 2.288 131.521 2.448 131.489 2.608C131.457 2.768 131.441 2.928 131.441 3.088V12.784ZM146.602 9.648C146.421 9.648 146.202 9.55733 145.946 9.376C145.733 9.25867 145.413 9.072 144.986 8.816C144.57 8.54933 144.117 8.26133 143.626 7.952C143.135 7.65333 142.645 7.35467 142.154 7.056C141.663 6.74667 141.247 6.49067 140.906 6.288C140.223 7.03467 139.455 7.72267 138.602 8.352C137.759 8.98133 136.874 9.488 135.946 9.872C135.69 9.97867 135.487 10.032 135.338 10.032C135.189 10.0213 135.087 9.984 135.034 9.92C134.97 9.86667 134.949 9.79733 134.97 9.712C134.991 9.62667 135.05 9.552 135.146 9.488C135.722 9.232 136.298 8.89067 136.874 8.464C137.45 8.03733 137.983 7.568 138.474 7.056C138.965 6.55467 139.391 6.04267 139.754 5.52C140.127 4.98667 140.405 4.48 140.586 4C140.682 3.776 140.671 3.61067 140.554 3.504C140.447 3.38667 140.266 3.26933 140.01 3.152C139.733 3.00267 139.621 2.848 139.674 2.688C139.727 2.51733 139.898 2.45333 140.186 2.496C140.506 2.54933 140.842 2.62933 141.194 2.736C141.557 2.84267 141.893 2.95467 142.202 3.072C142.394 3.168 142.517 3.28 142.57 3.408C142.623 3.536 142.623 3.664 142.57 3.792C142.538 3.856 142.49 3.94667 142.426 4.064C142.362 4.17067 142.309 4.256 142.266 4.32C142.138 4.544 141.994 4.76267 141.834 4.976C141.685 5.18933 141.519 5.392 141.338 5.584C141.562 5.712 141.823 5.86133 142.122 6.032C142.421 6.192 142.719 6.352 143.018 6.512C143.306 6.672 143.573 6.816 143.818 6.944C144.063 7.06133 144.245 7.136 144.362 7.168C144.543 7.232 144.682 7.28 144.778 7.312C144.885 7.33333 144.97 7.344 145.034 7.344C145.109 7.344 145.194 7.35467 145.29 7.376C145.386 7.39733 145.487 7.44 145.594 7.504C145.786 7.62133 146.005 7.776 146.25 7.968C146.495 8.16 146.709 8.36267 146.89 8.576C147.018 8.736 147.087 8.90133 147.098 9.072C147.119 9.24267 147.087 9.38133 147.002 9.488C146.917 9.584 146.783 9.63733 146.602 9.648ZM137.162 14.112C137.098 14.144 137.034 14.1653 136.97 14.176C136.81 14.2293 136.634 14.2613 136.442 14.272C136.261 14.2933 136.021 14.2667 135.722 14.192C135.53 14.16 135.306 14.096 135.05 14C134.794 13.904 134.517 13.776 134.218 13.616C133.898 13.456 133.759 13.296 133.802 13.136C133.855 12.9653 134.09 12.9067 134.506 12.96C134.986 13.024 135.503 13.0667 136.058 13.088C136.613 13.1093 137.146 13.12 137.658 13.12C138.031 13.12 138.501 13.12 139.066 13.12C139.631 13.12 140.218 13.1147 140.826 13.104C141.434 13.104 142.026 13.0987 142.602 13.088C143.189 13.0773 143.69 13.0667 144.106 13.056C144.33 13.056 144.543 13.0293 144.746 12.976C144.949 12.912 145.087 12.864 145.162 12.832C145.247 12.8 145.333 12.7733 145.418 12.752C145.514 12.7307 145.605 12.7147 145.69 12.704C145.967 12.6827 146.239 12.6773 146.506 12.688C146.783 12.688 147.066 12.6987 147.354 12.72C147.674 12.752 147.919 12.816 148.09 12.912C148.271 12.9973 148.362 13.1307 148.362 13.312C148.351 13.5253 148.25 13.6693 148.058 13.744C147.877 13.808 147.637 13.84 147.338 13.84C147.007 13.84 146.602 13.84 146.122 13.84C145.642 13.8293 145.141 13.824 144.618 13.824C144.095 13.824 143.573 13.824 143.05 13.824C142.538 13.8133 142.079 13.8027 141.674 13.792C141.365 13.792 141.029 13.7973 140.666 13.808C140.314 13.8187 139.967 13.8293 139.626 13.84C139.274 13.8613 138.943 13.8827 138.634 13.904C138.325 13.9253 138.069 13.9413 137.866 13.952C137.77 13.9627 137.679 13.9787 137.594 14C137.509 14.0107 137.434 14.0267 137.37 14.048C137.295 14.0693 137.226 14.0907 137.162 14.112ZM161.091 12.784C161.102 13.936 161.032 14.8587 160.883 15.552C160.744 16.2453 160.547 16.592 160.291 16.592C160.174 16.6027 160.078 16.528 160.003 16.368C159.928 16.208 159.87 15.9947 159.827 15.728C159.784 15.4613 159.752 15.1573 159.731 14.816C159.72 14.4747 159.715 14.1173 159.715 13.744V6.976C159.48 6.976 159.219 6.98133 158.931 6.992C158.654 7.00267 158.472 7.01333 158.387 7.024C158.28 7.04533 158.147 7.07733 157.987 7.12C157.827 7.152 157.667 7.2 157.507 7.264C157.283 7.36 157.086 7.408 156.915 7.408C156.755 7.408 156.606 7.376 156.467 7.312C156.339 7.28 156.168 7.216 155.955 7.12C155.742 7.01333 155.539 6.90133 155.347 6.784C155.123 6.63467 155.032 6.50133 155.075 6.384C155.118 6.256 155.272 6.208 155.539 6.24C155.699 6.26133 155.939 6.27733 156.259 6.288C156.59 6.29867 156.883 6.304 157.139 6.304C157.48 6.304 157.902 6.29867 158.403 6.288C158.915 6.27733 159.352 6.256 159.715 6.224V3.392C159.715 3.136 159.694 2.92267 159.651 2.752C159.608 2.58133 159.523 2.448 159.395 2.352C159.214 2.224 159 2.12267 158.755 2.048C158.52 1.97333 158.286 1.91467 158.051 1.872C157.966 1.86133 157.907 1.81867 157.875 1.744C157.854 1.66933 157.848 1.59467 157.859 1.52C157.88 1.44533 157.923 1.38133 157.987 1.328C158.051 1.264 158.142 1.232 158.259 1.232C158.664 1.24267 159.144 1.28533 159.699 1.36C160.254 1.424 160.723 1.51467 161.107 1.632C161.171 1.664 161.224 1.728 161.267 1.824C161.31 1.90933 161.315 2.01067 161.283 2.128C161.23 2.288 161.187 2.448 161.155 2.608C161.123 2.768 161.102 2.928 161.091 3.088V12.784ZM152.723 10C152.723 10.224 152.782 10.3733 152.899 10.448C153.027 10.512 153.171 10.5387 153.331 10.528C153.619 10.528 153.966 10.496 154.371 10.432C154.787 10.3573 155.219 10.272 155.667 10.176C156.115 10.08 156.563 9.97333 157.011 9.856C157.459 9.73867 157.875 9.62133 158.259 9.504C158.323 9.48267 158.376 9.49333 158.419 9.536C158.472 9.57867 158.504 9.63733 158.515 9.712C158.526 9.78667 158.51 9.86667 158.467 9.952C158.424 10.0373 158.35 10.112 158.243 10.176C157.848 10.3467 157.416 10.5173 156.947 10.688C156.488 10.848 156.019 10.9973 155.539 11.136C155.048 11.2853 154.552 11.4133 154.051 11.52C153.55 11.616 153.07 11.68 152.611 11.712C152.152 11.7547 151.811 11.6853 151.587 11.504C151.363 11.3227 151.251 10.992 151.251 10.512V5.648C151.251 5.49867 151.224 5.36533 151.171 5.248C151.118 5.13067 151.043 5.03467 150.947 4.96C150.819 4.88533 150.648 4.82133 150.435 4.768C150.232 4.704 150.035 4.66133 149.843 4.64C149.768 4.64 149.715 4.608 149.683 4.544C149.651 4.46933 149.64 4.39467 149.651 4.32C149.662 4.23467 149.694 4.16 149.747 4.096C149.811 4.032 149.896 3.99467 150.003 3.984C150.387 3.97333 150.83 3.984 151.331 4.016C151.843 4.048 152.302 4.096 152.707 4.16C152.771 4.18133 152.819 4.24533 152.851 4.352C152.883 4.448 152.883 4.54933 152.851 4.656C152.83 4.72 152.803 4.82133 152.771 4.96C152.75 5.09867 152.734 5.24267 152.723 5.392V10ZM179.492 6.272C179.311 6.656 179.055 6.992 178.724 7.28C178.383 7.55733 177.983 7.77067 177.524 7.92C177.076 8.06933 176.58 8.144 176.036 8.144C175.492 8.144 174.991 8.06933 174.532 7.92C174.084 7.77067 173.695 7.55733 173.364 7.28C173.044 6.992 172.793 6.656 172.612 6.272C172.431 5.87733 172.34 5.44 172.34 4.96C172.34 4.48 172.431 4.04267 172.612 3.648C172.793 3.25333 173.044 2.91733 173.364 2.64C173.695 2.36267 174.084 2.14933 174.532 2C174.991 1.84 175.492 1.76 176.036 1.76C176.58 1.76 177.076 1.84 177.524 2C177.983 2.14933 178.383 2.36267 178.724 2.64C179.055 2.91733 179.311 3.25333 179.492 3.648C179.684 4.04267 179.78 4.48 179.78 4.96C179.78 5.44 179.684 5.87733 179.492 6.272ZM176.036 7.2C176.74 7.2 177.3 6.98667 177.716 6.56C178.143 6.13333 178.356 5.6 178.356 4.96C178.356 4.29867 178.143 3.74933 177.716 3.312C177.3 2.87467 176.74 2.656 176.036 2.656C175.321 2.656 174.761 2.87467 174.356 3.312C173.951 3.74933 173.748 4.29867 173.748 4.96C173.748 5.6 173.951 6.13333 174.356 6.56C174.761 6.98667 175.321 7.2 176.036 7.2ZM179.012 12.784C179.023 13.936 178.943 14.8587 178.772 15.552C178.601 16.2453 178.388 16.592 178.132 16.592C178.015 16.6027 177.919 16.528 177.844 16.368C177.769 16.208 177.711 15.9947 177.668 15.728C177.615 15.4613 177.577 15.1573 177.556 14.816C177.545 14.4747 177.54 14.1173 177.54 13.744V10.288C177.348 10.288 177.172 10.288 177.012 10.288C176.863 10.2773 176.724 10.272 176.596 10.272C176.308 10.272 175.988 10.2773 175.636 10.288C175.295 10.2987 174.943 10.3093 174.58 10.32V12.448C174.591 13.6 174.505 14.5227 174.324 15.216C174.153 15.9093 173.94 16.256 173.684 16.256C173.577 16.2667 173.487 16.192 173.412 16.032C173.337 15.872 173.279 15.6587 173.236 15.392C173.193 15.136 173.161 14.832 173.14 14.48C173.129 14.1387 173.124 13.7813 173.124 13.408V10.416C173.071 10.416 173.028 10.4213 172.996 10.432C172.964 10.432 172.937 10.432 172.916 10.432C172.895 10.432 172.873 10.432 172.852 10.432C172.831 10.432 172.815 10.432 172.804 10.432C172.697 10.4427 172.601 10.4587 172.516 10.48C172.431 10.4907 172.356 10.5067 172.292 10.528C172.217 10.5493 172.148 10.576 172.084 10.608C172.02 10.6293 171.956 10.6453 171.892 10.656C171.732 10.7093 171.556 10.7467 171.364 10.768C171.183 10.7787 170.943 10.7467 170.644 10.672C170.452 10.64 170.228 10.576 169.972 10.48C169.716 10.384 169.439 10.256 169.14 10.096C168.82 9.936 168.681 9.776 168.724 9.616C168.777 9.44533 169.012 9.38667 169.428 9.44C169.908 9.504 170.425 9.54667 170.98 9.568C171.535 9.58933 172.068 9.6 172.58 9.6C172.953 9.6 173.423 9.6 173.988 9.6C174.553 9.6 175.14 9.59467 175.748 9.584C176.356 9.584 176.948 9.57867 177.524 9.568C178.111 9.55733 178.612 9.54667 179.028 9.536C179.252 9.536 179.465 9.50933 179.668 9.456C179.871 9.392 180.009 9.344 180.084 9.312C180.169 9.28 180.255 9.25333 180.34 9.232C180.436 9.21067 180.527 9.19467 180.612 9.184C180.889 9.16267 181.161 9.15733 181.428 9.168C181.705 9.168 181.988 9.17867 182.276 9.2C182.596 9.232 182.841 9.296 183.012 9.392C183.193 9.47733 183.284 9.61067 183.284 9.792C183.273 10.0053 183.172 10.1493 182.98 10.224C182.799 10.288 182.559 10.32 182.26 10.32C181.876 10.32 181.391 10.32 180.804 10.32C180.228 10.3093 179.631 10.304 179.012 10.304V12.784ZM191.005 2.592C191.143 2.688 191.213 2.79467 191.213 2.912C191.202 3.01867 191.127 3.12533 190.989 3.232C190.85 3.33867 190.653 3.39733 190.397 3.408C190.205 3.42933 190.029 3.44533 189.869 3.456C189.719 3.46667 189.575 3.472 189.437 3.472C189.298 3.48267 189.159 3.488 189.021 3.488C188.882 3.47733 188.738 3.46133 188.589 3.44C188.397 3.42933 188.178 3.36533 187.933 3.248C187.687 3.13067 187.421 2.96 187.133 2.736C186.909 2.53333 186.85 2.37333 186.957 2.256C187.074 2.13867 187.325 2.128 187.709 2.224C188.125 2.32 188.535 2.384 188.941 2.416C189.357 2.43733 189.826 2.448 190.349 2.448C190.647 2.448 190.866 2.496 191.005 2.592ZM191.197 3.984C191.239 3.97333 191.277 3.96267 191.309 3.952C191.597 3.92 191.863 3.90933 192.109 3.92C192.354 3.93067 192.615 3.952 192.893 3.984C193.106 4.016 193.282 4.06933 193.421 4.144C193.559 4.21867 193.629 4.336 193.629 4.496C193.629 4.66667 193.549 4.784 193.389 4.848C193.229 4.912 193.037 4.944 192.813 4.944C192.759 4.944 192.626 4.944 192.413 4.944C192.199 4.944 191.959 4.944 191.693 4.944C191.426 4.944 191.154 4.944 190.877 4.944C190.599 4.944 190.37 4.944 190.189 4.944C190.007 4.95467 189.789 4.96533 189.533 4.976C189.287 4.976 189.037 4.98133 188.781 4.992C188.525 4.992 188.285 4.99733 188.061 5.008C187.847 5.01867 187.687 5.02933 187.581 5.04C187.527 5.05067 187.474 5.06667 187.421 5.088C187.367 5.09867 187.314 5.10933 187.261 5.12C187.218 5.14133 187.17 5.16267 187.117 5.184C187.074 5.19467 187.031 5.20533 186.989 5.216C186.829 5.28 186.663 5.32267 186.493 5.344C186.322 5.35467 186.087 5.312 185.789 5.216C185.629 5.184 185.447 5.13067 185.245 5.056C185.053 4.97067 184.855 4.864 184.653 4.736C184.386 4.576 184.263 4.432 184.285 4.304C184.306 4.16533 184.445 4.10667 184.701 4.128C185.085 4.16 185.49 4.192 185.917 4.224C186.343 4.24533 186.855 4.256 187.453 4.256C187.591 4.256 187.794 4.26133 188.061 4.272C188.338 4.272 188.626 4.272 188.925 4.272C189.213 4.272 189.49 4.272 189.757 4.272C190.034 4.26133 190.247 4.24533 190.397 4.224C190.461 4.224 190.546 4.20267 190.653 4.16C190.77 4.11733 190.855 4.08 190.909 4.048C190.941 4.03733 190.973 4.02667 191.005 4.016C191.037 4.00533 191.069 3.99467 191.101 3.984C191.133 3.984 191.165 3.984 191.197 3.984ZM196.189 8.624C196.189 9.456 196.098 10.1067 195.917 10.576C195.746 11.0347 195.559 11.264 195.357 11.264C195.165 11.2747 195.026 11.1093 194.941 10.768C194.866 10.416 194.829 9.952 194.829 9.376C194.669 9.38667 194.509 9.41333 194.349 9.456C194.189 9.488 194.034 9.536 193.885 9.6C193.661 9.696 193.463 9.744 193.293 9.744C193.133 9.744 192.978 9.712 192.829 9.648C192.786 9.63733 192.722 9.62133 192.637 9.6C192.562 9.568 192.482 9.53067 192.397 9.488C192.301 9.456 192.205 9.41867 192.109 9.376C192.013 9.33333 191.927 9.28533 191.853 9.232C191.618 9.69067 191.255 10.048 190.765 10.304C190.285 10.5493 189.725 10.672 189.085 10.672C188.21 10.672 187.485 10.4427 186.909 9.984C186.343 9.51467 186.061 8.88 186.061 8.08C186.061 7.28 186.349 6.656 186.925 6.208C187.501 5.74933 188.221 5.52 189.085 5.52C189.949 5.52 190.669 5.74933 191.245 6.208C191.831 6.656 192.125 7.28 192.125 8.08C192.125 8.176 192.119 8.26667 192.109 8.352C192.098 8.43733 192.087 8.51733 192.077 8.592C192.173 8.60267 192.285 8.61333 192.413 8.624C192.541 8.624 192.669 8.624 192.797 8.624C192.935 8.63467 193.063 8.64 193.181 8.64C193.309 8.64 193.421 8.64 193.517 8.64C193.613 8.64 193.709 8.64 193.805 8.64C193.911 8.64 194.018 8.64 194.125 8.64C194.242 8.64 194.354 8.64 194.461 8.64C194.578 8.62933 194.701 8.61867 194.829 8.608V6.784C194.679 6.80533 194.53 6.832 194.381 6.864C194.242 6.896 194.109 6.93867 193.981 6.992C193.757 7.088 193.559 7.136 193.389 7.136C193.229 7.136 193.074 7.104 192.925 7.04C192.807 7.008 192.642 6.944 192.429 6.848C192.215 6.74133 192.013 6.62933 191.821 6.512C191.597 6.36267 191.506 6.22933 191.549 6.112C191.591 5.984 191.746 5.936 192.013 5.968C192.173 5.98933 192.413 6.00533 192.733 6.016C193.063 6.02667 193.357 6.032 193.613 6.032C193.698 6.032 193.783 6.032 193.869 6.032C193.965 6.032 194.066 6.032 194.173 6.032C194.269 6.032 194.37 6.032 194.477 6.032C194.594 6.02133 194.711 6.016 194.829 6.016V3.392C194.829 3.136 194.807 2.92267 194.765 2.752C194.722 2.58133 194.631 2.448 194.493 2.352C194.311 2.224 194.098 2.12267 193.853 2.048C193.618 1.97333 193.389 1.91467 193.165 1.872C193.079 1.86133 193.021 1.81867 192.989 1.744C192.957 1.66933 192.951 1.59467 192.973 1.52C192.983 1.44533 193.021 1.38133 193.085 1.328C193.149 1.264 193.239 1.232 193.357 1.232C193.762 1.24267 194.237 1.28533 194.781 1.36C195.325 1.424 195.789 1.51467 196.173 1.632C196.237 1.664 196.29 1.728 196.333 1.824C196.386 1.90933 196.397 2.01067 196.365 2.128C196.301 2.288 196.253 2.45333 196.221 2.624C196.199 2.784 196.189 2.944 196.189 3.104V8.624ZM196.029 13.68C196.029 14.48 195.725 15.1307 195.117 15.632C194.519 16.1333 193.73 16.384 192.749 16.384C192.269 16.384 191.826 16.32 191.421 16.192C191.026 16.064 190.679 15.8773 190.381 15.632C190.093 15.3973 189.863 15.1147 189.693 14.784C189.533 14.4533 189.453 14.0853 189.453 13.68C189.453 13.2747 189.533 12.9067 189.693 12.576C189.863 12.2347 190.098 11.9467 190.397 11.712C190.685 11.4773 191.031 11.296 191.437 11.168C191.842 11.04 192.279 10.976 192.749 10.976C193.73 10.976 194.519 11.2213 195.117 11.712C195.725 12.2027 196.029 12.8587 196.029 13.68ZM194.109 14.96C194.45 14.6293 194.621 14.224 194.621 13.744C194.621 13.232 194.45 12.8 194.109 12.448C193.767 12.0853 193.309 11.904 192.733 11.904C192.157 11.904 191.693 12.0853 191.341 12.448C190.999 12.8 190.829 13.232 190.829 13.744C190.829 14.224 190.999 14.6293 191.341 14.96C191.693 15.2907 192.157 15.456 192.733 15.456C193.309 15.456 193.767 15.2907 194.109 14.96ZM190.269 9.36C190.621 9.08267 190.797 8.656 190.797 8.08C190.797 7.51467 190.626 7.07733 190.285 6.768C189.943 6.45867 189.543 6.304 189.085 6.304C188.626 6.304 188.226 6.464 187.885 6.784C187.554 7.09333 187.389 7.52533 187.389 8.08C187.389 8.656 187.559 9.08267 187.901 9.36C188.242 9.63733 188.637 9.776 189.085 9.776C189.533 9.776 189.927 9.63733 190.269 9.36ZM211.158 12.784C211.179 13.936 211.115 14.8587 210.966 15.552C210.816 16.2453 210.614 16.592 210.358 16.592C210.24 16.6027 210.144 16.528 210.07 16.368C210.006 16.208 209.952 15.9947 209.91 15.728C209.878 15.4613 209.851 15.152 209.83 14.8C209.819 14.4587 209.814 14.1013 209.814 13.728V3.392C209.814 3.136 209.792 2.92267 209.75 2.752C209.707 2.58133 209.616 2.448 209.478 2.352C209.296 2.224 209.083 2.12267 208.838 2.048C208.603 1.97333 208.374 1.91467 208.15 1.872C208.064 1.86133 208.006 1.81867 207.974 1.744C207.942 1.66933 207.936 1.59467 207.958 1.52C207.968 1.44533 208.006 1.38133 208.07 1.328C208.134 1.264 208.224 1.232 208.342 1.232C208.747 1.24267 209.216 1.28533 209.75 1.36C210.294 1.424 210.758 1.51467 211.142 1.632C211.206 1.664 211.259 1.728 211.302 1.824C211.355 1.90933 211.366 2.01067 211.334 2.128C211.27 2.288 211.222 2.448 211.19 2.608C211.168 2.768 211.158 2.928 211.158 3.088V12.784ZM206.806 8.976C206.624 9.41333 206.368 9.792 206.038 10.112C205.707 10.432 205.312 10.6773 204.854 10.848C204.406 11.0187 203.915 11.104 203.382 11.104C202.838 11.104 202.336 11.0187 201.878 10.848C201.43 10.6667 201.04 10.416 200.71 10.096C200.379 9.776 200.123 9.39733 199.942 8.96C199.76 8.512 199.67 8.02133 199.67 7.488C199.67 6.944 199.76 6.45333 199.942 6.016C200.123 5.568 200.379 5.18933 200.71 4.88C201.04 4.57067 201.43 4.33067 201.878 4.16C202.336 3.97867 202.838 3.888 203.382 3.888C203.915 3.888 204.406 3.97867 204.854 4.16C205.312 4.33067 205.707 4.57067 206.038 4.88C206.368 5.18933 206.624 5.568 206.806 6.016C206.998 6.45333 207.094 6.944 207.094 7.488C207.094 8.032 206.998 8.528 206.806 8.976ZM203.382 10.112C204.075 10.112 204.624 9.856 205.03 9.344C205.435 8.832 205.638 8.208 205.638 7.472C205.638 6.736 205.435 6.112 205.03 5.6C204.624 5.088 204.075 4.832 203.382 4.832C202.678 4.832 202.128 5.088 201.734 5.6C201.339 6.112 201.142 6.736 201.142 7.472C201.142 7.83467 201.19 8.176 201.286 8.496C201.392 8.816 201.542 9.09333 201.734 9.328C201.926 9.57333 202.16 9.76533 202.438 9.904C202.715 10.0427 203.03 10.112 203.382 10.112ZM225.214 10.208C225.214 11.072 225.134 11.7813 224.974 12.336C224.814 12.8907 224.622 13.168 224.398 13.168C224.185 13.1787 224.041 12.9653 223.966 12.528C223.902 12.0907 223.87 11.568 223.87 10.96V9.008C223.454 9.168 222.937 9.34933 222.318 9.552C221.7 9.744 221.054 9.92533 220.382 10.096C219.7 10.2773 219.017 10.432 218.334 10.56C217.652 10.688 217.044 10.768 216.51 10.8C216.052 10.832 215.721 10.7627 215.518 10.592C215.316 10.4213 215.214 10.1013 215.214 9.632V7.664C215.214 7.376 215.124 7.18933 214.942 7.104C214.761 7.008 214.542 6.93867 214.286 6.896C214.18 6.88533 214.105 6.84267 214.062 6.768C214.02 6.69333 214.004 6.61867 214.014 6.544C214.036 6.46933 214.078 6.4 214.142 6.336C214.217 6.272 214.313 6.23467 214.43 6.224C214.718 6.224 215.097 6.24 215.566 6.272C216.036 6.304 216.441 6.34133 216.782 6.384C216.868 6.39467 217.038 6.40533 217.294 6.416C217.561 6.416 217.849 6.416 218.158 6.416C218.457 6.416 218.745 6.416 219.022 6.416C219.31 6.40533 219.529 6.39467 219.678 6.384V4.112C219.486 4.112 219.273 4.11733 219.038 4.128C218.804 4.128 218.574 4.13333 218.35 4.144C218.126 4.15467 217.918 4.16533 217.726 4.176C217.545 4.18667 217.412 4.192 217.326 4.192C217.134 4.21333 216.953 4.24 216.782 4.272C216.622 4.304 216.452 4.352 216.27 4.416C216.185 4.448 216.089 4.464 215.982 4.464C215.876 4.464 215.732 4.43733 215.55 4.384C215.412 4.352 215.246 4.288 215.054 4.192C214.862 4.096 214.66 3.984 214.446 3.856C214.254 3.728 214.174 3.60533 214.206 3.488C214.249 3.37067 214.414 3.31733 214.702 3.328C214.852 3.33867 215.012 3.34933 215.182 3.36C215.364 3.37067 215.545 3.38133 215.726 3.392C215.897 3.41333 216.073 3.42933 216.254 3.44C216.436 3.45067 216.617 3.456 216.798 3.456C217.086 3.47733 217.46 3.48267 217.918 3.472C218.388 3.46133 218.777 3.44 219.086 3.408C219.193 3.408 219.284 3.40267 219.358 3.392C219.433 3.37067 219.486 3.34933 219.518 3.328C219.561 3.30667 219.62 3.28 219.694 3.248C219.78 3.216 219.854 3.19467 219.918 3.184C220.132 3.17333 220.345 3.17333 220.558 3.184C220.782 3.184 220.99 3.2 221.182 3.232C221.342 3.27467 221.433 3.35467 221.454 3.472C221.476 3.57867 221.465 3.68533 221.422 3.792C221.401 3.84533 221.374 3.89333 221.342 3.936C221.321 3.97867 221.3 4.02133 221.278 4.064C221.257 4.11733 221.236 4.16533 221.214 4.208C221.193 4.25067 221.182 4.29333 221.182 4.336L220.782 6.432C220.921 6.44267 221.033 6.48 221.118 6.544C221.214 6.608 221.262 6.69333 221.262 6.8C221.262 6.896 221.214 6.98133 221.118 7.056C221.033 7.12 220.894 7.152 220.702 7.152H216.622V9.2C216.622 9.36 216.681 9.46667 216.798 9.52C216.926 9.57333 217.07 9.6 217.23 9.6C217.593 9.6 218.068 9.55733 218.654 9.472C219.252 9.38667 219.87 9.28 220.51 9.152C221.15 9.024 221.769 8.89067 222.366 8.752C222.974 8.60267 223.476 8.45867 223.87 8.32V3.392C223.87 3.136 223.849 2.92267 223.806 2.752C223.764 2.58133 223.673 2.448 223.534 2.352C223.353 2.224 223.14 2.12267 222.894 2.048C222.66 1.97333 222.43 1.91467 222.206 1.872C222.121 1.86133 222.062 1.81867 222.03 1.744C221.998 1.66933 221.993 1.59467 222.014 1.52C222.025 1.44533 222.062 1.38133 222.126 1.328C222.19 1.264 222.281 1.232 222.398 1.232C222.804 1.24267 223.278 1.28533 223.822 1.36C224.366 1.424 224.83 1.51467 225.214 1.632C225.278 1.664 225.332 1.728 225.374 1.824C225.417 1.90933 225.422 2.01067 225.39 2.128C225.337 2.288 225.294 2.45333 225.262 2.624C225.241 2.784 225.225 2.944 225.214 3.104V6.656C225.46 6.64533 225.694 6.61867 225.918 6.576C226.142 6.52267 226.324 6.432 226.462 6.304C226.526 6.24 226.713 6.20267 227.022 6.192C227.332 6.18133 227.609 6.192 227.854 6.224C228.121 6.288 228.313 6.384 228.43 6.512C228.548 6.62933 228.596 6.752 228.574 6.88C228.553 7.008 228.462 7.12 228.302 7.216C228.153 7.30133 227.945 7.344 227.678 7.344H225.214V10.208ZM223.022 15.024C223.182 15.024 223.369 15.008 223.582 14.976C223.796 14.9547 224.009 14.8907 224.222 14.784C224.254 14.7627 224.308 14.7307 224.382 14.688C224.457 14.656 224.542 14.6347 224.638 14.624C224.852 14.6133 225.076 14.6133 225.31 14.624C225.545 14.6347 225.758 14.6507 225.95 14.672C226.164 14.704 226.324 14.7733 226.43 14.88C226.548 14.9973 226.606 15.12 226.606 15.248C226.606 15.376 226.548 15.488 226.43 15.584C226.324 15.6907 226.158 15.744 225.934 15.744L219.854 15.808C219.428 15.8187 219.049 15.7493 218.718 15.6C218.398 15.4507 218.238 15.12 218.238 14.608V13.184C218.238 13.0773 218.222 12.9653 218.19 12.848C218.158 12.72 218.094 12.624 217.998 12.56C217.881 12.496 217.732 12.4427 217.55 12.4C217.38 12.3467 217.177 12.304 216.942 12.272C216.868 12.272 216.814 12.24 216.782 12.176C216.75 12.1013 216.745 12.0267 216.766 11.952C216.777 11.8773 216.809 11.808 216.862 11.744C216.926 11.6693 217.012 11.6267 217.118 11.616C217.257 11.616 217.433 11.616 217.646 11.616C217.87 11.616 218.1 11.6213 218.334 11.632C218.58 11.6427 218.814 11.6587 219.038 11.68C219.273 11.6907 219.481 11.712 219.662 11.744C219.726 11.776 219.774 11.8453 219.806 11.952C219.838 12.048 219.838 12.1493 219.806 12.256C219.785 12.32 219.769 12.4373 219.758 12.608C219.748 12.7787 219.742 12.928 219.742 13.056V14.56C219.742 14.752 219.801 14.88 219.918 14.944C220.036 15.0187 220.174 15.056 220.334 15.056L223.022 15.024ZM232.839 14.048C232.839 14.3147 232.748 14.5333 232.567 14.704C232.386 14.8853 232.156 14.976 231.879 14.976C231.612 14.976 231.388 14.8853 231.207 14.704C231.036 14.5333 230.951 14.3147 230.951 14.048C230.951 13.7813 231.036 13.5627 231.207 13.392C231.388 13.2107 231.612 13.12 231.879 13.12C232.156 13.12 232.386 13.2107 232.567 13.392C232.748 13.5627 232.839 13.7813 232.839 14.048ZM230.247 4.576C230.268 4.672 230.322 4.77867 230.407 4.896C230.471 4.96 230.54 5.04 230.615 5.136C230.7 5.232 230.743 5.344 230.743 5.472C230.743 5.74933 230.658 5.95733 230.487 6.096C230.327 6.23467 230.114 6.304 229.847 6.304C229.602 6.304 229.41 6.21333 229.271 6.032C229.143 5.84 229.079 5.584 229.079 5.264C229.079 4.86933 229.143 4.496 229.271 4.144C229.399 3.78133 229.586 3.46667 229.831 3.2C230.076 2.93333 230.38 2.72 230.743 2.56C231.106 2.4 231.522 2.32 231.991 2.32C233.026 2.32 233.81 2.57067 234.343 3.072C234.887 3.57333 235.159 4.256 235.159 5.12C235.159 5.472 235.106 5.80267 234.999 6.112C234.892 6.41067 234.748 6.69867 234.567 6.976C234.396 7.25333 234.204 7.52 233.991 7.776C233.778 8.02133 233.559 8.26133 233.335 8.496C232.93 8.92267 232.647 9.39733 232.487 9.92C232.338 10.4427 232.263 11.0773 232.263 11.824C232.263 11.9093 232.242 11.984 232.199 12.048C232.167 12.1013 232.092 12.128 231.975 12.128C231.836 12.128 231.751 12.0267 231.719 11.824C231.57 11.0453 231.575 10.336 231.735 9.696C231.895 9.056 232.204 8.45867 232.663 7.904C233.036 7.456 233.33 7.00267 233.543 6.544C233.756 6.07467 233.863 5.568 233.863 5.024C233.863 4.75733 233.82 4.50667 233.735 4.272C233.65 4.02667 233.516 3.81333 233.335 3.632C233.164 3.45067 232.951 3.30667 232.695 3.2C232.439 3.09333 232.135 3.04 231.783 3.04C231.527 3.04 231.298 3.07733 231.095 3.152C230.903 3.22667 230.743 3.32267 230.615 3.44C230.487 3.55733 230.386 3.69067 230.311 3.84C230.247 3.98933 230.215 4.13867 230.215 4.288C230.215 4.384 230.226 4.48 230.247 4.576Z" fill="#2E2A32"/>
<path d="M32.1875 72C32.1875 69.7909 33.9784 68 36.1875 68H148.188C150.397 68 152.188 69.7909 152.188 72V88C152.188 90.2091 150.397 92 148.188 92H36.1875C33.9784 92 32.1875 90.2091 32.1875 88V72Z" fill="#EEE7F5"/>
<g clip-path="url(#clip0_2094_27412)">
<path d="M51.475 78.8563C51.0783 76.8438 49.3108 75.333 47.1875 75.333C45.5017 75.333 44.0375 76.2897 43.3083 77.6897C41.5525 77.8763 40.1875 79.3638 40.1875 81.1663C40.1875 83.0972 41.7567 84.6663 43.6875 84.6663H51.2708C52.8808 84.6663 54.1875 83.3597 54.1875 81.7497C54.1875 80.2097 52.9917 78.9613 51.475 78.8563Z" fill="#7A37BE"/>
</g>
<path d="M66.7637 74.5781H66.0254V80.4727H66.7637V77.8125H68.3574V77.1914H66.7637V74.5781ZM58.7363 79.9336L59.041 80.5312C62.0879 79.6992 63.9453 77.8301 63.9512 75.2695H59.1816V75.8906H63.1602C62.9844 77.7656 61.3496 79.2129 58.7363 79.9336ZM60.2715 84.7617H66.7637V80.9766H60.2715V84.7617ZM61.0098 84.1406V81.6094H66.0254V84.1406H61.0098ZM74.1816 75.5859V74.9648H73.4199V75.5859C73.4199 77.1504 71.3164 78.3516 69.6113 78.6094L69.9277 79.2188C71.4512 78.9434 73.1621 78.0586 73.8008 76.7168C74.4512 78.041 76.168 78.9434 77.6855 79.2188L77.9902 78.6094C76.291 78.3516 74.1758 77.1211 74.1816 75.5859ZM69.084 81.0938H73.4199V84.9141H74.1348V81.0938H78.5059V80.4609H69.084V81.0938ZM82.8887 76.2773V75.1758H82.1738V76.3008C82.1621 77.9473 81.002 79.3184 79.4785 79.875L79.877 80.4844C81.1191 79.9922 82.1211 79.002 82.5488 77.707C82.9883 78.8496 83.9492 79.7285 85.1035 80.168L85.5254 79.5938C84.0488 79.0781 82.8828 77.7773 82.8887 76.2773ZM81.1543 82.9688C81.1426 84.1875 82.4434 84.8789 84.5762 84.8789C86.709 84.8789 88.0098 84.1875 88.0098 82.9688C88.0098 81.7383 86.709 81.0293 84.5762 81.0234C82.4434 81.0293 81.1426 81.7383 81.1543 82.9688ZM81.8809 82.9688C81.8691 82.1426 82.9238 81.627 84.5762 81.6328C86.2285 81.627 87.2832 82.1426 87.2832 82.9688C87.2832 83.7715 86.2285 84.2754 84.5762 84.2812C82.9238 84.2754 81.8691 83.7715 81.8809 82.9688ZM84.8223 77.5078H87.2363V80.7188H87.9746V74.5781H87.2363V76.8867H84.8223V77.5078ZM98.3105 74.5781H97.5723V84.9258H98.3105V74.5781ZM90.2363 78.9727C90.2363 81.1523 91.3203 82.5469 92.8496 82.5469C94.3672 82.5469 95.4629 81.1523 95.4629 78.9727C95.4629 76.7988 94.3672 75.4043 92.8496 75.3984C91.3203 75.4043 90.2363 76.7988 90.2363 78.9727ZM90.9512 78.9727C90.9512 77.2441 91.7305 76.0605 92.8496 76.0547C93.9688 76.0605 94.7422 77.2441 94.7363 78.9727C94.7422 80.7012 93.9688 81.8906 92.8496 81.8906C91.7305 81.8906 90.9512 80.7012 90.9512 78.9727ZM112.514 79.6641H103.092V80.2852H107.439V81.3926C105.43 81.457 104.252 82.0664 104.252 83.1328C104.252 84.2637 105.57 84.8789 107.803 84.8789C110.018 84.8789 111.336 84.2637 111.342 83.1328C111.336 82.0664 110.158 81.457 108.166 81.3926V80.2852H112.514V79.6641ZM103.994 75.6094H105.658V77.9766H104.006V78.5977H111.564V77.9766H109.924V75.6094H111.588V74.9766H103.994V75.6094ZM105.002 83.1328C104.996 82.4062 106.068 81.9727 107.803 81.9727C109.52 81.9727 110.592 82.4062 110.592 83.1328C110.592 83.8652 109.52 84.3047 107.803 84.293C106.068 84.3047 104.996 83.8652 105.002 83.1328ZM106.396 77.9766V75.6094H109.186V77.9766H106.396ZM122.908 80.7656H113.451V81.375H117.799V84.9141H118.514V81.375H122.908V80.7656ZM114.693 79.4297H121.666V75.0117H120.928V76.5234H115.432V75.0117H114.693V79.4297ZM115.432 78.8203V77.1328H120.928V78.8203H115.432ZM129.061 76.4297H126.811V74.8945H126.061V76.4297H123.811V77.0391H129.061V76.4297ZM124.221 80.1328C124.215 81.5039 125.146 82.4648 126.436 82.4648C127.719 82.4648 128.65 81.5039 128.65 80.1328C128.65 78.7734 127.719 77.8184 126.436 77.8125C125.146 77.8184 124.215 78.7734 124.221 80.1328ZM124.889 80.1328C124.883 79.1836 125.533 78.457 126.436 78.4453C127.332 78.457 127.988 79.1836 127.994 80.1328C127.988 81.0938 127.332 81.8145 126.436 81.8086C125.533 81.8145 124.883 81.0938 124.889 80.1328ZM129.646 84.3867H130.338V79.6055H131.896V84.9141H132.6V74.5781H131.896V78.9844H130.338V74.8359H129.646V84.3867ZM143.674 82.9102H141.236V80.0156C142.121 79.5645 142.654 78.832 142.654 77.9062C142.654 76.3184 141.107 75.2812 138.904 75.2695C136.719 75.2812 135.166 76.3184 135.166 77.9062C135.166 78.8438 135.717 79.5879 136.619 80.0332V82.9102H134.205V83.543H143.674V82.9102ZM135.869 77.9062C135.869 76.6992 137.141 75.8848 138.904 75.8906C140.662 75.8848 141.951 76.6992 141.951 77.9062C141.951 79.0898 140.662 79.916 138.904 79.9102C137.141 79.916 135.869 79.0898 135.869 77.9062ZM137.346 82.9102V80.3086C137.814 80.4375 138.336 80.5078 138.904 80.5078C139.484 80.5078 140.023 80.4375 140.498 80.3027V82.9102H137.346Z" fill="#7A37BE"/>
<path d="M36.1875 69H148.188V67H36.1875V69ZM151.188 72V88H153.188V72H151.188ZM148.188 91H36.1875V93H148.188V91ZM33.1875 88V72H31.1875V88H33.1875ZM36.1875 91C34.5306 91 33.1875 89.6569 33.1875 88H31.1875C31.1875 90.7614 33.4261 93 36.1875 93V91ZM151.188 88C151.188 89.6569 149.844 91 148.188 91V93C150.949 93 153.188 90.7614 153.188 88H151.188ZM148.188 69C149.844 69 151.188 70.3431 151.188 72H153.188C153.188 69.2386 150.949 67 148.188 67V69ZM36.1875 67C33.4261 67 31.1875 69.2386 31.1875 72H33.1875C33.1875 70.3431 34.5306 69 36.1875 69V67Z" fill="#7A37BE"/>
<path d="M168.188 72C168.188 69.7909 169.978 68 172.188 68H284.188C286.397 68 288.188 69.7909 288.188 72V88C288.188 90.2091 286.397 92 284.188 92H172.188C169.978 92 168.188 90.2091 168.188 88V72Z" fill="#EEE7F5"/>
<path d="M188.183 74.167C184.963 74.167 182.355 76.7803 182.355 80.0003C182.355 83.2203 184.963 85.8337 188.183 85.8337C191.409 85.8337 194.022 83.2203 194.022 80.0003C194.022 76.7803 191.409 74.167 188.183 74.167ZM186.147 77.667C186.631 77.667 187.022 78.0578 187.022 78.542C187.022 79.0262 186.631 79.417 186.147 79.417C185.663 79.417 185.272 79.0262 185.272 78.542C185.272 78.0578 185.663 77.667 186.147 77.667ZM190.936 81.587C190.405 82.7245 189.379 83.5003 188.189 83.5003C186.999 83.5003 185.972 82.7245 185.441 81.587C185.348 81.3945 185.488 81.167 185.704 81.167H190.674C190.89 81.167 191.03 81.3945 190.936 81.587ZM190.23 79.417C189.746 79.417 189.355 79.0262 189.355 78.542C189.355 78.0578 189.746 77.667 190.23 77.667C190.715 77.667 191.105 78.0578 191.105 78.542C191.105 79.0262 190.715 79.417 190.23 79.417Z" fill="#7A37BE"/>
<path d="M208.699 74.5781H207.984V78.7852H206.309V74.8242H205.617V84.3633H206.309V79.4062H207.984V84.9141H208.699V74.5781ZM200.309 82.2891H200.953C202.611 82.2773 203.648 82.2305 204.891 81.9609L204.809 81.3281C203.637 81.5859 202.635 81.6445 201.047 81.6445V76.4766H204.188V75.8555H200.309V82.2891ZM218.203 74.5781H217.477V84.9141H218.203V79.6758H219.961V79.043H218.203V74.5781ZM210.141 82.207L210.281 82.8516C212.109 82.8516 214.582 82.8223 216.855 82.4414L216.797 81.8672C215.854 82.0078 214.84 82.0898 213.832 82.1367V80.9473C215.062 80.8242 215.877 80.1152 215.883 79.0664C215.877 77.9004 214.893 77.1504 213.457 77.1562C212.01 77.1504 211.037 77.9004 211.043 79.0664C211.037 80.1211 211.852 80.8301 213.094 80.9473V82.166C212.033 82.2012 211.014 82.207 210.141 82.207ZM210.316 76.4883H216.586V75.8672H213.832V74.5781H213.094V75.8672H210.316V76.4883ZM211.734 79.0664C211.734 78.2871 212.42 77.7422 213.457 77.7422C214.482 77.7422 215.174 78.2871 215.18 79.0664C215.174 79.8398 214.482 80.3672 213.457 80.3555C212.42 80.3672 211.734 79.8398 211.734 79.0664ZM228.598 74.5781H227.859V84.9141H228.598V79.4883H230.344V78.8555H228.598V74.5781ZM220.758 82.3008L221.168 82.8867C224.514 81.2402 225.938 78.5742 225.949 75.7031H221.215V76.3242H225.193C225.012 78.8203 223.512 80.9355 220.758 82.3008ZM243.328 79.0547H233.906V79.6641H243.328V79.0547ZM234.445 77.8711L234.703 78.457C236.303 78.2754 238.008 77.6074 238.623 76.4941C239.232 77.6074 240.938 78.2754 242.543 78.457L242.801 77.8711C241.055 77.707 239.033 76.8516 239.027 75.6094H242.484V75H234.773V75.6094H238.207C238.189 76.8574 236.174 77.707 234.445 77.8711ZM235.066 81.3281H241.371V82.4062H235.102V84.7852H242.414V84.1758H235.816V82.9805H242.086V80.7422H235.066V81.3281ZM252.785 74.5781H252.059V78.7852H249.457V79.418H252.059V84.9141H252.785V74.5781ZM244.324 82.3008L244.746 82.875C248.145 81.1992 249.463 78.5801 249.469 75.7148H244.758V76.3242H248.725C248.561 78.7852 247.195 80.9062 244.324 82.3008ZM263.109 74.5781H262.359V81.6797H259.898V82.2656H262.359V84.9258H263.109V74.5781ZM254.602 80.0859L254.707 80.7305C255.574 80.7305 256.564 80.7305 257.602 80.6836V84.5859H258.34V80.6484C259.406 80.5898 260.514 80.4844 261.574 80.3086L261.516 79.7461C259.225 80.0742 256.582 80.0859 254.602 80.0859ZM255.41 77.1211C255.41 78.3457 256.465 79.125 258.012 79.125C259.547 79.125 260.613 78.3457 260.613 77.1211C260.613 75.9258 259.547 75.123 258.012 75.1172C256.465 75.123 255.41 75.9258 255.41 77.1211ZM256.102 77.1211C256.102 76.3066 256.887 75.7148 258.012 75.7148C259.119 75.7148 259.904 76.3066 259.91 77.1211C259.904 77.9648 259.119 78.5508 258.012 78.5508C256.887 78.5508 256.102 77.9648 256.102 77.1211ZM274.488 82.9102H272.051V80.0156C272.936 79.5645 273.469 78.832 273.469 77.9062C273.469 76.3184 271.922 75.2812 269.719 75.2695C267.533 75.2812 265.98 76.3184 265.98 77.9062C265.98 78.8438 266.531 79.5879 267.434 80.0332V82.9102H265.02V83.543H274.488V82.9102ZM266.684 77.9062C266.684 76.6992 267.955 75.8848 269.719 75.8906C271.477 75.8848 272.766 76.6992 272.766 77.9062C272.766 79.0898 271.477 79.916 269.719 79.9102C267.955 79.916 266.684 79.0898 266.684 77.9062ZM268.16 82.9102V80.3086C268.629 80.4375 269.15 80.5078 269.719 80.5078C270.299 80.5078 270.838 80.4375 271.312 80.3027V82.9102H268.16Z" fill="#7A37BE"/>
<path d="M32.6689 61H35.9502C37.4932 61 38.4307 60.1602 38.4307 59.0078C38.4307 57.9971 37.6934 57.3477 36.7998 57.3184V57.25C37.6055 57.084 38.1523 56.4883 38.1572 55.707C38.1523 54.6279 37.3076 53.9297 35.6963 53.9297H32.6689V61ZM34.5244 59.5059V57.9629H35.501C36.0967 57.9629 36.4678 58.2607 36.4678 58.7734C36.4678 59.252 36.1406 59.5107 35.4717 59.5059H34.5244ZM34.5244 56.8008V55.3945H35.3838C35.8867 55.3945 36.2432 55.6484 36.2432 56.0977C36.2432 56.5469 35.877 56.8008 35.3545 56.8008H34.5244ZM39.1436 61H44.1826V59.4961H40.999V58.2168H43.9287V56.7129H40.999V55.4336H44.1924V53.9297H39.1436V61ZM48.9775 56.1172H50.7646C50.7549 54.7451 49.6855 53.832 47.9912 53.832C46.3311 53.832 45.1494 54.7305 45.1592 56.0684C45.1543 57.1621 45.916 57.7773 47.1611 58.0508L47.874 58.207C48.6602 58.3779 48.9531 58.5781 48.958 58.9199C48.9531 59.2959 48.6113 59.5547 47.9717 59.5547C47.2344 59.5547 46.7803 59.208 46.751 58.5488H44.9736C44.9883 60.292 46.1748 61.083 48.001 61.0879C49.7881 61.083 50.8525 60.3066 50.8623 58.9199C50.8525 57.8311 50.1738 57.0938 48.6553 56.7715L48.0693 56.6348C47.4102 56.498 47.0781 56.2979 47.0928 55.9316C47.0977 55.6045 47.3809 55.3604 47.9912 55.3652C48.626 55.3604 48.9385 55.6436 48.9775 56.1172ZM51.4189 55.4336H53.5479V61H55.3838V55.4336H57.5127V53.9297H51.4189V55.4336ZM60.4229 53.9297H58.5479L58.7236 58.8027H60.2568L60.4229 53.9297ZM58.5381 60.1602C58.5332 60.6875 58.9629 61.1074 59.4854 61.1074C59.9834 61.1074 60.4277 60.6875 60.4326 60.1602C60.4277 59.6426 59.9834 59.2227 59.4854 59.2227C58.9629 59.2227 58.5332 59.6426 58.5381 60.1602Z" fill="#7A37BE"/>
<path d="M55.707 119.102H54.8457V122.424H55.707V119.102ZM67.082 118.008H66.2207V126.963H67.082V118.008ZM57.4707 124.748L57.9082 125.418C59.3369 124.905 60.5195 123.805 61.0391 122.383C61.5654 123.709 62.7549 124.721 64.1699 125.213L64.6074 124.516C62.8643 123.948 61.4424 122.506 61.4492 120.811V120.414H64.3203V119.703H61.4629V118.062H60.6016V119.703H57.7168V120.414H60.6016V120.811C60.5947 122.602 59.207 124.146 57.4707 124.748ZM59.3848 129.779H67.4785V129.055H60.2461V126.102H59.3848V129.779ZM78.7578 118.814H70.6914V119.539H77.8965V119.867C77.8965 120.988 77.8965 122.273 77.5137 124.01H69.2695V124.748H74.3281V130.08H75.1758V124.748H80.2617V124.01H78.3955C78.751 122.267 78.751 121.009 78.7578 119.867V118.814ZM85.3203 118.91C83.4268 118.91 82.0938 120.038 82.0938 121.699C82.0938 123.36 83.4268 124.488 85.3203 124.488C87.2139 124.488 88.54 123.36 88.5469 121.699C88.54 120.038 87.2139 118.91 85.3203 118.91ZM81.4375 126.594L81.5742 127.359C83.7686 127.359 86.7695 127.353 89.5586 126.84L89.4902 126.184C86.79 126.594 83.6934 126.607 81.4375 126.594ZM82.9414 121.699C82.9346 120.517 83.9326 119.676 85.3203 119.676C86.7012 119.676 87.6992 120.517 87.6992 121.699C87.6992 122.882 86.7012 123.729 85.3203 123.723C83.9326 123.729 82.9346 122.882 82.9414 121.699ZM90.3242 130.08H91.1855V118.008H90.3242V130.08ZM106.43 119.279H98.0352V120.004H105.568V120.496C105.562 121.945 105.562 123.613 105.117 125.883L105.992 125.992C106.416 123.613 106.416 121.979 106.43 120.496V119.279ZM96.8457 128.275H107.838V127.537H102.123V123.176H101.275V127.537H96.8457V128.275ZM115.166 119.088H109.588V124.611H115.166V119.088ZM110.422 123.9V119.812H114.332V123.9H110.422ZM111.16 129.615H119.254V128.877H112.021V125.855H111.16V129.615ZM117.996 126.717H118.857V118.008H117.996V126.717ZM135.414 123.176H124.422V123.9H135.414V123.176ZM125.775 125.787H133.131V127.1H125.816V129.902H134.348V129.191H126.65V127.783H133.965V125.09H125.775V125.787ZM125.926 122.096H134.102V121.371H126.787V119.184H133.965V118.473H125.926V122.096ZM139.734 118.965C137.971 118.972 136.74 120.599 136.754 123.135C136.74 125.678 137.971 127.305 139.734 127.305C141.423 127.305 142.619 125.794 142.708 123.408H145.613V130.08H146.461V118.008H145.613V122.697H142.701C142.564 120.414 141.382 118.972 139.734 118.965ZM137.574 123.135C137.567 121.118 138.456 119.737 139.734 119.73C141.006 119.737 141.901 121.118 141.895 123.135C141.901 125.151 141.006 126.539 139.734 126.539C138.456 126.539 137.567 125.151 137.574 123.135ZM154.582 119.703V119.512H158.533V118.801H149.674V119.512H153.639V119.703C153.632 121.439 151.226 122.82 149.318 123.121L149.66 123.805C151.41 123.483 153.386 122.451 154.11 120.934C154.835 122.451 156.811 123.483 158.588 123.805L158.916 123.121C156.988 122.82 154.575 121.439 154.582 119.703ZM148.621 125.678H153.68V130.053H154.514V125.678H159.613V124.939H148.621V125.678ZM170.633 118.008H169.785V130.066H170.633V118.008ZM160.912 127.018L161.391 127.729C165.349 125.814 167.071 122.738 167.078 119.334H161.445V120.045H166.21C165.991 122.978 164.221 125.445 160.912 127.018ZM174.078 119.102H173.217V122.424H174.078V119.102ZM185.836 118.008H185.002V130.066H185.836V118.008ZM175.705 123.203C175.712 125.726 176.724 127.339 178.275 127.332C179.772 127.339 180.771 125.855 180.866 123.518H182.609V129.438H183.443V118.281H182.609V122.779H180.859C180.743 120.503 179.752 119.074 178.275 119.074C176.724 119.074 175.712 120.681 175.705 123.203ZM176.525 123.203C176.519 121.207 177.216 119.874 178.275 119.881C179.355 119.874 180.053 121.207 180.053 123.203C180.053 125.192 179.355 126.532 178.275 126.525C177.216 126.532 176.519 125.192 176.525 123.203ZM195.023 120.523V120.223H197.84V119.498H195.051V117.939H194.176V119.498H191.359V120.223H194.176V120.523C194.176 122.212 192.788 123.641 191.045 124.188L191.482 124.871C192.918 124.379 194.107 123.354 194.613 122.007C195.133 123.23 196.268 124.181 197.648 124.639L198.086 123.955C196.35 123.415 195.03 122.075 195.023 120.523ZM192.877 129.889H200.41V125.746H192.877V129.889ZM193.711 129.178V126.443H199.549V129.178H193.711ZM199.549 125.172H200.41V121.877H202.27V121.139H200.41V118.008H199.549V125.172ZM206.33 118.965C204.566 118.972 203.336 120.599 203.35 123.135C203.336 125.678 204.566 127.305 206.33 127.305C207.499 127.305 208.429 126.58 208.921 125.35H212.209V130.08H213.057V118.008H212.209V120.77H208.859C208.347 119.635 207.444 118.972 206.33 118.965ZM204.17 123.135C204.163 121.118 205.052 119.737 206.33 119.73C207.602 119.737 208.497 121.118 208.49 123.135C208.497 125.151 207.602 126.539 206.33 126.539C205.052 126.539 204.163 125.151 204.17 123.135ZM209.112 121.508H212.209V124.611H209.153C209.256 124.167 209.311 123.668 209.311 123.135C209.311 122.54 209.242 121.993 209.112 121.508ZM224.5 118.008H223.639V130.066H224.5V123.791H226.578V123.053H224.5V118.008ZM215.148 120.715H222.354V119.99H219.223V118.131H218.361V119.99H215.148V120.715ZM215.9 124.557C215.894 126.177 217.117 127.291 218.812 127.291C220.508 127.291 221.725 126.177 221.725 124.557C221.725 122.943 220.508 121.822 218.812 121.822C217.117 121.822 215.894 122.943 215.9 124.557ZM216.721 124.557C216.714 123.408 217.603 122.554 218.812 122.547C220.016 122.554 220.897 123.408 220.904 124.557C220.897 125.705 220.016 126.553 218.812 126.539C217.603 126.553 216.714 125.705 216.721 124.557ZM231.35 126.225V125.295H230.516V126.225C230.509 127.38 229.518 128.713 228.014 129.26L228.438 129.93C229.606 129.472 230.475 128.597 230.905 127.612C231.261 128.645 232.02 129.561 233.195 130.025C234.33 129.533 235.082 128.556 235.444 127.564C235.854 128.597 236.729 129.479 237.939 129.93L238.404 129.26C236.853 128.733 235.868 127.462 235.875 126.225V125.295H235.041V126.225C235.027 127.161 234.371 128.453 233.175 129.164C231.972 128.521 231.336 127.332 231.35 126.225ZM227.535 121.521C227.535 123.183 228.827 124.331 230.625 124.324C231.685 124.331 232.58 123.914 233.127 123.217H236.395V124.939H237.256V118.008H236.395V119.758H233.086C232.532 119.088 231.657 118.691 230.625 118.691C228.827 118.691 227.535 119.854 227.535 121.521ZM228.369 121.521C228.355 120.325 229.319 119.43 230.625 119.43C231.903 119.43 232.867 120.325 232.867 121.521C232.867 122.711 231.903 123.593 230.625 123.6C229.319 123.593 228.355 122.711 228.369 121.521ZM233.51 120.482H236.395V122.492H233.53C233.64 122.198 233.701 121.87 233.701 121.521C233.701 121.146 233.633 120.797 233.51 120.482ZM244.898 118.227C242.246 118.227 240.674 118.972 240.674 120.318C240.674 121.686 242.246 122.438 244.898 122.438C247.558 122.438 249.123 121.686 249.123 120.318C249.123 118.972 247.558 118.227 244.898 118.227ZM239.416 124.051H250.408V123.34H239.416V124.051ZM240.77 125.883H248.125V127.113H240.811V129.916H249.342V129.205H241.645V127.783H248.959V125.199H240.77V125.883ZM241.562 120.318C241.562 119.437 242.834 118.896 244.898 118.896C246.977 118.896 248.248 119.437 248.248 120.318C248.248 121.234 246.977 121.761 244.898 121.768C242.834 121.761 241.562 121.234 241.562 120.318ZM262.85 118.295H262.043V129.451H262.85V123.736H264.49V130.066H265.324V118.008H264.49V123.012H262.85V118.295ZM255.316 126.84H255.768C256.239 126.847 257.066 126.84 258.133 126.594L258.037 125.842C257.285 126.04 256.595 126.088 256.123 126.095V120.277H257.941V119.553H255.316V126.84ZM258.488 126.84H258.967C259.65 126.847 260.525 126.833 261.564 126.539L261.455 125.787C260.648 126.04 259.883 126.088 259.281 126.102V120.277H261.168V119.553H258.488V126.84ZM108.891 142.008H108.029V149.062H108.891V145.713H110.75V144.961H108.891V142.008ZM100.059 148.256H105.609V142.664H104.762V144.633H100.906V142.664H100.059V148.256ZM100.906 147.531V145.344H104.762V147.531H100.906ZM101.398 153.889H109.219V153.178H102.26V150.471H109V149.773H101.398V153.889ZM122.59 148.42H111.598V149.131H122.59V148.42ZM112.855 144.811C112.855 146.301 114.489 147.189 117.08 147.189C119.671 147.189 121.305 146.301 121.305 144.811C121.305 143.313 119.671 142.432 117.08 142.432C114.489 142.432 112.855 143.313 112.855 144.811ZM113.047 153.779H121.373V153.055H113.922V150.279H113.047V153.779ZM113.744 144.811C113.73 143.799 115.057 143.149 117.08 143.143C119.11 143.149 120.43 143.799 120.43 144.811C120.43 145.836 119.11 146.472 117.08 146.465C115.057 146.472 113.73 145.836 113.744 144.811ZM131.354 144.537V144.291H134.225V143.566H131.367V141.98H130.506V143.566H127.621V144.291H130.506V144.537C130.499 146.273 129.091 147.777 127.361 148.352L127.799 149.035C129.241 148.529 130.438 147.442 130.95 146.041C131.49 147.312 132.707 148.283 134.129 148.721L134.553 148.037C132.803 147.518 131.347 146.15 131.354 144.537ZM128.934 151.865C128.934 153.239 130.451 154.025 132.98 154.025C135.496 154.025 137.021 153.239 137.027 151.865C137.021 150.498 135.496 149.705 132.98 149.719C130.451 149.705 128.934 150.498 128.934 151.865ZM129.795 151.865C129.802 150.977 131.019 150.416 132.98 150.416C134.942 150.416 136.173 150.977 136.18 151.865C136.173 152.774 134.942 153.328 132.98 153.328C131.019 153.328 129.802 152.774 129.795 151.865ZM136.125 149.445H136.986V142.008H136.125V149.445ZM143.18 144.893V144.441H145.996V143.717H143.207V142.076H142.332V143.717H139.516V144.441H142.332V144.893C142.332 146.649 140.972 148.133 139.229 148.707L139.68 149.404C141.088 148.885 142.257 147.832 142.776 146.451C143.289 147.716 144.403 148.7 145.777 149.172L146.229 148.475C144.506 147.921 143.187 146.506 143.18 144.893ZM141.102 153.779H149.154V153.055H141.949V150.156H141.102V153.779ZM147.705 150.936H148.566V146.547H150.426V145.809H148.566V141.994H147.705V150.936ZM159.9 143.443H155.17V151.004H155.922C157.938 151.004 159.094 150.949 160.529 150.662L160.42 149.924C159.066 150.204 157.925 150.259 155.99 150.252V147.354H159.736V146.629H155.99V144.154H159.9V143.443ZM161.404 153.438H162.252V147.627H164.111V154.066H164.945V142.008H164.111V146.902H162.252V142.281H161.404V153.438ZM176.225 143.348H167.967V144.072H175.377V144.482C175.377 145.918 175.377 147.743 174.871 150.252L175.76 150.361C176.218 147.695 176.218 145.952 176.225 144.482V143.348ZM166.75 152.234H177.742V151.496H166.75V152.234ZM188.762 142.008H187.9V148.461H188.762V142.008ZM179.164 145.371C179.157 146.998 180.463 148.112 182.281 148.105C184.1 148.112 185.392 146.998 185.398 145.371C185.392 143.724 184.1 142.609 182.281 142.609C180.463 142.609 179.157 143.724 179.164 145.371ZM179.998 145.371C179.998 144.195 180.955 143.341 182.281 143.348C183.601 143.341 184.558 144.195 184.564 145.371C184.558 146.526 183.601 147.381 182.281 147.381C180.955 147.381 179.998 146.526 179.998 145.371ZM181.037 153.889H188.762V149.104H187.914V150.689H181.885V149.104H181.037V153.889ZM181.885 153.178V151.4H187.914V153.178H181.885ZM200.82 142.008H199.973V154.066H200.82V142.008ZM191.77 150.908H192.727C194.682 150.908 196.568 150.751 198.715 150.307L198.592 149.555C196.521 149.999 194.613 150.143 192.727 150.143H192.617V143.197H191.77V150.908ZM212.332 142.008H211.471V154.08H212.332V147.6H214.41V146.875H212.332V142.008ZM203.596 151.031H204.525C206.87 151.024 208.429 150.956 210.336 150.607L210.213 149.855C208.381 150.197 206.829 150.286 204.525 150.279H204.457V143.922H209.215V143.197H203.596V151.031ZM216.338 153.068C216.734 153.075 217.062 152.74 217.062 152.344C217.062 151.94 216.734 151.612 216.338 151.605C215.935 151.612 215.6 151.94 215.6 152.344C215.6 152.74 215.935 153.075 216.338 153.068ZM77.8486 166.008H77.001V170.998H75.0459V166.295H74.2256V177.424H75.0459V171.75H77.001V178.066H77.8486V166.008ZM68.2236 174.867H68.9619C70.3086 174.874 71.6895 174.792 73.3916 174.471L73.2822 173.691C71.7031 174.013 70.3496 174.102 69.085 174.102V167.512H68.2236V174.867ZM88.9639 166.008H88.1025V178.066H88.9639V171.736H91.001V170.998H88.9639V166.008ZM79.8174 175.018L80.2959 175.701C84.1992 173.78 85.8604 170.67 85.874 167.32H80.3506V168.045H84.9922C84.7803 170.957 83.0303 173.425 79.8174 175.018ZM104.44 166.008H103.579V178.066H104.44V171.736H106.478V170.998H104.44V166.008ZM95.2939 175.018L95.7725 175.701C99.6758 173.78 101.337 170.67 101.351 167.32H95.8271V168.045H100.469C100.257 170.957 98.5068 173.425 95.2939 175.018ZM111.222 168.332V167.648H114.024V166.924H107.544V167.648H110.388V168.346C110.374 170.15 109 171.695 107.257 172.297L107.694 172.994C109.137 172.461 110.312 171.354 110.818 169.911C111.331 171.183 112.432 172.181 113.819 172.652L114.243 171.982C112.514 171.395 111.229 169.979 111.222 168.332ZM108.856 175.838C108.85 177.232 110.34 178.025 112.808 178.025C115.269 178.025 116.745 177.232 116.745 175.838C116.745 174.471 115.269 173.685 112.808 173.678C110.34 173.685 108.85 174.471 108.856 175.838ZM109.704 175.838C109.697 174.942 110.9 174.389 112.808 174.389C114.715 174.389 115.911 174.942 115.911 175.838C115.911 176.761 114.715 177.321 112.808 177.328C110.9 177.321 109.697 176.761 109.704 175.838ZM115.788 173.322H116.649V169.904H118.509V169.18H116.649V166.008H115.788V173.322ZM132.126 166.008H131.265V172.229H132.126V169.521H133.985V168.797H132.126V166.008ZM123.294 171.695H128.804V166.814H123.294V171.695ZM124.087 177.738H124.634C125.304 177.738 126.5 177.69 127.724 177.287L127.573 176.59C126.637 176.904 125.577 176.993 124.921 177.007V173.35H124.087V177.738ZM124.128 170.984V167.525H127.97V170.984H124.128ZM127.286 174.156H133.397V173.473H130.786V172.338H129.938V173.473H127.286V174.156ZM128.134 176.33C128.127 177.376 129.036 178.032 130.349 178.039C131.641 178.032 132.563 177.376 132.577 176.33C132.563 175.284 131.641 174.642 130.349 174.635C129.036 174.642 128.127 175.284 128.134 176.33ZM128.899 176.33C128.906 175.701 129.501 175.277 130.349 175.264C131.189 175.277 131.784 175.701 131.784 176.33C131.784 176.966 131.189 177.403 130.349 177.396C129.501 177.403 128.906 176.966 128.899 176.33ZM144.731 166.008H143.87V178.08H144.731V166.008ZM135.312 171.135C135.312 173.678 136.576 175.305 138.36 175.305C140.131 175.305 141.409 173.678 141.409 171.135C141.409 168.599 140.131 166.972 138.36 166.965C136.576 166.972 135.312 168.599 135.312 171.135ZM136.146 171.135C136.146 169.118 137.055 167.737 138.36 167.73C139.666 167.737 140.568 169.118 140.562 171.135C140.568 173.151 139.666 174.539 138.36 174.539C137.055 174.539 136.146 173.151 136.146 171.135ZM159.702 166.008H158.841V173.062H159.702V169.713H161.562V168.961H159.702V166.008ZM150.87 172.256H156.421V166.664H155.573V168.633H151.718V166.664H150.87V172.256ZM151.718 171.531V169.344H155.573V171.531H151.718ZM152.21 177.889H160.03V177.178H153.071V174.471H159.812V173.773H152.21V177.889ZM173.401 172.42H162.409V173.131H173.401V172.42ZM163.667 168.811C163.667 170.301 165.301 171.189 167.892 171.189C170.482 171.189 172.116 170.301 172.116 168.811C172.116 167.313 170.482 166.432 167.892 166.432C165.301 166.432 163.667 167.313 163.667 168.811ZM163.858 177.779H172.185V177.055H164.733V174.279H163.858V177.779ZM164.556 168.811C164.542 167.799 165.868 167.149 167.892 167.143C169.922 167.149 171.241 167.799 171.241 168.811C171.241 169.836 169.922 170.472 167.892 170.465C165.868 170.472 164.542 169.836 164.556 168.811ZM182.165 168.537V168.291H185.036V167.566H182.179V165.98H181.317V167.566H178.433V168.291H181.317V168.537C181.311 170.273 179.902 171.777 178.173 172.352L178.61 173.035C180.053 172.529 181.249 171.442 181.762 170.041C182.302 171.312 183.519 172.283 184.94 172.721L185.364 172.037C183.614 171.518 182.158 170.15 182.165 168.537ZM179.745 175.865C179.745 177.239 181.263 178.025 183.792 178.025C186.308 178.025 187.832 177.239 187.839 175.865C187.832 174.498 186.308 173.705 183.792 173.719C181.263 173.705 179.745 174.498 179.745 175.865ZM180.606 175.865C180.613 174.977 181.83 174.416 183.792 174.416C185.754 174.416 186.984 174.977 186.991 175.865C186.984 176.774 185.754 177.328 183.792 177.328C181.83 177.328 180.613 176.774 180.606 175.865ZM186.937 173.445H187.798V166.008H186.937V173.445ZM193.991 168.893V168.441H196.808V167.717H194.019V166.076H193.144V167.717H190.327V168.441H193.144V168.893C193.144 170.649 191.783 172.133 190.04 172.707L190.491 173.404C191.899 172.885 193.068 171.832 193.588 170.451C194.101 171.716 195.215 172.7 196.589 173.172L197.04 172.475C195.317 171.921 193.998 170.506 193.991 168.893ZM191.913 177.779H199.966V177.055H192.761V174.156H191.913V177.779ZM198.517 174.936H199.378V170.547H201.237V169.809H199.378V165.994H198.517V174.936ZM211.888 167.293H206.392V168.018H211.033C210.985 168.811 210.842 169.583 210.596 170.314L205.79 170.643L205.954 171.436L210.315 171.019C209.543 172.734 208.101 174.211 205.763 175.332L206.241 176.029C210.548 173.938 211.881 170.704 211.888 167.293ZM214.526 178.066H215.374V166.008H214.526V178.066ZM227.433 166.008H226.558V174.293H223.687V174.977H226.558V178.08H227.433V166.008ZM217.507 172.434L217.63 173.186C218.642 173.186 219.797 173.186 221.007 173.131V177.684H221.868V173.09C223.112 173.021 224.404 172.898 225.642 172.693L225.573 172.037C222.9 172.42 219.817 172.434 217.507 172.434ZM218.45 168.975C218.45 170.403 219.681 171.312 221.485 171.312C223.276 171.312 224.521 170.403 224.521 168.975C224.521 167.58 223.276 166.644 221.485 166.637C219.681 166.644 218.45 167.58 218.45 168.975ZM219.257 168.975C219.257 168.024 220.173 167.334 221.485 167.334C222.777 167.334 223.693 168.024 223.7 168.975C223.693 169.959 222.777 170.643 221.485 170.643C220.173 170.643 219.257 169.959 219.257 168.975ZM239.368 171.873H231.958V167.895H239.245V167.17H231.11V172.598H239.368V171.873ZM229.661 176.357H240.708V175.619H229.661V176.357ZM251.495 169.768H244.14V166.445H243.292V170.492H251.495V169.768ZM241.747 172.953H252.78V172.242H241.747V172.953ZM243.237 177.766H251.563V177.027H244.085V174.266H243.237V177.766ZM105.404 192.646V191.785H108.303V191.061H101.617V191.785H104.543V192.646C104.529 194.424 103.142 195.989 101.385 196.625L101.85 197.322C103.285 196.775 104.475 195.647 104.987 194.198C105.521 195.538 106.71 196.577 108.125 197.062L108.576 196.379C106.826 195.805 105.411 194.342 105.404 192.646ZM103.395 201.779H111.488V201.055H104.256V198.033H103.395V201.779ZM110.23 198.895H111.092V190.008H110.23V198.895ZM122.672 190.008H121.811V199.059H122.672V194.82H124.531V194.082H122.672V190.008ZM113.32 192.277H120.512V191.553H117.34V190.021H116.492V191.553H113.32V192.277ZM114.031 195.244C114.024 196.591 115.18 197.452 116.916 197.459C118.625 197.452 119.78 196.591 119.787 195.244C119.78 193.884 118.625 193.022 116.916 193.016C115.18 193.022 114.024 193.884 114.031 195.244ZM114.852 195.244C114.845 194.328 115.672 193.713 116.916 193.713C118.14 193.713 118.967 194.328 118.98 195.244C118.967 196.153 118.14 196.762 116.916 196.748C115.672 196.762 114.845 196.153 114.852 195.244ZM115.207 201.779H123.26V201.055H116.055V198.32H115.207V201.779ZM133.76 191.512H129.262V199.072H130C131.969 199.072 133.104 199.031 134.512 198.73L134.416 198.02C133.069 198.286 131.976 198.354 130.082 198.361V195.463H133.158V194.766H130.082V192.223H133.76V191.512ZM133.855 195.381H135.77V201.41H136.604V190.309H135.77V194.643H133.855V195.381ZM138.189 202.066H139.037V190.008H138.189V202.066ZM150.453 194.574H143.289V191.471H150.275V190.732H142.414V195.299H150.453V194.574ZM140.842 197.732H145.914V202.025H146.748V197.732H151.875V197.008H140.842V197.732ZM162.867 190.008H162.02V202.08H162.867V190.008ZM153.652 191.895H158.355V194.615H153.666V199.127H154.664C156.694 199.127 158.54 199.031 160.83 198.676L160.748 197.938C158.485 198.3 156.653 198.389 154.664 198.389H154.555V195.34H159.217V191.156H153.652V191.895ZM174.338 190.008H173.477V202.066H174.338V195.736H176.375V194.998H174.338V190.008ZM165.191 199.018L165.67 199.701C169.573 197.78 171.234 194.67 171.248 191.32H165.725V192.045H170.366C170.154 194.957 168.404 197.425 165.191 199.018ZM184.045 192.482V190.76H183.225V192.482C183.218 193.822 182.158 195.408 180.6 196.092L181.078 196.762C182.281 196.229 183.197 195.155 183.635 193.979C184.059 195.06 184.947 195.982 186.137 196.447L186.602 195.764C185.063 195.203 184.045 193.829 184.045 192.482ZM182.773 199.906C182.773 201.253 184.291 202.025 186.793 202.025C189.268 202.025 190.799 201.253 190.799 199.906C190.799 198.566 189.268 197.787 186.793 197.787C184.291 197.787 182.773 198.566 182.773 199.906ZM183.635 199.906C183.621 199.018 184.852 198.471 186.793 198.471C188.707 198.471 189.938 199.018 189.951 199.906C189.938 200.795 188.707 201.349 186.793 201.342C184.852 201.349 183.621 200.795 183.635 199.906ZM187.285 197.104H188.105V194.082H189.91V197.486H190.73V190.008H189.91V193.357H188.105V190.24H187.285V197.104ZM198.729 191.334H193.191V192.045H197.874C197.669 194.937 196.008 197.411 192.686 199.004L193.15 199.715C196.008 198.327 197.628 196.338 198.325 194.096H201.709V196.584H198.141V197.322H201.709V202.053H202.557V189.98H201.709V193.385H198.51C198.66 192.715 198.729 192.031 198.729 191.334ZM215.777 199.729H212.934V196.352C213.966 195.825 214.588 194.971 214.588 193.891C214.588 192.038 212.783 190.828 210.213 190.814C207.663 190.828 205.852 192.038 205.852 193.891C205.852 194.984 206.494 195.853 207.547 196.372V199.729H204.73V200.467H215.777V199.729ZM206.672 193.891C206.672 192.482 208.155 191.532 210.213 191.539C212.264 191.532 213.768 192.482 213.768 193.891C213.768 195.271 212.264 196.235 210.213 196.229C208.155 196.235 206.672 195.271 206.672 193.891ZM208.395 199.729V196.693C208.941 196.844 209.55 196.926 210.213 196.926C210.89 196.926 211.519 196.844 212.072 196.687V199.729H208.395ZM218.02 201.068C218.416 201.075 218.744 200.74 218.744 200.344C218.744 199.94 218.416 199.612 218.02 199.605C217.616 199.612 217.281 199.94 217.281 200.344C217.281 200.74 217.616 201.075 218.02 201.068Z" fill="#61586A"/>
<rect x="70.1875" y="238" width="180" height="24" rx="4" fill="#EEE7F5"/>
<path d="M89.3008 245.633H84.6016V252.242H89.3008V245.633ZM85.3164 251.633V246.242H88.5742V251.633H85.3164ZM91.3633 254.914H92.1016V249.418H93.8828V248.785H92.1016V244.578H91.3633V254.914ZM99.2148 244.812C96.9824 244.818 95.5938 245.533 95.5938 246.758C95.5938 247.971 96.9824 248.674 99.2148 248.68C101.459 248.674 102.836 247.971 102.836 246.758C102.836 245.533 101.459 244.818 99.2148 244.812ZM94.5156 250.285H103.938V249.664H94.5156V250.285ZM95.6875 254.762H102.766V251.41H95.6875V254.762ZM96.3555 246.758C96.3438 245.932 97.4746 245.422 99.2148 245.422C100.955 245.422 102.086 245.932 102.086 246.758C102.086 247.566 100.955 248.07 99.2148 248.082C97.4746 248.07 96.3438 247.566 96.3555 246.758ZM96.4141 254.152V252.008H102.051V254.152H96.4141ZM108.273 245.352C106.65 245.352 105.508 246.318 105.508 247.742C105.508 249.166 106.65 250.133 108.273 250.133C109.896 250.133 111.033 249.166 111.039 247.742C111.033 246.318 109.896 245.352 108.273 245.352ZM104.945 251.938L105.062 252.594C106.943 252.594 109.516 252.588 111.906 252.148L111.848 251.586C109.533 251.938 106.879 251.949 104.945 251.938ZM106.234 247.742C106.229 246.729 107.084 246.008 108.273 246.008C109.457 246.008 110.312 246.729 110.312 247.742C110.312 248.756 109.457 249.482 108.273 249.477C107.084 249.482 106.229 248.756 106.234 247.742ZM112.562 254.926H113.301V244.578H112.562V254.926ZM127.574 250.133H123.238V248.967C125.236 248.885 126.473 248.146 126.473 246.934C126.473 245.662 125.072 244.9 122.852 244.895C120.631 244.9 119.23 245.662 119.23 246.934C119.23 248.152 120.484 248.896 122.5 248.967V250.133H118.152V250.766H127.574V250.133ZM119.395 254.668H126.531V254.047H120.145V251.668H119.395V254.668ZM119.992 246.934C119.98 246.072 121.117 245.51 122.852 245.516C124.592 245.51 125.723 246.072 125.723 246.934C125.723 247.824 124.592 248.363 122.852 248.363C121.117 248.363 119.98 247.824 119.992 246.934ZM136.844 249.488H130.504V246.066H136.738V245.445H129.766V250.098H132.859V252.934H128.523V253.566H137.992V252.934H133.598V250.098H136.844V249.488Z" fill="#7A37BE"/>
<path d="M146.637 254.117C148.553 254.123 149.854 252.887 149.848 251.164C149.854 249.564 148.717 248.422 147.188 248.422C146.25 248.422 145.412 248.861 145.02 249.617H144.938C144.949 247.947 145.553 246.91 146.707 246.91C147.393 246.91 147.879 247.279 148.02 247.871H149.754C149.584 246.477 148.412 245.398 146.707 245.398C144.586 245.398 143.221 247.092 143.215 249.957C143.209 253.062 144.885 254.111 146.637 254.117ZM145.113 251.211C145.125 250.385 145.781 249.705 146.648 249.699C147.51 249.705 148.137 250.361 148.137 251.211C148.137 252.066 147.498 252.729 146.625 252.723C145.758 252.729 145.125 252.043 145.113 251.211ZM154.359 254.117C156.48 254.117 157.77 252.547 157.77 249.758C157.77 246.986 156.475 245.398 154.359 245.398C152.244 245.398 150.949 246.986 150.949 249.758C150.949 252.535 152.232 254.117 154.359 254.117ZM152.754 249.758C152.754 247.818 153.381 246.846 154.359 246.84C155.338 246.846 155.971 247.818 155.965 249.758C155.971 251.715 155.344 252.664 154.359 252.664C153.375 252.664 152.742 251.715 152.754 249.758ZM159.668 254.105C160.189 254.105 160.641 253.666 160.641 253.121C160.641 252.582 160.189 252.143 159.668 252.148C159.117 252.143 158.672 252.582 158.684 253.121C158.672 253.666 159.117 254.105 159.668 254.105ZM162.023 254H168.094V252.547H164.473V252.5L165.762 251.246C167.508 249.664 167.977 248.873 167.977 247.906C167.977 246.436 166.77 245.398 164.953 245.398C163.166 245.398 161.936 246.459 161.941 248.117H163.617C163.611 247.303 164.133 246.799 164.93 246.805C165.709 246.799 166.277 247.268 166.277 248.023C166.277 248.697 165.85 249.166 165.059 249.922L162.012 252.723L162.023 254ZM171.316 249.512C172.441 249.518 173.35 248.609 173.355 247.484C173.35 246.365 172.441 245.457 171.316 245.457C170.197 245.457 169.295 246.365 169.289 247.484C169.295 248.609 170.197 249.518 171.316 249.512ZM170.449 247.484C170.455 247.004 170.842 246.623 171.316 246.617C171.803 246.623 172.189 247.004 172.184 247.484C172.189 247.965 171.803 248.357 171.316 248.352C170.842 248.357 170.455 247.965 170.449 247.484ZM174.305 249.758C174.305 252.518 175.986 254.117 178.254 254.117C180.41 254.117 181.729 252.688 181.922 251.117L180.141 251.105C179.971 252.025 179.244 252.553 178.277 252.559C176.982 252.553 176.098 251.586 176.098 249.758C176.098 247.971 176.971 246.963 178.289 246.957C179.279 246.963 180 247.531 180.141 248.469H181.922C181.688 246.518 180.211 245.398 178.254 245.398C176.016 245.398 174.305 246.986 174.305 249.758Z" fill="#7A37BE"/>
<rect x="189.188" y="247.5" width="47" height="5" rx="2.5" fill="white" stroke="#BB9ED8"/>
<circle cx="191.688" cy="250" r="4.5" fill="#7A37BE" stroke="#BB9ED8"/>
<rect x="193.688" y="248" width="31.8438" height="4" fill="#7A37BE"/>
<path d="M69.7412 289.977V288.623H68.9072V289.922C68.9004 291.85 67.5742 293.463 65.8311 294.133L66.2959 294.83C67.7041 294.263 68.8525 293.101 69.3516 291.604C69.8711 292.93 70.9922 293.989 72.3389 294.502L72.8174 293.805C71.1152 293.21 69.7412 291.665 69.7412 289.977ZM67.4307 297.879C67.4238 299.253 68.9141 300.025 71.3818 300.025C73.8428 300.025 75.3193 299.253 75.3193 297.879C75.3193 296.519 73.8428 295.732 71.3818 295.732C68.9141 295.732 67.4238 296.519 67.4307 297.879ZM68.2783 297.879C68.2715 296.997 69.4746 296.437 71.3818 296.443C73.2891 296.437 74.4854 296.997 74.4854 297.879C74.4854 298.781 73.2891 299.328 71.3818 299.342C69.4746 299.328 68.2715 298.781 68.2783 297.879ZM74.3623 295.404H75.2236V291.986H77.083V291.248H75.2236V288.008H74.3623V295.404ZM87.3232 288.008H86.4619V294.871H87.3232V291.768H89.1826V291.043H87.3232V288.008ZM78.5322 294.078H79.4482C81.9297 294.071 83.3857 294.003 85.1494 293.654L85.0264 292.93C83.3311 293.265 81.8955 293.354 79.4482 293.34H79.3936V289.553H83.8643V288.842H78.5322V294.078ZM79.79 299.889H87.3232V295.541H79.79V299.889ZM80.624 299.164V296.252H86.4619V299.164H80.624ZM103.743 289.43H99.3271V287.912H98.4658V289.43H93.9951V290.154H103.743V289.43ZM93.4072 296.553H98.4658V300.08H99.3271V296.553H104.454V295.814H93.4072V296.553ZM95.0342 292.916C95.0205 294.181 96.4697 294.898 98.8896 294.898C101.31 294.898 102.759 294.181 102.759 292.916C102.759 291.638 101.31 290.92 98.8896 290.92C96.4697 290.92 95.0205 291.638 95.0342 292.916ZM95.9229 292.916C95.916 292.096 97.0371 291.597 98.8896 291.59C100.742 291.597 101.863 292.096 101.87 292.916C101.863 293.729 100.742 294.229 98.8896 294.215C97.0371 294.229 95.916 293.729 95.9229 292.916ZM113.163 290.537V290.291H116.034V289.566H113.177V287.98H112.315V289.566H109.431V290.291H112.315V290.537C112.309 292.273 110.9 293.777 109.171 294.352L109.608 295.035C111.051 294.529 112.247 293.442 112.76 292.041C113.3 293.312 114.517 294.283 115.938 294.721L116.362 294.037C114.612 293.518 113.156 292.15 113.163 290.537ZM110.743 297.865C110.743 299.239 112.261 300.025 114.79 300.025C117.306 300.025 118.83 299.239 118.837 297.865C118.83 296.498 117.306 295.705 114.79 295.719C112.261 295.705 110.743 296.498 110.743 297.865ZM111.604 297.865C111.611 296.977 112.828 296.416 114.79 296.416C116.752 296.416 117.982 296.977 117.989 297.865C117.982 298.774 116.752 299.328 114.79 299.328C112.828 299.328 111.611 298.774 111.604 297.865ZM117.935 295.445H118.796V288.008H117.935V295.445ZM124.989 290.893V290.441H127.806V289.717H125.017V288.076H124.142V289.717H121.325V290.441H124.142V290.893C124.142 292.649 122.781 294.133 121.038 294.707L121.489 295.404C122.897 294.885 124.066 293.832 124.586 292.451C125.099 293.716 126.213 294.7 127.587 295.172L128.038 294.475C126.315 293.921 124.996 292.506 124.989 290.893ZM122.911 299.779H130.964V299.055H123.759V296.156H122.911V299.779ZM129.515 296.936H130.376V292.547H132.235V291.809H130.376V287.994H129.515V296.936ZM142.886 289.293H137.39V290.018H142.031C141.983 290.811 141.84 291.583 141.594 292.314L136.788 292.643L136.952 293.436L141.313 293.019C140.541 294.734 139.099 296.211 136.761 297.332L137.239 298.029C141.546 295.938 142.879 292.704 142.886 289.293ZM145.524 300.066H146.372V288.008H145.524V300.066ZM158.431 288.008H157.556V296.293H154.685V296.977H157.556V300.08H158.431V288.008ZM148.505 294.434L148.628 295.186C149.64 295.186 150.795 295.186 152.005 295.131V299.684H152.866V295.09C154.11 295.021 155.402 294.898 156.64 294.693L156.571 294.037C153.898 294.42 150.815 294.434 148.505 294.434ZM149.448 290.975C149.448 292.403 150.679 293.312 152.483 293.312C154.274 293.312 155.519 292.403 155.519 290.975C155.519 289.58 154.274 288.644 152.483 288.637C150.679 288.644 149.448 289.58 149.448 290.975ZM150.255 290.975C150.255 290.024 151.171 289.334 152.483 289.334C153.775 289.334 154.691 290.024 154.698 290.975C154.691 291.959 153.775 292.643 152.483 292.643C151.171 292.643 150.255 291.959 150.255 290.975ZM170.366 293.873H162.956V289.895H170.243V289.17H162.108V294.598H170.366V293.873ZM160.659 298.357H171.706V297.619H160.659V298.357ZM183.778 293.668H172.745V294.365H183.778V293.668ZM174.099 296.129H181.522V297.291H174.126V299.889H182.794V299.232H174.974V297.934H182.384V295.459H174.099V296.129ZM174.153 289.061H181.481V290.182H174.194V292.643H182.548V291.986H175.042V290.797H182.343V288.418H174.153V289.061ZM197.628 288.008H196.767V294.229H197.628V291.521H199.487V290.797H197.628V288.008ZM188.796 293.695H194.306V288.814H188.796V293.695ZM189.589 299.738H190.136C190.806 299.738 192.002 299.69 193.226 299.287L193.075 298.59C192.139 298.904 191.079 298.993 190.423 299.007V295.35H189.589V299.738ZM189.63 292.984V289.525H193.472V292.984H189.63ZM192.788 296.156H198.899V295.473H196.288V294.338H195.44V295.473H192.788V296.156ZM193.636 298.33C193.629 299.376 194.538 300.032 195.851 300.039C197.143 300.032 198.065 299.376 198.079 298.33C198.065 297.284 197.143 296.642 195.851 296.635C194.538 296.642 193.629 297.284 193.636 298.33ZM194.401 298.33C194.408 297.701 195.003 297.277 195.851 297.264C196.691 297.277 197.286 297.701 197.286 298.33C197.286 298.966 196.691 299.403 195.851 299.396C195.003 299.403 194.408 298.966 194.401 298.33ZM210.233 288.008H209.372V300.08H210.233V288.008ZM200.813 293.135C200.813 295.678 202.078 297.305 203.862 297.305C205.633 297.305 206.911 295.678 206.911 293.135C206.911 290.599 205.633 288.972 203.862 288.965C202.078 288.972 200.813 290.599 200.813 293.135ZM201.647 293.135C201.647 291.118 202.557 289.737 203.862 289.73C205.168 289.737 206.07 291.118 206.063 293.135C206.07 295.151 205.168 296.539 203.862 296.539C202.557 296.539 201.647 295.151 201.647 293.135ZM225.204 288.008H224.343V295.062H225.204V291.713H227.063V290.961H225.204V288.008ZM216.372 294.256H221.923V288.664H221.075V290.633H217.22V288.664H216.372V294.256ZM217.22 293.531V291.344H221.075V293.531H217.22ZM217.712 299.889H225.532V299.178H218.573V296.471H225.313V295.773H217.712V299.889ZM237.837 288.008H236.989V292.916H233.954V293.654H236.989V300.066H237.837V288.008ZM227.966 297.018L228.458 297.688C232.423 295.732 233.961 292.677 233.968 289.334H228.472V290.045H233.1C232.908 292.916 231.315 295.391 227.966 297.018ZM251.331 292.902H249.294V288.008H248.433V300.066H249.294V293.641H251.331V292.902ZM240.544 296.963H241.474C243.333 296.963 245.172 296.833 247.271 296.416L247.161 295.664C245.117 296.095 243.292 296.231 241.474 296.225H241.392V289.197H240.544V296.963ZM253.874 298.166H252.835L252.069 301.707H252.876L253.874 298.166ZM74.8066 312.008H73.9453V324.08H74.8066V312.008ZM65.7148 321.045H66.6719C69.0508 321.038 70.6641 320.956 72.6055 320.607L72.4961 319.869C70.6094 320.218 69.0166 320.293 66.6719 320.293H66.5762V313.922H71.4023V313.184H65.7148V321.045ZM80.2207 312.965C78.457 312.972 77.2266 314.599 77.2402 317.135C77.2266 319.678 78.457 321.305 80.2207 321.305C81.9092 321.305 83.1055 319.794 83.1943 317.408H86.0996V324.08H86.9473V312.008H86.0996V316.697H83.1875C83.0508 314.414 81.8682 312.972 80.2207 312.965ZM78.0605 317.135C78.0537 315.118 78.9424 313.737 80.2207 313.73C81.4922 313.737 82.3877 315.118 82.3809 317.135C82.3877 319.151 81.4922 320.539 80.2207 320.539C78.9424 320.539 78.0537 319.151 78.0605 317.135ZM93.0176 313.977V312.623H92.1836V313.922C92.1768 315.85 90.8506 317.463 89.1074 318.133L89.5723 318.83C90.9805 318.263 92.1289 317.101 92.6279 315.604C93.1475 316.93 94.2686 317.989 95.6152 318.502L96.0938 317.805C94.3916 317.21 93.0176 315.665 93.0176 313.977ZM90.707 321.879C90.7002 323.253 92.1904 324.025 94.6582 324.025C97.1191 324.025 98.5957 323.253 98.5957 321.879C98.5957 320.519 97.1191 319.732 94.6582 319.732C92.1904 319.732 90.7002 320.519 90.707 321.879ZM91.5547 321.879C91.5479 320.997 92.751 320.437 94.6582 320.443C96.5654 320.437 97.7617 320.997 97.7617 321.879C97.7617 322.781 96.5654 323.328 94.6582 323.342C92.751 323.328 91.5479 322.781 91.5547 321.879ZM97.6387 319.404H98.5V315.986H100.359V315.248H98.5V312.008H97.6387V319.404ZM110.6 312.008H109.738V318.871H110.6V315.768H112.459V315.043H110.6V312.008ZM101.809 318.078H102.725C105.206 318.071 106.662 318.003 108.426 317.654L108.303 316.93C106.607 317.265 105.172 317.354 102.725 317.34H102.67V313.553H107.141V312.842H101.809V318.078ZM103.066 323.889H110.6V319.541H103.066V323.889ZM103.9 323.164V320.252H109.738V323.164H103.9ZM124.354 321.701H119.199V318.68H118.352V321.701H113.307V322.439H124.354V321.701ZM113.799 318.023L114.195 318.748C115.918 318.365 118.003 317.094 118.775 315.275C119.541 317.094 121.64 318.365 123.369 318.748L123.766 318.023C121.858 317.682 119.213 315.925 119.213 313.812V312.855H118.324V313.812C118.317 315.945 115.699 317.682 113.799 318.023ZM135.701 312.008H134.867V324.066H135.701V312.008ZM125.57 317.203C125.577 319.726 126.589 321.339 128.141 321.332C129.638 321.339 130.636 319.855 130.731 317.518H132.475V323.438H133.309V312.281H132.475V316.779H130.725C130.608 314.503 129.617 313.074 128.141 313.074C126.589 313.074 125.577 314.681 125.57 317.203ZM126.391 317.203C126.384 315.207 127.081 313.874 128.141 313.881C129.221 313.874 129.918 315.207 129.918 317.203C129.918 319.192 129.221 320.532 128.141 320.525C127.081 320.532 126.384 319.192 126.391 317.203ZM150.275 312.008H149.414V318.83H150.275V315.59H152.148V314.852H150.275V312.008ZM141.498 317.805H142.441C144.28 317.805 146.092 317.675 148.17 317.258L148.061 316.52C146.037 316.937 144.226 317.066 142.441 317.066H142.373V312.623H141.498V317.805ZM142.715 323.889H150.275V319.527H142.715V323.889ZM143.549 323.164V320.225H149.428V323.164H143.549ZM162.881 312.008H162.02V320.771H162.881V312.008ZM153.201 318.734L153.557 319.445C157.07 318.338 159.374 316.007 159.381 312.924H153.803V313.662H158.431C158.226 315.973 156.188 317.791 153.201 318.734ZM155.102 323.779H163.223V323.055H155.963V320.074H155.102V323.779ZM173.627 313.088H169.047V318.379H169.799C171.597 318.379 172.841 318.324 174.393 318.023L174.311 317.285C172.841 317.6 171.61 317.661 169.895 317.654V313.812H173.627V313.088ZM170.031 323.328L170.414 324.012C172.116 323.677 173.962 322.699 174.68 321.257C175.391 322.699 177.236 323.677 178.959 324.012L179.342 323.328C177.387 323 175.11 321.681 175.117 319.965V319.459H174.256V319.965C174.242 321.681 171.973 323 170.031 323.328ZM175.117 318.953H175.938V315.973H177.838V319.992H178.658V312.008H177.838V315.248H175.938V312.24H175.117V318.953ZM190.115 312.541H181.98V313.252H189.254V313.293C189.261 314.113 189.261 315.146 188.967 316.588H180.559V317.299H191.605V316.588H189.835C190.108 315.18 190.108 314.12 190.115 313.293V312.541ZM181.898 319.35H189.322V320.867H181.926V323.902H190.484V323.191H182.773V321.564H190.17V318.639H181.898V319.35ZM202.557 312.008H201.695V324.08H202.557V312.008ZM193.137 317.135C193.137 319.678 194.401 321.305 196.186 321.305C197.956 321.305 199.234 319.678 199.234 317.135C199.234 314.599 197.956 312.972 196.186 312.965C194.401 312.972 193.137 314.599 193.137 317.135ZM193.971 317.135C193.971 315.118 194.88 313.737 196.186 313.73C197.491 313.737 198.394 315.118 198.387 317.135C198.394 319.151 197.491 320.539 196.186 320.539C194.88 320.539 193.971 319.151 193.971 317.135ZM211.594 315.727V315.057H214.014V314.332H211.607V312.459H210.773V314.332H208.326V315.057H210.773V315.727C210.76 317.75 209.68 319.89 208.08 320.826L208.613 321.482C209.837 320.744 210.767 319.302 211.19 317.675C211.628 319.213 212.564 320.546 213.795 321.236L214.314 320.566C212.694 319.705 211.587 317.682 211.594 315.727ZM214.943 323.438H215.764V317.709H217.609V324.066H218.443V312.008H217.609V316.957H215.764V312.281H214.943V323.438ZM225.457 312.91H220.809V318.611H221.547C223.557 318.611 224.691 318.55 226.113 318.256L226.018 317.531C224.678 317.812 223.55 317.88 221.643 317.873V316.027H225.32V315.33H221.643V313.635H225.457V312.91ZM222.367 320.689H229.6V324.066H230.434V319.965H222.367V320.689ZM226.893 319.227H227.713V315.945H229.613V319.309H230.434V312.008H229.613V315.221H227.713V312.24H226.893V319.227ZM239.525 317.312H234.207V313.895H239.471V313.17H233.359V318.037H235.93V320.566C234.692 320.607 233.482 320.621 232.402 320.621L232.539 321.373C234.856 321.366 237.837 321.312 240.523 320.908L240.455 320.266C239.279 320.402 238.028 320.484 236.791 320.539V318.037H239.525V317.312ZM241.289 324.08H242.15V312.008H241.289V324.08ZM250.49 313.088H245.021V318.625H250.49V317.518H253.512V320.826H254.373V312.008H253.512V314.209H250.49V313.088ZM245.869 317.928V313.799H249.643V317.928H245.869ZM246.648 323.779H254.66V323.055H247.51V320.047H246.648V323.779ZM250.49 316.779V314.947H253.512V316.779H250.49ZM101.111 337.238H95.6289V344.949H101.111V337.238ZM96.4629 344.238V337.949H100.264V344.238H96.4629ZM103.518 348.066H104.379V341.654H106.457V340.916H104.379V336.008H103.518V348.066ZM112.678 336.281C110.073 336.288 108.453 337.122 108.453 338.551C108.453 339.966 110.073 340.786 112.678 340.793C115.296 340.786 116.902 339.966 116.902 338.551C116.902 337.122 115.296 336.288 112.678 336.281ZM107.195 342.666H118.188V341.941H107.195V342.666ZM108.562 347.889H116.82V343.979H108.562V347.889ZM109.342 338.551C109.328 337.587 110.647 336.992 112.678 336.992C114.708 336.992 116.027 337.587 116.027 338.551C116.027 339.494 114.708 340.082 112.678 340.096C110.647 340.082 109.328 339.494 109.342 338.551ZM109.41 347.178V344.676H115.986V347.178H109.41ZM123.246 336.91C121.353 336.91 120.02 338.038 120.02 339.699C120.02 341.36 121.353 342.488 123.246 342.488C125.14 342.488 126.466 341.36 126.473 339.699C126.466 338.038 125.14 336.91 123.246 336.91ZM119.363 344.594L119.5 345.359C121.694 345.359 124.695 345.353 127.484 344.84L127.416 344.184C124.716 344.594 121.619 344.607 119.363 344.594ZM120.867 339.699C120.86 338.517 121.858 337.676 123.246 337.676C124.627 337.676 125.625 338.517 125.625 339.699C125.625 340.882 124.627 341.729 123.246 341.723C121.858 341.729 120.86 340.882 120.867 339.699ZM128.25 348.08H129.111V336.008H128.25V348.08ZM145.764 342.488H140.705V341.128C143.036 341.032 144.479 340.171 144.479 338.756C144.479 337.272 142.845 336.384 140.254 336.377C137.663 336.384 136.029 337.272 136.029 338.756C136.029 340.178 137.492 341.046 139.844 341.128V342.488H134.771V343.227H145.764V342.488ZM136.221 347.779H144.547V347.055H137.096V344.279H136.221V347.779ZM136.918 338.756C136.904 337.751 138.23 337.095 140.254 337.102C142.284 337.095 143.604 337.751 143.604 338.756C143.604 339.795 142.284 340.424 140.254 340.424C138.23 340.424 136.904 339.795 136.918 338.756ZM156.578 341.736H149.182V337.744H156.455V337.02H148.32V342.447H151.93V345.756H146.871V346.494H157.918V345.756H152.791V342.447H156.578V341.736ZM168.254 336.008H167.393V348.066H168.254V341.736H170.291V340.998H168.254V336.008ZM159.107 345.018L159.586 345.701C163.489 343.78 165.15 340.67 165.164 337.32H159.641V338.045H164.282C164.07 340.957 162.32 343.425 159.107 345.018ZM179.93 336.158C177.277 336.158 175.705 336.91 175.705 338.264C175.705 339.542 177.113 340.287 179.506 340.362V341.354H174.447V342.078H185.439V341.354H180.34V340.362C182.746 340.287 184.154 339.549 184.154 338.264C184.154 336.91 182.589 336.158 179.93 336.158ZM175.801 343.896H183.156V345.127H175.842V347.916H184.373V347.205H176.676V345.797H183.99V343.199H175.801V343.896ZM176.594 338.264C176.594 337.382 177.865 336.842 179.93 336.842C182.008 336.842 183.279 337.382 183.279 338.264C183.279 339.166 182.008 339.686 179.93 339.686C177.865 339.686 176.594 339.166 176.594 338.264ZM195.83 336.008H194.969V348.08H195.83V341.627H197.908V340.875H195.83V336.008ZM187.012 337.895H191.605V340.629H187.039V345.127H187.982C190.382 345.12 191.981 345.031 193.902 344.676L193.807 343.951C191.927 344.307 190.348 344.389 187.982 344.389H187.9V341.367H192.467V337.156H187.012V337.895ZM207.93 336.008H207.068V348.066H207.93V341.736H209.967V340.998H207.93V336.008ZM198.783 345.018L199.262 345.701C203.165 343.78 204.826 340.67 204.84 337.32H199.316V338.045H203.958C203.746 340.957 201.996 343.425 198.783 345.018ZM221.793 345.729H218.949V342.352C219.981 341.825 220.604 340.971 220.604 339.891C220.604 338.038 218.799 336.828 216.229 336.814C213.679 336.828 211.867 338.038 211.867 339.891C211.867 340.984 212.51 341.853 213.562 342.372V345.729H210.746V346.467H221.793V345.729ZM212.688 339.891C212.688 338.482 214.171 337.532 216.229 337.539C218.279 337.532 219.783 338.482 219.783 339.891C219.783 341.271 218.279 342.235 216.229 342.229C214.171 342.235 212.688 341.271 212.688 339.891ZM214.41 345.729V342.693C214.957 342.844 215.565 342.926 216.229 342.926C216.905 342.926 217.534 342.844 218.088 342.687V345.729H214.41ZM224.582 337.102H223.529L223.598 344.17H224.514L224.582 337.102ZM223.324 346.344C223.324 346.74 223.659 347.075 224.062 347.068C224.459 347.075 224.787 346.74 224.787 346.344C224.787 345.94 224.459 345.612 224.062 345.605C223.659 345.612 223.324 345.94 223.324 346.344ZM112.794 360.008H111.933V372.08H112.794V360.008ZM103.62 369.127H109.253V361.047H108.392V364.314H104.481V361.047H103.62V369.127ZM104.481 368.402V365.025H108.392V368.402H104.481ZM125.29 360.008H124.456V364.834H122.569V360.281H121.749V371.438H122.569V365.572H124.456V372.066H125.29V360.008ZM115.474 368.744H120.04V361.457H115.474V368.744ZM116.28 368.033V362.168H119.22V368.033H116.28ZM137.048 360.008H136.187V364.068H132.263V364.793H136.187V372.08H137.048V360.008ZM127.765 369.127H128.681C130.663 369.127 132.311 369.018 134.231 368.621L134.122 367.91C132.263 368.286 130.622 368.375 128.681 368.389H128.64V361.375H127.765V369.127ZM149.353 360.951H142.954V361.676H144.253V365.894C143.665 365.9 143.111 365.9 142.612 365.9L142.722 366.652C144.704 366.652 147.486 366.618 149.858 366.256L149.817 365.586C149.25 365.654 148.648 365.716 148.04 365.757V361.676H149.353V360.951ZM144.554 369.879C144.54 371.239 146.051 372.025 148.546 372.025C151.055 372.025 152.552 371.239 152.552 369.879C152.552 368.519 151.055 367.739 148.546 367.746C146.051 367.739 144.54 368.519 144.554 369.879ZM145.101 365.88V361.676H147.206V365.812C146.495 365.846 145.784 365.866 145.101 365.88ZM145.401 369.879C145.388 368.99 146.611 368.437 148.546 368.43C150.48 368.437 151.704 368.99 151.704 369.879C151.704 370.781 150.48 371.328 148.546 371.328C146.611 371.328 145.388 370.781 145.401 369.879ZM149.421 365.08H151.649V367.473H152.511V360.008H151.649V362.236H149.421V362.961H151.649V364.369H149.421V365.08ZM163.954 360.008H163.093V372.066H163.954V365.736H165.991V364.998H163.954V360.008ZM154.808 369.018L155.286 369.701C159.189 367.78 160.851 364.67 160.864 361.32H155.341V362.045H159.982C159.771 364.957 158.021 367.425 154.808 369.018ZM177.79 365.668H166.757V366.365H177.79V365.668ZM168.11 368.129H175.534V369.291H168.138V371.889H176.806V371.232H168.985V369.934H176.396V367.459H168.11V368.129ZM168.165 361.061H175.493V362.182H168.206V364.643H176.56V363.986H169.054V362.797H176.354V360.418H168.165V361.061ZM191.64 360.008H190.778V367.062H191.64V363.713H193.499V362.961H191.64V360.008ZM182.808 366.256H188.358V360.664H187.511V362.633H183.655V360.664H182.808V366.256ZM183.655 365.531V363.344H187.511V365.531H183.655ZM184.147 371.889H191.968V371.178H185.009V368.471H191.749V367.773H184.147V371.889ZM199.829 360.828C197.327 360.842 195.468 362.141 195.468 364.109C195.468 366.078 197.327 367.377 199.829 367.363C202.345 367.377 204.204 366.078 204.204 364.109C204.204 362.141 202.345 360.842 199.829 360.828ZM194.347 370.412H205.394V369.674H194.347V370.412ZM196.274 364.109C196.274 362.605 197.806 361.539 199.829 361.539C201.859 361.539 203.384 362.605 203.384 364.109C203.384 365.606 201.859 366.659 199.829 366.652C197.806 366.659 196.274 365.606 196.274 364.109ZM212.503 361.088H207.034V366.625H212.503V365.518H215.524V368.826H216.386V360.008H215.524V362.209H212.503V361.088ZM207.882 365.928V361.799H211.655V365.928H207.882ZM208.661 371.779H216.673V371.055H209.522V368.047H208.661V371.779ZM212.503 364.779V362.947H215.524V364.779H212.503ZM72.4619 390.488H67.4033V389.128C69.7344 389.032 71.1768 388.171 71.1768 386.756C71.1768 385.272 69.543 384.384 66.9521 384.377C64.3613 384.384 62.7275 385.272 62.7275 386.756C62.7275 388.178 64.1904 389.046 66.542 389.128V390.488H61.4697V391.227H72.4619V390.488ZM62.9189 395.779H71.2451V395.055H63.7939V392.279H62.9189V395.779ZM63.6162 386.756C63.6025 385.751 64.9287 385.095 66.9521 385.102C68.9824 385.095 70.3018 385.751 70.3018 386.756C70.3018 387.795 68.9824 388.424 66.9521 388.424C64.9287 388.424 63.6025 387.795 63.6162 386.756ZM83.2764 389.736H75.8799V385.744H83.1533V385.02H75.0186V390.447H78.6279V393.756H73.5693V394.494H84.6162V393.756H79.4893V390.447H83.2764V389.736ZM94.9521 384.008H94.0908V396.066H94.9521V389.736H96.9893V388.998H94.9521V384.008ZM85.8057 393.018L86.2842 393.701C90.1875 391.78 91.8486 388.67 91.8623 385.32H86.3389V386.045H90.9805C90.7686 388.957 89.0186 391.425 85.8057 393.018ZM111.413 384.008H110.565V388.998H108.61V384.295H107.79V395.424H108.61V389.75H110.565V396.066H111.413V384.008ZM101.788 392.867H102.526C103.873 392.874 105.254 392.792 106.956 392.471L106.847 391.691C105.268 392.013 103.914 392.102 102.649 392.102V385.512H101.788V392.867ZM123.171 384.008H122.323V386.824H119.767V387.562H122.323V390.119H119.671V390.857H122.323V396.08H123.171V384.008ZM113.683 385.867H118.099V388.574H113.71V393.223H114.599C116.54 393.223 118.092 393.147 120.054 392.84L119.972 392.102C118.058 392.409 116.506 392.478 114.599 392.484H114.571V389.299H118.946V385.129H113.683V385.867ZM134.737 384.008H133.876V390.188H134.737V387.562H136.597V386.824H134.737V384.008ZM125.386 389.75L125.728 390.475C129.2 389.62 131.456 387.617 131.456 384.637H125.905V385.375H130.513C130.342 387.446 128.435 389.025 125.386 389.75ZM127.136 391.473H133.876V392.922H127.163V395.943H135.202V395.232H128.011V393.619H134.737V390.748H127.136V391.473ZM146.769 385.184V384.459H145.88V385.184C145.88 387.009 143.426 388.41 141.437 388.711L141.806 389.422C143.583 389.101 145.579 388.068 146.324 386.503C147.083 388.048 149.086 389.101 150.856 389.422L151.212 388.711C149.229 388.41 146.762 386.975 146.769 385.184ZM140.821 391.609H145.88V396.066H146.714V391.609H151.813V390.871H140.821V391.609ZM160.276 392.211V391.459H159.442V392.211C159.436 393.359 158.438 394.679 156.927 395.246L157.378 395.902C158.547 395.451 159.415 394.569 159.839 393.585C160.188 394.617 160.953 395.533 162.136 395.998C163.264 395.506 164.009 394.535 164.378 393.551C164.788 394.583 165.67 395.458 166.894 395.902L167.331 395.246C165.793 394.713 164.809 393.448 164.815 392.211V391.459H163.968V392.211C163.975 393.154 163.305 394.426 162.108 395.144C160.912 394.494 160.27 393.312 160.276 392.211ZM156.612 387.535C156.605 389.189 157.911 390.311 159.729 390.311C161.548 390.311 162.84 389.189 162.847 387.535C162.84 385.867 161.548 384.739 159.729 384.746C157.911 384.739 156.605 385.867 156.612 387.535ZM157.446 387.535C157.446 386.353 158.403 385.478 159.729 385.484C161.049 385.478 162.006 386.353 162.013 387.535C162.006 388.725 161.049 389.586 159.729 389.586C158.403 389.586 157.446 388.725 157.446 387.535ZM165.349 390.926H166.21V384.008H165.349V390.926ZM173.88 384.828C171.378 384.842 169.519 386.141 169.519 388.109C169.519 390.078 171.378 391.377 173.88 391.363C176.396 391.377 178.255 390.078 178.255 388.109C178.255 386.141 176.396 384.842 173.88 384.828ZM168.397 394.412H179.444V393.674H168.397V394.412ZM170.325 388.109C170.325 386.605 171.856 385.539 173.88 385.539C175.91 385.539 177.435 386.605 177.435 388.109C177.435 389.606 175.91 390.659 173.88 390.652C171.856 390.659 170.325 389.606 170.325 388.109ZM190.368 384.008H189.521V396.066H190.368V384.008ZM181.317 392.908H182.274C184.229 392.908 186.116 392.751 188.263 392.307L188.14 391.555C186.068 391.999 184.161 392.143 182.274 392.143H182.165V385.197H181.317V392.908ZM206.993 390.926H195.96V391.65H198.927V396.066H199.815V391.65H203.124V396.066H203.985V391.65H206.993V390.926ZM197.259 387.125C197.252 388.718 198.94 389.716 201.456 389.709C203.972 389.716 205.653 388.718 205.653 387.125C205.653 385.525 203.972 384.514 201.456 384.514C198.94 384.514 197.252 385.525 197.259 387.125ZM198.134 387.125C198.127 385.983 199.487 385.225 201.456 385.225C203.418 385.225 204.771 385.983 204.778 387.125C204.771 388.253 203.418 389.005 201.456 388.998C199.487 389.005 198.127 388.253 198.134 387.125ZM212.024 384.91C210.131 384.91 208.798 386.038 208.798 387.699C208.798 389.36 210.131 390.488 212.024 390.488C213.918 390.488 215.244 389.36 215.251 387.699C215.244 386.038 213.918 384.91 212.024 384.91ZM208.142 392.594L208.278 393.359C210.473 393.359 213.474 393.353 216.263 392.84L216.194 392.184C213.494 392.594 210.397 392.607 208.142 392.594ZM209.646 387.699C209.639 386.517 210.637 385.676 212.024 385.676C213.405 385.676 214.403 386.517 214.403 387.699C214.403 388.882 213.405 389.729 212.024 389.723C210.637 389.729 209.639 388.882 209.646 387.699ZM217.028 396.08H217.89V384.008H217.028V396.08ZM229.456 384.008H228.595V396.066H229.456V389.791H231.534V389.053H229.456V384.008ZM220.104 386.715H227.31V385.99H224.179V384.131H223.317V385.99H220.104V386.715ZM220.856 390.557C220.85 392.177 222.073 393.291 223.769 393.291C225.464 393.291 226.681 392.177 226.681 390.557C226.681 388.943 225.464 387.822 223.769 387.822C222.073 387.822 220.85 388.943 220.856 390.557ZM221.677 390.557C221.67 389.408 222.559 388.554 223.769 388.547C224.972 388.554 225.854 389.408 225.86 390.557C225.854 391.705 224.972 392.553 223.769 392.539C222.559 392.553 221.67 391.705 221.677 390.557ZM235.759 387.562V385.17H234.938V387.59C234.932 389.661 233.797 391.808 232.163 392.744L232.737 393.387C233.961 392.642 234.925 391.199 235.362 389.538C235.793 391.062 236.702 392.423 237.892 393.141L238.411 392.471C236.832 391.555 235.759 389.463 235.759 387.562ZM237.058 389.162H239.259V395.438H240.079V384.281H239.259V388.41H237.058V389.162ZM241.733 396.066H242.567V384.008H241.733V396.066ZM255.419 393.729H252.575V390.352C253.607 389.825 254.229 388.971 254.229 387.891C254.229 386.038 252.425 384.828 249.854 384.814C247.305 384.828 245.493 386.038 245.493 387.891C245.493 388.984 246.136 389.853 247.188 390.372V393.729H244.372V394.467H255.419V393.729ZM246.313 387.891C246.313 386.482 247.797 385.532 249.854 385.539C251.905 385.532 253.409 386.482 253.409 387.891C253.409 389.271 251.905 390.235 249.854 390.229C247.797 390.235 246.313 389.271 246.313 387.891ZM248.036 393.729V390.693C248.583 390.844 249.191 390.926 249.854 390.926C250.531 390.926 251.16 390.844 251.714 390.687V393.729H248.036ZM258.208 385.102H257.155L257.224 392.17H258.14L258.208 385.102ZM256.95 394.344C256.95 394.74 257.285 395.075 257.688 395.068C258.085 395.075 258.413 394.74 258.413 394.344C258.413 393.94 258.085 393.612 257.688 393.605C257.285 393.612 256.95 393.94 256.95 394.344Z" fill="#61586A"/>
<defs>
<clipPath id="clip0_2094_27412">
<rect width="14" height="14" fill="white" transform="translate(40.1875 73)"/>
</clipPath>
</defs>
</svg>
