<svg width="321" height="427" viewBox="0 0 321 427" fill="none" xmlns="http://www.w3.org/2000/svg">
<path d="M103.29 12.784C103.3 13.936 103.236 14.8587 103.098 15.552C102.959 16.2453 102.762 16.592 102.506 16.592C102.388 16.6027 102.292 16.528 102.218 16.368C102.154 16.208 102.095 15.9947 102.042 15.728C101.999 15.4613 101.967 15.1573 101.946 14.816C101.935 14.4747 101.93 14.1227 101.93 13.76V9.824C101.439 10.016 100.895 10.2133 100.298 10.416C99.7004 10.6187 99.0978 10.8053 98.4898 10.976C97.8818 11.1467 97.2844 11.2907 96.6978 11.408C96.1111 11.5253 95.5831 11.6 95.1138 11.632C94.6444 11.664 94.3031 11.5947 94.0898 11.424C93.8871 11.2533 93.7858 10.928 93.7858 10.448V5.648C93.7858 5.49867 93.7591 5.36533 93.7057 5.248C93.6524 5.13067 93.5778 5.03467 93.4818 4.96C93.3538 4.88533 93.1831 4.82133 92.9698 4.768C92.7564 4.704 92.5537 4.66133 92.3618 4.64C92.2871 4.64 92.2338 4.608 92.2018 4.544C92.1804 4.46933 92.1751 4.39467 92.1858 4.32C92.1964 4.23467 92.2284 4.16 92.2818 4.096C92.3458 4.032 92.4311 3.99467 92.5378 3.984C92.9218 3.97333 93.3644 3.984 93.8658 4.016C94.3671 4.048 94.8204 4.096 95.2258 4.16C95.3004 4.18133 95.3538 4.24533 95.3858 4.352C95.4178 4.448 95.4178 4.54933 95.3858 4.656C95.3751 4.688 95.3591 4.73067 95.3378 4.784C95.3271 4.83733 95.3164 4.896 95.3058 4.96C95.2951 5.024 95.2791 5.09333 95.2578 5.168C95.2471 5.232 95.2418 5.30133 95.2418 5.376V9.952C95.2418 10.1653 95.3058 10.3093 95.4338 10.384C95.5618 10.448 95.7058 10.4747 95.8658 10.464C96.1964 10.4533 96.6124 10.4053 97.1138 10.32C97.6151 10.2347 98.1484 10.128 98.7138 10C99.2684 9.872 99.8231 9.73333 100.378 9.584C100.943 9.424 101.46 9.264 101.93 9.104V3.392C101.93 3.136 101.908 2.92267 101.866 2.752C101.823 2.58133 101.738 2.448 101.61 2.352C101.428 2.224 101.215 2.12267 100.97 2.048C100.735 1.97333 100.5 1.91467 100.266 1.872C100.18 1.86133 100.122 1.81867 100.09 1.744C100.068 1.66933 100.063 1.59467 100.074 1.52C100.095 1.44533 100.138 1.38133 100.202 1.328C100.266 1.264 100.356 1.232 100.474 1.232C100.879 1.24267 101.354 1.28533 101.898 1.36C102.442 1.424 102.906 1.51467 103.29 1.632C103.354 1.664 103.407 1.728 103.45 1.824C103.492 1.90933 103.498 2.01067 103.466 2.128C103.412 2.288 103.37 2.448 103.338 2.608C103.316 2.768 103.3 2.928 103.29 3.088V7.504C103.524 7.49333 103.759 7.472 103.994 7.44C104.228 7.39733 104.415 7.312 104.554 7.184C104.607 7.10933 104.788 7.06667 105.098 7.056C105.407 7.04533 105.684 7.056 105.93 7.088C106.196 7.152 106.388 7.248 106.506 7.376C106.623 7.49333 106.671 7.616 106.65 7.744C106.628 7.872 106.538 7.984 106.378 8.08C106.218 8.16533 106.004 8.208 105.738 8.208H103.29V12.784ZM119.539 12.8C119.539 13.952 119.469 14.8747 119.331 15.568C119.203 16.2613 119.005 16.608 118.739 16.608C118.621 16.6293 118.525 16.56 118.451 16.4C118.387 16.24 118.328 16.0267 118.275 15.76C118.232 15.4933 118.2 15.1893 118.179 14.848C118.157 14.5067 118.147 14.1493 118.147 13.776V11.296C117.645 11.3813 117.091 11.4773 116.483 11.584C115.885 11.68 115.277 11.7813 114.659 11.888C114.04 11.984 113.437 12.0747 112.851 12.16C112.264 12.2453 111.747 12.304 111.299 12.336C111.149 12.3467 110.995 12.3787 110.835 12.432C110.685 12.4747 110.557 12.512 110.451 12.544C110.365 12.576 110.285 12.608 110.211 12.64C110.147 12.6613 110.077 12.6827 110.003 12.704C109.917 12.7147 109.827 12.72 109.731 12.72C109.645 12.7093 109.544 12.688 109.427 12.656C109.267 12.624 109.027 12.5493 108.707 12.432C108.397 12.304 108.099 12.16 107.811 12C107.469 11.8187 107.325 11.6427 107.379 11.472C107.443 11.2907 107.64 11.2267 107.971 11.28C108.227 11.312 108.547 11.3333 108.931 11.344C109.315 11.344 109.661 11.344 109.971 11.344C110.483 11.344 111.085 11.3227 111.779 11.28C112.483 11.2373 113.213 11.1733 113.971 11.088C114.717 11.0133 115.453 10.928 116.179 10.832C116.915 10.736 117.576 10.64 118.163 10.544V3.424C118.163 3.168 118.141 2.95467 118.099 2.784C118.067 2.61333 117.987 2.47467 117.859 2.368C117.688 2.24 117.48 2.13867 117.235 2.064C117 1.98933 116.771 1.93067 116.547 1.888C116.461 1.87733 116.397 1.83467 116.355 1.76C116.323 1.68533 116.317 1.60533 116.339 1.52C116.349 1.44533 116.381 1.38133 116.435 1.328C116.499 1.264 116.589 1.23733 116.707 1.248C117.112 1.25867 117.581 1.30133 118.115 1.376C118.659 1.44 119.123 1.53067 119.507 1.648C119.581 1.68 119.64 1.73867 119.683 1.824C119.725 1.90933 119.736 2.016 119.715 2.144C119.661 2.304 119.619 2.46933 119.587 2.64C119.565 2.8 119.549 2.96 119.539 3.12V12.8ZM112.563 8.352C113.192 8.352 113.704 8.128 114.099 7.68C114.493 7.232 114.691 6.704 114.691 6.096C114.691 5.79733 114.637 5.50933 114.531 5.232C114.435 4.95467 114.291 4.704 114.099 4.48C113.917 4.26667 113.693 4.096 113.427 3.968C113.171 3.82933 112.883 3.76 112.563 3.76C111.933 3.76 111.427 3.99467 111.043 4.464C110.659 4.92267 110.467 5.46667 110.467 6.096C110.467 6.39467 110.515 6.68267 110.611 6.96C110.717 7.22667 110.861 7.46667 111.043 7.68C111.224 7.88267 111.443 8.048 111.699 8.176C111.955 8.29333 112.243 8.352 112.563 8.352ZM114.083 3.184C114.531 3.376 114.899 3.62667 115.187 3.936C115.485 4.23467 115.709 4.576 115.859 4.96C116.019 5.344 116.099 5.728 116.099 6.112C116.099 6.54933 116.013 6.96 115.843 7.344C115.672 7.71733 115.432 8.048 115.123 8.336C114.813 8.624 114.44 8.848 114.003 9.008C113.576 9.168 113.096 9.248 112.563 9.248C112.008 9.248 111.512 9.168 111.075 9.008C110.637 8.83733 110.269 8.608 109.971 8.32C109.661 8.032 109.427 7.70133 109.267 7.328C109.107 6.944 109.027 6.53867 109.027 6.112C109.027 5.696 109.101 5.296 109.251 4.912C109.4 4.528 109.624 4.18667 109.923 3.888C110.221 3.58933 110.589 3.34933 111.027 3.168C111.475 2.98667 111.987 2.896 112.563 2.896C113.139 2.896 113.645 2.992 114.083 3.184ZM139.204 10.336C139.204 11.168 139.113 11.8507 138.932 12.384C138.75 12.9067 138.564 13.168 138.372 13.168C138.18 13.1787 138.041 12.9973 137.956 12.624C137.881 12.24 137.844 11.7493 137.844 11.152V8.368C137.684 8.368 137.54 8.37333 137.412 8.384C137.294 8.39467 137.214 8.4 137.172 8.4C137.065 8.42133 136.932 8.45333 136.772 8.496C136.612 8.528 136.452 8.576 136.292 8.64C136.068 8.736 135.87 8.784 135.7 8.784C135.54 8.784 135.39 8.752 135.252 8.688C135.156 8.656 135.033 8.61333 134.884 8.56C134.734 8.50667 134.574 8.44267 134.404 8.368C134.084 8.752 133.678 9.056 133.188 9.28C132.697 9.49333 132.148 9.6 131.54 9.6C131.017 9.6 130.537 9.52 130.1 9.36C129.673 9.2 129.3 8.976 128.98 8.688C128.67 8.4 128.425 8.05867 128.244 7.664C128.073 7.25867 127.988 6.816 127.988 6.336C127.988 5.84533 128.073 5.40267 128.244 5.008C128.425 4.60267 128.67 4.256 128.98 3.968C129.3 3.69067 129.673 3.472 130.1 3.312C130.537 3.152 131.017 3.072 131.54 3.072C132.137 3.072 132.676 3.17867 133.156 3.392C133.636 3.59467 134.036 3.87733 134.356 4.24H134.388C134.548 4.26133 134.788 4.27733 135.108 4.288C135.438 4.29867 135.732 4.304 135.988 4.304C136.212 4.304 136.489 4.304 136.82 4.304C137.15 4.29333 137.492 4.28267 137.844 4.272V3.376C137.844 3.13067 137.822 2.92267 137.78 2.752C137.737 2.58133 137.646 2.448 137.508 2.352C137.326 2.224 137.113 2.12267 136.868 2.048C136.633 1.97333 136.404 1.91467 136.18 1.872C136.094 1.86133 136.036 1.81867 136.004 1.744C135.982 1.66933 135.982 1.59467 136.004 1.52C136.014 1.44533 136.052 1.38133 136.116 1.328C136.19 1.264 136.286 1.232 136.404 1.232C136.809 1.24267 137.278 1.28533 137.812 1.36C138.356 1.424 138.82 1.51467 139.204 1.632C139.268 1.664 139.321 1.728 139.364 1.824C139.406 1.90933 139.412 2.01067 139.38 2.128C139.326 2.288 139.284 2.45333 139.252 2.624C139.23 2.784 139.214 2.944 139.204 3.104V10.336ZM137.844 5.008C137.684 5.008 137.55 5.01333 137.444 5.024C137.348 5.024 137.278 5.024 137.236 5.024C137.129 5.04533 136.996 5.07733 136.836 5.12C136.676 5.152 136.516 5.2 136.356 5.264C136.132 5.36 135.934 5.408 135.764 5.408C135.604 5.408 135.454 5.376 135.316 5.312C135.284 5.312 135.252 5.30667 135.22 5.296C135.188 5.28533 135.156 5.26933 135.124 5.248C135.081 5.23733 135.038 5.22667 134.996 5.216C134.964 5.19467 134.926 5.17333 134.884 5.152C134.948 5.33333 134.996 5.52533 135.028 5.728C135.07 5.92 135.092 6.12267 135.092 6.336C135.092 6.58133 135.065 6.816 135.012 7.04C134.969 7.264 134.905 7.472 134.82 7.664C134.916 7.664 135.012 7.66933 135.108 7.68C135.214 7.68 135.316 7.68 135.412 7.68C135.508 7.68 135.598 7.68 135.684 7.68C135.769 7.68 135.849 7.68 135.924 7.68C136.041 7.68 136.174 7.68 136.324 7.68C136.473 7.68 136.633 7.67467 136.804 7.664C136.974 7.664 137.145 7.664 137.316 7.664C137.486 7.65333 137.662 7.64267 137.844 7.632V5.008ZM131.54 8.672C132.201 8.672 132.724 8.44267 133.108 7.984C133.502 7.52533 133.7 6.97067 133.7 6.32C133.7 5.65867 133.502 5.104 133.108 4.656C132.724 4.19733 132.201 3.968 131.54 3.968C130.868 3.968 130.34 4.19733 129.956 4.656C129.572 5.104 129.38 5.65867 129.38 6.32C129.38 6.97067 129.572 7.52533 129.956 7.984C130.34 8.44267 130.868 8.672 131.54 8.672ZM137.012 15.024C137.182 15.024 137.369 15.008 137.572 14.976C137.785 14.9547 137.998 14.8907 138.212 14.784C138.244 14.7627 138.297 14.7307 138.372 14.688C138.446 14.656 138.532 14.6347 138.628 14.624C138.841 14.6133 139.065 14.6133 139.3 14.624C139.534 14.6347 139.748 14.6507 139.94 14.672C140.153 14.704 140.313 14.7733 140.42 14.88C140.537 14.9973 140.596 15.12 140.596 15.248C140.596 15.376 140.537 15.488 140.42 15.584C140.313 15.6907 140.148 15.744 139.924 15.744L133.684 15.808C133.257 15.8187 132.878 15.7493 132.548 15.6C132.228 15.4507 132.068 15.12 132.068 14.608V12.976C132.068 12.8693 132.046 12.7573 132.004 12.64C131.972 12.512 131.908 12.416 131.812 12.352C131.705 12.288 131.561 12.2347 131.38 12.192C131.209 12.1387 131.006 12.096 130.772 12.064C130.697 12.064 130.644 12.032 130.612 11.968C130.58 11.8933 130.574 11.8187 130.596 11.744C130.606 11.6693 130.638 11.6 130.692 11.536C130.756 11.4613 130.841 11.4187 130.948 11.408C131.086 11.408 131.262 11.408 131.476 11.408C131.7 11.408 131.929 11.4133 132.164 11.424C132.398 11.4347 132.628 11.4507 132.852 11.472C133.086 11.4827 133.294 11.504 133.476 11.536C133.54 11.568 133.588 11.6373 133.62 11.744C133.662 11.84 133.668 11.9413 133.636 12.048C133.614 12.112 133.593 12.2293 133.572 12.4C133.561 12.5707 133.556 12.72 133.556 12.848V14.56C133.556 14.752 133.614 14.88 133.732 14.944C133.86 15.0187 134.004 15.056 134.164 15.056L137.012 15.024ZM145.932 9.6C146.572 9.6 147.079 9.38667 147.452 8.96C147.826 8.53333 148.012 8 148.012 7.36C148.012 6.73067 147.826 6.20267 147.452 5.776C147.079 5.33867 146.572 5.12 145.932 5.12C145.282 5.12 144.77 5.33867 144.396 5.776C144.034 6.20267 143.852 6.73067 143.852 7.36C143.852 8 144.034 8.53333 144.396 8.96C144.77 9.38667 145.282 9.6 145.932 9.6ZM149.1 8.688C148.93 9.08267 148.69 9.41867 148.38 9.696C148.082 9.984 147.719 10.208 147.292 10.368C146.876 10.5173 146.423 10.592 145.932 10.592C145.431 10.592 144.967 10.5173 144.54 10.368C144.124 10.208 143.767 9.984 143.468 9.696C143.159 9.41867 142.919 9.08267 142.748 8.688C142.588 8.28267 142.508 7.84 142.508 7.36C142.508 6.37867 142.828 5.6 143.468 5.024C144.108 4.43733 144.93 4.144 145.932 4.144C146.924 4.144 147.74 4.43733 148.38 5.024C149.031 5.6 149.356 6.37867 149.356 7.36C149.356 7.84 149.271 8.28267 149.1 8.688ZM154.732 12.784C154.732 13.936 154.668 14.8587 154.54 15.552C154.412 16.2453 154.22 16.592 153.964 16.592C153.847 16.6027 153.751 16.528 153.676 16.368C153.602 16.208 153.548 15.9947 153.516 15.728C153.474 15.4613 153.442 15.1573 153.42 14.816C153.41 14.4747 153.404 14.1173 153.404 13.744V8.464L151.82 8.512V12.24C151.82 13.3813 151.756 14.2987 151.628 14.992C151.511 15.6853 151.33 16.032 151.084 16.032C150.967 16.0427 150.871 15.968 150.796 15.808C150.722 15.648 150.663 15.4347 150.62 15.168C150.578 14.9013 150.546 14.592 150.524 14.24C150.514 13.8987 150.508 13.5413 150.508 13.168V4.16C150.508 3.904 150.482 3.68533 150.428 3.504C150.386 3.32267 150.3 3.184 150.172 3.088C150.044 2.992 149.89 2.90667 149.708 2.832C149.527 2.74667 149.33 2.68267 149.116 2.64C149.031 2.62933 148.972 2.592 148.94 2.528C148.908 2.45333 148.903 2.37867 148.924 2.304C148.935 2.22933 148.972 2.16533 149.036 2.112C149.1 2.048 149.191 2.016 149.308 2.016C149.692 2.03733 150.103 2.08 150.54 2.144C150.978 2.19733 151.388 2.28267 151.772 2.4C151.847 2.432 151.906 2.496 151.948 2.592C151.991 2.67733 151.996 2.77867 151.964 2.896C151.922 3.024 151.884 3.168 151.852 3.328C151.831 3.488 151.82 3.65333 151.82 3.824V7.664L153.404 7.616V3.392C153.404 3.136 153.383 2.92267 153.34 2.752C153.298 2.57067 153.207 2.432 153.068 2.336C152.93 2.24 152.759 2.14933 152.556 2.064C152.354 1.97867 152.14 1.91467 151.916 1.872C151.831 1.86133 151.772 1.81867 151.74 1.744C151.708 1.66933 151.703 1.59467 151.724 1.52C151.735 1.44533 151.772 1.38133 151.836 1.328C151.9 1.264 151.991 1.232 152.108 1.232C152.492 1.25333 152.924 1.296 153.404 1.36C153.884 1.424 154.316 1.51467 154.7 1.632C154.775 1.664 154.834 1.728 154.876 1.824C154.919 1.90933 154.924 2.01067 154.892 2.128C154.85 2.26667 154.812 2.42133 154.78 2.592C154.748 2.76267 154.732 2.928 154.732 3.088V12.784ZM172.43 6.272C172.248 6.656 171.992 6.992 171.662 7.28C171.32 7.55733 170.92 7.77067 170.462 7.92C170.014 8.06933 169.518 8.144 168.974 8.144C168.43 8.144 167.928 8.06933 167.47 7.92C167.022 7.77067 166.632 7.55733 166.302 7.28C165.982 6.992 165.731 6.656 165.549 6.272C165.368 5.87733 165.278 5.44 165.278 4.96C165.278 4.48 165.368 4.04267 165.549 3.648C165.731 3.25333 165.982 2.91733 166.302 2.64C166.632 2.36267 167.022 2.14933 167.47 2C167.928 1.84 168.43 1.76 168.974 1.76C169.518 1.76 170.014 1.84 170.462 2C170.92 2.14933 171.32 2.36267 171.662 2.64C171.992 2.91733 172.248 3.25333 172.43 3.648C172.622 4.04267 172.718 4.48 172.718 4.96C172.718 5.44 172.622 5.87733 172.43 6.272ZM168.974 7.2C169.678 7.2 170.238 6.98667 170.654 6.56C171.08 6.13333 171.294 5.6 171.294 4.96C171.294 4.29867 171.08 3.74933 170.654 3.312C170.238 2.87467 169.678 2.656 168.974 2.656C168.259 2.656 167.699 2.87467 167.294 3.312C166.888 3.74933 166.686 4.29867 166.686 4.96C166.686 5.6 166.888 6.13333 167.294 6.56C167.699 6.98667 168.259 7.2 168.974 7.2ZM171.95 12.784C171.96 13.936 171.88 14.8587 171.71 15.552C171.539 16.2453 171.326 16.592 171.07 16.592C170.952 16.6027 170.856 16.528 170.782 16.368C170.707 16.208 170.648 15.9947 170.606 15.728C170.552 15.4613 170.515 15.1573 170.494 14.816C170.483 14.4747 170.477 14.1173 170.477 13.744V10.288C170.286 10.288 170.11 10.288 169.95 10.288C169.8 10.2773 169.662 10.272 169.534 10.272C169.246 10.272 168.926 10.2773 168.574 10.288C168.232 10.2987 167.88 10.3093 167.518 10.32V12.448C167.528 13.6 167.443 14.5227 167.262 15.216C167.091 15.9093 166.878 16.256 166.622 16.256C166.515 16.2667 166.424 16.192 166.35 16.032C166.275 15.872 166.216 15.6587 166.174 15.392C166.131 15.136 166.099 14.832 166.078 14.48C166.067 14.1387 166.062 13.7813 166.062 13.408V10.416C166.008 10.416 165.966 10.4213 165.934 10.432C165.902 10.432 165.875 10.432 165.854 10.432C165.832 10.432 165.811 10.432 165.79 10.432C165.768 10.432 165.752 10.432 165.742 10.432C165.635 10.4427 165.539 10.4587 165.454 10.48C165.368 10.4907 165.294 10.5067 165.23 10.528C165.155 10.5493 165.086 10.576 165.022 10.608C164.958 10.6293 164.894 10.6453 164.83 10.656C164.67 10.7093 164.494 10.7467 164.302 10.768C164.12 10.7787 163.88 10.7467 163.582 10.672C163.39 10.64 163.166 10.576 162.91 10.48C162.654 10.384 162.376 10.256 162.078 10.096C161.758 9.936 161.619 9.776 161.662 9.616C161.715 9.44533 161.95 9.38667 162.366 9.44C162.846 9.504 163.363 9.54667 163.918 9.568C164.472 9.58933 165.006 9.6 165.518 9.6C165.891 9.6 166.36 9.6 166.926 9.6C167.491 9.6 168.078 9.59467 168.686 9.584C169.294 9.584 169.886 9.57867 170.462 9.568C171.048 9.55733 171.55 9.54667 171.966 9.536C172.19 9.536 172.403 9.50933 172.606 9.456C172.808 9.392 172.947 9.344 173.022 9.312C173.107 9.28 173.192 9.25333 173.278 9.232C173.374 9.21067 173.464 9.19467 173.55 9.184C173.827 9.16267 174.099 9.15733 174.366 9.168C174.643 9.168 174.926 9.17867 175.214 9.2C175.534 9.232 175.779 9.296 175.95 9.392C176.131 9.47733 176.222 9.61067 176.222 9.792C176.211 10.0053 176.11 10.1493 175.918 10.224C175.736 10.288 175.496 10.32 175.198 10.32C174.814 10.32 174.328 10.32 173.742 10.32C173.166 10.3093 172.568 10.304 171.95 10.304V12.784ZM183.942 2.592C184.081 2.688 184.15 2.79467 184.15 2.912C184.14 3.01867 184.065 3.12533 183.926 3.232C183.788 3.33867 183.59 3.39733 183.334 3.408C183.142 3.42933 182.966 3.44533 182.806 3.456C182.657 3.46667 182.513 3.472 182.374 3.472C182.236 3.48267 182.097 3.488 181.958 3.488C181.82 3.47733 181.676 3.46133 181.526 3.44C181.334 3.42933 181.116 3.36533 180.87 3.248C180.625 3.13067 180.358 2.96 180.07 2.736C179.846 2.53333 179.788 2.37333 179.894 2.256C180.012 2.13867 180.262 2.128 180.646 2.224C181.062 2.32 181.473 2.384 181.878 2.416C182.294 2.43733 182.764 2.448 183.286 2.448C183.585 2.448 183.804 2.496 183.942 2.592ZM184.134 3.984C184.177 3.97333 184.214 3.96267 184.246 3.952C184.534 3.92 184.801 3.90933 185.046 3.92C185.292 3.93067 185.553 3.952 185.83 3.984C186.044 4.016 186.22 4.06933 186.358 4.144C186.497 4.21867 186.566 4.336 186.566 4.496C186.566 4.66667 186.486 4.784 186.326 4.848C186.166 4.912 185.974 4.944 185.75 4.944C185.697 4.944 185.564 4.944 185.35 4.944C185.137 4.944 184.897 4.944 184.63 4.944C184.364 4.944 184.092 4.944 183.814 4.944C183.537 4.944 183.308 4.944 183.126 4.944C182.945 4.95467 182.726 4.96533 182.47 4.976C182.225 4.976 181.974 4.98133 181.718 4.992C181.462 4.992 181.222 4.99733 180.998 5.008C180.785 5.01867 180.625 5.02933 180.518 5.04C180.465 5.05067 180.412 5.06667 180.358 5.088C180.305 5.09867 180.252 5.10933 180.198 5.12C180.156 5.14133 180.108 5.16267 180.054 5.184C180.012 5.19467 179.969 5.20533 179.926 5.216C179.766 5.28 179.601 5.32267 179.43 5.344C179.26 5.35467 179.025 5.312 178.726 5.216C178.566 5.184 178.385 5.13067 178.182 5.056C177.99 4.97067 177.793 4.864 177.59 4.736C177.324 4.576 177.201 4.432 177.222 4.304C177.244 4.16533 177.382 4.10667 177.638 4.128C178.022 4.16 178.428 4.192 178.854 4.224C179.281 4.24533 179.793 4.256 180.39 4.256C180.529 4.256 180.732 4.26133 180.998 4.272C181.276 4.272 181.564 4.272 181.862 4.272C182.15 4.272 182.428 4.272 182.694 4.272C182.972 4.26133 183.185 4.24533 183.334 4.224C183.398 4.224 183.484 4.20267 183.59 4.16C183.708 4.11733 183.793 4.08 183.846 4.048C183.878 4.03733 183.91 4.02667 183.942 4.016C183.974 4.00533 184.006 3.99467 184.038 3.984C184.07 3.984 184.102 3.984 184.134 3.984ZM189.126 8.624C189.126 9.456 189.036 10.1067 188.854 10.576C188.684 11.0347 188.497 11.264 188.294 11.264C188.102 11.2747 187.964 11.1093 187.878 10.768C187.804 10.416 187.766 9.952 187.766 9.376C187.606 9.38667 187.446 9.41333 187.286 9.456C187.126 9.488 186.972 9.536 186.822 9.6C186.598 9.696 186.401 9.744 186.23 9.744C186.07 9.744 185.916 9.712 185.766 9.648C185.724 9.63733 185.66 9.62133 185.574 9.6C185.5 9.568 185.42 9.53067 185.334 9.488C185.238 9.456 185.142 9.41867 185.046 9.376C184.95 9.33333 184.865 9.28533 184.79 9.232C184.556 9.69067 184.193 10.048 183.702 10.304C183.222 10.5493 182.662 10.672 182.022 10.672C181.148 10.672 180.422 10.4427 179.846 9.984C179.281 9.51467 178.998 8.88 178.998 8.08C178.998 7.28 179.286 6.656 179.862 6.208C180.438 5.74933 181.158 5.52 182.022 5.52C182.886 5.52 183.606 5.74933 184.182 6.208C184.769 6.656 185.062 7.28 185.062 8.08C185.062 8.176 185.057 8.26667 185.046 8.352C185.036 8.43733 185.025 8.51733 185.014 8.592C185.11 8.60267 185.222 8.61333 185.35 8.624C185.478 8.624 185.606 8.624 185.734 8.624C185.873 8.63467 186.001 8.64 186.118 8.64C186.246 8.64 186.358 8.64 186.454 8.64C186.55 8.64 186.646 8.64 186.742 8.64C186.849 8.64 186.956 8.64 187.062 8.64C187.18 8.64 187.292 8.64 187.398 8.64C187.516 8.62933 187.638 8.61867 187.766 8.608V6.784C187.617 6.80533 187.468 6.832 187.318 6.864C187.18 6.896 187.046 6.93867 186.918 6.992C186.694 7.088 186.497 7.136 186.326 7.136C186.166 7.136 186.012 7.104 185.862 7.04C185.745 7.008 185.58 6.944 185.366 6.848C185.153 6.74133 184.95 6.62933 184.758 6.512C184.534 6.36267 184.444 6.22933 184.486 6.112C184.529 5.984 184.684 5.936 184.95 5.968C185.11 5.98933 185.35 6.00533 185.67 6.016C186.001 6.02667 186.294 6.032 186.55 6.032C186.636 6.032 186.721 6.032 186.806 6.032C186.902 6.032 187.004 6.032 187.11 6.032C187.206 6.032 187.308 6.032 187.414 6.032C187.532 6.02133 187.649 6.016 187.766 6.016V3.392C187.766 3.136 187.745 2.92267 187.702 2.752C187.66 2.58133 187.569 2.448 187.43 2.352C187.249 2.224 187.036 2.12267 186.79 2.048C186.556 1.97333 186.326 1.91467 186.102 1.872C186.017 1.86133 185.958 1.81867 185.926 1.744C185.894 1.66933 185.889 1.59467 185.91 1.52C185.921 1.44533 185.958 1.38133 186.022 1.328C186.086 1.264 186.177 1.232 186.294 1.232C186.7 1.24267 187.174 1.28533 187.718 1.36C188.262 1.424 188.726 1.51467 189.11 1.632C189.174 1.664 189.228 1.728 189.27 1.824C189.324 1.90933 189.334 2.01067 189.302 2.128C189.238 2.288 189.19 2.45333 189.158 2.624C189.137 2.784 189.126 2.944 189.126 3.104V8.624ZM188.966 13.68C188.966 14.48 188.662 15.1307 188.054 15.632C187.457 16.1333 186.668 16.384 185.686 16.384C185.206 16.384 184.764 16.32 184.358 16.192C183.964 16.064 183.617 15.8773 183.318 15.632C183.03 15.3973 182.801 15.1147 182.63 14.784C182.47 14.4533 182.39 14.0853 182.39 13.68C182.39 13.2747 182.47 12.9067 182.63 12.576C182.801 12.2347 183.036 11.9467 183.334 11.712C183.622 11.4773 183.969 11.296 184.374 11.168C184.78 11.04 185.217 10.976 185.686 10.976C186.668 10.976 187.457 11.2213 188.054 11.712C188.662 12.2027 188.966 12.8587 188.966 13.68ZM187.046 14.96C187.388 14.6293 187.558 14.224 187.558 13.744C187.558 13.232 187.388 12.8 187.046 12.448C186.705 12.0853 186.246 11.904 185.67 11.904C185.094 11.904 184.63 12.0853 184.278 12.448C183.937 12.8 183.766 13.232 183.766 13.744C183.766 14.224 183.937 14.6293 184.278 14.96C184.63 15.2907 185.094 15.456 185.67 15.456C186.246 15.456 186.705 15.2907 187.046 14.96ZM183.206 9.36C183.558 9.08267 183.734 8.656 183.734 8.08C183.734 7.51467 183.564 7.07733 183.222 6.768C182.881 6.45867 182.481 6.304 182.022 6.304C181.564 6.304 181.164 6.464 180.822 6.784C180.492 7.09333 180.326 7.52533 180.326 8.08C180.326 8.656 180.497 9.08267 180.838 9.36C181.18 9.63733 181.574 9.776 182.022 9.776C182.47 9.776 182.865 9.63733 183.206 9.36ZM204.095 12.784C204.116 13.936 204.052 14.8587 203.903 15.552C203.754 16.2453 203.551 16.592 203.295 16.592C203.178 16.6027 203.082 16.528 203.007 16.368C202.943 16.208 202.89 15.9947 202.847 15.728C202.815 15.4613 202.788 15.152 202.767 14.8C202.756 14.4587 202.751 14.1013 202.751 13.728V3.392C202.751 3.136 202.73 2.92267 202.687 2.752C202.644 2.58133 202.554 2.448 202.415 2.352C202.234 2.224 202.02 2.12267 201.775 2.048C201.54 1.97333 201.311 1.91467 201.087 1.872C201.002 1.86133 200.943 1.81867 200.911 1.744C200.879 1.66933 200.874 1.59467 200.895 1.52C200.906 1.44533 200.943 1.38133 201.007 1.328C201.071 1.264 201.162 1.232 201.279 1.232C201.684 1.24267 202.154 1.28533 202.687 1.36C203.231 1.424 203.695 1.51467 204.079 1.632C204.143 1.664 204.196 1.728 204.239 1.824C204.292 1.90933 204.303 2.01067 204.271 2.128C204.207 2.288 204.159 2.448 204.127 2.608C204.106 2.768 204.095 2.928 204.095 3.088V12.784ZM199.743 8.976C199.562 9.41333 199.306 9.792 198.975 10.112C198.644 10.432 198.25 10.6773 197.791 10.848C197.343 11.0187 196.852 11.104 196.319 11.104C195.775 11.104 195.274 11.0187 194.815 10.848C194.367 10.6667 193.978 10.416 193.647 10.096C193.316 9.776 193.06 9.39733 192.879 8.96C192.698 8.512 192.607 8.02133 192.607 7.488C192.607 6.944 192.698 6.45333 192.879 6.016C193.06 5.568 193.316 5.18933 193.647 4.88C193.978 4.57067 194.367 4.33067 194.815 4.16C195.274 3.97867 195.775 3.888 196.319 3.888C196.852 3.888 197.343 3.97867 197.791 4.16C198.25 4.33067 198.644 4.57067 198.975 4.88C199.306 5.18933 199.562 5.568 199.743 6.016C199.935 6.45333 200.031 6.944 200.031 7.488C200.031 8.032 199.935 8.528 199.743 8.976ZM196.319 10.112C197.012 10.112 197.562 9.856 197.967 9.344C198.372 8.832 198.575 8.208 198.575 7.472C198.575 6.736 198.372 6.112 197.967 5.6C197.562 5.088 197.012 4.832 196.319 4.832C195.615 4.832 195.066 5.088 194.671 5.6C194.276 6.112 194.079 6.736 194.079 7.472C194.079 7.83467 194.127 8.176 194.223 8.496C194.33 8.816 194.479 9.09333 194.671 9.328C194.863 9.57333 195.098 9.76533 195.375 9.904C195.652 10.0427 195.967 10.112 196.319 10.112ZM218.152 10.208C218.152 11.072 218.072 11.7813 217.912 12.336C217.752 12.8907 217.56 13.168 217.336 13.168C217.122 13.1787 216.978 12.9653 216.904 12.528C216.84 12.0907 216.808 11.568 216.808 10.96V9.008C216.392 9.168 215.874 9.34933 215.256 9.552C214.637 9.744 213.992 9.92533 213.32 10.096C212.637 10.2773 211.954 10.432 211.272 10.56C210.589 10.688 209.981 10.768 209.448 10.8C208.989 10.832 208.658 10.7627 208.456 10.592C208.253 10.4213 208.152 10.1013 208.152 9.632V7.664C208.152 7.376 208.061 7.18933 207.88 7.104C207.698 7.008 207.48 6.93867 207.224 6.896C207.117 6.88533 207.042 6.84267 207 6.768C206.957 6.69333 206.941 6.61867 206.952 6.544C206.973 6.46933 207.016 6.4 207.08 6.336C207.154 6.272 207.25 6.23467 207.368 6.224C207.656 6.224 208.034 6.24 208.504 6.272C208.973 6.304 209.378 6.34133 209.72 6.384C209.805 6.39467 209.976 6.40533 210.232 6.416C210.498 6.416 210.786 6.416 211.096 6.416C211.394 6.416 211.682 6.416 211.96 6.416C212.248 6.40533 212.466 6.39467 212.616 6.384V4.112C212.424 4.112 212.21 4.11733 211.976 4.128C211.741 4.128 211.512 4.13333 211.288 4.144C211.064 4.15467 210.856 4.16533 210.664 4.176C210.482 4.18667 210.349 4.192 210.264 4.192C210.072 4.21333 209.89 4.24 209.72 4.272C209.56 4.304 209.389 4.352 209.208 4.416C209.122 4.448 209.026 4.464 208.92 4.464C208.813 4.464 208.669 4.43733 208.488 4.384C208.349 4.352 208.184 4.288 207.992 4.192C207.8 4.096 207.597 3.984 207.384 3.856C207.192 3.728 207.112 3.60533 207.144 3.488C207.186 3.37067 207.352 3.31733 207.64 3.328C207.789 3.33867 207.949 3.34933 208.12 3.36C208.301 3.37067 208.482 3.38133 208.664 3.392C208.834 3.41333 209.01 3.42933 209.192 3.44C209.373 3.45067 209.554 3.456 209.736 3.456C210.024 3.47733 210.397 3.48267 210.856 3.472C211.325 3.46133 211.714 3.44 212.024 3.408C212.13 3.408 212.221 3.40267 212.296 3.392C212.37 3.37067 212.424 3.34933 212.456 3.328C212.498 3.30667 212.557 3.28 212.632 3.248C212.717 3.216 212.792 3.19467 212.856 3.184C213.069 3.17333 213.282 3.17333 213.496 3.184C213.72 3.184 213.928 3.2 214.12 3.232C214.28 3.27467 214.37 3.35467 214.392 3.472C214.413 3.57867 214.402 3.68533 214.36 3.792C214.338 3.84533 214.312 3.89333 214.28 3.936C214.258 3.97867 214.237 4.02133 214.216 4.064C214.194 4.11733 214.173 4.16533 214.152 4.208C214.13 4.25067 214.12 4.29333 214.12 4.336L213.72 6.432C213.858 6.44267 213.97 6.48 214.056 6.544C214.152 6.608 214.2 6.69333 214.2 6.8C214.2 6.896 214.152 6.98133 214.056 7.056C213.97 7.12 213.832 7.152 213.64 7.152H209.56V9.2C209.56 9.36 209.618 9.46667 209.736 9.52C209.864 9.57333 210.008 9.6 210.168 9.6C210.53 9.6 211.005 9.55733 211.592 9.472C212.189 9.38667 212.808 9.28 213.448 9.152C214.088 9.024 214.706 8.89067 215.304 8.752C215.912 8.60267 216.413 8.45867 216.808 8.32V3.392C216.808 3.136 216.786 2.92267 216.744 2.752C216.701 2.58133 216.61 2.448 216.472 2.352C216.29 2.224 216.077 2.12267 215.832 2.048C215.597 1.97333 215.368 1.91467 215.144 1.872C215.058 1.86133 215 1.81867 214.968 1.744C214.936 1.66933 214.93 1.59467 214.952 1.52C214.962 1.44533 215 1.38133 215.064 1.328C215.128 1.264 215.218 1.232 215.336 1.232C215.741 1.24267 216.216 1.28533 216.76 1.36C217.304 1.424 217.768 1.51467 218.152 1.632C218.216 1.664 218.269 1.728 218.312 1.824C218.354 1.90933 218.36 2.01067 218.328 2.128C218.274 2.288 218.232 2.45333 218.2 2.624C218.178 2.784 218.162 2.944 218.152 3.104V6.656C218.397 6.64533 218.632 6.61867 218.856 6.576C219.08 6.52267 219.261 6.432 219.4 6.304C219.464 6.24 219.65 6.20267 219.96 6.192C220.269 6.18133 220.546 6.192 220.792 6.224C221.058 6.288 221.25 6.384 221.368 6.512C221.485 6.62933 221.533 6.752 221.512 6.88C221.49 7.008 221.4 7.12 221.24 7.216C221.09 7.30133 220.882 7.344 220.616 7.344H218.152V10.208ZM215.96 15.024C216.12 15.024 216.306 15.008 216.52 14.976C216.733 14.9547 216.946 14.8907 217.16 14.784C217.192 14.7627 217.245 14.7307 217.32 14.688C217.394 14.656 217.48 14.6347 217.576 14.624C217.789 14.6133 218.013 14.6133 218.248 14.624C218.482 14.6347 218.696 14.6507 218.888 14.672C219.101 14.704 219.261 14.7733 219.368 14.88C219.485 14.9973 219.544 15.12 219.544 15.248C219.544 15.376 219.485 15.488 219.368 15.584C219.261 15.6907 219.096 15.744 218.872 15.744L212.792 15.808C212.365 15.8187 211.986 15.7493 211.656 15.6C211.336 15.4507 211.176 15.12 211.176 14.608V13.184C211.176 13.0773 211.16 12.9653 211.128 12.848C211.096 12.72 211.032 12.624 210.936 12.56C210.818 12.496 210.669 12.4427 210.488 12.4C210.317 12.3467 210.114 12.304 209.88 12.272C209.805 12.272 209.752 12.24 209.72 12.176C209.688 12.1013 209.682 12.0267 209.704 11.952C209.714 11.8773 209.746 11.808 209.8 11.744C209.864 11.6693 209.949 11.6267 210.056 11.616C210.194 11.616 210.37 11.616 210.584 11.616C210.808 11.616 211.037 11.6213 211.272 11.632C211.517 11.6427 211.752 11.6587 211.976 11.68C212.21 11.6907 212.418 11.712 212.6 11.744C212.664 11.776 212.712 11.8453 212.744 11.952C212.776 12.048 212.776 12.1493 212.744 12.256C212.722 12.32 212.706 12.4373 212.696 12.608C212.685 12.7787 212.68 12.928 212.68 13.056V14.56C212.68 14.752 212.738 14.88 212.856 14.944C212.973 15.0187 213.112 15.056 213.272 15.056L215.96 15.024ZM225.777 14.048C225.777 14.3147 225.686 14.5333 225.505 14.704C225.323 14.8853 225.094 14.976 224.817 14.976C224.55 14.976 224.326 14.8853 224.145 14.704C223.974 14.5333 223.889 14.3147 223.889 14.048C223.889 13.7813 223.974 13.5627 224.145 13.392C224.326 13.2107 224.55 13.12 224.817 13.12C225.094 13.12 225.323 13.2107 225.505 13.392C225.686 13.5627 225.777 13.7813 225.777 14.048ZM223.185 4.576C223.206 4.672 223.259 4.77867 223.345 4.896C223.409 4.96 223.478 5.04 223.553 5.136C223.638 5.232 223.681 5.344 223.681 5.472C223.681 5.74933 223.595 5.95733 223.424 6.096C223.265 6.23467 223.051 6.304 222.785 6.304C222.539 6.304 222.347 6.21333 222.209 6.032C222.081 5.84 222.017 5.584 222.017 5.264C222.017 4.86933 222.081 4.496 222.209 4.144C222.337 3.78133 222.523 3.46667 222.769 3.2C223.014 2.93333 223.318 2.72 223.681 2.56C224.043 2.4 224.459 2.32 224.929 2.32C225.963 2.32 226.747 2.57067 227.281 3.072C227.825 3.57333 228.097 4.256 228.097 5.12C228.097 5.472 228.043 5.80267 227.937 6.112C227.83 6.41067 227.686 6.69867 227.505 6.976C227.334 7.25333 227.142 7.52 226.929 7.776C226.715 8.02133 226.497 8.26133 226.273 8.496C225.867 8.92267 225.585 9.39733 225.424 9.92C225.275 10.4427 225.201 11.0773 225.201 11.824C225.201 11.9093 225.179 11.984 225.137 12.048C225.105 12.1013 225.03 12.128 224.913 12.128C224.774 12.128 224.689 12.0267 224.657 11.824C224.507 11.0453 224.513 10.336 224.673 9.696C224.833 9.056 225.142 8.45867 225.601 7.904C225.974 7.456 226.267 7.00267 226.481 6.544C226.694 6.07467 226.801 5.568 226.801 5.024C226.801 4.75733 226.758 4.50667 226.673 4.272C226.587 4.02667 226.454 3.81333 226.273 3.632C226.102 3.45067 225.889 3.30667 225.633 3.2C225.377 3.09333 225.073 3.04 224.721 3.04C224.465 3.04 224.235 3.07733 224.033 3.152C223.841 3.22667 223.681 3.32267 223.553 3.44C223.425 3.55733 223.323 3.69067 223.249 3.84C223.185 3.98933 223.153 4.13867 223.153 4.288C223.153 4.384 223.163 4.48 223.185 4.576Z" fill="#2E2A32"/>
<path d="M128.622 265.281C126.018 265.288 124.397 266.122 124.397 267.551C124.397 268.966 126.018 269.786 128.622 269.793C131.24 269.786 132.847 268.966 132.847 267.551C132.847 266.122 131.24 265.288 128.622 265.281ZM123.14 271.666H134.132V270.941H123.14V271.666ZM124.507 276.889H132.765V272.979H124.507V276.889ZM125.286 267.551C125.272 266.587 126.592 265.992 128.622 265.992C130.652 265.992 131.972 266.587 131.972 267.551C131.972 268.494 130.652 269.082 128.622 269.096C126.592 269.082 125.272 268.494 125.286 267.551ZM125.354 276.178V273.676H131.931V276.178H125.354ZM139.245 266.99V265.705H138.411V267.018C138.397 268.938 137.044 270.538 135.267 271.188L135.731 271.898C137.181 271.324 138.35 270.169 138.849 268.658C139.361 269.991 140.482 271.017 141.829 271.529L142.321 270.859C140.599 270.258 139.238 268.74 139.245 266.99ZM137.222 274.797C137.208 276.219 138.726 277.025 141.214 277.025C143.702 277.025 145.22 276.219 145.22 274.797C145.22 273.361 143.702 272.534 141.214 272.527C138.726 272.534 137.208 273.361 137.222 274.797ZM138.069 274.797C138.056 273.833 139.286 273.231 141.214 273.238C143.142 273.231 144.372 273.833 144.372 274.797C144.372 275.733 143.142 276.321 141.214 276.328C139.286 276.321 138.056 275.733 138.069 274.797ZM141.501 268.426H144.317V272.172H145.179V265.008H144.317V267.701H141.501V268.426ZM154.626 266.977V265.623H153.792V266.922C153.785 268.85 152.459 270.463 150.716 271.133L151.181 271.83C152.589 271.263 153.737 270.101 154.236 268.604C154.756 269.93 155.877 270.989 157.224 271.502L157.702 270.805C156 270.21 154.626 268.665 154.626 266.977ZM152.315 274.879C152.309 276.253 153.799 277.025 156.267 277.025C158.728 277.025 160.204 276.253 160.204 274.879C160.204 273.519 158.728 272.732 156.267 272.732C153.799 272.732 152.309 273.519 152.315 274.879ZM153.163 274.879C153.156 273.997 154.359 273.437 156.267 273.443C158.174 273.437 159.37 273.997 159.37 274.879C159.37 275.781 158.174 276.328 156.267 276.342C154.359 276.328 153.156 275.781 153.163 274.879ZM159.247 272.404H160.108V268.986H161.968V268.248H160.108V265.008H159.247V272.404ZM172.208 265.008H171.347V271.871H172.208V268.768H174.067V268.043H172.208V265.008ZM163.417 271.078H164.333C166.814 271.071 168.271 271.003 170.034 270.654L169.911 269.93C168.216 270.265 166.78 270.354 164.333 270.34H164.278V266.553H168.749V265.842H163.417V271.078ZM164.675 276.889H172.208V272.541H164.675V276.889ZM165.509 276.164V273.252H171.347V276.164H165.509ZM185.21 265.008H184.376V277.066H185.21V265.008ZM175.079 270.203C175.086 272.726 176.098 274.339 177.649 274.332C179.146 274.339 180.145 272.855 180.24 270.518H181.983V276.438H182.817V265.281H181.983V269.779H180.233C180.117 267.503 179.126 266.074 177.649 266.074C176.098 266.074 175.086 267.681 175.079 270.203ZM175.899 270.203C175.893 268.207 176.59 266.874 177.649 266.881C178.729 266.874 179.427 268.207 179.427 270.203C179.427 272.192 178.729 273.532 177.649 273.525C176.59 273.532 175.893 272.192 175.899 270.203ZM191.144 268.412V266.088H190.282V268.412C190.275 270.613 188.73 272.931 187.056 273.785L187.616 274.469C188.97 273.73 190.2 272.11 190.727 270.258C191.26 272.021 192.497 273.539 193.864 274.25L194.384 273.539C192.709 272.753 191.15 270.559 191.144 268.412ZM193.071 269.943H196.106V277.08H196.954V265.008H196.106V269.219H193.071V269.943ZM53.6729 289.008H52.8252V301.08H53.6729V289.008ZM44.458 290.895H49.1611V293.615H44.4717V298.127H45.4697C47.5 298.127 49.3457 298.031 51.6357 297.676L51.5537 296.938C49.291 297.3 47.459 297.389 45.4697 297.389H45.3604V294.34H50.0225V290.156H44.458V290.895ZM61.7666 290.84V289.883H60.8779V290.84C60.8711 293.021 58.2734 294.818 56.3799 295.188L56.79 295.926C58.499 295.495 60.5635 294.183 61.3291 292.337C62.0947 294.189 64.1729 295.502 65.8682 295.926L66.292 295.188C64.3916 294.825 61.7666 293 61.7666 290.84ZM55.8604 299.371H66.9072V298.646H55.8604V299.371ZM77.9131 289.008H77.0518V293.068H73.1279V293.793H77.0518V301.08H77.9131V289.008ZM68.6299 298.127H69.5459C71.5283 298.127 73.1758 298.018 75.0967 297.621L74.9873 296.91C73.1279 297.286 71.4873 297.375 69.5459 297.389H69.5049V290.375H68.6299V298.127ZM91.0791 294.668H80.0459V295.365H91.0791V294.668ZM81.3994 297.129H88.8232V298.291H81.4268V300.889H90.0947V300.232H82.2744V298.934H89.6846V296.459H81.3994V297.129ZM81.4541 290.061H88.7822V291.182H81.4951V293.643H89.8486V292.986H82.3428V291.797H89.6436V289.418H81.4541V290.061ZM105.831 289.008H104.997V293.834H103.11V289.281H102.29V300.438H103.11V294.572H104.997V301.066H105.831V289.008ZM96.0146 297.744H100.581V290.457H96.0146V297.744ZM96.8213 297.033V291.168H99.7607V297.033H96.8213ZM111.915 291.537V291.291H114.786V290.566H111.929V288.98H111.067V290.566H108.183V291.291H111.067V291.537C111.061 293.273 109.652 294.777 107.923 295.352L108.36 296.035C109.803 295.529 110.999 294.442 111.512 293.041C112.052 294.312 113.269 295.283 114.69 295.721L115.114 295.037C113.364 294.518 111.908 293.15 111.915 291.537ZM109.495 298.865C109.495 300.239 111.013 301.025 113.542 301.025C116.058 301.025 117.582 300.239 117.589 298.865C117.582 297.498 116.058 296.705 113.542 296.719C111.013 296.705 109.495 297.498 109.495 298.865ZM110.356 298.865C110.363 297.977 111.58 297.416 113.542 297.416C115.504 297.416 116.734 297.977 116.741 298.865C116.734 299.774 115.504 300.328 113.542 300.328C111.58 300.328 110.363 299.774 110.356 298.865ZM116.687 296.445H117.548V289.008H116.687V296.445ZM129.019 289.008H128.157V301.066H129.019V294.791H131.097V294.053H129.019V289.008ZM119.667 291.715H126.872V290.99H123.741V289.131H122.88V290.99H119.667V291.715ZM120.419 295.557C120.412 297.177 121.636 298.291 123.331 298.291C125.026 298.291 126.243 297.177 126.243 295.557C126.243 293.943 125.026 292.822 123.331 292.822C121.636 292.822 120.412 293.943 120.419 295.557ZM121.239 295.557C121.232 294.408 122.121 293.554 123.331 293.547C124.534 293.554 125.416 294.408 125.423 295.557C125.416 296.705 124.534 297.553 123.331 297.539C122.121 297.553 121.232 296.705 121.239 295.557ZM141.747 289.008H140.899V301.066H141.747V289.008ZM132.026 298.018L132.505 298.729C136.463 296.814 138.186 293.738 138.192 290.334H132.56V291.045H137.324C137.105 293.978 135.335 296.445 132.026 298.018ZM151.29 289.609C149.506 289.609 148.234 290.587 148.241 292.043C148.234 293.506 149.506 294.497 151.29 294.49C153.088 294.497 154.366 293.506 154.366 292.043C154.366 290.587 153.088 289.609 151.29 289.609ZM147.271 295.611L147.394 296.377C148.439 296.37 149.656 296.356 150.935 296.302V300.684H151.796V296.254C153.013 296.179 154.264 296.056 155.474 295.844L155.405 295.174C152.691 295.57 149.567 295.618 147.271 295.611ZM149.075 292.043C149.062 291.059 149.998 290.327 151.29 290.334C152.609 290.327 153.539 291.059 153.546 292.043C153.539 293.055 152.609 293.772 151.29 293.766C149.998 293.772 149.062 293.055 149.075 292.043ZM156.349 301.08H157.196V289.008H156.349V301.08ZM165.509 291.168H162.884V289.377H162.009V291.168H159.384V291.879H165.509V291.168ZM159.862 295.488C159.855 297.088 160.942 298.209 162.446 298.209C163.943 298.209 165.03 297.088 165.03 295.488C165.03 293.902 163.943 292.788 162.446 292.781C160.942 292.788 159.855 293.902 159.862 295.488ZM160.642 295.488C160.635 294.381 161.394 293.533 162.446 293.52C163.492 293.533 164.258 294.381 164.265 295.488C164.258 296.609 163.492 297.45 162.446 297.443C161.394 297.45 160.635 296.609 160.642 295.488ZM166.192 300.451H166.999V294.873H168.817V301.066H169.638V289.008H168.817V294.148H166.999V289.309H166.192V300.451ZM178.812 292.412V290.088H177.964V292.412C177.95 294.6 176.405 296.91 174.737 297.771L175.298 298.455C176.631 297.717 177.861 296.124 178.395 294.292C178.941 296.021 180.158 297.512 181.478 298.223L182.011 297.525C180.37 296.712 178.798 294.524 178.812 292.412ZM183.31 301.066H184.171V294.736H186.249V293.971H184.171V289.008H183.31V301.066ZM197.979 295.051H195.177V293.253C196.147 292.884 196.694 292.275 196.694 291.455C196.694 290.054 195.088 289.247 192.47 289.254C189.852 289.247 188.245 290.054 188.245 291.455C188.245 292.282 188.799 292.897 189.79 293.267V295.051H186.987V295.775H197.979V295.051ZM188.327 298.906C188.327 300.273 189.879 301.032 192.483 301.039C195.061 301.032 196.612 300.273 196.612 298.906C196.612 297.546 195.061 296.787 192.483 296.801C189.879 296.787 188.327 297.546 188.327 298.906ZM189.134 291.455C189.12 290.519 190.419 289.938 192.47 289.938C194.514 289.938 195.819 290.519 195.819 291.455C195.819 292.405 194.514 292.973 192.47 292.973C190.419 292.973 189.12 292.405 189.134 291.455ZM189.202 298.906C189.202 298.024 190.46 297.478 192.483 297.471C194.486 297.478 195.744 298.024 195.751 298.906C195.744 299.802 194.486 300.349 192.483 300.342C190.46 300.349 189.202 299.802 189.202 298.906ZM190.651 295.051V293.499C191.185 293.602 191.793 293.656 192.47 293.656C193.167 293.656 193.789 293.602 194.329 293.492V295.051H190.651ZM206.278 294.312H200.96V290.895H206.224V290.17H200.112V295.037H202.683V297.566C201.445 297.607 200.235 297.621 199.155 297.621L199.292 298.373C201.609 298.366 204.59 298.312 207.276 297.908L207.208 297.266C206.032 297.402 204.781 297.484 203.544 297.539V295.037H206.278V294.312ZM208.042 301.08H208.903V289.008H208.042V301.08ZM220.921 292.768H213.565V289.445H212.718V293.492H220.921V292.768ZM211.173 295.953H222.206V295.242H211.173V295.953ZM212.663 300.766H220.989V300.027H213.511V297.266H212.663V300.766ZM236.603 289.008H235.741V292.221H233.13V292.945H235.741V296.199H236.603V289.008ZM226.745 295.352L227.196 296.049C228.632 295.488 229.821 294.319 230.334 292.85C230.847 294.142 231.961 295.188 233.321 295.693L233.772 294.996C232.063 294.401 230.737 292.897 230.737 291.277V290.662H233.526V289.938H227.046V290.662H229.876V291.291C229.876 293.082 228.475 294.709 226.745 295.352ZM228.646 298.824C228.632 300.232 230.149 301.039 232.638 301.053C235.126 301.039 236.644 300.232 236.644 298.824C236.644 297.423 235.126 296.603 232.638 296.609C230.149 296.603 228.632 297.423 228.646 298.824ZM229.493 298.824C229.479 297.881 230.71 297.3 232.638 297.293C234.565 297.3 235.796 297.881 235.796 298.824C235.796 299.761 234.565 300.349 232.638 300.342C230.71 300.349 229.479 299.761 229.493 298.824ZM249.81 298.742H244.683V296.021H248.415V289.883H247.567V292.152H240.978V289.883H240.103V296.021H243.821V298.742H238.763V299.48H249.81V298.742ZM240.978 295.297V292.877H247.567V295.297H240.978ZM261.157 289.008H260.323V301.066H261.157V289.008ZM251.026 294.203C251.033 296.726 252.045 298.339 253.597 298.332C255.094 298.339 256.092 296.855 256.188 294.518H257.931V300.438H258.765V289.281H257.931V293.779H256.181C256.064 291.503 255.073 290.074 253.597 290.074C252.045 290.074 251.033 291.681 251.026 294.203ZM251.847 294.203C251.84 292.207 252.537 290.874 253.597 290.881C254.677 290.874 255.374 292.207 255.374 294.203C255.374 296.192 254.677 297.532 253.597 297.525C252.537 297.532 251.84 296.192 251.847 294.203ZM274.009 298.729H271.165V295.352C272.197 294.825 272.819 293.971 272.819 292.891C272.819 291.038 271.015 289.828 268.444 289.814C265.895 289.828 264.083 291.038 264.083 292.891C264.083 293.984 264.726 294.853 265.778 295.372V298.729H262.962V299.467H274.009V298.729ZM264.903 292.891C264.903 291.482 266.387 290.532 268.444 290.539C270.495 290.532 271.999 291.482 271.999 292.891C271.999 294.271 270.495 295.235 268.444 295.229C266.387 295.235 264.903 294.271 264.903 292.891ZM266.626 298.729V295.693C267.173 295.844 267.781 295.926 268.444 295.926C269.121 295.926 269.75 295.844 270.304 295.687V298.729H266.626ZM276.251 300.068C276.647 300.075 276.976 299.74 276.976 299.344C276.976 298.94 276.647 298.612 276.251 298.605C275.848 298.612 275.513 298.94 275.513 299.344C275.513 299.74 275.848 300.075 276.251 300.068ZM63.1748 314.977V313.623H62.3408V314.922C62.334 316.85 61.0078 318.463 59.2646 319.133L59.7295 319.83C61.1377 319.263 62.2861 318.101 62.7852 316.604C63.3047 317.93 64.4258 318.989 65.7725 319.502L66.251 318.805C64.5488 318.21 63.1748 316.665 63.1748 314.977ZM60.8643 322.879C60.8574 324.253 62.3477 325.025 64.8154 325.025C67.2764 325.025 68.7529 324.253 68.7529 322.879C68.7529 321.519 67.2764 320.732 64.8154 320.732C62.3477 320.732 60.8574 321.519 60.8643 322.879ZM61.7119 322.879C61.7051 321.997 62.9082 321.437 64.8154 321.443C66.7227 321.437 67.9189 321.997 67.9189 322.879C67.9189 323.781 66.7227 324.328 64.8154 324.342C62.9082 324.328 61.7051 323.781 61.7119 322.879ZM67.7959 320.404H68.6572V316.986H70.5166V316.248H68.6572V313.008H67.7959V320.404ZM80.7568 313.008H79.8955V319.871H80.7568V316.768H82.6162V316.043H80.7568V313.008ZM71.9658 319.078H72.8818C75.3633 319.071 76.8193 319.003 78.583 318.654L78.46 317.93C76.7646 318.265 75.3291 318.354 72.8818 318.34H72.8271V314.553H77.2979V313.842H71.9658V319.078ZM73.2236 324.889H80.7568V320.541H73.2236V324.889ZM74.0576 324.164V321.252H79.8955V324.164H74.0576ZM88.9463 313.227C86.2939 313.227 84.7217 313.972 84.7217 315.318C84.7217 316.686 86.2939 317.438 88.9463 317.438C91.6055 317.438 93.1709 316.686 93.1709 315.318C93.1709 313.972 91.6055 313.227 88.9463 313.227ZM83.4639 319.051H94.4561V318.34H83.4639V319.051ZM84.8174 320.883H92.1729V322.113H84.8584V324.916H93.3896V324.205H85.6924V322.783H93.0068V320.199H84.8174V320.883ZM85.6104 315.318C85.6104 314.437 86.8818 313.896 88.9463 313.896C91.0244 313.896 92.2959 314.437 92.2959 315.318C92.2959 316.234 91.0244 316.761 88.9463 316.768C86.8818 316.761 85.6104 316.234 85.6104 315.318ZM103.097 316.412V314.088H102.235V316.412C102.235 318.675 100.595 320.979 98.8994 321.785L99.46 322.51C100.841 321.792 102.126 320.199 102.68 318.333C103.247 320.11 104.539 321.607 105.899 322.291L106.433 321.607C104.744 320.821 103.09 318.6 103.097 316.412ZM107.978 325.08H108.839V313.008H107.978V325.08ZM115.005 315.305V314.621H117.808V313.896H111.327V314.621H114.171V315.318C114.157 317.109 112.783 318.654 111.04 319.297L111.505 319.967C112.92 319.434 114.089 318.326 114.595 316.897C115.101 318.196 116.208 319.222 117.589 319.721L118.026 319.037C116.297 318.436 115.012 316.973 115.005 315.305ZM112.599 321.676H119.571V325.066H120.433V320.951H112.599V321.676ZM119.571 320.268H120.433V317.027H122.292V316.275H120.433V313.008H119.571V320.268ZM132.423 313.008H131.562V325.066H132.423V318.791H134.501V318.053H132.423V313.008ZM123.071 315.715H130.276V314.99H127.146V313.131H126.284V314.99H123.071V315.715ZM123.823 319.557C123.816 321.177 125.04 322.291 126.735 322.291C128.431 322.291 129.647 321.177 129.647 319.557C129.647 317.943 128.431 316.822 126.735 316.822C125.04 316.822 123.816 317.943 123.823 319.557ZM124.644 319.557C124.637 318.408 125.525 317.554 126.735 317.547C127.938 317.554 128.82 318.408 128.827 319.557C128.82 320.705 127.938 321.553 126.735 321.539C125.525 321.553 124.637 320.705 124.644 319.557ZM141.296 314.088H135.827V319.625H141.296V318.518H144.317V321.826H145.179V313.008H144.317V315.209H141.296V314.088ZM136.675 318.928V314.799H140.448V318.928H136.675ZM137.454 324.779H145.466V324.055H138.315V321.047H137.454V324.779ZM141.296 317.779V315.947H144.317V317.779H141.296ZM154.667 316.85V315.004H157.483V314.266H150.962V315.004H153.833V316.85C153.826 318.921 152.179 321.225 150.538 322.045L151.071 322.729C152.397 322.024 153.703 320.404 154.257 318.593C154.797 320.274 156.021 321.751 157.36 322.428L157.866 321.744C156.205 320.938 154.66 318.805 154.667 316.85ZM159.138 325.066H159.999V318.709H162.077V317.971H159.999V313.008H159.138V325.066ZM173.808 319.051H168.722V317.52H172.509V316.795H165.071V314.279H172.427V313.582H164.224V317.52H167.888V319.051H162.815V319.762H173.808V319.051ZM164.155 322.879C164.155 324.267 165.714 325.039 168.312 325.053C170.889 325.039 172.44 324.267 172.44 322.879C172.44 321.519 170.889 320.732 168.312 320.732C165.714 320.732 164.155 321.519 164.155 322.879ZM165.03 322.879C165.03 321.977 166.288 321.423 168.312 321.416C170.314 321.423 171.572 321.977 171.579 322.879C171.572 323.795 170.314 324.349 168.312 324.342C166.288 324.349 165.03 323.795 165.03 322.879ZM180.397 313.828C177.896 313.842 176.036 315.141 176.036 317.109C176.036 319.078 177.896 320.377 180.397 320.363C182.913 320.377 184.772 319.078 184.772 317.109C184.772 315.141 182.913 313.842 180.397 313.828ZM174.915 323.412H185.962V322.674H174.915V323.412ZM176.843 317.109C176.843 315.605 178.374 314.539 180.397 314.539C182.428 314.539 183.952 315.605 183.952 317.109C183.952 318.606 182.428 319.659 180.397 319.652C178.374 319.659 176.843 318.606 176.843 317.109ZM198.062 322.783H192.935V320.35H196.913V319.625H189.284V317.465H196.626V313.938H188.396V314.662H195.778V316.74H188.437V320.35H192.073V322.783H187.015V323.521H198.062V322.783ZM212.403 313.008H211.556V325.08H212.403V313.008ZM203.188 314.895H207.892V317.615H203.202V322.127H204.2C206.23 322.127 208.076 322.031 210.366 321.676L210.284 320.938C208.021 321.3 206.189 321.389 204.2 321.389H204.091V318.34H208.753V314.156H203.188V314.895ZM220.497 314.84V313.883H219.608V314.84C219.602 317.021 217.004 318.818 215.11 319.188L215.521 319.926C217.229 319.495 219.294 318.183 220.06 316.337C220.825 318.189 222.903 319.502 224.599 319.926L225.022 319.188C223.122 318.825 220.497 317 220.497 314.84ZM214.591 323.371H225.638V322.646H214.591V323.371ZM236.644 313.008H235.782V317.068H231.858V317.793H235.782V325.08H236.644V313.008ZM227.36 322.127H228.276C230.259 322.127 231.906 322.018 233.827 321.621L233.718 320.91C231.858 321.286 230.218 321.375 228.276 321.389H228.235V314.375H227.36V322.127ZM249.085 313.008H248.251V325.066H249.085V313.008ZM238.954 318.203C238.961 320.726 239.973 322.339 241.524 322.332C243.021 322.339 244.02 320.855 244.115 318.518H245.858V324.438H246.692V313.281H245.858V317.779H244.108C243.992 315.503 243.001 314.074 241.524 314.074C239.973 314.074 238.961 315.681 238.954 318.203ZM239.774 318.203C239.768 316.207 240.465 314.874 241.524 314.881C242.604 314.874 243.302 316.207 243.302 318.203C243.302 320.192 242.604 321.532 241.524 321.525C240.465 321.532 239.768 320.192 239.774 318.203ZM261.171 313.008H260.337V325.066H261.171V313.008ZM250.944 321.799L251.464 322.428C253.139 321.43 254.321 320.172 255.066 318.764H257.821V324.424H258.655V313.35H257.821V318.053H255.401C255.859 316.952 256.071 315.77 256.071 314.566H251.423V315.305H255.217C255.032 317.868 253.631 320.199 250.944 321.799ZM100.834 341.902H98.7969V337.008H97.9355V349.066H98.7969V342.641H100.834V341.902ZM90.0469 345.963H90.9766C92.8359 345.963 94.6748 345.833 96.7734 345.416L96.6641 344.664C94.6201 345.095 92.7949 345.231 90.9766 345.225H90.8945V338.197H90.0469V345.963ZM105.564 337.91C103.671 337.91 102.338 339.038 102.338 340.699C102.338 342.36 103.671 343.488 105.564 343.488C107.458 343.488 108.784 342.36 108.791 340.699C108.784 339.038 107.458 337.91 105.564 337.91ZM101.682 345.594L101.818 346.359C104.013 346.359 107.014 346.353 109.803 345.84L109.734 345.184C107.034 345.594 103.938 345.607 101.682 345.594ZM103.186 340.699C103.179 339.517 104.177 338.676 105.564 338.676C106.945 338.676 107.943 339.517 107.943 340.699C107.943 341.882 106.945 342.729 105.564 342.723C104.177 342.729 103.179 341.882 103.186 340.699ZM110.568 349.08H111.43V337.008H110.568V349.08ZM127.029 337.008H126.168V338.977H122.907C122.36 338.238 121.458 337.794 120.398 337.787C118.601 337.801 117.288 339.024 117.295 340.781C117.288 342.538 118.601 343.762 120.398 343.762C121.472 343.762 122.381 343.311 122.928 342.559H126.168V345.963H127.029V337.008ZM118.115 340.781C118.122 339.517 119.072 338.573 120.398 338.566C121.684 338.573 122.654 339.517 122.654 340.781C122.654 342.053 121.684 342.996 120.398 342.996C119.072 342.996 118.122 342.053 118.115 340.781ZM119.373 348.779H127.385V348.055H120.234V345.006H119.373V348.779ZM123.304 339.701H126.168V341.834H123.311C123.427 341.513 123.488 341.157 123.488 340.781C123.488 340.392 123.42 340.029 123.304 339.701ZM131.924 338.074C130.372 338.074 129.36 339.681 129.354 342.203C129.36 344.726 130.372 346.339 131.924 346.332C133.489 346.339 134.508 344.726 134.521 342.203C134.508 339.681 133.489 338.074 131.924 338.074ZM130.174 342.203C130.167 340.207 130.864 338.874 131.924 338.881C133.004 338.874 133.701 340.207 133.701 342.203C133.701 344.192 133.004 345.532 131.924 345.525C130.864 345.532 130.167 344.192 130.174 342.203ZM135.943 348.438H136.764V342.572H138.65V349.066H139.484V337.008H138.65V341.834H136.764V337.281H135.943V348.438ZM155.686 343.926H144.652V344.65H147.619V349.066H148.508V344.65H151.816V349.066H152.678V344.65H155.686V343.926ZM145.951 340.125C145.944 341.718 147.633 342.716 150.148 342.709C152.664 342.716 154.346 341.718 154.346 340.125C154.346 338.525 152.664 337.514 150.148 337.514C147.633 337.514 145.944 338.525 145.951 340.125ZM146.826 340.125C146.819 338.983 148.18 338.225 150.148 338.225C152.11 338.225 153.464 338.983 153.471 340.125C153.464 341.253 152.11 342.005 150.148 341.998C148.18 342.005 146.819 341.253 146.826 340.125ZM163.643 338.43H160.662V336.898H159.814V338.43H156.766V339.141H163.643V338.43ZM157.531 342.066C157.518 343.413 158.611 344.288 160.238 344.281C161.831 344.288 162.938 343.413 162.945 342.066C162.938 340.713 161.831 339.831 160.238 339.838C158.611 339.831 157.518 340.713 157.531 342.066ZM158.338 342.066C158.331 341.15 159.09 340.515 160.238 340.508C161.359 340.515 162.132 341.15 162.139 342.066C162.132 342.976 161.359 343.611 160.238 343.611C159.09 343.611 158.331 342.976 158.338 342.066ZM158.748 346.988C158.755 348.28 160.259 349.025 162.781 349.025C165.276 349.025 166.78 348.28 166.773 346.988C166.78 345.683 165.276 344.951 162.781 344.951C160.259 344.951 158.755 345.683 158.748 346.988ZM159.637 346.988C159.637 346.141 160.854 345.642 162.781 345.635C164.675 345.642 165.878 346.141 165.885 346.988C165.878 347.829 164.675 348.349 162.781 348.342C160.854 348.349 159.637 347.829 159.637 346.988ZM163.588 343.037H165.844V344.842H166.705V337.008H165.844V339.988H163.588V340.713H165.844V342.312H163.588V343.037ZM178.764 337.008H177.902V349.08H178.764V337.008ZM169.344 342.135C169.344 344.678 170.608 346.305 172.393 346.305C174.163 346.305 175.441 344.678 175.441 342.135C175.441 339.599 174.163 337.972 172.393 337.965C170.608 337.972 169.344 339.599 169.344 342.135ZM170.178 342.135C170.178 340.118 171.087 338.737 172.393 338.73C173.698 338.737 174.601 340.118 174.594 342.135C174.601 344.151 173.698 345.539 172.393 345.539C171.087 345.539 170.178 344.151 170.178 342.135ZM189.797 344.65C187.227 344.657 185.6 345.464 185.6 346.852C185.6 348.219 187.227 349.025 189.797 349.025C192.374 349.025 194.008 348.219 194.021 346.852C194.008 345.464 192.374 344.657 189.797 344.65ZM184.342 343.42H195.334V342.709H189.879V340.303H189.031V342.709H184.342V343.42ZM185.668 338.361H193.051V338.676C193.051 339.626 193.051 340.521 192.723 341.766L193.57 341.861C193.898 340.617 193.898 339.653 193.898 338.676V337.637H185.668V338.361ZM186.461 346.852C186.447 345.929 187.794 345.341 189.797 345.334C191.813 345.341 193.14 345.929 193.146 346.852C193.14 347.747 191.813 348.328 189.797 348.328C187.794 348.328 186.447 347.747 186.461 346.852ZM207.461 343.926H196.428V344.65H199.395V349.066H200.283V344.65H203.592V349.066H204.453V344.65H207.461V343.926ZM197.727 340.125C197.72 341.718 199.408 342.716 201.924 342.709C204.439 342.716 206.121 341.718 206.121 340.125C206.121 338.525 204.439 337.514 201.924 337.514C199.408 337.514 197.72 338.525 197.727 340.125ZM198.602 340.125C198.595 338.983 199.955 338.225 201.924 338.225C203.886 338.225 205.239 338.983 205.246 340.125C205.239 341.253 203.886 342.005 201.924 341.998C199.955 342.005 198.595 341.253 198.602 340.125ZM215.732 342.312H210.414V338.895H215.678V338.17H209.566V343.037H212.137V345.566C210.899 345.607 209.689 345.621 208.609 345.621L208.746 346.373C211.063 346.366 214.044 346.312 216.73 345.908L216.662 345.266C215.486 345.402 214.235 345.484 212.998 345.539V343.037H215.732V342.312ZM217.496 349.08H218.357V337.008H217.496V349.08ZM223.854 337.965C222.09 337.972 220.859 339.599 220.873 342.135C220.859 344.678 222.09 346.305 223.854 346.305C225.542 346.305 226.738 344.794 226.827 342.408H229.732V349.08H230.58V337.008H229.732V341.697H226.82C226.684 339.414 225.501 337.972 223.854 337.965ZM221.693 342.135C221.687 340.118 222.575 338.737 223.854 338.73C225.125 338.737 226.021 340.118 226.014 342.135C226.021 344.151 225.125 345.539 223.854 345.539C222.575 345.539 221.687 344.151 221.693 342.135ZM83.293 361.008H82.4316V373.066H83.293V366.6H85.3711V365.834H83.293V361.008ZM74.543 370.127H80.1074V362.047H79.2598V365.314H75.3906V362.047H74.543V370.127ZM75.3906 369.402V366.025H79.2598V369.402H75.3906ZM97.1562 370.783H92.0293V368.35H96.0078V367.625H88.3789V365.465H95.7207V361.938H87.4902V362.662H94.873V364.74H87.5312V368.35H91.168V370.783H86.1094V371.521H97.1562V370.783ZM105.496 362.977V361.623H104.662V362.922C104.655 364.85 103.329 366.463 101.586 367.133L102.051 367.83C103.459 367.263 104.607 366.101 105.106 364.604C105.626 365.93 106.747 366.989 108.094 367.502L108.572 366.805C106.87 366.21 105.496 364.665 105.496 362.977ZM103.186 370.879C103.179 372.253 104.669 373.025 107.137 373.025C109.598 373.025 111.074 372.253 111.074 370.879C111.074 369.519 109.598 368.732 107.137 368.732C104.669 368.732 103.179 369.519 103.186 370.879ZM104.033 370.879C104.026 369.997 105.229 369.437 107.137 369.443C109.044 369.437 110.24 369.997 110.24 370.879C110.24 371.781 109.044 372.328 107.137 372.342C105.229 372.328 104.026 371.781 104.033 370.879ZM110.117 368.404H110.979V364.986H112.838V364.248H110.979V361.008H110.117V368.404ZM123.078 361.008H122.217V367.871H123.078V364.768H124.938V364.043H123.078V361.008ZM114.287 367.078H115.203C117.685 367.071 119.141 367.003 120.904 366.654L120.781 365.93C119.086 366.265 117.65 366.354 115.203 366.34H115.148V362.553H119.619V361.842H114.287V367.078ZM115.545 372.889H123.078V368.541H115.545V372.889ZM116.379 372.164V369.252H122.217V372.164H116.379ZM131.268 361.227C128.615 361.227 127.043 361.972 127.043 363.318C127.043 364.686 128.615 365.438 131.268 365.438C133.927 365.438 135.492 364.686 135.492 363.318C135.492 361.972 133.927 361.227 131.268 361.227ZM125.785 367.051H136.777V366.34H125.785V367.051ZM127.139 368.883H134.494V370.113H127.18V372.916H135.711V372.205H128.014V370.783H135.328V368.199H127.139V368.883ZM127.932 363.318C127.932 362.437 129.203 361.896 131.268 361.896C133.346 361.896 134.617 362.437 134.617 363.318C134.617 364.234 133.346 364.761 131.268 364.768C129.203 364.761 127.932 364.234 127.932 363.318ZM145.418 364.412V362.088H144.557V364.412C144.557 366.675 142.916 368.979 141.221 369.785L141.781 370.51C143.162 369.792 144.447 368.199 145.001 366.333C145.568 368.11 146.86 369.607 148.221 370.291L148.754 369.607C147.065 368.821 145.411 366.6 145.418 364.412ZM150.299 373.08H151.16V361.008H150.299V373.08ZM157.326 363.305V362.621H160.129V361.896H153.648V362.621H156.492V363.318C156.479 365.109 155.104 366.654 153.361 367.297L153.826 367.967C155.241 367.434 156.41 366.326 156.916 364.897C157.422 366.196 158.529 367.222 159.91 367.721L160.348 367.037C158.618 366.436 157.333 364.973 157.326 363.305ZM154.92 369.676H161.893V373.066H162.754V368.951H154.92V369.676ZM161.893 368.268H162.754V365.027H164.613V364.275H162.754V361.008H161.893V368.268ZM174.854 360.953H173.992V367.666H174.854V364.713H176.727V363.988H174.854V360.953ZM165.502 362.867H172.693V362.17H169.521V360.857H168.674V362.17H165.502V362.867ZM166.213 365.479C166.206 366.709 167.348 367.461 169.098 367.461C170.834 367.461 171.962 366.709 171.969 365.479C171.962 364.255 170.834 363.503 169.098 363.496C167.348 363.503 166.206 364.255 166.213 365.479ZM167.033 365.479C167.026 364.692 167.847 364.159 169.098 364.152C170.328 364.159 171.148 364.692 171.162 365.479C171.148 366.278 170.328 366.798 169.098 366.791C167.847 366.798 167.026 366.278 167.033 365.479ZM167.252 369.006H173.992V370.223H167.279V372.916H175.318V372.219H168.127V370.893H174.854V368.336H167.252V369.006ZM186.885 362.184V361.459H185.996V362.184C185.996 364.009 183.542 365.41 181.553 365.711L181.922 366.422C183.699 366.101 185.695 365.068 186.44 363.503C187.199 365.048 189.202 366.101 190.973 366.422L191.328 365.711C189.346 365.41 186.878 363.975 186.885 362.184ZM180.938 368.609H185.996V373.066H186.83V368.609H191.93V367.871H180.938V368.609ZM200.393 369.211V368.459H199.559V369.211C199.552 370.359 198.554 371.679 197.043 372.246L197.494 372.902C198.663 372.451 199.531 371.569 199.955 370.585C200.304 371.617 201.069 372.533 202.252 372.998C203.38 372.506 204.125 371.535 204.494 370.551C204.904 371.583 205.786 372.458 207.01 372.902L207.447 372.246C205.909 371.713 204.925 370.448 204.932 369.211V368.459H204.084V369.211C204.091 370.154 203.421 371.426 202.225 372.144C201.028 371.494 200.386 370.312 200.393 369.211ZM196.729 364.535C196.722 366.189 198.027 367.311 199.846 367.311C201.664 367.311 202.956 366.189 202.963 364.535C202.956 362.867 201.664 361.739 199.846 361.746C198.027 361.739 196.722 362.867 196.729 364.535ZM197.562 364.535C197.562 363.353 198.52 362.478 199.846 362.484C201.165 362.478 202.122 363.353 202.129 364.535C202.122 365.725 201.165 366.586 199.846 366.586C198.52 366.586 197.562 365.725 197.562 364.535ZM205.465 367.926H206.326V361.008H205.465V367.926ZM210.811 368.24H209.949V372.889H218.057V368.24H217.182V369.771H210.811V368.24ZM208.514 367.311H219.506V366.572H208.514V367.311ZM209.17 364.932L209.498 365.615C211.275 365.335 213.271 364.385 214.017 362.956C214.762 364.364 216.751 365.342 218.521 365.615L218.85 364.932C216.908 364.658 214.447 363.339 214.447 361.76V361.131H213.572V361.76C213.565 363.387 211.139 364.645 209.17 364.932ZM210.811 372.178V370.482H217.182V372.178H210.811ZM230.484 361.008H229.637V373.066H230.484V361.008ZM221.434 369.908H222.391C224.346 369.908 226.232 369.751 228.379 369.307L228.256 368.555C226.185 368.999 224.277 369.143 222.391 369.143H222.281V362.197H221.434V369.908ZM241.996 361.008H241.135V373.08H241.996V366.6H244.074V365.875H241.996V361.008ZM233.26 370.031H234.189C236.534 370.024 238.093 369.956 240 369.607L239.877 368.855C238.045 369.197 236.493 369.286 234.189 369.279H234.121V362.922H238.879V362.197H233.26V370.031ZM246.002 372.068C246.398 372.075 246.727 371.74 246.727 371.344C246.727 370.94 246.398 370.612 246.002 370.605C245.599 370.612 245.264 370.94 245.264 371.344C245.264 371.74 245.599 372.075 246.002 372.068ZM59.75 385.008H58.8887V391.461H59.75V385.008ZM50.1523 388.371C50.1455 389.998 51.4512 391.112 53.2695 391.105C55.0879 391.112 56.3799 389.998 56.3867 388.371C56.3799 386.724 55.0879 385.609 53.2695 385.609C51.4512 385.609 50.1455 386.724 50.1523 388.371ZM50.9863 388.371C50.9863 387.195 51.9434 386.341 53.2695 386.348C54.5889 386.341 55.5459 387.195 55.5527 388.371C55.5459 389.526 54.5889 390.381 53.2695 390.381C51.9434 390.381 50.9863 389.526 50.9863 388.371ZM52.0254 396.889H59.75V392.104H58.9023V393.689H52.873V392.104H52.0254V396.889ZM52.873 396.178V394.4H58.9023V396.178H52.873ZM67.6387 385.746H62.4434V386.471H66.7773V388.33H62.4707V391.789H63.3047C65.7793 391.789 66.9961 391.748 68.5137 391.502L68.4316 390.764C66.9482 391.037 65.752 391.078 63.3184 391.078V389.014H67.6387V385.746ZM63.8105 393.826H71.0156V397.094H71.877V393.102H63.8105V393.826ZM68.4727 390.039H71.0156V392.418H71.877V385.008H71.0156V386.854H68.4727V387.564H71.0156V389.314H68.4727V390.039ZM81.0371 389.041H76.0879V386.539H80.9414V385.814H75.2129V389.752H77.6602V391.625C76.4023 391.673 75.1787 391.693 74.0918 391.693L74.2285 392.418C76.5117 392.418 79.4307 392.343 82.0352 391.98L81.9805 391.324C80.8867 391.454 79.7041 391.536 78.5215 391.591V389.752H81.0371V389.041ZM76.2109 396.779H84.3457V396.055H77.0586V393.416H76.2109V396.779ZM83.0605 394.018H83.9219V385.021H83.0605V394.018ZM99.4531 385.008H98.5918V388.221H95.9805V388.945H98.5918V392.199H99.4531V385.008ZM89.5957 391.352L90.0469 392.049C91.4824 391.488 92.6719 390.319 93.1846 388.85C93.6973 390.142 94.8115 391.188 96.1719 391.693L96.623 390.996C94.9141 390.401 93.5879 388.897 93.5879 387.277V386.662H96.377V385.938H89.8965V386.662H92.7266V387.291C92.7266 389.082 91.3252 390.709 89.5957 391.352ZM91.4961 394.824C91.4824 396.232 93 397.039 95.4883 397.053C97.9766 397.039 99.4941 396.232 99.4941 394.824C99.4941 393.423 97.9766 392.603 95.4883 392.609C93 392.603 91.4824 393.423 91.4961 394.824ZM92.3438 394.824C92.3301 393.881 93.5605 393.3 95.4883 393.293C97.416 393.3 98.6465 393.881 98.6465 394.824C98.6465 395.761 97.416 396.349 95.4883 396.342C93.5605 396.349 92.3301 395.761 92.3438 394.824ZM112.66 394.742H107.533V392.021H111.266V385.883H110.418V388.152H103.828V385.883H102.953V392.021H106.672V394.742H101.613V395.48H112.66V394.742ZM103.828 391.297V388.877H110.418V391.297H103.828ZM123.447 388.768H116.092V385.445H115.244V389.492H123.447V388.768ZM113.699 391.953H124.732V391.242H113.699V391.953ZM115.189 396.766H123.516V396.027H116.037V393.266H115.189V396.766ZM139.102 385.008H138.254V397.08H139.102V385.008ZM129.887 386.895H134.59V389.615H129.9V394.127H130.898C132.929 394.127 134.774 394.031 137.064 393.676L136.982 392.938C134.72 393.3 132.888 393.389 130.898 393.389H130.789V390.34H135.451V386.156H129.887V386.895ZM147.195 386.84V385.883H146.307V386.84C146.3 389.021 143.702 390.818 141.809 391.188L142.219 391.926C143.928 391.495 145.992 390.183 146.758 388.337C147.523 390.189 149.602 391.502 151.297 391.926L151.721 391.188C149.82 390.825 147.195 389 147.195 386.84ZM141.289 395.371H152.336V394.646H141.289V395.371ZM163.342 385.008H162.48V389.068H158.557V389.793H162.48V397.08H163.342V385.008ZM154.059 394.127H154.975C156.957 394.127 158.604 394.018 160.525 393.621L160.416 392.91C158.557 393.286 156.916 393.375 154.975 393.389H154.934V386.375H154.059V394.127ZM174.771 385.008H173.91V397.066H174.771V390.736H176.809V389.998H174.771V385.008ZM165.625 394.018L166.104 394.701C170.007 392.78 171.668 389.67 171.682 386.32H166.158V387.045H170.8C170.588 389.957 168.838 392.425 165.625 394.018ZM190.549 386.279H182.154V387.004H189.688V387.496C189.681 388.945 189.681 390.613 189.236 392.883L190.111 392.992C190.535 390.613 190.535 388.979 190.549 387.496V386.279ZM180.965 395.275H191.957V394.537H186.242V390.176H185.395V394.537H180.965V395.275ZM199.285 386.088H193.707V391.611H199.285V386.088ZM194.541 390.9V386.812H198.451V390.9H194.541ZM195.279 396.615H203.373V395.877H196.141V392.855H195.279V396.615ZM202.115 393.717H202.977V385.008H202.115V393.717ZM210.646 385.227C207.994 385.227 206.422 385.972 206.422 387.318C206.422 388.686 207.994 389.438 210.646 389.438C213.306 389.438 214.871 388.686 214.871 387.318C214.871 385.972 213.306 385.227 210.646 385.227ZM205.164 391.051H216.156V390.34H205.164V391.051ZM206.518 392.883H213.873V394.113H206.559V396.916H215.09V396.205H207.393V394.783H214.707V392.199H206.518V392.883ZM207.311 387.318C207.311 386.437 208.582 385.896 210.646 385.896C212.725 385.896 213.996 386.437 213.996 387.318C213.996 388.234 212.725 388.761 210.646 388.768C208.582 388.761 207.311 388.234 207.311 387.318ZM231.633 390.176H220.641V390.9H231.633V390.176ZM221.994 392.787H229.35V394.1H222.035V396.902H230.566V396.191H222.869V394.783H230.184V392.09H221.994V392.787ZM222.145 389.096H230.32V388.371H223.006V386.184H230.184V385.473H222.145V389.096ZM235.953 385.965C234.189 385.972 232.959 387.599 232.973 390.135C232.959 392.678 234.189 394.305 235.953 394.305C237.642 394.305 238.838 392.794 238.927 390.408H241.832V397.08H242.68V385.008H241.832V389.697H238.92C238.783 387.414 237.601 385.972 235.953 385.965ZM233.793 390.135C233.786 388.118 234.675 386.737 235.953 386.73C237.225 386.737 238.12 388.118 238.113 390.135C238.12 392.151 237.225 393.539 235.953 393.539C234.675 393.539 233.786 392.151 233.793 390.135ZM255.832 390.121H244.84V390.846H249.898V392.199H246.193V392.883H253.549V394.182H246.234V396.916H254.766V396.205H247.068V394.838H254.383V392.199H250.76V390.846H255.832V390.121ZM245.469 388.768L245.77 389.438C247.636 389.226 249.625 388.453 250.343 387.161C251.054 388.446 253.043 389.232 254.916 389.438L255.217 388.768C253.193 388.576 250.855 387.592 250.814 386.156H254.848V385.445H245.852V386.156H249.857C249.81 387.599 247.472 388.576 245.469 388.768ZM268.273 385.295H267.467V396.451H268.273V390.736H269.914V397.066H270.748V385.008H269.914V390.012H268.273V385.295ZM260.74 393.84H261.191C261.663 393.847 262.49 393.84 263.557 393.594L263.461 392.842C262.709 393.04 262.019 393.088 261.547 393.095V387.277H263.365V386.553H260.74V393.84ZM263.912 393.84H264.391C265.074 393.847 265.949 393.833 266.988 393.539L266.879 392.787C266.072 393.04 265.307 393.088 264.705 393.102V387.277H266.592V386.553H263.912V393.84ZM53.0303 414.695H42.0381V415.434H47.0967V416.835C44.7588 416.924 43.3779 417.662 43.3779 418.934C43.3779 420.273 44.9297 421.025 47.5342 421.025C50.1113 421.025 51.6631 420.273 51.6631 418.934C51.6631 417.662 50.2822 416.924 47.958 416.835V415.434H53.0303V414.695ZM42.708 413.191L43.0361 413.875C44.8955 413.629 46.8779 412.747 47.541 411.339C48.1904 412.74 50.1797 413.629 52.0459 413.875L52.374 413.191C50.3643 412.959 48.0605 411.858 48.0674 410.334V410.293H52.0459V409.582H43.0498V410.293H47.001V410.334C47.001 411.858 44.6836 412.959 42.708 413.191ZM44.2529 418.934C44.2529 418.052 45.5107 417.525 47.5342 417.525C49.5371 417.525 50.7949 418.052 50.8018 418.934C50.7949 419.815 49.5371 420.349 47.5342 420.342C45.5107 420.349 44.2529 419.815 44.2529 418.934ZM65.1846 418.729H62.3408V415.352C63.373 414.825 63.9951 413.971 63.9951 412.891C63.9951 411.038 62.1904 409.828 59.6201 409.814C57.0703 409.828 55.2588 411.038 55.2588 412.891C55.2588 413.984 55.9014 414.853 56.9541 415.372V418.729H54.1377V419.467H65.1846V418.729ZM56.0791 412.891C56.0791 411.482 57.5625 410.532 59.6201 410.539C61.6709 410.532 63.1748 411.482 63.1748 412.891C63.1748 414.271 61.6709 415.235 59.6201 415.229C57.5625 415.235 56.0791 414.271 56.0791 412.891ZM57.8018 418.729V415.693C58.3486 415.844 58.957 415.926 59.6201 415.926C60.2969 415.926 60.9258 415.844 61.4795 415.687V418.729H57.8018ZM75.6299 409.008H74.7686V418.059H75.6299V413.82H77.4893V413.082H75.6299V409.008ZM66.2783 411.277H73.4697V410.553H70.2979V409.021H69.4502V410.553H66.2783V411.277ZM66.9893 414.244C66.9824 415.591 68.1377 416.452 69.874 416.459C71.583 416.452 72.7383 415.591 72.7451 414.244C72.7383 412.884 71.583 412.022 69.874 412.016C68.1377 412.022 66.9824 412.884 66.9893 414.244ZM67.8096 414.244C67.8027 413.328 68.6299 412.713 69.874 412.713C71.0977 412.713 71.9248 413.328 71.9385 414.244C71.9248 415.153 71.0977 415.762 69.874 415.748C68.6299 415.762 67.8027 415.153 67.8096 414.244ZM68.165 420.779H76.2178V420.055H69.0127V417.32H68.165V420.779ZM85.665 412.85V411.004H88.4814V410.266H81.96V411.004H84.8311V412.85C84.8242 414.921 83.1768 417.225 81.5361 418.045L82.0693 418.729C83.3955 418.024 84.7012 416.404 85.2549 414.593C85.7949 416.274 87.0186 417.751 88.3584 418.428L88.8643 417.744C87.2031 416.938 85.6582 414.805 85.665 412.85ZM90.1357 421.066H90.9971V414.709H93.0752V413.971H90.9971V409.008H90.1357V421.066ZM104.86 418.783H101.757V416.35H103.712V415.625H96.083V413.465H103.425V409.938H95.1943V410.662H102.577V412.74H95.2354V416.35H97.0127V418.783H93.8135V419.521H104.86V418.783ZM97.8604 418.783V416.35H100.909V418.783H97.8604ZM115.196 409.008H114.335V421.066H115.196V414.736H117.233V413.998H115.196V409.008ZM106.05 418.018L106.528 418.701C110.432 416.78 112.093 413.67 112.106 410.32H106.583V411.045H111.225C111.013 413.957 109.263 416.425 106.05 418.018ZM128.581 414.312H123.263V410.895H128.526V410.17H122.415V415.037H124.985V417.566C123.748 417.607 122.538 417.621 121.458 417.621L121.595 418.373C123.912 418.366 126.893 418.312 129.579 417.908L129.511 417.266C128.335 417.402 127.084 417.484 125.847 417.539V415.037H128.581V414.312ZM130.345 421.08H131.206V409.008H130.345V421.08ZM143.36 409.008H142.513V421.066H143.36V409.008ZM134.31 417.908H135.267C137.222 417.908 139.108 417.751 141.255 417.307L141.132 416.555C139.061 416.999 137.153 417.143 135.267 417.143H135.157V410.197H134.31V417.908ZM158.905 409.008H158.044V412.221H155.433V412.945H158.044V416.199H158.905V409.008ZM149.048 415.352L149.499 416.049C150.935 415.488 152.124 414.319 152.637 412.85C153.149 414.142 154.264 415.188 155.624 415.693L156.075 414.996C154.366 414.401 153.04 412.897 153.04 411.277V410.662H155.829V409.938H149.349V410.662H152.179V411.291C152.179 413.082 150.777 414.709 149.048 415.352ZM150.948 418.824C150.935 420.232 152.452 421.039 154.94 421.053C157.429 421.039 158.946 420.232 158.946 418.824C158.946 417.423 157.429 416.603 154.94 416.609C152.452 416.603 150.935 417.423 150.948 418.824ZM151.796 418.824C151.782 417.881 153.013 417.3 154.94 417.293C156.868 417.3 158.099 417.881 158.099 418.824C158.099 419.761 156.868 420.349 154.94 420.342C153.013 420.349 151.782 419.761 151.796 418.824ZM170.403 409.008H169.542V417.047H170.403V413.465H172.29V412.727H170.403V409.008ZM161.024 415.926L161.147 416.664C163.26 416.664 166.179 416.65 168.804 416.172L168.735 415.529C167.635 415.7 166.445 415.803 165.276 415.857V414.935C166.705 414.825 167.614 414.169 167.628 413.164C167.614 412.057 166.514 411.38 164.839 411.387C163.157 411.38 162.043 412.057 162.05 413.164C162.043 414.176 162.973 414.825 164.415 414.941V415.892C163.191 415.926 162.022 415.926 161.024 415.926ZM161.339 410.854H168.353V410.17H165.276V408.912H164.415V410.17H161.339V410.854ZM162.501 418.4H169.542V421.066H170.403V417.703H162.501V418.4ZM162.87 413.164C162.863 412.46 163.636 412.009 164.839 412.016C166.028 412.009 166.801 412.46 166.808 413.164C166.801 413.841 166.028 414.326 164.839 414.312C163.636 414.326 162.863 413.841 162.87 413.164ZM182.448 409.008H181.587V421.066H182.448V414.791H184.526V414.053H182.448V409.008ZM173.097 411.715H180.302V410.99H177.171V409.131H176.31V410.99H173.097V411.715ZM173.849 415.557C173.842 417.177 175.065 418.291 176.761 418.291C178.456 418.291 179.673 417.177 179.673 415.557C179.673 413.943 178.456 412.822 176.761 412.822C175.065 412.822 173.842 413.943 173.849 415.557ZM174.669 415.557C174.662 414.408 175.551 413.554 176.761 413.547C177.964 413.554 178.846 414.408 178.853 415.557C178.846 416.705 177.964 417.553 176.761 417.539C175.551 417.553 174.662 416.705 174.669 415.557ZM195.546 409.008H194.712V421.066H195.546V409.008ZM185.319 417.799L185.839 418.428C187.514 417.43 188.696 416.172 189.441 414.764H192.196V420.424H193.03V409.35H192.196V414.053H189.776C190.234 412.952 190.446 411.77 190.446 410.566H185.798V411.305H189.592C189.407 413.868 188.006 416.199 185.319 417.799ZM210.653 409.008H209.792V415.461H210.653V409.008ZM201.056 412.371C201.049 413.998 202.354 415.112 204.173 415.105C205.991 415.112 207.283 413.998 207.29 412.371C207.283 410.724 205.991 409.609 204.173 409.609C202.354 409.609 201.049 410.724 201.056 412.371ZM201.89 412.371C201.89 411.195 202.847 410.341 204.173 410.348C205.492 410.341 206.449 411.195 206.456 412.371C206.449 413.526 205.492 414.381 204.173 414.381C202.847 414.381 201.89 413.526 201.89 412.371ZM202.929 420.889H210.653V416.104H209.806V417.689H203.776V416.104H202.929V420.889ZM203.776 420.178V418.4H209.806V420.178H203.776ZM218.542 409.746H213.347V410.471H217.681V412.33H213.374V415.789H214.208C216.683 415.789 217.899 415.748 219.417 415.502L219.335 414.764C217.852 415.037 216.655 415.078 214.222 415.078V413.014H218.542V409.746ZM214.714 417.826H221.919V421.094H222.78V417.102H214.714V417.826ZM219.376 414.039H221.919V416.418H222.78V409.008H221.919V410.854H219.376V411.564H221.919V413.314H219.376V414.039ZM231.038 411.168H228.413V409.377H227.538V411.168H224.913V411.879H231.038V411.168ZM225.392 415.488C225.385 417.088 226.472 418.209 227.976 418.209C229.473 418.209 230.56 417.088 230.56 415.488C230.56 413.902 229.473 412.788 227.976 412.781C226.472 412.788 225.385 413.902 225.392 415.488ZM226.171 415.488C226.164 414.381 226.923 413.533 227.976 413.52C229.021 413.533 229.787 414.381 229.794 415.488C229.787 416.609 229.021 417.45 227.976 417.443C226.923 417.45 226.164 416.609 226.171 415.488ZM231.722 420.451H232.528V414.873H234.347V421.066H235.167V409.008H234.347V414.148H232.528V409.309H231.722V420.451ZM246.378 410.703V410.512H250.329V409.801H241.47V410.512H245.435V410.703C245.428 412.439 243.021 413.82 241.114 414.121L241.456 414.805C243.206 414.483 245.182 413.451 245.906 411.934C246.631 413.451 248.606 414.483 250.384 414.805L250.712 414.121C248.784 413.82 246.371 412.439 246.378 410.703ZM240.417 416.678H245.476V421.053H246.31V416.678H251.409V415.939H240.417V416.678ZM256.003 412.562V410.17H255.183V412.59C255.176 414.661 254.041 416.808 252.407 417.744L252.981 418.387C254.205 417.642 255.169 416.199 255.606 414.538C256.037 416.062 256.946 417.423 258.136 418.141L258.655 417.471C257.076 416.555 256.003 414.463 256.003 412.562ZM257.302 414.162H259.503V420.438H260.323V409.281H259.503V413.41H257.302V414.162ZM261.978 421.066H262.812V409.008H261.978V421.066ZM275.663 418.729H272.819V415.352C273.852 414.825 274.474 413.971 274.474 412.891C274.474 411.038 272.669 409.828 270.099 409.814C267.549 409.828 265.737 411.038 265.737 412.891C265.737 413.984 266.38 414.853 267.433 415.372V418.729H264.616V419.467H275.663V418.729ZM266.558 412.891C266.558 411.482 268.041 410.532 270.099 410.539C272.149 410.532 273.653 411.482 273.653 412.891C273.653 414.271 272.149 415.235 270.099 415.229C268.041 415.235 266.558 414.271 266.558 412.891ZM268.28 418.729V415.693C268.827 415.844 269.436 415.926 270.099 415.926C270.775 415.926 271.404 415.844 271.958 415.687V418.729H268.28ZM278.452 410.102H277.399L277.468 417.17H278.384L278.452 410.102ZM277.194 419.344C277.194 419.74 277.529 420.075 277.933 420.068C278.329 420.075 278.657 419.74 278.657 419.344C278.657 418.94 278.329 418.612 277.933 418.605C277.529 418.612 277.194 418.94 277.194 419.344Z" fill="#61586A"/>
<rect x="27.6328" y="218" width="69" height="26" rx="4" fill="#E6E6E6"/>
<path d="M38.4648 235H43.9141V234.25H39.6484V234.191L41.7578 231.918C43.2227 230.371 43.6562 229.656 43.6562 228.707C43.6562 227.406 42.5957 226.398 41.125 226.398C39.6367 226.398 38.5352 227.406 38.5352 228.836H39.332C39.332 227.84 40.0293 227.131 41.1016 227.137C42.1094 227.131 42.8711 227.77 42.8828 228.707C42.8711 229.51 42.4199 230.096 41.3359 231.285L38.4648 234.391V235ZM48.2031 235.117C50.0078 235.117 51.0625 233.512 51.0625 230.758C51.0625 228.021 49.9961 226.398 48.2031 226.398C46.4043 226.398 45.332 228.021 45.332 230.758C45.332 233.512 46.3926 235.117 48.2031 235.117ZM46.1523 230.758C46.1465 228.461 46.9141 227.131 48.2031 227.137C49.4805 227.131 50.248 228.461 50.2539 230.758C50.248 233.055 49.4863 234.367 48.2031 234.367C46.9082 234.367 46.1465 233.055 46.1523 230.758ZM60.9531 225.578H60.2383V229.785H58.5625V225.824H57.8711V235.363H58.5625V230.406H60.2383V235.914H60.9531V225.578ZM52.5625 233.289H53.207C54.8652 233.277 55.9023 233.23 57.1445 232.961L57.0625 232.328C55.8906 232.586 54.8887 232.645 53.3008 232.645V227.477H56.4414V226.855H52.5625V233.289ZM74.8398 230.453H65.418V231.086H69.7539V232.287C67.75 232.363 66.5664 232.996 66.5664 234.086C66.5664 235.234 67.8965 235.879 70.1289 235.879C72.3379 235.879 73.668 235.234 73.668 234.086C73.668 232.996 72.4844 232.363 70.4922 232.287V231.086H74.8398V230.453ZM65.9922 229.164L66.2734 229.75C67.8672 229.539 69.5664 228.783 70.1348 227.576C70.6914 228.777 72.3965 229.539 73.9961 229.75L74.2773 229.164C72.5547 228.965 70.5801 228.021 70.5859 226.715V226.68H73.9961V226.07H66.2852V226.68H69.6719V226.715C69.6719 228.021 67.6855 228.965 65.9922 229.164ZM67.3164 234.086C67.3164 233.33 68.3945 232.879 70.1289 232.879C71.8457 232.879 72.9238 233.33 72.9297 234.086C72.9238 234.842 71.8457 235.299 70.1289 235.293C68.3945 235.299 67.3164 234.842 67.3164 234.086ZM83.8398 225.578H83.1016V233.16H83.8398V229.41H85.4336V228.777H83.8398V225.578ZM76.2695 231.391H81.0273V226.328H80.3008V228.145H76.9961V226.328H76.2695V231.391ZM76.9961 230.781V228.742H80.3008V230.781H76.9961ZM77.4414 235.668H84.3438V235.047H78.168V232.445H77.4414V235.668Z" fill="#333333"/>
<rect x="100.633" y="218" width="41" height="26" rx="4" fill="#E6E6E6"/>
<path d="M116.328 226.68H111.676V227.301H115.596C115.561 227.986 115.438 228.648 115.227 229.275L111.148 229.551L111.312 230.207L114.998 229.867C114.336 231.332 113.111 232.604 111.137 233.582L111.559 234.156C115.191 232.357 116.322 229.604 116.328 226.68ZM116.293 230.418H118.871V235.914H119.598V225.578H118.871V229.785H116.293V230.418ZM129.957 225.906H122.363V226.504H124.027V228.719H122.375V229.305H129.934V228.719H128.293V226.504H129.957V225.906ZM121.461 230.898H130.883V230.277H121.461V230.898ZM122.621 232.504H128.926V233.512H122.656V235.785H129.969V235.188H123.371V234.074H129.641V231.918H122.621V232.504ZM124.766 228.719V226.504H127.555V228.719H124.766Z" fill="#333333"/>
<rect x="145.633" y="218" width="75" height="26" rx="4" fill="#E6E6E6"/>
<path d="M158.094 226H157.355V230.102H160.438V231.285H156.09V231.906H165.512V231.285H161.176V230.102H164.27V226H163.531V227.406H158.094V226ZM157.332 235.668H164.469V235.047H158.082V232.809H157.332V235.668ZM158.094 229.492V228.004H163.531V229.492H158.094ZM174.957 225.578H174.219V233.184H174.957V225.578ZM166.73 228.836C166.725 230.33 167.867 231.361 169.402 231.355C170.932 231.361 172.068 230.33 172.074 228.836C172.068 227.359 170.932 226.328 169.402 226.328C167.867 226.328 166.725 227.359 166.73 228.836ZM167.445 228.836C167.445 227.77 168.283 226.979 169.402 226.973C170.51 226.979 171.354 227.77 171.359 228.836C171.354 229.92 170.51 230.705 169.402 230.699C168.283 230.705 167.445 229.92 167.445 228.836ZM168.359 235.668H175.297V235.047H169.098V232.398H168.359V235.668ZM185.316 225.578H184.578V235.926H185.316V225.578ZM177.242 229.973C177.242 232.152 178.326 233.547 179.855 233.547C181.373 233.547 182.469 232.152 182.469 229.973C182.469 227.799 181.373 226.404 179.855 226.398C178.326 226.404 177.242 227.799 177.242 229.973ZM177.957 229.973C177.957 228.244 178.736 227.061 179.855 227.055C180.975 227.061 181.748 228.244 181.742 229.973C181.748 231.701 180.975 232.891 179.855 232.891C178.736 232.891 177.957 231.701 177.957 229.973ZM198.617 225.578H197.879V227.266H195.084C194.615 226.633 193.842 226.252 192.934 226.246C191.393 226.258 190.268 227.307 190.273 228.812C190.268 230.318 191.393 231.367 192.934 231.367C193.854 231.367 194.633 230.98 195.102 230.336H197.879V233.254H198.617V225.578ZM190.977 228.812C190.982 227.729 191.797 226.92 192.934 226.914C194.035 226.92 194.867 227.729 194.867 228.812C194.867 229.902 194.035 230.711 192.934 230.711C191.797 230.711 190.982 229.902 190.977 228.812ZM192.055 235.668H198.922V235.047H192.793V232.434H192.055V235.668ZM195.424 227.887H197.879V229.715H195.43C195.529 229.439 195.582 229.135 195.582 228.812C195.582 228.479 195.523 228.168 195.424 227.887ZM203.82 227.266V226.105H203.105V227.219C203.1 228.871 201.963 230.254 200.469 230.828L200.867 231.426C202.074 230.939 203.059 229.943 203.486 228.66C203.932 229.797 204.893 230.705 206.047 231.145L206.457 230.547C204.998 230.037 203.82 228.713 203.82 227.266ZM201.84 234.039C201.834 235.217 203.111 235.879 205.227 235.879C207.336 235.879 208.602 235.217 208.602 234.039C208.602 232.873 207.336 232.199 205.227 232.199C203.111 232.199 201.834 232.873 201.84 234.039ZM202.566 234.039C202.561 233.283 203.592 232.803 205.227 232.809C206.861 232.803 207.887 233.283 207.887 234.039C207.887 234.812 206.861 235.281 205.227 235.293C203.592 235.281 202.561 234.812 202.566 234.039ZM207.781 231.918H208.52V228.988H210.113V228.355H208.52V225.578H207.781V231.918Z" fill="#333333"/>
<rect x="224.633" y="218" width="72" height="26" rx="4" fill="#E6E6E6"/>
<path d="M238.289 235.117C240 235.129 241.125 233.863 241.125 232.316C241.125 230.711 239.895 229.551 238.418 229.551C237.475 229.551 236.643 230.02 236.215 230.77H236.121C236.121 228.461 236.953 227.143 238.418 227.148C239.426 227.143 240.041 227.781 240.199 228.637H241.031C240.844 227.312 239.859 226.398 238.418 226.398C236.385 226.398 235.33 228.303 235.336 231.098C235.33 234.115 236.818 235.105 238.289 235.117ZM236.262 232.363C236.197 231.273 237.111 230.289 238.301 230.289C239.455 230.289 240.311 231.197 240.316 232.316C240.311 233.453 239.449 234.373 238.289 234.379C237.17 234.373 236.35 233.5 236.262 232.363ZM251.086 225.578H250.359V229.832H248.754V225.859H248.051V235.375H248.754V230.453H250.359V235.914H251.086V225.578ZM242.332 233.125L242.777 233.664C245.771 232.006 246.715 229.486 246.715 226.938H242.695V227.559H245.994C245.865 229.727 244.852 231.748 242.332 233.125ZM261.094 225.578H260.355V230.547H258.188V231.062H260.355V231.707H261.094V225.578ZM252.609 229.562L252.703 230.148C253.57 230.148 254.549 230.143 255.574 230.107V231.754H256.301V230.078C257.361 230.031 258.451 229.943 259.488 229.797L259.441 229.281C257.191 229.545 254.613 229.574 252.609 229.562ZM253.441 227.359C253.441 228.326 254.438 228.9 255.996 228.895C257.537 228.9 258.545 228.326 258.551 227.359C258.545 226.387 257.537 225.801 255.996 225.801C254.438 225.801 253.441 226.387 253.441 227.359ZM254.145 227.359C254.133 226.75 254.871 226.334 255.996 226.328C257.109 226.334 257.848 226.75 257.848 227.359C257.848 227.957 257.109 228.379 255.996 228.367C254.871 228.379 254.133 227.957 254.145 227.359ZM254.227 232.656H260.367V233.617H254.262V235.785H261.48V235.211H254.988V234.145H261.094V232.105H254.227V232.656ZM274.406 225.578H273.668V235.926H274.406V225.578ZM266.332 229.973C266.332 232.152 267.416 233.547 268.945 233.547C270.463 233.547 271.559 232.152 271.559 229.973C271.559 227.799 270.463 226.404 268.945 226.398C267.416 226.404 266.332 227.799 266.332 229.973ZM267.047 229.973C267.047 228.244 267.826 227.061 268.945 227.055C270.064 227.061 270.838 228.244 270.832 229.973C270.838 231.701 270.064 232.891 268.945 232.891C267.826 232.891 267.047 231.701 267.047 229.973ZM284.25 225.578H283.512V235.914H284.25V230.535H286.031V229.902H284.25V225.578ZM276.234 227.898H282.41V227.277H279.727V225.684H278.988V227.277H276.234V227.898ZM276.879 231.191C276.873 232.58 277.922 233.535 279.375 233.535C280.828 233.535 281.871 232.58 281.871 231.191C281.871 229.809 280.828 228.848 279.375 228.848C277.922 228.848 276.873 229.809 276.879 231.191ZM277.582 231.191C277.576 230.207 278.338 229.475 279.375 229.469C280.406 229.475 281.162 230.207 281.168 231.191C281.162 232.176 280.406 232.902 279.375 232.891C278.338 232.902 277.576 232.176 277.582 231.191Z" fill="#333333"/>
<g filter="url(#filter0_d_2094_27436)">
<rect x="106.094" y="42" width="109" height="148" rx="6" fill="white"/>
<path d="M176.114 79.0003C176.114 87.5727 169.164 94.522 160.592 94.522C152.02 94.522 145.07 87.5727 145.07 79.0003C145.07 70.4278 152.02 63.4785 160.592 63.4785C169.164 63.4785 176.114 70.4278 176.114 79.0003Z" fill="#B9E7DE"/>
<circle cx="160.594" cy="79" r="19.5" stroke="#948A9E" stroke-width="3"/>
<path d="M122.948 121.029V118.938H121.649V121.029C121.643 123.271 120.371 125.623 118.491 126.525L119.298 127.578C120.692 126.854 121.766 125.384 122.312 123.647C122.853 125.281 123.885 126.648 125.218 127.346L126.024 126.307C124.199 125.418 122.935 123.196 122.948 121.029ZM126.94 130.162H128.239V123.9H130.208V122.793H128.239V117.912H126.94V130.162ZM140.421 117.926H139.122V125.295H140.421V122H142.212V120.92H140.421V117.926ZM131.288 119.717H135.595V121.098H131.302V124.652H132.286C134.638 124.666 136.258 124.591 138.151 124.256L138.015 123.203C136.23 123.504 134.727 123.586 132.601 123.586V122.096H136.866V118.664H131.288V119.717ZM132.341 127.893C132.341 129.314 133.906 130.135 136.456 130.135C138.972 130.135 140.53 129.314 140.53 127.893C140.53 126.471 138.972 125.623 136.456 125.623C133.906 125.623 132.341 126.471 132.341 127.893ZM133.612 127.893C133.605 127.1 134.658 126.642 136.456 126.648C138.227 126.642 139.266 127.1 139.259 127.893C139.266 128.692 138.227 129.15 136.456 129.137C134.658 129.15 133.605 128.692 133.612 127.893ZM153.437 117.912H152.192V130.162H153.437V117.912ZM143.032 123.203C143.032 125.862 144.071 127.53 145.671 127.523C147.188 127.53 148.207 126.047 148.323 123.654H149.704V129.561H150.948V118.145H149.704V122.602H148.316C148.166 120.305 147.161 118.89 145.671 118.896C144.071 118.89 143.032 120.551 143.032 123.203ZM144.235 123.203C144.235 121.248 144.789 120.106 145.671 120.113C146.573 120.106 147.134 121.248 147.134 123.203C147.134 125.151 146.573 126.3 145.671 126.293C144.789 126.3 144.235 125.151 144.235 123.203ZM165.14 117.912H163.841V130.189H165.14V117.912ZM155.774 127.182H156.786C159.329 127.175 160.929 127.106 162.761 126.771L162.624 125.691C160.895 125.999 159.404 126.067 157.087 126.074V120.127H161.64V119.047H155.774V127.182ZM171.442 125.992V125.336H170.198V125.992C170.185 127.182 169.344 128.48 167.778 129.027L168.407 129.998C169.556 129.567 170.369 128.754 170.807 127.79C171.189 128.795 171.935 129.663 173.097 130.107C174.231 129.636 174.963 128.72 175.353 127.735C175.776 128.747 176.597 129.567 177.8 129.998L178.47 129.027C176.843 128.515 176.009 127.257 176.009 125.992V125.336H174.737V125.992C174.73 126.922 174.197 128.111 173.076 128.843C171.969 128.166 171.442 127.052 171.442 125.992ZM167.286 121.48C167.279 123.169 168.64 124.365 170.485 124.365C172.105 124.365 173.377 123.395 173.63 121.973H176.009V124.857H177.308V117.912H176.009V120.906H173.609C173.329 119.519 172.071 118.582 170.485 118.582C168.64 118.582 167.279 119.785 167.286 121.48ZM168.53 121.48C168.523 120.4 169.351 119.669 170.485 119.676C171.593 119.669 172.42 120.4 172.427 121.48C172.42 122.54 171.593 123.285 170.485 123.285C169.351 123.285 168.523 122.54 168.53 121.48ZM190.638 122.725H188.737V117.912H187.438V130.148H188.737V123.791H190.638V122.725ZM179.659 127.072H180.671C182.51 127.079 184.438 126.956 186.536 126.539L186.386 125.445C184.438 125.842 182.653 125.985 180.944 125.992V119.102H179.659V127.072ZM202.505 127.551H199.825V124.324C200.81 123.771 201.397 122.902 201.397 121.822C201.397 119.895 199.504 118.63 196.872 118.623C194.247 118.63 192.354 119.895 192.36 121.822C192.354 122.923 192.969 123.798 193.974 124.352V127.551H191.294V128.631H202.505V127.551ZM193.618 121.822C193.618 120.503 194.951 119.662 196.872 119.662C198.779 119.662 200.133 120.503 200.14 121.822C200.133 123.135 198.779 123.989 196.872 123.996C194.951 123.989 193.618 123.135 193.618 121.822ZM195.259 127.551V124.83C195.751 124.946 196.298 125.008 196.872 125.008C197.46 125.008 198.014 124.946 198.513 124.83V127.551H195.259Z" fill="#2E2A32"/>
<rect x="123.594" y="148" width="74" height="26" rx="4" fill="#E6E6E6"/>
<path d="M148.57 155.578H147.832V158.332H145.594V158.953H147.832V161.742H148.57V155.578ZM140.121 161.016L140.508 161.613C141.738 161.133 142.758 160.131 143.197 158.871C143.637 159.979 144.592 160.875 145.758 161.309L146.145 160.711C144.68 160.201 143.543 158.912 143.543 157.523V156.996H145.934V156.375H140.379V156.996H142.805V157.535C142.805 159.07 141.604 160.465 140.121 161.016ZM141.75 163.992C141.738 165.199 143.039 165.891 145.172 165.902C147.305 165.891 148.605 165.199 148.605 163.992C148.605 162.791 147.305 162.088 145.172 162.094C143.039 162.088 141.738 162.791 141.75 163.992ZM142.477 163.992C142.465 163.184 143.52 162.686 145.172 162.68C146.824 162.686 147.879 163.184 147.879 163.992C147.879 164.795 146.824 165.299 145.172 165.293C143.52 165.299 142.465 164.795 142.477 163.992ZM159.891 163.922H155.496V161.59H158.695V156.328H157.969V158.273H152.32V156.328H151.57V161.59H154.758V163.922H150.422V164.555H159.891V163.922ZM152.32 160.969V158.895H157.969V160.969H152.32ZM170.262 163.922H165.867V161.59H169.066V156.328H168.34V158.273H162.691V156.328H161.941V161.59H165.129V163.922H160.793V164.555H170.262V163.922ZM162.691 160.969V158.895H168.34V160.969H162.691ZM179.66 155.578H178.934V165.914H179.66V155.578ZM171.328 163.301L171.738 163.91C175.131 162.27 176.607 159.633 176.613 156.715H171.785V157.324H175.869C175.682 159.838 174.164 161.953 171.328 163.301Z" fill="#333333"/>
</g>
<path d="M161.553 212.354C161.748 212.549 162.065 212.549 162.26 212.354L165.442 209.172C165.637 208.976 165.637 208.66 165.442 208.464C165.247 208.269 164.93 208.269 164.735 208.464L161.906 211.293L159.078 208.464C158.883 208.269 158.566 208.269 158.371 208.464C158.175 208.66 158.175 208.976 158.371 209.172L161.553 212.354ZM162.406 212L162.406 211.031L161.406 211.031L161.406 212L162.406 212ZM162.406 209.094L162.406 207.156L161.406 207.156L161.406 209.094L162.406 209.094ZM162.406 205.219L162.406 203.281L161.406 203.281L161.406 205.219L162.406 205.219ZM162.406 201.344L162.406 199.406L161.406 199.406L161.406 201.344L162.406 201.344ZM162.406 197.469L162.406 195.531L161.406 195.531L161.406 197.469L162.406 197.469ZM162.406 193.594L162.406 191.656L161.406 191.656L161.406 193.594L162.406 193.594ZM162.406 189.719L162.406 187.781L161.406 187.781L161.406 189.719L162.406 189.719ZM162.406 185.844L162.406 183.906L161.406 183.906L161.406 185.844L162.406 185.844ZM162.406 181.969L162.406 181L161.406 181L161.406 181.969L162.406 181.969Z" fill="#999999"/>
<defs>
<filter id="filter0_d_2094_27436" x="86.0938" y="22" width="149" height="188" filterUnits="userSpaceOnUse" color-interpolation-filters="sRGB">
<feFlood flood-opacity="0" result="BackgroundImageFix"/>
<feColorMatrix in="SourceAlpha" type="matrix" values="0 0 0 0 0 0 0 0 0 0 0 0 0 0 0 0 0 0 127 0" result="hardAlpha"/>
<feOffset/>
<feGaussianBlur stdDeviation="10"/>
<feComposite in2="hardAlpha" operator="out"/>
<feColorMatrix type="matrix" values="0 0 0 0 0.675057 0 0 0 0 0.592292 0 0 0 0 0.774375 0 0 0 0.25 0"/>
<feBlend mode="normal" in2="BackgroundImageFix" result="effect1_dropShadow_2094_27436"/>
<feBlend mode="normal" in="SourceGraphic" in2="effect1_dropShadow_2094_27436" result="shape"/>
</filter>
</defs>
</svg>
