<svg width="12" height="13" viewBox="0 0 12 13" fill="none" xmlns="http://www.w3.org/2000/svg">
<path d="M5.99547 0.366211C2.77547 0.366211 0.167969 2.97954 0.167969 6.19954C0.167969 9.41954 2.77547 12.0329 5.99547 12.0329C9.2213 12.0329 11.8346 9.41954 11.8346 6.19954C11.8346 2.97954 9.2213 0.366211 5.99547 0.366211ZM3.95964 3.86621C4.4438 3.86621 4.83464 4.25704 4.83464 4.74121C4.83464 5.22538 4.4438 5.61621 3.95964 5.61621C3.47547 5.61621 3.08464 5.22538 3.08464 4.74121C3.08464 4.25704 3.47547 3.86621 3.95964 3.86621ZM8.7488 7.78621C8.21797 8.92371 7.1913 9.69954 6.0013 9.69954C4.8113 9.69954 3.78464 8.92371 3.2538 7.78621C3.16047 7.59371 3.30047 7.36621 3.5163 7.36621H8.4863C8.70214 7.36621 8.84214 7.59371 8.7488 7.78621ZM8.04297 5.61621C7.5588 5.61621 7.16797 5.22538 7.16797 4.74121C7.16797 4.25704 7.5588 3.86621 8.04297 3.86621C8.52714 3.86621 8.91797 4.25704 8.91797 4.74121C8.91797 5.22538 8.52714 5.61621 8.04297 5.61621Z" fill="#7A37BE"/>
</svg>
