<svg width="121" height="25" viewBox="0 0 121 25" fill="none" xmlns="http://www.w3.org/2000/svg">
<path d="M0.496094 4.19922C0.496094 1.99008 2.28695 0.199219 4.49609 0.199219H116.496C118.705 0.199219 120.496 1.99008 120.496 4.19922V20.1992C120.496 22.4084 118.705 24.1992 116.496 24.1992H4.4961C2.28696 24.1992 0.496094 22.4084 0.496094 20.1992V4.19922Z" fill="#EEE7F5"/>
<g clip-path="url(#clip0_1435_20760)">
<path d="M24.0505 6.89718C22.878 5.72468 21.1222 5.48551 19.7105 6.17385L21.828 8.29135C22.0555 8.51885 22.0555 8.88635 21.828 9.11385L20.9005 10.0413C20.673 10.2747 20.3055 10.2747 20.078 10.0413L17.9605 7.92385C17.278 9.34135 17.5172 11.0855 18.6897 12.258C19.7747 13.343 21.3613 13.6288 22.7088 13.1213L27.3522 17.7647C27.953 18.3655 28.9213 18.3655 29.5163 17.7647C30.1172 17.1638 30.1172 16.1955 29.5163 15.6005L24.8963 10.9747C25.433 9.60968 25.153 7.99968 24.0505 6.89718Z" fill="#7A37BE"/>
</g>
<path d="M44.4121 6.77734H43.6738V8.51172H41.084V7.57422H36.3965V12.1094H41.084V11.1836H43.6738V12.918H44.4121V6.77734ZM37.123 11.5V8.18359H40.3574V11.5H37.123ZM37.5918 15.168C37.5801 16.3867 38.8809 17.0781 41.0137 17.0781C43.1465 17.0781 44.4473 16.3867 44.4473 15.168C44.4473 13.9375 43.1465 13.2285 41.0137 13.2227C38.8809 13.2285 37.5801 13.9375 37.5918 15.168ZM38.3184 15.168C38.3066 14.3359 39.3613 13.8262 41.0137 13.8203C42.666 13.8262 43.7207 14.3359 43.7207 15.168C43.7207 15.9707 42.666 16.4805 41.0137 16.4805C39.3613 16.4805 38.3066 15.9707 38.3184 15.168ZM41.084 10.5625V9.13281H43.6738V10.5625H41.084ZM51.0332 7.90234H46.6855V8.52344H50.3418V8.64062C50.3418 9.02734 50.3359 9.47266 50.3125 9.97656L46.4863 10.2227L46.5918 10.832L50.2773 10.5273C50.2246 11.1074 50.1426 11.7754 49.9902 12.5312L50.6699 12.6016C51.0273 10.8262 51.0273 9.57227 51.0332 8.64062V7.90234ZM46.1465 13.9844L46.2637 14.6289C47.6699 14.623 49.8965 14.582 51.5957 14.2891L51.5605 13.7266C50.7344 13.8379 49.7441 13.9023 48.7832 13.9434V11.6055H48.0918V13.9609C47.377 13.9785 46.6973 13.9844 46.1465 13.9844ZM52.1465 16.5391H52.8496V11.8516H54.291V17.1133H55.0059V6.77734H54.291V11.2188H52.8496V7.02344H52.1465V16.5391ZM64.6855 6.77734H63.9473V14.5352H64.6855V10.9023H66.2793V10.2695H64.6855V6.77734ZM56.6699 8.72266H62.834V8.10156H60.1152V6.78906H59.3887V8.10156H56.6699V8.72266ZM57.2793 11.2656C57.2734 12.4199 58.2637 13.1582 59.752 13.1641C61.2168 13.1582 62.207 12.4199 62.2129 11.2656C62.207 10.0996 61.2168 9.36133 59.752 9.35547C58.2637 9.36133 57.2734 10.0996 57.2793 11.2656ZM57.9824 11.2656C57.9766 10.4805 58.6855 9.95312 59.752 9.95312C60.8008 9.95312 61.5098 10.4805 61.5215 11.2656C61.5098 12.0449 60.8008 12.5664 59.752 12.5547C58.6855 12.5664 57.9766 12.0449 57.9824 11.2656ZM58.2871 16.8672H65.1895V16.2461H59.0137V13.9023H58.2871V16.8672ZM75.127 8.62891H72.877V7.09375H72.127V8.62891H69.877V9.23828H75.127V8.62891ZM70.2871 12.332C70.2812 13.7031 71.2129 14.6641 72.502 14.6641C73.7852 14.6641 74.7168 13.7031 74.7168 12.332C74.7168 10.9727 73.7852 10.0176 72.502 10.0117C71.2129 10.0176 70.2812 10.9727 70.2871 12.332ZM70.9551 12.332C70.9492 11.3828 71.5996 10.6562 72.502 10.6445C73.3984 10.6562 74.0547 11.3828 74.0605 12.332C74.0547 13.293 73.3984 14.0137 72.502 14.0078C71.5996 14.0137 70.9492 13.293 70.9551 12.332ZM75.7129 16.5859H76.4043V11.8047H77.9629V17.1133H78.666V6.77734H77.9629V11.1836H76.4043V7.03516H75.7129V16.5859ZM88.791 6.77734H88.0527V8.34766H85.5156C85.5859 8.02539 85.627 7.68555 85.627 7.32812H80.9746V7.94922H84.8066C84.6543 9.75391 83.043 11.0781 80.459 11.6992L80.7402 12.3203C83.0312 11.752 84.6895 10.6152 85.3281 8.95703H88.0527V10.3047H85.1582V10.9141H88.0527V12.0859H88.791V6.77734ZM82.1465 13.1992H88.0527V14.418H82.1816V17.0078H89.1895V16.3984H82.9082V15.0039H88.791V12.5898H82.1465V13.1992ZM94.0059 9.69531V7.70312H93.2793V9.69531C93.2676 11.5703 91.9434 13.5508 90.5137 14.2891L90.9941 14.875C92.1367 14.2422 93.1914 12.877 93.6484 11.3066C94.1172 12.7891 95.1602 14.0664 96.291 14.6758L96.748 14.0781C95.3418 13.3809 93.9941 11.5059 94.0059 9.69531ZM97.8613 17.1133H98.5996V11.6875H100.381V11.0312H98.5996V6.77734H97.8613V17.1133ZM102.502 7.71484H101.6L101.658 13.7734H102.443L102.502 7.71484ZM101.424 15.6367C101.424 15.9766 101.711 16.2637 102.057 16.2578C102.396 16.2637 102.678 15.9766 102.678 15.6367C102.678 15.291 102.396 15.0098 102.057 15.0039C101.711 15.0098 101.424 15.291 101.424 15.6367Z" fill="#7A37BE"/>
<defs>
<clipPath id="clip0_1435_20760">
<rect width="14" height="14" fill="white" transform="translate(16.9961 5.19922)"/>
</clipPath>
</defs>
</svg>
