<svg width="120" height="25" viewBox="0 0 120 25" fill="none" xmlns="http://www.w3.org/2000/svg">
<path d="M0 4.19922C0 1.99008 1.79086 0.199219 4 0.199219H116C118.209 0.199219 120 1.99008 120 4.19922V20.1992C120 22.4084 118.209 24.1992 116 24.1992H4C1.79086 24.1992 0 22.4084 0 20.1992V4.19922Z" fill="#EEE7F5"/>
<path d="M19.9679 7.85929C19.5595 7.25845 19.0929 6.69845 18.5679 6.19679C18.3637 5.99845 18.0195 6.18512 18.0779 6.46512C18.1887 7.01345 18.3054 7.73679 18.3054 8.38429C18.3054 9.58595 17.5179 10.5601 16.3162 10.5601C15.4179 10.5601 14.6829 10.0176 14.362 9.24179C14.3037 9.12512 14.2804 9.05512 14.2454 8.92679C14.1812 8.68179 13.8604 8.60595 13.7204 8.82179C13.6154 8.97929 13.5162 9.13679 13.4229 9.30595C12.7287 10.496 12.332 11.8843 12.332 13.366C12.332 15.9443 14.4204 18.0326 16.9987 18.0326C19.577 18.0326 21.6654 15.9443 21.6654 13.366C21.6654 11.3301 21.0354 9.44012 19.9679 7.85929ZM16.8295 16.2826C15.7912 16.2826 14.9512 15.466 14.9512 14.451C14.9512 13.506 15.5637 12.841 16.5904 12.631C17.4479 12.456 18.3287 12.0885 18.9412 11.511C19.1045 11.3593 19.3729 11.4293 19.4195 11.6451C19.5537 12.2401 19.6237 12.8585 19.6237 13.4826C19.6295 15.0285 18.3754 16.2826 16.8295 16.2826Z" fill="#7A37BE"/>
<path d="M31.4648 7.59766C29.9531 7.60352 28.8984 8.99805 28.9102 11.1719C28.8984 13.3516 29.9531 14.7461 31.4648 14.7461C32.9824 14.7461 34.0371 13.3516 34.043 11.1719C34.0371 8.99805 32.9824 7.60352 31.4648 7.59766ZM29.6016 11.1719C29.6016 9.44336 30.3691 8.25977 31.4648 8.25391C32.5781 8.25977 33.334 9.44336 33.3398 11.1719C33.334 12.9004 32.5781 14.0898 31.4648 14.0898C30.3691 14.0898 29.6016 12.9004 29.6016 11.1719ZM35.9297 17.1133H36.668V11.6172H38.4492V10.9844H36.668V6.77734H35.9297V17.1133ZM48.7266 8.48828H47.1328V6.77734H46.3945V13.668H47.1328V11.5938H48.7266V10.9609H47.1328V9.12109H48.7266V8.48828ZM39.3164 9.92969C39.3105 11.3887 40.4355 12.3789 42 12.3672C43.5527 12.3789 44.666 11.3887 44.6719 9.92969C44.666 8.48828 43.5527 7.51562 42 7.51562C40.4355 7.51562 39.3105 8.48828 39.3164 9.92969ZM40.043 9.92969C40.0371 8.9043 40.8633 8.14844 42 8.14844C43.1309 8.14844 43.9512 8.9043 43.957 9.92969C43.9512 10.9785 43.1309 11.7344 42 11.7344C40.8633 11.7344 40.0371 10.9785 40.043 9.92969ZM40.1133 16.4688L40.418 17.0664C41.8945 16.7676 43.4355 15.959 44.0508 14.6875C44.6543 15.959 46.1895 16.7676 47.6719 17.0664L47.9766 16.4688C46.2656 16.1641 44.4023 15.0859 44.4023 13.4922V13.1523H43.6758V13.4922C43.6758 15.0859 41.8184 16.1641 40.1133 16.4688ZM50.9414 7.71484H50.0391L50.0977 13.7734H50.8828L50.9414 7.71484ZM49.8633 15.6367C49.8633 15.9766 50.1504 16.2637 50.4961 16.2578C50.8359 16.2637 51.1172 15.9766 51.1172 15.6367C51.1172 15.291 50.8359 15.0098 50.4961 15.0039C50.1504 15.0098 49.8633 15.291 49.8633 15.6367ZM64.1016 6.77734H63.3984V9.51953H61.875V6.95312H61.1719V12.9531H61.875V10.1523H63.3984V13.0234H64.1016V6.77734ZM55.3125 11.7227L55.4062 12.3672C56.7891 12.3613 58.9922 12.332 60.6797 12.0625L60.6445 11.4883C60.2637 11.541 59.8477 11.5762 59.4141 11.6113V8.33594H60.3867V7.70312H55.5V8.33594H56.4727V11.7168C56.0508 11.7227 55.6582 11.7227 55.3125 11.7227ZM57.1055 14.1719H63.375V17.1133H64.1016V13.5508H57.1055V14.1719ZM57.1758 11.7051V8.33594H58.7227V11.6523C58.207 11.6758 57.6797 11.6934 57.1758 11.7051ZM74.0742 12.4375H67.7227V10.6328H73.7344V10.0234H67.7227V8.33594H73.9453V7.71484H66.9727V13.0586H74.0742V12.4375ZM65.7188 15.7188H75.1875V15.0859H65.7188V15.7188ZM84.5859 7.16406H76.9922V7.78516H78.6562V10.2461H77.0039V10.8438H80.4375V12.2383H76.0898V12.8477H85.5117V12.2383H81.1758V10.8438H84.5625V10.2461H82.9219V7.78516H84.5859V7.16406ZM77.1328 14.6172H83.5898V17.1133H84.3281V13.9961H77.1328V14.6172ZM79.3945 10.2461V7.78516H82.1836V10.2461H79.3945ZM91.8867 7.49219H87.1523V8.10156H91.0898C90.9199 9.99414 89.2148 11.4531 86.6367 12.168L86.9297 12.7656C89.1797 12.1445 90.832 10.9492 91.5293 9.30859H94.2422V10.8672H91.3711V11.5H94.2422V12.9531H94.9805V6.77734H94.2422V8.6875H91.7402C91.834 8.30664 91.8867 7.9082 91.8867 7.49219ZM88.0781 14.0312H94.2422V17.1016H94.9805V13.4219H88.0781V14.0312ZM105.328 6.77734H104.602V17.1133H105.328V6.77734ZM96.9961 14.5L97.4062 15.1094C100.799 13.4688 102.275 10.832 102.281 7.91406H97.4531V8.52344H101.537C101.35 11.0371 99.832 13.1523 96.9961 14.5ZM108.691 7.71484H107.789L107.848 13.7734H108.633L108.691 7.71484ZM107.613 15.6367C107.613 15.9766 107.9 16.2637 108.246 16.2578C108.586 16.2637 108.867 15.9766 108.867 15.6367C108.867 15.291 108.586 15.0098 108.246 15.0039C107.9 15.0098 107.613 15.291 107.613 15.6367Z" fill="#7A37BE"/>
</svg>
