<svg width="120" height="25" viewBox="0 0 120 25" fill="none" xmlns="http://www.w3.org/2000/svg">
<path d="M0 4.19922C0 1.99008 1.79086 0.199219 4 0.199219H116C118.209 0.199219 120 1.99008 120 4.19922V20.1992C120 22.4084 118.209 24.1992 116 24.1992H4C1.79086 24.1992 0 22.4084 0 20.1992V4.19922Z" fill="#EEE7F5"/>
<path d="M19.2875 11.0556C18.8908 9.04306 17.1233 7.53223 15 7.53223C13.3142 7.53223 11.85 8.48889 11.1208 9.88889C9.365 10.0756 8 11.5631 8 13.3656C8 15.2964 9.56917 16.8656 11.5 16.8656H19.0833C20.6933 16.8656 22 15.5589 22 13.9489C22 12.4089 20.8042 11.1606 19.2875 11.0556Z" fill="#7A37BE"/>
<path d="M34.5762 6.77734H33.8379V12.6719H34.5762V10.0117H36.1699V9.39062H34.5762V6.77734ZM26.5488 12.1328L26.8535 12.7305C29.9004 11.8984 31.7578 10.0293 31.7637 7.46875H26.9941V8.08984H30.9727C30.7969 9.96484 29.1621 11.4121 26.5488 12.1328ZM28.084 16.9609H34.5762V13.1758H28.084V16.9609ZM28.8223 16.3398V13.8086H33.8379V16.3398H28.8223ZM41.9941 7.78516V7.16406H41.2324V7.78516C41.2324 9.34961 39.1289 10.5508 37.4238 10.8086L37.7402 11.418C39.2637 11.1426 40.9746 10.2578 41.6133 8.91602C42.2637 10.2402 43.9805 11.1426 45.498 11.418L45.8027 10.8086C44.1035 10.5508 41.9883 9.32031 41.9941 7.78516ZM36.8965 13.293H41.2324V17.1133H41.9473V13.293H46.3184V12.6602H36.8965V13.293ZM50.7012 8.47656V7.375H49.9863V8.5C49.9746 10.1465 48.8145 11.5176 47.291 12.0742L47.6895 12.6836C48.9316 12.1914 49.9336 11.2012 50.3613 9.90625C50.8008 11.0488 51.7617 11.9277 52.916 12.3672L53.3379 11.793C51.8613 11.2773 50.6953 9.97656 50.7012 8.47656ZM48.9668 15.168C48.9551 16.3867 50.2559 17.0781 52.3887 17.0781C54.5215 17.0781 55.8223 16.3867 55.8223 15.168C55.8223 13.9375 54.5215 13.2285 52.3887 13.2227C50.2559 13.2285 48.9551 13.9375 48.9668 15.168ZM49.6934 15.168C49.6816 14.3418 50.7363 13.8262 52.3887 13.832C54.041 13.8262 55.0957 14.3418 55.0957 15.168C55.0957 15.9707 54.041 16.4746 52.3887 16.4805C50.7363 16.4746 49.6816 15.9707 49.6934 15.168ZM52.6348 9.70703H55.0488V12.918H55.7871V6.77734H55.0488V9.08594H52.6348V9.70703ZM66.123 6.77734H65.3848V17.125H66.123V6.77734ZM58.0488 11.1719C58.0488 13.3516 59.1328 14.7461 60.6621 14.7461C62.1797 14.7461 63.2754 13.3516 63.2754 11.1719C63.2754 8.99805 62.1797 7.60352 60.6621 7.59766C59.1328 7.60352 58.0488 8.99805 58.0488 11.1719ZM58.7637 11.1719C58.7637 9.44336 59.543 8.25977 60.6621 8.25391C61.7812 8.25977 62.5547 9.44336 62.5488 11.1719C62.5547 12.9004 61.7812 14.0898 60.6621 14.0898C59.543 14.0898 58.7637 12.9004 58.7637 11.1719ZM80.3262 11.8633H70.9043V12.4844H75.252V13.5918C73.2422 13.6562 72.0645 14.2656 72.0645 15.332C72.0645 16.4629 73.3828 17.0781 75.6152 17.0781C77.8301 17.0781 79.1484 16.4629 79.1543 15.332C79.1484 14.2656 77.9707 13.6562 75.9785 13.5918V12.4844H80.3262V11.8633ZM71.8066 7.80859H73.4707V10.1758H71.8184V10.7969H79.377V10.1758H77.7363V7.80859H79.4004V7.17578H71.8066V7.80859ZM72.8145 15.332C72.8086 14.6055 73.8809 14.1719 75.6152 14.1719C77.332 14.1719 78.4043 14.6055 78.4043 15.332C78.4043 16.0645 77.332 16.5039 75.6152 16.4922C73.8809 16.5039 72.8086 16.0645 72.8145 15.332ZM74.209 10.1758V7.80859H76.998V10.1758H74.209ZM90.7207 12.9648H81.2637V13.5742H85.6113V17.1133H86.3262V13.5742H90.7207V12.9648ZM82.5059 11.6289H89.4785V7.21094H88.7402V8.72266H83.2441V7.21094H82.5059V11.6289ZM83.2441 11.0195V9.33203H88.7402V11.0195H83.2441ZM96.873 8.62891H94.623V7.09375H93.873V8.62891H91.623V9.23828H96.873V8.62891ZM92.0332 12.332C92.0273 13.7031 92.959 14.6641 94.248 14.6641C95.5312 14.6641 96.4629 13.7031 96.4629 12.332C96.4629 10.9727 95.5312 10.0176 94.248 10.0117C92.959 10.0176 92.0273 10.9727 92.0332 12.332ZM92.7012 12.332C92.6953 11.3828 93.3457 10.6562 94.248 10.6445C95.1445 10.6562 95.8008 11.3828 95.8066 12.332C95.8008 13.293 95.1445 14.0137 94.248 14.0078C93.3457 14.0137 92.6953 13.293 92.7012 12.332ZM97.459 16.5859H98.1504V11.8047H99.709V17.1133H100.412V6.77734H99.709V11.1836H98.1504V7.03516H97.459V16.5859ZM111.486 15.1094H109.049V12.2148C109.934 11.7637 110.467 11.0312 110.467 10.1055C110.467 8.51758 108.92 7.48047 106.717 7.46875C104.531 7.48047 102.979 8.51758 102.979 10.1055C102.979 11.043 103.529 11.7871 104.432 12.2324V15.1094H102.018V15.7422H111.486V15.1094ZM103.682 10.1055C103.682 8.89844 104.953 8.08398 106.717 8.08984C108.475 8.08398 109.764 8.89844 109.764 10.1055C109.764 11.2891 108.475 12.1152 106.717 12.1094C104.953 12.1152 103.682 11.2891 103.682 10.1055ZM105.158 15.1094V12.5078C105.627 12.6367 106.148 12.707 106.717 12.707C107.297 12.707 107.836 12.6367 108.311 12.502V15.1094H105.158Z" fill="#7A37BE"/>
</svg>
