<svg width="120" height="25" viewBox="0 0 120 25" fill="none" xmlns="http://www.w3.org/2000/svg">
<path d="M0 4.19922C0 1.99008 1.79086 0.199219 4 0.199219H116C118.209 0.199219 120 1.99008 120 4.19922V20.1992C120 22.4084 118.209 24.1992 116 24.1992H4C1.79086 24.1992 0 22.4084 0 20.1992V4.19922Z" fill="#EEE7F5"/>
<path d="M19.9955 6.36621C16.7755 6.36621 14.168 8.97954 14.168 12.1995C14.168 15.4195 16.7755 18.0329 19.9955 18.0329C23.2213 18.0329 25.8346 15.4195 25.8346 12.1995C25.8346 8.97954 23.2213 6.36621 19.9955 6.36621ZM17.9596 9.86621C18.4438 9.86621 18.8346 10.257 18.8346 10.7412C18.8346 11.2254 18.4438 11.6162 17.9596 11.6162C17.4755 11.6162 17.0846 11.2254 17.0846 10.7412C17.0846 10.257 17.4755 9.86621 17.9596 9.86621ZM22.7488 13.7862C22.218 14.9237 21.1913 15.6995 20.0013 15.6995C18.8113 15.6995 17.7846 14.9237 17.2538 13.7862C17.1605 13.5937 17.3005 13.3662 17.5163 13.3662H22.4863C22.7021 13.3662 22.8421 13.5937 22.7488 13.7862ZM22.043 11.6162C21.5588 11.6162 21.168 11.2254 21.168 10.7412C21.168 10.257 21.5588 9.86621 22.043 9.86621C22.5271 9.86621 22.918 10.257 22.918 10.7412C22.918 11.2254 22.5271 11.6162 22.043 11.6162Z" fill="#7A37BE"/>
<path d="M40.5117 6.77734H39.7969V10.9844H38.1211V7.02344H37.4297V16.5625H38.1211V11.6055H39.7969V17.1133H40.5117V6.77734ZM32.1211 14.4883H32.7656C34.4238 14.4766 35.4609 14.4297 36.7031 14.1602L36.6211 13.5273C35.4492 13.7852 34.4473 13.8438 32.8594 13.8438V8.67578H36V8.05469H32.1211V14.4883ZM50.0156 6.77734H49.2891V17.1133H50.0156V11.875H51.7734V11.2422H50.0156V6.77734ZM41.9531 14.4062L42.0938 15.0508C43.9219 15.0508 46.3945 15.0215 48.668 14.6406L48.6094 14.0664C47.666 14.207 46.6523 14.2891 45.6445 14.3359V13.1465C46.875 13.0234 47.6895 12.3145 47.6953 11.2656C47.6895 10.0996 46.7051 9.34961 45.2695 9.35547C43.8223 9.34961 42.8496 10.0996 42.8555 11.2656C42.8496 12.3203 43.6641 13.0293 44.9062 13.1465V14.3652C43.8457 14.4004 42.8262 14.4062 41.9531 14.4062ZM42.1289 8.6875H48.3984V8.06641H45.6445V6.77734H44.9062V8.06641H42.1289V8.6875ZM43.5469 11.2656C43.5469 10.4863 44.2324 9.94141 45.2695 9.94141C46.2949 9.94141 46.9863 10.4863 46.9922 11.2656C46.9863 12.0391 46.2949 12.5664 45.2695 12.5547C44.2324 12.5664 43.5469 12.0391 43.5469 11.2656ZM60.4102 6.77734H59.6719V17.1133H60.4102V11.6875H62.1562V11.0547H60.4102V6.77734ZM52.5703 14.5L52.9805 15.0859C56.3262 13.4395 57.75 10.7734 57.7617 7.90234H53.0273V8.52344H57.0059C56.8242 11.0195 55.3242 13.1348 52.5703 14.5ZM75.1406 11.2539H65.7188V11.8633H75.1406V11.2539ZM66.2578 10.0703L66.5156 10.6562C68.1152 10.4746 69.8203 9.80664 70.4355 8.69336C71.0449 9.80664 72.75 10.4746 74.3555 10.6562L74.6133 10.0703C72.8672 9.90625 70.8457 9.05078 70.8398 7.80859H74.2969V7.19922H66.5859V7.80859H70.0195C70.002 9.05664 67.9863 9.90625 66.2578 10.0703ZM66.8789 13.5273H73.1836V14.6055H66.9141V16.9844H74.2266V16.375H67.6289V15.1797H73.8984V12.9414H66.8789V13.5273ZM84.5977 6.77734H83.8711V10.9844H81.2695V11.6172H83.8711V17.1133H84.5977V6.77734ZM76.1367 14.5L76.5586 15.0742C79.957 13.3984 81.2754 10.7793 81.2812 7.91406H76.5703V8.52344H80.5371C80.373 10.9844 79.0078 13.1055 76.1367 14.5ZM94.9219 6.77734H94.1719V13.8789H91.7109V14.4648H94.1719V17.125H94.9219V6.77734ZM86.4141 12.2852L86.5195 12.9297C87.3867 12.9297 88.377 12.9297 89.4141 12.8828V16.7852H90.1523V12.8477C91.2188 12.7891 92.3262 12.6836 93.3867 12.5078L93.3281 11.9453C91.0371 12.2734 88.3945 12.2852 86.4141 12.2852ZM87.2227 9.32031C87.2227 10.5449 88.2773 11.3242 89.8242 11.3242C91.3594 11.3242 92.4258 10.5449 92.4258 9.32031C92.4258 8.125 91.3594 7.32227 89.8242 7.31641C88.2773 7.32227 87.2227 8.125 87.2227 9.32031ZM87.9141 9.32031C87.9141 8.50586 88.6992 7.91406 89.8242 7.91406C90.9316 7.91406 91.7168 8.50586 91.7227 9.32031C91.7168 10.1641 90.9316 10.75 89.8242 10.75C88.6992 10.75 87.9141 10.1641 87.9141 9.32031ZM106.301 15.1094H103.863V12.2148C104.748 11.7637 105.281 11.0312 105.281 10.1055C105.281 8.51758 103.734 7.48047 101.531 7.46875C99.3457 7.48047 97.793 8.51758 97.793 10.1055C97.793 11.043 98.3438 11.7871 99.2461 12.2324V15.1094H96.832V15.7422H106.301V15.1094ZM98.4961 10.1055C98.4961 8.89844 99.7676 8.08398 101.531 8.08984C103.289 8.08398 104.578 8.89844 104.578 10.1055C104.578 11.2891 103.289 12.1152 101.531 12.1094C99.7676 12.1152 98.4961 11.2891 98.4961 10.1055ZM99.9727 15.1094V12.5078C100.441 12.6367 100.963 12.707 101.531 12.707C102.111 12.707 102.65 12.6367 103.125 12.502V15.1094H99.9727Z" fill="#7A37BE"/>
<path d="M4 1.19922H116V-0.800781H4V1.19922ZM119 4.19922V20.1992H121V4.19922H119ZM116 23.1992H4V25.1992H116V23.1992ZM1 20.1992V4.19922H-1V20.1992H1ZM4 23.1992C2.34315 23.1992 1 21.8561 1 20.1992H-1C-1 22.9606 1.23858 25.1992 4 25.1992V23.1992ZM119 20.1992C119 21.8561 117.657 23.1992 116 23.1992V25.1992C118.761 25.1992 121 22.9606 121 20.1992H119ZM116 1.19922C117.657 1.19922 119 2.54237 119 4.19922H121C121 1.43779 118.761 -0.800781 116 -0.800781V1.19922ZM4 -0.800781C1.23858 -0.800781 -1 1.4378 -1 4.19922H1C1 2.54237 2.34315 1.19922 4 1.19922V-0.800781Z" fill="#7A37BE"/>
</svg>
