<svg width="120" height="25" viewBox="0 0 120 25" fill="none" xmlns="http://www.w3.org/2000/svg">
<path d="M0 4.19922C0 1.99008 1.79086 0.199219 4 0.199219H116C118.209 0.199219 120 1.99008 120 4.19922V20.1992C120 22.4084 118.209 24.1992 116 24.1992H4C1.79086 24.1992 0 22.4084 0 20.1992V4.19922Z" fill="#EEE7F5"/>
<path d="M20.787 16.9421C20.3436 17.3446 19.6611 17.3446 19.2178 16.9363L19.1536 16.8779C16.0911 14.1071 14.0903 12.2929 14.1661 10.0296C14.2011 9.03793 14.7086 8.0871 15.5311 7.5271C17.0711 6.4771 18.9728 6.9671 19.9995 8.16877C21.0261 6.9671 22.9278 6.47127 24.4678 7.5271C25.2903 8.0871 25.7978 9.03793 25.8328 10.0296C25.9145 12.2929 23.9078 14.1071 20.8453 16.8896L20.787 16.9421Z" fill="#7A37BE"/>
<path d="M36.3867 13.3281C34.1836 13.334 32.7891 14.0254 32.7891 15.2148C32.7891 16.3867 34.1836 17.0781 36.3867 17.0781C38.5957 17.0781 39.9961 16.3867 40.0078 15.2148C39.9961 14.0254 38.5957 13.334 36.3867 13.3281ZM31.7109 12.2734H41.1328V11.6641H36.457V9.60156H35.7305V11.6641H31.7109V12.2734ZM32.8477 7.9375H39.1758V8.20703C39.1758 9.02148 39.1758 9.78906 38.8945 10.8555L39.6211 10.9375C39.9023 9.87109 39.9023 9.04492 39.9023 8.20703V7.31641H32.8477V7.9375ZM33.5273 15.2148C33.5156 14.4238 34.6699 13.9199 36.3867 13.9141C38.1152 13.9199 39.252 14.4238 39.2578 15.2148C39.252 15.9824 38.1152 16.4805 36.3867 16.4805C34.6699 16.4805 33.5156 15.9824 33.5273 15.2148ZM50.1328 6.77734H49.3945V12.6719H50.1328V10.0117H51.7266V9.39062H50.1328V6.77734ZM42.1055 12.1328L42.4102 12.7305C45.457 11.8984 47.3145 10.0293 47.3203 7.46875H42.5508V8.08984H46.5293C46.3535 9.96484 44.7188 11.4121 42.1055 12.1328ZM43.6406 16.9609H50.1328V13.1758H43.6406V16.9609ZM44.3789 16.3398V13.8086H49.3945V16.3398H44.3789ZM57.1523 6.96484C54.8789 6.96484 53.5312 7.60352 53.5312 8.75781C53.5312 9.92969 54.8789 10.5742 57.1523 10.5742C59.4316 10.5742 60.7734 9.92969 60.7734 8.75781C60.7734 7.60352 59.4316 6.96484 57.1523 6.96484ZM52.4531 11.957H61.875V11.3477H52.4531V11.957ZM53.6133 13.5273H59.918V14.582H53.6484V16.9844H60.9609V16.375H54.3633V15.1562H60.6328V12.9414H53.6133V13.5273ZM54.293 8.75781C54.293 8.00195 55.3828 7.53906 57.1523 7.53906C58.9336 7.53906 60.0234 8.00195 60.0234 8.75781C60.0234 9.54297 58.9336 9.99414 57.1523 10C55.3828 9.99414 54.293 9.54297 54.293 8.75781ZM69.1172 8.48828V8.00781H71.5078V7.39844H65.9531V8.00781H68.3789V8.5C68.3789 9.91797 67.1777 11.125 65.6719 11.6055L66.0352 12.1914C67.2949 11.7754 68.332 10.8965 68.7656 9.72461C69.2168 10.75 70.207 11.541 71.4023 11.9102L71.7656 11.3242C70.2773 10.8848 69.1113 9.76562 69.1172 8.48828ZM67.2539 13.2344H73.0312V14.4531H67.2773V17.0078H74.168V16.4102H68.0039V15.0156H73.7695V12.625H67.2539V13.2344ZM73.0312 12.1211H73.7695V9.73047H75.3633V9.10938H73.7695V6.77734H73.0312V12.1211ZM81.3164 8.62891H79.0664V7.09375H78.3164V8.62891H76.0664V9.23828H81.3164V8.62891ZM76.4766 12.332C76.4707 13.7031 77.4023 14.6641 78.6914 14.6641C79.9746 14.6641 80.9062 13.7031 80.9062 12.332C80.9062 10.9727 79.9746 10.0176 78.6914 10.0117C77.4023 10.0176 76.4707 10.9727 76.4766 12.332ZM77.1445 12.332C77.1387 11.3828 77.7891 10.6562 78.6914 10.6445C79.5879 10.6562 80.2441 11.3828 80.25 12.332C80.2441 13.293 79.5879 14.0137 78.6914 14.0078C77.7891 14.0137 77.1387 13.293 77.1445 12.332ZM81.9023 16.5859H82.5938V11.8047H84.1523V17.1133H84.8555V6.77734H84.1523V11.1836H82.5938V7.03516H81.9023V16.5859ZM90.1758 8.46484V8.19531H92.5664V7.57422H87.1055V8.19531H89.4258V8.46484C89.4258 9.58398 88.2539 10.5391 86.7891 10.8789L87.1055 11.4648C88.3594 11.1484 89.3789 10.4277 89.8184 9.48438C90.2695 10.3516 91.2891 10.9961 92.4961 11.2773L92.8125 10.7031C91.3652 10.3926 90.1758 9.50781 90.1758 8.46484ZM86.4141 12.3555L86.5195 13.0117C87.3867 13.0117 88.377 13 89.4141 12.959V16.7852H90.1523V12.918C91.2188 12.8594 92.3145 12.7539 93.375 12.5781L93.3164 12.0156C91.0254 12.3379 88.377 12.3613 86.4141 12.3555ZM91.7109 14.5234H94.1719V17.125H94.9219V6.77734H94.1719V13.9258H91.7109V14.5234ZM106.301 15.1094H103.863V12.2148C104.748 11.7637 105.281 11.0312 105.281 10.1055C105.281 8.51758 103.734 7.48047 101.531 7.46875C99.3457 7.48047 97.793 8.51758 97.793 10.1055C97.793 11.043 98.3438 11.7871 99.2461 12.2324V15.1094H96.832V15.7422H106.301V15.1094ZM98.4961 10.1055C98.4961 8.89844 99.7676 8.08398 101.531 8.08984C103.289 8.08398 104.578 8.89844 104.578 10.1055C104.578 11.2891 103.289 12.1152 101.531 12.1094C99.7676 12.1152 98.4961 11.2891 98.4961 10.1055ZM99.9727 15.1094V12.5078C100.441 12.6367 100.963 12.707 101.531 12.707C102.111 12.707 102.65 12.6367 103.125 12.502V15.1094H99.9727Z" fill="#7A37BE"/>
</svg>
