<svg width="13" height="14" viewBox="0 0 13 14" fill="none" xmlns="http://www.w3.org/2000/svg">
<path d="M7.05049 1.89718C5.87799 0.72468 4.12215 0.485514 2.71049 1.17385L4.82799 3.29135C5.05549 3.51885 5.05549 3.88635 4.82799 4.11385L3.90049 5.04135C3.67299 5.27468 3.30549 5.27468 3.07799 5.04135L0.960488 2.92385C0.277988 4.34135 0.517155 6.08551 1.68965 7.25801C2.77465 8.34301 4.36132 8.62885 5.70882 8.12135L10.3522 12.7647C10.953 13.3655 11.9213 13.3655 12.5163 12.7647C13.1172 12.1638 13.1172 11.1955 12.5163 10.6005L7.89632 5.97468C8.43299 4.60968 8.15299 2.99968 7.05049 1.89718Z" fill="#7A37BE"/>
</svg>
