<svg width="10" height="13" viewBox="0 0 10 13" fill="none" xmlns="http://www.w3.org/2000/svg">
<path d="M7.96786 1.85929C7.55953 1.25845 7.09286 0.698453 6.56786 0.196786C6.3637 -0.00154708 6.01953 0.18512 6.07786 0.46512C6.1887 1.01345 6.30536 1.73679 6.30536 2.38429C6.30536 3.58595 5.51786 4.56012 4.3162 4.56012C3.41786 4.56012 2.68286 4.01762 2.36203 3.24179C2.3037 3.12512 2.28036 3.05512 2.24536 2.92679C2.1812 2.68179 1.86036 2.60595 1.72036 2.82179C1.61536 2.97929 1.5162 3.13679 1.42286 3.30595C0.728698 4.49595 0.332031 5.88429 0.332031 7.36595C0.332031 9.94429 2.42036 12.0326 4.9987 12.0326C7.57703 12.0326 9.66536 9.94429 9.66536 7.36595C9.66536 5.33012 9.03536 3.44012 7.96786 1.85929V1.85929ZM4.82953 10.2826C3.7912 10.2826 2.9512 9.46595 2.9512 8.45095C2.9512 7.50595 3.5637 6.84095 4.59036 6.63095C5.44786 6.45595 6.3287 6.08845 6.9412 5.51095C7.10453 5.35929 7.37286 5.42929 7.41953 5.64512C7.5537 6.24012 7.6237 6.85845 7.6237 7.48262C7.62953 9.02845 6.37536 10.2826 4.82953 10.2826V10.2826Z" fill="#7A37BE"/>
</svg>
