<svg width="71" height="25" viewBox="0 0 71 25" fill="none" xmlns="http://www.w3.org/2000/svg">
<rect x="0.957031" y="0.498047" width="70" height="24" rx="4" fill="#EEE7F5"/>
<path d="M13.9922 9.23242V8.97461H16.4062V8.35352H14.0156V7.01758H13.2656V8.35352H10.8516V8.97461H13.2656V9.23242C13.2656 10.6797 12.0762 11.9043 10.582 12.373L10.957 12.959C12.1875 12.5371 13.207 11.6582 13.6406 10.5039C14.0859 11.5527 15.0586 12.3672 16.2422 12.7598L16.6172 12.1738C15.1289 11.7109 13.998 10.5625 13.9922 9.23242ZM12.1523 17.2598H18.6094V13.709H12.1523V17.2598ZM12.8672 16.6504V14.3066H17.8711V16.6504H12.8672ZM17.8711 13.2168H18.6094V10.3926H20.2031V9.75977H18.6094V7.07617H17.8711V13.2168ZM23.6836 7.89648C22.1719 7.90234 21.1172 9.29688 21.1289 11.4707C21.1172 13.6504 22.1719 15.0449 23.6836 15.0449C24.6855 15.0449 25.4824 14.4238 25.9043 13.3691H28.7227V17.4238H29.4492V7.07617H28.7227V9.44336H25.8516C25.4121 8.4707 24.6387 7.90234 23.6836 7.89648ZM21.832 11.4707C21.8262 9.74219 22.5879 8.55859 23.6836 8.55273C24.7734 8.55859 25.541 9.74219 25.5352 11.4707C25.541 13.1992 24.7734 14.3887 23.6836 14.3887C22.5879 14.3887 21.8262 13.1992 21.832 11.4707ZM26.0684 10.0762H28.7227V12.7363H26.1035C26.1914 12.3555 26.2383 11.9277 26.2383 11.4707C26.2383 10.9609 26.1797 10.4922 26.0684 10.0762ZM39.3516 7.07617H38.6133V14.834H39.3516V11.2012H40.9453V10.5684H39.3516V7.07617ZM31.3359 9.02148H37.5V8.40039H34.7812V7.08789H34.0547V8.40039H31.3359V9.02148ZM31.9453 11.5645C31.9395 12.7188 32.9297 13.457 34.418 13.4629C35.8828 13.457 36.873 12.7188 36.8789 11.5645C36.873 10.3984 35.8828 9.66016 34.418 9.6543C32.9297 9.66016 31.9395 10.3984 31.9453 11.5645ZM32.6484 11.5645C32.6426 10.7793 33.3516 10.252 34.418 10.252C35.4668 10.252 36.1758 10.7793 36.1875 11.5645C36.1758 12.3438 35.4668 12.8652 34.418 12.8535C33.3516 12.8652 32.6426 12.3438 32.6484 11.5645ZM32.9531 17.166H39.8555V16.5449H33.6797V14.2012H32.9531V17.166ZM45.0234 8.76367V7.60352H44.3086V8.7168C44.3027 10.3691 43.166 11.752 41.6719 12.3262L42.0703 12.9238C43.2773 12.4375 44.2617 11.4414 44.6895 10.1582C45.1348 11.2949 46.0957 12.2031 47.25 12.6426L47.6602 12.0449C46.2012 11.5352 45.0234 10.2109 45.0234 8.76367ZM43.043 15.5371C43.0371 16.7148 44.3145 17.377 46.4297 17.377C48.5391 17.377 49.8047 16.7148 49.8047 15.5371C49.8047 14.3711 48.5391 13.6973 46.4297 13.6973C44.3145 13.6973 43.0371 14.3711 43.043 15.5371ZM43.7695 15.5371C43.7637 14.7812 44.7949 14.3008 46.4297 14.3066C48.0645 14.3008 49.0898 14.7812 49.0898 15.5371C49.0898 16.3105 48.0645 16.7793 46.4297 16.791C44.7949 16.7793 43.7637 16.3105 43.7695 15.5371ZM48.9844 13.416H49.7227V10.4863H51.3164V9.85352H49.7227V7.07617H48.9844V13.416ZM60.0938 7.07617H59.3555V12.959H60.0938V10.2988H61.6875V9.67773H60.0938V7.07617ZM52.5586 12.2793H53.3438C55.4707 12.2734 56.7188 12.2148 58.2305 11.916L58.125 11.2949C56.6719 11.582 55.4414 11.6582 53.3438 11.6465H53.2969V8.40039H57.1289V7.79102H52.5586V12.2793ZM53.6367 17.2598H60.0938V13.5332H53.6367V17.2598ZM54.3516 16.6387V14.1426H59.3555V16.6387H54.3516Z" fill="#7A37BE"/>
</svg>
