<svg width="71" height="25" viewBox="0 0 71 25" fill="none" xmlns="http://www.w3.org/2000/svg">
<rect x="0.957031" y="0.498047" width="70" height="24" rx="4" fill="#7A37BE"/>
<path d="M15.2578 7.80273C13.084 7.80273 11.5195 8.85156 11.5195 10.4629C11.5195 11.9863 12.9141 13 14.8945 13.0996V15.4082H10.5586V16.041H20.0273V15.4082H15.6328V13.0996C17.6309 12.9941 19.0078 11.9863 19.0078 10.4629C19.0078 8.85156 17.4551 7.80273 15.2578 7.80273ZM12.2227 10.4629C12.2227 9.25 13.5176 8.41211 15.2578 8.41211C17.0098 8.41211 18.3047 9.25 18.3047 10.4629C18.3047 11.6875 17.0098 12.5137 15.2578 12.5137C13.5176 12.5137 12.2227 11.6875 12.2227 10.4629ZM29.4258 7.63867H21.832V8.24805H23.4961V10.8262H21.8438V11.4238H29.4023V10.8262H27.7617V8.24805H29.4258V7.63867ZM20.9297 13.2754H30.3516V12.6543H20.9297V13.2754ZM22.1719 17.166H29.3086V16.5449H22.9219V14.3066H22.1719V17.166ZM24.2344 10.8262V8.24805H27.0234V10.8262H24.2344ZM39.3516 7.07617H38.6133V14.834H39.3516V11.2012H40.9453V10.5684H39.3516V7.07617ZM31.3359 9.02148H37.5V8.40039H34.7812V7.08789H34.0547V8.40039H31.3359V9.02148ZM31.9453 11.5645C31.9395 12.7188 32.9297 13.457 34.418 13.4629C35.8828 13.457 36.873 12.7188 36.8789 11.5645C36.873 10.3984 35.8828 9.66016 34.418 9.6543C32.9297 9.66016 31.9395 10.3984 31.9453 11.5645ZM32.6484 11.5645C32.6426 10.7793 33.3516 10.252 34.418 10.252C35.4668 10.252 36.1758 10.7793 36.1875 11.5645C36.1758 12.3438 35.4668 12.8652 34.418 12.8535C33.3516 12.8652 32.6426 12.3438 32.6484 11.5645ZM32.9531 17.166H39.8555V16.5449H33.6797V14.2012H32.9531V17.166ZM45.0234 8.76367V7.60352H44.3086V8.7168C44.3027 10.3691 43.166 11.752 41.6719 12.3262L42.0703 12.9238C43.2773 12.4375 44.2617 11.4414 44.6895 10.1582C45.1348 11.2949 46.0957 12.2031 47.25 12.6426L47.6602 12.0449C46.2012 11.5352 45.0234 10.2109 45.0234 8.76367ZM43.043 15.5371C43.0371 16.7148 44.3145 17.377 46.4297 17.377C48.5391 17.377 49.8047 16.7148 49.8047 15.5371C49.8047 14.3711 48.5391 13.6973 46.4297 13.6973C44.3145 13.6973 43.0371 14.3711 43.043 15.5371ZM43.7695 15.5371C43.7637 14.7812 44.7949 14.3008 46.4297 14.3066C48.0645 14.3008 49.0898 14.7812 49.0898 15.5371C49.0898 16.3105 48.0645 16.7793 46.4297 16.791C44.7949 16.7793 43.7637 16.3105 43.7695 15.5371ZM48.9844 13.416H49.7227V10.4863H51.3164V9.85352H49.7227V7.07617H48.9844V13.416ZM60.0938 7.07617H59.3555V12.959H60.0938V10.2988H61.6875V9.67773H60.0938V7.07617ZM52.5586 12.2793H53.3438C55.4707 12.2734 56.7188 12.2148 58.2305 11.916L58.125 11.2949C56.6719 11.582 55.4414 11.6582 53.3438 11.6465H53.2969V8.40039H57.1289V7.79102H52.5586V12.2793ZM53.6367 17.2598H60.0938V13.5332H53.6367V17.2598ZM54.3516 16.6387V14.1426H59.3555V16.6387H54.3516Z" fill="white"/>
</svg>
